<svg width="454.082" height="336.035" xmlns="http://www.w3.org/2000/svg" xml:space="preserve" enable-background="new 0 0 454.082 336.035" version="1.1">

 <g>
  <title>Layer 1</title>
  <g id="svg_1">
   <g id="svg_2">
    <ellipse id="svg_3" ry="9.444" rx="12.102" cy="128.625" cx="421.673" fill="#F9B77A" transform="matrix(0.7252 -0.6885 0.6885 0.7252 27.3135 325.6856)"/>
   </g>
   <g id="svg_4">
    <path id="svg_5" d="m419.015,140.411c-2.721,0 -5.151,-0.981 -6.844,-2.765c-3.965,-4.177 -2.929,-11.621 2.31,-16.593c2.82,-2.678 6.41,-4.214 9.85,-4.214c2.721,0 5.15,0.982 6.844,2.765c3.965,4.175 2.929,11.62 -2.311,16.595c-2.82,2.676 -6.409,4.212 -9.849,4.212zm5.316,-21.572c-2.932,0 -6.02,1.335 -8.473,3.664c-4.438,4.214 -5.441,10.389 -2.236,13.766c1.33,1.401 3.195,2.142 5.394,2.142c2.932,0 6.02,-1.335 8.472,-3.662c4.439,-4.216 5.442,-10.392 2.236,-13.768c-1.331,-1.401 -3.195,-2.142 -5.393,-2.142z"/>
   </g>
  </g>
  <g id="Ebene_1_1_"/>
  <g display="none" id="Ebene_2">
   <g id="svg_6" display="inline">
    <g id="svg_7">
     <path id="svg_8" d="m251.055,1099c-64.979,0 -129.96,-0.025 -194.938,0.078c-3.174,0.006 -4.228,-0.299 -4.225,-3.959c0.129,-130.127 0.122,-260.252 0.028,-390.379c-0.002,-3.145 0.734,-3.818 3.837,-3.816c130.125,0.088 260.252,0.084 390.378,0.021c2.846,-0.002 3.966,0.275 3.963,3.688c-0.115,130.291 -0.111,260.584 -0.016,390.877c0.003,3.004 -0.634,3.574 -3.592,3.57c-65.143,-0.104 -130.291,-0.08 -195.435,-0.08zm-124.092,-78.977c-0.037,1.135 -0.037,2.258 1.014,3.027c1.143,3.475 3.619,5.646 6.878,7.059c2.258,3.764 5.663,6.367 9.057,8.984c0.47,2.252 1.688,3.703 4.122,3.854c0.295,0.035 0.588,0.086 0.878,0.146c0.233,1.82 1.185,2.869 3.101,2.879c0.303,0.023 0.603,0.064 0.9,0.121c0.851,3.119 3.42,4.066 6.119,4.852c0.296,0.037 0.59,0.088 0.881,0.148c2.039,3.496 5.438,4.893 9.097,5.879c0.305,0.023 0.605,0.063 0.905,0.121c0.137,1.088 0.796,1.715 1.741,2.219c13.485,7.162 27.85,11.922 42.615,15.568c0.979,0.242 1.985,0.137 2.729,-0.727c0.609,0.018 1.222,0.033 1.832,0.055c0.91,2.334 2.405,2.219 4.168,0.998c0.61,0 1.223,0 1.833,0.002c1.275,2.668 3.152,2.135 5.148,0.965c0.626,0.004 1.253,0.008 1.88,0.01c2.725,3.23 5.964,1.842 9.14,1.021c2.102,-0.541 4.012,0.512 6.022,0.721c3.808,1.275 7.611,2.521 11.118,-0.74c1.954,-0.01 3.907,-0.02 5.861,-0.029c5.847,2.25 11.492,-0.355 17.207,-0.854c1.64,-0.143 4.205,0.646 4.934,-2.115c0.62,-0.01 1.238,-0.02 1.859,-0.029c0.776,0.891 1.697,0.729 2.728,0.506c18.802,-4.045 36.362,-11.178 52.523,-21.568c3.909,-2.516 8.604,-4.32 10.828,-8.967c0.314,-0.059 0.634,-0.105 0.949,-0.146c7.021,-4.102 13.408,-8.922 17.972,-15.814l-0.015,-0.295c2.755,-0.146 3.848,-2.283 5.088,-4.244c1.331,-2.104 2.385,-4.469 4.058,-6.252c12.854,-13.703 22.854,-29.256 30.299,-46.457c8.18,-18.898 12.973,-38.611 13.454,-59.252c0.213,-9.16 -0.069,-18.33 0.088,-27.494c0.066,-3.912 -0.378,-7.611 -2.18,-11.104c0.275,-1.824 -0.082,-3.574 -0.328,-5.395c-0.73,-5.398 -4.732,-9.646 -5.352,-14.889c-1.294,-10.988 -5.938,-20.482 -11.455,-29.84c-8.178,-13.871 -17.559,-26.816 -28.227,-38.844c-7.588,-8.551 -16.541,-15.438 -26.477,-21.063c-0.332,-0.326 -0.664,-0.654 -0.996,-0.98c0.178,-2.135 -1.479,-3.332 -2.711,-4.469c-5.123,-4.725 -10.314,-9.5 -18.14,-8.6c-22.938,-11.791 -47.494,-17.027 -73.091,-18.033c-10.789,-0.424 -21.502,0.826 -32.152,2.15c-7.464,0.932 -15.046,1.996 -21.993,5.342c-4.674,0.457 -8.948,2.117 -13.047,4.316c-6.229,2.127 -12.072,5.107 -17.879,8.162c-0.66,0.34 -1.321,0.68 -1.98,1.021c-4.304,0.363 -8.354,1.15 -10.003,5.967l-0.063,0.031c-6.814,4.686 -13.572,9.436 -18.974,15.818c-0.734,0.398 -1.472,0.797 -2.207,1.195c-12.902,10.406 -22.304,23.816 -31.728,37.182c-3.423,4.854 -7.006,9.707 -8.089,15.795c-2.146,3.43 -4.228,6.887 -5.088,10.912c-1.462,2.451 -1.313,4.059 2.058,4.213c1.471,0.068 2.929,0.602 4.392,0.6c3.614,-0.006 4.479,1.328 3.794,5.02c-2.027,10.951 -1.84,11.17 -12.894,11.18c-3.614,0.002 -4.854,1.77 -5.02,4.613c-0.215,3.699 2.899,2.531 4.708,2.453c15.065,-0.645 30.131,-1.215 45.213,-0.924c0.224,2.895 -1.608,3.086 -3.824,3.068c-12.867,-0.115 -25.688,1.658 -38.568,0.98c-2.001,-0.104 -3.908,0.52 -5.852,0.752c-3.345,0.406 -4.122,2.219 -3.707,5.119c-0.079,0.738 -0.158,1.475 -0.237,2.213c-3.091,14.801 -1.844,29.66 -0.495,44.508c0.195,2.156 1.102,3.254 3.992,2.641c7.594,-1.619 15.305,-2.711 22.993,-3.844c10.463,-1.537 20.716,-4.609 31.427,-4.355c0.25,3.477 -1.018,5.402 -4.757,6.201c-15.978,3.42 -31.887,7.146 -47.838,10.688c-1.483,0.33 -2.992,0.15 -3.164,2.285c-0.251,3.125 -0.732,6.23 -0.984,9.355c-0.849,10.502 4.744,19.137 8.559,28.195c5.694,13.533 16.029,24.213 23.571,36.646c2.079,3.428 3.84,7.814 8.791,8.576c0.334,0.333 0.663,0.661 0.991,0.991z" fill="#FEFEFE"/>
     <path id="svg_9" d="m140.93,773.765c5.4,-6.379 12.159,-11.131 18.975,-15.813c0.499,7.617 0.438,15.252 0.85,22.883c0.942,17.547 1.92,35.084 3.143,52.617c0.829,11.895 1.914,23.752 2.98,35.621c1.837,20.432 3.934,40.816 7.089,61.09c0.617,3.967 5.423,8.762 8.842,7.479c5.806,-2.176 10.979,-0.588 16.342,0.926c1.239,0.35 2.938,0.406 2.581,-1.072c-1.217,-5.07 2.396,-9.504 1.353,-14.578c-2.427,-11.785 -1.562,-23.881 -1.716,-35.734c-0.415,-31.605 -0.882,-63.23 0.359,-94.875c0.703,-17.914 1.915,-35.881 1.151,-53.854c6.947,-3.344 14.529,-4.41 21.993,-5.34c10.649,-1.326 21.363,-2.576 32.152,-2.152c25.597,1.006 50.153,6.242 73.09,18.033c-0.02,22.051 -0.037,44.104 -0.056,66.154c-14.826,-9.934 -31.188,-14.004 -48.737,-11.145c-17.072,2.781 -28.942,12.006 -33.707,29.586c-2.612,9.646 -4.223,19.363 -5.587,29.205c-1.507,10.871 -2.715,21.707 -2.107,32.732c0.602,10.904 3.015,20.967 10.623,29.299c2.172,2.379 3.918,5.148 5.958,7.873c-7.715,0.449 -11.605,3.094 -12.508,8.305c-0.092,0.457 -0.183,0.916 -0.271,1.375c-2.806,0.982 -1.27,3.373 -1.626,5.131c-0.268,1.314 -0.102,2.727 -2.258,2.193c-10.615,-2.613 -21.537,-3.242 -32.328,-4.602c-15.604,-1.961 -31.2,-4.02 -46.875,-5.547c-9.586,-0.934 -19.255,-2.719 -28.874,-4.195c-3.038,-0.469 -6.329,-1.426 -8.796,1.615c-10.472,2.346 -20.938,4.709 -31.421,7.01c-1.33,0.291 -3.017,0.344 -3.184,1.859c-0.405,3.701 0.707,7.4 2.483,10.396c1.082,1.824 4.222,0.719 6.513,0.148c8.799,-2.18 17.629,-4.23 26.446,-6.334c1.924,9.412 3.79,18.834 5.803,28.229c0.664,3.098 -0.057,3.623 -3.217,3.043c-7.977,-1.463 -16.043,-2.434 -24.071,-3.619c-0.747,-0.109 -1.713,-0.795 -1.914,0.498c-0.146,0.934 0.827,1.33 1.503,1.793c4.788,12.756 12.504,23.564 22.055,33.152c0.732,1.896 1.467,3.793 2.2,5.688l-0.181,0.197c-4.951,-0.76 -6.711,-5.148 -8.791,-8.578c-7.542,-12.432 -17.877,-23.111 -23.572,-36.646c-3.813,-9.061 -9.405,-17.693 -8.558,-28.195c0.252,-3.125 0.732,-6.23 0.984,-9.355c0.172,-2.135 1.681,-1.955 3.164,-2.285c15.951,-3.541 31.86,-7.268 47.838,-10.688c3.74,-0.799 5.007,-2.725 4.76,-6.201c0.336,-0.713 0.67,-1.426 1.006,-2.137c2.876,2.578 1.489,5.697 1.27,8.75c-0.102,1.387 -1.019,3.939 1.529,3.904c1.959,-0.029 2.12,-2.469 1.971,-3.977c-1.1,-11.016 -1.328,-22.084 -2.396,-33.115c-1.672,-17.273 -2.88,-34.658 -3.004,-52.006c-0.135,-18.766 -1.697,-37.492 -1.211,-56.262c0.07,-2.823 -0.024,-5.651 -0.04,-8.479zm13.487,63.715c-1.776,0.602 -1.158,1.797 -1.42,2.652c-2.552,8.33 0.124,16.715 0.508,24.936c0.479,10.256 0.822,20.656 2.371,30.93c1.336,8.861 1.359,17.914 2.46,26.822c0.262,2.111 -0.322,6.381 3.662,5.902c3.676,-0.438 2.004,-4.123 1.856,-6.174c-0.428,-6.002 -1.528,-11.953 -2.237,-17.938c-1.207,-10.191 -2.514,-20.375 -3.39,-30.598c-0.512,-5.969 -0.87,-12.014 -1.56,-17.916c-0.712,-6.118 -0.251,-12.528 -2.25,-18.616zm0.632,-6.895c-1.098,-1.031 -0.134,-3.836 -2.61,-4.268c-1.483,-0.26 -1.502,1.502 -1.353,2.602c0.263,1.916 0.52,4.176 2.868,4.518c1.285,0.188 0.865,-1.441 1.095,-2.852z" fill="#D0F096"/>
     <path id="svg_10" d="m423.794,873.07c1.802,3.49 2.244,7.189 2.18,11.104c-0.157,9.162 0.125,18.332 -0.088,27.494c-0.481,20.641 -5.274,40.354 -13.454,59.25c-7.445,17.201 -17.442,32.756 -30.299,46.459c-1.675,1.783 -2.727,4.15 -4.058,6.252c-1.242,1.961 -2.333,4.096 -5.088,4.244c0.35,-1.957 0.694,-3.914 1.041,-5.871c1.361,-3.328 -1.509,-2.707 -2.896,-2.74c-4.653,-0.105 -5.108,-1.938 -4.013,-6.234c5.376,-21.066 8.111,-42.404 5.898,-64.229c-2.274,-22.436 -11.563,-33.098 -33.607,-37.977c-7.289,-1.613 -14.647,-1.939 -22.944,-1.092c1.918,-2.32 0.852,-5.34 4.431,-5.59c11.241,-0.779 16.51,-8.564 20.237,-17.889c1.183,-2.959 1.896,-6.295 -0.023,-9.119c-2.225,-3.27 -1.53,-6.102 0.227,-9.086c2.806,0.156 5.676,-0.018 8.402,0.525c9.887,1.969 19.951,2.27 29.915,3.492c8.333,1.02 16.675,2.016 25.037,2.732c5.465,0.469 10.944,2.979 16.468,0.248c1.393,0.029 1.713,-1.372 2.634,-1.973z" fill="#D0F096"/>
     <path id="svg_11" d="m423.794,873.07c-0.921,0.602 -1.24,2.002 -2.635,1.975c-0.249,-2.766 -1.289,-4.723 -4.44,-5.041c-5.762,-0.578 -11.498,-1.355 -17.255,-1.965c-18.738,-1.98 -37.48,-3.918 -56.224,-5.873c0.215,-5.771 1.886,-11.395 1.615,-17.223c-0.561,-12.123 -6.205,-21.684 -14.8,-29.795c0.018,-22.053 0.035,-44.104 0.055,-66.156c7.824,-0.898 13.018,3.877 18.141,8.6c1.231,1.141 2.889,2.336 2.711,4.469l0.019,0.014c-1.448,1.123 -0.967,2.729 -0.969,4.16c-0.025,23.092 -0.022,46.184 0.002,69.273c0.001,0.814 -0.363,1.83 1.941,3.586c0,-26.152 0,-51.107 0,-76.063l0,0.012c9.938,5.625 18.892,12.51 26.479,21.063c10.668,12.023 20.049,24.973 28.227,38.844c5.518,9.355 10.161,18.852 11.455,29.84c0.617,5.242 4.619,9.49 5.352,14.889c0.244,1.815 0.602,3.565 0.326,5.391z" fill="#E4BE8D"/>
     <path id="svg_12" d="m202.876,738.453c0.764,17.973 -0.448,35.939 -1.151,53.854c-1.242,31.643 -0.774,63.27 -0.36,94.875c0.156,11.854 -0.709,23.947 1.717,35.732c1.044,5.074 -2.568,9.51 -1.353,14.58c0.355,1.479 -1.342,1.42 -2.581,1.072c-5.362,-1.516 -10.536,-3.102 -16.342,-0.926c-3.419,1.279 -8.225,-3.514 -8.842,-7.479c-3.155,-20.273 -5.252,-40.66 -7.089,-61.09c-1.066,-11.871 -2.151,-23.729 -2.98,-35.621c-1.223,-17.533 -2.199,-35.07 -3.143,-52.617c-0.411,-7.631 -0.351,-15.266 -0.85,-22.885c-0.001,0 0.063,-0.031 0.063,-0.031c3.741,-1.307 7.072,-3.301 10.001,-5.967c0.66,-0.34 1.321,-0.68 1.981,-1.021c1.067,0.822 1.053,2 1.042,3.174c-0.254,25.24 1.039,50.439 2.008,75.648c0.306,7.949 0.099,15.979 1.204,23.816c0.88,6.238 -0.064,12.791 3.032,18.789c0.432,-6.438 2.907,-12.705 1.247,-19.248c-0.548,-2.162 -0.992,-4.48 -0.319,-6.398c3.012,-8.602 -0.896,-17.861 2.71,-26.361c0.223,-0.521 -0.113,-1.297 -0.229,-1.945c-1.266,-7.029 1.069,-13.869 1.33,-20.836c0.183,-4.904 1.026,-10.057 1.386,-14.979c0.636,-8.697 2.365,-17.258 2.729,-25.932c0.199,-4.725 2.243,-9.139 1.739,-13.895c4.101,-2.19 8.376,-3.852 13.05,-4.309z" fill="#E4BE8D"/>
     <path id="svg_13" d="m142.808,914.951c-0.334,0.711 -0.668,1.424 -1.004,2.137c-10.714,-0.254 -20.967,2.818 -31.43,4.357c-7.688,1.131 -15.399,2.223 -22.993,3.842c-2.892,0.615 -3.797,-0.482 -3.992,-2.639c-1.35,-14.85 -2.597,-29.707 0.497,-44.512c16.892,-1.041 33.778,-2.088 50.715,-2.18c3.637,-0.021 5.973,1.168 6.235,4.777c0.836,11.393 2.769,22.729 1.972,34.218z" fill="#BAD4E4"/>
     <path id="svg_14" d="m98.905,827.941c1.086,-6.09 4.668,-10.941 8.092,-15.795c9.424,-13.365 18.823,-26.775 31.729,-37.184c0.055,16.648 0.132,33.297 0.131,49.947c0,2.471 -0.619,4.875 -1.941,7.031c-10.79,-1.041 -21.585,-1.979 -32.441,-1.898c-2.107,0.016 -4.419,0.463 -5.57,-2.101z" fill="#BAD4E4"/>
     <path id="svg_15" d="m189.829,742.769c0.504,4.756 -1.54,9.172 -1.739,13.895c-0.364,8.672 -2.095,17.232 -2.729,25.932c-0.358,4.922 -1.204,10.072 -1.386,14.979c-0.26,6.967 -2.595,13.805 -1.33,20.836c0.117,0.648 0.452,1.424 0.229,1.945c-3.606,8.5 0.302,17.76 -2.71,26.359c-0.672,1.92 -0.229,4.238 0.319,6.398c1.66,6.543 -0.815,12.813 -1.247,19.25c-3.098,-5.998 -2.152,-12.553 -3.032,-18.791c-1.105,-7.838 -0.898,-15.867 -1.204,-23.816c-0.968,-25.207 -2.262,-50.408 -2.008,-75.646c0.012,-1.174 0.026,-2.354 -1.042,-3.174c5.807,-3.06 11.649,-6.04 17.879,-8.167z" fill="#D0F096"/>
     <path id="svg_16" d="m136.073,866.005c-15.084,-0.291 -30.147,0.279 -45.214,0.924c-1.809,0.078 -4.923,1.246 -4.708,-2.453c0.166,-2.844 1.403,-4.609 5.02,-4.613c11.053,-0.01 10.864,-0.229 12.894,-11.18c0.685,-3.689 -0.18,-5.025 -3.794,-5.02c-1.463,0.002 -2.921,-0.531 -4.392,-0.6c-3.369,-0.154 -3.521,-1.762 -2.058,-4.213c1.587,1.813 3.716,1.063 5.622,1.105c12.848,0.295 25.688,0.617 38.474,2.063l0.063,0.064c-0.031,1.432 0.084,2.771 1.902,3.049c0.021,3.627 0.042,7.254 0.063,10.881c-0.774,2.615 -2.938,4.885 -1.968,7.934c0.318,1.012 0.638,2.023 0.958,3.039c-0.954,-0.325 -1.908,-0.653 -2.862,-0.98z" fill="#BAD4E4"/>
     <path id="svg_17" d="m374.029,1022.001c-0.347,1.957 -0.691,3.914 -1.041,5.869c0,0 0.015,0.295 0.015,0.293c-4.591,1.688 -7.498,5.617 -11.061,8.609c-2.5,2.104 -6.431,3.102 -6.911,7.209c-0.315,0.039 -0.635,0.088 -0.951,0.143c-1.936,-0.342 -3.104,1.166 -4.334,2.094c-14.568,11.01 -30.91,18.326 -48.207,23.867c-4.493,1.438 -9.43,1.4 -13.536,4.068c-0.621,0.012 -1.239,0.021 -1.86,0.029c-4.066,0.443 -8.226,0.508 -12.17,1.453c-3.316,0.797 -6.976,-0.971 -9.97,1.518c-1.954,0.01 -3.907,0.021 -5.862,0.027c-3.719,0.076 -7.523,-1.188 -11.117,0.742c-2.012,-0.209 -3.922,-1.262 -6.022,-0.723c-2.82,-2.367 -6.07,-0.871 -9.14,-1.02c-0.626,-0.002 -1.253,-0.006 -1.879,-0.01c-1.417,-1.928 -3.354,-1.059 -5.148,-0.965c-0.61,-0.002 -1.223,-0.002 -1.833,-0.004c-1.042,-1.785 -2.665,-1.145 -4.168,-0.996c-0.609,-0.021 -1.222,-0.037 -1.832,-0.059c-0.513,-1.078 -1.545,-1.041 -2.515,-1.25c-9.358,-2.021 -18.435,-4.939 -27.388,-8.338c-5.856,-2.223 -11.083,-5.846 -17.185,-7.471c-0.3,-0.059 -0.602,-0.1 -0.905,-0.121c-2.05,-3.48 -5.422,-4.912 -9.097,-5.879c-0.292,-0.063 -0.585,-0.111 -0.882,-0.148c-0.795,-3.188 -3.349,-4.156 -6.119,-4.852c-0.299,-0.059 -0.6,-0.098 -0.901,-0.121c-0.086,-1.979 -1.119,-2.938 -3.1,-2.879c-0.291,-0.063 -0.583,-0.111 -0.879,-0.148c-0.35,-2.379 -1.63,-3.764 -4.121,-3.852c-3.394,-2.617 -6.799,-5.225 -9.055,-8.986c0.099,-3.533 -4.747,-4.625 -4.146,-8.4c4.271,2.342 6.033,7.666 10.977,9.195c0.457,0.467 0.914,0.932 1.371,1.396c0.214,0.254 0.428,0.51 0.641,0.766l0.206,0.252c0.271,0.26 0.542,0.52 0.813,0.779c0.413,0.352 0.825,0.697 1.238,1.047c0.302,0.309 0.604,0.613 0.905,0.92l0.059,0.078c0.066,1.787 1.366,1.961 2.714,2.068l0.271,0.135c0.31,0.242 0.618,0.484 0.927,0.729l0.08,0.098c0.07,1.754 1.354,1.93 2.675,2.059l0.313,0.158c0.321,0.229 0.644,0.457 0.964,0.684l0.057,0.064c0.101,1.91 1.472,1.98 2.885,1.994l0.083,0.084c0.124,1.715 1.394,1.895 2.704,2.018l0.24,0.154c0.333,1.668 1.616,1.754 2.942,1.768l0.097,0.09c0.563,2.221 2.638,2.844 4.252,3.854c13.453,8.439 28.284,13.668 43.521,17.521c7.714,1.951 15.63,4.193 23.848,2.994l0.361,-0.152l0.375,0.115c0.046,0.24 0.093,0.48 0.14,0.723c0.135,-0.242 0.271,-0.484 0.405,-0.729c0.389,-0.018 0.774,-0.031 1.163,-0.047c0.358,1.127 1.243,1.49 2.306,1.494c7.472,0.016 14.942,0.018 22.414,0.014c1.047,0 1.967,-0.285 2.422,-1.365c1.633,-0.17 3.266,-0.342 4.897,-0.512c1.53,1.549 3.508,1.051 5.205,0.787c5.715,-0.885 11.459,-1.762 17.045,-3.207c2.696,-0.697 6.127,-0.207 7.916,-3.285c19.79,-5.658 37.695,-15.07 53.94,-27.586c6.892,-5.301 13.315,-11.215 19.948,-16.854z" fill="#E4BE8D"/>
     <path id="svg_18" d="m139.945,856.015c-0.021,-3.627 -0.042,-7.254 -0.063,-10.883c0.175,-1.521 -0.48,-2.523 -1.904,-3.047l-0.063,-0.064c-2.893,-3.104 -0.136,-6.77 -1,-10.076c1.323,-2.158 1.941,-4.563 1.941,-7.033c0.001,-16.648 -0.077,-33.297 -0.131,-49.945c0.732,-0.396 1.468,-0.797 2.204,-1.195c0.016,2.824 0.109,5.654 0.036,8.479c-0.485,18.771 1.077,37.496 1.212,56.262c0.123,17.348 1.331,34.73 3.004,52.006c1.067,11.031 1.297,22.102 2.396,33.115c0.149,1.508 -0.012,3.945 -1.971,3.977c-2.548,0.037 -1.63,-2.52 -1.529,-3.904c0.222,-3.051 1.606,-6.172 -1.27,-8.75c0.795,-11.488 -1.139,-22.824 -1.975,-34.217c-0.266,-3.607 -2.601,-4.795 -6.235,-4.777c-16.937,0.092 -33.823,1.143 -50.716,2.184c0.078,-0.736 0.157,-1.477 0.235,-2.213c4.324,-1.145 8.729,-1.777 13.199,-1.918c11.289,-0.352 22.583,-0.598 33.867,-1.057c3.813,-0.156 7.374,-1.119 7.75,-5.967c-0.318,-1.014 -0.639,-2.025 -0.957,-3.039c1.498,-2.442 4.525,-4.496 1.97,-7.938z" fill="#E4BE8D"/>
     <path id="svg_19" d="m136.916,831.943c0.864,3.307 -1.892,6.973 1,10.078c-12.785,-1.447 -25.627,-1.77 -38.475,-2.063c-1.906,-0.043 -4.036,0.705 -5.622,-1.107c0.86,-4.025 2.942,-7.48 5.086,-10.908c1.15,2.563 3.463,2.113 5.567,2.1c10.858,-0.081 21.653,0.857 32.444,1.9z" fill="#D0F096"/>
     <path id="svg_20" d="m138.935,866.986c-0.376,4.848 -3.938,5.813 -7.75,5.967c-11.284,0.459 -22.578,0.705 -33.867,1.057c-4.47,0.141 -8.875,0.771 -13.199,1.918c-0.414,-2.898 0.363,-4.713 3.708,-5.119c1.942,-0.232 3.851,-0.855 5.852,-0.752c12.883,0.68 25.702,-1.098 38.568,-0.98c2.216,0.02 4.048,-0.172 3.824,-3.068c0.956,0.323 1.91,0.651 2.864,0.977z" fill="#D0F096"/>
     <path id="svg_21" d="m288.002,1074.156c4.106,-2.668 9.043,-2.631 13.536,-4.07c17.297,-5.541 33.639,-12.855 48.207,-23.867c1.229,-0.928 2.398,-2.436 4.334,-2.094c-2.224,4.648 -6.917,6.453 -10.826,8.969c-16.161,10.395 -33.724,17.523 -52.523,21.568c-1.031,0.222 -1.951,0.384 -2.728,-0.506z" fill="#BAD4E4"/>
     <path id="svg_22" d="m169.914,1057.095c6.101,1.625 11.326,5.248 17.185,7.471c8.954,3.396 18.028,6.316 27.388,8.338c0.97,0.209 2.002,0.174 2.515,1.252c-0.743,0.863 -1.749,0.971 -2.729,0.729c-14.767,-3.646 -29.129,-8.406 -42.615,-15.568c-0.948,-0.507 -1.607,-1.134 -1.744,-2.222z" fill="#BAD4E4"/>
     <path id="svg_23" d="m355.031,1043.982c0.48,-4.107 4.411,-5.105 6.911,-7.207c3.563,-2.994 6.47,-6.924 11.061,-8.611c-4.564,6.896 -10.951,11.716 -17.972,15.818z" fill="#BAD4E4"/>
     <path id="svg_24" d="m264.002,1077.154c2.994,-2.486 6.651,-0.721 9.97,-1.518c3.944,-0.943 8.104,-1.01 12.17,-1.451c-0.728,2.764 -3.293,1.975 -4.933,2.115c-5.715,0.498 -11.361,3.104 -17.207,0.854z" fill="#BAD4E4"/>
     <path id="svg_25" d="m130.704,1021.703c-0.596,3.781 4.25,4.871 4.151,8.406c-3.26,-1.41 -5.736,-3.584 -6.879,-7.059c0.096,-0.771 0.19,-1.545 0.283,-2.314c0.814,0.324 1.629,0.646 2.445,0.967z" fill="#BAD4E4"/>
     <path id="svg_26" d="m169.969,751.951c-2.93,2.668 -6.261,4.662 -10.002,5.969c1.648,-4.817 5.7,-5.604 10.002,-5.969z" fill="#D0F096"/>
     <path id="svg_27" d="m247.022,1077.925c3.594,-1.93 7.398,-0.666 11.117,-0.742c-3.505,3.264 -7.31,2.018 -11.117,0.742z" fill="#BAD4E4"/>
     <path id="svg_28" d="m159.912,1051.095c3.674,0.967 7.046,2.4 9.097,5.879c-3.66,-0.988 -7.058,-2.383 -9.097,-5.879z" fill="#BAD4E4"/>
     <path id="svg_29" d="m231.86,1076.185c3.068,0.146 6.318,-1.35 9.14,1.02c-3.177,0.822 -6.416,2.209 -9.14,-1.02z" fill="#BAD4E4"/>
     <path id="svg_30" d="m152.912,1046.095c2.771,0.695 5.324,1.664 6.12,4.854c-2.7,-0.787 -5.27,-1.735 -6.12,-4.854z" fill="#BAD4E4"/>
     <path id="svg_31" d="m224.832,1075.21c1.794,-0.094 3.732,-0.961 5.148,0.965c-1.996,1.17 -3.873,1.703 -5.148,-0.965z" fill="#BAD4E4"/>
     <path id="svg_32" d="m143.91,1039.095c2.491,0.088 3.771,1.475 4.122,3.854c-2.435,-0.151 -3.652,-1.602 -4.122,-3.854z" fill="#BAD4E4"/>
     <path id="svg_33" d="m218.831,1074.21c1.503,-0.146 3.125,-0.789 4.168,0.996c-1.762,1.223 -3.258,1.338 -4.168,-0.996z" fill="#BAD4E4"/>
     <path id="svg_34" d="m148.91,1043.095c1.979,-0.061 3.014,0.9 3.101,2.879c-1.917,-0.01 -2.867,-1.058 -3.101,-2.879z" fill="#BAD4E4"/>
     <path id="svg_35" d="m128.263,1020.734c-0.096,0.771 -0.191,1.545 -0.287,2.316c-1.049,-0.771 -1.049,-1.895 -1.014,-3.027c0,0 0.198,-0.188 0.196,-0.186c0.369,0.301 0.737,0.6 1.105,0.897z" fill="#D0F096"/>
     <path id="svg_36" d="m350.962,762.06c0.332,0.328 0.664,0.654 0.994,0.982c-0.001,0 -0.001,-0.012 -0.001,-0.012c-0.323,-0.32 -0.649,-0.641 -0.977,-0.957l-0.016,-0.013z" fill="#E4BE8D"/>
     <path id="svg_37" d="m126.963,1020.023c-0.329,-0.33 -0.656,-0.658 -0.985,-0.988c0,0 0.181,-0.195 0.179,-0.193c0.335,0.332 0.67,0.664 1.006,0.996l-0.2,0.185z" fill="#D0F096"/>
     <path id="svg_38" d="m145.954,1035.144c-0.413,-0.348 -0.825,-0.695 -1.236,-1.047c0.01,-0.553 -0.255,-0.82 -0.814,-0.777c0,0 -0.206,-0.252 -0.203,-0.252c0.087,-0.51 -0.104,-0.783 -0.644,-0.768c-0.457,-0.467 -0.914,-0.932 -1.367,-1.395c-0.086,-2.148 2.254,-4.34 -0.162,-6.453c-1.945,-1.703 -2.354,-4.008 -1.954,-6.369c0.354,-2.082 -0.823,-3.027 -2.225,-3.982c-3.381,-8.486 -3.581,-17.723 -6.137,-26.418c-0.533,-1.816 -0.302,-3.514 -2.782,-3.854c-8.851,-1.217 -17.686,-2.545 -26.525,-3.83c-0.677,-0.463 -1.647,-0.859 -1.503,-1.793c0.201,-1.293 1.167,-0.607 1.914,-0.498c8.027,1.186 16.096,2.156 24.071,3.619c3.16,0.58 3.881,0.055 3.217,-3.043c-2.014,-9.395 -3.879,-18.814 -5.803,-28.227c-0.17,-4.365 -2.359,-8.604 -0.84,-13.082c2.466,-3.041 5.757,-2.084 8.796,-1.615c9.619,1.479 19.288,3.264 28.874,4.193c15.675,1.525 31.271,3.586 46.875,5.549c10.791,1.357 21.712,1.984 32.328,4.6c2.155,0.531 1.99,-0.877 2.257,-2.191c0.358,-1.758 -1.178,-4.146 1.627,-5.133c1.322,1.912 1.422,3.965 0.653,6.092c-1.308,3.621 -0.232,6.811 1.483,10.211c2.12,-1.658 0.76,-4.645 3.313,-6.098c-0.408,5.141 -0.78,9.85 -1.153,14.559c-0.229,0.248 -0.214,0.482 0.042,0.703c0.639,11.297 3.547,22.188 5.959,33.168c0.118,1.506 -0.122,3.08 0.82,4.436c1.475,2.438 3.995,1.084 5.983,1.652c12.1,1.908 24.18,3.941 36.306,5.66c4.508,0.639 7.887,1.928 7.083,7.262c-0.479,3.189 1.124,4.057 3.739,4.459c4.734,0.734 9.438,1.693 14.185,2.328c6.278,0.844 12.59,1.461 18.886,2.178c-3.731,-2.973 -8.655,-1.75 -12.333,-4.969c8.086,1.063 16.172,2.119 24.258,3.182c0.042,-0.309 0.084,-0.613 0.126,-0.922c-7.188,-1.322 -14.38,-2.646 -21.57,-3.969c0.08,-0.447 0.16,-0.896 0.24,-1.348c3.854,0.541 7.712,1.035 11.555,1.637c4.727,0.738 9.44,1.258 14.197,0.313c1.035,-0.207 2,-0.605 2.076,-1.777c0.081,-1.248 -0.95,-1.709 -1.945,-1.855c-7.36,-1.094 -14.707,-2.377 -22.104,-3.127c-11.209,-1.137 -22.229,-3.473 -33.424,-4.77c-13.1,-1.518 -26.058,-4.229 -39.074,-6.426c-0.455,-0.852 -2.3,-1.275 -0.829,-2.715c2.038,1.457 4.472,0.367 6.633,1.031c1.579,1.314 3.428,0.703 5.188,0.721c12.605,1.994 25.22,3.953 37.813,6.006c3.185,0.52 4.829,0.557 5.582,-3.764c0.919,-5.275 0.195,-7.85 -5.292,-8.965c-4.813,-0.979 -9.454,-2.779 -14.198,-4.125c-1.729,-0.486 -3.251,-1.051 -3.021,-3.201c0.332,-3.121 -1.55,-2.936 -3.721,-2.789c-5.12,0.338 -10.277,0.873 -15.23,-1.143c-1.209,-1.082 -2.418,-2.164 -3.627,-3.246c-3.934,-6.777 -1.028,-14.783 -3.892,-21.758c-0.099,-0.236 -0.071,-0.766 -0.069,-0.766c4.876,-0.434 1.407,-4.439 2.737,-6.371c2.125,0.387 1.026,5.682 4.985,3.275c2.915,2.992 7.771,1.564 9.699,-2.775c0.627,-1.41 0.094,-3.967 3.001,-3.426c-0.399,2.223 -0.792,4.445 -1.208,6.668c-1.455,7.787 -2.918,8.436 -9.748,4.268c-1.67,-1.02 -3.666,-1.332 -5.127,-0.439c-1.468,0.896 -0.896,2.57 -0.41,4.35c0.818,2.992 -0.28,6.59 3.322,8.5c0.032,0.018 -0.047,0.248 -0.065,0.34c-0.946,1.455 -2.056,-1.143 -3.217,0.428c2.436,2.029 0.179,5.844 3.521,8.072c3.908,2.605 8.007,1.844 12.052,1.854c7.885,0.02 11.782,-6.857 7.955,-13.797c-3.013,-5.461 -5.732,-10.961 -3.911,-17.467c0.831,-2.965 -0.854,-3.139 -3.014,-2.924c-0.688,-2.969 1.787,-2.824 3.139,-2.521c2.423,0.541 3.247,2.418 2.417,4.932c-2.22,6.713 0.7,12.342 3.936,17.865c0.414,0.705 0.856,2.107 2.123,0.74c2.202,-2.377 4.625,-0.889 6.921,-0.295c4.092,1.059 7.72,3.619 12.167,3.793c0.003,-3.383 -4.876,-6.145 -0.449,-11.313c1.393,11.908 9.312,15.225 18.515,17.145c1.749,0.363 3.784,1.063 4.72,3.506c-1.868,0.668 -3.286,0.354 -4.911,-0.219c-9.894,-3.475 -20.313,-5.328 -29.944,-9.604c-3.809,-1.688 -6.396,-0.846 -7.896,3.055c-0.769,2 -1.539,4.006 -2.172,6.053c-1.144,3.693 -0.479,6.377 3.979,7.01c2.069,0.295 4.138,0.795 6.129,1.438c11.161,3.607 22.313,7.246 33.438,10.971c3.563,1.191 6.583,0.445 9.114,-2.137c2.46,-2.51 2.966,-5.762 1.637,-8.809c-6.752,-15.48 -13.42,-31.01 -20.711,-46.236c-3.564,-7.449 -12.332,-7.434 -17.006,-0.609c-1.491,2.178 -1.491,2.178 -4.367,2.771c0.835,-4.646 3.561,-7.725 7.688,-9.93c-3.992,-1.096 -7.731,-3.818 -11.318,1.402c-0.424,-2.764 1.463,-4.334 0.347,-6.176c-0.791,-1.305 -1.412,-3.162 -3.147,-2.387c-1.4,0.625 1.503,0.979 0.703,2.229c-0.903,1.408 -1.021,3.826 -3.695,2.281c-2.918,-1.266 -3.556,-3.895 -3.701,-6.875c-5.383,1.5 -10.314,3.361 -15.526,4.307c-10.084,1.824 -10.063,1.928 -11.025,11.977c-2.223,-2.18 -0.768,-4.936 -1.148,-7.402c-0.164,-1.049 0.408,-2.662 -1.421,-2.547c-7.055,0.443 -14.622,-1.094 -20.354,4.807c-0.964,0.992 -1.925,1.125 -3.107,0.982c0.902,-5.211 4.793,-7.855 12.509,-8.305c-2.04,-2.725 -3.786,-5.494 -5.958,-7.873c-7.607,-8.332 -10.021,-18.395 -10.623,-29.299c-0.606,-11.025 0.603,-21.861 2.107,-32.732c1.363,-9.842 2.975,-19.561 5.587,-29.205c4.765,-17.58 16.634,-26.805 33.707,-29.586c17.549,-2.859 33.911,1.211 48.737,11.143c8.596,8.113 14.238,17.674 14.801,29.797c0.27,5.828 -1.4,11.451 -1.616,17.221c-1.437,1.699 -1.523,3.838 -1.903,5.883c-1.755,2.982 -2.447,5.816 -0.225,9.086c1.921,2.822 1.206,6.16 0.023,9.119c-3.729,9.322 -8.996,17.107 -20.237,17.889c-3.579,0.25 -2.513,3.27 -4.431,5.588c8.297,-0.848 15.655,-0.521 22.944,1.092c22.045,4.879 31.333,15.543 33.607,37.979c2.213,21.824 -0.522,43.162 -5.898,64.229c-1.098,4.301 -0.643,6.129 4.011,6.236c1.389,0.031 4.259,-0.59 2.896,2.74c-6.634,5.639 -13.057,11.553 -19.946,16.857c-16.247,12.516 -34.15,21.928 -53.94,27.584c-5.599,1.135 -11.188,2.311 -16.795,3.391c-4.441,0.854 -9.091,0.52 -13.372,2.316c-1.633,0.17 -3.266,0.342 -4.898,0.516c-9.042,-0.988 -18.09,-0.723 -27.14,-0.146c-0.389,0.018 -0.775,0.031 -1.16,0.053c-0.181,-0.068 -0.364,-0.068 -0.548,0.002l-0.375,-0.115c0,0 -0.362,0.15 -0.364,0.156c-0.641,-1.172 -1.72,-1.383 -2.94,-1.488c-20.082,-1.775 -38.784,-8.109 -56.795,-16.922c-3.981,-1.949 -7.325,-5.186 -11.883,-5.963c0,0 -0.096,-0.09 -0.095,-0.092c-0.398,-1.559 -1.452,-2.029 -2.945,-1.766c0,0 -0.239,-0.156 -0.236,-0.158c-0.199,-1.613 -1.303,-2.018 -2.708,-2.014c0,0 -0.083,-0.084 -0.082,-0.084c-0.417,-1.453 -1.479,-1.971 -2.884,-1.994c0,0 -0.057,-0.064 -0.056,-0.064c-0.056,-0.604 -0.36,-0.854 -0.965,-0.684c0,0 -0.313,-0.158 -0.313,-0.16c-0.153,-1.646 -1.245,-2.074 -2.679,-2.057c0,0 -0.08,-0.1 -0.078,-0.1c-0.033,-0.596 -0.288,-0.906 -0.928,-0.727c0,0 -0.271,-0.137 -0.27,-0.139c-0.149,-1.68 -1.236,-2.133 -2.716,-2.066c0,0 -0.059,-0.076 -0.058,-0.076c-0.028,-0.589 -0.297,-0.929 -0.918,-0.921zm138.928,-126.33c-0.346,-1.295 -0.923,-1.924 -2.526,-1.936c-7.913,-0.057 -15.798,-0.512 -23.255,-3.576c-1.713,-0.705 -1.906,0.316 -1.999,1.568c-3.245,-0.063 -1.93,-4.816 -5.1,-4.955c-1.941,5.736 0.188,15.129 4.333,18.924c1.236,1.133 2.901,2.596 4.375,1.643c4.316,-2.799 7.611,-1.854 10.807,1.768c0.626,0.709 2.137,0.828 3.256,0.883c7.267,0.354 16.208,-9.18 15.697,-16.43c-2.168,-0.141 -3.49,1.925 -5.588,2.111zm-20.847,-12.779l-0.056,-0.047c2.021,3.123 5.397,2.744 8.36,2.936c4.475,0.287 8.994,-0.146 13.469,0.145c5.482,0.355 10.066,2.34 11.529,8.652c2.505,-2.02 5.853,-1.867 8.067,-4.408c4.144,-4.742 8.413,-9.316 9.885,-15.732c1.492,-6.506 3.116,-12.982 4.611,-19.49c0.252,-1.092 1.615,-2.152 0.801,-3.215c-4.335,-5.658 -1.973,-11.633 -1.022,-17.551c0.81,-5.059 -1.302,-11.826 -4.622,-13.348c-5.319,-2.436 -10.729,-4.225 -16.896,-3.238c-8.396,1.342 -16.998,3.211 -24.938,-1.994c-2.293,-1.504 -4.533,-3.094 -6.89,-4.49c-3.133,-1.857 -9.487,-0.824 -11.187,1.896c-2.634,4.225 -4.762,8.662 -6.145,13.521c-3.567,12.547 -3.559,25.607 -5.707,38.359c-1.003,5.951 -0.878,12.268 0.569,18.348c0.272,1.146 0.395,2.322 1.798,2.703c1.527,0.416 1.966,-0.725 2.62,-1.699c2.724,-4.068 6.527,-3.91 10.646,-2.719c1.696,0.488 3.082,2.152 5.108,1.371zm-99.112,46.058c-11.703,-1.537 -23.418,-2.996 -35.104,-4.66c-3.729,-0.527 -5.502,0.398 -4.642,4.408c0.02,0.828 -0.083,1.682 0.075,2.48c3.974,20.068 7.965,40.135 11.973,60.197c1.824,9.137 2.296,9.342 11.531,10.637c19.431,2.725 38.83,5.67 58.244,8.51c14.641,2.143 29.271,4.355 43.932,6.342c5.663,0.766 6.253,-0.025 5.181,-5.473c-3.819,-19.422 -7.656,-38.84 -11.536,-58.25c-3.312,-16.563 -2.148,-14.154 -18.489,-16.33c-9.375,-1.248 -18.845,-2.096 -28.174,-3.393c-10.984,-1.522 -21.95,-3.276 -32.991,-4.468zm137.782,-15.666c1.721,0.959 4.038,1.453 4.697,2.777c1.75,3.508 4.723,4.234 8.012,4.969c2.414,0.541 4.702,1.633 7.107,2.23c6.828,1.689 11.046,5.895 13.868,12.357c6.311,14.449 13.211,28.645 19.055,43.303c0.466,1.17 0.624,2.871 2.423,2.662c1.537,-0.176 2.678,-0.953 3.014,-2.787c3.367,-18.395 4.983,-36.902 0.945,-55.316c-2.481,-11.322 -8.831,-19.98 -20.964,-23.039c-7.381,-1.859 -14.839,-1.707 -22.33,-1.414c-1.406,0.055 -2.644,0.41 -3.286,1.814c-2.606,5.704 -7.142,9.497 -12.541,12.444zm18.698,-25.408c8.729,0.016 19.507,-13.857 17.332,-21.885c-0.931,-3.434 -3.363,-5.814 -7.039,-3.984c-5.121,2.547 -9.977,5.684 -11.45,11.904c-0.724,3.059 -1.23,6.201 -2.315,9.127c-1.577,4.248 0.55,4.965 3.472,4.838zm-20.388,115.553c-2.125,-1.381 -3.825,-1.207 -5.438,-1.451c-11.612,-1.76 -23.215,-3.582 -34.833,-5.291c-1.709,-0.252 -4.396,-2.201 -4.991,0.4c-0.562,2.445 2.737,2.174 4.438,2.869c0.717,0.295 1.655,-0.016 2.475,0.096c5.834,0.775 11.664,1.592 18.263,2.498c-1.688,1.652 -2.923,1.885 -4.183,2.184c-5.325,1.271 -10.606,2.73 -15.959,3.873c-2.543,0.545 -2.582,1.779 -2.187,3.934c0.503,2.74 1.781,2.457 3.868,1.852c12.582,-3.661 25.202,-7.187 38.547,-10.964zm-98.352,15.039c0.758,-0.422 2.646,0.98 2.446,-1.117c-0.164,-1.736 0.491,-4.055 -2.598,-4.494c-7.646,-1.092 -15.25,-2.455 -22.877,-3.684c-1.259,-0.201 -2.339,0.051 -2.515,1.613c-0.197,1.77 -0.082,3.473 2.087,3.84c7.786,1.32 15.582,2.559 23.457,3.842zm28.894,-1.479c-1.052,-0.105 -2.542,0.154 -2.582,2.527c-0.034,2.041 0.853,2.863 2.937,3.08c6.916,0.717 13.814,1.596 20.708,2.508c1.489,0.199 3.043,1.035 3.305,-1.396c0.205,-1.896 -0.387,-3.25 -2.504,-3.553c-7.026,-1.007 -14.049,-2.033 -21.864,-3.166zm-9.041,4.996c1.466,-1.063 4.129,1.105 4.354,-2.139c0.183,-2.605 -0.933,-4.002 -3.557,-4.322c-4.249,-0.521 -8.48,-1.184 -12.73,-1.689c-1.438,-0.17 -3.17,-0.451 -3.408,1.756c-0.201,1.873 0.592,3.469 2.473,3.729c4.393,0.605 8.758,1.287 12.868,2.665zm-50.84,-8.17c1.368,-0.064 3.205,0.693 3.171,-1.826c-0.026,-1.865 0.051,-3.736 -2.555,-4.039c-3.123,-0.365 -6.225,-0.926 -9.351,-1.266c-1.678,-0.184 -4.174,-2.313 -4.688,1.184c-0.401,2.746 1.364,4.289 4.051,4.674c3.121,0.445 6.245,0.846 9.372,1.273zm-15.33,-2.433c0.279,-4.713 -1.78,-6.621 -6.134,-6.414c-1.273,0.061 -2.572,-0.459 -3.863,-0.693c-1.874,-0.34 -4.215,-0.393 -4.611,1.6c-0.345,1.729 1.647,3.229 3.43,3.623c3.661,0.81 7.401,1.269 11.178,1.884zm117.134,-7.625c-0.053,-0.24 -0.104,-0.48 -0.158,-0.719c-4.547,-0.768 -9.092,-1.547 -13.641,-2.295c-1.929,-0.314 -3.509,0.025 -2.818,2.496c0.488,1.75 -0.654,5.137 3.028,4.332c4.589,-1 9.065,-2.519 13.589,-3.814zm77.322,12.301c-2.065,-0.195 -4.131,-0.395 -6.196,-0.59c1.947,1.789 4.128,1.199 6.196,0.59z" fill="#654027"/>
     <path id="svg_39" d="m271.089,953.871c-1.331,1.932 2.138,5.938 -2.738,6.371c-0.002,0 -0.027,0.527 0.069,0.766c2.861,6.975 -0.042,14.98 3.892,21.758c-0.185,4.031 -0.888,7.908 0.295,12.119c0.767,2.729 2.815,8.084 -3.786,8.389c-2.16,-0.666 -4.595,0.424 -6.633,-1.031c-2.726,-0.41 -5.448,-0.818 -8.173,-1.229c-2.412,-10.979 -5.32,-21.871 -5.958,-33.168c4.349,0.285 8.735,-0.395 13.077,0.447c-4.227,-2.02 -8.729,-1.01 -13.12,-1.152c0.374,-4.707 0.746,-9.416 1.153,-14.557c-2.553,1.449 -1.191,4.438 -3.313,6.098c-1.717,-3.402 -2.791,-6.59 -1.483,-10.213c0.769,-2.127 0.668,-4.18 -0.653,-6.09c0.091,-0.459 0.182,-0.918 0.271,-1.375c1.185,0.143 2.145,0.01 3.108,-0.982c5.73,-5.898 13.299,-4.361 20.354,-4.807c1.828,-0.115 1.256,1.498 1.42,2.547c0.383,2.467 -1.072,5.225 1.148,7.402c0.358,2.902 0.713,5.804 1.07,8.707zm-9.532,-11.526c-2.072,4.717 -1.609,8.281 4.313,9.342c0.279,-1.221 0.555,-3.639 -0.314,-3.451c-5.859,1.252 -2.488,-3.076 -3.183,-4.881c0.101,-0.396 0.406,-0.924 0.257,-1.166c-0.3,-0.482 -0.757,-0.24 -1.073,0.156z" fill="#BAD4E4"/>
     <path id="svg_40" d="m101.903,980c8.841,1.285 17.676,2.611 26.525,3.828c2.48,0.342 2.248,2.037 2.782,3.854c2.556,8.697 2.755,17.932 6.134,26.418c-1.262,-0.232 -2.547,-0.756 -3.771,-0.643c-3.232,0.303 -6.347,-2.693 -9.614,-0.307c-9.552,-9.588 -17.268,-20.395 -22.056,-33.15z" fill="#E4BE8D"/>
     <path id="svg_41" d="m122.96,936.976c-1.521,4.479 0.669,8.717 0.84,13.082c-8.818,2.102 -17.648,4.154 -26.447,6.334c-2.291,0.566 -5.432,1.676 -6.513,-0.148c-1.776,-2.996 -2.89,-6.695 -2.483,-10.396c0.167,-1.518 1.854,-1.568 3.184,-1.859c10.48,-2.304 20.947,-4.669 31.419,-7.013z" fill="#9C9599"/>
     <path id="svg_42" d="m154.417,837.48c1.999,6.088 1.538,12.496 2.253,18.621c0.688,5.9 1.049,11.945 1.56,17.914c0.875,10.223 2.183,20.406 3.39,30.6c0.709,5.982 1.811,11.936 2.237,17.936c0.146,2.053 1.818,5.734 -1.856,6.176c-3.984,0.479 -3.4,-3.791 -3.662,-5.902c-1.102,-8.908 -1.125,-17.961 -2.46,-26.824c-1.549,-10.271 -1.892,-20.674 -2.371,-30.928c-0.384,-8.221 -3.061,-16.605 -0.508,-24.936c0.259,-0.86 -0.36,-2.055 1.417,-2.657z" fill="#E4BE8D"/>
     <path id="svg_43" d="m123.958,1013.152c3.269,-2.389 6.382,0.605 9.614,0.307c1.227,-0.115 2.512,0.408 3.771,0.641c1.404,0.957 2.582,1.902 2.229,3.984c-0.399,2.361 0.009,4.666 1.954,6.369c2.416,2.113 0.076,4.305 0.162,6.453c-4.946,-1.531 -6.71,-6.857 -10.979,-9.199c-0.819,-0.324 -1.636,-0.646 -2.448,-0.971c-0.364,-0.301 -0.732,-0.6 -1.1,-0.896c-0.334,-0.334 -0.669,-0.666 -1.003,-0.998c-0.734,-1.899 -1.467,-3.794 -2.2,-5.69z" fill="#9C9599"/>
     <path id="svg_44" d="m155.049,830.585c-0.229,1.41 0.188,3.039 -1.095,2.852c-2.351,-0.342 -2.605,-2.602 -2.868,-4.518c-0.15,-1.1 -0.133,-2.859 1.353,-2.602c2.477,0.433 1.512,3.237 2.61,4.268z" fill="#E4BE8D"/>
     <path id="svg_45" d="m341.338,868.044c0.378,-2.043 0.467,-4.182 1.901,-5.881c18.742,1.957 37.484,3.895 56.225,5.875c5.757,0.605 11.493,1.387 17.255,1.965c3.151,0.318 4.191,2.275 4.44,5.041c-5.521,2.729 -11.002,0.221 -16.467,-0.248c-8.362,-0.717 -16.704,-1.715 -25.037,-2.734c-9.964,-1.219 -20.027,-1.521 -29.915,-3.49c-2.727,-0.545 -5.597,-0.371 -8.402,-0.528z" fill="#9C9599"/>
     <path id="svg_46" d="m350.979,762.074c0.325,0.316 0.651,0.637 0.977,0.957c0,24.955 0,49.908 0,76.063c-2.307,-1.756 -1.94,-2.771 -1.941,-3.586c-0.024,-23.092 -0.027,-46.184 -0.002,-69.273c0,-1.433 -0.482,-3.04 0.966,-4.161z" fill="#D0F096"/>
     <path id="svg_47" d="m139.945,856.015c2.556,3.439 -0.473,5.496 -1.967,7.934c-0.969,-3.049 1.192,-5.321 1.967,-7.934z" fill="#D0F096"/>
     <path id="svg_48" d="m137.979,842.085c1.424,0.521 2.079,1.523 1.904,3.045c-1.82,-0.273 -1.935,-1.613 -1.904,-3.045z" fill="#D0F096"/>
     <path id="svg_49" d="m163.869,1048.242c4.557,0.777 7.899,4.014 11.882,5.961c18.012,8.813 36.713,15.146 56.795,16.924c1.222,0.107 2.302,0.316 2.94,1.488c-8.214,1.195 -16.13,-1.047 -23.844,-2.998c-15.237,-3.854 -30.068,-9.082 -43.521,-17.521c-1.614,-1.013 -3.688,-1.634 -4.252,-3.854z" fill="#9C9599"/>
     <path id="svg_50" d="m269.975,1072.15c4.28,-1.797 8.93,-1.463 13.372,-2.316c5.606,-1.08 11.195,-2.256 16.794,-3.389c-1.789,3.078 -5.22,2.588 -7.916,3.285c-5.586,1.445 -11.33,2.322 -17.045,3.207c-1.698,0.264 -3.674,0.762 -5.205,-0.787z" fill="#9C9599"/>
     <path id="svg_51" d="m237.935,1072.519c9.05,-0.572 18.099,-0.842 27.141,0.146c-0.454,1.078 -1.374,1.363 -2.421,1.363c-7.472,0.004 -14.942,0.002 -22.415,-0.014c-1.062,-0.003 -1.946,-0.368 -2.305,-1.495z" fill="#9C9599"/>
     <path id="svg_52" d="m160.83,1046.386c1.492,-0.266 2.545,0.205 2.944,1.768c-1.327,-0.016 -2.611,-0.1 -2.944,-1.768z" fill="#9C9599"/>
     <path id="svg_53" d="m146.918,1036.142c1.479,-0.064 2.565,0.389 2.716,2.066c-1.35,-0.105 -2.649,-0.279 -2.716,-2.066z" fill="#9C9599"/>
     <path id="svg_54" d="m150.91,1039.169c1.433,-0.018 2.523,0.41 2.678,2.059c-1.324,-0.129 -2.608,-0.305 -2.678,-2.059z" fill="#9C9599"/>
     <path id="svg_55" d="m154.918,1042.136c1.403,0.023 2.469,0.539 2.885,1.992c-1.413,-0.011 -2.784,-0.082 -2.885,-1.992z" fill="#9C9599"/>
     <path id="svg_56" d="m157.885,1044.212c1.405,-0.004 2.508,0.4 2.708,2.016c-1.314,-0.123 -2.585,-0.299 -2.708,-2.016z" fill="#9C9599"/>
     <path id="svg_57" d="m145.954,1035.144c0.621,-0.008 0.891,0.332 0.906,0.922c-0.301,-0.309 -0.604,-0.615 -0.906,-0.922z" fill="#9C9599"/>
     <path id="svg_58" d="m143.902,1033.318c0.562,-0.043 0.825,0.227 0.814,0.777c-0.271,-0.258 -0.542,-0.517 -0.814,-0.777z" fill="#9C9599"/>
     <path id="svg_59" d="m149.903,1038.345c0.641,-0.18 0.896,0.131 0.928,0.729c-0.31,-0.244 -0.619,-0.487 -0.928,-0.729z" fill="#9C9599"/>
     <path id="svg_60" d="m143.055,1032.3c0.537,-0.018 0.729,0.258 0.643,0.768c-0.215,-0.258 -0.429,-0.514 -0.643,-0.768z" fill="#9C9599"/>
     <path id="svg_61" d="m153.899,1041.386c0.604,-0.17 0.909,0.082 0.965,0.686c-0.322,-0.229 -0.644,-0.457 -0.965,-0.686z" fill="#9C9599"/>
     <path id="svg_62" d="m236.227,1072.574c0.186,-0.072 0.368,-0.07 0.548,-0.002c-0.139,0.236 -0.273,0.479 -0.408,0.725c-0.047,-0.241 -0.094,-0.483 -0.14,-0.723z" fill="#9C9599"/>
     <path id="svg_63" d="m164.923,942.093c11.041,1.191 22.008,2.945 32.991,4.473c9.329,1.295 18.798,2.141 28.174,3.389c16.341,2.178 15.18,-0.23 18.489,16.332c3.88,19.408 7.716,38.826 11.536,58.248c1.072,5.447 0.482,6.238 -5.181,5.473c-14.661,-1.982 -29.292,-4.199 -43.932,-6.34c-19.414,-2.84 -38.813,-5.785 -58.244,-8.512c-9.235,-1.295 -9.707,-1.5 -11.531,-10.637c-4.008,-20.063 -7.999,-40.129 -11.973,-60.197c-0.157,-0.799 -0.057,-1.65 -0.075,-2.479c0.88,-1.871 1.696,-2.852 4.388,-2.344c7.885,1.49 15.864,2.625 23.856,3.309c3.766,0.318 7.8,1.42 11.502,-0.715zm34.222,50.578c-0.153,-8.967 -3.439,-14.525 -9.551,-18.213c-7.565,-4.564 -14.812,-0.334 -14.738,8.459c0.058,6.834 3.263,12.096 8.627,16.078c3.231,2.395 6.892,3.613 10.732,1.637c3.832,-1.972 5.035,-5.533 4.93,-7.961z" fill="#9C9599"/>
     <path id="svg_64" d="m264.035,896.035c-2.026,0.781 -3.412,-0.883 -5.103,-1.373c-4.119,-1.189 -7.924,-1.35 -10.646,2.719c-0.654,0.979 -1.093,2.117 -2.62,1.701c-1.402,-0.383 -1.524,-1.557 -1.798,-2.705c-1.447,-6.08 -1.572,-12.395 -0.569,-18.346c2.149,-12.754 2.14,-25.814 5.707,-38.359c1.383,-4.861 3.511,-9.299 6.145,-13.523c1.697,-2.721 8.054,-3.756 11.187,-1.896c2.354,1.396 4.597,2.988 6.89,4.49c7.94,5.207 16.543,3.336 24.938,1.996c6.167,-0.984 11.574,0.805 16.896,3.238c3.32,1.521 5.432,8.289 4.622,13.346c-0.948,5.918 -3.313,11.893 1.022,17.553c0.814,1.063 -0.549,2.121 -0.801,3.215c-1.495,6.506 -3.119,12.982 -4.609,19.49c-1.474,6.416 -5.743,10.988 -9.887,15.734c-2.217,2.537 -5.563,2.387 -8.066,4.406c-1.464,-6.313 -6.048,-8.297 -11.53,-8.652c-4.475,-0.291 -8.994,0.143 -13.468,-0.146c-2.964,-0.189 -6.341,0.189 -8.361,-2.934c2.095,-0.17 4.188,-0.342 6.144,-0.5c-2.325,-1.063 -5.588,-0.635 -7.139,-3.602c-1.537,-2.945 0.453,-5.633 0.864,-8.719c-5.59,6.047 -5.586,6.043 -0.502,11.66c0.299,0.336 0.459,0.8 0.684,1.207zm19.111,-25.918c-1.479,-0.223 -1.932,0.805 -1.967,1.898c-0.036,1.064 0.983,0.961 1.735,1.033c0.762,0.723 1.522,1.443 2.285,2.164c4.017,1.637 8.224,2.396 12.526,2.701c1.626,0.219 3.076,-0.369 4.518,-0.988c1.523,-0.268 3.106,-0.66 2.86,-2.635c-0.33,-2.639 -1.825,-4.732 -4.397,-5.408c-4.433,-1.162 -8.95,-2.012 -13.454,-2.887c-3.557,-0.689 -4.742,0.887 -3.758,4.277l-0.348,-0.155zm-34.064,-4.159c-1.174,1.43 0.203,1.889 0.979,2.576l-0.021,-0.135c3.5,3.352 8.388,2.174 12.417,3.795c2.83,0.736 3.864,-1.709 5.494,-3.102c1.707,-2.744 2.179,-5.602 -1.535,-6.646c-4.237,-1.193 -8.688,-1.779 -13.09,-2.188c-2.439,-0.227 -4.321,1.52 -5.464,3.639c-0.566,1.053 -0.88,2.551 1.35,2.107l-0.13,-0.046zm40.711,-6.187c5.33,-0.59 9.808,0.709 13.741,3.959c0.803,0.66 1.911,1.959 2.948,0.613c0.888,-1.148 -0.332,-2.168 -1.095,-2.953c-4.072,-4.191 -9.115,-5.984 -14.885,-5.484c-2.289,0.197 -6.199,-0.713 -6.102,2.461c0.104,3.183 3.737,0.701 5.393,1.404zm-31.493,-10.152c-2.842,0.225 -5.591,0.762 -7.989,2.432c-0.689,0.48 -1.416,1.063 -1.118,2c0.348,1.094 1.333,0.861 2.048,0.543c5.548,-2.477 10.666,-1.32 15.628,1.666c0.961,0.58 2.203,1.354 2.92,-0.24c0.569,-1.27 -0.307,-2.201 -1.291,-2.928c-3.033,-2.231 -6.439,-3.376 -10.198,-3.473zm5.69,31.861c1.906,-1.383 2.505,-3.066 1.825,-5.172c-0.608,1.727 -1.217,3.449 -1.825,5.172z" fill="#E4BE8D"/>
     <path id="svg_65" d="m300.275,935.757c2.675,1.545 2.792,-0.873 3.695,-2.281c0.8,-1.25 -2.104,-1.604 -0.703,-2.229c1.737,-0.775 2.358,1.082 3.147,2.387c1.116,1.842 -0.771,3.412 -0.347,6.178c3.587,-5.225 7.326,-2.5 11.318,-1.404c-4.13,2.205 -6.854,5.281 -7.688,9.93c2.876,-0.596 2.876,-0.596 4.367,-2.771c4.674,-6.822 13.439,-6.84 17.006,0.609c7.291,15.23 13.959,30.756 20.711,46.236c1.329,3.047 0.823,6.299 -1.637,8.809c-2.531,2.582 -5.551,3.328 -9.114,2.137c-11.124,-3.725 -22.275,-7.361 -33.438,-10.971c-1.991,-0.645 -4.06,-1.145 -6.129,-1.438c-4.46,-0.631 -5.121,-3.314 -3.979,-7.008c0.633,-2.047 1.403,-4.055 2.172,-6.055c1.5,-3.898 4.088,-4.74 7.896,-3.055c9.632,4.273 20.053,6.129 29.945,9.605c1.625,0.57 3.043,0.885 4.91,0.217c-0.936,-2.443 -2.971,-3.143 -4.72,-3.506c-9.203,-1.918 -17.122,-5.234 -18.515,-17.145c-4.426,5.168 0.454,7.93 0.451,11.314c-4.449,-0.174 -8.077,-2.736 -12.168,-3.793c-2.297,-0.596 -4.72,-2.082 -6.922,0.293c-1.267,1.367 -1.709,-0.035 -2.123,-0.74c-3.232,-5.523 -6.152,-11.152 -3.936,-17.865c0.83,-2.514 0.006,-4.391 -2.417,-4.932c-1.352,-0.303 -3.826,-0.447 -3.139,2.521l-0.152,0.146c-2.904,-0.539 -2.372,2.018 -2.999,3.428c-1.928,4.34 -6.784,5.77 -9.699,2.777c-0.001,0 -0.037,-0.104 -0.037,-0.104c0.405,-0.049 0.813,-0.096 1.22,-0.143c-0.069,-0.291 -0.139,-0.58 -0.209,-0.869l-0.012,0.012c0.409,-0.047 0.817,-0.096 1.229,-0.143c-0.071,-0.291 -0.143,-0.582 -0.215,-0.873l-0.031,0.023c1.313,0.928 1.665,-0.039 2.007,-1.02l0.002,-0.002c0.688,0.016 1.039,-0.301 1.006,-1.006l-0.001,0.002c0.705,0.041 1.065,-0.266 0.999,-0.998l0.012,-0.016c1.339,-0.445 2.128,-1.115 1.035,-2.551c6.722,-3.327 11.837,-8.674 17.202,-13.706z" fill="#BAD4E4"/>
     <path id="svg_66" d="m302.705,926.427c5.398,-2.945 9.936,-6.74 12.541,-12.441c0.645,-1.404 1.88,-1.762 3.286,-1.814c7.491,-0.293 14.949,-0.445 22.33,1.414c12.133,3.059 18.48,11.717 20.964,23.039c4.038,18.414 2.422,36.924 -0.945,55.318c-0.337,1.832 -1.477,2.609 -3.014,2.785c-1.799,0.209 -1.957,-1.492 -2.423,-2.662c-5.844,-14.658 -12.744,-28.854 -19.055,-43.303c-2.822,-6.465 -7.04,-10.668 -13.868,-12.357c-2.405,-0.6 -4.693,-1.689 -7.107,-2.23c-3.288,-0.732 -6.262,-1.461 -8.012,-4.969c-0.659,-1.327 -2.976,-1.821 -4.697,-2.78z" fill="#9C9599"/>
     <path id="svg_67" d="m275.938,986.013c4.953,2.016 10.11,1.479 15.23,1.141c2.171,-0.145 4.053,-0.332 3.721,2.789c-0.229,2.15 1.295,2.715 3.021,3.203c4.744,1.344 9.388,3.146 14.198,4.123c5.487,1.115 6.211,3.689 5.292,8.965c-0.753,4.318 -2.397,4.281 -5.582,3.764c-12.596,-2.053 -25.208,-4.01 -37.813,-6.004c0.162,-6.047 -0.474,-12.178 1.933,-17.981z" fill="#BAD4E4"/>
     <path id="svg_68" d="m263.016,1004.953c13.02,2.195 25.978,4.908 39.074,6.426c11.193,1.297 22.215,3.633 33.424,4.771c7.396,0.748 14.743,2.031 22.104,3.125c0.995,0.146 2.026,0.607 1.945,1.857c-0.076,1.172 -1.041,1.57 -2.076,1.775c-4.757,0.947 -9.473,0.43 -14.195,-0.313c-3.845,-0.602 -7.702,-1.096 -11.557,-1.637c-0.08,0.449 -0.16,0.9 -0.24,1.35c7.19,1.322 14.382,2.646 21.57,3.969c-0.042,0.307 -0.084,0.611 -0.126,0.922c-8.086,-1.063 -16.172,-2.121 -24.258,-3.184c3.678,3.221 8.602,1.996 12.333,4.971c-6.296,-0.717 -12.605,-1.336 -18.886,-2.178c-4.746,-0.637 -9.448,-1.594 -14.185,-2.328c-2.614,-0.404 -4.218,-1.271 -3.738,-4.459c0.803,-5.334 -2.576,-6.623 -7.084,-7.264c-12.126,-1.717 -24.206,-3.75 -36.305,-5.658c1.153,-0.193 2.229,-0.469 2.084,-2.01l0.116,-0.135zm65.952,16.187c-1.533,-1.377 -2.704,-1.313 -4.34,-0.691c1.468,0.576 2.46,1.42 4.34,0.691z" fill="#9C9599"/>
     <path id="svg_69" d="m288.926,950.796c2.157,-0.215 3.845,-0.039 3.014,2.926c-1.82,6.504 0.898,12.004 3.911,17.465c3.827,6.939 -0.07,13.816 -7.955,13.799c-4.045,-0.012 -8.144,0.75 -12.051,-1.855c-3.346,-2.229 -1.089,-6.041 -3.522,-8.072c1.161,-1.568 2.271,1.029 3.217,-0.428c0.021,-0.09 0.101,-0.32 0.065,-0.338c-3.604,-1.912 -2.504,-5.51 -3.321,-8.5c-0.485,-1.779 -1.059,-3.455 0.409,-4.35c1.461,-0.895 3.457,-0.58 5.127,0.438c6.83,4.17 8.293,3.521 9.748,-4.268c0.416,-2.221 0.809,-4.443 1.208,-6.668c-0.004,0 0.15,-0.149 0.15,-0.149z" fill="#E4BE8D"/>
     <path id="svg_70" d="m300.275,935.757c-5.364,5.031 -10.479,10.379 -17.2,13.713c-0.253,0.889 -2.104,1.125 -1.034,2.553l-0.012,0.014c-0.411,0.045 -0.824,0.09 -1.237,0.135c0.08,0.287 0.16,0.574 0.238,0.861l0.002,0c-0.358,-0.02 -0.718,-0.035 -1.076,-0.053c0.022,0.352 0.047,0.703 0.069,1.057c0,0 -0.002,0.002 -0.001,0.002c-1.34,-0.979 -1.707,-0.043 -2.008,1.02l0.031,-0.023c-0.729,-0.053 -1.094,0.26 -1.014,1.016l0.012,-0.012c-0.758,-0.084 -1.097,0.252 -1.011,1.012c0,0 0.037,0.104 0.038,0.104c-3.959,2.402 -2.861,-2.893 -4.986,-3.277c-0.354,-2.902 -0.711,-5.805 -1.066,-8.707c0.962,-10.049 0.941,-10.15 11.025,-11.977c5.213,-0.943 10.146,-2.807 15.527,-4.309c0.149,2.977 0.785,5.606 3.703,6.871z" fill="#E4BE8D"/>
     <path id="svg_71" d="m321.403,901.019c-2.922,0.129 -5.05,-0.59 -3.475,-4.836c1.085,-2.928 1.594,-6.07 2.315,-9.127c1.476,-6.223 6.329,-9.357 11.45,-11.906c3.676,-1.828 6.108,0.553 7.039,3.986c2.177,8.024 -8.598,21.897 -17.329,21.883zm6.732,-18.893c4.916,-0.121 2.042,4.047 3.298,5.977c3.363,-3.063 -1.108,-6.73 0.954,-9.979c-2.038,0.783 -3.766,1.643 -4.631,3.594c-1.776,0.678 -2.515,1.98 -2.304,4.033c1.121,-1.15 2.332,-2.048 2.683,-3.625zm7.31,-4.562c-0.109,-0.086 -0.229,-0.25 -0.332,-0.238c-0.265,0.029 -0.521,0.135 -0.777,0.211c0.107,0.088 0.227,0.258 0.323,0.248c0.268,-0.03 0.527,-0.133 0.786,-0.221z" fill="#E4BE8D"/>
     <path id="svg_72" d="m284.879,908.816c2.103,-0.189 3.424,-2.254 5.591,-2.111c0.511,7.25 -8.433,16.779 -15.697,16.428c-1.119,-0.055 -2.63,-0.172 -3.256,-0.883c-3.193,-3.621 -6.488,-4.564 -10.807,-1.766c-1.474,0.951 -3.139,-0.512 -4.375,-1.645c-4.145,-3.793 -6.274,-13.188 -4.333,-18.922c3.17,0.137 1.854,4.891 5.1,4.955l-0.034,0.128c-1.424,0.768 -0.394,1.727 -0.062,2.443c3.451,7.465 17.796,10.68 24.734,5.475c1.32,-0.992 3.307,-1.703 3.194,-3.959l-0.055,-0.143z" fill="#E4BE8D"/>
     <path id="svg_73" d="m301.015,1016.572c-13.346,3.775 -25.966,7.303 -38.546,10.961c-2.088,0.605 -3.366,0.891 -3.869,-1.852c-0.396,-2.152 -0.356,-3.389 2.187,-3.934c5.353,-1.146 10.634,-2.604 15.959,-3.873c1.26,-0.299 2.493,-0.529 4.183,-2.184c-6.599,-0.906 -12.429,-1.723 -18.263,-2.498c-0.817,-0.109 -1.758,0.197 -2.475,-0.096c-1.699,-0.695 -4.998,-0.424 -4.438,-2.871c0.597,-2.602 3.282,-0.65 4.991,-0.398c11.619,1.709 23.221,3.531 34.833,5.291c1.612,0.247 3.313,0.073 5.438,1.454z" fill="#9C9599"/>
     <path id="svg_74" d="m202.663,1031.611c-7.875,-1.283 -15.671,-2.521 -23.454,-3.842c-2.169,-0.367 -2.285,-2.07 -2.087,-3.84c0.175,-1.563 1.256,-1.814 2.516,-1.613c7.626,1.229 15.23,2.592 22.876,3.684c3.089,0.439 2.434,2.758 2.598,4.494c0.197,2.099 -1.691,0.695 -2.449,1.117z" fill="#9C9599"/>
     <path id="svg_75" d="m231.557,1030.132c7.813,1.133 14.837,2.158 21.862,3.166c2.117,0.303 2.709,1.656 2.504,3.553c-0.262,2.434 -1.813,1.598 -3.305,1.396c-6.894,-0.912 -13.792,-1.791 -20.708,-2.508c-2.084,-0.217 -2.971,-1.039 -2.937,-3.08c0.042,-2.372 1.533,-2.634 2.584,-2.527z" fill="#9C9599"/>
     <path id="svg_76" d="m222.516,1035.128c-4.11,-1.379 -8.476,-2.061 -12.869,-2.668c-1.881,-0.26 -2.673,-1.854 -2.473,-3.729c0.238,-2.207 1.972,-1.926 3.408,-1.754c4.25,0.506 8.481,1.168 12.73,1.688c2.625,0.322 3.737,1.719 3.557,4.322c-0.224,3.247 -2.887,1.077 -4.353,2.141z" fill="#9C9599"/>
     <path id="svg_77" d="m171.674,1026.955c-3.125,-0.424 -6.249,-0.824 -9.366,-1.271c-2.688,-0.385 -4.452,-1.928 -4.051,-4.674c0.513,-3.494 3.01,-1.365 4.688,-1.184c3.125,0.34 6.228,0.898 9.351,1.266c2.604,0.303 2.527,2.174 2.555,4.039c0.03,2.521 -1.807,1.763 -3.177,1.824z" fill="#9C9599"/>
     <path id="svg_78" d="m164.923,942.093c-3.701,2.135 -7.735,1.033 -11.5,0.713c-7.992,-0.682 -15.974,-1.816 -23.856,-3.307c-2.69,-0.51 -3.508,0.473 -4.388,2.342c-0.86,-4.01 0.91,-4.938 4.642,-4.408c11.684,1.664 23.398,3.123 35.102,4.66z" fill="#BAD4E4"/>
     <path id="svg_79" d="m257.101,904.873c0.093,-1.252 0.286,-2.273 1.999,-1.568c7.457,3.064 15.342,3.521 23.255,3.576c1.604,0.012 2.183,0.639 2.524,1.936c-0.001,0.002 0.059,0.145 0.059,0.146c-9.646,1.191 -19.044,0.625 -27.869,-3.961l0.032,-0.129z" fill="#BAD4E4"/>
     <path id="svg_80" d="m156.346,1024.525c-3.777,-0.615 -7.518,-1.074 -11.18,-1.887c-1.782,-0.395 -3.772,-1.895 -3.43,-3.623c0.396,-1.99 2.738,-1.938 4.611,-1.6c1.291,0.234 2.59,0.754 3.863,0.693c4.356,-0.204 6.415,1.704 6.136,6.417z" fill="#9C9599"/>
     <path id="svg_81" d="m273.48,1016.9c-4.523,1.295 -9,2.813 -13.589,3.814c-3.685,0.805 -2.54,-2.582 -3.028,-4.332c-0.688,-2.471 0.892,-2.813 2.818,-2.496c4.549,0.748 9.094,1.527 13.641,2.295c0.053,0.24 0.106,0.479 0.158,0.719z" fill="#9C9599"/>
     <path id="svg_82" d="m275.938,986.013c-2.406,5.805 -1.771,11.936 -1.933,17.979c-1.76,-0.018 -3.606,0.596 -5.188,-0.719c6.604,-0.305 4.553,-5.66 3.786,-8.391c-1.183,-4.209 -0.479,-8.086 -0.295,-12.117c1.212,1.084 2.421,2.166 3.63,3.248z" fill="#9C9599"/>
     <path id="svg_83" d="m254.014,1001.013c2.725,0.408 5.447,0.816 8.173,1.229c-1.471,1.438 0.374,1.861 0.829,2.713c0,0 -0.111,0.139 -0.109,0.139c-2.677,0.438 -5.521,-2.932 -8.07,0.354c-0.945,-1.357 -0.704,-2.929 -0.823,-4.435z" fill="#9C9599"/>
     <path id="svg_84" d="m254.835,1005.445c2.552,-3.285 5.396,0.082 8.069,-0.354c0.146,1.541 -0.932,1.814 -2.085,2.01c-1.989,-0.57 -4.51,0.781 -5.984,-1.656z" fill="#E4BE8D"/>
     <path id="svg_85" d="m248.012,967.14c4.392,0.145 8.895,-0.863 13.12,1.152c-4.342,-0.842 -8.729,-0.162 -13.077,-0.447c-0.256,-0.22 -0.27,-0.455 -0.043,-0.705z" fill="#FEFEFE"/>
     <path id="svg_86" d="m350.802,1029.201c-2.066,0.607 -4.248,1.199 -6.196,-0.59c2.065,0.197 4.129,0.394 6.196,0.59z" fill="#9C9599"/>
     <path id="svg_87" d="m262.372,943.355c0.691,1.803 -2.68,6.131 3.182,4.879c0.869,-0.188 0.596,2.23 0.314,3.453c-5.922,-1.063 -6.385,-4.625 -4.313,-9.344c0.273,0.34 0.546,0.676 0.817,1.012z" fill="#654027"/>
     <path id="svg_88" d="m261.557,942.345c0.315,-0.395 0.772,-0.639 1.07,-0.154c0.149,0.24 -0.156,0.768 -0.257,1.166c-0.269,-0.338 -0.542,-0.674 -0.813,-1.012z" fill="#654027"/>
     <path id="svg_89" d="m199.145,992.671c0.104,2.428 -1.099,5.988 -4.93,7.961c-3.842,1.979 -7.5,0.76 -10.732,-1.637c-5.364,-3.982 -8.569,-9.244 -8.627,-16.078c-0.071,-8.793 7.173,-13.023 14.738,-8.459c6.111,3.688 9.397,9.247 9.551,18.213z" fill="#FEFEFE"/>
     <path id="svg_90" d="m283.496,870.275c-0.983,-3.393 0.201,-4.967 3.758,-4.277c4.504,0.875 9.021,1.725 13.456,2.887c2.57,0.678 4.065,2.77 4.396,5.408c0.246,1.975 -1.337,2.367 -2.86,2.635c0.761,-2.607 0.468,-4.744 -3.52,-6.104c1.515,3.033 -1.272,4.609 -0.998,7.092c-4.305,-0.305 -8.512,-1.063 -12.527,-2.699c1.128,-0.91 3.502,1.369 3.853,-1.484c0.185,-1.51 0.944,-3.818 0.277,-4.379c-1.402,-1.182 -3.394,-0.551 -4.896,0.781c-0.199,0.173 -0.621,0.099 -0.939,0.14z" fill="#654027"/>
     <path id="svg_91" d="m262.457,872.193c-4.028,-1.621 -8.916,-0.443 -12.415,-3.795c0.639,0.15 1.298,0.49 1.907,0.416c1.256,-0.154 3.477,1.279 3.516,-0.945c0.028,-1.539 1.49,-3.602 0.058,-4.541c-1.364,-0.896 -3.54,-0.914 -4.98,0.707c-0.521,0.588 -0.891,1.311 -1.328,1.973c-2.229,0.441 -1.916,-1.059 -1.35,-2.109c1.143,-2.119 3.022,-3.863 5.464,-3.639c4.399,0.408 8.853,0.994 13.09,2.189c3.714,1.047 3.242,3.902 1.536,6.646c-1.878,-0.766 -0.813,-4.049 -3.86,-4.139c1.658,2.973 -2.532,4.409 -1.638,7.237z" fill="#654027"/>
     <path id="svg_92" d="m289.793,859.771c-1.655,-0.705 -5.289,1.777 -5.39,-1.404c-0.1,-3.174 3.813,-2.262 6.102,-2.461c5.77,-0.5 10.813,1.293 14.885,5.484c0.763,0.785 1.98,1.805 1.095,2.953c-1.037,1.346 -2.146,0.047 -2.948,-0.613c-3.937,-3.248 -8.414,-4.547 -13.744,-3.959z" fill="#654027"/>
     <path id="svg_93" d="m258.299,849.621c3.761,0.098 7.166,1.242 10.197,3.471c0.984,0.727 1.86,1.658 1.291,2.928c-0.717,1.594 -1.959,0.82 -2.92,0.24c-4.962,-2.988 -10.08,-4.143 -15.628,-1.666c-0.716,0.318 -1.701,0.551 -2.048,-0.543c-0.298,-0.938 0.429,-1.52 1.118,-2c2.4,-1.671 5.149,-2.208 7.99,-2.43z" fill="#654027"/>
     <path id="svg_94" d="m264.035,896.035c-0.227,-0.406 -0.386,-0.871 -0.688,-1.207c-5.084,-5.615 -5.089,-5.611 0.502,-11.658c-0.411,3.086 -2.402,5.771 -0.864,8.719c1.551,2.965 4.813,2.537 7.139,3.6c-1.954,0.158 -4.049,0.33 -6.144,0.5l0.055,0.046z" fill="#654027"/>
     <path id="svg_95" d="m249.212,866.005c0.438,-0.66 0.807,-1.385 1.328,-1.971c1.44,-1.623 3.615,-1.605 4.98,-0.709c1.435,0.941 -0.027,3.004 -0.058,4.543c-0.039,2.225 -2.26,0.791 -3.517,0.943c-0.608,0.074 -1.271,-0.266 -1.906,-0.416c-0.001,0 0.02,0.137 0.02,0.137c-0.061,-0.959 0.481,-2.148 -0.979,-2.576l0.132,0.049z" fill="#FEFEFE"/>
     <path id="svg_96" d="m283.496,870.275c0.317,-0.041 0.739,0.033 0.938,-0.145c1.502,-1.332 3.49,-1.961 4.896,-0.781c0.667,0.561 -0.095,2.869 -0.278,4.379c-0.35,2.855 -2.724,0.576 -3.852,1.484c-0.762,-0.721 -1.521,-1.441 -2.284,-2.166c-0.099,-0.992 1.342,-1.861 0.229,-2.932l0.351,0.161z" fill="#FEFEFE"/>
     <path id="svg_97" d="m262.457,872.193c-0.896,-2.83 3.296,-4.264 1.634,-7.236c3.049,0.088 1.983,3.373 3.861,4.137c-1.63,1.392 -2.665,3.837 -5.495,3.099z" fill="#BAD4E4"/>
     <path id="svg_98" d="m297.729,877.914c-0.274,-2.48 2.513,-4.057 0.998,-7.09c3.985,1.359 4.278,3.494 3.52,6.104c-1.442,0.618 -2.893,1.204 -4.518,0.986z" fill="#FEFEFE"/>
     <path id="svg_99" d="m263.99,881.48c0.607,-1.725 1.218,-3.447 1.825,-5.172c0.679,2.106 0.081,3.791 -1.825,5.172z" fill="#654027"/>
     <path id="svg_100" d="m283.146,870.117c1.11,1.068 -0.328,1.939 -0.229,2.932c-0.752,-0.07 -1.771,0.031 -1.735,-1.031c0.034,-1.097 0.486,-2.124 1.964,-1.901z" fill="#654027"/>
     <path id="svg_101" d="m249.082,865.958c1.462,0.426 0.919,1.615 0.979,2.576c-0.777,-0.687 -2.154,-1.148 -0.979,-2.576z" fill="#654027"/>
     <path id="svg_102" d="m282.04,952.021c-1.069,-1.426 0.781,-1.662 1.034,-2.553c1.094,1.434 0.305,2.106 -1.034,2.553z" fill="#654027"/>
     <path id="svg_103" d="m278.017,955.058c0.301,-1.063 0.668,-1.998 2.008,-1.021c-0.343,0.982 -0.695,1.947 -2.008,1.021z" fill="#654027"/>
     <path id="svg_104" d="m277.035,956.046c-0.08,-0.754 0.283,-1.064 1.014,-1.014c0.072,0.291 0.144,0.582 0.215,0.871c-0.41,0.05 -0.819,0.097 -1.229,0.143z" fill="#654027"/>
     <path id="svg_105" d="m276.036,957.046c-0.086,-0.76 0.253,-1.096 1.011,-1.01c0.07,0.289 0.14,0.578 0.209,0.867c-0.406,0.05 -0.814,0.097 -1.22,0.143z" fill="#654027"/>
     <path id="svg_106" d="m281.03,953.031c-0.078,-0.287 -0.158,-0.574 -0.238,-0.861c0.413,-0.045 0.826,-0.09 1.237,-0.135c0.067,0.732 -0.294,1.037 -0.999,0.996z" fill="#654027"/>
     <path id="svg_107" d="m280.025,954.035c-0.022,-0.354 -0.047,-0.705 -0.069,-1.059c0.358,0.02 0.718,0.035 1.075,0.055c0.033,0.703 -0.318,1.021 -1.006,1.004z" fill="#654027"/>
     <path id="svg_108" d="m328.968,1021.14c-1.88,0.73 -2.871,-0.113 -4.34,-0.691c1.635,-0.621 2.806,-0.686 4.34,0.691z" fill="#654027"/>
     <path id="svg_109" d="m327.753,881.714c0.869,-1.947 2.597,-2.807 4.635,-3.59c-2.063,3.248 2.409,6.916 -0.954,9.979c-1.256,-1.93 1.618,-6.098 -3.298,-5.977c-0.134,-0.13 -0.264,-0.267 -0.383,-0.412z" fill="#654027"/>
     <path id="svg_110" d="m328.135,882.126c-0.352,1.574 -1.563,2.475 -2.683,3.625c-0.211,-2.053 0.525,-3.354 2.302,-4.035c0.118,0.143 0.248,0.28 0.381,0.41z" fill="#654027"/>
     <path id="svg_111" d="m335.447,877.57c-0.262,0.082 -0.521,0.186 -0.788,0.215c-0.099,0.01 -0.216,-0.16 -0.323,-0.248c0.259,-0.076 0.515,-0.184 0.777,-0.211c0.102,-0.01 0.222,0.152 0.334,0.244z" fill="#654027"/>
     <path id="svg_112" d="m257.068,905c8.825,4.586 18.224,5.152 27.869,3.961c0.11,2.254 -1.874,2.965 -3.194,3.957c-6.938,5.205 -21.283,1.99 -24.734,-5.475c-0.333,-0.717 -1.364,-1.676 0.059,-2.443z" fill="#654027"/>
    </g>
   </g>
  </g>
  <g id="svg_113">
   <g id="svg_114">
    <g id="svg_115">
     <path id="svg_116" d="m135.349,242.608c15.152,4.186 25.026,18.051 24.761,33.068c0.265,-15.017 -9.609,-28.884 -24.761,-33.068z" fill="#bef1e1"/>
    </g>
    <g id="svg_117">
     <path fill="#bef1e1" id="svg_118" d="m160.61,275.685l-1,-0.018c0.003,-0.192 0.005,-0.384 0.005,-0.575c0,-0.003 0,-0.006 0,-0.01c-0.002,-14.859 -10.023,-28.009 -24.374,-31.985c-0.009,-0.003 -0.017,-0.005 -0.026,-0.007l0,0l0.267,-0.965c14.796,4.087 25.131,17.64 25.133,32.957c0,0.004 0,0.007 0,0.01c0,0.198 -0.001,0.395 -0.005,0.593z"/>
    </g>
   </g>
   <g id="svg_119">
    <g id="svg_120">
     <path id="svg_121" d="m315.42,273.954c0.061,9.14 -3.45,17.91 -9.87,24.41c-6.43,6.5 -15,10.22 -24.149,10.28l-146.18,1.149l-0.221,0c-2.08,0 -4.13,-0.2 -6.11,-0.569c-0.82,0.06 -1.65,0.1 -2.48,0.1c-3.07,0 -6.15,-0.42 -9.15,-1.25l-117.26,-32.39l0,-70.98l131.4,36.29c1.12,-0.11 2.25,-0.181 3.4,-0.19l146.169,-1.01l0.221,0c18.76,-0.001 34.11,15.41 34.23,34.16z" fill="#bef1e1"/>
    </g>
    <g id="svg_122">
     <path fill="#bef1e1" id="svg_123" d="m135.224,310.293l-0.224,0c-2.038,0 -4.102,-0.19 -6.138,-0.566c-0.908,0.065 -1.71,0.097 -2.452,0.097c-3.119,0 -6.242,-0.427 -9.283,-1.269l-117.627,-32.49l0,-72.019l131.944,36.44c1.186,-0.114 2.283,-0.175 3.352,-0.184l146.395,-1.01c19.027,0 34.607,15.547 34.729,34.657c0.063,9.368 -3.494,18.163 -10.015,24.765c-6.592,6.664 -15.294,10.368 -24.502,10.429l-146.179,1.15zm-6.306,-1.572l0.063,0.012c1.996,0.372 4.021,0.561 6.018,0.561l0.216,0l146.18,-1.149c8.942,-0.06 17.394,-3.657 23.798,-10.132c6.332,-6.411 9.786,-14.954 9.726,-24.056c-0.119,-18.562 -15.25,-33.663 -33.729,-33.663l-0.221,0l-146.166,1.01c-1.065,0.009 -2.163,0.07 -3.354,0.188l-0.092,0.009l-0.09,-0.024l-130.767,-36.116l0,69.942l116.894,32.288c2.954,0.818 5.988,1.232 9.017,1.232c0.734,0 1.534,-0.032 2.444,-0.099l0.063,-0.003z"/>
    </g>
   </g>
  </g>
  <g id="svg_124">
   <g id="svg_125">
    <g id="svg_126">
     <g id="svg_127">
      <g id="svg_128">
       <g id="svg_129">
        <path id="svg_130" d="m420.826,255.83c-2.729,-8.691 -5.334,-17.498 -6.882,-26.49c-1.492,-8.666 -3.14,-18.977 -0.066,-27.533c0.436,-1.211 0.936,-2.363 1.496,-3.459c-16.574,-8.908 -39.762,0.91 -66.619,12.285c-8.019,3.398 -15.357,7.436 -21.911,11.838c-0.734,-2.328 -1.587,-4.713 -2.609,-7.115c-2.037,-4.809 -4.417,-9.145 -6.921,-12.801c-0.569,3.143 -1.731,6.166 -3.28,8.646c-0.521,0.83 -1.089,1.623 -1.679,2.398c0.787,4.078 -0.505,8.361 -4.1,11.172c-0.618,0.48 -1.288,0.889 -1.992,1.227c-0.673,2.391 -2.214,4.533 -4.205,6.076c1.092,21.771 -9.671,33.305 -5.486,43.193c8.439,19.916 45.479,23.268 82.731,7.488c17.073,-7.232 32.661,-13.838 43.073,-22.342c-0.541,-1.535 -1.073,-3.064 -1.55,-4.583z" fill="#F9B77A"/>
       </g>
      </g>
     </g>
    </g>
    <g id="svg_131">
     <g id="svg_132">
      <g id="svg_133">
       <g id="svg_134">
        <path id="svg_135" d="m325.431,222.919l0.593,1.887l1.648,-1.098c6.77,-4.549 14.058,-8.484 21.659,-11.713c21.817,-9.236 40.651,-17.217 55.618,-15.361c3.592,0.445 6.844,1.449 9.797,3.039c0.406,-0.908 0.854,-1.777 1.34,-2.609c-3.266,-1.762 -6.85,-2.885 -10.776,-3.373c-15.752,-1.949 -34.931,6.17 -57.126,15.58c-7.174,3.035 -14.073,6.693 -20.528,10.893c-0.63,-1.844 -1.316,-3.648 -2.055,-5.385c-0.631,-1.49 -1.305,-2.932 -1.998,-4.334c-0.358,1.344 -0.819,2.672 -1.393,3.977c0.223,0.498 0.443,1.004 0.661,1.518c0.941,2.224 1.805,4.571 2.56,6.979z"/>
       </g>
      </g>
     </g>
    </g>
   </g>
   <g id="svg_136">
    <g id="svg_137">
     <g id="svg_138">
      <g id="svg_139">
       <g id="svg_140">
        <path id="svg_141" d="m413.413,203.255c-10.982,1.35 -30.858,4.859 -40.661,13.23l40.247,-11.637c0.123,-0.534 0.26,-1.067 0.414,-1.593z" fill="#F9B77A"/>
       </g>
      </g>
     </g>
    </g>
    <g id="svg_142">
     <g id="svg_143">
      <g id="svg_144">
       <g id="svg_145">
        <path id="svg_146" d="m413.878,201.806c0.016,-0.039 0.033,-0.078 0.047,-0.117c-10.976,1.289 -31.764,4.813 -42.136,13.664l1.927,2.258c9.299,-7.945 28.352,-11.416 39.293,-12.805c0.236,-1.019 0.518,-2.021 0.869,-3z"/>
       </g>
      </g>
     </g>
    </g>
   </g>
   <g id="svg_147">
    <g id="svg_148">
     <g id="svg_149">
      <g id="svg_150">
       <g id="svg_151">
        <path id="svg_152" d="m412.575,220.162c-10.983,1.672 -23.555,4.578 -28.265,9.438l28.571,-6.949c-0.113,-0.825 -0.212,-1.655 -0.306,-2.489z" fill="#F9B77A"/>
       </g>
      </g>
     </g>
    </g>
    <g id="svg_153">
     <g id="svg_154">
      <g id="svg_155">
       <g id="svg_156">
        <path id="svg_157" d="m412.423,218.677c-11.223,1.713 -24.179,4.738 -29.179,9.893l2.13,2.063c4.445,-4.584 16.633,-7.373 27.377,-9.002c-0.125,-0.979 -0.237,-1.964 -0.328,-2.954z"/>
       </g>
      </g>
     </g>
    </g>
   </g>
   <g id="svg_158">
    <g id="svg_159">
     <g id="svg_160">
      <g id="svg_161">
       <g id="svg_162">
        <path id="svg_163" d="m415.216,235.707c-4.457,1.42 -9.84,3.627 -16.361,6.969l17.317,-2.949c-0.336,-1.337 -0.656,-2.677 -0.956,-4.02z" fill="#F9B77A"/>
       </g>
      </g>
     </g>
    </g>
    <g id="svg_164">
     <g id="svg_165">
      <g id="svg_166">
       <g id="svg_167">
        <path id="svg_168" d="m414.901,234.244c-4.59,1.455 -10.097,3.713 -16.725,7.109l1.356,2.641c6.421,-3.291 11.693,-5.461 16.017,-6.85c-0.226,-0.965 -0.441,-1.932 -0.648,-2.9z"/>
       </g>
      </g>
     </g>
    </g>
   </g>
  </g>
  <g id="svg_169">
   <g id="svg_170">
    <path id="svg_171" d="m415.514,289.66c0,0 -56.526,11.358 -98.479,1.874c-17.964,-4.062 30.16,-23.558 30.16,-23.558s62.64,4.701 68.319,21.684z" fill="#F9B77A"/>
   </g>
  </g>
  <g id="svg_172">
   <g id="svg_173">
    <path id="svg_174" d="m388.139,259.3" stroke-miterlimit="10" stroke-width="2" stroke="#000000" fill="#F9B77A"/>
   </g>
  </g>
  <g id="svg_175">
   <g id="svg_176">
    <path id="svg_177" d="m397.08,287.476" stroke-miterlimit="10" stroke-width="2" stroke="#000000" fill="#F9B77A"/>
   </g>
  </g>
  <g id="svg_178">
   <g id="svg_179">
    <g id="svg_180">
     <g id="svg_181">
      <path id="svg_182" d="m320.218,254.3l0,15.945c0,4.066 3.299,7.365 7.367,7.365l88.406,0c4.068,0 7.365,-3.299 7.365,-7.365l0,-29.125l-1.504,-0.385l-101.634,13.565z" fill="#848484"/>
     </g>
    </g>
   </g>
   <g id="svg_183">
    <g id="svg_184">
     <g id="svg_185">
      <polygon id="svg_186" points="320.218,186.599 320.218,214.652 421.854,240.736 423.358,240.535 423.358,213.07     " fill="#769186"/>
     </g>
    </g>
   </g>
   <g id="svg_187">
    <g id="svg_188">
     <g id="svg_189">
      <polygon id="svg_190" points="320.218,214.652 320.218,254.3 421.854,240.736     " fill="#696969"/>
     </g>
    </g>
   </g>
   <g id="svg_191">
    <g id="svg_192">
     <g id="svg_193">
      <polygon id="svg_194" points="320.218,154.271 320.218,183.964 423.358,170.197 423.358,141.089 421.854,140.704     " fill="#B5C9C0"/>
     </g>
    </g>
   </g>
   <g id="svg_195">
    <g id="svg_196">
     <g id="svg_197">
      <polygon id="svg_198" points="423.358,170.197 320.218,183.964 320.218,186.599 423.358,213.07     " fill="#8CAA9D"/>
     </g>
    </g>
   </g>
   <g id="svg_199">
    <g id="svg_200">
     <g id="svg_201">
      <polygon id="svg_202" points="320.218,114.62 320.218,154.271 421.854,140.704     " fill="#A7D1BD"/>
     </g>
    </g>
   </g>
   <g id="svg_203">
    <g id="svg_204">
     <g id="svg_205">
      <path id="svg_206" d="m415.991,83.612l-88.404,0c-4.068,0 -7.367,3.297 -7.367,7.367l0,23.641l101.635,26.084l1.504,-0.201l0,-49.524c-0.001,-4.07 -3.298,-7.367 -7.368,-7.367z" fill="#B3E2CA"/>
     </g>
    </g>
   </g>
   <g id="svg_207">
    <g id="svg_208">
     <g id="svg_209">
      <path id="svg_210" d="m415.991,83.612l-88.404,0c-4.068,0 -7.367,3.297 -7.367,7.367l0,3.021l103.139,0l0,-3.021c-0.001,-4.07 -3.298,-7.367 -7.368,-7.367z" fill="#FFFFFF"/>
     </g>
    </g>
   </g>
   <g id="svg_211">
    <g id="svg_212">
     <g id="svg_213">
      <g id="svg_214">
       <path id="svg_215" d="m415.991,278.613l-88.404,0c-4.613,0 -8.367,-3.754 -8.367,-8.367l0,-179.267c0,-4.613 3.754,-8.367 8.367,-8.367l88.404,0c4.613,0 8.367,3.754 8.367,8.367l0,179.266c0,4.614 -3.754,8.368 -8.367,8.368zm-88.406,-194.001c-3.51,0 -6.367,2.857 -6.367,6.367l0,179.266c0,3.512 2.857,6.367 6.367,6.367l88.406,0c3.51,0 6.365,-2.855 6.365,-6.367l0,-179.266c0,-3.51 -2.855,-6.367 -6.365,-6.367l-88.406,0z"/>
      </g>
     </g>
    </g>
   </g>
   <g id="svg_216">
    <g id="svg_217">
     <g id="svg_218">
      <g id="svg_219">
       <path id="svg_220" d="m330.788,92.308l0,0.609l-3.418,0c-0.006,-0.152 0.02,-0.299 0.072,-0.439c0.088,-0.232 0.227,-0.461 0.42,-0.689c0.189,-0.225 0.469,-0.486 0.83,-0.783c0.563,-0.461 0.941,-0.824 1.141,-1.096c0.197,-0.268 0.295,-0.521 0.295,-0.764c0,-0.252 -0.09,-0.463 -0.27,-0.637c-0.182,-0.174 -0.414,-0.26 -0.703,-0.26c-0.309,0 -0.553,0.092 -0.734,0.275c-0.184,0.184 -0.277,0.438 -0.279,0.762l-0.652,-0.066c0.045,-0.486 0.213,-0.857 0.504,-1.113c0.293,-0.254 0.684,-0.383 1.176,-0.383c0.496,0 0.889,0.139 1.18,0.414c0.289,0.275 0.434,0.615 0.434,1.023c0,0.205 -0.041,0.41 -0.127,0.609c-0.084,0.201 -0.225,0.412 -0.422,0.631c-0.195,0.223 -0.521,0.525 -0.979,0.912c-0.383,0.32 -0.627,0.537 -0.732,0.648c-0.109,0.115 -0.199,0.23 -0.271,0.346l2.535,0l0,0.001z"/>
      </g>
     </g>
    </g>
    <g id="svg_221">
     <g id="svg_222">
      <g id="svg_223">
       <path id="svg_224" d="m331.471,91.554l0.637,-0.084c0.07,0.359 0.195,0.617 0.371,0.777c0.176,0.158 0.391,0.238 0.641,0.238c0.299,0 0.553,-0.104 0.758,-0.311s0.309,-0.463 0.309,-0.77c0,-0.293 -0.096,-0.533 -0.285,-0.723c-0.191,-0.189 -0.434,-0.283 -0.729,-0.283c-0.119,0 -0.27,0.023 -0.447,0.07l0.07,-0.559c0.043,0.006 0.076,0.008 0.104,0.008c0.27,0 0.514,-0.07 0.729,-0.213c0.217,-0.141 0.326,-0.357 0.326,-0.652c0,-0.232 -0.08,-0.424 -0.236,-0.578c-0.158,-0.152 -0.361,-0.229 -0.609,-0.229s-0.455,0.078 -0.619,0.232c-0.164,0.156 -0.27,0.389 -0.316,0.699l-0.637,-0.113c0.078,-0.424 0.254,-0.756 0.529,-0.99c0.275,-0.232 0.617,-0.352 1.027,-0.352c0.283,0 0.543,0.061 0.779,0.182c0.238,0.123 0.42,0.287 0.545,0.498c0.127,0.209 0.189,0.43 0.189,0.666c0,0.223 -0.061,0.428 -0.182,0.611c-0.119,0.182 -0.297,0.328 -0.533,0.438c0.309,0.07 0.545,0.217 0.715,0.439s0.254,0.5 0.254,0.834c0,0.451 -0.164,0.834 -0.494,1.148c-0.328,0.314 -0.746,0.471 -1.25,0.471c-0.453,0 -0.83,-0.135 -1.129,-0.404c-0.304,-0.269 -0.474,-0.621 -0.517,-1.05z"/>
      </g>
     </g>
    </g>
    <g id="svg_225">
     <g id="svg_226">
      <g id="svg_227">
       <path id="svg_228" d="m335.608,88.987c0,-0.369 0.092,-0.684 0.277,-0.941c0.188,-0.26 0.455,-0.389 0.811,-0.389c0.322,0 0.592,0.117 0.805,0.348c0.213,0.232 0.32,0.572 0.32,1.021c0,0.438 -0.107,0.775 -0.322,1.012c-0.217,0.236 -0.48,0.355 -0.797,0.355c-0.314,0 -0.572,-0.117 -0.781,-0.352c-0.209,-0.231 -0.313,-0.583 -0.313,-1.054zm1.104,-0.892c-0.158,0 -0.289,0.068 -0.395,0.205c-0.104,0.137 -0.156,0.387 -0.156,0.752c0,0.33 0.053,0.564 0.158,0.699c0.105,0.137 0.236,0.203 0.393,0.203c0.16,0 0.291,-0.066 0.396,-0.205c0.105,-0.135 0.156,-0.385 0.156,-0.748c0,-0.334 -0.053,-0.568 -0.158,-0.705c-0.105,-0.133 -0.236,-0.201 -0.394,-0.201zm0.004,5.013l2.83,-5.451l0.514,0l-2.818,5.451l-0.526,0zm2.238,-1.404c0,-0.371 0.092,-0.686 0.277,-0.943c0.188,-0.258 0.457,-0.387 0.813,-0.387c0.324,0 0.594,0.115 0.807,0.348s0.318,0.572 0.318,1.021c0,0.438 -0.105,0.775 -0.322,1.01c-0.215,0.238 -0.48,0.355 -0.799,0.355c-0.313,0 -0.574,-0.117 -0.781,-0.352c-0.212,-0.232 -0.313,-0.583 -0.313,-1.052zm1.105,-0.892c-0.158,0 -0.291,0.068 -0.395,0.205c-0.105,0.137 -0.156,0.387 -0.156,0.752c0,0.33 0.051,0.563 0.158,0.699c0.105,0.137 0.236,0.205 0.391,0.205c0.164,0 0.297,-0.068 0.4,-0.205s0.158,-0.387 0.158,-0.748c0,-0.334 -0.055,-0.568 -0.16,-0.705c-0.107,-0.135 -0.237,-0.203 -0.396,-0.203z"/>
      </g>
     </g>
    </g>
   </g>
   <g id="svg_229">
    <g id="svg_230">
     <g id="svg_231">
      <g id="svg_232">
       <path id="svg_233" d="m410.337,89.142l0.568,0.57c1.414,-1.414 3.707,-1.414 5.121,0l0.568,-0.57c-1.724,-1.727 -4.527,-1.727 -6.257,0zm2.277,2.275l0.854,0.855l0.854,-0.855c-0.472,-0.473 -1.237,-0.473 -1.708,0zm-1.139,-1.137l0.568,0.568c0.783,-0.785 2.061,-0.785 2.846,0l0.566,-0.568c-1.095,-1.097 -2.878,-1.097 -3.98,0z"/>
      </g>
     </g>
    </g>
   </g>
   <g id="svg_234">
    <g id="svg_235">
     <g id="svg_236">
      <g id="svg_237">
       <path id="svg_238" d="m404.321,234.128c0,5.988 -4.855,10.846 -10.846,10.846l-39.469,0c-5.99,0 -10.846,-4.857 -10.846,-10.846l0,-39.467c0,-5.988 4.855,-10.846 10.846,-10.846l39.469,0c5.99,0 10.846,4.855 10.846,10.846l0,39.467l0,0z" fill="#FFFFFF"/>
      </g>
     </g>
     <g id="svg_239">
      <g id="svg_240">
       <path id="svg_241" d="m393.475,245.472l-39.469,0c-6.256,0 -11.346,-5.088 -11.346,-11.344l0,-39.468c0,-6.256 5.09,-11.344 11.346,-11.344l39.469,0c6.256,0 11.346,5.088 11.346,11.344l0,39.469c0,6.255 -5.09,11.343 -11.346,11.343zm-39.468,-61.156c-5.705,0 -10.346,4.641 -10.346,10.346l0,39.467c0,5.703 4.641,10.346 10.346,10.346l39.469,0c5.705,0 10.346,-4.643 10.346,-10.346l0,-39.467c0,-5.705 -4.641,-10.346 -10.346,-10.346l-39.469,0z"/>
      </g>
     </g>
    </g>
    <g id="svg_242">
     <g id="svg_243">
      <g id="svg_244">
       <g id="svg_245">
        <path id="svg_246" d="m359.501,244.96l0.291,0.064c-0.006,0.02 -0.01,0.041 -0.014,0.063l3.279,0c0.102,-0.43 0.283,-0.887 0.568,-1.381c0.789,-1.361 1.777,-2.025 3.025,-2.025c1.586,0 3.389,1.043 5.475,2.248c0.592,0.342 1.156,0.732 1.686,1.158l0.307,0c0.059,-0.113 0.117,-0.227 0.18,-0.334c0.771,-1.332 1.803,-2.262 2.51,-2.262c0.131,0 0.25,0.031 0.354,0.09c0.57,0.33 0.281,1.242 -0.121,2.506l15.152,0c-1.426,-3.219 -3.025,-5.742 -4.109,-6.189c-3.316,-1.365 -9.318,-3.057 -9.381,-3.072l-0.072,-0.025l-0.027,-0.074c-0.006,-0.02 -0.666,-1.811 -2.137,-2.008c-0.156,-0.021 -0.449,-0.031 -0.869,-0.031c-3.182,0 -12.791,0.613 -14.01,0.691l-0.242,2.736l-0.129,0.006c-0.063,0.002 -6.293,0.314 -7.318,2.74c-0.295,0.693 -0.48,2.695 -0.598,5.229l6.176,0c0.008,-0.046 0.016,-0.089 0.024,-0.13z" fill="#bef1e1"/>
       </g>
      </g>
     </g>
     <g id="svg_247">
      <g id="svg_248">
       <g id="svg_249">
        <path fill="#bef1e1" id="svg_250" d="m353.759,239.755c1.076,-2.541 7.449,-2.785 7.449,-2.785l0.24,-2.732c0,0 13.455,-0.881 15.035,-0.668c1.58,0.211 2.258,2.1 2.258,2.1s6.033,1.686 9.396,3.068c1.104,0.455 2.75,3.053 4.207,6.35l0.143,0c-1.482,-3.359 -3.162,-6.02 -4.293,-6.484c-3.135,-1.291 -8.648,-2.857 -9.342,-3.055c-0.146,-0.361 -0.859,-1.926 -2.35,-2.125c-0.172,-0.023 -0.469,-0.035 -0.908,-0.035c-3.393,0 -14.049,0.695 -14.156,0.703l-0.127,0.008l-0.24,2.732c-0.945,0.051 -6.424,0.449 -7.449,2.871c-0.311,0.73 -0.504,2.795 -0.623,5.385l0.148,0c0.117,-2.573 0.311,-4.618 0.612,-5.333z"/>
       </g>
      </g>
     </g>
     <g id="svg_251">
      <g id="svg_252">
       <g id="svg_253">
        <path fill="#bef1e1" id="svg_254" d="m353.895,239.859c1.025,-2.426 7.258,-2.738 7.318,-2.74l0.131,-0.004l0.24,-2.738c1.219,-0.078 10.828,-0.691 14.012,-0.691c0.42,0 0.713,0.012 0.867,0.031c1.473,0.197 2.133,1.99 2.139,2.008l0.025,0.074l0.074,0.025c0.061,0.018 6.063,1.709 9.379,3.074c1.084,0.445 2.686,2.971 4.109,6.188l0.154,0c-1.457,-3.297 -3.104,-5.893 -4.207,-6.348c-3.363,-1.385 -9.396,-3.068 -9.396,-3.068s-0.678,-1.889 -2.258,-2.102c-1.58,-0.211 -15.035,0.668 -15.035,0.668l-0.24,2.734c0,0 -6.373,0.242 -7.449,2.785c-0.303,0.713 -0.494,2.758 -0.609,5.33l0.148,0c0.12,-2.529 0.303,-4.533 0.598,-5.226z"/>
       </g>
      </g>
     </g>
     <g id="svg_255">
      <g id="svg_256">
       <g id="svg_257">
        <path fill="#bef1e1" id="svg_258" d="m359.501,244.96c-0.01,0.041 -0.018,0.084 -0.027,0.127l0.307,0c0.004,-0.021 0.008,-0.043 0.012,-0.063l-0.292,-0.064z"/>
       </g>
      </g>
     </g>
     <g id="svg_259">
      <g id="svg_260">
       <g id="svg_261">
        <path id="svg_262" d="m376.753,245.005c0.334,-1.049 0.623,-1.955 0.26,-2.166c-0.441,-0.254 -1.533,0.467 -2.457,2.063c-0.033,0.061 -0.066,0.123 -0.102,0.186l2.273,0c0.01,-0.028 0.018,-0.055 0.026,-0.083z" fill="#bef1e1"/>
       </g>
      </g>
     </g>
     <g id="svg_263">
      <g id="svg_264">
       <g id="svg_265">
        <path id="svg_266" d="m366.653,241.976c-1.148,0 -2.027,0.598 -2.77,1.881c-0.254,0.438 -0.422,0.846 -0.518,1.229l9.963,0c-0.43,-0.324 -0.881,-0.629 -1.352,-0.9c-2.048,-1.186 -3.815,-2.21 -5.323,-2.21z" fill="#bef1e1"/>
       </g>
      </g>
     </g>
     <g id="svg_267">
      <g id="svg_268">
       <g id="svg_269">
        <path fill="#bef1e1" id="svg_270" d="m363.755,243.781c1.959,-3.389 4.797,-1.748 8.299,0.275c0.549,0.316 1.059,0.666 1.523,1.029l0.234,0c-0.529,-0.426 -1.094,-0.814 -1.686,-1.156c-2.086,-1.207 -3.889,-2.248 -5.475,-2.248c-1.248,0 -2.236,0.662 -3.025,2.025c-0.285,0.494 -0.467,0.951 -0.568,1.379l0.152,0c0.1,-0.404 0.278,-0.837 0.546,-1.304z"/>
       </g>
      </g>
     </g>
     <g id="svg_271">
      <g id="svg_272">
       <g id="svg_273">
        <path fill="#bef1e1" id="svg_274" d="m377.161,242.582c-0.104,-0.059 -0.223,-0.09 -0.354,-0.09c-0.707,0 -1.738,0.93 -2.51,2.262c-0.063,0.107 -0.121,0.221 -0.18,0.334l0.166,0c0.047,-0.088 0.092,-0.174 0.145,-0.262c0.873,-1.512 2.063,-2.459 2.656,-2.115c0.475,0.273 0.182,1.176 -0.203,2.377l0.156,0c0.405,-1.264 0.694,-2.176 0.124,-2.506z"/>
       </g>
      </g>
     </g>
     <g id="svg_275">
      <g id="svg_276">
       <g id="svg_277">
        <path fill="#bef1e1" id="svg_278" d="m374.555,244.902c0.924,-1.598 2.016,-2.316 2.457,-2.064c0.363,0.213 0.074,1.117 -0.26,2.168c-0.008,0.025 -0.018,0.055 -0.023,0.08l0.152,0c0.385,-1.199 0.678,-2.104 0.203,-2.377c-0.594,-0.344 -1.783,0.605 -2.656,2.117c-0.053,0.086 -0.098,0.174 -0.145,0.26l0.17,0c0.036,-0.061 0.069,-0.126 0.102,-0.184z"/>
       </g>
      </g>
     </g>
     <g id="svg_279">
      <g id="svg_280">
       <g id="svg_281">
        <path fill="#bef1e1" id="svg_282" d="m363.884,243.857c0.74,-1.283 1.621,-1.881 2.77,-1.881c1.508,0 3.275,1.023 5.326,2.209c0.471,0.271 0.922,0.576 1.352,0.9l0.248,0c-0.467,-0.363 -0.977,-0.713 -1.525,-1.029c-3.5,-2.023 -6.338,-3.664 -8.297,-0.275c-0.27,0.467 -0.445,0.9 -0.545,1.307l0.156,0c0.093,-0.385 0.261,-0.794 0.515,-1.231z"/>
       </g>
      </g>
     </g>
    </g>
    <g id="svg_283">
     <g id="svg_284">
      <g id="svg_285">
       <g id="svg_286">
        <g id="svg_287">
         <path id="svg_288" d="m381.434,242.726l-0.295,-0.012c0.105,-2.807 0.844,-4.553 2.189,-5.195c2.074,-0.986 4.783,1.016 4.898,1.1l-0.18,0.238c-0.025,-0.021 -2.678,-1.98 -4.592,-1.07c-1.236,0.591 -1.916,2.254 -2.02,4.939z"/>
        </g>
       </g>
      </g>
     </g>
     <g id="svg_289">
      <g id="svg_290">
       <g id="svg_291">
        <g id="svg_292">
         <g id="svg_293">
          <path id="svg_294" d="m364.973,242.359c0,0 3.391,0.629 4.627,1.982" fill="#F9B77A"/>
         </g>
        </g>
       </g>
       <g id="svg_295">
        <g id="svg_296">
         <g id="svg_297">
          <path id="svg_298" d="m369.493,244.441c-1.191,-1.303 -4.512,-1.93 -4.545,-1.938l0.055,-0.291c0.139,0.025 3.451,0.654 4.709,2.027l-0.219,0.202z"/>
         </g>
        </g>
       </g>
      </g>
     </g>
     <g id="svg_299">
      <g id="svg_300">
       <g id="svg_301">
        <g id="svg_302">
         <path id="svg_303" d="m373.302,234.625c-0.461,0.154 -0.91,0.324 -1.336,0.525c-0.344,0.162 -0.684,0.324 -1.021,0.482c0.756,-0.283 1.5,-0.6 2.23,-0.957c0.046,-0.021 0.085,-0.037 0.127,-0.05z" fill="#141719"/>
        </g>
       </g>
      </g>
     </g>
     <g id="svg_304">
      <g id="svg_305">
       <g id="svg_306">
        <path id="svg_307" d="m375.259,230.277c0,0 4.127,11.291 -5.545,11.027c-9.67,-0.264 -7.1,-11.027 -7.1,-11.027l12.645,0z" fill="#F9B77A"/>
       </g>
      </g>
      <g id="svg_308">
       <g id="svg_309">
        <path id="svg_310" d="m370.044,241.31l-0.344,-0.006c-2.787,-0.076 -4.883,-1.002 -6.227,-2.752c-2.615,-3.408 -1.398,-8.67 -1.346,-8.893l0.092,-0.383l13.389,0l0.121,0.328c0.088,0.242 2.137,5.965 -0.23,9.348c-1.092,1.565 -2.928,2.358 -5.455,2.358zm-7.018,-11.033c-0.217,1.229 -0.703,5.135 1.246,7.67c1.148,1.498 2.984,2.291 5.455,2.357l0.316,0.006c2.182,0 3.74,-0.65 4.637,-1.932c1.775,-2.537 0.604,-6.879 0.219,-8.102l-11.873,0l0,0.001z"/>
       </g>
      </g>
     </g>
     <g id="svg_311">
      <g id="svg_312">
       <g id="svg_313">
        <g id="svg_314">
         <g id="svg_315">
          <path id="svg_316" d="m359.548,231.103l-3.168,0l0,-6.086c0,0.029 0.229,0.006 0.301,-0.051c0.357,0.563 0.854,1.037 1.561,1.273c-0.021,1.616 0.472,3.561 1.306,4.864z" fill="#F9B77A"/>
         </g>
        </g>
       </g>
      </g>
      <g id="svg_317">
       <g id="svg_318">
        <g id="svg_319">
         <g id="svg_320">
          <path id="svg_321" d="m377.956,226.148l0,4.955l-5.715,0c-0.031,0 -0.063,0.057 -0.096,0.092c0.773,-0.887 1.373,-1.918 1.736,-3.094c1.213,-0.07 2.066,-0.684 2.559,-1.514c0.09,0.182 0.26,0.279 0.514,0.098c0.297,-0.217 0.629,-0.383 1.002,-0.537z" fill="#F9B77A"/>
         </g>
        </g>
       </g>
      </g>
      <g id="svg_322">
       <g id="svg_323">
        <g id="svg_324">
         <g id="svg_325">
          <path id="svg_326" d="m390.087,194.56c0.031,0.127 0.063,0.254 0.096,0.379c-0.314,-0.074 -0.061,-0.264 -0.076,-0.4c0.001,-0.002 -0.02,0.021 -0.02,0.021z" fill="#C9C9C9"/>
         </g>
        </g>
       </g>
      </g>
      <g id="svg_327">
       <g id="svg_328">
        <g id="svg_329">
         <g id="svg_330">
          <path id="svg_331" d="m388.139,213.804c0.021,1.203 -3.143,7.938 -3.357,9.113c-0.451,2.465 -3.711,0.063 -5.107,1.975c-0.059,0.084 -0.119,0.156 -0.188,0.229c-0.033,0.035 -0.066,0.072 -0.102,0.105c-0.051,0.049 -0.104,0.018 -0.156,0.063c-0.055,0.043 -0.107,0.049 -0.16,0.049c-0.004,0 -0.004,0 -0.004,0c-0.111,0 -0.229,0.234 -0.346,0.305c-0.061,0.033 -0.119,0.105 -0.182,0.141c-0.219,0.117 -0.445,0.242 -0.67,0.348c-0.332,0.154 -0.66,0.328 -0.957,0.543c-0.254,0.186 -0.383,0.09 -0.471,-0.092c-0.492,0.83 -1.348,1.439 -2.559,1.51c-0.363,1.178 -0.963,2.199 -1.738,3.086c-0.1,0.109 -0.197,0.221 -0.301,0.33c-0.078,0.082 -0.158,0.162 -0.242,0.242c-0.176,0.166 -0.354,0.33 -0.543,0.49c-0.092,0.076 -0.188,0.154 -0.281,0.23c-0.1,0.076 -0.195,0.15 -0.299,0.225c-1.689,1.25 -2.816,1.078 -4.557,-0.162c-0.701,-0.504 -1.818,-0.893 -2.641,-0.16c-1.027,0.916 -1.877,0.635 -2.736,-0.102c-0.086,-0.074 -0.17,-0.15 -0.252,-0.236c-0.066,-0.064 -0.127,-0.133 -0.188,-0.205c-0.029,-0.031 -0.057,-0.064 -0.082,-0.098c-0.113,-0.133 -0.221,-0.275 -0.32,-0.428c-0.035,-0.051 -0.068,-0.104 -0.102,-0.152c-0.018,-0.027 -0.035,-0.057 -0.053,-0.082c-0.836,-1.352 -2.586,-0.791 -2.568,-2.404c-0.705,-0.238 -1.449,-2.439 -1.631,-2.471c-0.494,-0.086 0.025,-1.367 -0.152,-1.969c-0.682,-2.289 -1.123,-4.674 -0.893,-6.99c0.48,-4.805 0.24,-9.658 1.037,-14.438c0.346,-2.092 0.705,-4.182 1.801,-6.031c1.535,-2.594 3.473,-3.092 5.867,-1.352c2.846,2.066 5.922,2.139 9.166,1.441c1.926,-0.412 3.836,-0.896 5.844,-0.75c3.492,0.256 5.871,2.773 5.77,6.654c-0.375,1.889 -0.168,4.156 0.457,6.508c0.519,1.922 3.855,2.512 3.896,4.535z" fill="#F9B77A"/>
         </g>
        </g>
       </g>
      </g>
      <g id="svg_332">
       <g id="svg_333">
        <g id="svg_334">
         <g id="svg_335">
          <g id="svg_336">
           <path id="svg_337" d="m365.569,229.98c-5.951,0 -5.922,-5.756 -5.922,-5.756s4.438,0.578 5.922,0.578c1.482,0 5.922,-0.578 5.922,-0.578s0.029,5.756 -5.922,5.756z"/>
          </g>
         </g>
        </g>
        <g id="svg_338">
         <g id="svg_339">
          <g id="svg_340">
           <path id="svg_341" d="m365.569,230.128c-1.83,0 -3.291,-0.535 -4.344,-1.594c-1.721,-1.729 -1.729,-4.207 -1.727,-4.313l0,-0.168l0.166,0.021c0.045,0.006 4.445,0.578 5.902,0.578s5.859,-0.572 5.904,-0.578l0.166,-0.021l0,0.168c0.002,0.104 -0.006,2.584 -1.727,4.313c-1.047,1.057 -2.51,1.594 -4.34,1.594zm-5.767,-5.736c0.033,0.582 0.252,2.547 1.635,3.936c0.994,0.998 2.387,1.504 4.133,1.504c1.75,0 3.139,-0.506 4.135,-1.506c1.385,-1.391 1.6,-3.352 1.635,-3.934c-0.846,0.107 -4.441,0.559 -5.77,0.559c-1.327,0 -4.923,-0.45 -5.768,-0.559z"/>
          </g>
         </g>
        </g>
       </g>
       <g id="svg_342">
        <g id="svg_343">
         <g id="svg_344">
          <g id="svg_345">
           <path id="svg_346" d="m371.296,225.64c0.197,-0.814 0.195,-1.416 0.195,-1.416s-4.439,0.578 -5.924,0.578c-1.482,0 -5.922,-0.578 -5.922,-0.578s-0.002,0.602 0.195,1.416c0.869,0.109 4.43,0.553 5.727,0.553c1.301,0 4.86,-0.443 5.729,-0.553z" fill="#FFFFFF"/>
          </g>
         </g>
        </g>
       </g>
      </g>
      <g id="svg_347">
       <g id="svg_348">
        <g id="svg_349">
         <g id="svg_350">
          <g id="svg_351">
           <path id="svg_352" d="m387.202,189.9c-6.881,-4.877 -14.592,-5.438 -22.475,-2.676c-4.744,1.662 -8.129,5.01 -9.297,9.92c-1.422,5.971 -2.115,12.031 -2.119,18.139c0.223,-0.041 0.455,-0.064 0.705,-0.064c0.156,0 0.307,0.01 0.449,0.025c0.271,-4.152 0.189,-8.328 0.877,-12.447c0.348,-2.092 0.703,-4.18 1.801,-6.031c1.535,-2.594 3.473,-3.09 5.865,-1.352c2.85,2.068 5.924,2.139 9.168,1.443c1.926,-0.412 3.838,-0.896 5.844,-0.75c3.492,0.254 5.871,2.771 5.77,6.654c-0.377,1.887 -0.17,4.156 0.455,6.506c0.516,1.924 1.924,5.227 1.965,7.25c0.012,0.475 -0.145,0.994 -0.354,1.521c0.053,-0.004 0.104,-0.01 0.158,-0.01c0.938,0 1.674,0.314 2.211,0.801c1.301,-2.357 2.734,-4.773 2.975,-4.924c0.469,-1.715 1.914,-6.352 2.168,-8.107c0.935,-6.47 -0.805,-12.097 -6.166,-15.898z" fill="#592C03"/>
          </g>
         </g>
        </g>
       </g>
      </g>
      <g id="svg_353">
       <g id="svg_354">
        <g id="svg_355">
         <g id="svg_356">
          <g id="svg_357">
           <path id="svg_358" d="m386.087,217.361c-0.275,1.01 -0.939,2.113 -1.107,3.027c-0.451,2.465 -3.908,2.594 -5.305,4.504c-0.059,0.084 -0.84,0.732 -0.955,0.797c-0.063,0.037 -1.514,0.771 -1.811,0.99c-0.254,0.184 -3.99,3.609 -4.768,4.496c-0.098,0.109 -0.197,0.221 -0.299,0.328c-0.08,0.084 -0.16,0.164 -0.242,0.244c-0.176,0.166 -0.355,0.328 -0.543,0.488c-0.092,0.078 -0.189,0.154 -0.283,0.232c-0.098,0.074 -0.195,0.148 -0.297,0.225c-1.691,1.25 -2.816,1.078 -4.557,-0.164c-0.701,-0.502 -1.818,-0.891 -2.641,-0.158c-1.027,0.914 -1.877,0.633 -2.736,-0.102c-0.086,-0.074 -0.168,-0.152 -0.252,-0.236c-0.064,-0.066 -0.129,-0.135 -0.189,-0.205c-0.027,-0.033 -0.055,-0.064 -0.08,-0.098c-0.113,-0.133 -0.221,-0.275 -0.32,-0.428c-0.035,-0.051 -0.068,-0.104 -0.104,-0.152c-0.018,-0.027 -0.033,-0.059 -0.053,-0.084c-0.836,-1.352 -0.719,-1.238 -1.654,-2.557c-0.43,-0.605 -1.986,-1.555 -2.695,-4.287c-0.602,-2.311 -1.123,-4.674 -0.895,-6.988c0.127,-1.275 0.205,-2.553 0.264,-3.832c-0.16,0.021 -0.324,0.035 -0.5,0.035c-0.26,0 -0.504,-0.025 -0.73,-0.068c-0.07,2.879 0.01,5.771 0.248,8.67c0.277,3.324 0.576,6.678 2.508,9.582c1.49,2.24 5.266,6.248 5.344,6.299c1.1,0.738 3.283,1.111 6.041,0.24c2.738,-0.863 9.725,-3.02 11.449,-4.012c0.941,-0.74 1.789,-1.34 2.541,-2.033c1.762,-1.619 3.914,-6.555 4.555,-8.752c-0.035,-0.365 1.367,-3.051 2.727,-5.471c-0.907,0.191 -1.878,0.013 -2.661,-0.53z" fill="#3F1B00"/>
          </g>
         </g>
        </g>
       </g>
      </g>
      <g id="svg_359">
       <g id="svg_360">
        <g id="svg_361">
         <g id="svg_362">
          <g id="svg_363">
           <path id="svg_364" d="m390.157,212.25c-0.383,0.26 -1.936,3.658 -2.703,5.145c-0.879,1.705 -0.689,2.711 -1.156,3.178c-1.295,1.297 -0.727,2.664 1.041,2.281c0.426,-0.092 0.902,-0.217 1.221,-0.486c2.451,-2.07 4.215,-4.523 4.221,-7.498c-0.163,-2.585 -1.11,-3.632 -2.624,-2.62z" fill="#F9B77A"/>
          </g>
         </g>
        </g>
        <g id="svg_365">
         <g id="svg_366">
          <g id="svg_367">
           <path id="svg_368" d="m386.772,223.066l0,0c-0.611,0 -1.066,-0.25 -1.246,-0.686c-0.23,-0.553 0.02,-1.268 0.668,-1.914c0.184,-0.188 0.256,-0.5 0.354,-0.936c0.123,-0.537 0.291,-1.27 0.773,-2.207c0.223,-0.43 0.512,-1.021 0.818,-1.652c0.984,-2.018 1.65,-3.354 1.934,-3.545c0.404,-0.27 0.781,-0.406 1.123,-0.406c0.99,0 1.604,1.113 1.729,3.139c-0.004,2.705 -1.398,5.193 -4.27,7.619c-0.336,0.283 -0.816,0.418 -1.285,0.52c-0.211,0.044 -0.412,0.068 -0.598,0.068zm4.426,-11.049c-0.281,0 -0.605,0.119 -0.957,0.355c-0.24,0.16 -1.199,2.127 -1.834,3.43c-0.307,0.631 -0.596,1.225 -0.82,1.658c-0.467,0.9 -0.629,1.615 -0.748,2.137c-0.111,0.482 -0.189,0.832 -0.436,1.078c-0.551,0.551 -0.781,1.16 -0.605,1.592c0.135,0.318 0.486,0.502 0.975,0.502l0,0c0.164,0 0.346,-0.021 0.535,-0.063c0.432,-0.094 0.869,-0.213 1.156,-0.455c2.801,-2.365 4.162,-4.779 4.166,-7.385c-0.114,-1.833 -0.623,-2.849 -1.432,-2.849z"/>
          </g>
         </g>
        </g>
       </g>
       <g id="svg_369">
        <g id="svg_370">
         <g id="svg_371">
          <g id="svg_372">
           <path id="svg_373" d="m390.038,214c-0.207,0.141 -0.609,1.162 -1.043,2.063c0.186,0.189 0.518,0.578 0.182,1.105c-0.35,0.551 -0.842,0.434 -1.033,0.291c-0.564,0.783 -1.035,1.725 -1.09,2.303c-0.107,1.16 -0.049,1.504 1.119,1.25c0.281,-0.063 0.598,-0.145 0.809,-0.322c1.619,-1.369 2.787,-2.99 2.789,-4.957c-0.106,-1.71 -0.733,-2.403 -1.733,-1.733z" fill="#DF8F6B"/>
          </g>
         </g>
        </g>
       </g>
       <g id="svg_374">
        <g id="svg_375">
         <g id="svg_376">
          <g id="svg_377">
           <path id="svg_378" d="m391.917,215.96l-0.297,-0.006c0.025,-1.398 -0.279,-1.836 -0.541,-1.955c-0.438,-0.201 -1.059,0.334 -1.064,0.34l-0.197,-0.221c0.031,-0.027 0.768,-0.674 1.387,-0.389c0.503,0.231 0.737,0.962 0.712,2.231z"/>
          </g>
         </g>
        </g>
       </g>
      </g>
      <g id="svg_379">
       <g id="svg_380">
        <g id="svg_381">
         <g id="svg_382">
          <path id="svg_383" d="m369.669,212.128c-0.197,2.293 1.688,2.203 3.984,2.402c2.299,0.199 4.141,0.611 4.338,-1.682c0.125,-1.432 -1.639,-2.752 -3.938,-2.951c-2.296,-0.198 -4.261,0.8 -4.384,2.231z" fill="#FFFFFF"/>
         </g>
        </g>
       </g>
       <g id="svg_384">
        <g id="svg_385">
         <g id="svg_386">
          <path id="svg_387" d="m375.817,214.839l0,0c-0.473,0 -0.998,-0.051 -1.557,-0.104c-0.201,-0.021 -0.408,-0.039 -0.619,-0.059s-0.418,-0.033 -0.619,-0.051c-1.352,-0.102 -2.516,-0.189 -3.109,-0.891c-0.324,-0.381 -0.451,-0.912 -0.391,-1.621c0.117,-1.363 1.816,-2.391 3.953,-2.391c0.195,0 0.395,0.008 0.594,0.023c2.375,0.207 4.201,1.604 4.072,3.111c-0.152,1.749 -1.261,1.983 -2.324,1.983zm-2.342,-4.818c-1.98,0 -3.555,0.912 -3.658,2.121c-0.055,0.627 0.053,1.086 0.32,1.402c0.516,0.605 1.623,0.689 2.906,0.787c0.203,0.018 0.41,0.031 0.623,0.051c0.211,0.018 0.418,0.037 0.621,0.059c0.551,0.053 1.07,0.104 1.529,0.104c1.127,0 1.904,-0.291 2.027,-1.709c0.115,-1.348 -1.59,-2.598 -3.803,-2.791c-0.186,-0.016 -0.377,-0.024 -0.565,-0.024z"/>
         </g>
        </g>
       </g>
      </g>
      <g id="svg_388">
       <g id="svg_389">
        <g id="svg_390">
         <g id="svg_391">
          <path id="svg_392" d="m371.794,212.076c-0.098,1.137 0.742,2.137 1.879,2.234c1.139,0.098 2.139,-0.742 2.234,-1.879c0.1,-1.137 -0.742,-2.137 -1.879,-2.234s-2.137,0.742 -2.234,1.879z" fill="#944E00"/>
         </g>
        </g>
       </g>
      </g>
      <g id="svg_393">
       <g id="svg_394">
        <g id="svg_395">
         <g id="svg_396">
          <circle id="svg_397" r="0.99" cy="212.253" cx="374.147"/>
         </g>
        </g>
       </g>
      </g>
      <g id="svg_398">
       <g id="svg_399">
        <g id="svg_400">
         <g id="svg_401">
          <circle id="svg_402" r="0.404" cy="211.587" cx="374.384" fill="#FFFFFF"/>
         </g>
        </g>
       </g>
      </g>
      <g id="svg_403">
       <g id="svg_404">
        <g id="svg_405">
         <g id="svg_406">
          <g id="svg_407">
           <path id="svg_408" d="m378.348,209.707c-0.145,0 -0.289,-0.041 -0.418,-0.129c-3.893,-2.668 -7.531,-0.783 -7.686,-0.703c-0.359,0.193 -0.809,0.059 -1.002,-0.301c-0.193,-0.361 -0.061,-0.809 0.299,-1.002c0.184,-0.1 4.568,-2.41 9.227,0.783c0.338,0.23 0.424,0.691 0.189,1.031c-0.14,0.209 -0.372,0.321 -0.609,0.321z" fill="#592C03"/>
          </g>
         </g>
        </g>
       </g>
      </g>
      <g id="svg_409">
       <g id="svg_410">
        <g id="svg_411">
         <g id="svg_412">
          <g id="svg_413">
           <path id="svg_414" d="m364.343,210.642c0.043,2.301 -1.832,2.084 -4.139,2.127s-4.172,0.33 -4.215,-1.973c-0.025,-1.436 1.82,-2.635 4.129,-2.678c2.305,-0.042 4.199,1.089 4.225,2.524z" fill="#FFFFFF"/>
          </g>
         </g>
        </g>
        <g id="svg_415">
         <g id="svg_416">
          <g id="svg_417">
           <path id="svg_418" d="m358.661,212.951c-1.406,0 -2.781,-0.166 -2.818,-2.148c-0.027,-1.518 1.889,-2.785 4.273,-2.83l0.131,0c2.352,0 4.217,1.172 4.244,2.668c0.014,0.713 -0.15,1.232 -0.498,1.592c-0.643,0.658 -1.811,0.668 -3.162,0.68c-0.203,0 -0.41,0.002 -0.623,0.006c-0.211,0.006 -0.418,0.012 -0.621,0.018c-0.325,0.006 -0.631,0.014 -0.926,0.014zm1.586,-4.684l-0.125,0c-2.221,0.043 -4.008,1.176 -3.982,2.527c0.029,1.563 0.908,1.859 2.521,1.859c0.291,0 0.598,-0.01 0.918,-0.018c0.203,-0.008 0.412,-0.014 0.623,-0.018c0.213,-0.004 0.422,-0.006 0.627,-0.008c1.285,-0.01 2.396,-0.021 2.951,-0.59c0.291,-0.299 0.428,-0.75 0.416,-1.379c-0.027,-1.307 -1.797,-2.373 -3.949,-2.373z"/>
          </g>
         </g>
        </g>
       </g>
       <g id="svg_419">
        <g id="svg_420">
         <g id="svg_421">
          <g id="svg_422">
           <path id="svg_423" d="m362.225,210.445c0.021,1.141 -0.885,2.082 -2.023,2.104c-1.143,0.021 -2.082,-0.887 -2.105,-2.025c-0.02,-1.139 0.887,-2.082 2.027,-2.104c1.138,-0.022 2.082,0.886 2.101,2.025z" fill="#944E00"/>
          </g>
         </g>
        </g>
       </g>
       <g id="svg_424">
        <g id="svg_425">
         <g id="svg_426">
          <g id="svg_427">
           <circle id="svg_428" r="0.991" cy="210.485" cx="360.458"/>
          </g>
         </g>
        </g>
       </g>
       <g id="svg_429">
        <g id="svg_430">
         <g id="svg_431">
          <g id="svg_432">
           <circle id="svg_433" r="0.404" cy="209.783" cx="360.862" fill="#FFFFFF"/>
          </g>
         </g>
        </g>
       </g>
       <g id="svg_434">
        <g id="svg_435">
         <g id="svg_436">
          <g id="svg_437">
           <g id="svg_438">
            <path id="svg_439" d="m355.897,207.64c-0.254,0 -0.5,-0.129 -0.639,-0.363c-0.209,-0.354 -0.092,-0.807 0.26,-1.014c4.863,-2.873 9.08,-0.271 9.26,-0.16c0.346,0.219 0.447,0.678 0.229,1.021c-0.219,0.346 -0.674,0.449 -1.02,0.23c-0.15,-0.092 -3.652,-2.215 -7.715,0.182c-0.115,0.071 -0.246,0.104 -0.375,0.104z" fill="#592C03"/>
           </g>
          </g>
         </g>
        </g>
       </g>
      </g>
      <g id="svg_440">
       <g id="svg_441">
        <g id="svg_442">
         <g id="svg_443">
          <path id="svg_444" d="m363.524,222.482c-1.098,0 -1.816,-0.25 -2.18,-0.754c-0.768,-1.066 0.297,-2.928 1.076,-4.283c0.229,-0.396 0.424,-0.74 0.529,-0.988c0.684,-1.605 1.27,-5.73 1.275,-5.773l0.293,0.043c-0.023,0.17 -0.598,4.207 -1.297,5.848c-0.111,0.264 -0.313,0.613 -0.545,1.02c-0.697,1.217 -1.748,3.053 -1.092,3.963c0.512,0.711 2.006,0.82 4.441,0.332l0.059,0.289c-1.006,0.201 -1.862,0.303 -2.559,0.303z"/>
         </g>
        </g>
       </g>
      </g>
     </g>
    </g>
   </g>
   <g id="svg_445">
    <g id="svg_446">
     <path id="svg_447" d="m402.987,166.005c0,5.959 -4.83,10.792 -10.791,10.792l-39.27,0c-5.959,0 -10.791,-4.83 -10.791,-10.792l0,-39.268c0,-5.959 4.832,-10.791 10.791,-10.791l39.27,0c5.961,0 10.791,4.832 10.791,10.791l0,39.268z" fill="#FFFFFF"/>
    </g>
    <g id="svg_448">
     <path id="svg_449" d="m392.196,177.296l-39.27,0c-6.226,0 -11.291,-5.065 -11.291,-11.292l0,-39.268c0,-6.226 5.065,-11.291 11.291,-11.291l39.27,0c6.226,0 11.291,5.065 11.291,11.291l0,39.268c0,6.227 -5.065,11.292 -11.291,11.292zm-39.269,-60.85c-5.675,0 -10.291,4.617 -10.291,10.291l0,39.268c0,5.674 4.616,10.292 10.291,10.292l39.27,0c5.675,0 10.291,-4.617 10.291,-10.292l0,-39.268c0,-5.674 -4.616,-10.291 -10.291,-10.291l-39.27,0z"/>
    </g>
   </g>
   <g id="svg_450">
    <g id="svg_451">
     <g id="svg_452">
      <path id="svg_453" d="m388.612,130.323l-32.1,0c-2.207,0 -3.992,1.805 -3.992,4.01l-0.02,24.074c0,2.207 1.805,4.012 4.012,4.012l32.1,0c2.207,0 4.012,-1.805 4.012,-4.012l0,-24.074c0,-2.205 -1.805,-4.01 -4.012,-4.01zm0,8.024l-16.051,10.029l-16.049,-10.029l0,-4.014l16.049,10.033l16.051,-10.033l0,4.014z"/>
     </g>
    </g>
   </g>
  </g>
  <g id="svg_454">
   <g id="svg_455">
    <path id="svg_456" d="m296.602,259.3c0,0 11.1,-110.88 22.617,-108.657s13.355,72.087 0,83.044" fill="#F9B77A"/>
   </g>
   <g id="svg_457">
    <path id="svg_458" d="m297.597,259.4l-1.99,-0.199c0.411,-4.104 10.189,-100.604 21.292,-108.873c0.813,-0.607 1.656,-0.833 2.51,-0.667c2.943,0.568 5.344,4.439 7.134,11.506c5.352,21.115 4.096,64.444 -6.689,73.293l-1.268,-1.547c9.886,-8.11 11.006,-51.575 6.019,-71.255c-1.517,-5.985 -3.549,-9.643 -5.574,-10.034c-0.103,-0.019 -0.416,-0.081 -0.937,0.307c-8.632,6.43 -17.722,79.757 -20.497,107.469z"/>
   </g>
  </g>
  <g id="svg_459">
   <g id="svg_460">
    <path id="svg_461" d="m409.179,275.778c0,0 1.76,-0.947 4.724,6.564c3.944,10.005 0.957,8.576 0.957,8.576s-10.051,5.607 -16.051,1.968c-6.003,-3.639 -8.547,-10.417 -5.682,-15.141c2.864,-4.725 16.052,-1.967 16.052,-1.967z" fill="#F9B77A"/>
   </g>
   <g id="svg_462">
    <path id="svg_463" d="m403.742,295.115c-2.115,0 -3.949,-0.462 -5.451,-1.373c-3.094,-1.876 -5.433,-4.599 -6.584,-7.668c-1.184,-3.152 -0.982,-6.295 0.565,-8.847c1.307,-2.156 4.37,-3.249 9.104,-3.249c3.534,0 6.897,0.604 7.786,0.776c0.069,-0.009 0.145,-0.015 0.227,-0.015c1.742,0 3.522,2.366 5.444,7.235c2.612,6.626 2.285,8.448 1.708,9.296c-0.349,0.514 -0.979,0.771 -1.543,0.707c-1.357,0.708 -6.38,3.138 -11.256,3.138zm-2.365,-19.137c-3.931,0 -6.487,0.79 -7.394,2.286c-1.224,2.017 -1.367,4.541 -0.404,7.107c0.995,2.65 3.036,5.016 5.749,6.659c1.186,0.72 2.67,1.084 4.414,1.084c5.07,0 10.576,-3.039 10.631,-3.069l0.452,-0.252l0.115,0.055c0.043,-0.64 -0.124,-2.463 -1.968,-7.139c-1.926,-4.882 -3.201,-5.782 -3.525,-5.939l-0.115,0.062l-0.356,-0.075c-0.039,-0.008 -3.778,-0.779 -7.599,-0.779z"/>
   </g>
  </g>
  <g id="svg_464">
   <g id="svg_465">
    <path id="svg_466" d="m351.239,296.178c-32.438,0.001 -46.427,-7.705 -52.309,-15.409c-7.705,-10.091 -2.836,-21.555 -2.786,-21.669l0.916,0.4c-0.047,0.109 -4.679,11.057 2.674,20.674c7.976,10.433 31.334,20.846 97.312,11.191l0.145,0.99c-18.405,2.693 -33.533,3.823 -45.952,3.823z"/>
   </g>
  </g>
  <g id="svg_467">
   <g id="svg_468">
    <path id="svg_469" d="m426.394,217.802c4.552,0.196 8.043,4.981 7.798,10.689c-0.246,5.707 -4.137,10.174 -8.689,9.978c-4.552,-0.196 -3.895,-4.091 -3.648,-9.798s-0.012,-11.065 4.539,-10.869z" fill="#F9B77A"/>
   </g>
   <g id="svg_470">
    <path id="svg_471" d="m425.792,239.475c-0.11,0 -0.221,-0.002 -0.332,-0.007c-1.555,-0.067 -2.696,-0.522 -3.487,-1.393c-1.512,-1.661 -1.37,-4.432 -1.19,-7.94c0.025,-0.486 0.051,-0.989 0.073,-1.507c0.021,-0.508 0.04,-1.013 0.058,-1.511c0.184,-5.169 0.354,-10.504 5.524,-10.314c5.096,0.22 9.022,5.482 8.754,11.731c-0.265,6.135 -4.394,10.941 -9.4,10.941zm0.364,-20.678c-2.669,0 -3.038,2.557 -3.245,8.391c-0.018,0.504 -0.035,1.014 -0.058,1.526c-0.022,0.523 -0.049,1.031 -0.073,1.523c-0.156,3.043 -0.279,5.447 0.672,6.492c0.414,0.455 1.099,0.697 2.094,0.74c3.958,0.18 7.429,-3.938 7.647,-9.021c0.221,-5.147 -2.849,-9.476 -6.842,-9.647l-0.195,-0.004z"/>
   </g>
  </g>
  <g id="svg_472">
   <g id="svg_473">
    <path id="svg_474" d="m426.394,185.824c4.552,0.196 8.043,4.981 7.798,10.689c-0.246,5.707 -4.137,10.174 -8.689,9.978c-4.552,-0.196 -3.895,-4.091 -3.648,-9.798s-0.012,-11.066 4.539,-10.869z" fill="#F9B77A"/>
   </g>
   <g id="svg_475">
    <path id="svg_476" d="m425.792,207.497c-0.11,0 -0.221,-0.002 -0.332,-0.007c-1.555,-0.067 -2.696,-0.522 -3.487,-1.393c-1.512,-1.661 -1.37,-4.432 -1.19,-7.94c0.025,-0.486 0.051,-0.989 0.073,-1.507c0.021,-0.508 0.04,-1.013 0.058,-1.511c0.184,-5.17 0.354,-10.512 5.524,-10.314c5.096,0.22 9.022,5.482 8.754,11.731c-0.265,6.135 -4.394,10.941 -9.4,10.941zm0.364,-20.678c-2.669,0 -3.038,2.557 -3.245,8.391c-0.018,0.504 -0.035,1.014 -0.058,1.526c-0.022,0.523 -0.049,1.031 -0.073,1.523c-0.156,3.043 -0.279,5.447 0.672,6.492c0.414,0.455 1.099,0.697 2.094,0.74c3.958,0.172 7.429,-3.938 7.647,-9.021c0.221,-5.147 -2.849,-9.476 -6.842,-9.647l-0.195,-0.004z"/>
   </g>
  </g>
 </g>
</svg>