<?xml version="1.0" encoding="utf-8"?>
<!-- Generator: Adobe Illustrator 16.0.0, SVG Export Plug-In . SVG Version: 6.00 Build 0)  -->
<!DOCTYPE svg PUBLIC "-//W3C//DTD SVG 1.1//EN" "http://www.w3.org/Graphics/SVG/1.1/DTD/svg11.dtd">
<svg version="1.1" id="icon" xmlns="http://www.w3.org/2000/svg" xmlns:xlink="http://www.w3.org/1999/xlink" x="0px" y="0px"
	 width="255.094px" height="255.094px" viewBox="0 0 255.094 255.094" enable-background="new 0 0 255.094 255.094"
	 xml:space="preserve">
<g>
	<g>
		<g>
			<path fill="#0D34BF" d="M32.962,149.981c1.55-1.129,3.535-1.831,5.967-1.843c19.758-0.1,39.048-2.615,58.809-0.632
				c20.401,2.046,40.907,2.598,61.402,2.551c22.128-0.05,44.279-0.668,66.414-0.609c0.878-5.311,1.342-10.761,1.342-16.32
				c0-54.868-44.48-99.348-99.349-99.348s-99.348,44.48-99.348,99.348c0,5.589,0.469,11.067,1.355,16.404
				C30.691,149.68,31.827,149.83,32.962,149.981z"/>
		</g>
		<g>
			<path d="M32.962,149.981c0.355-0.259,0.735-0.491,1.136-0.702c-0.905-5.251-1.383-10.646-1.383-16.152
				c0-52.29,42.542-94.832,94.832-94.832c52.291,0,94.833,42.542,94.833,94.832c0,5.563-0.486,11.013-1.41,16.315
				c3.052-0.004,6.102,0.007,9.151,0.029c0.846-5.326,1.29-10.784,1.29-16.344c0-57.27-46.593-103.863-103.864-103.863
				c-57.271,0-103.863,46.593-103.863,103.863c0,5.371,0.41,10.647,1.2,15.8C27.579,149.269,30.272,149.625,32.962,149.981z"/>
		</g>
	</g>
	<path fill="#FFFFFF" stroke="#000000" stroke-width="5" stroke-miterlimit="10" d="M189.319,147.972
		c-12.42-2.601-25.643-2.23-38.231-1.138c-6.626,0.575-13.199,1.567-19.792,2.416c-6.358,0.818-12.946,1.826-19.363,1.237
		c-3.271-0.302-6.53-0.85-9.813-1.012c-2.938-0.144-5.881-0.156-8.821-0.289c-6.242-0.284-12.479-0.706-18.722-0.999
		c-10.78-0.504-21.741-0.778-32.411,1.062c4.64,43.056,41.092,76.581,85.38,76.581c44.127,0,80.475-33.281,85.327-76.109
		C205.003,149.828,197.167,149.615,189.319,147.972z"/>
	<circle fill="#FEDFA8" stroke="#000000" stroke-width="10" stroke-miterlimit="10" cx="127.545" cy="139.947" r="74.829"/>
	<circle cx="127.55" cy="139.048" r="52.298"/>
	<polygon fill="#0D34BF" stroke="#000000" stroke-width="10" stroke-miterlimit="10" points="109.973,159.176 92.398,128.802 
		109.973,98.427 145.121,98.427 162.696,128.802 145.121,159.176 	"/>
	<polygon fill="#0D34BF" stroke="#000000" stroke-width="10" stroke-miterlimit="10" points="109.973,97.99 92.398,67.615 
		109.973,37.24 145.121,37.24 162.696,67.615 145.121,97.99 	"/>
	<polygon fill="#0D34BF" stroke="#000000" stroke-width="10" stroke-miterlimit="10" points="145.336,98.191 162.843,67.776 
		197.935,67.793 215.522,98.225 198.018,128.641 162.924,128.623 	"/>
	<polygon fill="#0D34BF" stroke="#000000" stroke-width="10" stroke-miterlimit="10" points="39.135,98.191 56.64,67.776 
		91.732,67.793 109.32,98.225 91.815,128.641 56.722,128.623 	"/>
	<path fill="#FFFFFF" stroke="#000000" stroke-width="10" stroke-miterlimit="10" d="M248.462,151.746
		c0,12.793-11.617,23.163-25.946,23.163c-11.352,0-178.587,0-189.939,0c-14.33,0-25.946-10.37-25.946-23.163
		c0-12.792,11.617-23.164,25.946-23.164c11.352,0,178.587,0,189.939,0C236.845,128.582,248.462,138.954,248.462,151.746z"/>
</g>
<g>
	<g>
		<g>
			<g>
				<path fill="#FFFFFF" d="M62.064,106.278c0,0-20.917-29.029-17.503-32.444c3.416-3.415,32.444,17.503,32.444,17.503
					L62.064,106.278z"/>
			</g>
			<g>
				<path d="M62.014,106.905l-0.28-0.388c-2.162-3.001-21.018-29.413-17.459-32.971c0.328-0.33,0.825-0.496,1.475-0.496
					c6.5,0,30.478,17.223,31.495,17.957l0.389,0.28L62.014,106.905z M45.749,73.864c-0.425,0-0.728,0.087-0.899,0.258
					c-2.282,2.282,9.265,20.376,17.266,31.528l14.262-14.262C73.194,89.122,51.554,73.864,45.749,73.864z"/>
			</g>
		</g>
		<g>
			<g>
				<path fill="#FFFFFF" d="M178.088,91.337c0,0,29.029-20.918,32.444-17.503c3.415,3.415-17.503,32.444-17.503,32.444
					L178.088,91.337z"/>
			</g>
			<g>
				<path d="M193.08,106.905l-15.619-15.619l0.389-0.28c1.017-0.733,24.992-17.957,31.495-17.957c0.649,0,1.146,0.167,1.475,0.496
					c3.558,3.558-15.297,29.97-17.459,32.971L193.08,106.905z M178.717,91.389l14.262,14.262
					c8.002-11.152,19.548-29.247,17.266-31.528c-0.171-0.171-0.474-0.258-0.899-0.258C203.538,73.864,181.899,89.122,178.717,91.389
					z"/>
			</g>
		</g>
	</g>
	<g>
		<g>
			<path fill="#FFFFFF" d="M116.944,67c0,0,5.735-35.317,10.565-35.317S138.074,67,138.074,67H116.944z"/>
		</g>
		<g>
			<path d="M138.553,67h-22.088l0.076-0.593c0.594-3.649,5.937-35.719,10.968-35.719c5.03,0,10.374,32.1,10.967,35.75L138.553,67z
				 M117.424,66h20.17c-2.227-14-6.857-34.502-10.085-34.502C124.281,31.498,119.651,52,117.424,66z"/>
		</g>
	</g>
	
		<rect x="56.37" y="97.583" transform="matrix(0.7071 -0.7071 0.7071 0.7071 -49.821 78.149)" fill="#0D34BF" width="26.105" height="3.26"/>
	
		<rect x="171.286" y="96.768" transform="matrix(0.7071 0.7071 -0.7071 0.7071 123.5638 -101.5255)" fill="#0D34BF" width="26.105" height="3.26"/>
	<rect x="114.235" y="64.982" fill="#0D34BF" width="26.105" height="3.26"/>
</g>
</svg>
