<?xml version="1.0" encoding="UTF-8" standalone="no" ?>
<!DOCTYPE svg PUBLIC "-//W3C//DTD SVG 1.1//EN" "http://www.w3.org/Graphics/SVG/1.1/DTD/svg11.dtd">
<svg xmlns="http://www.w3.org/2000/svg" xmlns:xlink="http://www.w3.org/1999/xlink" version="1.1" width="400" height="400" viewBox="0 0 400 400" xml:space="preserve">
<desc>Created with Fabric.js 4.6.0</desc>
<defs>
</defs>
<g transform="matrix(1 0 0 1 200 222.82)" id="PT35YNM1IfDqghABn2qzS"  >
<path style="stroke: rgb(47,251,83); stroke-width: 0; stroke-dasharray: none; stroke-linecap: butt; stroke-dashoffset: 0; stroke-linejoin: miter; stroke-miterlimit: 4; fill: rgb(190,241,225); fill-rule: nonzero; opacity: 1;" vector-effect="non-scaling-stroke"  transform=" translate(0, 0)" d="M -193.00891 -167.64006 L 64.63999000000004 -167.64006 L 193.00890000000004 -95.88104 L 193.00890000000004 167.64007000000004 L -193.00890999999996 167.64007000000004 z M 108.99505 6.61149 L 109.00262000000001 6.60392 L 23.635230000000007 -78.76347 L 4.189360000000008 -59.3176 L 70.11844 6.61148 L 4.128150000000005 72.60177 L 23.574020000000004 92.04764 L 109.00261 6.619050000000001 z M -102.36466 99.65547 L -78.26084 107.48728 L -7.476410000000001 -110.36479 L -31.58023 -118.1966 z" stroke-linecap="round" />
</g>
<g transform="matrix(1 0 0 1 213.28 55.18)" id="GOOijI9ysev-wLHDQj6Su"  >
<path style="stroke: rgb(47,251,83); stroke-width: 0; stroke-dasharray: none; stroke-linecap: butt; stroke-dashoffset: 0; stroke-linejoin: miter; stroke-miterlimit: 4; fill: rgb(174,204,194); fill-rule: nonzero; opacity: 1;" vector-effect="non-scaling-stroke"  transform=" translate(-179.73, -49.04)" d="M 0 29.26 L 236.67949 29.26 L 359.4524 98.07539 L 359.4524 70.16436999999999 L 235.07011 -1.4210854715202004e-14 L 0.32719000000000165 -1.4210854715202004e-14 z" stroke-linecap="round" />
</g>
</svg>