<?xml version="1.0" encoding="utf-8"?>
<!-- Generator: Adobe Illustrator 16.0.0, SVG Export Plug-In . SVG Version: 6.00 Build 0)  -->
<!DOCTYPE svg PUBLIC "-//W3C//DTD SVG 1.1//EN" "http://www.w3.org/Graphics/SVG/1.1/DTD/svg11.dtd">
<svg version="1.1" id="Ebene_1" xmlns="http://www.w3.org/2000/svg" xmlns:xlink="http://www.w3.org/1999/xlink" x="0px" y="0px"
	 width="278.512px" height="260.653px" viewBox="0 0 278.512 260.653" enable-background="new 0 0 278.512 260.653"
	 xml:space="preserve">
<g>
	<path fill="#48826D" d="M210.282,221.601c-3.767-0.791-7.299-1.18-10.498-1.18c-8.684,0-13.755,2.909-17.832,5.241
		c-2.839,1.625-5.29,3.031-8.173,3.031c-1.288,0-2.572-0.276-3.929-0.846l-3.608-1.525c-11.754-4.979-19.52-8.265-27.674-8.265
		c-7.096,0-14.278,2.521-24.015,8.425c-1.403,0.85-2.718,1.263-4.021,1.263c-2.205,0-4.136-1.182-6.371-2.551
		c-3.656-2.238-8.206-5.024-16.756-5.024c-4.72,0-10.22,0.863-16.348,2.611c-19.539,5.577-20.064,30.325-19.677,38.621h44.047v-5h1
		v5h85v-5h1v5h40.435C223.733,252.642,225.215,224.734,210.282,221.601z"/>
	<path d="M70.837,222.615c33.036-9.431,33.612,9.35,43.302,3.473c22.926-13.906,31.733-9.048,56.022,1.17
		c10.659,4.483,13.22-11.446,40.284-5.767c15.031,3.154,14.218,29.687,13.33,39.912h0.728c0.955-9.625,2.343-37.936-13.893-41.344
		c-3.876-0.813-7.519-1.225-10.826-1.225c-9.107,0-14.386,3.021-18.626,5.446c-2.75,1.575-4.92,2.817-7.379,2.817
		c-1.07,0-2.152-0.234-3.308-0.722l-3.606-1.523c-11.933-5.055-19.818-8.391-28.297-8.391c-7.409,0-14.839,2.59-24.844,8.657
		c-1.145,0.695-2.189,1.039-3.192,1.039c-1.754,0-3.423-1.011-5.536-2.306c-3.625-2.22-8.59-5.236-17.591-5.236
		c-4.868,0-10.517,0.952-16.788,2.741c-20.402,5.822-21.21,31.143-20.843,40.045h0.75C50.225,251.87,51.482,228.139,70.837,222.615z
		"/>
	<path d="M71.057,222.782c6.128-1.748,11.628-2.611,16.348-2.611c8.55,0,13.1,2.786,16.756,5.024
		c2.235,1.369,4.166,2.551,6.371,2.551c1.303,0,2.619-0.413,4.021-1.263c9.736-5.904,16.918-8.425,24.015-8.425
		c8.154,0,15.92,3.286,27.674,8.265l3.608,1.525c1.356,0.569,2.641,0.846,3.929,0.846c2.883,0,5.334-1.406,8.173-3.031
		c4.077-2.332,9.148-5.241,17.832-5.241c3.199,0,6.731,0.389,10.498,1.18c14.933,3.133,13.451,31.041,12.58,39.802h0.913
		c0.888-10.226,1.701-36.758-13.33-39.912c-27.064-5.68-29.625,10.25-40.284,5.767c-24.289-10.218-33.096-15.076-56.022-1.17
		c-9.69,5.877-10.266-12.903-43.302-3.473c-19.355,5.524-20.613,29.255-20.312,38.788h0.855
		C50.993,253.107,51.518,228.359,71.057,222.782z"/>
	<rect x="95.428" y="256.403" width="1" height="5"/>
	<rect x="181.428" y="256.403" width="1" height="5"/>
</g>
<g>
	<g>
		<polygon fill="#F9B77A" points="162.167,29.916 107.795,37.376 85.958,84.523 83.737,161.895 118.466,216.037 166.684,210.046 
			201.603,185 219.467,156.752 229.356,80.011 207.466,43.239 		"/>
	</g>
	<g>
		<path fill="#F9B77A" d="M166.44,212.403c0,0,16.656,45.584-22.387,44.52c-39.042-1.064-28.664-44.52-28.664-44.52H166.44z"/>
		<path d="M145.385,256.827c-0.445,0-0.892-0.006-1.353-0.019c-10.874-0.296-19.017-3.874-24.205-10.634
			c-10.212-13.307-5.424-34.14-5.215-35.014l0.146-0.758h52.24l0.192,0.669c0.348,0.952,8.412,23.547-0.779,36.691
			C162.238,253.73,155.164,256.827,145.385,256.827z M116.037,212.403c-0.709,3-3.737,21.399,5.063,32.86
			c4.88,6.355,12.61,9.692,22.975,9.976c9.976,0.271,16.986-2.477,21.024-8.246c7.972-11.394,1.924-31.59,0.77-34.59H116.037z"/>
	</g>
	<g>
		<g>
			<path d="M133.774,157.464c-2.628-4.755,2.667-11.862,6.532-17.056c1.131-1.518,2.106-2.829,2.657-3.794
				c3.604-6.254,8.043-22.913,8.09-23.08l1.184,0.314c-0.182,0.691-4.526,16.98-8.21,23.378c-0.587,1.027-1.583,2.363-2.74,3.916
				c-3.456,4.646-8.688,11.666-6.44,15.732c1.752,3.169,7.84,4.361,18.08,3.546l0.096,1.222c-0.563,0.049-1.116,0.088-1.656,0.119
				C141.466,162.365,135.702,160.953,133.774,157.464z"/>
		</g>
	</g>
	<g>
		<path fill-rule="evenodd" clip-rule="evenodd" fill="#592C03" d="M234.881,95.006c6.615-50.755-34.046-94.516-89.109-84.886
			c-47.547,8.315-60.743,38.765-65.499,78.347c-0.286,2.377-0.346,4.591-0.965,6.375c0.021,3.131,0.063,6.263,0.117,9.396
			c0.295,0.476,0.478,1.158,0.476,2.179c-0.011,13.818,0.153,27.636,0.212,41.455c0.001,0.309-0.278,0.627-0.685,1.221
			c0.498,2.65,0.713,5.374,0.534,8.194c-0.041,0.643-0.112,1.28-0.206,1.907c0.467,1.558,0.556,3.226,0.536,5.131
			c-0.185,17.33,4.846,32.422,18.908,43.604c1.664,1.324,3.241,2.789,4.674,4.356c1.194,1.306,3.527,2.174,3.971,3.838
			c2.12,1.502,3.786,3.456,4.988,5.677c0.137-0.135,0.262-0.269,0.409-0.399c0.03,0.356,0.08,0.696,0.125,1.043
			c1.194,0.505,2.266,1.152,3.252,1.883c1.64,0.705,3.077,1.64,4.325,2.748c0.498,0.013,1.137,0.193,2.006,0.468
			c12.856,4.058,25.621,6.574,38.404-0.418c0.801-0.438,2.098-0.912,3.244-0.465c2.811-1.293,5.566-2.695,8.336-4.069
			c0.033-0.069,0.06-0.128,0.093-0.196c0.027,0.037,0.048,0.074,0.074,0.111c1.337-0.661,2.677-1.311,4.035-1.926
			c0.672-0.306,1.339-0.584,2.001-0.844c0.367-0.88,1.496-1.292,2.427-1.695c15.599-6.751,22.542-20.065,27.128-35.305
			c0.512-1.705,0.942-3.543,2.692-4.802c0.236-2.342,0.865-4.634,1.88-6.727c-0.042,0.028-0.08,0.06-0.124,0.087
			c1.078-4.394,4.309-7.344,7.115-10.676c2.781-9.309,4.812-18.826,7.376-28.085c-0.183-0.359-0.361-0.718-0.583-1.086
			c-1.055-1.739-0.023-2.42,0.9-3.183c0.38-0.312,0.728-0.44,1.058-0.462c0.581-1.903,1.193-3.792,1.849-5.659
			c-0.987-1.348-0.317-2.909-0.036-4.504C232.145,110.089,233.892,102.599,234.881,95.006z M208.974,163.873
			c-4.279,11.22-11.175,19.297-23.258,22.739c-1.211,0.347-1.784,0.671-2.162,0.603c-2.333,1.661-5.249,2.729-8.699,3.013
			c-0.263,0.271-0.542,0.525-0.818,0.781c-3.905,12.928-18.069,17.296-27.748,9.161c-3.931-3.303-8.311-4.684-13.652-2.079
			c-9.154,4.466-22.208-3.281-23.301-13.533c-0.048-0.453-0.073-0.969-0.067-1.483c-0.794-0.942-1.506-1.958-2.083-3.022
			c-0.364-0.288-0.729-0.575-1.09-0.871c-1.868-1.528-3.655-3.427-4.89-5.544c-1.951-0.215-4.392-3.369-6.419-4.955
			c-10.06-7.86-7.525-18.917-8.229-31.147c1.435-17.599,1.915-37.2,10.11-55.564c1.792-4.016,2.259-8.656,3.121-13.052
			c4.458-22.764,26.602-26.149,41.459-15.767c13.344,9.325,27.35,10.405,42.299,8.253c5.043-0.725,10.037-1.123,15.07-1.065
			c11.66,0.131,20.342,6.507,19.951,18.102C217.606,107.101,219.52,136.224,208.974,163.873z"/>
	</g>
	<g>
		<path fill-rule="evenodd" clip-rule="evenodd" fill="#592C03" d="M123.315,82.586c9.357,0.07,15.813,2.262,21.704,6.181
			c1.824,1.214,3.588,2.799,2.526,5.227c-1.167,2.673-3.453,2.036-5.404,0.956c-9.771-5.405-19.792-7.635-30.53-2.896
			c-1.224,0.54-2.764,0.506-3.485-0.92c-0.888-1.758,0.146-3.094,1.558-4.006C114.5,84.016,119.799,82.522,123.315,82.586z"/>
	</g>
	<g>
		<path fill-rule="evenodd" clip-rule="evenodd" fill="#592C03" d="M184.247,92.221c9.342,0.281,16.909,2.977,23.096,9.016
			c1.657,1.62,4.246,3.641,2.548,5.989c-2.073,2.873-4.278-0.063-5.975-1.293c-7.472-5.427-15.521-7.595-24.733-5.74
			c-2.523,0.506-6.584,2.083-7.517-1.833c-1.071-4.5,3.413-4.578,6.286-5.349C180.224,92.399,182.66,92.402,184.247,92.221z"/>
	</g>
	<g>
		<path fill-rule="evenodd" clip-rule="evenodd" d="M142.81,117.021c-12.369-6.251-23.231-9.63-35.129-6.697
			c-1.162,0.286-2.717,0.467-3.154-1.363c-0.39-1.627,0.788-2.326,1.865-3.082C113.963,100.553,136.32,106.373,142.81,117.021z"/>
	</g>
	<g>
		<g>
			<g>
				<path fill="#F9B77A" d="M241.403,124.848c2.46,11.48-2.302,22.416-10.034,32.449c-1.007,1.306-2.741,2.188-4.308,2.897
					c-6.498,2.947-9.834-1.852-5.915-7.94c1.409-2.189-0.162-5.914,1.816-13.222c1.724-6.373,4.881-20.785,6.148-22.1
					C234.109,111.764,238.636,115.017,241.403,124.848z"/>
			</g>
			<g>
				<path d="M219.891,160.168c-1.58-1.889-1.286-5.043,0.765-8.23c0.56-0.868,0.573-2.14,0.597-3.9
					c0.024-2.171,0.061-5.146,1.146-9.156c0.502-1.848,1.124-4.384,1.785-7.065c2.113-8.604,3.569-14.312,4.508-15.287
					c2.403-2.487,4.847-3.207,7.064-2.131c2.51,1.218,4.66,4.777,6.223,10.328c2.229,10.411-1.093,21.182-10.146,32.929
					c-1.062,1.375-2.806,2.289-4.529,3.07c-0.138,0.065-0.271,0.124-0.405,0.178C223.923,162.14,221.304,161.861,219.891,160.168z
					 M229.529,117.339c-0.789,0.818-2.853,9.202-4.213,14.751c-0.661,2.689-1.287,5.234-1.79,7.092
					c-1.046,3.868-1.081,6.758-1.106,8.871c-0.021,1.951-0.044,3.363-0.784,4.515c-1.763,2.742-2.09,5.369-0.851,6.852
					c1.124,1.34,3.393,1.433,6.033,0.244c1.59-0.723,3.184-1.553,4.087-2.724c8.834-11.464,12.082-21.918,9.938-31.933
					c-1.462-5.184-3.397-8.489-5.601-9.557c-0.984-0.479-1.985-0.493-3.065-0.046C231.32,115.758,230.431,116.412,229.529,117.339z"
					/>
			</g>
		</g>
		<g>
			<g>
				<path fill="#DF8F6B" d="M238.233,129.021c1.625,7.587-1.526,14.827-6.641,21.458c-0.664,0.862-1.812,1.443-2.846,1.914
					c-4.299,1.952-4.81,0.676-5.362-3.896c-0.273-2.271,0.759-6.295,2.294-9.787c0.851,0.385,2.848,0.425,3.739-1.985
					c0.859-2.319-0.748-3.538-1.621-4.122c0.925-3.822,1.625-8.112,2.307-8.814C233.409,120.369,236.402,122.517,238.233,129.021z"
					/>
			</g>
		</g>
		<g>
			<g>
				<path d="M237.847,130.007c-1.067-5.414-2.61-6.847-3.718-7.094c-1.876-0.42-3.81,2.175-3.827,2.203l-0.945-0.692
					c0.099-0.134,2.394-3.235,5.021-2.654c2.138,0.473,3.649,3.091,4.616,8.012L237.847,130.007z"/>
			</g>
		</g>
	</g>
	<g>
		<g>
			<g>
				<path fill="#F9B77A" d="M83.648,103.572c0.894,1.592,0.306,16.334,0.363,22.936c0.067,7.572-2.394,10.778-1.583,13.252
					c2.251,6.883-2.188,10.683-7.73,6.189c-1.336-1.083-2.792-2.377-3.437-3.892c-4.945-11.662-6.789-23.447-1.508-33.933
					C74.917,99.313,80.118,97.31,83.648,103.572z"/>
			</g>
			<g>
				<path d="M74.677,146.676c-0.116-0.087-0.229-0.179-0.347-0.274c-1.471-1.19-2.926-2.518-3.606-4.116
					c-5.79-13.655-6.283-24.915-1.494-34.423c2.913-4.976,5.894-7.877,8.631-8.42c2.417-0.481,4.6,0.832,6.295,3.847
					c0.662,1.179,0.629,7.07,0.5,15.929c-0.038,2.762-0.078,5.374-0.058,7.29c0.036,4.153-0.681,7.042-1.206,9.149
					c-0.423,1.707-0.731,2.941-0.409,3.921c1.179,3.604,0.667,6.729-1.339,8.16C79.848,149.018,77.244,148.621,74.677,146.676z
					 M81.067,101.319c-0.931-0.706-1.905-0.944-2.978-0.729c-2.401,0.476-5.11,3.185-7.833,7.832
					c-4.606,9.146-4.106,20.084,1.545,33.405c0.578,1.361,1.91,2.569,3.266,3.67c2.253,1.819,4.472,2.3,5.899,1.289
					c1.574-1.125,1.921-3.747,0.907-6.846c-0.425-1.299-0.089-2.673,0.384-4.568c0.509-2.048,1.204-4.853,1.17-8.858
					c-0.016-1.927,0.021-4.547,0.061-7.315c0.086-5.713,0.209-14.346-0.35-15.337C82.502,102.736,81.807,101.878,81.067,101.319z"/>
			</g>
		</g>
		<g>
			<g>
				<path fill="#DF8F6B" d="M80.957,109.955c0.481,0.853,0.075,5.18,0.003,9.11c-0.991,0.346-2.855,1.117-2.609,3.579
					c0.253,2.56,2.195,3.026,3.116,2.867c0.603,3.767,0.583,7.922-0.254,10.049c-1.691,4.285-2.508,5.39-6.172,2.414
					c-0.883-0.715-1.847-1.568-2.271-2.569c-3.274-7.71-4.493-15.508-1.002-22.439C75.183,107.133,78.621,105.811,80.957,109.955z"
					/>
			</g>
		</g>
		<g>
			<g>
				<path d="M70.837,113.508c2.18-4.517,4.305-6.667,6.492-6.586c2.688,0.103,4.126,3.683,4.187,3.837l-1.088,0.432
					c-0.009-0.033-1.226-3.032-3.146-3.1c-1.135-0.042-2.99,0.956-5.391,5.923L70.837,113.508z"/>
			</g>
		</g>
	</g>
	<g>
		<path fill-rule="evenodd" clip-rule="evenodd" d="M166.684,119.113c13.859-0.066,25.087,1.766,34.421,9.708
			c0.912,0.774,2.222,1.63,3.431,0.187c1.076-1.28,0.335-2.432-0.29-3.588C199.849,117.269,177.248,112.487,166.684,119.113z"/>
	</g>
	<g>
		<path d="M151.92,180.088c-21.37,0-36.394-8.693-37.197-9.169c-0.76-0.449-1.012-1.428-0.563-2.188
			c0.449-0.759,1.427-1.01,2.189-0.565c0.243,0.143,24.63,14.207,54.745,6.228c0.855-0.222,1.729,0.282,1.956,1.136
			c0.226,0.853-0.283,1.729-1.138,1.955C164.845,179.357,158.114,180.088,151.92,180.088z"/>
	</g>
	<g>
		<path d="M198.14,132.403c-0.003,0-0.008,0-0.011,0c-27.545,0-28.722-7.75-28.766-8.587c-0.023-0.441,0.315-0.816,0.755-0.839
			c0.449-0.017,0.807,0.305,0.839,0.733c0.026,0.165,1.314,6.729,27.193,7.098c0.442,0.006,0.795,0.367,0.789,0.808
			C198.934,132.054,198.577,132.403,198.14,132.403z"/>
	</g>
	<g>
		<path d="M131.732,121.475c-4.374,0-11.495-1.424-23.017-6.418c-0.405-0.175-0.591-0.646-0.416-1.051
			c0.177-0.403,0.646-0.592,1.051-0.417c23.927,10.373,27.674,4.754,27.709,4.697c0.225-0.368,0.708-0.505,1.081-0.297
			c0.376,0.21,0.525,0.669,0.328,1.051C138.261,119.446,136.953,121.475,131.732,121.475z"/>
	</g>
</g>
</svg>
