<?xml version="1.0" encoding="utf-8"?>
<!-- Generator: Adobe Illustrator 16.0.0, SVG Export Plug-In . SVG Version: 6.00 Build 0)  -->
<!DOCTYPE svg PUBLIC "-//W3C//DTD SVG 1.1//EN" "http://www.w3.org/Graphics/SVG/1.1/DTD/svg11.dtd">
<svg version="1.1" xmlns="http://www.w3.org/2000/svg" xmlns:xlink="http://www.w3.org/1999/xlink" x="0px" y="0px" width="500px"
	 height="500px" viewBox="0 0 500 500" enable-background="new 0 0 500 500" xml:space="preserve">
<g id="Ebene_1" display="none">
</g>
<g id="Ebene_2" display="none">
	<g display="inline">
		<g>
			<path fill-rule="evenodd" clip-rule="evenodd" fill="#FEFEFE" d="M251.055,450c-64.98,0-129.96-0.026-194.939,0.078
				c-3.173,0.005-4.227-0.3-4.224-3.96c0.129-130.126,0.122-260.252,0.029-390.378c-0.002-3.144,0.735-3.819,3.837-3.817
				c130.125,0.089,260.251,0.085,390.377,0.021c2.846-0.001,3.966,0.277,3.963,3.688c-0.115,130.292-0.111,260.584-0.015,390.877
				c0.002,3.005-0.633,3.575-3.591,3.57C381.347,449.976,316.2,450,251.055,450z M126.963,371.023
				c-0.037,1.135-0.037,2.257,1.013,3.028c1.142,3.474,3.619,5.646,6.878,7.058c2.258,3.763,5.663,6.368,9.056,8.986
				c0.47,2.252,1.687,3.703,4.122,3.851c0.295,0.037,0.588,0.087,0.878,0.149c0.234,1.82,1.184,2.869,3.1,2.878
				c0.303,0.024,0.603,0.064,0.901,0.122c0.85,3.118,3.42,4.066,6.12,4.85c0.295,0.038,0.589,0.088,0.88,0.15
				c2.039,3.496,5.437,4.89,9.097,5.878c0.304,0.023,0.606,0.063,0.905,0.122c0.137,1.088,0.796,1.715,1.742,2.217
				c13.485,7.164,27.849,11.921,42.615,15.569c0.98,0.242,1.986,0.138,2.729-0.727c0.61,0.019,1.221,0.036,1.832,0.055
				c0.91,2.334,2.406,2.219,4.168,0.999c0.611,0,1.222,0,1.833,0.001c1.276,2.669,3.153,2.136,5.149,0.966
				c0.626,0.004,1.253,0.007,1.88,0.01c2.724,3.229,5.963,1.841,9.139,1.02c2.101-0.542,4.011,0.511,6.023,0.72
				c3.807,1.275,7.612,2.521,11.118-0.739c1.954-0.011,3.908-0.021,5.862-0.031c5.846,2.249,11.492-0.355,17.207-0.853
				c1.639-0.143,4.205,0.646,4.933-2.114c0.62-0.011,1.239-0.021,1.86-0.032c0.777,0.891,1.697,0.729,2.727,0.507
				c18.802-4.046,36.362-11.176,52.523-21.569c3.911-2.516,8.604-4.32,10.829-8.967c0.315-0.056,0.633-0.104,0.95-0.144
				c7.02-4.103,13.408-8.922,17.97-15.816l-0.013-0.296c2.755-0.146,3.846-2.282,5.088-4.243c1.331-2.102,2.383-4.469,4.056-6.252
				c12.856-13.703,22.854-29.257,30.299-46.458c8.18-18.897,12.973-38.61,13.454-59.251c0.213-9.16-0.069-18.331,0.088-27.494
				c0.066-3.912-0.378-7.611-2.18-11.103c0.277-1.826-0.082-3.576-0.328-5.394c-0.73-5.399-4.732-9.647-5.35-14.889
				c-1.294-10.989-5.939-20.482-11.455-29.839c-8.178-13.872-17.559-26.818-28.227-38.843c-7.588-8.552-16.541-15.438-26.477-21.063
				c-0.332-0.327-0.664-0.654-0.996-0.981c0.178-2.134-1.478-3.332-2.711-4.469c-5.123-4.724-10.314-9.499-18.138-8.6
				c-22.938-11.79-47.495-17.027-73.091-18.032c-10.789-0.424-21.502,0.825-32.153,2.152c-7.464,0.93-15.046,1.996-21.993,5.34
				c-4.674,0.457-8.949,2.119-13.047,4.317c-6.23,2.127-12.072,5.107-17.879,8.163c-0.66,0.34-1.321,0.679-1.981,1.019
				c-4.303,0.366-8.354,1.152-10.002,5.967l-0.064,0.032c-6.814,4.685-13.572,9.436-18.973,15.82
				c-0.735,0.398-1.471,0.796-2.207,1.194c-12.903,10.406-22.303,23.817-31.727,37.182c-3.423,4.854-7.006,9.708-8.089,15.796
				c-2.145,3.428-4.227,6.884-5.088,10.911c-1.461,2.452-1.311,4.057,2.058,4.213c1.47,0.068,2.928,0.601,4.391,0.598
				c3.615-0.006,4.478,1.329,3.794,5.02c-2.028,10.952-1.84,11.171-12.893,11.179c-3.615,0.002-4.853,1.77-5.019,4.615
				c-0.215,3.698,2.9,2.53,4.708,2.453c15.066-0.645,30.13-1.216,45.212-0.925c0.224,2.896-1.608,3.087-3.824,3.068
				c-12.867-0.114-25.687,1.661-38.569,0.983c-2.001-0.105-3.908,0.517-5.851,0.752c-3.344,0.405-4.122,2.219-3.707,5.118
				c-0.079,0.738-0.158,1.475-0.237,2.213c-3.091,14.802-1.844,29.661-0.496,44.509c0.196,2.156,1.101,3.254,3.993,2.639
				c7.593-1.619,15.304-2.712,22.993-3.843c10.463-1.539,20.716-4.61,31.427-4.356c0.25,3.477-1.018,5.401-4.757,6.201
				c-15.977,3.42-31.887,7.146-47.838,10.688c-1.484,0.33-2.992,0.149-3.164,2.285c-0.251,3.124-0.733,6.229-0.985,9.354
				c-0.848,10.502,4.745,19.138,8.558,28.197c5.695,13.533,16.03,24.213,23.572,36.646c2.079,3.429,3.84,7.817,8.791,8.577
				C126.306,370.364,126.635,370.693,126.963,371.023z"/>
			<path fill-rule="evenodd" clip-rule="evenodd" fill="#D0F096" d="M140.93,124.766c5.401-6.38,12.16-11.131,18.975-15.815
				c0.499,7.618,0.438,15.253,0.849,22.884c0.943,17.547,1.92,35.083,3.142,52.617c0.829,11.894,1.914,23.751,2.981,35.621
				c1.837,20.431,3.933,40.817,7.089,61.09c0.617,3.967,5.422,8.761,8.841,7.48c5.806-2.176,10.979-0.589,16.342,0.924
				c1.239,0.349,2.937,0.408,2.581-1.072c-1.217-5.07,2.396-9.505,1.352-14.579c-2.426-11.785-1.561-23.881-1.716-35.733
				c-0.415-31.607-0.881-63.233,0.36-94.875c0.703-17.914,1.915-35.882,1.152-53.855c6.947-3.344,14.529-4.41,21.993-5.34
				c10.65-1.327,21.364-2.576,32.153-2.152c25.596,1.005,50.153,6.242,73.09,18.032c-0.02,22.052-0.037,44.104-0.056,66.155
				c-14.826-9.932-31.188-14.003-48.737-11.144c-17.073,2.782-28.943,12.006-33.707,29.586c-2.613,9.645-4.223,19.364-5.587,29.205
				c-1.507,10.872-2.715,21.708-2.108,32.733c0.601,10.906,3.014,20.967,10.623,29.299c2.172,2.379,3.918,5.149,5.958,7.872
				c-7.715,0.45-11.606,3.095-12.508,8.305c-0.091,0.458-0.182,0.917-0.272,1.376c-2.805,0.982-1.269,3.373-1.626,5.131
				c-0.267,1.314-0.101,2.724-2.257,2.192c-10.616-2.613-21.537-3.241-32.328-4.599c-15.604-1.962-31.201-4.022-46.875-5.548
				c-9.586-0.933-19.255-2.718-28.874-4.196c-3.039-0.467-6.33-1.424-8.796,1.617c-10.472,2.344-20.939,4.709-31.421,7.008
				c-1.33,0.291-3.016,0.344-3.183,1.861c-0.406,3.701,0.707,7.4,2.484,10.396c1.082,1.824,4.221,0.718,6.512,0.15
				c8.799-2.18,17.629-4.233,26.447-6.334c1.923,9.411,3.79,18.834,5.802,28.226c0.664,3.099-0.056,3.623-3.217,3.043
				c-7.976-1.463-16.043-2.433-24.071-3.618c-0.747-0.11-1.713-0.796-1.914,0.497c-0.145,0.934,0.827,1.331,1.503,1.794
				c4.788,12.756,12.503,23.564,22.054,33.152c0.733,1.896,1.467,3.792,2.2,5.688l-0.18,0.196c-4.951-0.76-6.711-5.148-8.791-8.577
				c-7.542-12.433-17.877-23.112-23.572-36.646c-3.813-9.06-9.406-17.695-8.558-28.197c0.252-3.124,0.733-6.229,0.985-9.354
				c0.172-2.136,1.68-1.955,3.164-2.285c15.951-3.542,31.861-7.268,47.838-10.688c3.74-0.8,5.007-2.725,4.759-6.201
				c0.336-0.713,0.67-1.426,1.006-2.137c2.876,2.578,1.49,5.698,1.269,8.75c-0.101,1.387-1.018,3.941,1.53,3.904
				c1.959-0.029,2.12-2.467,1.97-3.975c-1.099-11.016-1.328-22.084-2.396-33.116c-1.672-17.275-2.88-34.659-3.004-52.005
				c-0.134-18.767-1.697-37.492-1.211-56.262C141.04,130.422,140.946,127.593,140.93,124.766z M154.417,188.48
				c-1.777,0.601-1.158,1.796-1.42,2.654c-2.551,8.329,0.124,16.714,0.508,24.934c0.479,10.255,0.822,20.657,2.371,30.929
				c1.336,8.862,1.36,17.915,2.46,26.823c0.261,2.113-0.323,6.381,3.662,5.904c3.676-0.44,2.004-4.123,1.857-6.175
				c-0.428-6.001-1.529-11.952-2.238-17.937c-1.207-10.191-2.513-20.376-3.389-30.597c-0.511-5.969-0.87-12.013-1.559-17.915
				C155.955,200.978,156.416,194.567,154.417,188.48z M155.049,181.586c-1.098-1.031-0.134-3.837-2.611-4.268
				c-1.484-0.258-1.502,1.502-1.352,2.602c0.262,1.916,0.519,4.175,2.868,4.518C155.239,184.625,154.819,182.996,155.049,181.586z"
				/>
			<path fill-rule="evenodd" clip-rule="evenodd" fill="#D0F096" d="M423.793,224.07c1.802,3.491,2.246,7.191,2.18,11.103
				c-0.157,9.163,0.125,18.333-0.088,27.494c-0.481,20.641-5.274,40.354-13.454,59.251c-7.445,17.201-17.442,32.755-30.299,46.458
				c-1.673,1.783-2.725,4.15-4.056,6.252c-1.242,1.961-2.333,4.097-5.088,4.244c0.348-1.956,0.694-3.913,1.041-5.87
				c1.361-3.329-1.509-2.708-2.896-2.74c-4.653-0.107-5.108-1.938-4.011-6.236c5.376-21.066,8.111-42.404,5.898-64.229
				c-2.274-22.435-11.563-33.098-33.607-37.977c-7.289-1.613-14.649-1.939-22.946-1.092c1.918-2.319,0.852-5.338,4.431-5.587
				c11.241-0.781,16.51-8.566,20.237-17.89c1.183-2.958,1.897-6.295-0.023-9.118c-2.225-3.27-1.53-6.103,0.225-9.087
				c2.806,0.156,5.676-0.018,8.404,0.525c9.886,1.97,19.951,2.272,29.915,3.492c8.333,1.02,16.675,2.017,25.037,2.734
				c5.465,0.468,10.944,2.977,16.468,0.248C422.553,226.072,422.874,224.672,423.793,224.07z"/>
			<path fill-rule="evenodd" clip-rule="evenodd" fill="#E4BE8D" d="M423.793,224.07c-0.919,0.602-1.24,2.002-2.633,1.974
				c-0.249-2.765-1.289-4.723-4.442-5.04c-5.76-0.579-11.498-1.358-17.255-1.966c-18.738-1.979-37.48-3.918-56.222-5.873
				c0.215-5.77,1.885-11.394,1.615-17.222c-0.561-12.124-6.205-21.683-14.8-29.795c0.018-22.052,0.035-44.104,0.055-66.156
				c7.824-0.898,13.016,3.876,18.139,8.6c1.233,1.138,2.889,2.335,2.711,4.469l0.019,0.012c-1.448,1.122-0.967,2.729-0.969,4.16
				c-0.025,23.092-0.022,46.183,0.002,69.274c0.001,0.814-0.363,1.831,1.943,3.586c0-26.154,0-51.109,0-76.064v0.012
				c9.937,5.625,18.89,12.51,26.478,21.063c10.668,12.024,20.049,24.971,28.227,38.843c5.516,9.357,10.161,18.851,11.455,29.839
				c0.617,5.242,4.619,9.49,5.35,14.889C423.711,220.494,424.07,222.244,423.793,224.07z"/>
			<path fill-rule="evenodd" clip-rule="evenodd" fill="#E4BE8D" d="M202.876,89.452c0.763,17.973-0.449,35.941-1.152,53.855
				c-1.242,31.642-0.775,63.268-0.36,94.875c0.156,11.853-0.709,23.948,1.716,35.733c1.044,5.074-2.569,9.509-1.352,14.579
				c0.356,1.48-1.342,1.421-2.581,1.072c-5.363-1.513-10.536-3.1-16.342-0.924c-3.419,1.28-8.224-3.514-8.841-7.48
				c-3.156-20.273-5.252-40.66-7.089-61.09c-1.067-11.87-2.152-23.727-2.981-35.621c-1.222-17.533-2.199-35.07-3.142-52.617
				c-0.411-7.63-0.35-15.266-0.849-22.884c-0.001,0,0.063-0.032,0.063-0.031c3.741-1.307,7.072-3.301,10.001-5.968
				c0.66-0.34,1.321-0.679,1.981-1.019c1.068,0.821,1.053,1.999,1.042,3.172c-0.253,25.241,1.04,50.441,2.008,75.649
				c0.305,7.949,0.098,15.977,1.204,23.816c0.88,6.24-0.065,12.792,3.033,18.79c0.431-6.436,2.907-12.705,1.247-19.249
				c-0.548-2.161-0.993-4.478-0.32-6.398c3.012-8.601-0.897-17.86,2.71-26.36c0.222-0.523-0.113-1.297-0.23-1.947
				c-1.265-7.03,1.07-13.869,1.33-20.836c0.183-4.904,1.027-10.055,1.386-14.977c0.635-8.698,2.365-17.258,2.73-25.932
				c0.199-4.723,2.243-9.138,1.739-13.893C193.927,91.571,198.202,89.909,202.876,89.452z"/>
			<path fill-rule="evenodd" clip-rule="evenodd" fill="#BAD4E4" d="M142.808,265.95c-0.334,0.712-0.668,1.425-1.004,2.138
				c-10.713-0.254-20.966,2.817-31.429,4.356c-7.689,1.131-15.4,2.224-22.993,3.843c-2.892,0.615-3.797-0.482-3.993-2.639
				c-1.349-14.848-2.596-29.707,0.497-44.51c16.892-1.041,33.779-2.089,50.715-2.181c3.637-0.02,5.972,1.168,6.236,4.777
				C141.672,243.127,143.605,254.463,142.808,265.95z"/>
			<path fill-rule="evenodd" clip-rule="evenodd" fill="#BAD4E4" d="M98.905,178.941c1.085-6.088,4.668-10.941,8.091-15.795
				c9.424-13.365,18.824-26.775,31.73-37.182c0.055,16.648,0.132,33.297,0.131,49.946c0,2.472-0.619,4.875-1.942,7.032
				c-10.79-1.042-21.585-1.979-32.442-1.899C102.368,181.058,100.056,181.505,98.905,178.941z"/>
			<path fill-rule="evenodd" clip-rule="evenodd" fill="#D0F096" d="M189.829,93.769c0.504,4.754-1.54,9.17-1.739,13.893
				c-0.365,8.673-2.095,17.234-2.73,25.932c-0.359,4.922-1.204,10.073-1.386,14.977c-0.259,6.967-2.594,13.806-1.33,20.836
				c0.117,0.65,0.452,1.424,0.23,1.947c-3.607,8.5,0.302,17.759-2.71,26.36c-0.672,1.92-0.228,4.237,0.32,6.398
				c1.66,6.543-0.816,12.813-1.247,19.249c-3.098-5.998-2.153-12.55-3.033-18.79c-1.106-7.839-0.899-15.868-1.204-23.816
				c-0.968-25.208-2.261-50.408-2.008-75.649c0.012-1.173,0.027-2.351-1.042-3.172C177.757,98.876,183.599,95.896,189.829,93.769z"
				/>
			<path fill-rule="evenodd" clip-rule="evenodd" fill="#BAD4E4" d="M136.073,217.005c-15.084-0.291-30.148,0.28-45.214,0.925
				c-1.808,0.078-4.923,1.246-4.708-2.453c0.166-2.845,1.403-4.612,5.019-4.615c11.052-0.008,10.864-0.228,12.893-11.179
				c0.684-3.69-0.179-5.026-3.794-5.02c-1.463,0.002-2.921-0.53-4.391-0.598c-3.369-0.156-3.52-1.762-2.057-4.213
				c1.586,1.812,3.715,1.063,5.622,1.106c12.847,0.294,25.689,0.616,38.473,2.063l0.063,0.064c-0.031,1.431,0.084,2.772,1.903,3.048
				c0.021,3.627,0.042,7.254,0.063,10.882c-0.775,2.614-2.937,4.884-1.968,7.931c0.319,1.013,0.638,2.026,0.958,3.04
				C137.981,217.659,137.027,217.332,136.073,217.005z"/>
			<path fill-rule="evenodd" clip-rule="evenodd" fill="#E4BE8D" d="M374.029,373.001c-0.347,1.957-0.693,3.914-1.041,5.87
				c0-0.001,0.013,0.295,0.013,0.293c-4.589,1.688-7.498,5.616-11.059,8.61c-2.5,2.102-6.431,3.1-6.911,7.208
				c-0.317,0.04-0.635,0.088-0.951,0.143c-1.936-0.343-3.104,1.165-4.334,2.094c-14.57,11.009-30.912,18.325-48.207,23.866
				c-4.494,1.439-9.43,1.402-13.537,4.07c-0.621,0.011-1.24,0.021-1.861,0.03c-4.067,0.443-8.225,0.507-12.17,1.453
				c-3.316,0.796-6.975-0.972-9.969,1.516c-1.954,0.01-3.908,0.021-5.863,0.029c-3.718,0.075-7.524-1.188-11.117,0.741
				c-2.012-0.209-3.922-1.262-6.023-0.722c-2.821-2.367-6.071-0.871-9.139-1.018c-0.626-0.003-1.253-0.006-1.879-0.011
				c-1.417-1.926-3.355-1.058-5.149-0.965c-0.611-0.001-1.222-0.001-1.833-0.003c-1.042-1.785-2.665-1.143-4.168-0.997
				c-0.61-0.019-1.221-0.036-1.832-0.057c-0.512-1.078-1.545-1.042-2.514-1.251c-9.359-2.021-18.434-4.939-27.388-8.336
				c-5.857-2.223-11.083-5.847-17.184-7.471c-0.299-0.059-0.601-0.099-0.905-0.122c-2.05-3.479-5.422-4.912-9.097-5.878
				c-0.292-0.063-0.585-0.112-0.881-0.149c-0.795-3.188-3.349-4.156-6.12-4.851c-0.298-0.058-0.599-0.098-0.901-0.121
				c-0.086-1.979-1.12-2.939-3.1-2.879c-0.291-0.063-0.583-0.112-0.878-0.149c-0.35-2.379-1.63-3.764-4.122-3.851
				c-3.393-2.618-6.798-5.224-9.054-8.987c0.098-3.534-4.747-4.625-4.147-8.401c4.27,2.342,6.033,7.667,10.976,9.196
				c0.457,0.466,0.914,0.931,1.371,1.396c0.214,0.255,0.428,0.511,0.641,0.766l0.206,0.252c0.271,0.26,0.542,0.521,0.814,0.78
				c0.413,0.35,0.825,0.698,1.238,1.047c0.302,0.307,0.604,0.613,0.906,0.919l0.058,0.078c0.067,1.788,1.366,1.961,2.714,2.069
				l0.271,0.135c0.309,0.242,0.618,0.484,0.926,0.727l0.08,0.098c0.071,1.753,1.354,1.93,2.675,2.059l0.314,0.158
				c0.321,0.229,0.643,0.456,0.964,0.684l0.056,0.065c0.1,1.91,1.471,1.981,2.884,1.993l0.083,0.084
				c0.124,1.716,1.394,1.894,2.705,2.017l0.24,0.156c0.333,1.668,1.617,1.753,2.943,1.767l0.096,0.09
				c0.564,2.22,2.638,2.842,4.252,3.854c13.453,8.438,28.285,13.667,43.522,17.521c7.714,1.951,15.63,4.193,23.847,2.993
				l0.362-0.153l0.375,0.117c0.046,0.24,0.093,0.481,0.139,0.722c0.135-0.243,0.271-0.486,0.406-0.729
				c0.388-0.017,0.775-0.032,1.163-0.048c0.359,1.128,1.243,1.492,2.305,1.495c7.472,0.016,14.943,0.018,22.415,0.013
				c1.046,0,1.966-0.285,2.421-1.365c1.633-0.17,3.266-0.341,4.898-0.512c1.531,1.549,3.508,1.051,5.205,0.788
				c5.715-0.885,11.459-1.762,17.045-3.207c2.697-0.698,6.127-0.208,7.916-3.286c19.79-5.658,37.695-15.07,53.942-27.585
				C360.973,384.554,367.396,378.64,374.029,373.001z"/>
			<path fill-rule="evenodd" clip-rule="evenodd" fill="#E4BE8D" d="M139.945,207.015c-0.021-3.627-0.042-7.254-0.062-10.883
				c0.174-1.522-0.481-2.525-1.905-3.046c0,0-0.063-0.064-0.063-0.064c-2.892-3.105-0.135-6.772-1-10.079
				c1.324-2.157,1.942-4.56,1.942-7.032c0.001-16.649-0.077-33.297-0.131-49.946c0.733-0.398,1.468-0.796,2.204-1.196
				c0.016,2.825,0.11,5.655,0.037,8.48c-0.486,18.77,1.077,37.495,1.211,56.262c0.124,17.346,1.332,34.729,3.004,52.005
				c1.068,11.032,1.297,22.101,2.396,33.116c0.15,1.508-0.011,3.945-1.97,3.975c-2.548,0.037-1.63-2.518-1.53-3.904
				c0.222-3.052,1.607-6.172-1.269-8.75c0.795-11.488-1.138-22.824-1.974-34.217c-0.265-3.608-2.6-4.796-6.236-4.777
				c-16.936,0.092-33.823,1.141-50.715,2.181c0.078-0.736,0.157-1.474,0.235-2.21c4.325-1.147,8.73-1.78,13.2-1.919
				c11.289-0.351,22.583-0.598,33.867-1.057c3.813-0.155,7.374-1.118,7.75-5.966c-0.319-1.013-0.638-2.026-0.957-3.039
				C139.473,212.512,142.5,210.456,139.945,207.015z"/>
			<path fill-rule="evenodd" clip-rule="evenodd" fill="#D0F096" d="M136.916,182.942c0.865,3.307-1.891,6.974,1,10.079
				c-12.785-1.447-25.627-1.769-38.474-2.063c-1.907-0.043-4.036,0.706-5.622-1.106c0.86-4.027,2.942-7.483,5.086-10.911
				c1.15,2.564,3.462,2.116,5.567,2.101C115.33,180.963,126.125,181.899,136.916,182.942z"/>
			<path fill-rule="evenodd" clip-rule="evenodd" fill="#D0F096" d="M138.935,217.986c-0.376,4.848-3.937,5.812-7.75,5.966
				c-11.284,0.459-22.578,0.706-33.867,1.057c-4.47,0.139-8.875,0.771-13.2,1.919c-0.414-2.9,0.364-4.714,3.708-5.119
				c1.943-0.235,3.85-0.857,5.851-0.752c12.883,0.678,25.703-1.098,38.569-0.983c2.216,0.02,4.048-0.172,3.825-3.068
				C137.027,217.332,137.981,217.659,138.935,217.986z"/>
			<path fill-rule="evenodd" clip-rule="evenodd" fill="#BAD4E4" d="M288.002,425.155c4.107-2.668,9.043-2.631,13.537-4.07
				c17.295-5.541,33.637-12.857,48.207-23.866c1.229-0.929,2.398-2.437,4.334-2.094c-2.224,4.647-6.917,6.452-10.828,8.968
				c-16.161,10.394-33.722,17.523-52.523,21.569C289.699,425.884,288.779,426.046,288.002,425.155z"/>
			<path fill-rule="evenodd" clip-rule="evenodd" fill="#BAD4E4" d="M169.914,408.096c6.1,1.624,11.326,5.248,17.184,7.471
				c8.954,3.396,18.029,6.315,27.388,8.336c0.969,0.209,2.002,0.173,2.514,1.251c-0.743,0.866-1.749,0.971-2.729,0.729
				c-14.766-3.648-29.129-8.405-42.615-15.569C170.71,409.811,170.051,409.184,169.914,408.096z"/>
			<path fill-rule="evenodd" clip-rule="evenodd" fill="#BAD4E4" d="M355.031,394.982c0.48-4.108,4.411-5.106,6.911-7.208
				c3.561-2.994,6.47-6.923,11.059-8.61C368.439,386.061,362.051,390.88,355.031,394.982z"/>
			<path fill-rule="evenodd" clip-rule="evenodd" fill="#BAD4E4" d="M264.002,428.154c2.994-2.487,6.652-0.72,9.969-1.516
				c3.945-0.946,8.103-1.01,12.17-1.453c-0.727,2.763-3.293,1.974-4.932,2.116C275.494,427.799,269.848,430.403,264.002,428.154z"/>
			<path fill-rule="evenodd" clip-rule="evenodd" fill="#BAD4E4" d="M130.704,372.703c-0.595,3.78,4.25,4.871,4.152,8.405
				c-3.26-1.41-5.737-3.583-6.879-7.057c0.096-0.772,0.191-1.545,0.284-2.315C129.073,372.061,129.888,372.382,130.704,372.703z"/>
			<path fill-rule="evenodd" clip-rule="evenodd" fill="#D0F096" d="M169.969,102.951c-2.929,2.667-6.26,4.662-10.001,5.968
				C161.615,104.103,165.667,103.316,169.969,102.951z"/>
			<path fill-rule="evenodd" clip-rule="evenodd" fill="#BAD4E4" d="M247.022,428.925c3.593-1.93,7.399-0.666,11.117-0.741
				C254.634,431.446,250.829,430.2,247.022,428.925z"/>
			<path fill-rule="evenodd" clip-rule="evenodd" fill="#BAD4E4" d="M159.912,402.096c3.674,0.966,7.046,2.399,9.097,5.878
				C165.349,406.985,161.951,405.592,159.912,402.096z"/>
			<path fill-rule="evenodd" clip-rule="evenodd" fill="#BAD4E4" d="M231.86,427.186c3.068,0.146,6.318-1.35,9.139,1.018
				C237.823,429.026,234.584,430.414,231.86,427.186z"/>
			<path fill-rule="evenodd" clip-rule="evenodd" fill="#BAD4E4" d="M152.912,397.096c2.771,0.694,5.325,1.663,6.12,4.851
				C156.332,401.162,153.762,400.214,152.912,397.096z"/>
			<path fill-rule="evenodd" clip-rule="evenodd" fill="#BAD4E4" d="M224.832,426.21c1.794-0.093,3.733-0.961,5.149,0.965
				C227.984,428.346,226.107,428.879,224.832,426.21z"/>
			<path fill-rule="evenodd" clip-rule="evenodd" fill="#BAD4E4" d="M143.91,390.096c2.492,0.087,3.772,1.472,4.122,3.851
				C145.597,393.799,144.38,392.348,143.91,390.096z"/>
			<path fill-rule="evenodd" clip-rule="evenodd" fill="#BAD4E4" d="M218.831,425.21c1.503-0.146,3.125-0.788,4.168,0.997
				C221.237,427.429,219.741,427.544,218.831,425.21z"/>
			<path fill-rule="evenodd" clip-rule="evenodd" fill="#BAD4E4" d="M148.91,394.096c1.98-0.061,3.014,0.899,3.1,2.879
				C150.094,396.965,149.144,395.916,148.91,394.096z"/>
			<path fill-rule="evenodd" clip-rule="evenodd" fill="#D0F096" d="M128.263,371.734c-0.095,0.772-0.191,1.545-0.287,2.317
				c-1.049-0.771-1.049-1.894-1.013-3.028c0,0,0.198-0.186,0.196-0.184C127.527,371.139,127.895,371.437,128.263,371.734z"/>
			<path fill-rule="evenodd" clip-rule="evenodd" fill="#E4BE8D" d="M350.961,113.061c0.332,0.327,0.664,0.654,0.996,0.981
				c-0.001,0-0.001-0.012-0.001-0.012c-0.325-0.319-0.651-0.638-0.977-0.957L350.961,113.061z"/>
			<path fill-rule="evenodd" clip-rule="evenodd" fill="#D0F096" d="M126.963,371.023c-0.329-0.33-0.657-0.659-0.986-0.988
				c0,0,0.18-0.196,0.179-0.194c0.334,0.333,0.669,0.665,1.005,0.997L126.963,371.023z"/>
			<path fill-rule="evenodd" clip-rule="evenodd" fill="#654027" d="M145.954,386.145c-0.413-0.349-0.825-0.697-1.236-1.047
				c0.009-0.554-0.255-0.822-0.815-0.78c0,0-0.206-0.252-0.204-0.252c0.087-0.508-0.105-0.782-0.643-0.766
				c-0.457-0.466-0.914-0.931-1.367-1.395c-0.086-2.147,2.254-4.339-0.162-6.453c-1.946-1.703-2.354-4.008-1.954-6.368
				c0.354-2.082-0.824-3.027-2.225-3.982c-3.38-8.489-3.581-17.723-6.136-26.419c-0.534-1.817-0.302-3.514-2.783-3.854
				c-8.85-1.217-17.685-2.544-26.525-3.829c-0.677-0.463-1.648-0.86-1.503-1.794c0.201-1.293,1.167-0.607,1.914-0.497
				c8.028,1.186,16.095,2.155,24.071,3.618c3.161,0.58,3.881,0.056,3.217-3.043c-2.013-9.392-3.879-18.814-5.802-28.225
				c-0.17-4.367-2.36-8.605-0.84-13.082c2.466-3.041,5.757-2.084,8.796-1.617c9.619,1.479,19.288,3.264,28.874,4.196
				c15.674,1.525,31.271,3.586,46.875,5.548c10.791,1.357,21.712,1.985,32.328,4.599c2.156,0.531,1.99-0.878,2.257-2.192
				c0.358-1.758-1.178-4.148,1.627-5.132c1.322,1.911,1.421,3.964,0.653,6.091c-1.307,3.622-0.233,6.809,1.484,10.212
				c2.12-1.658,0.76-4.647,3.312-6.098c-0.408,5.141-0.781,9.85-1.154,14.558c-0.228,0.249-0.213,0.483,0.042,0.703
				c0.639,11.298,3.547,22.188,5.959,33.169c0.119,1.506-0.122,3.079,0.821,4.433c1.474,2.438,3.995,1.085,5.984,1.655
				c12.099,1.908,24.179,3.941,36.305,5.659c4.507,0.639,7.886,1.929,7.084,7.263c-0.479,3.188,1.124,4.054,3.739,4.459
				c4.734,0.734,9.437,1.692,14.183,2.328c6.28,0.841,12.59,1.461,18.886,2.176c-3.731-2.972-8.655-1.75-12.333-4.968
				c8.086,1.061,16.172,2.12,24.258,3.181c0.042-0.308,0.084-0.614,0.126-0.922c-7.19-1.322-14.38-2.645-21.57-3.967
				c0.08-0.449,0.16-0.899,0.24-1.349c3.853,0.541,7.712,1.035,11.555,1.637c4.725,0.739,9.44,1.258,14.197,0.311
				c1.035-0.206,2-0.604,2.076-1.776c0.081-1.249-0.95-1.71-1.945-1.858c-7.362-1.092-14.707-2.377-22.105-3.126
				c-11.209-1.136-22.229-3.472-33.424-4.769c-13.098-1.518-26.056-4.23-39.074-6.426c-0.455-0.85-2.299-1.275-0.829-2.714
				c2.038,1.456,4.472,0.367,6.633,1.032c1.579,1.315,3.427,0.703,5.187,0.72c12.606,1.994,25.219,3.952,37.814,6.005
				c3.183,0.52,4.829,0.557,5.582-3.764c0.919-5.274,0.195-7.848-5.292-8.963c-4.813-0.978-9.454-2.781-14.198-4.124
				c-1.729-0.489-3.252-1.052-3.023-3.204c0.332-3.121-1.549-2.933-3.72-2.789c-5.12,0.338-10.278,0.874-15.231-1.14
				c-1.209-1.082-2.418-2.164-3.627-3.247c-3.933-6.779-1.028-14.784-3.891-21.758c-0.098-0.236-0.072-0.766-0.07-0.766
				c4.876-0.432,1.408-4.439,2.738-6.371c2.125,0.388,1.027,5.682,4.986,3.277c2.915,2.992,7.771,1.563,9.699-2.777
				c0.627-1.41,0.094-3.967,3.001-3.426c-0.4,2.224-0.792,4.448-1.208,6.668c-1.455,7.788-2.918,8.437-9.748,4.268
				c-1.67-1.02-3.666-1.332-5.127-0.44c-1.468,0.896-0.896,2.571-0.41,4.35c0.818,2.991-0.281,6.589,3.322,8.5
				c0.033,0.018-0.047,0.248-0.066,0.339c-0.946,1.456-2.055-1.143-3.216,0.428c2.435,2.03,0.178,5.843,3.522,8.072
				c3.908,2.605,8.006,1.845,12.051,1.854c7.885,0.02,11.782-6.857,7.955-13.796c-3.012-5.461-5.732-10.961-3.911-17.466
				c0.831-2.965-0.855-3.14-3.013-2.925c-0.688-2.969,1.787-2.824,3.138-2.521c2.423,0.541,3.247,2.418,2.417,4.931
				c-2.219,6.714,0.701,12.343,3.936,17.865c0.414,0.706,0.856,2.109,2.123,0.741c2.202-2.376,4.625-0.887,6.921-0.294
				c4.09,1.057,7.718,3.62,12.167,3.793c0.003-3.383-4.876-6.145-0.451-11.312c1.393,11.908,9.312,15.225,18.515,17.143
				c1.749,0.364,3.784,1.063,4.72,3.506c-1.868,0.668-3.286,0.354-4.911-0.217c-9.894-3.476-20.314-5.33-29.946-9.604
				c-3.807-1.688-6.395-0.846-7.895,3.055c-0.769,2-1.539,4.006-2.172,6.052c-1.143,3.693-0.48,6.377,3.979,7.009
				c2.071,0.294,4.138,0.795,6.129,1.439c11.162,3.607,22.315,7.246,33.439,10.969c3.563,1.193,6.583,0.446,9.114-2.136
				c2.46-2.509,2.966-5.762,1.637-8.809c-6.752-15.479-13.42-31.008-20.711-46.235c-3.566-7.449-12.332-7.434-17.006-0.611
				c-1.491,2.177-1.491,2.177-4.367,2.773c0.835-4.648,3.559-7.725,7.688-9.93c-3.992-1.095-7.731-3.819-11.318,1.404
				c-0.424-2.764,1.463-4.334,0.347-6.176c-0.791-1.305-1.412-3.162-3.149-2.387c-1.4,0.625,1.503,0.98,0.703,2.23
				c-0.903,1.408-1.021,3.825-3.695,2.28c-2.918-1.265-3.555-3.894-3.701-6.875c-5.383,1.501-10.315,3.362-15.527,4.306
				c-10.084,1.826-10.064,1.928-11.026,11.977c-2.222-2.18-0.767-4.936-1.149-7.403c-0.164-1.048,0.409-2.662-1.42-2.547
				c-7.055,0.444-14.623-1.093-20.354,4.808c-0.964,0.992-1.925,1.124-3.108,0.981c0.902-5.21,4.793-7.854,12.508-8.305
				c-2.04-2.723-3.786-5.493-5.958-7.872c-7.608-8.332-10.022-18.394-10.623-29.299c-0.607-11.025,0.602-21.861,2.108-32.733
				c1.364-9.841,2.974-19.56,5.587-29.205c4.764-17.58,16.634-26.804,33.707-29.586c17.549-2.859,33.911,1.212,48.737,11.144
				c8.596,8.113,14.24,17.672,14.801,29.796c0.27,5.829-1.4,11.452-1.616,17.22c-1.437,1.7-1.525,3.838-1.903,5.882
				c-1.755,2.984-2.449,5.817-0.225,9.087c1.921,2.822,1.206,6.16,0.023,9.118c-3.728,9.324-8.996,17.109-20.237,17.89
				c-3.579,0.249-2.513,3.268-4.431,5.587c8.297-0.848,15.657-0.521,22.946,1.092c22.045,4.879,31.333,15.542,33.607,37.977
				c2.213,21.825-0.522,43.163-5.898,64.229c-1.098,4.299-0.643,6.129,4.011,6.236c1.387,0.032,4.257-0.589,2.896,2.74
				c-6.634,5.639-13.057,11.553-19.946,16.859c-16.247,12.515-34.152,21.927-53.942,27.584c-5.598,1.133-11.187,2.309-16.794,3.389
				c-4.442,0.855-9.091,0.521-13.372,2.317c-1.633,0.171-3.266,0.342-4.899,0.515c-9.042-0.988-18.09-0.721-27.14-0.146
				c-0.388,0.016-0.775,0.031-1.16,0.053c-0.18-0.069-0.364-0.07-0.548,0.002l-0.375-0.117c0,0-0.362,0.153-0.364,0.157
				c-0.64-1.171-1.72-1.381-2.941-1.488c-20.082-1.776-38.784-8.11-56.795-16.923c-3.982-1.948-7.325-5.183-11.882-5.961
				c0,0-0.096-0.09-0.095-0.091c-0.399-1.56-1.452-2.03-2.945-1.766c0,0-0.24-0.156-0.237-0.158c-0.2-1.615-1.303-2.019-2.708-2.015
				c0,0-0.083-0.084-0.082-0.084c-0.417-1.453-1.48-1.97-2.884-1.993c0,0-0.056-0.065-0.055-0.065
				c-0.056-0.603-0.361-0.854-0.965-0.684c0,0-0.314-0.158-0.312-0.159c-0.154-1.648-1.245-2.075-2.678-2.058
				c0,0-0.08-0.098-0.079-0.099c-0.033-0.595-0.288-0.906-0.927-0.726c0,0-0.271-0.135-0.269-0.137
				c-0.15-1.681-1.237-2.133-2.716-2.067c0,0-0.058-0.078-0.057-0.078C146.844,386.476,146.575,386.137,145.954,386.145z
				 M284.882,259.814c-0.346-1.295-0.923-1.923-2.527-1.934c-7.913-0.057-15.798-0.512-23.255-3.576
				c-1.713-0.705-1.906,0.315-1.999,1.568c-3.245-0.063-1.929-4.816-5.099-4.955c-1.942,5.736,0.189,15.129,4.333,18.923
				c1.237,1.133,2.902,2.596,4.375,1.642c4.317-2.798,7.612-1.854,10.806,1.767c0.626,0.71,2.137,0.828,3.256,0.883
				c7.266,0.352,16.208-9.179,15.697-16.429C288.302,257.563,286.98,259.629,284.882,259.814z M264.035,247.034l-0.055-0.046
				c2.021,3.122,5.398,2.744,8.361,2.935c4.474,0.288,8.994-0.147,13.468,0.144c5.483,0.357,10.067,2.339,11.53,8.654
				c2.504-2.021,5.852-1.868,8.068-4.408c4.142-4.745,8.413-9.319,9.885-15.734c1.492-6.507,3.116-12.983,4.611-19.49
				c0.252-1.093,1.615-2.153,0.801-3.215c-4.335-5.659-1.973-11.634-1.024-17.552c0.81-5.057-1.302-11.825-4.622-13.345
				c-5.319-2.436-10.727-4.225-16.894-3.24c-8.397,1.341-16.999,3.211-24.94-1.995c-2.293-1.503-4.533-3.093-6.889-4.49
				c-3.133-1.857-9.488-0.824-11.186,1.896c-2.634,4.225-4.761,8.664-6.144,13.524c-3.568,12.546-3.558,25.606-5.707,38.359
				c-1.003,5.951-0.878,12.267,0.569,18.347c0.273,1.147,0.395,2.322,1.798,2.704c1.528,0.416,1.966-0.724,2.62-1.7
				c2.724-4.068,6.528-3.909,10.647-2.719C260.623,246.151,262.009,247.815,264.035,247.034z M164.923,293.094
				c-11.704-1.537-23.418-2.997-35.104-4.66c-3.73-0.53-5.502,0.398-4.642,4.408c0.02,0.828-0.083,1.68,0.076,2.479
				c3.973,20.07,7.965,40.136,11.972,60.198c1.825,9.136,2.296,9.341,11.532,10.636c19.43,2.726,38.83,5.671,58.244,8.511
				c14.64,2.142,29.27,4.356,43.931,6.341c5.663,0.766,6.253-0.025,5.181-5.473c-3.82-19.422-7.657-38.84-11.537-58.249
				c-3.311-16.563-2.149-14.154-18.489-16.331c-9.375-1.248-18.845-2.095-28.174-3.39
				C186.93,296.039,175.964,294.284,164.923,293.094z M302.706,277.427c1.719,0.96,4.038,1.454,4.697,2.777
				c1.75,3.509,4.723,4.235,8.012,4.97c2.414,0.541,4.702,1.633,7.107,2.229c6.828,1.692,11.046,5.896,13.868,12.359
				c6.311,14.45,13.211,28.643,19.055,43.302c0.466,1.17,0.624,2.872,2.423,2.664c1.537-0.177,2.676-0.955,3.012-2.788
				c3.369-18.395,4.985-36.903,0.947-55.317c-2.483-11.322-8.831-19.981-20.964-23.039c-7.381-1.859-14.839-1.707-22.33-1.414
				c-1.407,0.055-2.644,0.41-3.286,1.814C312.64,270.688,308.104,274.48,302.706,277.427z M321.403,252.02
				c8.729,0.014,19.507-13.86,17.332-21.885c-0.931-3.435-3.363-5.816-7.039-3.987c-5.121,2.548-9.977,5.685-11.45,11.907
				c-0.724,3.057-1.232,6.201-2.317,9.127C316.354,251.43,318.481,252.146,321.403,252.02z M301.015,367.571
				c-2.125-1.38-3.825-1.207-5.438-1.451c-11.612-1.759-23.214-3.581-34.833-5.29c-1.709-0.252-4.396-2.201-4.991,0.4
				c-0.561,2.447,2.737,2.174,4.438,2.87c0.716,0.294,1.655-0.015,2.474,0.095c5.834,0.776,11.664,1.591,18.262,2.498
				c-1.688,1.654-2.922,1.884-4.182,2.184c-5.325,1.269-10.607,2.728-15.959,3.873c-2.543,0.545-2.582,1.779-2.186,3.934
				c0.503,2.739,1.782,2.456,3.869,1.85C275.05,374.874,287.67,371.35,301.015,367.571z M202.663,382.61
				c0.758-0.42,2.646,0.982,2.447-1.116c-0.164-1.737,0.491-4.055-2.598-4.495c-7.645-1.091-15.25-2.455-22.876-3.683
				c-1.259-0.202-2.339,0.05-2.515,1.615c-0.197,1.767-0.082,3.47,2.087,3.838C186.992,380.09,194.788,381.327,202.663,382.61z
				 M231.557,381.132c-1.051-0.106-2.542,0.155-2.582,2.527c-0.034,2.042,0.852,2.864,2.936,3.08
				c6.916,0.717,13.815,1.596,20.708,2.509c1.49,0.198,3.043,1.035,3.305-1.397c0.205-1.896-0.387-3.249-2.504-3.553
				C246.395,383.291,239.372,382.266,231.557,381.132z M222.516,386.129c1.466-1.063,4.129,1.105,4.355-2.14
				c0.182-2.604-0.932-4.001-3.556-4.322c-4.249-0.52-8.481-1.183-12.731-1.688c-1.437-0.171-3.17-0.453-3.408,1.753
				c-0.202,1.873,0.591,3.469,2.472,3.729C214.041,384.067,218.406,384.749,222.516,386.129z M171.676,377.959
				c1.368-0.065,3.205,0.692,3.17-1.826c-0.026-1.866,0.051-3.736-2.554-4.04c-3.123-0.365-6.224-0.926-9.35-1.265
				c-1.678-0.182-4.174-2.311-4.687,1.184c-0.402,2.745,1.364,4.289,4.05,4.674C165.425,377.131,168.549,377.531,171.676,377.959z
				 M156.346,375.524c0.28-4.712-1.78-6.62-6.133-6.414c-1.274,0.061-2.573-0.458-3.864-0.693c-1.874-0.34-4.214-0.393-4.611,1.6
				c-0.345,1.729,1.647,3.229,3.429,3.623C148.829,374.45,152.569,374.909,156.346,375.524z M273.48,367.899
				c-0.053-0.239-0.105-0.478-0.158-0.716c-4.547-0.768-9.092-1.548-13.641-2.295c-1.928-0.316-3.508,0.025-2.818,2.495
				c0.488,1.75-0.655,5.137,3.028,4.332C264.48,370.714,268.956,369.195,273.48,367.899z M350.801,380.201
				c-2.065-0.196-4.131-0.394-6.196-0.59C346.553,381.399,348.734,380.81,350.801,380.201z"/>
			<path fill-rule="evenodd" clip-rule="evenodd" fill="#BAD4E4" d="M271.089,304.871c-1.331,1.932,2.137,5.939-2.739,6.371
				c-0.002,0-0.027,0.529,0.07,0.766c2.862,6.974-0.042,14.979,3.891,21.758c-0.184,4.031-0.887,7.908,0.295,12.118
				c0.766,2.728,2.816,8.085-3.786,8.389c-2.161-0.666-4.595,0.423-6.633-1.033c-2.725-0.409-5.448-0.818-8.173-1.227
				c-2.412-10.98-5.32-21.871-5.958-33.167c4.349,0.284,8.736-0.395,13.078,0.447c-4.226-2.019-8.729-1.011-13.121-1.152
				c0.374-4.708,0.747-9.417,1.154-14.558c-2.552,1.45-1.192,4.439-3.312,6.098c-1.717-3.403-2.791-6.59-1.484-10.212
				c0.768-2.127,0.668-4.18-0.653-6.091c0.09-0.458,0.181-0.917,0.271-1.375c1.184,0.143,2.144,0.011,3.108-0.981
				c5.731-5.9,13.299-4.363,20.354-4.808c1.829-0.115,1.256,1.499,1.42,2.547c0.383,2.468-1.072,5.224,1.149,7.403
				C270.377,299.066,270.732,301.969,271.089,304.871z M261.557,293.346c-2.072,4.717-1.609,8.281,4.312,9.342
				c0.28-1.221,0.555-3.639-0.315-3.453c-5.859,1.252-2.488-3.076-3.182-4.879c0.1-0.398,0.407-0.924,0.257-1.167
				C262.33,292.707,261.873,292.949,261.557,293.346z"/>
			<path fill-rule="evenodd" clip-rule="evenodd" fill="#E4BE8D" d="M101.903,330.999c8.84,1.285,17.675,2.612,26.525,3.829
				c2.481,0.341,2.249,2.037,2.783,3.854c2.555,8.696,2.755,17.93,6.133,26.417c-1.261-0.233-2.546-0.756-3.771-0.642
				c-3.233,0.302-6.347-2.693-9.615-0.307C114.407,354.563,106.691,343.755,101.903,330.999z"/>
			<path fill-rule="evenodd" clip-rule="evenodd" fill="#9C9599" d="M122.96,287.977c-1.52,4.477,0.669,8.715,0.84,13.082
				c-8.819,2.1-17.649,4.153-26.448,6.333c-2.291,0.567-5.431,1.674-6.512-0.15c-1.777-2.995-2.89-6.694-2.484-10.396
				c0.167-1.518,1.853-1.57,3.183-1.861C102.021,292.686,112.488,290.32,122.96,287.977z"/>
			<path fill-rule="evenodd" clip-rule="evenodd" fill="#E4BE8D" d="M154.417,188.48c1.999,6.087,1.538,12.498,2.253,18.622
				c0.689,5.901,1.048,11.945,1.559,17.915c0.875,10.221,2.182,20.406,3.389,30.597c0.709,5.984,1.81,11.936,2.238,17.937
				c0.146,2.052,1.819,5.734-1.857,6.175c-3.985,0.477-3.401-3.791-3.662-5.904c-1.101-8.908-1.125-17.961-2.46-26.823
				c-1.549-10.272-1.891-20.674-2.371-30.929c-0.384-8.219-3.06-16.605-0.508-24.934C153.259,190.276,152.64,189.082,154.417,188.48
				z"/>
			<path fill-rule="evenodd" clip-rule="evenodd" fill="#9C9599" d="M123.958,364.151c3.268-2.387,6.382,0.608,9.615,0.307
				c1.226-0.114,2.511,0.408,3.771,0.642c1.404,0.957,2.582,1.902,2.228,3.984c-0.4,2.36,0.008,4.665,1.954,6.368
				c2.416,2.114,0.076,4.306,0.162,6.453c-4.947-1.531-6.71-6.856-10.98-9.198c-0.82-0.325-1.635-0.646-2.448-0.971
				c-0.365-0.3-0.733-0.598-1.1-0.896c-0.334-0.334-0.669-0.666-1.003-0.999C125.424,367.943,124.691,366.048,123.958,364.151z"/>
			<path fill-rule="evenodd" clip-rule="evenodd" fill="#E4BE8D" d="M155.049,181.586c-0.23,1.41,0.189,3.039-1.095,2.852
				c-2.35-0.343-2.606-2.602-2.868-4.518c-0.151-1.1-0.133-2.859,1.352-2.602C154.916,177.749,153.951,180.555,155.049,181.586z"/>
			<path fill-rule="evenodd" clip-rule="evenodd" fill="#9C9599" d="M341.337,219.045c0.378-2.044,0.467-4.182,1.903-5.882
				c18.742,1.957,37.484,3.896,56.223,5.875c5.757,0.608,11.495,1.387,17.255,1.966c3.153,0.317,4.193,2.275,4.442,5.04
				c-5.522,2.729-11.002,0.221-16.467-0.248c-8.362-0.717-16.704-1.714-25.037-2.734c-9.964-1.219-20.029-1.522-29.915-3.492
				C347.013,219.027,344.143,219.201,341.337,219.045z"/>
			<path fill-rule="evenodd" clip-rule="evenodd" fill="#D0F096" d="M350.979,113.073c0.325,0.319,0.651,0.638,0.977,0.957
				c0,24.955,0,49.91,0,76.064c-2.307-1.756-1.942-2.772-1.943-3.586c-0.024-23.091-0.027-46.183-0.002-69.274
				C350.013,115.802,349.531,114.195,350.979,113.073z"/>
			<path fill-rule="evenodd" clip-rule="evenodd" fill="#D0F096" d="M139.945,207.015c2.555,3.44-0.473,5.497-1.967,7.932
				C137.009,211.899,139.17,209.629,139.945,207.015z"/>
			<path fill-rule="evenodd" clip-rule="evenodd" fill="#D0F096" d="M137.979,193.085c1.424,0.521,2.079,1.524,1.905,3.046
				C138.063,195.857,137.948,194.517,137.979,193.085z"/>
			<path fill-rule="evenodd" clip-rule="evenodd" fill="#9C9599" d="M163.869,399.242c4.557,0.778,7.9,4.013,11.882,5.961
				c18.011,8.813,36.713,15.146,56.795,16.923c1.221,0.107,2.301,0.317,2.941,1.488c-8.214,1.196-16.13-1.046-23.844-2.997
				c-15.237-3.854-30.069-9.083-43.522-17.521C166.507,402.084,164.433,401.462,163.869,399.242z"/>
			<path fill-rule="evenodd" clip-rule="evenodd" fill="#9C9599" d="M269.975,423.15c4.281-1.797,8.93-1.462,13.372-2.317
				c5.607-1.08,11.196-2.256,16.794-3.389c-1.789,3.079-5.219,2.589-7.916,3.287c-5.586,1.445-11.33,2.322-17.045,3.207
				C273.482,424.201,271.506,424.699,269.975,423.15z"/>
			<path fill-rule="evenodd" clip-rule="evenodd" fill="#9C9599" d="M237.935,423.52c9.05-0.575,18.098-0.843,27.14,0.146
				c-0.454,1.077-1.374,1.362-2.42,1.362c-7.472,0.005-14.943,0.003-22.415-0.013C239.178,425.012,238.294,424.647,237.935,423.52z"
				/>
			<path fill-rule="evenodd" clip-rule="evenodd" fill="#9C9599" d="M160.83,397.386c1.493-0.265,2.545,0.206,2.945,1.766
				C162.447,399.139,161.163,399.054,160.83,397.386z"/>
			<path fill-rule="evenodd" clip-rule="evenodd" fill="#9C9599" d="M146.918,387.142c1.479-0.065,2.566,0.387,2.716,2.067
				C148.284,389.103,146.985,388.93,146.918,387.142z"/>
			<path fill-rule="evenodd" clip-rule="evenodd" fill="#9C9599" d="M150.91,390.17c1.433-0.018,2.524,0.409,2.678,2.058
				C152.264,392.1,150.98,391.923,150.91,390.17z"/>
			<path fill-rule="evenodd" clip-rule="evenodd" fill="#9C9599" d="M154.918,393.136c1.404,0.023,2.468,0.54,2.884,1.993
				C156.39,395.117,155.019,395.046,154.918,393.136z"/>
			<path fill-rule="evenodd" clip-rule="evenodd" fill="#9C9599" d="M157.885,395.213c1.405-0.004,2.507,0.399,2.708,2.015
				C159.279,397.106,158.008,396.929,157.885,395.213z"/>
			<path fill-rule="evenodd" clip-rule="evenodd" fill="#9C9599" d="M145.954,386.145c0.621-0.008,0.89,0.331,0.907,0.919
				C146.559,386.758,146.256,386.451,145.954,386.145z"/>
			<path fill-rule="evenodd" clip-rule="evenodd" fill="#9C9599" d="M143.902,384.317c0.561-0.042,0.825,0.227,0.815,0.78
				C144.445,384.838,144.174,384.577,143.902,384.317z"/>
			<path fill-rule="evenodd" clip-rule="evenodd" fill="#9C9599" d="M149.903,389.346c0.64-0.181,0.895,0.131,0.927,0.726
				C150.521,389.83,150.212,389.588,149.903,389.346z"/>
			<path fill-rule="evenodd" clip-rule="evenodd" fill="#9C9599" d="M143.055,383.3c0.538-0.017,0.73,0.258,0.643,0.766
				C143.483,383.811,143.269,383.555,143.055,383.3z"/>
			<path fill-rule="evenodd" clip-rule="evenodd" fill="#9C9599" d="M153.899,392.387c0.604-0.17,0.909,0.081,0.965,0.684
				C154.542,392.843,154.22,392.615,153.899,392.387z"/>
			<path fill-rule="evenodd" clip-rule="evenodd" fill="#9C9599" d="M236.227,423.574c0.185-0.072,0.368-0.071,0.548-0.002
				c-0.139,0.237-0.274,0.48-0.409,0.724C236.32,424.056,236.273,423.814,236.227,423.574z"/>
			<path fill-rule="evenodd" clip-rule="evenodd" fill="#9C9599" d="M164.923,293.094c11.041,1.19,22.007,2.945,32.991,4.47
				c9.329,1.295,18.798,2.142,28.174,3.39c16.34,2.177,15.179-0.231,18.489,16.331c3.88,19.409,7.716,38.827,11.537,58.249
				c1.072,5.447,0.482,6.238-5.181,5.473c-14.661-1.984-29.292-4.199-43.931-6.341c-19.414-2.84-38.813-5.785-58.244-8.511
				c-9.236-1.295-9.707-1.5-11.532-10.636c-4.007-20.063-7.999-40.128-11.972-60.198c-0.158-0.799-0.056-1.65-0.076-2.479
				c0.88-1.87,1.697-2.852,4.388-2.343c7.884,1.489,15.864,2.625,23.857,3.308C157.187,294.127,161.221,295.229,164.923,293.094z
				 M199.145,343.672c-0.154-8.967-3.44-14.525-9.551-18.213c-7.565-4.565-14.811-0.334-14.738,8.459
				c0.057,6.834,3.262,12.096,8.627,16.077c3.232,2.397,6.891,3.614,10.733,1.637C198.047,349.659,199.25,346.1,199.145,343.672z"/>
			<path fill-rule="evenodd" clip-rule="evenodd" fill="#E4BE8D" d="M264.035,247.034c-2.026,0.781-3.412-0.883-5.102-1.372
				c-4.119-1.19-7.923-1.35-10.647,2.719c-0.654,0.977-1.092,2.116-2.62,1.7c-1.403-0.382-1.525-1.556-1.798-2.704
				c-1.447-6.081-1.572-12.396-0.569-18.347c2.149-12.753,2.139-25.813,5.707-38.359c1.382-4.86,3.51-9.299,6.144-13.524
				c1.697-2.72,8.053-3.754,11.186-1.896c2.355,1.396,4.596,2.987,6.889,4.49c7.941,5.206,16.543,3.335,24.94,1.995
				c6.167-0.984,11.574,0.805,16.894,3.24c3.32,1.521,5.432,8.289,4.622,13.345c-0.948,5.917-3.311,11.893,1.024,17.552
				c0.814,1.063-0.549,2.122-0.801,3.215c-1.495,6.506-3.119,12.983-4.611,19.49c-1.472,6.416-5.743,10.989-9.885,15.734
				c-2.217,2.54-5.564,2.388-8.068,4.408c-1.463-6.314-6.047-8.297-11.53-8.654c-4.474-0.291-8.994,0.144-13.468-0.144
				c-2.963-0.191-6.34,0.188-8.361-2.935c2.094-0.17,4.188-0.341,6.143-0.5c-2.326-1.061-5.588-0.633-7.138-3.599
				c-1.538-2.947,0.453-5.633,0.864-8.719c-5.59,6.046-5.586,6.042-0.502,11.659C263.65,246.164,263.81,246.629,264.035,247.034z
				 M283.146,221.116c-1.479-0.222-1.931,0.805-1.967,1.901c-0.036,1.063,0.984,0.96,1.736,1.032
				c0.762,0.722,1.523,1.443,2.285,2.165c4.017,1.637,8.224,2.395,12.527,2.7c1.626,0.219,3.076-0.368,4.518-0.988
				c1.523-0.268,3.106-0.66,2.86-2.634c-0.33-2.64-1.825-4.733-4.397-5.408c-4.433-1.163-8.951-2.013-13.455-2.887
				c-3.556-0.689-4.742,0.886-3.758,4.277L283.146,221.116z M249.082,216.958c-1.174,1.43,0.203,1.889,0.979,2.577l-0.021-0.136
				c3.5,3.352,8.387,2.174,12.417,3.795c2.83,0.738,3.865-1.708,5.494-3.099c1.707-2.744,2.179-5.602-1.535-6.648
				c-4.238-1.194-8.689-1.779-13.09-2.188c-2.44-0.227-4.321,1.519-5.463,3.637c-0.567,1.053-0.88,2.551,1.349,2.11L249.082,216.958
				z M289.793,210.772c5.33-0.589,9.807,0.709,13.742,3.959c0.801,0.661,1.911,1.959,2.948,0.614
				c0.888-1.15-0.332-2.168-1.095-2.953c-4.072-4.194-9.115-5.987-14.884-5.486c-2.289,0.199-6.2-0.714-6.101,2.46
				C284.504,212.55,288.137,210.067,289.793,210.772z M258.3,200.619c-2.842,0.224-5.591,0.762-7.99,2.431
				c-0.69,0.48-1.416,1.061-1.118,2.001c0.347,1.094,1.333,0.861,2.048,0.542c5.547-2.476,10.666-1.322,15.627,1.667
				c0.961,0.579,2.204,1.352,2.92-0.24c0.57-1.27-0.306-2.203-1.291-2.928C265.465,201.861,262.059,200.717,258.3,200.619z
				 M263.99,232.48c1.906-1.381,2.504-3.067,1.825-5.17C265.207,229.034,264.598,230.757,263.99,232.48z"/>
			<path fill-rule="evenodd" clip-rule="evenodd" fill="#BAD4E4" d="M300.275,286.757c2.675,1.545,2.792-0.872,3.695-2.28
				c0.8-1.25-2.104-1.605-0.703-2.23c1.737-0.775,2.358,1.082,3.149,2.387c1.116,1.842-0.771,3.412-0.347,6.176
				c3.587-5.224,7.326-2.499,11.318-1.404c-4.13,2.205-6.854,5.281-7.688,9.93c2.876-0.597,2.876-0.597,4.367-2.773
				c4.674-6.822,13.439-6.838,17.006,0.611c7.291,15.228,13.959,30.756,20.711,46.235c1.329,3.047,0.823,6.3-1.637,8.809
				c-2.531,2.582-5.551,3.329-9.114,2.136c-11.124-3.723-22.277-7.361-33.439-10.969c-1.991-0.645-4.058-1.146-6.129-1.439
				c-4.459-0.632-5.121-3.315-3.979-7.009c0.633-2.046,1.403-4.052,2.172-6.052c1.5-3.9,4.088-4.742,7.895-3.055
				c9.632,4.273,20.053,6.128,29.946,9.604c1.625,0.571,3.043,0.885,4.911,0.217c-0.936-2.443-2.971-3.142-4.72-3.506
				c-9.203-1.918-17.122-5.234-18.515-17.143c-4.425,5.167,0.454,7.929,0.451,11.312c-4.449-0.173-8.077-2.736-12.167-3.793
				c-2.296-0.593-4.719-2.082-6.921,0.294c-1.267,1.368-1.709-0.035-2.123-0.741c-3.234-5.522-6.154-11.151-3.936-17.865
				c0.83-2.513,0.006-4.39-2.417-4.931c-1.351-0.303-3.826-0.447-3.138,2.521l-0.153,0.147c-2.905-0.54-2.372,2.017-2.999,3.427
				c-1.928,4.34-6.784,5.77-9.699,2.777c-0.001,0-0.038-0.102-0.038-0.102c0.406-0.048,0.813-0.095,1.22-0.143
				c-0.07-0.29-0.139-0.579-0.209-0.868l-0.012,0.011c0.41-0.047,0.818-0.095,1.228-0.143c-0.071-0.29-0.142-0.581-0.214-0.872
				l-0.032,0.025c1.313,0.926,1.665-0.039,2.007-1.021l0.002-0.002c0.688,0.017,1.039-0.301,1.006-1.005l-0.001,0.001
				c0.705,0.041,1.065-0.264,0.999-0.997l0.011-0.014c1.339-0.447,2.128-1.118,1.035-2.552
				C289.795,297.137,294.91,291.789,300.275,286.757z"/>
			<path fill-rule="evenodd" clip-rule="evenodd" fill="#9C9599" d="M302.706,277.427c5.398-2.946,9.934-6.739,12.541-12.442
				c0.643-1.404,1.879-1.76,3.286-1.814c7.491-0.293,14.949-0.445,22.33,1.414c12.133,3.058,18.48,11.717,20.964,23.039
				c4.038,18.414,2.422,36.923-0.947,55.317c-0.336,1.833-1.475,2.611-3.012,2.788c-1.799,0.208-1.957-1.494-2.423-2.664
				c-5.844-14.659-12.744-28.852-19.055-43.302c-2.822-6.464-7.04-10.667-13.868-12.359c-2.405-0.597-4.693-1.688-7.107-2.229
				c-3.289-0.734-6.262-1.461-8.012-4.97C306.744,278.881,304.425,278.387,302.706,277.427z"/>
			<path fill-rule="evenodd" clip-rule="evenodd" fill="#BAD4E4" d="M275.938,337.013c4.953,2.014,10.111,1.478,15.231,1.14
				c2.171-0.144,4.052-0.332,3.72,2.789c-0.229,2.152,1.295,2.715,3.023,3.204c4.744,1.343,9.386,3.146,14.198,4.124
				c5.487,1.115,6.211,3.688,5.292,8.963c-0.753,4.32-2.399,4.283-5.582,3.764c-12.596-2.053-25.208-4.011-37.814-6.005
				C274.167,348.947,273.531,342.816,275.938,337.013z"/>
			<path fill-rule="evenodd" clip-rule="evenodd" fill="#9C9599" d="M263.016,355.953c13.019,2.195,25.977,4.908,39.074,6.426
				c11.195,1.297,22.215,3.633,33.424,4.769c7.398,0.749,14.743,2.034,22.105,3.126c0.995,0.148,2.026,0.609,1.945,1.858
				c-0.076,1.173-1.041,1.57-2.076,1.776c-4.757,0.947-9.473,0.429-14.197-0.311c-3.843-0.602-7.702-1.096-11.555-1.637
				c-0.08,0.449-0.16,0.899-0.24,1.349c7.19,1.322,14.38,2.645,21.57,3.967c-0.042,0.308-0.084,0.614-0.126,0.922
				c-8.086-1.061-16.172-2.12-24.258-3.181c3.678,3.218,8.602,1.996,12.333,4.968c-6.296-0.715-12.605-1.335-18.886-2.176
				c-4.746-0.636-9.448-1.594-14.183-2.328c-2.615-0.405-4.218-1.271-3.739-4.459c0.802-5.334-2.577-6.624-7.084-7.263
				c-12.126-1.718-24.206-3.751-36.304-5.659c1.153-0.195,2.23-0.468,2.084-2.01L263.016,355.953z M328.967,372.141
				c-1.533-1.377-2.704-1.313-4.34-0.693C326.096,372.024,327.087,372.869,328.967,372.141z"/>
			<path fill-rule="evenodd" clip-rule="evenodd" fill="#E4BE8D" d="M288.926,301.797c2.157-0.215,3.844-0.04,3.013,2.925
				c-1.821,6.505,0.899,12.005,3.911,17.466c3.827,6.938-0.07,13.815-7.955,13.796c-4.045-0.01-8.143,0.751-12.051-1.854
				c-3.345-2.229-1.088-6.042-3.522-8.072c1.161-1.57,2.27,1.028,3.216-0.428c0.02-0.091,0.1-0.321,0.066-0.339
				c-3.604-1.911-2.504-5.509-3.322-8.5c-0.485-1.778-1.058-3.454,0.41-4.35c1.461-0.892,3.457-0.579,5.127,0.44
				c6.83,4.169,8.293,3.521,9.748-4.268c0.416-2.22,0.808-4.444,1.208-6.668C288.772,301.944,288.926,301.797,288.926,301.797z"/>
			<path fill-rule="evenodd" clip-rule="evenodd" fill="#E4BE8D" d="M300.275,286.757c-5.365,5.032-10.48,10.38-17.201,13.713
				c-0.252,0.888-2.104,1.126-1.034,2.551l-0.011,0.014c-0.412,0.045-0.825,0.09-1.238,0.135c0.08,0.288,0.16,0.575,0.239,0.862
				l0.001-0.001c-0.358-0.018-0.717-0.035-1.076-0.053c0.023,0.353,0.047,0.705,0.07,1.058c0,0-0.002,0.002-0.001,0.001
				c-1.34-0.977-1.707-0.043-2.008,1.021l0.032-0.025c-0.729-0.053-1.094,0.26-1.014,1.015l0.012-0.011
				c-0.758-0.085-1.097,0.251-1.011,1.011c0,0,0.037,0.102,0.038,0.102c-3.959,2.404-2.861-2.89-4.986-3.277
				c-0.355-2.902-0.711-5.805-1.067-8.707c0.962-10.049,0.942-10.15,11.026-11.977c5.212-0.943,10.145-2.805,15.527-4.306
				C296.721,282.863,297.357,285.492,300.275,286.757z"/>
			<path fill-rule="evenodd" clip-rule="evenodd" fill="#E4BE8D" d="M321.403,252.02c-2.922,0.127-5.05-0.59-3.475-4.837
				c1.085-2.927,1.594-6.071,2.317-9.127c1.474-6.222,6.329-9.359,11.45-11.907c3.676-1.829,6.108,0.552,7.039,3.987
				C340.91,238.16,330.133,252.033,321.403,252.02z M328.135,233.127c4.916-0.122,2.042,4.046,3.298,5.977
				c3.363-3.063-1.108-6.732,0.954-9.979c-2.038,0.783-3.764,1.643-4.631,3.594c-1.776,0.677-2.513,1.979-2.302,4.033
				C326.574,235.602,327.785,234.702,328.135,233.127z M335.445,228.564c-0.111-0.085-0.231-0.25-0.332-0.238
				c-0.265,0.029-0.521,0.135-0.779,0.211c0.109,0.088,0.227,0.258,0.325,0.248C334.927,228.756,335.186,228.651,335.445,228.564z"
				/>
			<path fill-rule="evenodd" clip-rule="evenodd" fill="#E4BE8D" d="M284.879,259.815c2.102-0.187,3.423-2.253,5.59-2.111
				c0.511,7.25-8.432,16.78-15.697,16.429c-1.119-0.055-2.63-0.173-3.256-0.883c-3.193-3.621-6.488-4.564-10.806-1.767
				c-1.473,0.954-3.138-0.509-4.375-1.642c-4.144-3.794-6.275-13.188-4.333-18.923c3.17,0.138,1.854,4.892,5.099,4.955L257.068,256
				c-1.424,0.768-0.393,1.726-0.061,2.443c3.451,7.465,17.795,10.68,24.734,5.474c1.321-0.991,3.307-1.703,3.195-3.958
				L284.879,259.815z"/>
			<path fill-rule="evenodd" clip-rule="evenodd" fill="#9C9599" d="M301.015,367.571c-13.345,3.778-25.965,7.303-38.546,10.962
				c-2.087,0.606-3.366,0.89-3.869-1.85c-0.396-2.154-0.357-3.389,2.186-3.934c5.352-1.146,10.634-2.604,15.959-3.873
				c1.26-0.3,2.493-0.529,4.182-2.184c-6.598-0.907-12.428-1.722-18.262-2.498c-0.818-0.109-1.758,0.199-2.474-0.095
				c-1.7-0.696-4.998-0.423-4.438-2.87c0.596-2.602,3.282-0.652,4.991-0.4c11.619,1.709,23.221,3.531,34.833,5.29
				C297.189,366.364,298.89,366.191,301.015,367.571z"/>
			<path fill-rule="evenodd" clip-rule="evenodd" fill="#9C9599" d="M202.663,382.61c-7.875-1.283-15.671-2.521-23.454-3.841
				c-2.169-0.368-2.285-2.071-2.087-3.838c0.175-1.565,1.256-1.817,2.515-1.615c7.626,1.228,15.231,2.592,22.876,3.683
				c3.089,0.44,2.434,2.758,2.598,4.495C205.309,383.593,203.421,382.19,202.663,382.61z"/>
			<path fill-rule="evenodd" clip-rule="evenodd" fill="#9C9599" d="M231.557,381.132c7.814,1.134,14.837,2.159,21.863,3.166
				c2.117,0.304,2.709,1.656,2.504,3.553c-0.262,2.433-1.814,1.596-3.305,1.397c-6.893-0.913-13.792-1.792-20.708-2.509
				c-2.084-0.216-2.97-1.038-2.936-3.08C229.015,381.287,230.506,381.025,231.557,381.132z"/>
			<path fill-rule="evenodd" clip-rule="evenodd" fill="#9C9599" d="M222.516,386.129c-4.11-1.38-8.475-2.062-12.869-2.669
				c-1.881-0.26-2.673-1.855-2.472-3.729c0.238-2.206,1.971-1.924,3.408-1.753c4.25,0.506,8.482,1.169,12.731,1.688
				c2.625,0.321,3.738,1.719,3.556,4.322C226.645,387.234,223.982,385.065,222.516,386.129z"/>
			<path fill-rule="evenodd" clip-rule="evenodd" fill="#9C9599" d="M171.674,377.955c-3.125-0.424-6.249-0.824-9.367-1.27
				c-2.687-0.385-4.452-1.929-4.05-4.674c0.512-3.494,3.009-1.365,4.687-1.184c3.125,0.339,6.227,0.899,9.35,1.265
				c2.605,0.304,2.528,2.174,2.554,4.04C174.881,378.651,173.044,377.894,171.674,377.955z"/>
			<path fill-rule="evenodd" clip-rule="evenodd" fill="#BAD4E4" d="M164.923,293.094c-3.702,2.135-7.736,1.033-11.5,0.713
				c-7.993-0.683-15.974-1.818-23.857-3.308c-2.691-0.509-3.508,0.473-4.388,2.343c-0.86-4.01,0.911-4.938,4.642-4.408
				C141.505,290.097,153.219,291.557,164.923,293.094z"/>
			<path fill-rule="evenodd" clip-rule="evenodd" fill="#BAD4E4" d="M257.101,255.873c0.093-1.253,0.286-2.273,1.999-1.568
				c7.457,3.064,15.342,3.52,23.255,3.576c1.604,0.011,2.182,0.639,2.525,1.934c-0.001,0.001,0.058,0.145,0.058,0.146
				c-9.646,1.192-19.044,0.626-27.869-3.96L257.101,255.873z"/>
			<path fill-rule="evenodd" clip-rule="evenodd" fill="#9C9599" d="M156.346,375.524c-3.777-0.615-7.517-1.074-11.179-1.885
				c-1.782-0.395-3.773-1.894-3.429-3.623c0.397-1.992,2.738-1.939,4.611-1.6c1.291,0.235,2.59,0.754,3.864,0.693
				C154.566,368.904,156.625,370.813,156.346,375.524z"/>
			<path fill-rule="evenodd" clip-rule="evenodd" fill="#9C9599" d="M273.48,367.899c-4.524,1.296-9,2.814-13.589,3.816
				c-3.684,0.805-2.54-2.582-3.028-4.332c-0.689-2.47,0.891-2.812,2.818-2.495c4.549,0.747,9.094,1.527,13.641,2.295
				C273.375,367.422,273.428,367.66,273.48,367.899z"/>
			<path fill-rule="evenodd" clip-rule="evenodd" fill="#9C9599" d="M275.938,337.013c-2.406,5.804-1.771,11.935-1.932,17.979
				c-1.76-0.017-3.607,0.596-5.187-0.72c6.603-0.303,4.552-5.66,3.786-8.388c-1.182-4.21-0.479-8.087-0.295-12.118
				C273.52,334.849,274.729,335.931,275.938,337.013z"/>
			<path fill-rule="evenodd" clip-rule="evenodd" fill="#9C9599" d="M254.014,352.013c2.725,0.408,5.448,0.817,8.173,1.227
				c-1.47,1.438,0.374,1.864,0.829,2.714c0,0-0.111,0.138-0.11,0.138c-2.676,0.437-5.52-2.932-8.07,0.354
				C253.892,355.092,254.133,353.519,254.014,352.013z"/>
			<path fill-rule="evenodd" clip-rule="evenodd" fill="#E4BE8D" d="M254.835,356.445c2.551-3.286,5.395,0.082,8.07-0.354
				c0.146,1.542-0.932,1.814-2.085,2.01C258.83,357.53,256.309,358.883,254.835,356.445z"/>
			<path fill-rule="evenodd" clip-rule="evenodd" fill="#FEFEFE" d="M248.012,318.141c4.392,0.142,8.895-0.866,13.121,1.152
				c-4.342-0.842-8.729-0.163-13.078-0.447C247.799,318.624,247.785,318.39,248.012,318.141z"/>
			<path fill-rule="evenodd" clip-rule="evenodd" fill="#9C9599" d="M350.801,380.201c-2.066,0.608-4.248,1.198-6.196-0.59
				C346.67,379.808,348.735,380.005,350.801,380.201z"/>
			<path fill-rule="evenodd" clip-rule="evenodd" fill="#654027" d="M262.372,294.355c0.692,1.803-2.679,6.131,3.181,4.879
				c0.87-0.186,0.596,2.232,0.315,3.453c-5.921-1.061-6.384-4.625-4.312-9.342C261.828,293.684,262.101,294.02,262.372,294.355z"/>
			<path fill-rule="evenodd" clip-rule="evenodd" fill="#654027" d="M261.557,293.346c0.316-0.396,0.773-0.639,1.071-0.157
				c0.15,0.243-0.157,0.769-0.257,1.167C262.101,294.02,261.828,293.684,261.557,293.346z"/>
			<path fill-rule="evenodd" clip-rule="evenodd" fill="#FEFEFE" d="M199.145,343.672c0.105,2.428-1.098,5.987-4.929,7.96
				c-3.842,1.978-7.5,0.761-10.733-1.637c-5.365-3.981-8.57-9.243-8.627-16.077c-0.072-8.793,7.173-13.024,14.738-8.459
				C195.705,329.146,198.991,334.705,199.145,343.672z"/>
			<path fill-rule="evenodd" clip-rule="evenodd" fill="#654027" d="M283.496,221.275c-0.984-3.392,0.202-4.966,3.758-4.277
				c4.504,0.874,9.022,1.724,13.455,2.887c2.572,0.675,4.067,2.768,4.397,5.408c0.246,1.974-1.337,2.366-2.86,2.635
				c0.759-2.61,0.466-4.744-3.52-6.104c1.515,3.033-1.273,4.61-0.998,7.091c-4.304-0.305-8.511-1.063-12.528-2.699
				c1.128-0.91,3.502,1.37,3.852-1.486c0.185-1.508,0.945-3.818,0.278-4.378c-1.403-1.18-3.393-0.55-4.895,0.782
				C284.236,221.309,283.814,221.233,283.496,221.275z"/>
			<path fill-rule="evenodd" clip-rule="evenodd" fill="#654027" d="M262.457,223.193c-4.029-1.621-8.916-0.443-12.415-3.795
				c0.638,0.151,1.298,0.491,1.907,0.416c1.256-0.154,3.477,1.28,3.516-0.945c0.028-1.539,1.49-3.601,0.057-4.542
				c-1.365-0.896-3.54-0.914-4.981,0.708c-0.522,0.587-0.89,1.311-1.328,1.972c-2.229,0.441-1.916-1.058-1.349-2.11
				c1.142-2.119,3.022-3.864,5.463-3.637c4.4,0.408,8.852,0.993,13.09,2.188c3.714,1.047,3.242,3.904,1.536,6.648
				c-1.878-0.765-0.813-4.049-3.861-4.138C265.753,218.93,261.563,220.364,262.457,223.193z"/>
			<path fill-rule="evenodd" clip-rule="evenodd" fill="#654027" d="M289.793,210.772c-1.656-0.706-5.289,1.778-5.389-1.406
				c-0.1-3.174,3.812-2.261,6.101-2.46c5.769-0.501,10.812,1.292,14.884,5.486c0.763,0.784,1.982,1.803,1.095,2.953
				c-1.037,1.345-2.147,0.047-2.948-0.614C299.6,211.481,295.123,210.183,289.793,210.772z"/>
			<path fill-rule="evenodd" clip-rule="evenodd" fill="#654027" d="M258.299,200.621c3.76,0.097,7.166,1.241,10.197,3.471
				c0.985,0.725,1.861,1.658,1.291,2.928c-0.716,1.592-1.959,0.819-2.92,0.24c-4.961-2.989-10.08-4.143-15.627-1.667
				c-0.716,0.319-1.702,0.552-2.048-0.542c-0.298-0.94,0.428-1.521,1.118-2.001C252.709,201.381,255.458,200.843,258.299,200.621z"
				/>
			<path fill-rule="evenodd" clip-rule="evenodd" fill="#654027" d="M264.035,247.034c-0.226-0.405-0.385-0.871-0.688-1.206
				c-5.084-5.616-5.088-5.612,0.502-11.659c-0.411,3.086-2.402,5.772-0.864,8.719c1.55,2.966,4.812,2.538,7.138,3.599
				c-1.954,0.159-4.049,0.33-6.143,0.5C263.98,246.988,264.035,247.034,264.035,247.034z"/>
			<path fill-rule="evenodd" clip-rule="evenodd" fill="#FEFEFE" d="M249.212,217.006c0.438-0.661,0.806-1.385,1.328-1.972
				c1.441-1.622,3.616-1.604,4.981-0.708c1.434,0.942-0.028,3.004-0.057,4.542c-0.039,2.226-2.26,0.791-3.516,0.945
				c-0.609,0.075-1.27-0.265-1.907-0.416c-0.001,0,0.019,0.136,0.019,0.136c-0.06-0.96,0.482-2.149-0.979-2.577L249.212,217.006z"/>
			<path fill-rule="evenodd" clip-rule="evenodd" fill="#FEFEFE" d="M283.496,221.275c0.318-0.042,0.74,0.034,0.939-0.143
				c1.502-1.333,3.491-1.962,4.895-0.782c0.667,0.56-0.094,2.87-0.278,4.378c-0.35,2.856-2.724,0.577-3.852,1.486
				c-0.761-0.722-1.522-1.444-2.284-2.166c-0.098-0.992,1.342-1.862,0.23-2.933L283.496,221.275z"/>
			<path fill-rule="evenodd" clip-rule="evenodd" fill="#BAD4E4" d="M262.457,223.193c-0.895-2.83,3.296-4.263,1.634-7.237
				c3.048,0.089,1.983,3.373,3.861,4.138C266.322,221.485,265.287,223.931,262.457,223.193z"/>
			<path fill-rule="evenodd" clip-rule="evenodd" fill="#FEFEFE" d="M297.729,228.914c-0.275-2.481,2.513-4.058,0.998-7.091
				c3.985,1.361,4.278,3.494,3.52,6.104C300.805,228.546,299.354,229.133,297.729,228.914z"/>
			<path fill-rule="evenodd" clip-rule="evenodd" fill="#654027" d="M263.99,232.48c0.607-1.724,1.217-3.447,1.825-5.17
				C266.494,229.413,265.896,231.099,263.99,232.48z"/>
			<path fill-rule="evenodd" clip-rule="evenodd" fill="#654027" d="M283.146,221.116c1.111,1.07-0.328,1.941-0.23,2.933
				c-0.752-0.071-1.772,0.031-1.736-1.032C281.216,221.921,281.668,220.895,283.146,221.116z"/>
			<path fill-rule="evenodd" clip-rule="evenodd" fill="#654027" d="M249.082,216.958c1.462,0.427,0.919,1.616,0.979,2.577
				C249.284,218.847,247.907,218.387,249.082,216.958z"/>
			<path fill-rule="evenodd" clip-rule="evenodd" fill="#654027" d="M282.04,303.021c-1.07-1.425,0.782-1.663,1.034-2.551
				C284.168,301.902,283.379,302.573,282.04,303.021z"/>
			<path fill-rule="evenodd" clip-rule="evenodd" fill="#654027" d="M278.017,306.058c0.301-1.064,0.668-1.998,2.008-1.021
				C279.682,306.019,279.33,306.983,278.017,306.058z"/>
			<path fill-rule="evenodd" clip-rule="evenodd" fill="#654027" d="M277.035,307.047c-0.08-0.755,0.284-1.067,1.014-1.015
				c0.072,0.291,0.143,0.582,0.214,0.872C277.854,306.952,277.445,307,277.035,307.047z"/>
			<path fill-rule="evenodd" clip-rule="evenodd" fill="#654027" d="M276.036,308.047c-0.086-0.76,0.253-1.096,1.011-1.011
				c0.07,0.289,0.139,0.578,0.209,0.868C276.85,307.952,276.442,307.999,276.036,308.047z"/>
			<path fill-rule="evenodd" clip-rule="evenodd" fill="#654027" d="M281.03,304.031c-0.079-0.287-0.159-0.574-0.239-0.862
				c0.413-0.045,0.826-0.09,1.238-0.135C282.096,303.768,281.735,304.072,281.03,304.031z"/>
			<path fill-rule="evenodd" clip-rule="evenodd" fill="#654027" d="M280.025,305.035c-0.023-0.353-0.047-0.705-0.07-1.058
				c0.359,0.018,0.718,0.035,1.076,0.053C281.064,304.734,280.713,305.052,280.025,305.035z"/>
			<path fill-rule="evenodd" clip-rule="evenodd" fill="#654027" d="M328.967,372.141c-1.88,0.729-2.871-0.116-4.34-0.693
				C326.263,370.828,327.434,370.764,328.967,372.141z"/>
			<path fill-rule="evenodd" clip-rule="evenodd" fill="#654027" d="M327.752,232.715c0.871-1.947,2.597-2.807,4.635-3.59
				c-2.063,3.247,2.409,6.916-0.954,9.979c-1.256-1.931,1.618-6.098-3.298-5.977C328.001,232.996,327.873,232.858,327.752,232.715z"
				/>
			<path fill-rule="evenodd" clip-rule="evenodd" fill="#654027" d="M328.135,233.127c-0.35,1.574-1.561,2.474-2.681,3.625
				c-0.211-2.054,0.525-3.355,2.3-4.035C327.873,232.858,328.001,232.996,328.135,233.127z"/>
			<path fill-rule="evenodd" clip-rule="evenodd" fill="#654027" d="M335.447,228.57c-0.262,0.081-0.521,0.186-0.788,0.214
				c-0.099,0.011-0.216-0.16-0.325-0.248c0.259-0.076,0.515-0.182,0.779-0.211C335.214,228.315,335.334,228.479,335.447,228.57z"/>
			<path fill-rule="evenodd" clip-rule="evenodd" fill="#654027" d="M257.068,256c8.825,4.586,18.223,5.152,27.869,3.96
				c0.111,2.254-1.874,2.966-3.195,3.957c-6.939,5.206-21.283,1.991-24.734-5.474C256.676,257.726,255.645,256.768,257.068,256z"/>
		</g>
	</g>
</g>
<g id="new" display="none">
	<g display="inline">
		<path fill-rule="evenodd" clip-rule="evenodd" fill="#FAFAFA" stroke="#000000" stroke-miterlimit="10" d="M251.744,660.569
			c0,0-15.707,14.978-3.349,20.387c18.328,8.021,64.02,21.635,66.396,6.656c2.376-14.978,1.264-22.771-33.404-27.043
			S274.729,651,274.729,651L251.744,660.569z"/>
		<path fill-rule="evenodd" clip-rule="evenodd" fill="#FAFAFA" stroke="#000000" stroke-miterlimit="10" d="M290.555,681.788
			c0,0,28.276,5.408,17.459-5.409"/>
		<path fill-rule="evenodd" clip-rule="evenodd" fill="#FAFAFA" stroke="#000000" stroke-miterlimit="10" d="M282.219,668.059
			c0,0-4.992,4.221-7.489,4.606"/>
		<path fill-rule="evenodd" clip-rule="evenodd" fill="#FAFAFA" stroke="#000000" stroke-miterlimit="10" d="M288.043,668.059
			c0,0-4.992,4.221-7.488,4.606"/>
		<path fill-rule="evenodd" clip-rule="evenodd" fill="#FAFAFA" stroke="#000000" stroke-miterlimit="10" d="M293.868,668.059
			c0,0-4.992,4.221-7.489,4.606"/>
		<path fill="#48826D" stroke="#000000" stroke-miterlimit="10" d="M248.396,680.956c18.328,8.021,64.02,21.635,66.396,6.656
			c0.014-0.088,0.027-0.175,0.041-0.263c-31.557,5.183-58.663-9.598-70.092-17.186C242.96,674.213,242.874,678.539,248.396,680.956z
			"/>
	</g>
	<g display="inline">
		<path fill-rule="evenodd" clip-rule="evenodd" fill="#FAFAFA" stroke="#000000" stroke-miterlimit="10" d="M149.338,654.088
			c0,0-14.918,14.226-3.181,19.362c17.407,7.618,60.802,20.547,63.059,6.322c2.256-14.226,1.2-21.626-31.726-25.685
			c-32.926-4.058-6.322-9.088-6.322-9.088L149.338,654.088z"/>
		<path fill-rule="evenodd" clip-rule="evenodd" fill="#FAFAFA" stroke="#000000" stroke-miterlimit="10" d="M186.197,674.24
			c0,0,26.855,5.137,16.582-5.137"/>
		<path fill-rule="evenodd" clip-rule="evenodd" fill="#FAFAFA" stroke="#000000" stroke-miterlimit="10" d="M178.28,661.201
			c0,0-4.742,4.008-7.112,4.375"/>
		<path fill-rule="evenodd" clip-rule="evenodd" fill="#FAFAFA" stroke="#000000" stroke-miterlimit="10" d="M183.813,661.201
			c0,0-4.742,4.008-7.113,4.375"/>
		<path fill-rule="evenodd" clip-rule="evenodd" fill="#FAFAFA" stroke="#000000" stroke-miterlimit="10" d="M189.344,661.201
			c0,0-4.742,4.008-7.112,4.375"/>
		<path fill="#48826D" stroke="#000000" stroke-miterlimit="10" d="M146.157,673.45c17.407,7.618,60.802,20.547,63.059,6.322
			c0.013-0.084,0.026-0.167,0.039-0.25c-29.971,4.922-55.715-9.115-66.569-16.321C140.995,667.046,140.913,671.155,146.157,673.45z"
			/>
	</g>
	<path display="inline" fill-rule="evenodd" clip-rule="evenodd" fill="#9E9D9D" stroke="#000000" stroke-miterlimit="10" d="
		M147.979,454.25c0,0,27.922,67.178,18.472,97.178s-15.796,99.979-15.796,99.979L186.726,657c0,0,41.459-110.904,28.131-151.984
		S259.84,539.777,263,562c2.893,20.343-16.903,100.5-16.903,100.5H289c0,0,22-97,16-114s-32.563-108.146-32.563-108.146
		L147.979,454.25z"/>
	<path display="inline" fill-rule="evenodd" clip-rule="evenodd" fill="#48826D" stroke="#000000" stroke-miterlimit="10" d="
		M195.781,279.928c0,0,21.513,0.823,25.145,9.401S231,449,231,449S95.755,481,92.63,459.151
		c-14.961-104.583,0.905-168.584,12.256-173.259s31.717-10.354,31.717-10.354s2.284-6.378,7.617-7.093s50.751,2.254,50.751,2.254
		L195.781,279.928z"/>
	<path display="inline" fill-rule="evenodd" clip-rule="evenodd" fill="none" stroke="#000000" stroke-miterlimit="10" d="
		M201.053,307c5.23,23.335,0,60,0,60"/>
	<path display="inline" fill-rule="evenodd" clip-rule="evenodd" fill="none" stroke="#000000" stroke-miterlimit="10" d="
		M154.886,285.893c0,0,21.979-16.478,23.129,13.442"/>
	<path display="inline" fill-rule="evenodd" clip-rule="evenodd" fill="#F9B77A" d="M192.497,274.608l9.636,6.488l11.405-16.938
		c-0.885-0.476-1.026-0.667-1.127-0.964c-2.065,0.899-4.503,1.114-6.923,0.45C202.492,268.198,197.383,272.401,192.497,274.608z"/>
	<path display="inline" fill-rule="evenodd" clip-rule="evenodd" fill="#141719" d="M204.965,272.006
		c1.553,0.52,3.067,1.095,4.508,1.776c1.16,0.549,2.308,1.095,3.451,1.631c-2.551-0.963-5.066-2.025-7.535-3.232
		C205.238,272.106,205.103,272.058,204.965,272.006z"/>
	<path display="inline" fill-rule="evenodd" clip-rule="evenodd" fill="#48826D" stroke="#000000" stroke-miterlimit="10" d="
		M128.015,330.25C108.678,391,250.018,447,250.018,447s-5.196,34.898-13.454,32.133C60,420,90.269,337,90.269,337"/>
	<g display="inline">
		<path fill="#F9B77A" stroke="#000000" stroke-miterlimit="10" d="M303.495,450.226c2.081-5.517,3.112-10.381,5.415-10.11
			c2.302,0.271,3.608,5.235,2.921,11.092c-0.103,0.874-0.248,1.716-0.423,2.521c2.656-0.195,5.479-0.154,8.399,0.188
			c13.555,1.593,24.544,2.885,23.001,16.006c-1.542,13.12-12.531,11.829-26.087,10.235c-13.555-1.593-23.852-8.758-23.001-16.005
			C294.188,460.186,300.313,458.667,303.495,450.226z"/>
		<path fill="#F9B77A" stroke="#000000" stroke-miterlimit="10" d="M342.385,463.613c0,0-10.438-5.141-16.521-3.978"/>
		<path fill="#F9B77A" stroke="#000000" stroke-miterlimit="10" d="M342.809,469.922c0,0-11.531-5.738-15.745-4.512"/>
		<path fill="#F9B77A" stroke="#000000" stroke-miterlimit="10" d="M340.935,475.962c0,0,0.042-3.77-11.79-4.29"/>
	</g>
	<path display="inline" fill-rule="evenodd" clip-rule="evenodd" fill="#F9B77A" stroke="#000000" stroke-miterlimit="10" d="
		M151,263c0,0-18.053,38,16,41s30-29,30-29L151,263z"/>
	<path display="inline" fill-rule="evenodd" clip-rule="evenodd" fill="#F9B77A" d="M144.995,172.385
		c-2.333,3.322-6.167,28.142-7.778,31.843c-3.386,7.75,10.268,7.173,10.572,15.154c0.009,0.343,0.043,0.668,0.101,0.996
		c0.024,0.161,0.048,0.322,0.086,0.48c0.046,0.236,0.163,0.386,0.228,0.611c0.065,0.225,0.108,0.482,0.258,0.583
		c0.008,0.005,0.008,0.005,0.008,0.005c0.315,0.213,0.293,0.945,0.497,1.358c0.098,0.212,0.175,0.456,0.288,0.666
		c0.391,0.745,0.812,1.48,1.241,2.204c0.639,1.056,1.246,2.143,1.667,3.307c0.366,0.995,0.909,0.958,1.499,0.62
		c-0.186,3.25,1.056,6.561,4.314,9.044c-1.198,3.98-1.449,7.971-0.946,11.915c0.066,0.491,0.142,0.989,0.216,1.486
		c0.068,0.382,0.141,0.759,0.223,1.139c0.176,0.794,0.375,1.591,0.596,2.392c0.112,0.388,0.241,0.788,0.36,1.183
		c0.129,0.399,0.263,0.791,0.405,1.188c2.38,6.689,5.856,8.331,13.065,8.135c2.915-0.088,6.774,0.932,7.693,4.528
		c1.151,4.501,4.063,5.314,7.855,4.879c0.379-0.047,0.756-0.106,1.152-0.189c0.305-0.06,0.607-0.134,0.907-0.221
		c0.145-0.035,0.281-0.076,0.417-0.117c0.565-0.162,1.133-0.358,1.7-0.591c0.194-0.075,0.386-0.163,0.572-0.242
		c0.099-0.041,0.206-0.091,0.306-0.132c4.886-2.207,8.73,2.665,11.724-1.89c2.422,0.666,8.657-4.098,9.217-3.841
		c1.548,0.693,2.514-3.878,4.146-5.226c6.221-5.119,11.953-10.965,15.673-17.887c7.716-14.359,17.537-27.493,24.314-42.375
		c2.972-6.509,5.906-13.033,6.328-20.284c0.59-10.151-3.896-15.197-13.877-14.841c-11.87,0.422-20.614-5.177-28.384-13.241
		c-4.616-4.783-9.055-9.739-14.944-13.113c-10.26-5.871-21.668-3.306-28.703,7.75c-2.504,5.994-7.363,11.957-13.543,17.355
		C159.379,171.428,148.926,166.797,144.995,172.385z"/>
	<path display="inline" fill-rule="evenodd" clip-rule="evenodd" fill="#F9B77A" d="M150.852,226.556l-9.271,13.769l15.382,10.357
		c0.018,0.169,0.035,0.324,0.067,0.491c-0.503-3.944-0.252-7.934,0.945-11.914c-3.258-2.483-4.502-5.792-4.315-9.041
		c-0.59,0.338-0.952,0.504-1.318-0.49C151.919,228.563,151.392,227.545,150.852,226.556z"/>
	<path display="inline" fill-rule="evenodd" clip-rule="evenodd" fill="#C9C9C9" d="M175.82,114.831
		c-0.328,0.294-0.655,0.588-0.982,0.882c1.019,0.378,0.667-0.625,0.972-0.976C175.807,114.727,175.82,114.831,175.82,114.831z"/>
	<g display="inline">
		<path fill="#592C03" d="M192.688,107.224c28.454-0.685,51.101,12.287,67.959,34.875c10.155,13.601,13.317,29.353,7.331,45.298
			c-7.28,19.396-16.759,37.678-28.261,54.781c-0.542-0.536-1.151-1.046-1.853-1.519c-0.436-0.293-0.872-0.542-1.307-0.769
			c7.068-12.136,15.17-23.669,21.013-36.5c2.972-6.509,5.906-13.033,6.328-20.284c0.59-10.151-3.896-15.197-13.877-14.841
			c-11.87,0.422-20.614-5.177-28.384-13.241c-4.616-4.783-9.055-9.739-14.944-13.113c-10.26-5.871-21.668-3.306-28.703,7.75
			c-2.504,5.994-7.363,11.957-13.543,17.355c-5.067,4.412-15.239,11.009-19.17,16.596c-0.919,1.31-1.46,3.06-1.876,4.924
			c-0.145-0.106-0.275-0.216-0.426-0.318c-2.626-1.769-5.275-2.282-7.7-1.928c0.809-9.053,1.349-18.524,0.958-19.392
			c1.919-5.685,6.612-21.389,9.215-26.792C155.033,120.23,170.508,107.757,192.688,107.224z"/>
	</g>
	<g display="inline">
		<path fill="#3F1B00" d="M144.036,186.206c-1.128,3.354-1.35,7.691-2.602,10.565c-3.386,7.75,6.052,14.629,6.356,22.61
			c0.009,0.343,0.968,3.63,1.177,4.034c0.098,0.212,2.774,5.012,3.196,6.176c0.366,0.995,4.365,17.635,4.868,21.579
			c0.066,0.491,0.142,0.989,0.216,1.486c0.068,0.382,0.141,0.759,0.223,1.139c0.176,0.794,0.375,1.591,0.596,2.392
			c0.112,0.388,0.241,0.788,0.36,1.183c0.129,0.399,0.263,0.791,0.405,1.188c2.38,6.689,5.856,8.331,13.065,8.135
			c2.915-0.088,6.774,0.932,7.693,4.528c1.151,4.501,4.063,5.314,7.855,4.879c0.379-0.047,0.756-0.11,1.152-0.189
			c0.303-0.063,0.607-0.134,0.907-0.221c0.145-0.035,0.281-0.076,0.417-0.117c0.565-0.162,1.133-0.358,1.7-0.591
			c0.194-0.075,0.386-0.163,0.572-0.242c0.099-0.041,0.206-0.091,0.306-0.132c4.886-2.207,4.352-2.112,9.45-4.034
			c2.349-0.887,8.498-0.607,15.636-6.922c6.035-5.337,11.953-10.965,15.673-17.887c2.046-3.807,4.242-7.527,6.486-11.218
			c0.412,0.361,0.847,0.712,1.336,1.041c0.726,0.49,1.454,0.876,2.181,1.183c-5.234,8.198-10.915,16.141-17.046,23.807
			c-7.038,8.786-14.199,17.612-25.08,22.1c-8.393,3.462-26.518,7.569-26.838,7.559c-4.468-0.007-11.286-3.077-17.366-10.716
			c-6.039-7.574-21.533-26.784-24.49-32.813c-1.241-3.849-2.484-7.124-3.285-10.482c-1.873-7.854,1.399-25.734,3.752-33.086
			c0.786-0.956,1.922-11.125,2.675-20.459C137.767,184.917,140.823,186.25,144.036,186.206z"/>
	</g>
	<g display="inline">
		<path fill="#F9B77A" stroke="#000000" stroke-miterlimit="10" d="M142.274,164.226c0.59,1.444-1.475,13.888-2.126,19.495
			c-0.748,6.431-3.175,8.889-2.751,11.074c1.181,6.076-2.99,8.832-7.215,4.429c-1.018-1.061-2.116-2.311-2.5-3.667
			c-2.958-10.415-3.271-20.611,2.322-28.946C135.32,159.682,139.945,158.535,142.274,164.226z"/>
		<path fill="#DF8F6B" d="M139.313,169.353c0.316,0.773-0.486,4.402-0.965,7.731c-0.877,0.188-2.54,0.644-2.593,2.758
			c-0.058,2.198,1.54,2.798,2.339,2.765c0.111,3.257-0.346,6.781-1.282,8.497c-1.887,3.455-2.701,4.304-5.495,1.393
			c-0.673-0.702-1.399-1.528-1.653-2.425c-1.956-6.888-2.163-13.63,1.535-19.141C134.716,166.347,137.774,165.589,139.313,169.353z"
			/>
		<path fill="none" stroke="#000000" stroke-miterlimit="10" d="M139.22,170.219c0,0-2.146-8.386-8.448,1.345"/>
	</g>
	<g display="inline">
		<path fill="#FFFFFF" stroke="#000000" stroke-miterlimit="10" d="M206.598,200.667c-2.715,7.279-8.331,4.274-15.624,1.553
			c-7.296-2.722-13.507-4.132-10.792-11.41c1.695-4.542,8.982-6.017,16.278-3.295C203.755,190.237,208.293,196.125,206.598,200.667z
			"/>
		<path fill="#944E00" d="M200.198,197.427c-1.346,3.607-5.359,5.44-8.965,4.096c-3.606-1.347-5.439-5.361-4.093-8.968
			c1.345-3.604,5.359-5.438,8.965-4.092C199.711,189.809,201.543,193.823,200.198,197.427z"/>
		<circle cx="192.766" cy="194.562" r="3.344"/>
		<circle fill="#FFFFFF" cx="193.011" cy="192.191" r="1.364"/>
		<g>
			<path fill="#592C03" d="M184.779,175.452c0.439,0.209,0.945,0.292,1.462,0.209c15.73-2.5,24.097,8.519,24.445,8.989
				c0.819,1.108,2.383,1.344,3.493,0.529c1.11-0.817,1.352-2.373,0.541-3.486c-0.418-0.57-10.438-13.96-29.263-10.97
				c-1.363,0.217-2.293,1.499-2.076,2.862C183.516,174.431,184.06,175.11,184.779,175.452z"/>
		</g>
	</g>
	<g display="inline">
		<path fill="#FFFFFF" stroke="#000000" stroke-miterlimit="10" d="M240.967,220.643c-4.116,6.589-9.018,2.523-15.62-1.599
			c-6.605-4.125-12.409-6.747-8.294-13.336c2.568-4.112,10.003-4.102,16.607,0.023C240.265,209.856,243.536,216.531,240.967,220.643
			z"/>
		<path fill="#944E00" d="M235.344,216.19c-2.04,3.266-6.339,4.26-9.603,2.223c-3.265-2.041-4.259-6.339-2.219-9.605
			c2.038-3.263,6.337-4.258,9.602-2.219C236.388,208.627,237.381,212.927,235.344,216.19z"/>
		<circle cx="228.634" cy="211.898" r="3.344"/>
		<circle fill="#FFFFFF" cx="229.347" cy="209.624" r="1.364"/>
		<g>
			<path fill="#592C03" d="M224.625,191.578c0.39,0.293,0.868,0.476,1.392,0.498c15.912,0.693,21.91,13.161,22.156,13.69
				c0.582,1.25,2.067,1.794,3.318,1.217c1.25-0.579,1.799-2.055,1.225-3.308c-0.295-0.642-7.438-15.764-26.481-16.594
				c-1.379-0.061-2.546,1.01-2.605,2.389C223.59,190.325,223.989,191.099,224.625,191.578z"/>
		</g>
	</g>
	<path display="inline" fill="none" stroke="#000000" stroke-miterlimit="10" d="M215.177,204.608c0,0-6.215,12.777-7.354,18.697
		c-1.141,5.919,1.022,29.814-18.715,9.841"/>
</g>
<g id="Ebene_5">
</g>
<g id="Ebene_4">
	<g>
		<polygon fill="#48826D" points="121.111,232.235 112.235,230.461 113.52,224.037 120.424,225.418 225.142,181.375 
			227.681,187.413 		"/>
	</g>
	<g>
		<g>
			<g>
				<path fill="#F9B77A" d="M103.002,287.697c0,0,1.881-18.227-1.107-40.948c-2.14-16.264-6.411-39.688-17.338-37.996
					c-26.192,4.058-21.766,55.334-21.766,55.334l-4.427,40.948L103.002,287.697z"/>
				<path d="M57.816,305.751l4.51-41.713c-0.183-2.021-4.163-51.668,22.158-55.747c0.396-0.061,0.792-0.092,1.178-0.092
					c10.427,0,14.523,21.967,16.697,38.49c2.962,22.515,1.127,40.875,1.109,41.057l-0.03,0.284L57.816,305.751z M85.662,209.135
					c-0.337,0-0.686,0.027-1.034,0.082c-25.46,3.944-21.415,54.324-21.371,54.832l-4.345,40.274l43.651-16.956
					c0.218-2.4,1.614-19.679-1.132-40.555C100.205,237.492,96.475,209.135,85.662,209.135z"/>
			</g>
			<g>
				<path fill="#F9B77A" d="M101.526,273.311c0,0,43.531-22.872,28.037-32.462c-15.493-9.592-35.783,17.708-35.783,17.708"/>
				<path d="M101.744,273.726l-0.435-0.829c0.307-0.161,30.748-16.276,31.117-26.731c0.069-1.972-0.948-3.581-3.109-4.919
					c-14.95-9.257-34.962,17.318-35.162,17.588l-0.751-0.56c0.838-1.128,20.727-27.531,36.406-17.825
					c2.438,1.51,3.633,3.442,3.552,5.748C132.974,257.192,103.019,273.055,101.744,273.726z"/>
			</g>
			<g>
				<path fill="#F9B77A" d="M100.42,224.985c0,0,6.639-16.232,10.698-2.213c4.058,14.019,2.583,15.125,8.484,13.65
					c5.902-1.477,5.166-51.277-23.24-25.086"/>
				<path d="M116.804,237.361c-2.35,0-2.802-1.778-4.136-7.022c-0.497-1.951-1.114-4.379-2-7.438
					c-0.995-3.438-2.236-5.292-3.587-5.364c-0.029-0.001-0.059-0.002-0.088-0.002c-2.473,0-5.264,5.486-6.14,7.626l-0.866-0.355
					c0.352-0.859,3.549-8.423,7.144-8.204c1.837,0.098,3.289,2.073,4.437,6.038c0.89,3.074,1.509,5.509,2.007,7.468
					c1.754,6.898,1.754,6.897,5.915,5.858c0.846-0.211,1.908-2.278,2.374-6.418c0.912-8.116-0.836-21.083-7.581-24.5
					c-4.46-2.258-10.381-0.026-17.603,6.631l-0.635-0.688c7.539-6.951,13.818-9.231,18.661-6.778
					c7.145,3.619,9.03,17.055,8.087,25.438c-0.225,1.996-0.974,6.697-3.077,7.222C118.493,237.182,117.553,237.361,116.804,237.361z
					"/>
			</g>
			<g>
				<path fill="#F9B77A" d="M94.885,217.239c0,0,6.64-16.232,10.698-2.214c4.059,14.019,2.583,15.125,8.486,13.649
					c5.902-1.475,5.165-51.276-23.242-25.084"/>
				<path d="M111.271,229.614c-2.351,0-2.803-1.778-4.137-7.022c-0.497-1.952-1.114-4.379-2-7.437
					c-0.995-3.437-2.235-5.292-3.586-5.364c-2.499-0.176-5.343,5.458-6.228,7.624l-0.867-0.354c0.352-0.86,3.584-8.409,7.144-8.205
					c1.838,0.098,3.289,2.073,4.437,6.039c0.889,3.072,1.509,5.508,2.006,7.466c1.756,6.9,1.757,6.897,5.916,5.86
					c0.846-0.212,1.908-2.279,2.373-6.419c0.913-8.115-0.835-21.082-7.58-24.499c-4.458-2.257-10.381-0.027-17.604,6.631
					l-0.634-0.688c7.539-6.952,13.817-9.232,18.661-6.778c7.145,3.619,9.03,17.054,8.087,25.438
					c-0.224,1.996-0.973,6.696-3.076,7.222C112.96,229.434,112.02,229.614,111.271,229.614z"/>
			</g>
			<g>
				<path fill="#F9B77A" d="M87.139,217.239c0,0,6.64-16.232,10.698-2.214c4.058,14.019,2.583,15.125,8.484,13.649
					c5.902-1.475,5.165-51.276-23.241-25.084"/>
				<path d="M103.523,229.614c-2.351,0-2.802-1.777-4.137-7.022c-0.496-1.952-1.114-4.38-1.999-7.437
					c-0.995-3.437-2.236-5.292-3.587-5.364c-2.478-0.163-5.342,5.458-6.229,7.624l-0.866-0.354c0.352-0.86,3.549-8.406,7.145-8.205
					c1.837,0.098,3.289,2.073,4.437,6.039c0.889,3.072,1.509,5.508,2.007,7.466c1.755,6.9,1.757,6.897,5.915,5.86
					c0.846-0.212,1.908-2.279,2.374-6.419c0.912-8.115-0.836-21.082-7.581-24.499c-4.459-2.257-10.382-0.027-17.603,6.631
					l-0.634-0.688c7.539-6.952,13.818-9.232,18.66-6.778c7.145,3.619,9.03,17.054,8.088,25.438
					c-0.225,1.996-0.974,6.696-3.077,7.222C105.213,229.434,104.272,229.614,103.523,229.614z"/>
			</g>
			<g>
				<path fill="#F9B77A" d="M57.626,302.456c0,0-3.32-93.703,16.601-96.653c38.221-5.663,29.144,23.609,23.241,25.085
					c-5.901,1.476-4.427,0.369-8.484-13.649c-4.059-14.019-10.698,2.212-10.698,2.212"/>
				<path d="M57.159,302.472c-0.136-3.843-3.104-94.154,17-97.132c22.554-3.34,27.771,5.468,28.872,11.016
					c1.373,6.913-2.426,14.23-5.449,14.986c-5.063,1.265-5.29,0.379-7.049-6.537c-0.497-1.951-1.115-4.379-1.999-7.436
					c-0.995-3.438-2.236-5.292-3.588-5.364c-2.478-0.143-5.342,5.458-6.228,7.625l-0.866-0.355c0.352-0.86,3.549-8.405,7.145-8.204
					c1.836,0.098,3.288,2.073,4.437,6.038c0.89,3.072,1.509,5.509,2.006,7.466c1.756,6.901,1.757,6.897,5.916,5.86
					c2.42-0.606,6.074-7.271,4.758-13.896c-1.037-5.222-6.028-13.496-27.817-10.273c-19.282,2.857-16.235,95.241-16.202,96.173
					L57.159,302.472z"/>
			</g>
		</g>
		<g>
			<g>
				<path fill="#48826D" d="M61.46,452.566l-7.383-139.271c-0.942-17.75,12.51-32.894,30.263-33.836
					c17.75-0.94,32.729,12.695,33.672,30.446l7.383,139.272c0.94,17.751-12.515,32.895-30.264,33.835
					C77.379,483.954,62.4,470.319,61.46,452.566z"/>
				<path d="M93.4,483.526c-17.253,0-31.488-13.587-32.407-30.935L53.61,313.319c-0.462-8.719,2.463-17.085,8.239-23.558
					c5.787-6.483,13.765-10.308,22.466-10.769c18.027-0.943,33.212,12.955,34.164,30.888l7.384,139.272
					c0.952,17.98-12.823,33.378-30.708,34.327C94.567,483.511,93.981,483.526,93.4,483.526z M86.07,279.882
					c-0.565,0-1.134,0.015-1.706,0.045c-8.45,0.448-16.198,4.162-21.817,10.459c-5.611,6.285-8.452,14.413-8.002,22.885
					l7.382,139.271c0.923,17.419,15.667,30.924,33.178,30.005c17.369-0.922,30.747-15.879,29.821-33.344l-7.383-139.272
					C116.65,293.08,102.825,279.882,86.07,279.882z"/>
			</g>
		</g>
		<g>
			<polygon fill="#48826D" points="203,480 110,480 110,426.686 147.767,417.327 203,426.686 			"/>
		</g>
		<g>
			<g>
				<g>
					<g>
						<path fill="none" d="M309.312,369.075c-20.189,0-74.711,3.277-96.91,4.668c22.642,1.2,77.938,4.214,87.359,5.478
							c1.842,0.246,3.908,0.531,6.084,0.838c0.326-0.156,0.7-0.336,1.113-0.539c-0.211-0.043-0.403-0.084-0.542-0.124
							c-0.747-1.852,9.139-6.148,12.099-9.194c-0.453-0.396-1.3-0.702-2.654-0.884C314.682,369.16,312.48,369.075,309.312,369.075z"
							/>
					</g>
				</g>
				<g>
					<g>
						<path fill="#48826D" d="M444.222,479.935c-12.37-35.167-30.018-67.131-40.843-71.588
							c-31.986-20.543-97.647-26.743-98.104-26.872l-0.556-0.195l-0.197-0.565c-0.006-0.02,0.501-0.259,1.32-0.656
							c-2.174-0.306-4.241-0.592-6.082-0.838c-9.423-1.265-64.718-4.277-87.36-5.478c-4.162,0.258-7.192,0.456-8.642,0.549
							l-1.813,20.618l-0.98,0.039c-0.375,0.013-29.912,1.494-46.014,11.2c2.558,1.987,4.283,5.021,4.076,8.373
							c-1.145,18.536-3.68,37.166-7.871,55.264c-1.354,5.848-6.004,8.086-10.593,7.66c-0.021,0.828-0.041,1.656-0.06,2.489h43.697
							c0.817-9.091,2.061-17.869,3.864-25.921l2.183,0.49c-1.771,7.897-2.996,16.511-3.807,25.431H444.222z"/>
						<path d="M200.984,395.416l1.392-0.055l1.814-20.628l0.37-0.025c1.627-0.104,4.342-0.278,7.816-0.498
							c23.122,1.225,77.917,4.212,87.322,5.473c1.417,0.189,2.967,0.402,4.597,0.63c-0.299,0.188-0.289,0.298-0.214,0.556
							l0.271,0.776l0.797,0.281c0.061,0.018,0.085,0.021,0.922,0.114c15.763,1.763,69.344,8.902,97.131,26.738
							c9.955,4.101,26.516,32.72,39.162,67.365c0.57,0.424,1.069,0.896,1.503,1.407c-12.808-35.641-29.973-65.38-40.233-69.599
							c-27.883-17.908-81.645-25.072-97.457-26.843c-0.475-0.053-0.744-0.073-0.745-0.075l-0.307-0.108
							c0.149-0.074,0.342-0.167,0.573-0.277l1.735-0.84l-1.525-0.213c-2.174-0.308-4.243-0.593-6.084-0.839
							c-9.438-1.269-64.264-4.256-87.451-5.481c-3.53,0.22-6.245,0.396-7.873,0.5l-1.171,0.074l-1.813,20.609l-0.567,0.021
							c-0.377,0.015-30.192,1.432-46.418,11.362c0.283,0.201,0.558,0.414,0.822,0.64
							C171.325,396.998,200.613,395.429,200.984,395.416z"/>
						<path d="M154.362,479.467h-13.378l0.164-1.984c-0.351-0.017-0.7-0.048-1.05-0.094c-0.021,0.839-0.041,1.679-0.062,2.536
							l-0.01,0.479h13.994C154.121,480.087,154.236,479.773,154.362,479.467z"/>
					</g>
				</g>
				<g>
					<g>
						<path d="M306.417,379.396c0.14,0.04,0.332,0.081,0.542,0.124c4.628-2.266,14.038-7.151,11.558-9.318
							C315.557,373.247,305.67,377.543,306.417,379.396z"/>
					</g>
				</g>
				<g>
					<g>
						<path d="M333.011,384.035c0,0,41.711,8.321,70.797,23.112c10.965,4.515,29.018,37.087,41.57,72.787h1.06
							c-12.695-36.134-31.029-69.213-42.206-73.816c-37.752-21.405-89.706-25.062-97.272-26.6c-0.414,0.204-0.788,0.383-1.114,0.539
							C317.755,381.736,333.011,384.035,333.011,384.035z"/>
					</g>
				</g>
				<g>
					<g>
						<path d="M304.721,381.28l0.556,0.195c0.458,0.129,66.118,6.328,98.104,26.872c10.824,4.457,28.473,36.421,40.843,71.588h1.155
							c-12.553-35.7-30.605-68.272-41.57-72.787c-29.086-14.792-70.795-23.112-70.795-23.112s-15.258-2.299-27.167-3.978
							c-0.822,0.397-1.329,0.639-1.322,0.657L304.721,381.28z"/>
					</g>
				</g>
				<g>
					<g>
						<path d="M158.121,454.505l-2.183-0.489c-1.804,8.052-3.049,16.829-3.864,25.92h2.241
							C155.125,471.015,156.351,462.403,158.121,454.505z"/>
					</g>
				</g>
			</g>
			<g>
				<g>
					<g>
						<path d="M353.302,437.193l-2.234-0.088c0.811-21.134,6.366-34.302,16.513-39.139c15.628-7.437,36.035,7.641,36.897,8.284
							l-1.339,1.786c-0.202-0.149-20.187-14.914-34.604-8.052C359.203,404.434,354.078,416.953,353.302,437.193z"/>
					</g>
				</g>
			</g>
			<g>
				<g>
					<g>
						<path fill="#141719" d="M292.028,376.15c-3.467,1.157-6.847,2.443-10.063,3.965c-2.592,1.228-5.153,2.44-7.702,3.641
							c5.69-2.149,11.304-4.521,16.819-7.218C291.418,376.374,291.722,376.267,292.028,376.15z"/>
					</g>
				</g>
			</g>
			<g>
				<g>
					<path fill="#F9B77A" d="M290.979,344.817c0,0,48.942,47.212-0.897,69.814c-49.836,22.604-63.414-38.503-63.414-38.503
						L290.979,344.817z"/>
				</g>
				<g>
					<path d="M269.312,420.117c-32.968,0-43.002-43.448-43.101-43.886l-0.08-0.36l64.937-31.616l0.236,0.227
						c0.252,0.242,25.019,24.432,21.23,46.392c-1.748,10.143-9.238,18.28-22.261,24.185
						C282.876,418.415,275.821,420.117,269.312,420.117z M227.212,376.385c1.029,4.153,11.46,42.797,42.1,42.797
						c6.375,0,13.3-1.674,20.578-4.976c12.723-5.77,20.031-13.673,21.725-23.491c3.511-20.35-18.224-42.823-20.727-45.331
						L227.212,376.385z"/>
				</g>
			</g>
			<g>
				<g>
					<g>
						<path fill="#F9B77A" d="M188.421,349.621h-23.869v-45.848c0,0.223,1.7,0.043,2.258-0.383c2.702,4.24,6.432,7.812,11.743,9.601
							C178.419,325.156,182.124,339.813,188.421,349.621z"/>
					</g>
				</g>
			</g>
			<g>
				<g>
					<g>
						<path fill="#F9B77A" d="M327.084,312.3v37.321h-43.045c-0.243,0-0.467,0.424-0.734,0.692
							c5.851-6.677,10.357-14.445,13.104-23.303c9.129-0.537,15.556-5.149,19.263-11.396c0.669,1.361,1.959,2.103,3.875,0.72
							C321.777,314.701,324.283,313.46,327.084,312.3z"/>
					</g>
				</g>
			</g>
			<g>
				<g>
					<g>
						<path fill="#C9C9C9" d="M418.486,74.317c0.242,0.951,0.479,1.905,0.719,2.856c-2.355-0.569-0.453-1.99-0.581-3.018
							C418.64,74.138,418.486,74.317,418.486,74.317z"/>
					</g>
				</g>
			</g>
			<g>
				<g>
					<g>
						<path fill="#F9B77A" d="M403.808,219.303c0.181,9.062-23.668,59.793-25.298,68.655c-3.393,18.568-27.954,0.479-38.467,14.878
							c-0.445,0.625-0.913,1.183-1.429,1.717c-0.244,0.269-0.488,0.536-0.76,0.782c-0.376,0.381-0.777,0.133-1.182,0.471
							c-0.403,0.334-0.8,0.38-1.206,0.38c-0.021,0-0.021,0-0.021,0c-0.848,0-1.723,1.759-2.613,2.274
							c-0.445,0.271-0.891,0.814-1.36,1.058c-1.654,0.896-3.349,1.826-5.044,2.632c-2.503,1.156-4.98,2.464-7.212,4.093
							c-1.919,1.382-2.88,0.664-3.549-0.696c-3.709,6.248-10.135,10.839-19.265,11.376c-2.744,8.862-7.25,16.57-13.102,23.246
							c-0.736,0.824-1.495,1.66-2.254,2.483c-0.601,0.625-1.205,1.23-1.829,1.833c-1.318,1.252-2.677,2.479-4.085,3.685
							c-0.69,0.58-1.429,1.163-2.14,1.743c-0.736,0.577-1.477,1.139-2.233,1.693c-12.751,9.419-21.229,8.126-34.331-1.229
							c-5.287-3.793-13.706-6.719-19.89-1.201c-7.744,6.896-14.151,4.776-20.626-0.761c-0.644-0.559-1.27-1.14-1.896-1.784
							c-0.489-0.492-0.959-1.008-1.406-1.54c-0.219-0.246-0.424-0.492-0.625-0.737c-0.846-1.003-1.654-2.077-2.412-3.215
							c-0.266-0.381-0.511-0.78-0.758-1.162c-0.133-0.198-0.265-0.423-0.399-0.622c-6.297-10.18-19.488-5.952-19.356-18.117
							c-5.312-1.782-10.915-18.379-12.276-18.601c-3.726-0.647,0.179-10.314-1.158-14.847c-5.136-17.232-8.461-35.2-6.719-52.654
							c3.615-36.205,1.806-72.766,7.813-108.769c2.609-15.76,5.309-31.494,13.568-45.446c11.564-19.529,26.16-23.279,44.196-10.177
							c21.449,15.578,44.617,16.112,69.06,10.868c14.506-3.102,28.905-6.74,44.016-5.646c26.315,1.919,44.239,20.891,43.479,50.132
							c-2.831,14.219-1.269,31.318,3.44,49.018C378.369,199.601,403.498,204.057,403.808,219.303z"/>
					</g>
				</g>
			</g>
			<g>
				<g>
					<g>
						<g>
							<path fill="#592C03" d="M396.741,39.203C344.912,2.464,286.809-1.755,227.436,19.047
								c-35.758,12.522-61.248,37.744-70.044,74.729c-10.703,44.985-15.944,90.652-15.967,136.658c1.669-0.313,3.436-0.5,5.324-0.5
								c1.171,0,2.292,0.081,3.377,0.205c2.045-31.282,1.422-62.736,6.601-93.773c2.609-15.76,5.309-31.494,13.569-45.445
								c11.563-19.53,26.159-23.28,44.196-10.178c21.45,15.578,44.617,16.113,69.061,10.868c14.507-3.102,28.904-6.74,44.016-5.646
								c26.315,1.92,44.238,20.891,43.481,50.132c-2.834,14.219-1.272,31.318,3.437,49.018
								c3.885,14.486,14.491,39.381,14.803,54.626c0.068,3.573-1.112,7.486-2.662,11.455c0.396-0.015,0.776-0.059,1.185-0.059
								c7.067,0,12.611,2.354,16.661,6.031c9.789-17.772,20.595-35.981,22.402-37.1c3.531-12.917,14.419-47.846,16.34-61.095
								C450.242,110.229,437.139,67.842,396.741,39.203z"/>
						</g>
					</g>
				</g>
			</g>
			<g>
				<g>
					<g>
						<g>
							<path fill="#3F1B00" d="M388.354,246.09c-2.091,7.614-7.088,15.923-8.355,22.803c-3.394,18.574-29.443,19.544-39.956,33.942
								c-0.445,0.625-6.316,5.515-7.209,6.002c-0.446,0.272-11.384,5.82-13.614,7.448c-1.922,1.386-30.067,27.211-35.915,33.886
								c-0.74,0.825-1.497,1.657-2.256,2.482c-0.602,0.624-1.203,1.228-1.831,1.834c-1.314,1.251-2.676,2.476-4.085,3.681
								c-0.688,0.58-1.428,1.163-2.14,1.743c-0.736,0.577-1.473,1.139-2.233,1.693c-12.748,9.419-21.228,8.126-34.33-1.229
								c-5.287-3.79-13.703-6.719-19.887-1.201c-7.744,6.896-14.152,4.776-20.626-0.761c-0.645-0.559-1.264-1.147-1.898-1.784
								c-0.484-0.495-0.958-1.008-1.406-1.54c-0.219-0.246-0.422-0.492-0.621-0.737c-0.849-1.003-1.654-2.077-2.415-3.215
								c-0.263-0.381-0.509-0.78-0.758-1.162c-0.131-0.198-0.262-0.423-0.399-0.622c-6.295-10.18-5.424-9.336-12.465-19.25
								c-3.246-4.57-14.977-11.721-20.322-32.311c-4.523-17.406-8.461-35.201-6.719-52.656c0.957-9.602,1.533-19.226,1.974-28.857
								c-1.21,0.155-2.455,0.263-3.771,0.263c-1.952,0-3.783-0.191-5.509-0.528c-0.53,21.704,0.086,43.492,1.88,65.329
								c2.075,25.045,4.332,50.31,18.885,72.187c11.225,16.874,39.664,47.076,40.266,47.452c8.279,5.562,24.729,8.372,45.509,1.812
								c20.626-6.495,73.258-22.746,86.253-30.222c7.093-5.579,13.479-10.092,19.149-15.313
								c13.257-12.206,29.49-49.391,34.298-65.937c-0.262-2.748,10.311-22.994,20.556-41.214
								C401.565,251.52,394.246,250.178,388.354,246.09z"/>
						</g>
					</g>
				</g>
			</g>
			<g>
				<g>
					<g>
						<g>
							<path fill="#F9B77A" d="M419.015,207.592c-2.89,1.938-14.58,27.552-20.366,38.743c-6.631,12.838-5.203,20.417-8.712,23.935
								c-9.762,9.78-5.475,20.08,7.836,17.195c3.207-0.694,6.804-1.643,9.2-3.673c18.462-15.599,31.753-34.085,31.788-56.485
								C437.56,207.846,430.425,199.956,419.015,207.592z"/>
						</g>
					</g>
					<g>
						<g>
							<path d="M393.502,289.075L393.502,289.075c-4.603,0-8.023-1.881-9.385-5.165c-1.724-4.151,0.157-9.548,5.034-14.428
								c1.389-1.393,1.93-3.759,2.676-7.034c0.925-4.044,2.191-9.58,5.831-16.625c1.672-3.243,3.855-7.715,6.165-12.454
								c7.414-15.199,12.427-25.271,14.569-26.706c3.043-2.036,5.887-3.066,8.463-3.066c7.451,0,12.073,8.395,13.021,23.64
								c-0.031,20.386-10.558,39.14-32.183,57.406c-2.531,2.14-6.148,3.147-9.687,3.914
								C396.424,288.898,394.908,289.075,393.502,289.075z M426.855,205.829c-2.124,0-4.551,0.905-7.218,2.69
								c-1.804,1.207-9.026,16.024-13.808,25.828c-2.313,4.748-4.5,9.235-6.188,12.5c-3.51,6.792-4.741,12.168-5.636,16.099
								c-0.833,3.635-1.431,6.262-3.278,8.111c-4.15,4.154-5.892,8.756-4.546,11.999c0.994,2.404,3.667,3.786,7.32,3.786
								c0.002,0,0.002,0,0.002,0c1.248,0,2.605-0.158,4.036-0.467c3.253-0.706,6.558-1.61,8.716-3.436
								c21.092-17.816,31.36-36.016,31.389-55.635C436.785,213.482,432.956,205.829,426.855,205.829z"/>
						</g>
					</g>
				</g>
				<g>
					<g>
						<g>
							<path fill="#DF8F6B" d="M418.108,220.774c-1.552,1.039-4.59,8.757-7.853,15.518c1.392,1.439,3.9,4.358,1.363,8.34
								c-2.632,4.14-6.338,3.263-7.779,2.201c-4.266,5.891-7.81,12.987-8.215,17.329c-0.813,8.749-0.367,11.336,8.438,9.43
								c2.118-0.46,4.494-1.086,6.083-2.431c12.209-10.312,20.995-22.537,21.02-37.353
								C430.366,220.94,425.647,215.726,418.108,220.774z"/>
						</g>
					</g>
				</g>
				<g>
					<g>
						<g>
							<path d="M432.278,235.537l-2.23-0.039c0.189-10.542-2.117-13.834-4.089-14.736c-3.291-1.513-7.972,2.526-8.016,2.569
								l-1.491-1.668c0.235-0.207,5.772-5.068,10.438-2.928C430.688,220.479,432.453,225.973,432.278,235.537z"/>
						</g>
					</g>
				</g>
			</g>
			<g>
				<g>
					<g>
						<path d="M218.362,284.67c-8.26,0-13.678-1.889-16.412-5.681c-5.788-8.03,2.242-22.038,8.105-32.265
							c1.717-2.994,3.2-5.579,3.988-7.439c5.156-12.106,9.575-43.193,9.616-43.506l2.21,0.311
							c-0.179,1.288-4.502,31.695-9.771,44.068c-0.844,1.983-2.358,4.62-4.108,7.677c-5.246,9.155-13.174,22.986-8.232,29.848
							c3.853,5.353,15.114,6.193,33.474,2.496l0.438,2.188C230.058,283.901,223.63,284.67,218.362,284.67z"/>
					</g>
				</g>
			</g>
			<g>
				<g>
					<g>
						<g>
							<g>
								<path fill="#FFFFFF" d="M264.664,206.672c-1.491,17.274,12.358,10.093,29.668,11.592c17.32,1.498,31.539,11.11,33.031-6.165
									c0.937-10.782-12.035-14.229-29.353-15.729C280.702,194.873,265.599,195.893,264.664,206.672z"/>
							</g>
						</g>
					</g>
				</g>
			</g>
			<g>
				<g>
					<path fill="#944E00" d="M321.478,210.354c0.369-4.282-1.033-8.309-3.6-11.357c-3.114-0.522-6.491-0.916-10.059-1.225
						c-4.183-0.362-8.232-0.575-11.988-0.541c-2.969,2.557-4.985,6.226-5.349,10.438c-0.393,4.529,1.526,7.609,4.375,10.711
						c3.013-0.121,5.921,0.994,9.283,1.285c3.889,0.335,7.615,1.082,11.082,1.84C318.682,218.943,321.077,214.98,321.478,210.354z"
						/>
				</g>
			</g>
			<g>
				<g>
					<g>
						<path d="M309.611,201.028c-0.466-0.04-0.915-0.104-1.357-0.176c-0.961-0.033-1.854-0.167-2.719-0.339
							c-0.604-0.005-1.191-0.032-1.759-0.09c-3.034,0.944-5.253,3.73-5.253,7.076c0,4.12,3.341,7.462,7.463,7.462
							s7.462-3.342,7.462-7.462C313.448,204.704,311.888,202.303,309.611,201.028z"/>
					</g>
				</g>
			</g>
			<g>
				<g>
					<g>
						<path fill="#FFFFFF" d="M309.953,201.02c-0.61-0.04-1.214-0.085-1.784-0.181c-0.955-0.038-1.872-0.127-2.737-0.295
							c-0.44,0.528-0.714,1.199-0.714,1.94c0,1.683,1.363,3.046,3.045,3.046c1.685,0,3.047-1.365,3.047-3.046
							c0-0.495-0.146-0.945-0.358-1.356C310.284,201.093,310.117,201.056,309.953,201.02z"/>
					</g>
				</g>
			</g>
			<g>
				<g>
					<path fill="#D38A4F" d="M284.468,221.3c0,0,15.295,10.625,21.717,4.67"/>
				</g>
			</g>
			<g>
				<g>
					<g>
						<g>
							<g>
								<path fill="#FFFFFF" d="M159.112,194.529c-1.491,17.274,12.359,10.094,29.667,11.591c17.32,1.5,31.54,11.11,33.031-6.165
									c0.936-10.779-12.035-14.227-29.352-15.728C175.149,182.729,160.046,183.75,159.112,194.529z"/>
							</g>
						</g>
					</g>
				</g>
			</g>
			<g>
				<g>
					<path fill="#944E00" d="M212.654,197.743c0.371-4.281-1.032-8.308-3.6-11.357c-3.114-0.521-6.491-0.914-10.059-1.224
						c-4.182-0.362-8.232-0.574-11.986-0.541c-2.969,2.556-4.985,6.226-5.349,10.438c-0.392,4.529,1.236,7.492,4.084,10.594
						c3.014-0.122,6.213,1.111,9.573,1.401c3.888,0.337,7.617,1.082,11.084,1.839C209.86,206.334,212.254,202.369,212.654,197.743z"
						/>
				</g>
			</g>
			<g>
				<g>
					<g>
						<path d="M200.32,187.949c-0.465-0.04-0.915-0.103-1.358-0.175c-0.958-0.033-1.855-0.168-2.719-0.339
							c-0.603-0.006-1.189-0.033-1.757-0.09c-3.035,0.944-5.254,3.729-5.254,7.075c0,4.121,3.341,7.463,7.463,7.463
							c4.122,0,7.463-3.341,7.463-7.463C204.157,191.625,202.598,189.226,200.32,187.949z"/>
					</g>
				</g>
			</g>
			<g>
				<g>
					<g>
						<path fill="#FFFFFF" d="M200.662,187.942c-0.61-0.04-1.216-0.085-1.784-0.182c-0.955-0.039-1.872-0.127-2.737-0.294
							c-0.441,0.527-0.714,1.199-0.714,1.94c0,1.683,1.363,3.046,3.045,3.046c1.684,0,3.047-1.364,3.047-3.046
							c0-0.495-0.145-0.945-0.359-1.356C200.994,188.017,200.827,187.979,200.662,187.942z"/>
					</g>
				</g>
			</g>
			<g>
				<g>
					<path fill="#D38A4F" d="M198.851,215.282c0,0-17.091,8.529-22.946,1.777"/>
				</g>
			</g>
			<g>
				<g>
					<path fill="#D38A4F" d="M209.625,347.051c0,0,4.669,18.683,34.562,0"/>
				</g>
			</g>
			<g>
				<g>
					<path d="M212.695,210.836L212.695,210.836c-3.134,0-6.778-0.812-10.998-1.752c-3.929-0.875-8.382-1.868-12.978-2.265
						c-1.718-0.148-3.502-0.219-5.461-0.219c-2.669,0-5.17,0.132-7.588,0.26c-2.066,0.11-4.017,0.212-5.799,0.212
						c-3.372,0-7.118-0.329-9.354-2.765c-1.839-2.006-2.508-5.132-2.101-9.837c0.67-7.731,8.137-11.488,22.836-11.488
						c3.314,0,6.998,0.179,11.267,0.549c10.074,0.872,16.986,2.284,21.75,4.444c6.013,2.724,8.708,6.663,8.24,12.042
						C221.862,207.499,218.835,210.836,212.695,210.836z M183.258,205.197c1.998,0,3.825,0.075,5.583,0.226
						c4.688,0.407,9.189,1.408,13.159,2.292c4.141,0.923,7.718,1.719,10.695,1.719l0,0c3.944,0,7.692-1.156,8.418-9.538
						c0.41-4.716-2.02-8.198-7.422-10.645c-4.618-2.092-11.385-3.467-21.294-4.326c-4.228-0.366-7.874-0.543-11.146-0.543
						c-13.834,0-20.845,3.338-21.441,10.208c-0.364,4.227,0.205,7.096,1.74,8.768c1.487,1.621,3.974,2.313,8.319,2.313
						c1.743,0,3.679-0.104,5.725-0.211C178.033,205.331,180.553,205.197,183.258,205.197z"/>
				</g>
			</g>
			<g>
				<g>
					<path d="M318.248,222.979L318.248,222.979c-3.134,0-6.778-0.813-10.999-1.752c-3.928-0.876-8.382-1.868-12.977-2.264
						c-1.718-0.149-3.502-0.221-5.462-0.221c-2.669,0-5.169,0.132-7.589,0.261c-2.066,0.11-4.017,0.211-5.798,0.211
						c-3.372,0-7.119-0.328-9.354-2.765c-1.839-2.006-2.507-5.132-2.101-9.838c0.67-7.729,8.139-11.489,22.836-11.489
						c3.314,0,6.998,0.18,11.267,0.55c10.073,0.873,16.986,2.285,21.75,4.443c6.014,2.725,8.709,6.664,8.24,12.043
						C327.416,219.641,324.388,222.979,318.248,222.979z M288.811,217.339c1.997,0,3.826,0.074,5.583,0.227
						c4.688,0.405,9.188,1.407,13.158,2.292c4.143,0.922,7.719,1.72,10.696,1.72l0,0c3.943,0,7.691-1.157,8.418-9.539
						c0.41-4.715-2.02-8.197-7.422-10.646c-4.617-2.092-11.385-3.466-21.294-4.325c-4.229-0.366-7.873-0.544-11.146-0.544
						c-13.834,0-20.845,3.34-21.442,10.208c-0.363,4.228,0.208,7.096,1.741,8.769c1.486,1.62,3.972,2.312,8.318,2.312
						c1.745,0,3.68-0.103,5.726-0.21C283.587,217.474,286.105,217.339,288.811,217.339z"/>
				</g>
			</g>
		</g>
		<g>
			<path fill="#592C03" d="M334.479,187.6c-0.873,0-1.757-0.222-2.566-0.69c-6.201-3.563-24.549-11.952-34.924-8.06
				c-17.805,6.677-37.223-14.872-39.378-17.351c-1.866-2.145-1.639-5.396,0.506-7.261c2.144-1.865,5.394-1.641,7.261,0.506
				c4.258,4.876,18.551,18.008,27.997,14.466c16.765-6.284,40.975,7.222,43.681,8.784c2.463,1.42,3.307,4.567,1.886,7.029
				C337.988,186.676,336.258,187.6,334.479,187.6z"/>
		</g>
		<g>
			<path fill="#592C03" d="M217.518,157.655c-1.704,0-3.371-0.845-4.351-2.391c-6.096-9.613-13.007-14.782-20.541-15.363
				c-13.811-1.072-26.319,13.04-26.444,13.183c-1.87,2.136-5.12,2.356-7.258,0.492c-2.14-1.866-2.368-5.106-0.508-7.25
				c0.644-0.74,15.97-18.108,34.941-16.693c10.969,0.824,20.558,7.593,28.501,20.119c1.522,2.4,0.811,5.581-1.59,7.103
				C219.414,157.396,218.461,157.655,217.518,157.655z"/>
		</g>
		<g>
			<path fill="#D38A4F" d="M197.899,184.091c-20.399,0-32.892-8.625-33.059-8.743l0.541-0.765
				c0.223,0.158,22.687,15.637,56.667,4.616l0.289,0.89C213.331,183.011,205.12,184.091,197.899,184.091z"/>
		</g>
		<g>
			<path fill="#D38A4F" d="M311.126,197.192c-20.399,0-32.892-8.625-33.06-8.743l0.541-0.764
				c0.224,0.157,22.685,15.637,56.668,4.615l0.287,0.89C326.559,196.112,318.347,197.192,311.126,197.192z"/>
		</g>
		<g>
			<path d="M256.111,327.965c-0.41,0-0.827-0.092-1.222-0.282c-0.916-0.398-4.72-0.33-7.236-0.283
				c-4.705,0.086-9.145,0.164-11.745-1.137c-3.355-1.678-15.118-0.208-18.983,0.275c-7.988,1.005-23.113-5.104-24.812-5.804
				c-1.433-0.591-2.116-2.231-1.526-3.665c0.589-1.434,2.231-2.117,3.664-1.527c4.238,1.743,16.445,6.104,21.978,5.425
				c10.392-1.301,18.142-1.749,22.191,0.274c1.367,0.683,6.042,0.598,9.133,0.545c4.805-0.086,7.852-0.093,9.782,0.843
				c1.396,0.675,1.979,2.354,1.305,3.75C258.155,327.38,257.153,327.965,256.111,327.965z"/>
		</g>
		<g>
			<path fill="none" stroke="#48826D" stroke-width="7" stroke-linecap="square" stroke-miterlimit="10" d="M248.861,223.625"/>
		</g>
		<g>
			<path fill="none" stroke="#48826D" stroke-width="7" stroke-linecap="square" stroke-miterlimit="10" d="M231.549,221.754"/>
		</g>
		<g>
			<g>
				<g>
					<g opacity="0.6">
						<path fill="#E2E2E2" d="M203.595,241.501c0,0-9.89,43.356-48.274,39.536c-44.332-4.411-39.277-47.955-39.277-47.955"/>
						<path fill="#48826D" d="M159.979,284.548c-1.635,0-3.295-0.083-4.982-0.251c-14.104-1.403-24.971-6.729-32.3-15.829
							c-12.146-15.083-10.003-34.926-9.906-35.763l0.377-3.254l6.507,0.756l-0.378,3.253c-0.02,0.174-1.896,18.034,8.535,30.941
							c6.187,7.656,15.544,12.157,27.813,13.378c35.021,3.483,44.375-35.354,44.756-37.008l0.736-3.188l6.378,1.458l-0.728,3.19
							c-0.106,0.468-2.702,11.589-10.255,22.352C187.319,277.713,174.756,284.548,159.979,284.548z"/>
					</g>
					<g>
						<path fill="#48826D" d="M159.979,284.548c-1.635,0-3.295-0.083-4.982-0.251c-14.104-1.403-24.971-6.729-32.3-15.829
							c-12.146-15.083-10.003-34.926-9.906-35.763l0.377-3.254l6.507,0.756l-0.378,3.253c-0.02,0.174-1.896,18.034,8.535,30.941
							c6.187,7.656,15.544,12.157,27.813,13.378c35.021,3.483,44.375-35.354,44.756-37.008l0.736-3.188l6.378,1.458l-0.728,3.19
							c-0.106,0.468-2.702,11.589-10.255,22.352C187.319,277.713,174.756,284.548,159.979,284.548z"/>
					</g>
				</g>
				<g>
					<g opacity="0.6">
						<path fill="#E2E2E2" d="M309.747,252.063c0,0-9.89,43.356-48.273,39.536c-44.332-4.411-39.275-47.955-39.275-47.955"/>
						<path fill="#48826D" d="M266.131,295.11c-1.635,0-3.294-0.083-4.982-0.252c-14.103-1.402-24.97-6.728-32.298-15.829
							c-12.147-15.081-10.003-34.924-9.906-35.762l0.378-3.254l6.507,0.757l-0.378,3.252c-0.019,0.174-1.896,18.034,8.534,30.942
							c6.188,7.656,15.545,12.156,27.813,13.378c34.994,3.479,44.376-35.355,44.758-37.011l0.734-3.187l6.378,1.458l-0.728,3.19
							c-0.106,0.469-2.702,11.59-10.255,22.353C293.472,288.275,280.908,295.11,266.131,295.11z"/>
					</g>
					<g>
						<path fill="#48826D" d="M266.131,295.11c-1.635,0-3.294-0.083-4.982-0.252c-14.103-1.402-24.97-6.728-32.298-15.829
							c-12.147-15.081-10.003-34.924-9.906-35.762l0.378-3.254l6.507,0.757l-0.378,3.252c-0.019,0.174-1.896,18.034,8.534,30.942
							c6.188,7.656,15.545,12.156,27.813,13.378c34.994,3.479,44.376-35.355,44.758-37.011l0.734-3.187l6.378,1.458l-0.728,3.19
							c-0.106,0.469-2.702,11.59-10.255,22.353C293.472,288.275,280.908,295.11,266.131,295.11z"/>
					</g>
				</g>
			</g>
			<g>
				
					<rect x="201.104" y="237.662" transform="matrix(0.9963 0.0858 -0.0858 0.9963 21.4713 -17.4349)" fill="#48826D" width="24.708" height="6.551"/>
			</g>
			<g>
				<polygon fill="#48826D" points="316.111,253.235 307.235,251.461 308.52,245.037 315.424,246.418 420.142,202.375 
					422.681,208.413 				"/>
			</g>
		</g>
		<g>
			<path fill="#48826D" d="M197.862,396.116c0,0-58.017-19.964-73.613,33.687"/>
			<path d="M124.698,429.935l-0.899-0.262c4.388-15.093,12.548-25.821,24.254-31.891c22.123-11.467,49.686-2.202,49.961-2.108
				l-0.305,0.885c-0.272-0.094-27.47-9.228-49.231,2.058C137.011,404.563,129.01,415.099,124.698,429.935z"/>
		</g>
		<g>
			<path fill="#48826D" d="M62.488,459.747c0,0-2.496,59.89,91.081,18.716"/>
			<path d="M98.965,493.43c-9.483,0-17.305-2.086-23.424-6.264c-14.095-9.621-13.528-27.262-13.521-27.438l0.936,0.039
				c-0.007,0.17-0.546,17.31,13.122,26.632c15.168,10.347,41.176,7.53,77.303-8.365l0.377,0.856
				C131.744,488.577,113.424,493.429,98.965,493.43z"/>
		</g>
		<rect x="148" y="407" fill="#48826D" width="16" height="22"/>
	</g>
</g>
</svg>
