<?xml version="1.0" encoding="utf-8"?>
<!-- Generator: Adobe Illustrator 16.0.0, SVG Export Plug-In . SVG Version: 6.00 Build 0)  -->
<!DOCTYPE svg PUBLIC "-//W3C//DTD SVG 1.1//EN" "http://www.w3.org/Graphics/SVG/1.1/DTD/svg11.dtd">
<svg version="1.1" id="Ebene_1" xmlns="http://www.w3.org/2000/svg" xmlns:xlink="http://www.w3.org/1999/xlink" x="0px" y="0px"
	 width="231.33px" height="139.165px" viewBox="0 0 231.33 139.165" enable-background="new 0 0 231.33 139.165"
	 xml:space="preserve">
<g id="Ebene_1_1_">
</g>
<g id="Ebene_2" display="none">
	<g display="inline">
		<g>
			<path fill="#FEFEFE" d="M251.056,1099c-64.979,0-129.961-0.025-194.938,0.078c-3.174,0.006-4.228-0.299-4.225-3.959
				c0.129-130.127,0.122-260.252,0.028-390.379c-0.002-3.146,0.734-3.818,3.837-3.816c130.125,0.088,260.252,0.084,390.379,0.021
				c2.846-0.002,3.965,0.274,3.963,3.688c-0.115,130.291-0.111,260.584-0.018,390.877c0.004,3.004-0.633,3.574-3.592,3.57
				C381.347,1098.976,316.198,1099,251.056,1099z M126.963,1020.023c-0.037,1.135-0.037,2.258,1.015,3.026
				c1.143,3.476,3.619,5.646,6.877,7.06c2.258,3.764,5.664,6.366,9.058,8.983c0.47,2.252,1.688,3.703,4.122,3.854
				c0.295,0.035,0.588,0.086,0.878,0.146c0.233,1.82,1.185,2.869,3.101,2.879c0.303,0.023,0.604,0.064,0.9,0.121
				c0.852,3.119,3.42,4.066,6.119,4.853c0.296,0.037,0.59,0.088,0.881,0.147c2.039,3.496,5.438,4.894,9.097,5.879
				c0.306,0.023,0.604,0.063,0.905,0.121c0.137,1.088,0.796,1.715,1.74,2.22c13.486,7.161,27.851,11.922,42.615,15.567
				c0.979,0.242,1.985,0.137,2.729-0.727c0.608,0.018,1.222,0.032,1.832,0.055c0.91,2.334,2.405,2.219,4.168,0.998
				c0.61,0,1.224,0,1.833,0.002c1.275,2.668,3.152,2.135,5.148,0.965c0.625,0.004,1.252,0.008,1.879,0.01
				c2.726,3.23,5.965,1.843,9.141,1.021c2.102-0.541,4.012,0.512,6.021,0.721c3.809,1.275,7.611,2.521,11.119-0.74
				c1.953-0.01,3.906-0.02,5.86-0.028c5.847,2.25,11.492-0.355,17.207-0.854c1.64-0.143,4.205,0.646,4.935-2.115
				c0.619-0.01,1.237-0.02,1.858-0.028c0.776,0.891,1.696,0.729,2.728,0.506c18.803-4.045,36.363-11.178,52.523-21.568
				c3.908-2.516,8.604-4.32,10.828-8.967c0.314-0.059,0.635-0.105,0.949-0.146c7.021-4.102,13.408-8.922,17.973-15.813l-0.016-0.295
				c2.754-0.146,3.848-2.283,5.088-4.244c1.33-2.104,2.385-4.469,4.059-6.252c12.854-13.703,22.854-29.256,30.299-46.457
				c8.18-18.898,12.973-38.611,13.453-59.252c0.213-9.16-0.068-18.33,0.088-27.494c0.066-3.912-0.377-7.611-2.18-11.104
				c0.275-1.823-0.082-3.573-0.328-5.395c-0.73-5.398-4.732-9.646-5.352-14.889c-1.295-10.988-5.938-20.482-11.455-29.841
				c-8.178-13.87-17.559-26.815-28.227-38.844c-7.588-8.551-16.541-15.438-26.477-21.063c-0.332-0.326-0.664-0.654-0.996-0.98
				c0.178-2.135-1.48-3.332-2.711-4.469c-5.123-4.725-10.314-9.5-18.141-8.6c-22.938-11.791-47.494-17.027-73.092-18.033
				c-10.789-0.424-21.502,0.826-32.151,2.149c-7.464,0.933-15.046,1.996-21.993,5.343c-4.674,0.456-8.947,2.116-13.047,4.315
				c-6.229,2.127-12.072,5.107-17.879,8.162c-0.66,0.34-1.321,0.68-1.98,1.021c-4.304,0.362-8.354,1.149-10.003,5.967l-0.063,0.03
				c-6.813,4.687-13.571,9.437-18.973,15.818c-0.734,0.398-1.473,0.797-2.207,1.195c-12.902,10.405-22.305,23.815-31.729,37.182
				c-3.423,4.854-7.006,9.707-8.089,15.795c-2.146,3.431-4.228,6.888-5.088,10.912c-1.462,2.451-1.313,4.06,2.058,4.213
				c1.471,0.068,2.929,0.603,4.392,0.601c3.614-0.007,4.479,1.327,3.794,5.02c-2.027,10.951-1.84,11.17-12.894,11.18
				c-3.614,0.002-4.854,1.771-5.02,4.613c-0.215,3.699,2.899,2.531,4.708,2.453c15.065-0.646,30.131-1.215,45.213-0.924
				c0.224,2.895-1.608,3.086-3.824,3.067c-12.867-0.114-25.688,1.658-38.568,0.98c-2.001-0.104-3.908,0.52-5.852,0.752
				c-3.345,0.406-4.122,2.219-3.707,5.119c-0.079,0.737-0.158,1.475-0.237,2.213c-3.091,14.801-1.844,29.66-0.495,44.508
				c0.195,2.156,1.102,3.254,3.992,2.642c7.594-1.619,15.305-2.712,22.993-3.845c10.463-1.537,20.716-4.608,31.427-4.354
				c0.25,3.477-1.018,5.401-4.757,6.201c-15.978,3.42-31.887,7.146-47.838,10.688c-1.483,0.33-2.992,0.15-3.164,2.285
				c-0.251,3.125-0.732,6.229-0.984,9.354c-0.849,10.502,4.744,19.138,8.559,28.195c5.694,13.533,16.029,24.213,23.571,36.646
				c2.08,3.428,3.84,7.813,8.791,8.575C126.306,1019.365,126.636,1019.693,126.963,1020.023z"/>
			<path fill="#D0F096" d="M140.931,773.765c5.399-6.379,12.158-11.131,18.975-15.813c0.498,7.617,0.438,15.252,0.85,22.883
				c0.941,17.547,1.92,35.084,3.143,52.617c0.83,11.895,1.914,23.752,2.98,35.621c1.837,20.432,3.934,40.815,7.089,61.09
				c0.617,3.967,5.423,8.762,8.843,7.479c5.806-2.176,10.979-0.588,16.342,0.927c1.238,0.35,2.938,0.405,2.58-1.072
				c-1.217-5.07,2.396-9.504,1.354-14.578c-2.427-11.785-1.563-23.881-1.716-35.734c-0.415-31.604-0.882-63.229,0.358-94.875
				c0.703-17.914,1.916-35.881,1.151-53.854c6.947-3.344,14.529-4.41,21.993-5.34c10.648-1.326,21.363-2.576,32.152-2.152
				c25.597,1.006,50.152,6.242,73.09,18.033c-0.02,22.051-0.037,44.104-0.057,66.154c-14.826-9.935-31.188-14.004-48.736-11.146
				c-17.072,2.781-28.942,12.006-33.707,29.586c-2.612,9.646-4.223,19.363-5.588,29.205c-1.506,10.871-2.715,21.707-2.106,32.732
				c0.603,10.903,3.015,20.967,10.623,29.299c2.172,2.379,3.918,5.147,5.958,7.873c-7.715,0.449-11.605,3.094-12.508,8.305
				c-0.092,0.457-0.184,0.916-0.271,1.375c-2.806,0.982-1.27,3.373-1.625,5.131c-0.269,1.314-0.103,2.728-2.259,2.193
				c-10.614-2.613-21.537-3.242-32.328-4.603c-15.604-1.961-31.2-4.02-46.875-5.547c-9.586-0.934-19.255-2.719-28.874-4.194
				c-3.037-0.47-6.328-1.427-8.796,1.614c-10.472,2.347-20.938,4.709-31.421,7.011c-1.33,0.291-3.017,0.344-3.184,1.858
				c-0.405,3.701,0.707,7.4,2.483,10.396c1.082,1.824,4.222,0.719,6.513,0.147c8.799-2.18,17.629-4.229,26.446-6.334
				c1.924,9.412,3.79,18.834,5.803,28.229c0.664,3.098-0.057,3.623-3.217,3.043c-7.977-1.463-16.042-2.435-24.071-3.619
				c-0.747-0.109-1.713-0.795-1.914,0.498c-0.146,0.934,0.827,1.33,1.503,1.793c4.788,12.756,12.504,23.564,22.055,33.152
				c0.731,1.896,1.468,3.793,2.2,5.688l-0.182,0.197c-4.951-0.76-6.711-5.148-8.791-8.578
				c-7.542-12.432-17.876-23.111-23.571-36.646c-3.813-9.061-9.405-17.692-8.558-28.194c0.252-3.125,0.732-6.23,0.984-9.355
				c0.172-2.135,1.681-1.955,3.164-2.284c15.951-3.541,31.86-7.269,47.838-10.688c3.74-0.799,5.007-2.725,4.761-6.201
				c0.336-0.713,0.67-1.426,1.006-2.137c2.875,2.578,1.488,5.697,1.27,8.75c-0.102,1.387-1.02,3.938,1.529,3.904
				c1.959-0.029,2.119-2.47,1.971-3.978c-1.1-11.016-1.328-22.084-2.396-33.115c-1.672-17.272-2.879-34.657-3.004-52.006
				c-0.135-18.766-1.697-37.492-1.211-56.262C141.04,779.421,140.946,776.593,140.931,773.765z M154.417,837.48
				c-1.775,0.602-1.158,1.797-1.42,2.651c-2.553,8.33,0.124,16.715,0.508,24.937c0.479,10.256,0.822,20.655,2.371,30.93
				c1.336,8.861,1.359,17.914,2.46,26.822c0.263,2.11-0.321,6.381,3.662,5.901c3.676-0.438,2.004-4.123,1.856-6.174
				c-0.428-6.002-1.528-11.953-2.237-17.938c-1.207-10.191-2.515-20.375-3.39-30.599c-0.513-5.969-0.871-12.014-1.561-17.916
				C155.955,849.979,156.416,843.568,154.417,837.48z M155.049,830.585c-1.098-1.031-0.134-3.836-2.61-4.268
				c-1.482-0.261-1.502,1.502-1.353,2.602c0.263,1.916,0.521,4.176,2.868,4.519C155.239,833.625,154.819,831.996,155.049,830.585z"
				/>
			<path fill="#D0F096" d="M423.794,873.07c1.803,3.489,2.244,7.188,2.18,11.104c-0.156,9.162,0.125,18.332-0.088,27.494
				c-0.48,20.641-5.273,40.354-13.453,59.25c-7.445,17.201-17.443,32.756-30.299,46.459c-1.676,1.783-2.729,4.15-4.059,6.252
				c-1.242,1.961-2.334,4.096-5.088,4.244c0.35-1.957,0.693-3.914,1.041-5.871c1.361-3.328-1.51-2.707-2.896-2.74
				c-4.652-0.104-5.107-1.938-4.014-6.233c5.377-21.066,8.111-42.404,5.898-64.229c-2.273-22.436-11.563-33.098-33.607-37.977
				c-7.289-1.613-14.646-1.939-22.943-1.092c1.918-2.32,0.852-5.341,4.432-5.591c11.24-0.778,16.51-8.563,20.236-17.889
				c1.184-2.959,1.896-6.295-0.023-9.119c-2.225-3.27-1.529-6.102,0.229-9.086c2.805,0.156,5.676-0.018,8.4,0.525
				c9.887,1.969,19.951,2.27,29.916,3.492c8.332,1.02,16.674,2.016,25.037,2.731c5.465,0.469,10.943,2.979,16.467,0.248
				C422.554,875.072,422.872,873.671,423.794,873.07z"/>
			<path fill="#E4BE8D" d="M423.794,873.07c-0.922,0.602-1.24,2.002-2.635,1.975c-0.25-2.766-1.289-4.723-4.439-5.041
				c-5.764-0.578-11.498-1.354-17.256-1.965c-18.738-1.98-37.48-3.918-56.225-5.873c0.215-5.771,1.887-11.396,1.615-17.223
				c-0.561-12.123-6.205-21.685-14.799-29.795c0.018-22.054,0.035-44.104,0.055-66.156c7.824-0.898,13.018,3.877,18.141,8.6
				c1.23,1.141,2.889,2.336,2.711,4.469l0.02,0.015c-1.449,1.123-0.967,2.729-0.969,4.159c-0.025,23.093-0.023,46.185,0.002,69.273
				c0,0.814-0.363,1.83,1.939,3.586c0-26.152,0-51.106,0-76.063v0.012c9.939,5.625,18.893,12.51,26.48,21.063
				c10.668,12.023,20.049,24.974,28.227,38.845c5.518,9.354,10.16,18.852,11.455,29.84c0.617,5.242,4.619,9.49,5.352,14.889
				C423.712,869.494,424.069,871.244,423.794,873.07z"/>
			<path fill="#E4BE8D" d="M202.876,738.453c0.764,17.973-0.447,35.938-1.15,53.854c-1.242,31.644-0.774,63.271-0.36,94.875
				c0.155,11.854-0.71,23.947,1.717,35.732c1.044,5.074-2.567,9.51-1.353,14.58c0.354,1.479-1.342,1.42-2.582,1.072
				c-5.361-1.517-10.535-3.103-16.342-0.927c-3.418,1.279-8.225-3.514-8.842-7.479c-3.154-20.273-5.252-40.66-7.089-61.09
				c-1.065-11.871-2.151-23.729-2.979-35.621c-1.224-17.533-2.199-35.07-3.144-52.617c-0.411-7.631-0.351-15.266-0.851-22.885
				l0.063-0.031c3.741-1.307,7.072-3.301,10.001-5.967c0.66-0.34,1.321-0.681,1.98-1.021c1.068,0.822,1.054,2,1.043,3.175
				c-0.254,25.239,1.039,50.438,2.008,75.647c0.307,7.949,0.1,15.979,1.204,23.816c0.88,6.237-0.063,12.791,3.032,18.789
				c0.432-6.438,2.906-12.705,1.246-19.248c-0.547-2.162-0.992-4.48-0.318-6.398c3.012-8.602-0.896-17.861,2.71-26.361
				c0.224-0.521-0.113-1.297-0.229-1.944c-1.266-7.029,1.069-13.869,1.33-20.836c0.184-4.904,1.026-10.058,1.387-14.979
				c0.636-8.697,2.365-17.258,2.729-25.932c0.199-4.726,2.243-9.14,1.739-13.896C193.927,740.572,198.202,738.91,202.876,738.453z"
				/>
			<path fill="#BAD4E4" d="M142.808,914.951c-0.334,0.711-0.668,1.424-1.004,2.137c-10.714-0.254-20.967,2.818-31.43,4.357
				c-7.688,1.131-15.399,2.223-22.993,3.842c-2.892,0.615-3.797-0.482-3.992-2.639c-1.35-14.851-2.597-29.707,0.497-44.513
				c16.892-1.041,33.778-2.088,50.714-2.18c3.637-0.021,5.974,1.168,6.235,4.777C141.672,892.126,143.604,903.462,142.808,914.951z"
				/>
			<path fill="#BAD4E4" d="M98.905,827.941c1.086-6.091,4.668-10.941,8.092-15.795c9.424-13.365,18.822-26.775,31.729-37.185
				c0.055,16.648,0.133,33.297,0.131,49.947c0,2.471-0.619,4.875-1.94,7.031c-10.79-1.041-21.585-1.979-32.441-1.898
				C102.368,830.058,100.056,830.505,98.905,827.941z"/>
			<path fill="#D0F096" d="M189.829,742.769c0.504,4.757-1.54,9.173-1.739,13.896c-0.364,8.672-2.095,17.232-2.729,25.932
				c-0.357,4.922-1.203,10.072-1.385,14.979c-0.261,6.967-2.596,13.805-1.33,20.836c0.117,0.647,0.451,1.424,0.229,1.945
				c-3.605,8.5,0.302,17.76-2.71,26.358c-0.672,1.92-0.229,4.238,0.319,6.398c1.66,6.543-0.815,12.813-1.248,19.25
				c-3.098-5.998-2.151-12.553-3.031-18.791c-1.105-7.838-0.898-15.867-1.204-23.816c-0.968-25.207-2.263-50.408-2.008-75.646
				c0.012-1.175,0.026-2.354-1.042-3.175C177.757,747.876,183.599,744.896,189.829,742.769z"/>
			<path fill="#BAD4E4" d="M136.073,866.005c-15.084-0.291-30.147,0.279-45.214,0.924c-1.809,0.078-4.923,1.246-4.708-2.453
				c0.166-2.844,1.403-4.608,5.02-4.612c11.053-0.01,10.864-0.229,12.894-11.181c0.685-3.688-0.18-5.024-3.794-5.02
				c-1.463,0.002-2.921-0.531-4.392-0.6c-3.369-0.154-3.521-1.763-2.058-4.214c1.587,1.813,3.716,1.063,5.622,1.105
				c12.848,0.295,25.688,0.617,38.474,2.063l0.063,0.064c-0.03,1.432,0.084,2.771,1.902,3.049c0.021,3.627,0.042,7.254,0.063,10.881
				c-0.773,2.615-2.938,4.886-1.967,7.935c0.317,1.012,0.637,2.022,0.957,3.039C137.981,866.66,137.026,866.332,136.073,866.005z"/>
			<path fill="#E4BE8D" d="M374.028,1022.001c-0.346,1.957-0.689,3.914-1.041,5.869c0,0,0.016,0.295,0.016,0.293
				c-4.592,1.688-7.498,5.617-11.061,8.608c-2.5,2.104-6.432,3.103-6.912,7.209c-0.314,0.039-0.635,0.089-0.951,0.144
				c-1.936-0.342-3.104,1.166-4.334,2.094c-14.566,11.01-30.908,18.326-48.207,23.867c-4.492,1.438-9.43,1.399-13.535,4.067
				c-0.621,0.013-1.238,0.021-1.859,0.029c-4.066,0.443-8.227,0.508-12.17,1.453c-3.316,0.797-6.977-0.971-9.971,1.518
				c-1.954,0.011-3.906,0.021-5.861,0.027c-3.72,0.076-7.523-1.188-11.117,0.742c-2.012-0.209-3.922-1.262-6.022-0.723
				c-2.819-2.367-6.069-0.871-9.14-1.021c-0.627-0.002-1.254-0.006-1.879-0.01c-1.418-1.929-3.354-1.06-5.148-0.965
				c-0.609-0.002-1.223-0.002-1.833-0.005c-1.042-1.784-2.665-1.145-4.168-0.995c-0.608-0.021-1.222-0.037-1.832-0.06
				c-0.513-1.078-1.545-1.041-2.515-1.25c-9.358-2.021-18.436-4.938-27.389-8.338c-5.855-2.223-11.082-5.846-17.185-7.471
				c-0.3-0.059-0.603-0.1-0.905-0.121c-2.05-3.48-5.422-4.912-9.097-5.879c-0.292-0.063-0.585-0.111-0.882-0.148
				c-0.795-3.188-3.35-4.155-6.119-4.852c-0.299-0.059-0.6-0.098-0.901-0.121c-0.086-1.979-1.118-2.938-3.1-2.879
				c-0.291-0.063-0.583-0.111-0.88-0.148c-0.35-2.379-1.629-3.764-4.12-3.852c-3.394-2.617-6.8-5.225-9.056-8.986
				c0.1-3.533-4.746-4.625-4.146-8.399c4.271,2.342,6.033,7.666,10.978,9.194c0.457,0.467,0.914,0.933,1.371,1.396
				c0.213,0.254,0.428,0.51,0.641,0.766l0.205,0.252c0.271,0.26,0.543,0.521,0.813,0.779c0.413,0.352,0.825,0.697,1.238,1.047
				c0.302,0.309,0.604,0.613,0.905,0.92l0.059,0.078c0.066,1.787,1.366,1.961,2.714,2.068l0.271,0.135
				c0.311,0.242,0.619,0.484,0.928,0.729l0.08,0.099c0.07,1.754,1.354,1.93,2.675,2.059l0.313,0.158
				c0.32,0.229,0.644,0.457,0.963,0.684l0.058,0.064c0.101,1.91,1.472,1.979,2.886,1.994l0.082,0.084
				c0.125,1.715,1.395,1.895,2.704,2.018l0.24,0.154c0.333,1.668,1.616,1.754,2.942,1.768l0.097,0.09
				c0.563,2.222,2.638,2.845,4.252,3.854c13.453,8.438,28.284,13.668,43.521,17.521c7.715,1.951,15.631,4.193,23.849,2.994
				l0.36-0.151l0.375,0.114c0.047,0.24,0.094,0.48,0.141,0.724c0.135-0.242,0.271-0.484,0.404-0.729
				c0.39-0.018,0.774-0.031,1.164-0.047c0.357,1.127,1.242,1.49,2.306,1.494c7.472,0.016,14.942,0.018,22.413,0.014
				c1.048,0,1.968-0.285,2.423-1.364c1.633-0.171,3.266-0.343,4.897-0.513c1.529,1.549,3.508,1.052,5.205,0.787
				c5.715-0.885,11.459-1.762,17.045-3.207c2.695-0.697,6.127-0.207,7.916-3.285c19.789-5.657,37.695-15.069,53.939-27.586
				C360.974,1033.554,367.396,1027.64,374.028,1022.001z"/>
			<path fill="#E4BE8D" d="M139.944,856.015c-0.021-3.627-0.041-7.254-0.063-10.883c0.176-1.521-0.48-2.522-1.904-3.047
				l-0.063-0.063c-2.893-3.104-0.137-6.771-1-10.076c1.322-2.158,1.941-4.563,1.941-7.033c0-16.648-0.078-33.297-0.131-49.945
				c0.731-0.396,1.467-0.797,2.203-1.195c0.016,2.824,0.109,5.654,0.036,8.479c-0.485,18.771,1.077,37.496,1.212,56.262
				c0.123,17.349,1.331,34.73,3.004,52.006c1.067,11.031,1.297,22.103,2.396,33.115c0.148,1.508-0.012,3.945-1.971,3.978
				c-2.549,0.037-1.631-2.521-1.529-3.904c0.222-3.051,1.605-6.172-1.27-8.75c0.795-11.488-1.14-22.824-1.976-34.217
				c-0.267-3.607-2.601-4.795-6.235-4.777c-16.937,0.092-33.823,1.144-50.716,2.185c0.078-0.736,0.157-1.478,0.235-2.214
				c4.324-1.145,8.729-1.776,13.199-1.918c11.289-0.352,22.583-0.598,33.868-1.057c3.813-0.156,7.373-1.119,7.75-5.967
				c-0.318-1.014-0.64-2.025-0.957-3.039C139.474,861.511,142.5,859.457,139.944,856.015z"/>
			<path fill="#D0F096" d="M136.916,831.943c0.864,3.307-1.892,6.973,1,10.078c-12.785-1.447-25.627-1.771-38.475-2.063
				c-1.906-0.043-4.036,0.705-5.622-1.107c0.86-4.024,2.942-7.479,5.086-10.907c1.15,2.563,3.463,2.112,5.567,2.1
				C115.33,829.962,126.125,830.9,136.916,831.943z"/>
			<path fill="#D0F096" d="M138.935,866.986c-0.375,4.848-3.938,5.813-7.75,5.967c-11.283,0.459-22.578,0.705-33.867,1.057
				c-4.47,0.142-8.875,0.771-13.199,1.918c-0.414-2.897,0.363-4.713,3.708-5.119c1.942-0.231,3.851-0.854,5.852-0.752
				c12.883,0.681,25.702-1.098,38.568-0.979c2.216,0.02,4.048-0.172,3.824-3.068C137.026,866.332,137.981,866.66,138.935,866.986z"
				/>
			<path fill="#BAD4E4" d="M288.002,1074.156c4.106-2.668,9.043-2.631,13.536-4.07c17.297-5.541,33.639-12.854,48.207-23.867
				c1.229-0.928,2.398-2.436,4.334-2.094c-2.225,4.648-6.918,6.453-10.826,8.969c-16.16,10.396-33.725,17.523-52.523,21.568
				C289.699,1074.884,288.778,1075.046,288.002,1074.156z"/>
			<path fill="#BAD4E4" d="M169.914,1057.095c6.101,1.625,11.326,5.248,17.185,7.472c8.955,3.396,18.028,6.315,27.389,8.338
				c0.97,0.209,2.002,0.174,2.515,1.252c-0.743,0.862-1.749,0.971-2.729,0.729c-14.767-3.646-29.129-8.406-42.614-15.568
				C170.71,1058.811,170.051,1058.183,169.914,1057.095z"/>
			<path fill="#BAD4E4" d="M355.03,1043.982c0.48-4.107,4.412-5.105,6.912-7.207c3.563-2.994,6.469-6.924,11.061-8.611
				C368.438,1035.061,362.052,1039.88,355.03,1043.982z"/>
			<path fill="#BAD4E4" d="M264.002,1077.154c2.994-2.486,6.651-0.721,9.97-1.519c3.944-0.942,8.104-1.01,12.17-1.45
				c-0.728,2.764-3.293,1.975-4.933,2.114C275.494,1076.798,269.849,1079.404,264.002,1077.154z"/>
			<path fill="#BAD4E4" d="M130.704,1021.703c-0.596,3.781,4.25,4.871,4.15,8.406c-3.26-1.41-5.735-3.584-6.879-7.06
				c0.096-0.771,0.19-1.545,0.283-2.313C129.073,1021.06,129.888,1021.382,130.704,1021.703z"/>
			<path fill="#D0F096" d="M169.97,751.951c-2.931,2.668-6.262,4.662-10.003,5.969C161.615,753.104,165.667,752.316,169.97,751.951z
				"/>
			<path fill="#BAD4E4" d="M247.022,1077.925c3.594-1.93,7.397-0.666,11.117-0.741
				C254.634,1080.447,250.829,1079.201,247.022,1077.925z"/>
			<path fill="#BAD4E4" d="M159.912,1051.095c3.674,0.968,7.046,2.4,9.097,5.879
				C165.349,1055.986,161.951,1054.591,159.912,1051.095z"/>
			<path fill="#BAD4E4" d="M231.86,1076.186c3.068,0.146,6.318-1.351,9.14,1.02C237.823,1078.027,234.584,1079.414,231.86,1076.186z
				"/>
			<path fill="#BAD4E4" d="M152.912,1046.095c2.771,0.695,5.323,1.664,6.12,4.854
				C156.332,1050.162,153.763,1049.214,152.912,1046.095z"/>
			<path fill="#BAD4E4" d="M224.832,1075.21c1.794-0.094,3.731-0.961,5.147,0.965
				C227.983,1077.345,226.106,1077.878,224.832,1075.21z"/>
			<path fill="#BAD4E4" d="M143.91,1039.095c2.491,0.088,3.771,1.476,4.122,3.854C145.597,1042.798,144.38,1041.347,143.91,1039.095
				z"/>
			<path fill="#BAD4E4" d="M218.831,1074.21c1.503-0.146,3.125-0.789,4.168,0.996
				C221.237,1076.429,219.741,1076.544,218.831,1074.21z"/>
			<path fill="#BAD4E4" d="M148.91,1043.095c1.979-0.061,3.014,0.9,3.101,2.879C150.095,1045.964,149.144,1044.916,148.91,1043.095z
				"/>
			<path fill="#D0F096" d="M128.263,1020.734c-0.096,0.771-0.191,1.545-0.287,2.315c-1.049-0.771-1.049-1.895-1.014-3.026
				c0,0,0.198-0.188,0.196-0.187C127.526,1020.138,127.896,1020.438,128.263,1020.734z"/>
			<path fill="#E4BE8D" d="M350.962,762.06c0.332,0.328,0.664,0.654,0.994,0.982c-0.002,0-0.002-0.012-0.002-0.012
				c-0.322-0.32-0.648-0.642-0.977-0.957L350.962,762.06z"/>
			<path fill="#D0F096" d="M126.963,1020.023c-0.329-0.33-0.655-0.658-0.985-0.988c0,0,0.182-0.195,0.18-0.193
				c0.335,0.332,0.67,0.664,1.006,0.996L126.963,1020.023z"/>
			<path fill="#654027" d="M145.954,1035.145c-0.413-0.349-0.825-0.695-1.236-1.048c0.01-0.553-0.255-0.819-0.814-0.776
				c0,0-0.205-0.252-0.202-0.252c0.087-0.51-0.104-0.783-0.644-0.769c-0.457-0.467-0.914-0.932-1.367-1.395
				c-0.086-2.148,2.254-4.34-0.162-6.453c-1.945-1.703-2.354-4.008-1.954-6.369c0.354-2.082-0.823-3.026-2.226-3.981
				c-3.381-8.486-3.58-17.724-6.137-26.418c-0.533-1.816-0.302-3.515-2.781-3.854c-8.852-1.217-17.687-2.545-26.526-3.83
				c-0.677-0.463-1.647-0.859-1.503-1.793c0.201-1.293,1.167-0.607,1.914-0.498c8.027,1.187,16.096,2.156,24.072,3.619
				c3.159,0.58,3.881,0.055,3.217-3.043c-2.015-9.396-3.879-18.814-5.804-28.228c-0.17-4.364-2.358-8.604-0.84-13.082
				c2.466-3.041,5.757-2.084,8.796-1.614c9.619,1.479,19.288,3.264,28.874,4.192c15.675,1.525,31.271,3.586,46.875,5.55
				c10.791,1.356,21.712,1.983,32.328,4.6c2.155,0.531,1.99-0.877,2.257-2.191c0.358-1.758-1.178-4.146,1.627-5.133
				c1.322,1.912,1.422,3.965,0.653,6.092c-1.308,3.621-0.231,6.812,1.483,10.211c2.119-1.657,0.76-4.645,3.313-6.098
				c-0.408,5.141-0.779,9.85-1.152,14.56c-0.229,0.247-0.215,0.481,0.041,0.702c0.639,11.298,3.547,22.188,5.959,33.168
				c0.118,1.507-0.121,3.08,0.82,4.437c1.475,2.438,3.995,1.084,5.982,1.651c12.101,1.908,24.181,3.941,36.307,5.66
				c4.508,0.64,7.887,1.929,7.084,7.263c-0.48,3.188,1.123,4.057,3.738,4.459c4.734,0.733,9.438,1.692,14.186,2.328
				c6.277,0.844,12.59,1.461,18.885,2.178c-3.73-2.974-8.654-1.75-12.332-4.969c8.086,1.063,16.172,2.118,24.258,3.182
				c0.041-0.309,0.084-0.613,0.125-0.922c-7.188-1.322-14.379-2.646-21.57-3.969c0.08-0.447,0.16-0.896,0.24-1.349
				c3.855,0.541,7.713,1.035,11.557,1.637c4.727,0.738,9.439,1.259,14.195,0.313c1.035-0.207,2-0.605,2.076-1.777
				c0.082-1.248-0.949-1.709-1.945-1.854c-7.359-1.094-14.707-2.377-22.104-3.127c-11.209-1.138-22.229-3.474-33.424-4.771
				c-13.1-1.518-26.058-4.229-39.074-6.426c-0.455-0.852-2.3-1.275-0.828-2.715c2.037,1.457,4.472,0.367,6.633,1.031
				c1.578,1.313,3.428,0.702,5.188,0.721c12.605,1.994,25.221,3.953,37.813,6.006c3.186,0.52,4.83,0.557,5.582-3.764
				c0.92-5.275,0.195-7.851-5.291-8.965c-4.813-0.979-9.455-2.779-14.199-4.125c-1.729-0.486-3.25-1.052-3.02-3.201
				c0.332-3.121-1.551-2.937-3.722-2.789c-5.12,0.338-10.276,0.873-15.229-1.144c-1.209-1.082-2.418-2.164-3.627-3.246
				c-3.935-6.776-1.028-14.782-3.893-21.758c-0.1-0.235-0.07-0.766-0.068-0.766c4.875-0.435,1.406-4.439,2.736-6.371
				c2.125,0.387,1.025,5.682,4.984,3.275c2.916,2.991,7.771,1.563,9.699-2.775c0.627-1.41,0.095-3.967,3.002-3.426
				c-0.399,2.223-0.793,4.444-1.209,6.668c-1.455,7.787-2.918,8.436-9.748,4.268c-1.67-1.02-3.666-1.332-5.127-0.438
				c-1.467,0.896-0.896,2.569-0.41,4.35c0.818,2.992-0.279,6.59,3.322,8.5c0.032,0.018-0.047,0.248-0.064,0.34
				c-0.946,1.455-2.057-1.143-3.217,0.428c2.436,2.029,0.179,5.845,3.521,8.072c3.908,2.605,8.007,1.844,12.052,1.854
				c7.885,0.02,11.783-6.857,7.955-13.797c-3.013-5.461-5.732-10.961-3.91-17.468c0.83-2.965-0.854-3.139-3.015-2.924
				c-0.688-2.969,1.787-2.824,3.14-2.521c2.422,0.541,3.246,2.418,2.416,4.932c-2.22,6.713,0.701,12.342,3.936,17.865
				c0.414,0.705,0.857,2.106,2.123,0.74c2.203-2.377,4.625-0.89,6.922-0.295c4.092,1.059,7.721,3.618,12.166,3.793
				c0.004-3.384-4.875-6.146-0.447-11.313c1.393,11.908,9.311,15.225,18.514,17.146c1.75,0.362,3.785,1.063,4.721,3.506
				c-1.869,0.668-3.287,0.354-4.912-0.22c-9.893-3.475-20.313-5.327-29.943-9.604c-3.809-1.688-6.396-0.846-7.896,3.055
				c-0.768,2-1.539,4.006-2.172,6.054c-1.144,3.692-0.479,6.377,3.98,7.01c2.068,0.295,4.137,0.795,6.129,1.438
				c11.16,3.607,22.313,7.246,33.438,10.972c3.563,1.19,6.582,0.444,9.113-2.138c2.461-2.51,2.967-5.762,1.637-8.809
				c-6.752-15.48-13.42-31.01-20.711-46.236c-3.563-7.449-12.332-7.434-17.006-0.608c-1.49,2.178-1.49,2.178-4.367,2.771
				c0.836-4.646,3.563-7.725,7.689-9.93c-3.992-1.097-7.732-3.818-11.318,1.401c-0.424-2.764,1.463-4.334,0.346-6.176
				c-0.791-1.305-1.41-3.162-3.146-2.387c-1.4,0.625,1.504,0.979,0.703,2.229c-0.902,1.408-1.021,3.826-3.695,2.281
				c-2.918-1.266-3.556-3.895-3.701-6.875c-5.383,1.5-10.313,3.361-15.525,4.307c-10.084,1.824-10.063,1.929-11.025,11.978
				c-2.223-2.18-0.768-4.937-1.147-7.402c-0.164-1.049,0.407-2.662-1.421-2.547c-7.055,0.443-14.622-1.094-20.354,4.808
				c-0.965,0.991-1.926,1.125-3.107,0.981c0.902-5.211,4.793-7.854,12.509-8.305c-2.04-2.726-3.786-5.494-5.958-7.873
				c-7.607-8.332-10.021-18.396-10.623-29.299c-0.605-11.025,0.604-21.861,2.107-32.732c1.363-9.842,2.975-19.561,5.586-29.205
				c4.766-17.58,16.635-26.805,33.707-29.586c17.549-2.859,33.912,1.211,48.738,11.144c8.596,8.112,14.238,17.674,14.801,29.797
				c0.27,5.828-1.4,11.45-1.617,17.221c-1.436,1.699-1.521,3.838-1.902,5.883c-1.754,2.982-2.447,5.816-0.225,9.086
				c1.92,2.822,1.205,6.16,0.023,9.119c-3.73,9.322-8.996,17.107-20.238,17.889c-3.578,0.25-2.512,3.271-4.43,5.588
				c8.297-0.848,15.654-0.521,22.943,1.093c22.045,4.879,31.332,15.543,33.607,37.979c2.213,21.824-0.523,43.162-5.898,64.229
				c-1.098,4.301-0.643,6.129,4.012,6.235c1.389,0.031,4.258-0.59,2.895,2.74c-6.633,5.64-13.057,11.553-19.945,16.857
				c-16.246,12.516-34.15,21.928-53.939,27.584c-5.6,1.135-11.188,2.311-16.795,3.391c-4.441,0.854-9.092,0.521-13.373,2.316
				c-1.633,0.17-3.266,0.342-4.897,0.516c-9.042-0.988-18.091-0.723-27.14-0.146c-0.39,0.018-0.775,0.03-1.16,0.053
				c-0.182-0.068-0.364-0.068-0.549,0.002l-0.375-0.115c0,0-0.361,0.15-0.363,0.156c-0.641-1.172-1.721-1.383-2.94-1.488
				c-20.082-1.775-38.784-8.109-56.795-16.922c-3.981-1.949-7.325-5.186-11.883-5.963c0,0-0.097-0.09-0.095-0.092
				c-0.398-1.56-1.453-2.029-2.945-1.767c0,0-0.239-0.155-0.236-0.157c-0.199-1.613-1.303-2.019-2.707-2.015
				c0,0-0.084-0.084-0.082-0.084c-0.418-1.453-1.479-1.971-2.885-1.994l-0.057-0.063c-0.055-0.604-0.359-0.854-0.965-0.685
				c0,0-0.313-0.157-0.313-0.159c-0.152-1.646-1.245-2.074-2.68-2.058c0,0-0.079-0.1-0.077-0.1
				c-0.033-0.597-0.288-0.906-0.929-0.728c0,0-0.271-0.137-0.27-0.139c-0.148-1.68-1.236-2.133-2.716-2.066
				c0,0-0.06-0.076-0.058-0.076C146.845,1035.476,146.575,1035.136,145.954,1035.145z M284.882,908.814
				c-0.346-1.295-0.923-1.925-2.525-1.937c-7.914-0.057-15.799-0.512-23.256-3.576c-1.713-0.705-1.906,0.316-1.998,1.568
				c-3.246-0.063-1.931-4.816-5.101-4.955c-1.94,5.736,0.188,15.129,4.333,18.924c1.236,1.133,2.9,2.597,4.375,1.644
				c4.316-2.8,7.611-1.854,10.807,1.768c0.627,0.709,2.137,0.828,3.256,0.883c7.268,0.354,16.209-9.18,15.697-16.43
				C288.302,906.563,286.979,908.628,284.882,908.814z M264.035,896.035l-0.056-0.047c2.021,3.123,5.396,2.744,8.359,2.936
				c4.475,0.287,8.994-0.146,13.469,0.146c5.482,0.354,10.066,2.34,11.529,8.651c2.506-2.02,5.854-1.867,8.066-4.408
				c4.145-4.741,8.414-9.315,9.885-15.731c1.492-6.506,3.117-12.982,4.611-19.49c0.252-1.092,1.615-2.151,0.801-3.215
				c-4.334-5.658-1.973-11.633-1.021-17.551c0.811-5.06-1.301-11.826-4.621-13.349c-5.32-2.436-10.73-4.225-16.896-3.237
				c-8.396,1.342-16.998,3.211-24.938-1.994c-2.293-1.504-4.533-3.095-6.891-4.49c-3.133-1.857-9.486-0.824-11.188,1.896
				c-2.634,4.226-4.762,8.662-6.145,13.521c-3.566,12.547-3.559,25.607-5.707,38.359c-1.003,5.95-0.878,12.268,0.568,18.348
				c0.272,1.146,0.396,2.322,1.799,2.703c1.527,0.416,1.966-0.725,2.619-1.699c2.725-4.068,6.527-3.91,10.646-2.719
				C260.623,895.152,262.009,896.816,264.035,896.035z M164.923,942.093c-11.703-1.537-23.418-2.996-35.104-4.66
				c-3.729-0.526-5.502,0.398-4.643,4.408c0.02,0.828-0.082,1.683,0.075,2.48c3.974,20.067,7.965,40.135,11.974,60.196
				c1.823,9.138,2.295,9.343,11.53,10.638c19.431,2.725,38.83,5.67,58.244,8.51c14.642,2.144,29.271,4.355,43.933,6.342
				c5.662,0.767,6.252-0.024,5.18-5.473c-3.818-19.422-7.655-38.84-11.535-58.25c-3.313-16.563-2.148-14.154-18.489-16.33
				c-9.375-1.248-18.845-2.096-28.174-3.394C186.931,945.039,175.964,943.285,164.923,942.093z M302.704,926.427
				c1.723,0.959,4.039,1.453,4.697,2.777c1.75,3.508,4.723,4.233,8.012,4.969c2.414,0.541,4.703,1.633,7.107,2.23
				c6.828,1.688,11.047,5.895,13.869,12.356c6.311,14.449,13.211,28.646,19.055,43.303c0.465,1.17,0.623,2.871,2.422,2.662
				c1.537-0.176,2.68-0.953,3.016-2.787c3.365-18.395,4.982-36.901,0.943-55.315c-2.48-11.322-8.83-19.98-20.963-23.039
				c-7.381-1.859-14.84-1.707-22.33-1.414c-1.406,0.055-2.645,0.41-3.287,1.814C312.64,919.688,308.104,923.48,302.704,926.427z
				 M321.403,901.019c8.729,0.017,19.506-13.856,17.332-21.885c-0.932-3.434-3.363-5.813-7.039-3.983
				c-5.121,2.547-9.977,5.684-11.451,11.903c-0.723,3.06-1.229,6.201-2.314,9.127C316.354,900.429,318.481,901.146,321.403,901.019z
				 M301.015,1016.572c-2.125-1.381-3.824-1.207-5.438-1.451c-11.612-1.76-23.215-3.582-34.833-5.291
				c-1.709-0.252-4.396-2.201-4.991,0.4c-0.563,2.444,2.737,2.174,4.438,2.868c0.718,0.296,1.656-0.016,2.476,0.097
				c5.834,0.774,11.664,1.592,18.263,2.498c-1.688,1.651-2.923,1.885-4.183,2.184c-5.325,1.271-10.606,2.73-15.959,3.873
				c-2.543,0.545-2.582,1.779-2.187,3.934c0.502,2.74,1.78,2.457,3.867,1.853C275.05,1023.875,287.67,1020.349,301.015,1016.572z
				 M202.663,1031.611c0.758-0.422,2.646,0.979,2.445-1.117c-0.164-1.736,0.492-4.055-2.598-4.494
				c-7.646-1.092-15.25-2.455-22.877-3.684c-1.259-0.201-2.339,0.051-2.515,1.612c-0.197,1.771-0.082,3.474,2.087,3.84
				C186.992,1029.089,194.788,1030.328,202.663,1031.611z M231.558,1030.132c-1.053-0.104-2.543,0.154-2.582,2.527
				c-0.035,2.041,0.853,2.862,2.937,3.08c6.916,0.717,13.813,1.596,20.708,2.508c1.488,0.199,3.043,1.035,3.305-1.396
				c0.205-1.896-0.387-3.25-2.504-3.553C246.396,1032.291,239.372,1031.265,231.558,1030.132z M222.517,1035.128
				c1.465-1.063,4.129,1.105,4.354-2.139c0.184-2.605-0.934-4.002-3.557-4.322c-4.25-0.521-8.48-1.184-12.73-1.688
				c-1.438-0.171-3.17-0.451-3.408,1.756c-0.201,1.873,0.592,3.469,2.473,3.729C214.041,1033.068,218.405,1033.75,222.517,1035.128z
				 M171.676,1026.958c1.368-0.063,3.205,0.693,3.171-1.826c-0.025-1.865,0.051-3.736-2.555-4.039
				c-3.123-0.365-6.225-0.926-9.352-1.266c-1.678-0.185-4.174-2.313-4.688,1.184c-0.4,2.746,1.364,4.289,4.051,4.674
				C165.425,1026.13,168.549,1026.531,171.676,1026.958z M156.347,1024.525c0.278-4.713-1.781-6.621-6.135-6.414
				c-1.273,0.061-2.572-0.459-3.863-0.693c-1.873-0.34-4.215-0.393-4.611,1.6c-0.344,1.729,1.647,3.229,3.431,3.623
				C148.829,1023.451,152.569,1023.91,156.347,1024.525z M273.479,1016.9c-0.053-0.24-0.104-0.48-0.158-0.72
				c-4.547-0.768-9.092-1.547-13.641-2.295c-1.929-0.313-3.509,0.025-2.818,2.496c0.488,1.75-0.653,5.138,3.029,4.332
				C264.479,1019.714,268.956,1018.195,273.479,1016.9z M350.802,1029.201c-2.064-0.195-4.131-0.396-6.195-0.59
				C346.554,1030.4,348.733,1029.811,350.802,1029.201z"/>
			<path fill="#BAD4E4" d="M271.089,953.871c-1.331,1.932,2.139,5.938-2.738,6.371c-0.002,0-0.027,0.526,0.069,0.766
				c2.86,6.975-0.042,14.98,3.892,21.758c-0.185,4.031-0.888,7.908,0.295,12.119c0.768,2.729,2.815,8.084-3.785,8.389
				c-2.16-0.666-4.596,0.425-6.633-1.03c-2.727-0.41-5.449-0.818-8.174-1.229c-2.412-10.979-5.32-21.871-5.957-33.168
				c4.348,0.285,8.734-0.395,13.076,0.447c-4.227-2.02-8.729-1.01-13.119-1.152c0.373-4.707,0.745-9.416,1.152-14.557
				c-2.553,1.449-1.191,4.438-3.313,6.098c-1.717-3.401-2.791-6.59-1.483-10.213c0.769-2.127,0.668-4.18-0.653-6.09
				c0.092-0.459,0.182-0.918,0.271-1.375c1.185,0.143,2.145,0.01,3.107-0.982c5.73-5.897,13.299-4.36,20.354-4.807
				c1.827-0.115,1.256,1.498,1.42,2.547c0.383,2.467-1.072,5.226,1.147,7.402C270.377,948.066,270.731,950.968,271.089,953.871z
				 M261.558,942.345c-2.072,4.717-1.609,8.281,4.313,9.342c0.279-1.221,0.555-3.639-0.314-3.45
				c-5.859,1.252-2.488-3.076-3.183-4.881c0.101-0.396,0.405-0.925,0.257-1.166C262.33,941.707,261.873,941.949,261.558,942.345z"/>
			<path fill="#E4BE8D" d="M101.903,980c8.841,1.285,17.676,2.611,26.526,3.828c2.479,0.342,2.247,2.037,2.781,3.854
				c2.557,8.697,2.755,17.933,6.135,26.418c-1.263-0.231-2.548-0.756-3.771-0.643c-3.232,0.303-6.348-2.693-9.614-0.307
				C114.407,1003.563,106.691,992.755,101.903,980z"/>
			<path fill="#9C9599" d="M122.96,936.976c-1.521,4.479,0.669,8.718,0.84,13.082c-8.818,2.103-17.648,4.154-26.447,6.334
				c-2.291,0.566-5.432,1.677-6.513-0.147c-1.776-2.996-2.89-6.695-2.483-10.396c0.167-1.518,1.854-1.567,3.184-1.858
				C102.021,941.685,112.488,939.32,122.96,936.976z"/>
			<path fill="#E4BE8D" d="M154.417,837.48c1.999,6.088,1.538,12.495,2.253,18.62c0.688,5.9,1.05,11.945,1.56,17.914
				c0.875,10.224,2.184,20.406,3.391,30.601c0.709,5.981,1.811,11.936,2.236,17.936c0.146,2.053,1.818,5.734-1.855,6.176
				c-3.984,0.479-3.4-3.791-3.662-5.901c-1.102-8.908-1.125-17.961-2.46-26.824c-1.549-10.271-1.892-20.674-2.371-30.928
				c-0.384-8.222-3.062-16.605-0.508-24.937C153.259,839.277,152.64,838.082,154.417,837.48z"/>
			<path fill="#9C9599" d="M123.958,1013.152c3.27-2.39,6.382,0.604,9.613,0.307c1.228-0.115,2.513,0.408,3.771,0.641
				c1.404,0.957,2.582,1.902,2.229,3.984c-0.398,2.361,0.01,4.666,1.955,6.369c2.416,2.113,0.076,4.305,0.162,6.453
				c-4.946-1.531-6.711-6.857-10.979-9.199c-0.819-0.324-1.636-0.646-2.448-0.971c-0.363-0.302-0.732-0.601-1.1-0.896
				c-0.334-0.334-0.669-0.666-1.003-0.998C125.424,1016.943,124.69,1015.048,123.958,1013.152z"/>
			<path fill="#E4BE8D" d="M155.049,830.585c-0.229,1.41,0.188,3.039-1.095,2.853c-2.352-0.343-2.605-2.603-2.868-4.519
				c-0.149-1.1-0.133-2.859,1.353-2.602C154.916,826.75,153.951,829.554,155.049,830.585z"/>
			<path fill="#9C9599" d="M341.339,868.044c0.377-2.043,0.467-4.182,1.9-5.881c18.742,1.957,37.484,3.895,56.225,5.875
				c5.758,0.604,11.494,1.387,17.256,1.965c3.15,0.318,4.189,2.275,4.439,5.041c-5.521,2.729-11.002,0.221-16.467-0.248
				c-8.363-0.717-16.705-1.715-25.037-2.733c-9.965-1.22-20.027-1.521-29.916-3.49C347.013,868.027,344.144,868.201,341.339,868.044
				z"/>
			<path fill="#D0F096" d="M350.979,762.074c0.324,0.315,0.65,0.637,0.977,0.957c0,24.955,0,49.908,0,76.063
				c-2.307-1.756-1.939-2.771-1.941-3.586c-0.023-23.092-0.027-46.184-0.002-69.272C350.013,764.802,349.53,763.195,350.979,762.074
				z"/>
			<path fill="#D0F096" d="M139.944,856.015c2.557,3.439-0.473,5.496-1.967,7.935C137.009,860.9,139.17,858.628,139.944,856.015z"/>
			<path fill="#D0F096" d="M137.979,842.085c1.424,0.521,2.078,1.523,1.903,3.045C138.063,844.857,137.948,843.517,137.979,842.085z
				"/>
			<path fill="#9C9599" d="M163.869,1048.242c4.557,0.776,7.899,4.014,11.882,5.961c18.012,8.813,36.713,15.146,56.795,16.924
				c1.223,0.107,2.303,0.316,2.939,1.488c-8.213,1.194-16.129-1.047-23.844-2.998c-15.236-3.854-30.067-9.082-43.521-17.521
				C166.507,1051.083,164.433,1050.462,163.869,1048.242z"/>
			<path fill="#9C9599" d="M269.976,1072.15c4.279-1.797,8.93-1.463,13.371-2.316c5.606-1.08,11.195-2.256,16.795-3.389
				c-1.789,3.078-5.221,2.588-7.916,3.285c-5.586,1.444-11.33,2.321-17.045,3.207
				C273.481,1073.201,271.506,1073.699,269.976,1072.15z"/>
			<path fill="#9C9599" d="M237.935,1072.52c9.051-0.572,18.1-0.843,27.142,0.146c-0.454,1.078-1.374,1.363-2.421,1.363
				c-7.473,0.004-14.942,0.002-22.416-0.015C239.179,1074.011,238.294,1073.646,237.935,1072.52z"/>
			<path fill="#9C9599" d="M160.83,1046.386c1.491-0.266,2.545,0.205,2.944,1.769
				C162.446,1048.138,161.163,1048.054,160.83,1046.386z"/>
			<path fill="#9C9599" d="M146.918,1036.142c1.479-0.063,2.565,0.39,2.716,2.066
				C148.284,1038.104,146.985,1037.929,146.918,1036.142z"/>
			<path fill="#9C9599" d="M150.91,1039.169c1.433-0.018,2.522,0.41,2.678,2.059C152.265,1041.099,150.979,1040.923,150.91,1039.169
				z"/>
			<path fill="#9C9599" d="M154.918,1042.136c1.403,0.023,2.47,0.539,2.886,1.992
				C156.39,1044.117,155.019,1044.046,154.918,1042.136z"/>
			<path fill="#9C9599" d="M157.885,1044.212c1.405-0.004,2.509,0.4,2.708,2.017
				C159.278,1046.105,158.008,1045.929,157.885,1044.212z"/>
			<path fill="#9C9599" d="M145.954,1035.145c0.621-0.009,0.891,0.332,0.906,0.922
				C146.56,1035.757,146.256,1035.451,145.954,1035.145z"/>
			<path fill="#9C9599" d="M143.901,1033.318c0.563-0.043,0.826,0.227,0.814,0.776
				C144.444,1033.837,144.174,1033.578,143.901,1033.318z"/>
			<path fill="#9C9599" d="M149.903,1038.345c0.641-0.18,0.896,0.131,0.928,0.729
				C150.521,1038.83,150.212,1038.587,149.903,1038.345z"/>
			<path fill="#9C9599" d="M143.056,1032.3c0.536-0.018,0.729,0.259,0.643,0.769C143.483,1032.811,143.269,1032.554,143.056,1032.3z
				"/>
			<path fill="#9C9599" d="M153.899,1041.386c0.604-0.17,0.908,0.082,0.965,0.687
				C154.542,1041.843,154.22,1041.615,153.899,1041.386z"/>
			<path fill="#9C9599" d="M236.228,1072.574c0.186-0.072,0.367-0.07,0.547-0.002c-0.139,0.235-0.272,0.479-0.407,0.725
				C236.319,1073.056,236.272,1072.814,236.228,1072.574z"/>
			<path fill="#9C9599" d="M164.923,942.093c11.041,1.191,22.008,2.945,32.991,4.474c9.329,1.295,18.798,2.141,28.174,3.389
				c16.341,2.178,15.181-0.23,18.489,16.332c3.88,19.408,7.716,38.826,11.535,58.248c1.072,5.447,0.482,6.238-5.18,5.473
				c-14.662-1.981-29.293-4.199-43.933-6.34c-19.414-2.84-38.813-5.785-58.244-8.512c-9.235-1.295-9.707-1.5-11.53-10.638
				c-4.009-20.063-8-40.129-11.974-60.196c-0.157-0.799-0.058-1.65-0.075-2.479c0.881-1.871,1.696-2.852,4.389-2.344
				c7.885,1.49,15.863,2.625,23.855,3.309C157.187,943.126,161.222,944.229,164.923,942.093z M199.146,992.671
				c-0.153-8.967-3.439-14.524-9.551-18.213c-7.566-4.564-14.813-0.334-14.738,8.459c0.058,6.834,3.263,12.096,8.627,16.078
				c3.23,2.395,6.892,3.613,10.731,1.637C198.047,998.66,199.25,995.099,199.146,992.671z"/>
			<path fill="#E4BE8D" d="M264.035,896.035c-2.026,0.781-3.412-0.883-5.103-1.373c-4.119-1.189-7.925-1.35-10.646,2.719
				c-0.654,0.979-1.094,2.117-2.62,1.701c-1.401-0.383-1.524-1.557-1.798-2.705c-1.447-6.08-1.572-12.395-0.569-18.346
				c2.149-12.754,2.14-25.814,5.707-38.359c1.384-4.861,3.511-9.299,6.146-13.523c1.697-2.721,8.054-3.756,11.187-1.896
				c2.354,1.396,4.597,2.988,6.89,4.49c7.94,5.207,16.543,3.336,24.939,1.996c6.166-0.984,11.572,0.805,16.895,3.237
				c3.32,1.521,5.432,8.289,4.623,13.347c-0.949,5.918-3.314,11.893,1.021,17.553c0.814,1.063-0.549,2.121-0.801,3.215
				c-1.496,6.506-3.119,12.982-4.609,19.49c-1.475,6.416-5.742,10.987-9.887,15.733c-2.217,2.537-5.563,2.388-8.066,4.406
				c-1.464-6.313-6.048-8.297-11.529-8.651c-4.476-0.291-8.994,0.143-13.469-0.146c-2.964-0.188-6.341,0.189-8.361-2.934
				c2.096-0.17,4.188-0.343,6.145-0.5c-2.324-1.063-5.588-0.636-7.139-3.603c-1.537-2.945,0.453-5.633,0.863-8.719
				c-5.59,6.047-5.586,6.043-0.502,11.66C263.649,895.164,263.81,895.628,264.035,896.035z M283.146,870.117
				c-1.479-0.224-1.932,0.805-1.967,1.897c-0.035,1.064,0.983,0.961,1.735,1.033c0.762,0.724,1.522,1.443,2.284,2.164
				c4.018,1.637,8.225,2.396,12.527,2.701c1.625,0.219,3.076-0.369,4.518-0.988c1.523-0.268,3.105-0.66,2.859-2.635
				c-0.33-2.639-1.824-4.732-4.396-5.408c-4.434-1.162-8.95-2.012-13.454-2.887c-3.558-0.689-4.742,0.887-3.758,4.276
				L283.146,870.117z M249.082,865.958c-1.174,1.43,0.203,1.889,0.979,2.576l-0.021-0.135c3.5,3.352,8.389,2.174,12.417,3.795
				c2.83,0.735,3.864-1.709,5.494-3.103c1.707-2.744,2.179-5.602-1.535-6.646c-4.237-1.193-8.688-1.779-13.09-2.188
				c-2.438-0.227-4.321,1.521-5.464,3.639c-0.566,1.054-0.881,2.552,1.35,2.107L249.082,865.958z M289.793,859.771
				c5.33-0.591,9.808,0.709,13.741,3.959c0.803,0.659,1.91,1.959,2.947,0.612c0.889-1.147-0.332-2.168-1.094-2.953
				c-4.072-4.19-9.115-5.983-14.886-5.483c-2.289,0.196-6.198-0.713-6.103,2.461C284.504,861.55,288.138,859.068,289.793,859.771z
				 M258.3,849.619c-2.842,0.225-5.591,0.762-7.988,2.432c-0.689,0.48-1.416,1.063-1.119,2c0.349,1.094,1.334,0.861,2.049,0.543
				c5.548-2.477,10.666-1.319,15.628,1.666c0.961,0.58,2.202,1.354,2.92-0.239c0.569-1.271-0.308-2.201-1.291-2.929
				C265.465,850.861,262.06,849.716,258.3,849.619z M263.989,881.48c1.906-1.384,2.506-3.066,1.826-5.173
				C265.207,878.035,264.599,879.757,263.989,881.48z"/>
			<path fill="#BAD4E4" d="M300.274,935.757c2.676,1.545,2.793-0.873,3.695-2.281c0.801-1.25-2.104-1.604-0.703-2.229
				c1.738-0.775,2.359,1.082,3.146,2.387c1.117,1.842-0.77,3.412-0.346,6.179c3.586-5.226,7.326-2.5,11.318-1.404
				c-4.131,2.205-6.855,5.281-7.689,9.93c2.877-0.596,2.877-0.596,4.367-2.771c4.674-6.822,13.439-6.841,17.006,0.608
				c7.291,15.23,13.959,30.756,20.711,46.236c1.33,3.047,0.824,6.299-1.637,8.809c-2.531,2.582-5.551,3.328-9.113,2.138
				c-11.125-3.726-22.275-7.361-33.438-10.972c-1.992-0.645-4.061-1.145-6.129-1.438c-4.461-0.631-5.121-3.314-3.98-7.008
				c0.633-2.047,1.404-4.056,2.172-6.056c1.5-3.897,4.088-4.739,7.896-3.055c9.633,4.273,20.053,6.129,29.945,9.605
				c1.625,0.569,3.043,0.885,4.91,0.217c-0.936-2.443-2.971-3.144-4.721-3.506c-9.203-1.918-17.121-5.234-18.514-17.146
				c-4.428,5.168,0.453,7.93,0.451,11.314c-4.449-0.174-8.078-2.736-12.17-3.793c-2.297-0.597-4.719-2.082-6.922,0.293
				c-1.266,1.367-1.709-0.035-2.123-0.74c-3.23-5.523-6.15-11.152-3.936-17.865c0.83-2.514,0.006-4.391-2.416-4.932
				c-1.353-0.303-3.826-0.447-3.14,2.521l-0.151,0.146c-2.904-0.539-2.373,2.018-3,3.428c-1.928,4.34-6.783,5.771-9.699,2.777
				l-0.036-0.104c0.405-0.049,0.813-0.096,1.22-0.143c-0.068-0.291-0.139-0.58-0.209-0.869l-0.012,0.012
				c0.408-0.047,0.816-0.096,1.229-0.143c-0.07-0.291-0.143-0.582-0.215-0.873l-0.031,0.022c1.313,0.929,1.666-0.039,2.008-1.02
				l0.002-0.002c0.688,0.016,1.039-0.301,1.006-1.006l-0.002,0.002c0.705,0.041,1.066-0.267,1-0.998l0.012-0.017
				c1.339-0.444,2.128-1.114,1.035-2.551C289.795,946.136,294.91,940.789,300.274,935.757z"/>
			<path fill="#9C9599" d="M302.704,926.427c5.398-2.944,9.938-6.739,12.541-12.44c0.646-1.404,1.881-1.763,3.287-1.814
				c7.49-0.293,14.949-0.445,22.33,1.414c12.133,3.059,18.48,11.717,20.963,23.039c4.039,18.414,2.422,36.924-0.943,55.318
				c-0.338,1.832-1.479,2.608-3.016,2.784c-1.799,0.209-1.957-1.491-2.422-2.661c-5.844-14.658-12.744-28.854-19.055-43.304
				c-2.822-6.465-7.041-10.668-13.869-12.356c-2.404-0.601-4.693-1.689-7.107-2.23c-3.287-0.731-6.262-1.461-8.012-4.969
				C306.743,927.88,304.427,927.386,302.704,926.427z"/>
			<path fill="#BAD4E4" d="M275.938,986.013c4.953,2.017,10.109,1.479,15.229,1.142c2.171-0.146,4.054-0.332,3.722,2.789
				c-0.229,2.149,1.295,2.715,3.02,3.203c4.744,1.344,9.389,3.146,14.199,4.122c5.486,1.115,6.211,3.689,5.291,8.966
				c-0.752,4.317-2.396,4.28-5.582,3.764c-12.596-2.053-25.207-4.01-37.813-6.004C274.167,997.947,273.53,991.816,275.938,986.013z"
				/>
			<path fill="#9C9599" d="M263.017,1004.953c13.02,2.195,25.978,4.908,39.074,6.426c11.191,1.297,22.215,3.633,33.424,4.771
				c7.395,0.748,14.742,2.03,22.104,3.125c0.994,0.146,2.025,0.606,1.945,1.856c-0.076,1.172-1.041,1.57-2.076,1.775
				c-4.758,0.947-9.473,0.43-14.195-0.313c-3.846-0.602-7.701-1.096-11.557-1.637c-0.08,0.449-0.16,0.9-0.24,1.35
				c7.189,1.322,14.383,2.646,21.57,3.97c-0.043,0.307-0.084,0.61-0.127,0.922c-8.086-1.063-16.172-2.121-24.258-3.185
				c3.678,3.222,8.602,1.996,12.334,4.972c-6.297-0.718-12.605-1.337-18.887-2.179c-4.746-0.637-9.447-1.594-14.186-2.328
				c-2.613-0.403-4.217-1.271-3.738-4.459c0.805-5.334-2.574-6.622-7.083-7.264c-12.126-1.717-24.206-3.75-36.306-5.658
				c1.154-0.192,2.229-0.469,2.084-2.01L263.017,1004.953z M328.968,1021.14c-1.533-1.377-2.703-1.313-4.34-0.69
				C326.097,1021.025,327.089,1021.869,328.968,1021.14z"/>
			<path fill="#E4BE8D" d="M288.926,950.796c2.157-0.215,3.845-0.039,3.015,2.926c-1.82,6.505,0.897,12.005,3.91,17.466
				c3.828,6.938-0.07,13.815-7.955,13.799c-4.045-0.013-8.144,0.75-12.051-1.855c-3.346-2.229-1.089-6.041-3.521-8.072
				c1.16-1.567,2.271,1.029,3.217-0.428c0.021-0.09,0.102-0.319,0.064-0.338c-3.604-1.912-2.504-5.51-3.32-8.5
				c-0.485-1.779-1.059-3.455,0.408-4.35c1.461-0.896,3.457-0.58,5.127,0.438c6.83,4.17,8.293,3.521,9.748-4.268
				c0.416-2.221,0.81-4.443,1.209-6.668C288.772,950.945,288.926,950.796,288.926,950.796z"/>
			<path fill="#E4BE8D" d="M300.274,935.757c-5.363,5.031-10.479,10.379-17.199,13.713c-0.254,0.89-2.104,1.125-1.034,2.554
				l-0.013,0.014c-0.41,0.045-0.823,0.09-1.236,0.135c0.08,0.287,0.16,0.574,0.238,0.861h0.002
				c-0.358-0.021-0.719-0.035-1.076-0.053c0.021,0.352,0.047,0.702,0.068,1.057c0,0-0.002,0.002,0,0.002
				c-1.34-0.979-1.707-0.043-2.008,1.02l0.03-0.022c-0.729-0.053-1.094,0.26-1.014,1.016l0.012-0.012
				c-0.758-0.084-1.097,0.252-1.011,1.012l0.037,0.104c-3.959,2.401-2.86-2.894-4.985-3.277c-0.354-2.901-0.711-5.805-1.065-8.707
				c0.961-10.049,0.94-10.149,11.024-11.977c5.213-0.943,10.146-2.808,15.526-4.31C296.722,931.863,297.356,934.492,300.274,935.757
				z"/>
			<path fill="#E4BE8D" d="M321.403,901.019c-2.922,0.13-5.051-0.59-3.475-4.836c1.084-2.928,1.594-6.069,2.314-9.127
				c1.477-6.223,6.328-9.356,11.449-11.905c3.676-1.828,6.109,0.553,7.039,3.985C340.909,887.16,330.134,901.033,321.403,901.019z
				 M328.136,882.126c4.916-0.121,2.041,4.047,3.297,5.977c3.363-3.063-1.107-6.729,0.955-9.979
				c-2.039,0.783-3.768,1.643-4.631,3.594c-1.777,0.678-2.516,1.98-2.305,4.033C326.573,884.601,327.784,883.703,328.136,882.126z
				 M335.444,877.564c-0.107-0.086-0.229-0.25-0.332-0.238c-0.264,0.029-0.52,0.135-0.775,0.211
				c0.105,0.088,0.227,0.258,0.322,0.248C334.927,877.755,335.187,877.652,335.444,877.564z"/>
			<path fill="#E4BE8D" d="M284.879,908.816c2.103-0.189,3.425-2.255,5.591-2.111c0.512,7.25-8.433,16.779-15.697,16.428
				c-1.119-0.055-2.629-0.172-3.256-0.883c-3.192-3.621-6.488-4.564-10.807-1.766c-1.475,0.95-3.139-0.513-4.375-1.646
				c-4.145-3.793-6.273-13.188-4.333-18.922c3.17,0.137,1.854,4.891,5.101,4.955L257.067,905c-1.424,0.768-0.394,1.727-0.062,2.443
				c3.451,7.465,17.796,10.68,24.733,5.475c1.32-0.992,3.308-1.703,3.195-3.959L284.879,908.816z"/>
			<path fill="#9C9599" d="M301.015,1016.572c-13.346,3.774-25.966,7.303-38.545,10.961c-2.089,0.604-3.367,0.891-3.869-1.853
				c-0.396-2.151-0.356-3.389,2.187-3.934c5.353-1.146,10.634-2.604,15.959-3.873c1.26-0.299,2.493-0.529,4.183-2.184
				c-6.599-0.906-12.429-1.724-18.263-2.498c-0.817-0.109-1.758,0.196-2.476-0.097c-1.698-0.694-4.998-0.424-4.438-2.871
				c0.598-2.602,3.282-0.649,4.991-0.397c11.618,1.709,23.221,3.531,34.833,5.291
				C297.188,1015.365,298.89,1015.191,301.015,1016.572z"/>
			<path fill="#9C9599" d="M202.663,1031.611c-7.875-1.283-15.671-2.521-23.454-3.843c-2.169-0.366-2.285-2.069-2.087-3.84
				c0.175-1.563,1.256-1.813,2.516-1.612c7.627,1.229,15.23,2.592,22.877,3.684c3.088,0.438,2.434,2.758,2.598,4.494
				C205.31,1032.593,203.421,1031.189,202.663,1031.611z"/>
			<path fill="#9C9599" d="M231.558,1030.132c7.813,1.133,14.836,2.158,21.861,3.166c2.117,0.303,2.709,1.656,2.504,3.553
				c-0.262,2.435-1.813,1.599-3.305,1.396c-6.895-0.912-13.792-1.791-20.708-2.508c-2.084-0.218-2.972-1.039-2.937-3.08
				C229.015,1030.287,230.506,1030.025,231.558,1030.132z"/>
			<path fill="#9C9599" d="M222.517,1035.128c-4.111-1.379-8.477-2.061-12.869-2.668c-1.881-0.26-2.674-1.854-2.474-3.729
				c0.238-2.207,1.972-1.927,3.408-1.755c4.25,0.507,8.481,1.168,12.729,1.688c2.625,0.322,3.737,1.719,3.558,4.322
				C226.646,1036.234,223.981,1034.064,222.517,1035.128z"/>
			<path fill="#9C9599" d="M171.674,1026.955c-3.125-0.424-6.249-0.824-9.366-1.271c-2.688-0.385-4.451-1.928-4.051-4.674
				c0.514-3.494,3.01-1.365,4.688-1.184c3.125,0.34,6.229,0.897,9.352,1.266c2.604,0.303,2.527,2.174,2.555,4.039
				C174.881,1027.652,173.044,1026.895,171.674,1026.955z"/>
			<path fill="#BAD4E4" d="M164.923,942.093c-3.701,2.136-7.734,1.033-11.5,0.713c-7.992-0.682-15.974-1.815-23.855-3.307
				c-2.69-0.51-3.508,0.473-4.389,2.342c-0.859-4.01,0.91-4.938,4.643-4.408C141.505,939.097,153.22,940.556,164.923,942.093z"/>
			<path fill="#BAD4E4" d="M257.101,904.873c0.094-1.252,0.287-2.273,2-1.568c7.457,3.064,15.342,3.521,23.254,3.576
				c1.604,0.012,2.184,0.639,2.524,1.937c-0.001,0.002,0.06,0.145,0.06,0.146c-9.646,1.191-19.045,0.625-27.869-3.961
				L257.101,904.873z"/>
			<path fill="#9C9599" d="M156.347,1024.525c-3.777-0.615-7.519-1.074-11.181-1.888c-1.782-0.395-3.772-1.895-3.431-3.623
				c0.396-1.989,2.738-1.938,4.611-1.6c1.291,0.234,2.59,0.754,3.863,0.693C154.565,1017.904,156.625,1019.813,156.347,1024.525z"/>
			<path fill="#9C9599" d="M273.479,1016.9c-4.522,1.295-9,2.813-13.588,3.813c-3.686,0.806-2.541-2.582-3.029-4.332
				c-0.688-2.471,0.893-2.813,2.818-2.496c4.549,0.748,9.094,1.527,13.641,2.295C273.375,1016.421,273.429,1016.66,273.479,1016.9z"
				/>
			<path fill="#9C9599" d="M275.938,986.013c-2.406,5.806-1.771,11.937-1.934,17.979c-1.76-0.019-3.605,0.596-5.188-0.719
				c6.604-0.306,4.553-5.66,3.785-8.392c-1.183-4.209-0.479-8.086-0.295-12.117C273.521,983.849,274.729,984.931,275.938,986.013z"
				/>
			<path fill="#9C9599" d="M254.015,1001.013c2.725,0.408,5.446,0.816,8.172,1.229c-1.471,1.438,0.375,1.861,0.83,2.713
				c0,0-0.111,0.139-0.109,0.139c-2.678,0.438-5.521-2.932-8.07,0.354C253.892,1004.091,254.133,1002.519,254.015,1001.013z"/>
			<path fill="#E4BE8D" d="M254.835,1005.445c2.553-3.285,5.396,0.082,8.068-0.354c0.146,1.541-0.932,1.814-2.084,2.01
				C258.83,1006.531,256.31,1007.882,254.835,1005.445z"/>
			<path fill="#FEFEFE" d="M248.013,967.14c4.391,0.146,8.895-0.862,13.119,1.152c-4.342-0.842-8.729-0.162-13.076-0.447
				C247.799,967.625,247.785,967.39,248.013,967.14z"/>
			<path fill="#9C9599" d="M350.802,1029.201c-2.066,0.607-4.248,1.199-6.195-0.59
				C346.671,1028.808,348.735,1029.005,350.802,1029.201z"/>
			<path fill="#654027" d="M262.372,943.355c0.691,1.803-2.68,6.131,3.182,4.879c0.869-0.188,0.596,2.229,0.314,3.453
				c-5.922-1.063-6.385-4.625-4.313-9.345C261.828,942.683,262.101,943.019,262.372,943.355z"/>
			<path fill="#654027" d="M261.558,942.345c0.314-0.395,0.771-0.639,1.069-0.153c0.149,0.239-0.155,0.768-0.257,1.166
				C262.101,943.019,261.828,942.683,261.558,942.345z"/>
			<path fill="#FEFEFE" d="M199.146,992.671c0.104,2.428-1.1,5.988-4.931,7.961c-3.842,1.979-7.5,0.76-10.731-1.637
				c-5.364-3.982-8.569-9.244-8.627-16.078c-0.071-8.793,7.172-13.023,14.738-8.459
				C195.705,978.146,198.991,983.705,199.146,992.671z"/>
			<path fill="#654027" d="M283.496,870.275c-0.983-3.394,0.2-4.968,3.758-4.277c4.504,0.875,9.021,1.725,13.456,2.887
				c2.57,0.679,4.064,2.771,4.396,5.408c0.246,1.975-1.338,2.367-2.861,2.635c0.762-2.606,0.469-4.744-3.52-6.104
				c1.516,3.033-1.271,4.609-0.998,7.092c-4.305-0.305-8.512-1.063-12.526-2.699c1.128-0.91,3.502,1.369,3.853-1.483
				c0.186-1.511,0.944-3.818,0.277-4.379c-1.402-1.183-3.395-0.552-4.896,0.78C284.235,870.308,283.813,870.234,283.496,870.275z"/>
			<path fill="#654027" d="M262.457,872.193c-4.028-1.621-8.916-0.443-12.415-3.795c0.639,0.149,1.298,0.489,1.907,0.416
				c1.256-0.154,3.477,1.278,3.516-0.945c0.028-1.539,1.49-3.603,0.058-4.541c-1.363-0.896-3.539-0.914-4.979,0.707
				c-0.521,0.588-0.892,1.311-1.328,1.973c-2.229,0.441-1.916-1.059-1.35-2.108c1.143-2.119,3.022-3.863,5.464-3.64
				c4.398,0.408,8.854,0.994,13.09,2.189c3.714,1.047,3.242,3.901,1.536,6.646c-1.878-0.766-0.813-4.049-3.86-4.139
				C265.753,867.929,261.563,869.365,262.457,872.193z"/>
			<path fill="#654027" d="M289.793,859.771c-1.655-0.705-5.289,1.776-5.39-1.404c-0.1-3.174,3.813-2.262,6.102-2.461
				c5.77-0.5,10.813,1.293,14.885,5.483c0.764,0.785,1.98,1.806,1.096,2.953c-1.037,1.347-2.146,0.047-2.949-0.612
				C299.601,860.482,295.123,859.183,289.793,859.771z"/>
			<path fill="#654027" d="M258.299,849.621c3.761,0.098,7.166,1.242,10.197,3.471c0.983,0.728,1.86,1.658,1.291,2.928
				c-0.718,1.595-1.959,0.82-2.92,0.24c-4.962-2.988-10.08-4.143-15.628-1.666c-0.717,0.318-1.701,0.551-2.049-0.543
				c-0.297-0.938,0.43-1.52,1.119-2C252.709,850.38,255.458,849.843,258.299,849.621z"/>
			<path fill="#654027" d="M264.035,896.035c-0.228-0.406-0.386-0.871-0.688-1.207c-5.084-5.615-5.089-5.611,0.502-11.658
				c-0.41,3.086-2.402,5.771-0.863,8.719c1.551,2.965,4.813,2.537,7.139,3.601c-1.954,0.157-4.049,0.33-6.145,0.5L264.035,896.035z"
				/>
			<path fill="#FEFEFE" d="M249.212,866.005c0.438-0.66,0.807-1.385,1.328-1.971c1.439-1.623,3.615-1.605,4.98-0.709
				c1.435,0.94-0.027,3.004-0.059,4.543c-0.039,2.225-2.26,0.791-3.518,0.942c-0.607,0.074-1.271-0.266-1.905-0.416
				c-0.001,0,0.021,0.138,0.021,0.138c-0.062-0.959,0.48-2.148-0.979-2.576L249.212,866.005z"/>
			<path fill="#FEFEFE" d="M283.496,870.275c0.317-0.041,0.739,0.032,0.938-0.146c1.502-1.332,3.489-1.961,4.896-0.781
				c0.667,0.562-0.095,2.869-0.278,4.38c-0.35,2.854-2.724,0.575-3.852,1.483c-0.762-0.721-1.521-1.44-2.284-2.166
				c-0.099-0.992,1.342-1.861,0.229-2.932L283.496,870.275z"/>
			<path fill="#BAD4E4" d="M262.457,872.193c-0.896-2.83,3.296-4.265,1.634-7.236c3.049,0.088,1.983,3.373,3.861,4.137
				C266.321,870.486,265.287,872.931,262.457,872.193z"/>
			<path fill="#FEFEFE" d="M297.729,877.914c-0.274-2.48,2.512-4.057,0.998-7.09c3.984,1.358,4.277,3.494,3.52,6.104
				C300.806,877.546,299.354,878.132,297.729,877.914z"/>
			<path fill="#654027" d="M263.989,881.48c0.607-1.726,1.219-3.447,1.826-5.173C266.494,878.414,265.896,880.099,263.989,881.48z"
				/>
			<path fill="#654027" d="M283.146,870.117c1.11,1.067-0.328,1.938-0.229,2.932c-0.752-0.07-1.771,0.031-1.734-1.031
				C281.216,870.921,281.668,869.894,283.146,870.117z"/>
			<path fill="#654027" d="M249.082,865.958c1.462,0.426,0.919,1.615,0.979,2.576C249.284,867.847,247.907,867.386,249.082,865.958z
				"/>
			<path fill="#654027" d="M282.04,952.021c-1.068-1.427,0.781-1.662,1.034-2.554C284.168,950.902,283.379,951.574,282.04,952.021z"
				/>
			<path fill="#654027" d="M278.017,955.058c0.301-1.063,0.668-1.998,2.008-1.021C279.683,955.019,279.33,955.984,278.017,955.058z"
				/>
			<path fill="#654027" d="M277.035,956.046c-0.08-0.754,0.282-1.063,1.014-1.014c0.072,0.291,0.144,0.582,0.216,0.871
				C277.854,955.953,277.444,956,277.035,956.046z"/>
			<path fill="#654027" d="M276.036,957.046c-0.086-0.76,0.253-1.096,1.011-1.01c0.07,0.289,0.14,0.578,0.209,0.867
				C276.851,956.953,276.442,957,276.036,957.046z"/>
			<path fill="#654027" d="M281.03,953.031c-0.078-0.287-0.158-0.574-0.238-0.861c0.413-0.045,0.826-0.09,1.236-0.135
				C282.097,952.767,281.735,953.072,281.03,953.031z"/>
			<path fill="#654027" d="M280.024,954.035c-0.021-0.354-0.047-0.705-0.068-1.06c0.357,0.021,0.718,0.035,1.074,0.056
				C281.063,953.734,280.713,954.052,280.024,954.035z"/>
			<path fill="#654027" d="M328.968,1021.14c-1.879,0.73-2.871-0.112-4.34-0.69C326.263,1019.828,327.435,1019.763,328.968,1021.14z
				"/>
			<path fill="#654027" d="M327.753,881.714c0.869-1.947,2.598-2.807,4.635-3.59c-2.063,3.248,2.41,6.916-0.953,9.979
				c-1.256-1.93,1.617-6.098-3.299-5.977C328.003,881.996,327.872,881.859,327.753,881.714z"/>
			<path fill="#654027" d="M328.136,882.126c-0.354,1.574-1.564,2.475-2.684,3.625c-0.211-2.053,0.525-3.354,2.303-4.035
				C327.872,881.859,328.003,881.996,328.136,882.126z"/>
			<path fill="#654027" d="M335.446,877.57c-0.262,0.082-0.52,0.186-0.787,0.215c-0.1,0.01-0.217-0.16-0.322-0.248
				c0.258-0.076,0.514-0.184,0.775-0.211C335.216,877.316,335.335,877.479,335.446,877.57z"/>
			<path fill="#654027" d="M257.067,905c8.826,4.586,18.225,5.152,27.869,3.961c0.11,2.254-1.873,2.965-3.193,3.957
				c-6.938,5.205-21.283,1.99-24.734-5.475C256.676,906.726,255.646,905.767,257.067,905z"/>
		</g>
	</g>
</g>
<g>
	<g>
		<g>
			<path fill="#F9B77A" d="M112.074,96.572c4.273-2.591,6.691-5.612,6.314-8.539c-0.375-2.928-3.478-5.24-8.267-6.669
				c4.273-2.591,70.468-26.776,55.15-34.887c-6.479-3.43-52.314,21.106-57.103,19.68c4.273-2.592-2.98-7.029-3.355-9.956
				c-0.52-4.047-2.215-6.323-7.553-6.887c-0.846,0.374-1.727,0.658-2.633,0.817c-0.941,0.389-1.922,0.668-2.93,0.791
				c-1.373,0.781-2.883,1.282-4.443,1.443c-3.02,1.583-6.635,1.895-9.992,0.075c-15.407,5.861-48.645,19.867-65.757,20.502
				c-36.793,1.364,2.775,45.35,2.775,45.35l35.216-9.119c16.793,3.358,62.7-1.403,65.827-4.531
				C118.856,101.106,116.862,98.001,112.074,96.572z"/>
		</g>
		<g>
			<path d="M107.638,66.521l0.387,0.115c2.119,0.631,10.033-2.721,22.771-8.241c13.701-5.937,30.75-13.325,34.24-11.476
				c1.559,0.823,2.221,1.811,1.98,3.031c-1.504,7.611-33.488,20.953-48.859,27.364c-4.484,1.872-7.449,3.108-8.296,3.623
				l-0.965,0.584l1.08,0.323c4.699,1.399,7.585,3.667,7.916,6.252c0.336,2.609-1.822,5.469-6.078,8.049l-0.965,0.584l1.08,0.322
				c1.621,0.483,2.904,1.165,3.711,1.973c1.896,1.897,0.681,3.91-0.672,5.264c-2.727,2.727-47.908,7.888-65.375,4.395l-0.112-0.023
				l-35.03,9.072c-2.24-2.556-22.277-25.894-17.328-37.579c1.763-4.163,6.608-6.422,14.4-6.711
				c14.769-0.548,41.022-10.82,58.395-17.618c2.965-1.159,5.658-2.212,7.955-3.08c-0.395-0.182-0.783-0.388-1.168-0.627
				c-2.092,0.798-4.482,1.731-7.152,2.776c-17.308,6.773-43.468,17.009-58.067,17.551C3.271,72.747-1.872,75.21-3.799,79.763
				c-5.46,12.893,16.758,37.81,17.707,38.863l0.203,0.226l35.399-9.167c16.886,3.315,62.746-1.269,66.166-4.689
				c2.335-2.335,2.58-4.77,0.671-6.678c-0.742-0.742-1.808-1.384-3.121-1.883c4.019-2.66,6.021-5.642,5.658-8.465
				c-0.357-2.791-2.994-5.155-7.449-6.706c1.412-0.649,3.934-1.701,7.107-3.026c16.723-6.975,47.848-19.958,49.455-28.093
				c0.328-1.659-0.508-3.057-2.492-4.109c-3.635-1.924-16.844,3.529-35.105,11.444c-8.596,3.724-17.443,7.558-20.89,8.164"/>
		</g>
	</g>
	<g>
		<g>
			<path fill="#F9B77A" d="M98.925,49.596c0,0,35.632-37.882,44.515-32.06c8.885,5.822-31.964,32.349-35.273,48.621"/>
		</g>
		<g>
			<path d="M107.677,66.058c1.637-8.053,12.205-18.479,21.527-27.677c7.896-7.789,15.354-15.146,14.986-18.834
				c-0.066-0.664-0.4-1.184-1.023-1.593c-7-4.587-34.046,21.533-43.878,31.985l-0.729-0.686
				c1.467-1.559,36.025-38.118,45.156-32.135c0.879,0.576,1.373,1.36,1.469,2.33c0.414,4.163-6.857,11.337-15.277,19.645
				c-9.223,9.098-19.673,19.41-21.25,27.164L107.677,66.058z"/>
		</g>
	</g>
	<g>
		<polygon fill="#48826D" points="45.479,58.907 -0.249,56.726 -53.818,110.296 26.669,123.613 		"/>
		<polygon points="27.381,124.745 46.794,57.968 0.708,55.77 0.229,56.248 46.136,58.438 27.025,124.179 -54.252,110.73 
			-54.687,111.164 26.943,124.672 		"/>
		<polygon points="45.479,58.907 26.669,123.613 -53.818,110.296 -54.252,110.73 27.025,124.179 46.136,58.438 0.229,56.248 
			-0.249,56.726 		"/>
	</g>
	<g>
		<path fill="#F9B77A" d="M99.267,49.13c0,0-15.477,5.595-19.543,4.711s9.559-51.278-5.186-47.14
			c-14.745,4.138-4.715,51.383-30.458,58.811"/>
		<path d="M44.219,65.991l-0.277-0.96c14.351-4.141,17.352-20.9,20-35.688C65.984,17.938,67.748,8.088,74.404,6.22
			c1.848-0.519,3.395-0.26,4.6,0.769c4.746,4.08,2.951,19.664,1.482,32.183c-0.719,6.123-1.611,13.771-0.654,14.182
			c3.877,0.843,19.113-4.637,19.266-4.693l0.34,0.941c-0.637,0.23-15.66,5.633-19.818,4.729c-1.805-0.396-1.336-4.969-0.127-15.276
			c1.365-11.635,3.215-27.579-1.139-31.306c-0.947-0.81-2.152-0.995-3.68-0.566c-6.053,1.699-7.766,11.263-9.748,22.337
			C62.226,44.593,59.167,61.679,44.219,65.991z"/>
	</g>
</g>
</svg>
