<svg width="231.33" height="139.165" xmlns="http://www.w3.org/2000/svg" version="1.1" enable-background="new 0 0 231.33 139.165" xml:space="preserve">
 <g>
  <title>Layer 1</title>
  <g id="Ebene_1_1_"/>
  <g id="Ebene_2" display="none">
   <g display="inline" id="svg_1">
    <g id="svg_2">
     <path fill="#FEFEFE" d="m251.056,1099c-64.979,0 -129.961,-0.025 -194.938,0.078c-3.174,0.006 -4.228,-0.299 -4.225,-3.959c0.129,-130.127 0.122,-260.252 0.028,-390.379c-0.002,-3.146 0.734,-3.818 3.837,-3.816c130.125,0.088 260.252,0.084 390.379,0.021c2.846,-0.002 3.965,0.274 3.963,3.688c-0.115,130.291 -0.111,260.584 -0.018,390.877c0.004,3.004 -0.633,3.574 -3.592,3.57c-65.143,-0.104 -130.292,-0.08 -195.434,-0.08zm-124.093,-78.977c-0.037,1.135 -0.037,2.258 1.015,3.026c1.143,3.476 3.619,5.646 6.877,7.06c2.258,3.764 5.664,6.366 9.058,8.983c0.47,2.252 1.688,3.703 4.122,3.854c0.295,0.035 0.588,0.086 0.878,0.146c0.233,1.82 1.185,2.869 3.101,2.879c0.303,0.023 0.604,0.064 0.9,0.121c0.852,3.119 3.42,4.066 6.119,4.853c0.296,0.037 0.59,0.088 0.881,0.147c2.039,3.496 5.438,4.894 9.097,5.879c0.306,0.023 0.604,0.063 0.905,0.121c0.137,1.088 0.796,1.715 1.74,2.22c13.486,7.161 27.851,11.922 42.615,15.567c0.979,0.242 1.985,0.137 2.729,-0.727c0.608,0.018 1.222,0.032 1.832,0.055c0.91,2.334 2.405,2.219 4.168,0.998c0.61,0 1.224,0 1.833,0.002c1.275,2.668 3.152,2.135 5.148,0.965c0.625,0.004 1.252,0.008 1.879,0.01c2.726,3.23 5.965,1.843 9.141,1.021c2.102,-0.541 4.012,0.512 6.021,0.721c3.809,1.275 7.611,2.521 11.119,-0.74c1.953,-0.01 3.906,-0.02 5.86,-0.028c5.847,2.25 11.492,-0.355 17.207,-0.854c1.64,-0.143 4.205,0.646 4.935,-2.115c0.619,-0.01 1.237,-0.02 1.858,-0.028c0.776,0.891 1.696,0.729 2.728,0.506c18.803,-4.045 36.363,-11.178 52.523,-21.568c3.908,-2.516 8.604,-4.32 10.828,-8.967c0.314,-0.059 0.635,-0.105 0.949,-0.146c7.021,-4.102 13.408,-8.922 17.973,-15.813l-0.016,-0.295c2.754,-0.146 3.848,-2.283 5.088,-4.244c1.33,-2.104 2.385,-4.469 4.059,-6.252c12.854,-13.703 22.854,-29.256 30.299,-46.457c8.18,-18.898 12.973,-38.611 13.453,-59.252c0.213,-9.16 -0.068,-18.33 0.088,-27.494c0.066,-3.912 -0.377,-7.611 -2.18,-11.104c0.275,-1.823 -0.082,-3.573 -0.328,-5.395c-0.73,-5.398 -4.732,-9.646 -5.352,-14.889c-1.295,-10.988 -5.938,-20.482 -11.455,-29.841c-8.178,-13.87 -17.559,-26.815 -28.227,-38.844c-7.588,-8.551 -16.541,-15.438 -26.477,-21.063c-0.332,-0.326 -0.664,-0.654 -0.996,-0.98c0.178,-2.135 -1.48,-3.332 -2.711,-4.469c-5.123,-4.725 -10.314,-9.5 -18.141,-8.6c-22.938,-11.791 -47.494,-17.027 -73.092,-18.033c-10.789,-0.424 -21.502,0.826 -32.151,2.149c-7.464,0.933 -15.046,1.996 -21.993,5.343c-4.674,0.456 -8.947,2.116 -13.047,4.315c-6.229,2.127 -12.072,5.107 -17.879,8.162c-0.66,0.34 -1.321,0.68 -1.98,1.021c-4.304,0.362 -8.354,1.149 -10.003,5.967l-0.063,0.03c-6.813,4.687 -13.571,9.437 -18.973,15.818c-0.734,0.398 -1.473,0.797 -2.207,1.195c-12.902,10.405 -22.305,23.815 -31.729,37.182c-3.423,4.854 -7.006,9.707 -8.089,15.795c-2.146,3.431 -4.228,6.888 -5.088,10.912c-1.462,2.451 -1.313,4.06 2.058,4.213c1.471,0.068 2.929,0.603 4.392,0.601c3.614,-0.007 4.479,1.327 3.794,5.02c-2.027,10.951 -1.84,11.17 -12.894,11.18c-3.614,0.002 -4.854,1.771 -5.02,4.613c-0.215,3.699 2.899,2.531 4.708,2.453c15.065,-0.646 30.131,-1.215 45.213,-0.924c0.224,2.895 -1.608,3.086 -3.824,3.067c-12.867,-0.114 -25.688,1.658 -38.568,0.98c-2.001,-0.104 -3.908,0.52 -5.852,0.752c-3.345,0.406 -4.122,2.219 -3.707,5.119c-0.079,0.737 -0.158,1.475 -0.237,2.213c-3.091,14.801 -1.844,29.66 -0.495,44.508c0.195,2.156 1.102,3.254 3.992,2.642c7.594,-1.619 15.305,-2.712 22.993,-3.845c10.463,-1.537 20.716,-4.608 31.427,-4.354c0.25,3.477 -1.018,5.401 -4.757,6.201c-15.978,3.42 -31.887,7.146 -47.838,10.688c-1.483,0.33 -2.992,0.15 -3.164,2.285c-0.251,3.125 -0.732,6.229 -0.984,9.354c-0.849,10.502 4.744,19.138 8.559,28.195c5.694,13.533 16.029,24.213 23.571,36.646c2.08,3.428 3.84,7.813 8.791,8.575c0.336,0.335 0.666,0.663 0.993,0.993z" id="svg_3"/>
     <path fill="#D0F096" d="m140.931,773.765c5.399,-6.379 12.158,-11.131 18.975,-15.813c0.498,7.617 0.438,15.252 0.85,22.883c0.941,17.547 1.92,35.084 3.143,52.617c0.83,11.895 1.914,23.752 2.98,35.621c1.837,20.432 3.934,40.815 7.089,61.09c0.617,3.967 5.423,8.762 8.843,7.479c5.806,-2.176 10.979,-0.588 16.342,0.927c1.238,0.35 2.938,0.405 2.58,-1.072c-1.217,-5.07 2.396,-9.504 1.354,-14.578c-2.427,-11.785 -1.563,-23.881 -1.716,-35.734c-0.415,-31.604 -0.882,-63.229 0.358,-94.875c0.703,-17.914 1.916,-35.881 1.151,-53.854c6.947,-3.344 14.529,-4.41 21.993,-5.34c10.648,-1.326 21.363,-2.576 32.152,-2.152c25.597,1.006 50.152,6.242 73.09,18.033c-0.02,22.051 -0.037,44.104 -0.057,66.154c-14.826,-9.935 -31.188,-14.004 -48.736,-11.146c-17.072,2.781 -28.942,12.006 -33.707,29.586c-2.612,9.646 -4.223,19.363 -5.588,29.205c-1.506,10.871 -2.715,21.707 -2.106,32.732c0.603,10.903 3.015,20.967 10.623,29.299c2.172,2.379 3.918,5.147 5.958,7.873c-7.715,0.449 -11.605,3.094 -12.508,8.305c-0.092,0.457 -0.184,0.916 -0.271,1.375c-2.806,0.982 -1.27,3.373 -1.625,5.131c-0.269,1.314 -0.103,2.728 -2.259,2.193c-10.614,-2.613 -21.537,-3.242 -32.328,-4.603c-15.604,-1.961 -31.2,-4.02 -46.875,-5.547c-9.586,-0.934 -19.255,-2.719 -28.874,-4.194c-3.037,-0.47 -6.328,-1.427 -8.796,1.614c-10.472,2.347 -20.938,4.709 -31.421,7.011c-1.33,0.291 -3.017,0.344 -3.184,1.858c-0.405,3.701 0.707,7.4 2.483,10.396c1.082,1.824 4.222,0.719 6.513,0.147c8.799,-2.18 17.629,-4.229 26.446,-6.334c1.924,9.412 3.79,18.834 5.803,28.229c0.664,3.098 -0.057,3.623 -3.217,3.043c-7.977,-1.463 -16.042,-2.435 -24.071,-3.619c-0.747,-0.109 -1.713,-0.795 -1.914,0.498c-0.146,0.934 0.827,1.33 1.503,1.793c4.788,12.756 12.504,23.564 22.055,33.152c0.731,1.896 1.468,3.793 2.2,5.688l-0.182,0.197c-4.951,-0.76 -6.711,-5.148 -8.791,-8.578c-7.542,-12.432 -17.876,-23.111 -23.571,-36.646c-3.813,-9.061 -9.405,-17.692 -8.558,-28.194c0.252,-3.125 0.732,-6.23 0.984,-9.355c0.172,-2.135 1.681,-1.955 3.164,-2.284c15.951,-3.541 31.86,-7.269 47.838,-10.688c3.74,-0.799 5.007,-2.725 4.761,-6.201c0.336,-0.713 0.67,-1.426 1.006,-2.137c2.875,2.578 1.488,5.697 1.27,8.75c-0.102,1.387 -1.02,3.938 1.529,3.904c1.959,-0.029 2.119,-2.47 1.971,-3.978c-1.1,-11.016 -1.328,-22.084 -2.396,-33.115c-1.672,-17.272 -2.879,-34.657 -3.004,-52.006c-0.135,-18.766 -1.697,-37.492 -1.211,-56.262c0.068,-2.822 -0.026,-5.65 -0.041,-8.478zm13.486,63.715c-1.775,0.602 -1.158,1.797 -1.42,2.651c-2.553,8.33 0.124,16.715 0.508,24.937c0.479,10.256 0.822,20.655 2.371,30.93c1.336,8.861 1.359,17.914 2.46,26.822c0.263,2.11 -0.321,6.381 3.662,5.901c3.676,-0.438 2.004,-4.123 1.856,-6.174c-0.428,-6.002 -1.528,-11.953 -2.237,-17.938c-1.207,-10.191 -2.515,-20.375 -3.39,-30.599c-0.513,-5.969 -0.871,-12.014 -1.561,-17.916c-0.711,-6.115 -0.25,-12.526 -2.249,-18.614zm0.632,-6.895c-1.098,-1.031 -0.134,-3.836 -2.61,-4.268c-1.482,-0.261 -1.502,1.502 -1.353,2.602c0.263,1.916 0.521,4.176 2.868,4.519c1.285,0.187 0.865,-1.442 1.095,-2.853z" id="svg_4"/>
     <path fill="#D0F096" d="m423.794,873.07c1.803,3.489 2.244,7.188 2.18,11.104c-0.156,9.162 0.125,18.332 -0.088,27.494c-0.48,20.641 -5.273,40.354 -13.453,59.25c-7.445,17.201 -17.443,32.756 -30.299,46.459c-1.676,1.783 -2.729,4.15 -4.059,6.252c-1.242,1.961 -2.334,4.096 -5.088,4.244c0.35,-1.957 0.693,-3.914 1.041,-5.871c1.361,-3.328 -1.51,-2.707 -2.896,-2.74c-4.652,-0.104 -5.107,-1.938 -4.014,-6.233c5.377,-21.066 8.111,-42.404 5.898,-64.229c-2.273,-22.436 -11.563,-33.098 -33.607,-37.977c-7.289,-1.613 -14.646,-1.939 -22.943,-1.092c1.918,-2.32 0.852,-5.341 4.432,-5.591c11.24,-0.778 16.51,-8.563 20.236,-17.889c1.184,-2.959 1.896,-6.295 -0.023,-9.119c-2.225,-3.27 -1.529,-6.102 0.229,-9.086c2.805,0.156 5.676,-0.018 8.4,0.525c9.887,1.969 19.951,2.27 29.916,3.492c8.332,1.02 16.674,2.016 25.037,2.731c5.465,0.469 10.943,2.979 16.467,0.248c1.394,0.03 1.712,-1.371 2.634,-1.972z" id="svg_5"/>
     <path fill="#E4BE8D" d="m423.794,873.07c-0.922,0.602 -1.24,2.002 -2.635,1.975c-0.25,-2.766 -1.289,-4.723 -4.439,-5.041c-5.764,-0.578 -11.498,-1.354 -17.256,-1.965c-18.738,-1.98 -37.48,-3.918 -56.225,-5.873c0.215,-5.771 1.887,-11.396 1.615,-17.223c-0.561,-12.123 -6.205,-21.685 -14.799,-29.795c0.018,-22.054 0.035,-44.104 0.055,-66.156c7.824,-0.898 13.018,3.877 18.141,8.6c1.23,1.141 2.889,2.336 2.711,4.469l0.02,0.015c-1.449,1.123 -0.967,2.729 -0.969,4.159c-0.025,23.093 -0.023,46.185 0.002,69.273c0,0.814 -0.363,1.83 1.939,3.586c0,-26.152 0,-51.106 0,-76.063l0,0.012c9.939,5.625 18.893,12.51 26.48,21.063c10.668,12.023 20.049,24.974 28.227,38.845c5.518,9.354 10.16,18.852 11.455,29.84c0.617,5.242 4.619,9.49 5.352,14.889c0.244,1.814 0.601,3.564 0.326,5.39z" id="svg_6"/>
     <path fill="#E4BE8D" d="m202.876,738.453c0.764,17.973 -0.447,35.938 -1.15,53.854c-1.242,31.644 -0.774,63.271 -0.36,94.875c0.155,11.854 -0.71,23.947 1.717,35.732c1.044,5.074 -2.567,9.51 -1.353,14.58c0.354,1.479 -1.342,1.42 -2.582,1.072c-5.361,-1.517 -10.535,-3.103 -16.342,-0.927c-3.418,1.279 -8.225,-3.514 -8.842,-7.479c-3.154,-20.273 -5.252,-40.66 -7.089,-61.09c-1.065,-11.871 -2.151,-23.729 -2.979,-35.621c-1.224,-17.533 -2.199,-35.07 -3.144,-52.617c-0.411,-7.631 -0.351,-15.266 -0.851,-22.885l0.063,-0.031c3.741,-1.307 7.072,-3.301 10.001,-5.967c0.66,-0.34 1.321,-0.681 1.98,-1.021c1.068,0.822 1.054,2 1.043,3.175c-0.254,25.239 1.039,50.438 2.008,75.647c0.307,7.949 0.1,15.979 1.204,23.816c0.88,6.237 -0.063,12.791 3.032,18.789c0.432,-6.438 2.906,-12.705 1.246,-19.248c-0.547,-2.162 -0.992,-4.48 -0.318,-6.398c3.012,-8.602 -0.896,-17.861 2.71,-26.361c0.224,-0.521 -0.113,-1.297 -0.229,-1.944c-1.266,-7.029 1.069,-13.869 1.33,-20.836c0.184,-4.904 1.026,-10.058 1.387,-14.979c0.636,-8.697 2.365,-17.258 2.729,-25.932c0.199,-4.726 2.243,-9.14 1.739,-13.896c4.101,-2.189 8.376,-3.851 13.05,-4.308z" id="svg_7"/>
     <path fill="#BAD4E4" d="m142.808,914.951c-0.334,0.711 -0.668,1.424 -1.004,2.137c-10.714,-0.254 -20.967,2.818 -31.43,4.357c-7.688,1.131 -15.399,2.223 -22.993,3.842c-2.892,0.615 -3.797,-0.482 -3.992,-2.639c-1.35,-14.851 -2.597,-29.707 0.497,-44.513c16.892,-1.041 33.778,-2.088 50.714,-2.18c3.637,-0.021 5.974,1.168 6.235,4.777c0.837,11.394 2.769,22.73 1.973,34.219z" id="svg_8"/>
     <path fill="#BAD4E4" d="m98.905,827.941c1.086,-6.091 4.668,-10.941 8.092,-15.795c9.424,-13.365 18.822,-26.775 31.729,-37.185c0.055,16.648 0.133,33.297 0.131,49.947c0,2.471 -0.619,4.875 -1.94,7.031c-10.79,-1.041 -21.585,-1.979 -32.441,-1.898c-2.108,0.017 -4.42,0.464 -5.571,-2.1z" id="svg_9"/>
     <path fill="#D0F096" d="m189.829,742.769c0.504,4.757 -1.54,9.173 -1.739,13.896c-0.364,8.672 -2.095,17.232 -2.729,25.932c-0.357,4.922 -1.203,10.072 -1.385,14.979c-0.261,6.967 -2.596,13.805 -1.33,20.836c0.117,0.647 0.451,1.424 0.229,1.945c-3.605,8.5 0.302,17.76 -2.71,26.358c-0.672,1.92 -0.229,4.238 0.319,6.398c1.66,6.543 -0.815,12.813 -1.248,19.25c-3.098,-5.998 -2.151,-12.553 -3.031,-18.791c-1.105,-7.838 -0.898,-15.867 -1.204,-23.816c-0.968,-25.207 -2.263,-50.408 -2.008,-75.646c0.012,-1.175 0.026,-2.354 -1.042,-3.175c5.806,-3.059 11.648,-6.039 17.878,-8.166z" id="svg_10"/>
     <path fill="#BAD4E4" d="m136.073,866.005c-15.084,-0.291 -30.147,0.279 -45.214,0.924c-1.809,0.078 -4.923,1.246 -4.708,-2.453c0.166,-2.844 1.403,-4.608 5.02,-4.612c11.053,-0.01 10.864,-0.229 12.894,-11.181c0.685,-3.688 -0.18,-5.024 -3.794,-5.02c-1.463,0.002 -2.921,-0.531 -4.392,-0.6c-3.369,-0.154 -3.521,-1.763 -2.058,-4.214c1.587,1.813 3.716,1.063 5.622,1.105c12.848,0.295 25.688,0.617 38.474,2.063l0.063,0.064c-0.03,1.432 0.084,2.771 1.902,3.049c0.021,3.627 0.042,7.254 0.063,10.881c-0.773,2.615 -2.938,4.886 -1.967,7.935c0.317,1.012 0.637,2.022 0.957,3.039c-0.954,-0.325 -1.909,-0.653 -2.862,-0.98z" id="svg_11"/>
     <path fill="#E4BE8D" d="m374.028,1022.001c-0.346,1.957 -0.689,3.914 -1.041,5.869c0,0 0.016,0.295 0.016,0.293c-4.592,1.688 -7.498,5.617 -11.061,8.608c-2.5,2.104 -6.432,3.103 -6.912,7.209c-0.314,0.039 -0.635,0.089 -0.951,0.144c-1.936,-0.342 -3.104,1.166 -4.334,2.094c-14.566,11.01 -30.908,18.326 -48.207,23.867c-4.492,1.438 -9.43,1.399 -13.535,4.067c-0.621,0.013 -1.238,0.021 -1.859,0.029c-4.066,0.443 -8.227,0.508 -12.17,1.453c-3.316,0.797 -6.977,-0.971 -9.971,1.518c-1.954,0.011 -3.906,0.021 -5.861,0.027c-3.72,0.076 -7.523,-1.188 -11.117,0.742c-2.012,-0.209 -3.922,-1.262 -6.022,-0.723c-2.819,-2.367 -6.069,-0.871 -9.14,-1.021c-0.627,-0.002 -1.254,-0.006 -1.879,-0.01c-1.418,-1.929 -3.354,-1.06 -5.148,-0.965c-0.609,-0.002 -1.223,-0.002 -1.833,-0.005c-1.042,-1.784 -2.665,-1.145 -4.168,-0.995c-0.608,-0.021 -1.222,-0.037 -1.832,-0.06c-0.513,-1.078 -1.545,-1.041 -2.515,-1.25c-9.358,-2.021 -18.436,-4.938 -27.389,-8.338c-5.855,-2.223 -11.082,-5.846 -17.185,-7.471c-0.3,-0.059 -0.603,-0.1 -0.905,-0.121c-2.05,-3.48 -5.422,-4.912 -9.097,-5.879c-0.292,-0.063 -0.585,-0.111 -0.882,-0.148c-0.795,-3.188 -3.35,-4.155 -6.119,-4.852c-0.299,-0.059 -0.6,-0.098 -0.901,-0.121c-0.086,-1.979 -1.118,-2.938 -3.1,-2.879c-0.291,-0.063 -0.583,-0.111 -0.88,-0.148c-0.35,-2.379 -1.629,-3.764 -4.12,-3.852c-3.394,-2.617 -6.8,-5.225 -9.056,-8.986c0.1,-3.533 -4.746,-4.625 -4.146,-8.399c4.271,2.342 6.033,7.666 10.978,9.194c0.457,0.467 0.914,0.933 1.371,1.396c0.213,0.254 0.428,0.51 0.641,0.766l0.205,0.252c0.271,0.26 0.543,0.521 0.813,0.779c0.413,0.352 0.825,0.697 1.238,1.047c0.302,0.309 0.604,0.613 0.905,0.92l0.059,0.078c0.066,1.787 1.366,1.961 2.714,2.068l0.271,0.135c0.311,0.242 0.619,0.484 0.928,0.729l0.08,0.099c0.07,1.754 1.354,1.93 2.675,2.059l0.313,0.158c0.32,0.229 0.644,0.457 0.963,0.684l0.058,0.064c0.101,1.91 1.472,1.979 2.886,1.994l0.082,0.084c0.125,1.715 1.395,1.895 2.704,2.018l0.24,0.154c0.333,1.668 1.616,1.754 2.942,1.768l0.097,0.09c0.563,2.222 2.638,2.845 4.252,3.854c13.453,8.438 28.284,13.668 43.521,17.521c7.715,1.951 15.631,4.193 23.849,2.994l0.36,-0.151l0.375,0.114c0.047,0.24 0.094,0.48 0.141,0.724c0.135,-0.242 0.271,-0.484 0.404,-0.729c0.39,-0.018 0.774,-0.031 1.164,-0.047c0.357,1.127 1.242,1.49 2.306,1.494c7.472,0.016 14.942,0.018 22.413,0.014c1.048,0 1.968,-0.285 2.423,-1.364c1.633,-0.171 3.266,-0.343 4.897,-0.513c1.529,1.549 3.508,1.052 5.205,0.787c5.715,-0.885 11.459,-1.762 17.045,-3.207c2.695,-0.697 6.127,-0.207 7.916,-3.285c19.789,-5.657 37.695,-15.069 53.939,-27.586c6.893,-5.3 13.315,-11.214 19.947,-16.853z" id="svg_12"/>
     <path fill="#E4BE8D" d="m139.944,856.015c-0.021,-3.627 -0.041,-7.254 -0.063,-10.883c0.176,-1.521 -0.48,-2.522 -1.904,-3.047l-0.063,-0.063c-2.893,-3.104 -0.137,-6.771 -1,-10.076c1.322,-2.158 1.941,-4.563 1.941,-7.033c0,-16.648 -0.078,-33.297 -0.131,-49.945c0.731,-0.396 1.467,-0.797 2.203,-1.195c0.016,2.824 0.109,5.654 0.036,8.479c-0.485,18.771 1.077,37.496 1.212,56.262c0.123,17.349 1.331,34.73 3.004,52.006c1.067,11.031 1.297,22.103 2.396,33.115c0.148,1.508 -0.012,3.945 -1.971,3.978c-2.549,0.037 -1.631,-2.521 -1.529,-3.904c0.222,-3.051 1.605,-6.172 -1.27,-8.75c0.795,-11.488 -1.14,-22.824 -1.976,-34.217c-0.267,-3.607 -2.601,-4.795 -6.235,-4.777c-16.937,0.092 -33.823,1.144 -50.716,2.185c0.078,-0.736 0.157,-1.478 0.235,-2.214c4.324,-1.145 8.729,-1.776 13.199,-1.918c11.289,-0.352 22.583,-0.598 33.868,-1.057c3.813,-0.156 7.373,-1.119 7.75,-5.967c-0.318,-1.014 -0.64,-2.025 -0.957,-3.039c1.501,-2.444 4.527,-4.498 1.971,-7.94z" id="svg_13"/>
     <path fill="#D0F096" d="m136.916,831.943c0.864,3.307 -1.892,6.973 1,10.078c-12.785,-1.447 -25.627,-1.771 -38.475,-2.063c-1.906,-0.043 -4.036,0.705 -5.622,-1.107c0.86,-4.024 2.942,-7.479 5.086,-10.907c1.15,2.563 3.463,2.112 5.567,2.1c10.858,-0.082 21.653,0.856 32.444,1.899z" id="svg_14"/>
     <path fill="#D0F096" d="m138.935,866.986c-0.375,4.848 -3.938,5.813 -7.75,5.967c-11.283,0.459 -22.578,0.705 -33.867,1.057c-4.47,0.142 -8.875,0.771 -13.199,1.918c-0.414,-2.897 0.363,-4.713 3.708,-5.119c1.942,-0.231 3.851,-0.854 5.852,-0.752c12.883,0.681 25.702,-1.098 38.568,-0.979c2.216,0.02 4.048,-0.172 3.824,-3.068c0.955,0.322 1.91,0.65 2.864,0.976z" id="svg_15"/>
     <path fill="#BAD4E4" d="m288.002,1074.156c4.106,-2.668 9.043,-2.631 13.536,-4.07c17.297,-5.541 33.639,-12.854 48.207,-23.867c1.229,-0.928 2.398,-2.436 4.334,-2.094c-2.225,4.648 -6.918,6.453 -10.826,8.969c-16.16,10.396 -33.725,17.523 -52.523,21.568c-1.031,0.222 -1.952,0.384 -2.728,-0.506z" id="svg_16"/>
     <path fill="#BAD4E4" d="m169.914,1057.095c6.101,1.625 11.326,5.248 17.185,7.472c8.955,3.396 18.028,6.315 27.389,8.338c0.97,0.209 2.002,0.174 2.515,1.252c-0.743,0.862 -1.749,0.971 -2.729,0.729c-14.767,-3.646 -29.129,-8.406 -42.614,-15.568c-0.95,-0.507 -1.609,-1.135 -1.746,-2.223z" id="svg_17"/>
     <path fill="#BAD4E4" d="m355.03,1043.982c0.48,-4.107 4.412,-5.105 6.912,-7.207c3.563,-2.994 6.469,-6.924 11.061,-8.611c-4.565,6.897 -10.951,11.716 -17.973,15.818z" id="svg_18"/>
     <path fill="#BAD4E4" d="m264.002,1077.154c2.994,-2.486 6.651,-0.721 9.97,-1.519c3.944,-0.942 8.104,-1.01 12.17,-1.45c-0.728,2.764 -3.293,1.975 -4.933,2.114c-5.715,0.499 -11.36,3.105 -17.207,0.855z" id="svg_19"/>
     <path fill="#BAD4E4" d="m130.704,1021.703c-0.596,3.781 4.25,4.871 4.15,8.406c-3.26,-1.41 -5.735,-3.584 -6.879,-7.06c0.096,-0.771 0.19,-1.545 0.283,-2.313c0.815,0.324 1.63,0.646 2.446,0.967z" id="svg_20"/>
     <path fill="#D0F096" d="m169.97,751.951c-2.931,2.668 -6.262,4.662 -10.003,5.969c1.648,-4.816 5.7,-5.604 10.003,-5.969z" id="svg_21"/>
     <path fill="#BAD4E4" d="m247.022,1077.925c3.594,-1.93 7.397,-0.666 11.117,-0.741c-3.505,3.263 -7.31,2.017 -11.117,0.741z" id="svg_22"/>
     <path fill="#BAD4E4" d="m159.912,1051.095c3.674,0.968 7.046,2.4 9.097,5.879c-3.66,-0.988 -7.058,-2.383 -9.097,-5.879z" id="svg_23"/>
     <path fill="#BAD4E4" d="m231.86,1076.186c3.068,0.146 6.318,-1.351 9.14,1.02c-3.177,0.821 -6.416,2.208 -9.14,-1.02z" id="svg_24"/>
     <path fill="#BAD4E4" d="m152.912,1046.095c2.771,0.695 5.323,1.664 6.12,4.854c-2.7,-0.787 -5.269,-1.735 -6.12,-4.854z" id="svg_25"/>
     <path fill="#BAD4E4" d="m224.832,1075.21c1.794,-0.094 3.731,-0.961 5.147,0.965c-1.996,1.17 -3.873,1.703 -5.147,-0.965z" id="svg_26"/>
     <path fill="#BAD4E4" d="m143.91,1039.095c2.491,0.088 3.771,1.476 4.122,3.854c-2.435,-0.151 -3.652,-1.602 -4.122,-3.854z" id="svg_27"/>
     <path fill="#BAD4E4" d="m218.831,1074.21c1.503,-0.146 3.125,-0.789 4.168,0.996c-1.762,1.223 -3.258,1.338 -4.168,-0.996z" id="svg_28"/>
     <path fill="#BAD4E4" d="m148.91,1043.095c1.979,-0.061 3.014,0.9 3.101,2.879c-1.916,-0.01 -2.867,-1.058 -3.101,-2.879z" id="svg_29"/>
     <path fill="#D0F096" d="m128.263,1020.734c-0.096,0.771 -0.191,1.545 -0.287,2.315c-1.049,-0.771 -1.049,-1.895 -1.014,-3.026c0,0 0.198,-0.188 0.196,-0.187c0.368,0.302 0.738,0.602 1.105,0.898z" id="svg_30"/>
     <path fill="#E4BE8D" d="m350.962,762.06c0.332,0.328 0.664,0.654 0.994,0.982c-0.002,0 -0.002,-0.012 -0.002,-0.012c-0.322,-0.32 -0.648,-0.642 -0.977,-0.957l-0.015,-0.013z" id="svg_31"/>
     <path fill="#D0F096" d="m126.963,1020.023c-0.329,-0.33 -0.655,-0.658 -0.985,-0.988c0,0 0.182,-0.195 0.18,-0.193c0.335,0.332 0.67,0.664 1.006,0.996l-0.201,0.185z" id="svg_32"/>
     <path fill="#654027" d="m145.954,1035.145c-0.413,-0.349 -0.825,-0.695 -1.236,-1.048c0.01,-0.553 -0.255,-0.819 -0.814,-0.776c0,0 -0.205,-0.252 -0.202,-0.252c0.087,-0.51 -0.104,-0.783 -0.644,-0.769c-0.457,-0.467 -0.914,-0.932 -1.367,-1.395c-0.086,-2.148 2.254,-4.34 -0.162,-6.453c-1.945,-1.703 -2.354,-4.008 -1.954,-6.369c0.354,-2.082 -0.823,-3.026 -2.226,-3.981c-3.381,-8.486 -3.58,-17.724 -6.137,-26.418c-0.533,-1.816 -0.302,-3.515 -2.781,-3.854c-8.852,-1.217 -17.687,-2.545 -26.526,-3.83c-0.677,-0.463 -1.647,-0.859 -1.503,-1.793c0.201,-1.293 1.167,-0.607 1.914,-0.498c8.027,1.187 16.096,2.156 24.072,3.619c3.159,0.58 3.881,0.055 3.217,-3.043c-2.015,-9.396 -3.879,-18.814 -5.804,-28.228c-0.17,-4.364 -2.358,-8.604 -0.84,-13.082c2.466,-3.041 5.757,-2.084 8.796,-1.614c9.619,1.479 19.288,3.264 28.874,4.192c15.675,1.525 31.271,3.586 46.875,5.55c10.791,1.356 21.712,1.983 32.328,4.6c2.155,0.531 1.99,-0.877 2.257,-2.191c0.358,-1.758 -1.178,-4.146 1.627,-5.133c1.322,1.912 1.422,3.965 0.653,6.092c-1.308,3.621 -0.231,6.812 1.483,10.211c2.119,-1.657 0.76,-4.645 3.313,-6.098c-0.408,5.141 -0.779,9.85 -1.152,14.56c-0.229,0.247 -0.215,0.481 0.041,0.702c0.639,11.298 3.547,22.188 5.959,33.168c0.118,1.507 -0.121,3.08 0.82,4.437c1.475,2.438 3.995,1.084 5.982,1.651c12.101,1.908 24.181,3.941 36.307,5.66c4.508,0.64 7.887,1.929 7.084,7.263c-0.48,3.188 1.123,4.057 3.738,4.459c4.734,0.733 9.438,1.692 14.186,2.328c6.277,0.844 12.59,1.461 18.885,2.178c-3.73,-2.974 -8.654,-1.75 -12.332,-4.969c8.086,1.063 16.172,2.118 24.258,3.182c0.041,-0.309 0.084,-0.613 0.125,-0.922c-7.188,-1.322 -14.379,-2.646 -21.57,-3.969c0.08,-0.447 0.16,-0.896 0.24,-1.349c3.855,0.541 7.713,1.035 11.557,1.637c4.727,0.738 9.439,1.259 14.195,0.313c1.035,-0.207 2,-0.605 2.076,-1.777c0.082,-1.248 -0.949,-1.709 -1.945,-1.854c-7.359,-1.094 -14.707,-2.377 -22.104,-3.127c-11.209,-1.138 -22.229,-3.474 -33.424,-4.771c-13.1,-1.518 -26.058,-4.229 -39.074,-6.426c-0.455,-0.852 -2.3,-1.275 -0.828,-2.715c2.037,1.457 4.472,0.367 6.633,1.031c1.578,1.313 3.428,0.702 5.188,0.721c12.605,1.994 25.221,3.953 37.813,6.006c3.186,0.52 4.83,0.557 5.582,-3.764c0.92,-5.275 0.195,-7.851 -5.291,-8.965c-4.813,-0.979 -9.455,-2.779 -14.199,-4.125c-1.729,-0.486 -3.25,-1.052 -3.02,-3.201c0.332,-3.121 -1.551,-2.937 -3.722,-2.789c-5.12,0.338 -10.276,0.873 -15.229,-1.144c-1.209,-1.082 -2.418,-2.164 -3.627,-3.246c-3.935,-6.776 -1.028,-14.782 -3.893,-21.758c-0.1,-0.235 -0.07,-0.766 -0.068,-0.766c4.875,-0.435 1.406,-4.439 2.736,-6.371c2.125,0.387 1.025,5.682 4.984,3.275c2.916,2.991 7.771,1.563 9.699,-2.775c0.627,-1.41 0.095,-3.967 3.002,-3.426c-0.399,2.223 -0.793,4.444 -1.209,6.668c-1.455,7.787 -2.918,8.436 -9.748,4.268c-1.67,-1.02 -3.666,-1.332 -5.127,-0.438c-1.467,0.896 -0.896,2.569 -0.41,4.35c0.818,2.992 -0.279,6.59 3.322,8.5c0.032,0.018 -0.047,0.248 -0.064,0.34c-0.946,1.455 -2.057,-1.143 -3.217,0.428c2.436,2.029 0.179,5.845 3.521,8.072c3.908,2.605 8.007,1.844 12.052,1.854c7.885,0.02 11.783,-6.857 7.955,-13.797c-3.013,-5.461 -5.732,-10.961 -3.91,-17.468c0.83,-2.965 -0.854,-3.139 -3.015,-2.924c-0.688,-2.969 1.787,-2.824 3.14,-2.521c2.422,0.541 3.246,2.418 2.416,4.932c-2.22,6.713 0.701,12.342 3.936,17.865c0.414,0.705 0.857,2.106 2.123,0.74c2.203,-2.377 4.625,-0.89 6.922,-0.295c4.092,1.059 7.721,3.618 12.166,3.793c0.004,-3.384 -4.875,-6.146 -0.447,-11.313c1.393,11.908 9.311,15.225 18.514,17.146c1.75,0.362 3.785,1.063 4.721,3.506c-1.869,0.668 -3.287,0.354 -4.912,-0.22c-9.893,-3.475 -20.313,-5.327 -29.943,-9.604c-3.809,-1.688 -6.396,-0.846 -7.896,3.055c-0.768,2 -1.539,4.006 -2.172,6.054c-1.144,3.692 -0.479,6.377 3.98,7.01c2.068,0.295 4.137,0.795 6.129,1.438c11.16,3.607 22.313,7.246 33.438,10.972c3.563,1.19 6.582,0.444 9.113,-2.138c2.461,-2.51 2.967,-5.762 1.637,-8.809c-6.752,-15.48 -13.42,-31.01 -20.711,-46.236c-3.563,-7.449 -12.332,-7.434 -17.006,-0.608c-1.49,2.178 -1.49,2.178 -4.367,2.771c0.836,-4.646 3.563,-7.725 7.689,-9.93c-3.992,-1.097 -7.732,-3.818 -11.318,1.401c-0.424,-2.764 1.463,-4.334 0.346,-6.176c-0.791,-1.305 -1.41,-3.162 -3.146,-2.387c-1.4,0.625 1.504,0.979 0.703,2.229c-0.902,1.408 -1.021,3.826 -3.695,2.281c-2.918,-1.266 -3.556,-3.895 -3.701,-6.875c-5.383,1.5 -10.313,3.361 -15.525,4.307c-10.084,1.824 -10.063,1.929 -11.025,11.978c-2.223,-2.18 -0.768,-4.937 -1.147,-7.402c-0.164,-1.049 0.407,-2.662 -1.421,-2.547c-7.055,0.443 -14.622,-1.094 -20.354,4.808c-0.965,0.991 -1.926,1.125 -3.107,0.981c0.902,-5.211 4.793,-7.854 12.509,-8.305c-2.04,-2.726 -3.786,-5.494 -5.958,-7.873c-7.607,-8.332 -10.021,-18.396 -10.623,-29.299c-0.605,-11.025 0.604,-21.861 2.107,-32.732c1.363,-9.842 2.975,-19.561 5.586,-29.205c4.766,-17.58 16.635,-26.805 33.707,-29.586c17.549,-2.859 33.912,1.211 48.738,11.144c8.596,8.112 14.238,17.674 14.801,29.797c0.27,5.828 -1.4,11.45 -1.617,17.221c-1.436,1.699 -1.521,3.838 -1.902,5.883c-1.754,2.982 -2.447,5.816 -0.225,9.086c1.92,2.822 1.205,6.16 0.023,9.119c-3.73,9.322 -8.996,17.107 -20.238,17.889c-3.578,0.25 -2.512,3.271 -4.43,5.588c8.297,-0.848 15.654,-0.521 22.943,1.093c22.045,4.879 31.332,15.543 33.607,37.979c2.213,21.824 -0.523,43.162 -5.898,64.229c-1.098,4.301 -0.643,6.129 4.012,6.235c1.389,0.031 4.258,-0.59 2.895,2.74c-6.633,5.64 -13.057,11.553 -19.945,16.857c-16.246,12.516 -34.15,21.928 -53.939,27.584c-5.6,1.135 -11.188,2.311 -16.795,3.391c-4.441,0.854 -9.092,0.521 -13.373,2.316c-1.633,0.17 -3.266,0.342 -4.897,0.516c-9.042,-0.988 -18.091,-0.723 -27.14,-0.146c-0.39,0.018 -0.775,0.03 -1.16,0.053c-0.182,-0.068 -0.364,-0.068 -0.549,0.002l-0.375,-0.115c0,0 -0.361,0.15 -0.363,0.156c-0.641,-1.172 -1.721,-1.383 -2.94,-1.488c-20.082,-1.775 -38.784,-8.109 -56.795,-16.922c-3.981,-1.949 -7.325,-5.186 -11.883,-5.963c0,0 -0.097,-0.09 -0.095,-0.092c-0.398,-1.56 -1.453,-2.029 -2.945,-1.767c0,0 -0.239,-0.155 -0.236,-0.157c-0.199,-1.613 -1.303,-2.019 -2.707,-2.015c0,0 -0.084,-0.084 -0.082,-0.084c-0.418,-1.453 -1.479,-1.971 -2.885,-1.994l-0.057,-0.063c-0.055,-0.604 -0.359,-0.854 -0.965,-0.685c0,0 -0.313,-0.157 -0.313,-0.159c-0.152,-1.646 -1.245,-2.074 -2.68,-2.058c0,0 -0.079,-0.1 -0.077,-0.1c-0.033,-0.597 -0.288,-0.906 -0.929,-0.728c0,0 -0.271,-0.137 -0.27,-0.139c-0.148,-1.68 -1.236,-2.133 -2.716,-2.066c0,0 -0.06,-0.076 -0.058,-0.076c-0.032,-0.59 -0.302,-0.93 -0.923,-0.921zm138.928,-126.331c-0.346,-1.295 -0.923,-1.925 -2.525,-1.937c-7.914,-0.057 -15.799,-0.512 -23.256,-3.576c-1.713,-0.705 -1.906,0.316 -1.998,1.568c-3.246,-0.063 -1.931,-4.816 -5.101,-4.955c-1.94,5.736 0.188,15.129 4.333,18.924c1.236,1.133 2.9,2.597 4.375,1.644c4.316,-2.8 7.611,-1.854 10.807,1.768c0.627,0.709 2.137,0.828 3.256,0.883c7.268,0.354 16.209,-9.18 15.697,-16.43c-2.168,-0.14 -3.491,1.925 -5.588,2.111zm-20.847,-12.779l-0.056,-0.047c2.021,3.123 5.396,2.744 8.359,2.936c4.475,0.287 8.994,-0.146 13.469,0.146c5.482,0.354 10.066,2.34 11.529,8.651c2.506,-2.02 5.854,-1.867 8.066,-4.408c4.145,-4.741 8.414,-9.315 9.885,-15.731c1.492,-6.506 3.117,-12.982 4.611,-19.49c0.252,-1.092 1.615,-2.151 0.801,-3.215c-4.334,-5.658 -1.973,-11.633 -1.021,-17.551c0.811,-5.06 -1.301,-11.826 -4.621,-13.349c-5.32,-2.436 -10.73,-4.225 -16.896,-3.237c-8.396,1.342 -16.998,3.211 -24.938,-1.994c-2.293,-1.504 -4.533,-3.095 -6.891,-4.49c-3.133,-1.857 -9.486,-0.824 -11.188,1.896c-2.634,4.226 -4.762,8.662 -6.145,13.521c-3.566,12.547 -3.559,25.607 -5.707,38.359c-1.003,5.95 -0.878,12.268 0.568,18.348c0.272,1.146 0.396,2.322 1.799,2.703c1.527,0.416 1.966,-0.725 2.619,-1.699c2.725,-4.068 6.527,-3.91 10.646,-2.719c1.699,0.487 3.085,2.151 5.111,1.37zm-99.112,46.058c-11.703,-1.537 -23.418,-2.996 -35.104,-4.66c-3.729,-0.526 -5.502,0.398 -4.643,4.408c0.02,0.828 -0.082,1.683 0.075,2.48c3.974,20.067 7.965,40.135 11.974,60.196c1.823,9.138 2.295,9.343 11.53,10.638c19.431,2.725 38.83,5.67 58.244,8.51c14.642,2.144 29.271,4.355 43.933,6.342c5.662,0.767 6.252,-0.024 5.18,-5.473c-3.818,-19.422 -7.655,-38.84 -11.535,-58.25c-3.313,-16.563 -2.148,-14.154 -18.489,-16.33c-9.375,-1.248 -18.845,-2.096 -28.174,-3.394c-10.983,-1.521 -21.95,-3.275 -32.991,-4.467zm137.781,-15.666c1.723,0.959 4.039,1.453 4.697,2.777c1.75,3.508 4.723,4.233 8.012,4.969c2.414,0.541 4.703,1.633 7.107,2.23c6.828,1.688 11.047,5.895 13.869,12.356c6.311,14.449 13.211,28.646 19.055,43.303c0.465,1.17 0.623,2.871 2.422,2.662c1.537,-0.176 2.68,-0.953 3.016,-2.787c3.365,-18.395 4.982,-36.901 0.943,-55.315c-2.48,-11.322 -8.83,-19.98 -20.963,-23.039c-7.381,-1.859 -14.84,-1.707 -22.33,-1.414c-1.406,0.055 -2.645,0.41 -3.287,1.814c-2.605,5.705 -7.141,9.497 -12.541,12.444zm18.699,-25.408c8.729,0.017 19.506,-13.856 17.332,-21.885c-0.932,-3.434 -3.363,-5.813 -7.039,-3.983c-5.121,2.547 -9.977,5.684 -11.451,11.903c-0.723,3.06 -1.229,6.201 -2.314,9.127c-1.577,4.248 0.55,4.965 3.472,4.838zm-20.388,115.553c-2.125,-1.381 -3.824,-1.207 -5.438,-1.451c-11.612,-1.76 -23.215,-3.582 -34.833,-5.291c-1.709,-0.252 -4.396,-2.201 -4.991,0.4c-0.563,2.444 2.737,2.174 4.438,2.868c0.718,0.296 1.656,-0.016 2.476,0.097c5.834,0.774 11.664,1.592 18.263,2.498c-1.688,1.651 -2.923,1.885 -4.183,2.184c-5.325,1.271 -10.606,2.73 -15.959,3.873c-2.543,0.545 -2.582,1.779 -2.187,3.934c0.502,2.74 1.78,2.457 3.867,1.853c12.582,-3.662 25.202,-7.188 38.547,-10.965zm-98.352,15.039c0.758,-0.422 2.646,0.979 2.445,-1.117c-0.164,-1.736 0.492,-4.055 -2.598,-4.494c-7.646,-1.092 -15.25,-2.455 -22.877,-3.684c-1.259,-0.201 -2.339,0.051 -2.515,1.612c-0.197,1.771 -0.082,3.474 2.087,3.84c7.787,1.321 15.583,2.56 23.458,3.843zm28.895,-1.479c-1.053,-0.104 -2.543,0.154 -2.582,2.527c-0.035,2.041 0.853,2.862 2.937,3.08c6.916,0.717 13.813,1.596 20.708,2.508c1.488,0.199 3.043,1.035 3.305,-1.396c0.205,-1.896 -0.387,-3.25 -2.504,-3.553c-7.026,-1.007 -14.05,-2.033 -21.864,-3.166zm-9.041,4.996c1.465,-1.063 4.129,1.105 4.354,-2.139c0.184,-2.605 -0.934,-4.002 -3.557,-4.322c-4.25,-0.521 -8.48,-1.184 -12.73,-1.688c-1.438,-0.171 -3.17,-0.451 -3.408,1.756c-0.201,1.873 0.592,3.469 2.473,3.729c4.392,0.604 8.756,1.286 12.868,2.664zm-50.841,-8.17c1.368,-0.063 3.205,0.693 3.171,-1.826c-0.025,-1.865 0.051,-3.736 -2.555,-4.039c-3.123,-0.365 -6.225,-0.926 -9.352,-1.266c-1.678,-0.185 -4.174,-2.313 -4.688,1.184c-0.4,2.746 1.364,4.289 4.051,4.674c3.122,0.445 6.246,0.846 9.373,1.273zm-15.329,-2.433c0.278,-4.713 -1.781,-6.621 -6.135,-6.414c-1.273,0.061 -2.572,-0.459 -3.863,-0.693c-1.873,-0.34 -4.215,-0.393 -4.611,1.6c-0.344,1.729 1.647,3.229 3.431,3.623c3.66,0.81 7.4,1.269 11.178,1.884zm117.132,-7.625c-0.053,-0.24 -0.104,-0.48 -0.158,-0.72c-4.547,-0.768 -9.092,-1.547 -13.641,-2.295c-1.929,-0.313 -3.509,0.025 -2.818,2.496c0.488,1.75 -0.653,5.138 3.029,4.332c4.588,-0.999 9.065,-2.518 13.588,-3.813zm77.323,12.301c-2.064,-0.195 -4.131,-0.396 -6.195,-0.59c1.947,1.789 4.126,1.2 6.195,0.59z" id="svg_33"/>
     <path fill="#BAD4E4" d="m271.089,953.871c-1.331,1.932 2.139,5.938 -2.738,6.371c-0.002,0 -0.027,0.526 0.069,0.766c2.86,6.975 -0.042,14.98 3.892,21.758c-0.185,4.031 -0.888,7.908 0.295,12.119c0.768,2.729 2.815,8.084 -3.785,8.389c-2.16,-0.666 -4.596,0.425 -6.633,-1.03c-2.727,-0.41 -5.449,-0.818 -8.174,-1.229c-2.412,-10.979 -5.32,-21.871 -5.957,-33.168c4.348,0.285 8.734,-0.395 13.076,0.447c-4.227,-2.02 -8.729,-1.01 -13.119,-1.152c0.373,-4.707 0.745,-9.416 1.152,-14.557c-2.553,1.449 -1.191,4.438 -3.313,6.098c-1.717,-3.401 -2.791,-6.59 -1.483,-10.213c0.769,-2.127 0.668,-4.18 -0.653,-6.09c0.092,-0.459 0.182,-0.918 0.271,-1.375c1.185,0.143 2.145,0.01 3.107,-0.982c5.73,-5.897 13.299,-4.36 20.354,-4.807c1.827,-0.115 1.256,1.498 1.42,2.547c0.383,2.467 -1.072,5.226 1.147,7.402c0.36,2.901 0.714,5.803 1.072,8.706zm-9.531,-11.526c-2.072,4.717 -1.609,8.281 4.313,9.342c0.279,-1.221 0.555,-3.639 -0.314,-3.45c-5.859,1.252 -2.488,-3.076 -3.183,-4.881c0.101,-0.396 0.405,-0.925 0.257,-1.166c-0.301,-0.483 -0.758,-0.241 -1.073,0.155z" id="svg_34"/>
     <path fill="#E4BE8D" d="m101.903,980c8.841,1.285 17.676,2.611 26.526,3.828c2.479,0.342 2.247,2.037 2.781,3.854c2.557,8.697 2.755,17.933 6.135,26.418c-1.263,-0.231 -2.548,-0.756 -3.771,-0.643c-3.232,0.303 -6.348,-2.693 -9.614,-0.307c-9.553,-9.587 -17.269,-20.395 -22.057,-33.15z" id="svg_35"/>
     <path fill="#9C9599" d="m122.96,936.976c-1.521,4.479 0.669,8.718 0.84,13.082c-8.818,2.103 -17.648,4.154 -26.447,6.334c-2.291,0.566 -5.432,1.677 -6.513,-0.147c-1.776,-2.996 -2.89,-6.695 -2.483,-10.396c0.167,-1.518 1.854,-1.567 3.184,-1.858c10.48,-2.306 20.947,-4.671 31.419,-7.015z" id="svg_36"/>
     <path fill="#E4BE8D" d="m154.417,837.48c1.999,6.088 1.538,12.495 2.253,18.62c0.688,5.9 1.05,11.945 1.56,17.914c0.875,10.224 2.184,20.406 3.391,30.601c0.709,5.981 1.811,11.936 2.236,17.936c0.146,2.053 1.818,5.734 -1.855,6.176c-3.984,0.479 -3.4,-3.791 -3.662,-5.901c-1.102,-8.908 -1.125,-17.961 -2.46,-26.824c-1.549,-10.271 -1.892,-20.674 -2.371,-30.928c-0.384,-8.222 -3.062,-16.605 -0.508,-24.937c0.258,-0.86 -0.361,-2.055 1.416,-2.657z" id="svg_37"/>
     <path fill="#9C9599" d="m123.958,1013.152c3.27,-2.39 6.382,0.604 9.613,0.307c1.228,-0.115 2.513,0.408 3.771,0.641c1.404,0.957 2.582,1.902 2.229,3.984c-0.398,2.361 0.01,4.666 1.955,6.369c2.416,2.113 0.076,4.305 0.162,6.453c-4.946,-1.531 -6.711,-6.857 -10.979,-9.199c-0.819,-0.324 -1.636,-0.646 -2.448,-0.971c-0.363,-0.302 -0.732,-0.601 -1.1,-0.896c-0.334,-0.334 -0.669,-0.666 -1.003,-0.998c-0.734,-1.899 -1.468,-3.794 -2.2,-5.69z" id="svg_38"/>
     <path fill="#E4BE8D" d="m155.049,830.585c-0.229,1.41 0.188,3.039 -1.095,2.853c-2.352,-0.343 -2.605,-2.603 -2.868,-4.519c-0.149,-1.1 -0.133,-2.859 1.353,-2.602c2.477,0.433 1.512,3.237 2.61,4.268z" id="svg_39"/>
     <path fill="#9C9599" d="m341.339,868.044c0.377,-2.043 0.467,-4.182 1.9,-5.881c18.742,1.957 37.484,3.895 56.225,5.875c5.758,0.604 11.494,1.387 17.256,1.965c3.15,0.318 4.189,2.275 4.439,5.041c-5.521,2.729 -11.002,0.221 -16.467,-0.248c-8.363,-0.717 -16.705,-1.715 -25.037,-2.733c-9.965,-1.22 -20.027,-1.521 -29.916,-3.49c-2.726,-0.546 -5.595,-0.372 -8.4,-0.529z" id="svg_40"/>
     <path fill="#D0F096" d="m350.979,762.074c0.324,0.315 0.65,0.637 0.977,0.957c0,24.955 0,49.908 0,76.063c-2.307,-1.756 -1.939,-2.771 -1.941,-3.586c-0.023,-23.092 -0.027,-46.184 -0.002,-69.272c0,-1.434 -0.483,-3.041 0.966,-4.162z" id="svg_41"/>
     <path fill="#D0F096" d="m139.944,856.015c2.557,3.439 -0.473,5.496 -1.967,7.935c-0.968,-3.05 1.193,-5.322 1.967,-7.935z" id="svg_42"/>
     <path fill="#D0F096" d="m137.979,842.085c1.424,0.521 2.078,1.523 1.903,3.045c-1.819,-0.273 -1.934,-1.613 -1.903,-3.045z" id="svg_43"/>
     <path fill="#9C9599" d="m163.869,1048.242c4.557,0.776 7.899,4.014 11.882,5.961c18.012,8.813 36.713,15.146 56.795,16.924c1.223,0.107 2.303,0.316 2.939,1.488c-8.213,1.194 -16.129,-1.047 -23.844,-2.998c-15.236,-3.854 -30.067,-9.082 -43.521,-17.521c-1.613,-1.013 -3.687,-1.634 -4.251,-3.854z" id="svg_44"/>
     <path fill="#9C9599" d="m269.976,1072.15c4.279,-1.797 8.93,-1.463 13.371,-2.316c5.606,-1.08 11.195,-2.256 16.795,-3.389c-1.789,3.078 -5.221,2.588 -7.916,3.285c-5.586,1.444 -11.33,2.321 -17.045,3.207c-1.7,0.264 -3.675,0.762 -5.205,-0.787z" id="svg_45"/>
     <path fill="#9C9599" d="m237.935,1072.52c9.051,-0.572 18.1,-0.843 27.142,0.146c-0.454,1.078 -1.374,1.363 -2.421,1.363c-7.473,0.004 -14.942,0.002 -22.416,-0.015c-1.061,-0.003 -1.946,-0.368 -2.305,-1.494z" id="svg_46"/>
     <path fill="#9C9599" d="m160.83,1046.386c1.491,-0.266 2.545,0.205 2.944,1.769c-1.328,-0.017 -2.611,-0.101 -2.944,-1.769z" id="svg_47"/>
     <path fill="#9C9599" d="m146.918,1036.142c1.479,-0.063 2.565,0.39 2.716,2.066c-1.35,-0.104 -2.649,-0.279 -2.716,-2.066z" id="svg_48"/>
     <path fill="#9C9599" d="m150.91,1039.169c1.433,-0.018 2.522,0.41 2.678,2.059c-1.323,-0.129 -2.609,-0.305 -2.678,-2.059z" id="svg_49"/>
     <path fill="#9C9599" d="m154.918,1042.136c1.403,0.023 2.47,0.539 2.886,1.992c-1.414,-0.011 -2.785,-0.082 -2.886,-1.992z" id="svg_50"/>
     <path fill="#9C9599" d="m157.885,1044.212c1.405,-0.004 2.509,0.4 2.708,2.017c-1.315,-0.124 -2.585,-0.3 -2.708,-2.017z" id="svg_51"/>
     <path fill="#9C9599" d="m145.954,1035.145c0.621,-0.009 0.891,0.332 0.906,0.922c-0.3,-0.31 -0.604,-0.616 -0.906,-0.922z" id="svg_52"/>
     <path fill="#9C9599" d="m143.901,1033.318c0.563,-0.043 0.826,0.227 0.814,0.776c-0.271,-0.257 -0.541,-0.516 -0.814,-0.776z" id="svg_53"/>
     <path fill="#9C9599" d="m149.903,1038.345c0.641,-0.18 0.896,0.131 0.928,0.729c-0.31,-0.244 -0.619,-0.487 -0.928,-0.729z" id="svg_54"/>
     <path fill="#9C9599" d="m143.056,1032.3c0.536,-0.018 0.729,0.259 0.643,0.769c-0.216,-0.258 -0.43,-0.515 -0.643,-0.769z" id="svg_55"/>
     <path fill="#9C9599" d="m153.899,1041.386c0.604,-0.17 0.908,0.082 0.965,0.687c-0.322,-0.23 -0.644,-0.458 -0.965,-0.687z" id="svg_56"/>
     <path fill="#9C9599" d="m236.228,1072.574c0.186,-0.072 0.367,-0.07 0.547,-0.002c-0.139,0.235 -0.272,0.479 -0.407,0.725c-0.049,-0.241 -0.096,-0.483 -0.14,-0.723z" id="svg_57"/>
     <path fill="#9C9599" d="m164.923,942.093c11.041,1.191 22.008,2.945 32.991,4.474c9.329,1.295 18.798,2.141 28.174,3.389c16.341,2.178 15.181,-0.23 18.489,16.332c3.88,19.408 7.716,38.826 11.535,58.248c1.072,5.447 0.482,6.238 -5.18,5.473c-14.662,-1.981 -29.293,-4.199 -43.933,-6.34c-19.414,-2.84 -38.813,-5.785 -58.244,-8.512c-9.235,-1.295 -9.707,-1.5 -11.53,-10.638c-4.009,-20.063 -8,-40.129 -11.974,-60.196c-0.157,-0.799 -0.058,-1.65 -0.075,-2.479c0.881,-1.871 1.696,-2.852 4.389,-2.344c7.885,1.49 15.863,2.625 23.855,3.309c3.767,0.317 7.802,1.42 11.503,-0.716zm34.223,50.578c-0.153,-8.967 -3.439,-14.524 -9.551,-18.213c-7.566,-4.564 -14.813,-0.334 -14.738,8.459c0.058,6.834 3.263,12.096 8.627,16.078c3.23,2.395 6.892,3.613 10.731,1.637c3.832,-1.972 5.035,-5.533 4.931,-7.961z" id="svg_58"/>
     <path fill="#E4BE8D" d="m264.035,896.035c-2.026,0.781 -3.412,-0.883 -5.103,-1.373c-4.119,-1.189 -7.925,-1.35 -10.646,2.719c-0.654,0.979 -1.094,2.117 -2.62,1.701c-1.401,-0.383 -1.524,-1.557 -1.798,-2.705c-1.447,-6.08 -1.572,-12.395 -0.569,-18.346c2.149,-12.754 2.14,-25.814 5.707,-38.359c1.384,-4.861 3.511,-9.299 6.146,-13.523c1.697,-2.721 8.054,-3.756 11.187,-1.896c2.354,1.396 4.597,2.988 6.89,4.49c7.94,5.207 16.543,3.336 24.939,1.996c6.166,-0.984 11.572,0.805 16.895,3.237c3.32,1.521 5.432,8.289 4.623,13.347c-0.949,5.918 -3.314,11.893 1.021,17.553c0.814,1.063 -0.549,2.121 -0.801,3.215c-1.496,6.506 -3.119,12.982 -4.609,19.49c-1.475,6.416 -5.742,10.987 -9.887,15.733c-2.217,2.537 -5.563,2.388 -8.066,4.406c-1.464,-6.313 -6.048,-8.297 -11.529,-8.651c-4.476,-0.291 -8.994,0.143 -13.469,-0.146c-2.964,-0.188 -6.341,0.189 -8.361,-2.934c2.096,-0.17 4.188,-0.343 6.145,-0.5c-2.324,-1.063 -5.588,-0.636 -7.139,-3.603c-1.537,-2.945 0.453,-5.633 0.863,-8.719c-5.59,6.047 -5.586,6.043 -0.502,11.66c0.297,0.337 0.458,0.801 0.683,1.208zm19.111,-25.918c-1.479,-0.224 -1.932,0.805 -1.967,1.897c-0.035,1.064 0.983,0.961 1.735,1.033c0.762,0.724 1.522,1.443 2.284,2.164c4.018,1.637 8.225,2.396 12.527,2.701c1.625,0.219 3.076,-0.369 4.518,-0.988c1.523,-0.268 3.105,-0.66 2.859,-2.635c-0.33,-2.639 -1.824,-4.732 -4.396,-5.408c-4.434,-1.162 -8.95,-2.012 -13.454,-2.887c-3.558,-0.689 -4.742,0.887 -3.758,4.276l-0.348,-0.153zm-34.064,-4.159c-1.174,1.43 0.203,1.889 0.979,2.576l-0.021,-0.135c3.5,3.352 8.389,2.174 12.417,3.795c2.83,0.735 3.864,-1.709 5.494,-3.103c1.707,-2.744 2.179,-5.602 -1.535,-6.646c-4.237,-1.193 -8.688,-1.779 -13.09,-2.188c-2.438,-0.227 -4.321,1.521 -5.464,3.639c-0.566,1.054 -0.881,2.552 1.35,2.107l-0.13,-0.045zm40.711,-6.187c5.33,-0.591 9.808,0.709 13.741,3.959c0.803,0.659 1.91,1.959 2.947,0.612c0.889,-1.147 -0.332,-2.168 -1.094,-2.953c-4.072,-4.19 -9.115,-5.983 -14.886,-5.483c-2.289,0.196 -6.198,-0.713 -6.103,2.461c0.106,3.183 3.74,0.701 5.395,1.404zm-31.493,-10.152c-2.842,0.225 -5.591,0.762 -7.988,2.432c-0.689,0.48 -1.416,1.063 -1.119,2c0.349,1.094 1.334,0.861 2.049,0.543c5.548,-2.477 10.666,-1.319 15.628,1.666c0.961,0.58 2.202,1.354 2.92,-0.239c0.569,-1.271 -0.308,-2.201 -1.291,-2.929c-3.034,-2.231 -6.439,-3.376 -10.199,-3.473zm5.689,31.861c1.906,-1.384 2.506,-3.066 1.826,-5.173c-0.608,1.728 -1.216,3.45 -1.826,5.173z" id="svg_59"/>
     <path fill="#BAD4E4" d="m300.274,935.757c2.676,1.545 2.793,-0.873 3.695,-2.281c0.801,-1.25 -2.104,-1.604 -0.703,-2.229c1.738,-0.775 2.359,1.082 3.146,2.387c1.117,1.842 -0.77,3.412 -0.346,6.179c3.586,-5.226 7.326,-2.5 11.318,-1.404c-4.131,2.205 -6.855,5.281 -7.689,9.93c2.877,-0.596 2.877,-0.596 4.367,-2.771c4.674,-6.822 13.439,-6.841 17.006,0.608c7.291,15.23 13.959,30.756 20.711,46.236c1.33,3.047 0.824,6.299 -1.637,8.809c-2.531,2.582 -5.551,3.328 -9.113,2.138c-11.125,-3.726 -22.275,-7.361 -33.438,-10.972c-1.992,-0.645 -4.061,-1.145 -6.129,-1.438c-4.461,-0.631 -5.121,-3.314 -3.98,-7.008c0.633,-2.047 1.404,-4.056 2.172,-6.056c1.5,-3.897 4.088,-4.739 7.896,-3.055c9.633,4.273 20.053,6.129 29.945,9.605c1.625,0.569 3.043,0.885 4.91,0.217c-0.936,-2.443 -2.971,-3.144 -4.721,-3.506c-9.203,-1.918 -17.121,-5.234 -18.514,-17.146c-4.428,5.168 0.453,7.93 0.451,11.314c-4.449,-0.174 -8.078,-2.736 -12.17,-3.793c-2.297,-0.597 -4.719,-2.082 -6.922,0.293c-1.266,1.367 -1.709,-0.035 -2.123,-0.74c-3.23,-5.523 -6.15,-11.152 -3.936,-17.865c0.83,-2.514 0.006,-4.391 -2.416,-4.932c-1.353,-0.303 -3.826,-0.447 -3.14,2.521l-0.151,0.146c-2.904,-0.539 -2.373,2.018 -3,3.428c-1.928,4.34 -6.783,5.771 -9.699,2.777l-0.036,-0.104c0.405,-0.049 0.813,-0.096 1.22,-0.143c-0.068,-0.291 -0.139,-0.58 -0.209,-0.869l-0.012,0.012c0.408,-0.047 0.816,-0.096 1.229,-0.143c-0.07,-0.291 -0.143,-0.582 -0.215,-0.873l-0.031,0.022c1.313,0.929 1.666,-0.039 2.008,-1.02l0.002,-0.002c0.688,0.016 1.039,-0.301 1.006,-1.006l-0.002,0.002c0.705,0.041 1.066,-0.267 1,-0.998l0.012,-0.017c1.339,-0.444 2.128,-1.114 1.035,-2.551c6.724,-3.323 11.839,-8.67 17.203,-13.702z" id="svg_60"/>
     <path fill="#9C9599" d="m302.704,926.427c5.398,-2.944 9.938,-6.739 12.541,-12.44c0.646,-1.404 1.881,-1.763 3.287,-1.814c7.49,-0.293 14.949,-0.445 22.33,1.414c12.133,3.059 18.48,11.717 20.963,23.039c4.039,18.414 2.422,36.924 -0.943,55.318c-0.338,1.832 -1.479,2.608 -3.016,2.784c-1.799,0.209 -1.957,-1.491 -2.422,-2.661c-5.844,-14.658 -12.744,-28.854 -19.055,-43.304c-2.822,-6.465 -7.041,-10.668 -13.869,-12.356c-2.404,-0.601 -4.693,-1.689 -7.107,-2.23c-3.287,-0.731 -6.262,-1.461 -8.012,-4.969c-0.658,-1.328 -2.974,-1.822 -4.697,-2.781z" id="svg_61"/>
     <path fill="#BAD4E4" d="m275.938,986.013c4.953,2.017 10.109,1.479 15.229,1.142c2.171,-0.146 4.054,-0.332 3.722,2.789c-0.229,2.149 1.295,2.715 3.02,3.203c4.744,1.344 9.389,3.146 14.199,4.122c5.486,1.115 6.211,3.689 5.291,8.966c-0.752,4.317 -2.396,4.28 -5.582,3.764c-12.596,-2.053 -25.207,-4.01 -37.813,-6.004c0.163,-6.048 -0.474,-12.179 1.934,-17.982z" id="svg_62"/>
     <path fill="#9C9599" d="m263.017,1004.953c13.02,2.195 25.978,4.908 39.074,6.426c11.191,1.297 22.215,3.633 33.424,4.771c7.395,0.748 14.742,2.03 22.104,3.125c0.994,0.146 2.025,0.606 1.945,1.856c-0.076,1.172 -1.041,1.57 -2.076,1.775c-4.758,0.947 -9.473,0.43 -14.195,-0.313c-3.846,-0.602 -7.701,-1.096 -11.557,-1.637c-0.08,0.449 -0.16,0.9 -0.24,1.35c7.189,1.322 14.383,2.646 21.57,3.97c-0.043,0.307 -0.084,0.61 -0.127,0.922c-8.086,-1.063 -16.172,-2.121 -24.258,-3.185c3.678,3.222 8.602,1.996 12.334,4.972c-6.297,-0.718 -12.605,-1.337 -18.887,-2.179c-4.746,-0.637 -9.447,-1.594 -14.186,-2.328c-2.613,-0.403 -4.217,-1.271 -3.738,-4.459c0.805,-5.334 -2.574,-6.622 -7.083,-7.264c-12.126,-1.717 -24.206,-3.75 -36.306,-5.658c1.154,-0.192 2.229,-0.469 2.084,-2.01l0.118,-0.134zm65.951,16.187c-1.533,-1.377 -2.703,-1.313 -4.34,-0.69c1.469,0.575 2.461,1.419 4.34,0.69z" id="svg_63"/>
     <path fill="#E4BE8D" d="m288.926,950.796c2.157,-0.215 3.845,-0.039 3.015,2.926c-1.82,6.505 0.897,12.005 3.91,17.466c3.828,6.938 -0.07,13.815 -7.955,13.799c-4.045,-0.013 -8.144,0.75 -12.051,-1.855c-3.346,-2.229 -1.089,-6.041 -3.521,-8.072c1.16,-1.567 2.271,1.029 3.217,-0.428c0.021,-0.09 0.102,-0.319 0.064,-0.338c-3.604,-1.912 -2.504,-5.51 -3.32,-8.5c-0.485,-1.779 -1.059,-3.455 0.408,-4.35c1.461,-0.896 3.457,-0.58 5.127,0.438c6.83,4.17 8.293,3.521 9.748,-4.268c0.416,-2.221 0.81,-4.443 1.209,-6.668c-0.005,-0.001 0.149,-0.15 0.149,-0.15z" id="svg_64"/>
     <path fill="#E4BE8D" d="m300.274,935.757c-5.363,5.031 -10.479,10.379 -17.199,13.713c-0.254,0.89 -2.104,1.125 -1.034,2.554l-0.013,0.014c-0.41,0.045 -0.823,0.09 -1.236,0.135c0.08,0.287 0.16,0.574 0.238,0.861l0.002,0c-0.358,-0.021 -0.719,-0.035 -1.076,-0.053c0.021,0.352 0.047,0.702 0.068,1.057c0,0 -0.002,0.002 0,0.002c-1.34,-0.979 -1.707,-0.043 -2.008,1.02l0.03,-0.022c-0.729,-0.053 -1.094,0.26 -1.014,1.016l0.012,-0.012c-0.758,-0.084 -1.097,0.252 -1.011,1.012l0.037,0.104c-3.959,2.401 -2.86,-2.894 -4.985,-3.277c-0.354,-2.901 -0.711,-5.805 -1.065,-8.707c0.961,-10.049 0.94,-10.149 11.024,-11.977c5.213,-0.943 10.146,-2.808 15.526,-4.31c0.152,2.976 0.786,5.605 3.704,6.87z" id="svg_65"/>
     <path fill="#E4BE8D" d="m321.403,901.019c-2.922,0.13 -5.051,-0.59 -3.475,-4.836c1.084,-2.928 1.594,-6.069 2.314,-9.127c1.477,-6.223 6.328,-9.356 11.449,-11.905c3.676,-1.828 6.109,0.553 7.039,3.985c2.179,8.024 -8.596,21.897 -17.327,21.883zm6.733,-18.893c4.916,-0.121 2.041,4.047 3.297,5.977c3.363,-3.063 -1.107,-6.729 0.955,-9.979c-2.039,0.783 -3.768,1.643 -4.631,3.594c-1.777,0.678 -2.516,1.98 -2.305,4.033c1.121,-1.15 2.332,-2.048 2.684,-3.625zm7.308,-4.562c-0.107,-0.086 -0.229,-0.25 -0.332,-0.238c-0.264,0.029 -0.52,0.135 -0.775,0.211c0.105,0.088 0.227,0.258 0.322,0.248c0.268,-0.03 0.528,-0.133 0.785,-0.221z" id="svg_66"/>
     <path fill="#E4BE8D" d="m284.879,908.816c2.103,-0.189 3.425,-2.255 5.591,-2.111c0.512,7.25 -8.433,16.779 -15.697,16.428c-1.119,-0.055 -2.629,-0.172 -3.256,-0.883c-3.192,-3.621 -6.488,-4.564 -10.807,-1.766c-1.475,0.95 -3.139,-0.513 -4.375,-1.646c-4.145,-3.793 -6.273,-13.188 -4.333,-18.922c3.17,0.137 1.854,4.891 5.101,4.955l-0.036,0.129c-1.424,0.768 -0.394,1.727 -0.062,2.443c3.451,7.465 17.796,10.68 24.733,5.475c1.32,-0.992 3.308,-1.703 3.195,-3.959l-0.054,-0.143z" id="svg_67"/>
     <path fill="#9C9599" d="m301.015,1016.572c-13.346,3.774 -25.966,7.303 -38.545,10.961c-2.089,0.604 -3.367,0.891 -3.869,-1.853c-0.396,-2.151 -0.356,-3.389 2.187,-3.934c5.353,-1.146 10.634,-2.604 15.959,-3.873c1.26,-0.299 2.493,-0.529 4.183,-2.184c-6.599,-0.906 -12.429,-1.724 -18.263,-2.498c-0.817,-0.109 -1.758,0.196 -2.476,-0.097c-1.698,-0.694 -4.998,-0.424 -4.438,-2.871c0.598,-2.602 3.282,-0.649 4.991,-0.397c11.618,1.709 23.221,3.531 34.833,5.291c1.611,0.248 3.313,0.074 5.438,1.455z" id="svg_68"/>
     <path fill="#9C9599" d="m202.663,1031.611c-7.875,-1.283 -15.671,-2.521 -23.454,-3.843c-2.169,-0.366 -2.285,-2.069 -2.087,-3.84c0.175,-1.563 1.256,-1.813 2.516,-1.612c7.627,1.229 15.23,2.592 22.877,3.684c3.088,0.438 2.434,2.758 2.598,4.494c0.197,2.099 -1.692,0.695 -2.45,1.117z" id="svg_69"/>
     <path fill="#9C9599" d="m231.558,1030.132c7.813,1.133 14.836,2.158 21.861,3.166c2.117,0.303 2.709,1.656 2.504,3.553c-0.262,2.435 -1.813,1.599 -3.305,1.396c-6.895,-0.912 -13.792,-1.791 -20.708,-2.508c-2.084,-0.218 -2.972,-1.039 -2.937,-3.08c0.042,-2.372 1.533,-2.634 2.585,-2.527z" id="svg_70"/>
     <path fill="#9C9599" d="m222.517,1035.128c-4.111,-1.379 -8.477,-2.061 -12.869,-2.668c-1.881,-0.26 -2.674,-1.854 -2.474,-3.729c0.238,-2.207 1.972,-1.927 3.408,-1.755c4.25,0.507 8.481,1.168 12.729,1.688c2.625,0.322 3.737,1.719 3.558,4.322c-0.223,3.248 -2.888,1.078 -4.352,2.142z" id="svg_71"/>
     <path fill="#9C9599" d="m171.674,1026.955c-3.125,-0.424 -6.249,-0.824 -9.366,-1.271c-2.688,-0.385 -4.451,-1.928 -4.051,-4.674c0.514,-3.494 3.01,-1.365 4.688,-1.184c3.125,0.34 6.229,0.897 9.352,1.266c2.604,0.303 2.527,2.174 2.555,4.039c0.029,2.521 -1.808,1.764 -3.178,1.824z" id="svg_72"/>
     <path fill="#BAD4E4" d="m164.923,942.093c-3.701,2.136 -7.734,1.033 -11.5,0.713c-7.992,-0.682 -15.974,-1.815 -23.855,-3.307c-2.69,-0.51 -3.508,0.473 -4.389,2.342c-0.859,-4.01 0.91,-4.938 4.643,-4.408c11.683,1.664 23.398,3.123 35.101,4.66z" id="svg_73"/>
     <path fill="#BAD4E4" d="m257.101,904.873c0.094,-1.252 0.287,-2.273 2,-1.568c7.457,3.064 15.342,3.521 23.254,3.576c1.604,0.012 2.184,0.639 2.524,1.937c-0.001,0.002 0.06,0.145 0.06,0.146c-9.646,1.191 -19.045,0.625 -27.869,-3.961l0.031,-0.13z" id="svg_74"/>
     <path fill="#9C9599" d="m156.347,1024.525c-3.777,-0.615 -7.519,-1.074 -11.181,-1.888c-1.782,-0.395 -3.772,-1.895 -3.431,-3.623c0.396,-1.989 2.738,-1.938 4.611,-1.6c1.291,0.234 2.59,0.754 3.863,0.693c4.356,-0.203 6.416,1.706 6.138,6.418z" id="svg_75"/>
     <path fill="#9C9599" d="m273.479,1016.9c-4.522,1.295 -9,2.813 -13.588,3.813c-3.686,0.806 -2.541,-2.582 -3.029,-4.332c-0.688,-2.471 0.893,-2.813 2.818,-2.496c4.549,0.748 9.094,1.527 13.641,2.295c0.054,0.241 0.108,0.48 0.158,0.72z" id="svg_76"/>
     <path fill="#9C9599" d="m275.938,986.013c-2.406,5.806 -1.771,11.937 -1.934,17.979c-1.76,-0.019 -3.605,0.596 -5.188,-0.719c6.604,-0.306 4.553,-5.66 3.785,-8.392c-1.183,-4.209 -0.479,-8.086 -0.295,-12.117c1.215,1.085 2.423,2.167 3.632,3.249z" id="svg_77"/>
     <path fill="#9C9599" d="m254.015,1001.013c2.725,0.408 5.446,0.816 8.172,1.229c-1.471,1.438 0.375,1.861 0.83,2.713c0,0 -0.111,0.139 -0.109,0.139c-2.678,0.438 -5.521,-2.932 -8.07,0.354c-0.946,-1.357 -0.705,-2.929 -0.823,-4.435z" id="svg_78"/>
     <path fill="#E4BE8D" d="m254.835,1005.445c2.553,-3.285 5.396,0.082 8.068,-0.354c0.146,1.541 -0.932,1.814 -2.084,2.01c-1.989,-0.57 -4.509,0.781 -5.984,-1.656z" id="svg_79"/>
     <path fill="#FEFEFE" d="m248.013,967.14c4.391,0.146 8.895,-0.862 13.119,1.152c-4.342,-0.842 -8.729,-0.162 -13.076,-0.447c-0.257,-0.22 -0.271,-0.455 -0.043,-0.705z" id="svg_80"/>
     <path fill="#9C9599" d="m350.802,1029.201c-2.066,0.607 -4.248,1.199 -6.195,-0.59c2.064,0.197 4.128,0.394 6.195,0.59z" id="svg_81"/>
     <path fill="#654027" d="m262.372,943.355c0.691,1.803 -2.68,6.131 3.182,4.879c0.869,-0.188 0.596,2.229 0.314,3.453c-5.922,-1.063 -6.385,-4.625 -4.313,-9.345c0.273,0.341 0.546,0.677 0.817,1.013z" id="svg_82"/>
     <path fill="#654027" d="m261.558,942.345c0.314,-0.395 0.771,-0.639 1.069,-0.153c0.149,0.239 -0.155,0.768 -0.257,1.166c-0.269,-0.339 -0.542,-0.675 -0.812,-1.013z" id="svg_83"/>
     <path fill="#FEFEFE" d="m199.146,992.671c0.104,2.428 -1.1,5.988 -4.931,7.961c-3.842,1.979 -7.5,0.76 -10.731,-1.637c-5.364,-3.982 -8.569,-9.244 -8.627,-16.078c-0.071,-8.793 7.172,-13.023 14.738,-8.459c6.11,3.688 9.396,9.247 9.551,18.213z" id="svg_84"/>
     <path fill="#654027" d="m283.496,870.275c-0.983,-3.394 0.2,-4.968 3.758,-4.277c4.504,0.875 9.021,1.725 13.456,2.887c2.57,0.679 4.064,2.771 4.396,5.408c0.246,1.975 -1.338,2.367 -2.861,2.635c0.762,-2.606 0.469,-4.744 -3.52,-6.104c1.516,3.033 -1.271,4.609 -0.998,7.092c-4.305,-0.305 -8.512,-1.063 -12.526,-2.699c1.128,-0.91 3.502,1.369 3.853,-1.483c0.186,-1.511 0.944,-3.818 0.277,-4.379c-1.402,-1.183 -3.395,-0.552 -4.896,0.78c-0.2,0.173 -0.622,0.099 -0.939,0.14z" id="svg_85"/>
     <path fill="#654027" d="m262.457,872.193c-4.028,-1.621 -8.916,-0.443 -12.415,-3.795c0.639,0.149 1.298,0.489 1.907,0.416c1.256,-0.154 3.477,1.278 3.516,-0.945c0.028,-1.539 1.49,-3.603 0.058,-4.541c-1.363,-0.896 -3.539,-0.914 -4.979,0.707c-0.521,0.588 -0.892,1.311 -1.328,1.973c-2.229,0.441 -1.916,-1.059 -1.35,-2.108c1.143,-2.119 3.022,-3.863 5.464,-3.64c4.398,0.408 8.854,0.994 13.09,2.189c3.714,1.047 3.242,3.901 1.536,6.646c-1.878,-0.766 -0.813,-4.049 -3.86,-4.139c1.657,2.973 -2.533,4.409 -1.639,7.237z" id="svg_86"/>
     <path fill="#654027" d="m289.793,859.771c-1.655,-0.705 -5.289,1.776 -5.39,-1.404c-0.1,-3.174 3.813,-2.262 6.102,-2.461c5.77,-0.5 10.813,1.293 14.885,5.483c0.764,0.785 1.98,1.806 1.096,2.953c-1.037,1.347 -2.146,0.047 -2.949,-0.612c-3.936,-3.248 -8.414,-4.547 -13.744,-3.959z" id="svg_87"/>
     <path fill="#654027" d="m258.299,849.621c3.761,0.098 7.166,1.242 10.197,3.471c0.983,0.728 1.86,1.658 1.291,2.928c-0.718,1.595 -1.959,0.82 -2.92,0.24c-4.962,-2.988 -10.08,-4.143 -15.628,-1.666c-0.717,0.318 -1.701,0.551 -2.049,-0.543c-0.297,-0.938 0.43,-1.52 1.119,-2c2.4,-1.671 5.149,-2.208 7.99,-2.43z" id="svg_88"/>
     <path fill="#654027" d="m264.035,896.035c-0.228,-0.406 -0.386,-0.871 -0.688,-1.207c-5.084,-5.615 -5.089,-5.611 0.502,-11.658c-0.41,3.086 -2.402,5.771 -0.863,8.719c1.551,2.965 4.813,2.537 7.139,3.601c-1.954,0.157 -4.049,0.33 -6.145,0.5l0.055,0.045z" id="svg_89"/>
     <path fill="#FEFEFE" d="m249.212,866.005c0.438,-0.66 0.807,-1.385 1.328,-1.971c1.439,-1.623 3.615,-1.605 4.98,-0.709c1.435,0.94 -0.027,3.004 -0.059,4.543c-0.039,2.225 -2.26,0.791 -3.518,0.942c-0.607,0.074 -1.271,-0.266 -1.905,-0.416c-0.001,0 0.021,0.138 0.021,0.138c-0.062,-0.959 0.48,-2.148 -0.979,-2.576l0.132,0.049z" id="svg_90"/>
     <path fill="#FEFEFE" d="m283.496,870.275c0.317,-0.041 0.739,0.032 0.938,-0.146c1.502,-1.332 3.489,-1.961 4.896,-0.781c0.667,0.562 -0.095,2.869 -0.278,4.38c-0.35,2.854 -2.724,0.575 -3.852,1.483c-0.762,-0.721 -1.521,-1.44 -2.284,-2.166c-0.099,-0.992 1.342,-1.861 0.229,-2.932l0.351,0.162z" id="svg_91"/>
     <path fill="#BAD4E4" d="m262.457,872.193c-0.896,-2.83 3.296,-4.265 1.634,-7.236c3.049,0.088 1.983,3.373 3.861,4.137c-1.631,1.392 -2.665,3.837 -5.495,3.099z" id="svg_92"/>
     <path fill="#FEFEFE" d="m297.729,877.914c-0.274,-2.48 2.512,-4.057 0.998,-7.09c3.984,1.358 4.277,3.494 3.52,6.104c-1.441,0.618 -2.893,1.204 -4.518,0.986z" id="svg_93"/>
     <path fill="#654027" d="m263.989,881.48c0.607,-1.726 1.219,-3.447 1.826,-5.173c0.679,2.107 0.081,3.792 -1.826,5.173z" id="svg_94"/>
     <path fill="#654027" d="m283.146,870.117c1.11,1.067 -0.328,1.938 -0.229,2.932c-0.752,-0.07 -1.771,0.031 -1.734,-1.031c0.033,-1.097 0.485,-2.124 1.963,-1.901z" id="svg_95"/>
     <path fill="#654027" d="m249.082,865.958c1.462,0.426 0.919,1.615 0.979,2.576c-0.777,-0.687 -2.154,-1.148 -0.979,-2.576z" id="svg_96"/>
     <path fill="#654027" d="m282.04,952.021c-1.068,-1.427 0.781,-1.662 1.034,-2.554c1.094,1.435 0.305,2.107 -1.034,2.554z" id="svg_97"/>
     <path fill="#654027" d="m278.017,955.058c0.301,-1.063 0.668,-1.998 2.008,-1.021c-0.342,0.982 -0.695,1.947 -2.008,1.021z" id="svg_98"/>
     <path fill="#654027" d="m277.035,956.046c-0.08,-0.754 0.282,-1.063 1.014,-1.014c0.072,0.291 0.144,0.582 0.216,0.871c-0.411,0.05 -0.821,0.097 -1.23,0.143z" id="svg_99"/>
     <path fill="#654027" d="m276.036,957.046c-0.086,-0.76 0.253,-1.096 1.011,-1.01c0.07,0.289 0.14,0.578 0.209,0.867c-0.405,0.05 -0.814,0.097 -1.22,0.143z" id="svg_100"/>
     <path fill="#654027" d="m281.03,953.031c-0.078,-0.287 -0.158,-0.574 -0.238,-0.861c0.413,-0.045 0.826,-0.09 1.236,-0.135c0.069,0.732 -0.293,1.037 -0.998,0.996z" id="svg_101"/>
     <path fill="#654027" d="m280.024,954.035c-0.021,-0.354 -0.047,-0.705 -0.068,-1.06c0.357,0.021 0.718,0.035 1.074,0.056c0.033,0.703 -0.317,1.021 -1.006,1.004z" id="svg_102"/>
     <path fill="#654027" d="m328.968,1021.14c-1.879,0.73 -2.871,-0.112 -4.34,-0.69c1.635,-0.622 2.807,-0.687 4.34,0.69z" id="svg_103"/>
     <path fill="#654027" d="m327.753,881.714c0.869,-1.947 2.598,-2.807 4.635,-3.59c-2.063,3.248 2.41,6.916 -0.953,9.979c-1.256,-1.93 1.617,-6.098 -3.299,-5.977c-0.133,-0.13 -0.264,-0.267 -0.383,-0.412z" id="svg_104"/>
     <path fill="#654027" d="m328.136,882.126c-0.354,1.574 -1.564,2.475 -2.684,3.625c-0.211,-2.053 0.525,-3.354 2.303,-4.035c0.117,0.143 0.248,0.28 0.381,0.41z" id="svg_105"/>
     <path fill="#654027" d="m335.446,877.57c-0.262,0.082 -0.52,0.186 -0.787,0.215c-0.1,0.01 -0.217,-0.16 -0.322,-0.248c0.258,-0.076 0.514,-0.184 0.775,-0.211c0.104,-0.01 0.223,0.153 0.334,0.244z" id="svg_106"/>
     <path fill="#654027" d="m257.067,905c8.826,4.586 18.225,5.152 27.869,3.961c0.11,2.254 -1.873,2.965 -3.193,3.957c-6.938,5.205 -21.283,1.99 -24.734,-5.475c-0.333,-0.717 -1.363,-1.676 0.058,-2.443z" id="svg_107"/>
    </g>
   </g>
  </g>
  <g id="svg_108">
   <g id="svg_109">
    <path stroke="#000000" fill="#F9B77A" d="m59.833,59.185c0,0 25.714,-23.286 30.843,-15.167c17.578,27.842 0.917,14.786 0.917,14.786l-31.76,0.381z" id="svg_110"/>
    <path stroke="#000000" d="m58.521,59.701l0.978,-0.887c1.003,-0.909 24.64,-22.173 31.023,-15.79c0.214,0.214 0.408,0.459 0.578,0.728c9.034,14.307 8.656,17.246 7.585,18.214c-1.637,1.479 -6.063,-1.74 -7.259,-2.66l-32.905,0.395zm31.292,-15.97c-4.524,-4.524 -21.347,8.508 -28.65,14.938l30.602,-0.367l0.138,0.109c2.377,1.862 5.39,3.466 6.113,2.813c0.438,-0.396 1.174,-2.788 -7.762,-16.938c-0.131,-0.206 -0.279,-0.392 -0.441,-0.555z" id="svg_111"/>
   </g>
   <g id="svg_112">
    <path stroke="#000000" fill="#F9B77A" d="m115.16,73.296c-0.378,-2.926 -3.479,-5.24 -8.269,-6.667c4.272,-2.592 -2.979,-7.028 -3.356,-9.956c-0.802,-6.255 -4.386,-8.292 -19.933,-6.295c-5.809,0.747 -52.085,22.246 -73.375,23.036c-36.792,1.364 2.776,45.348 2.776,45.348l35.216,-9.119c16.794,3.359 62.7,-1.402 65.827,-4.529c3.54,-3.536 1.544,-6.644 -3.248,-8.071c4.273,-2.591 6.696,-5.612 6.32,-8.539c-0.376,-2.928 -3.483,-5.241 -8.273,-6.669c4.271,-2.592 6.692,-5.612 6.315,-8.539z" id="svg_113"/>
    <path stroke="#000000" d="m12.833,119.323l-0.203,-0.227c-0.949,-1.054 -23.167,-25.971 -17.707,-38.863c1.928,-4.552 7.071,-7.016 15.285,-7.319c14.598,-0.542 40.758,-10.777 58.067,-17.551c7.779,-3.043 13.398,-5.24 15.262,-5.48c10.65,-1.369 15.811,-0.894 18.397,1.693c1.134,1.134 1.8,2.734 2.095,5.033c0.117,0.912 1.131,2.146 2.114,3.34c1.395,1.696 2.834,3.449 2.555,5.099c-0.089,0.515 -0.339,0.98 -0.751,1.392c4.61,1.55 7.343,3.951 7.71,6.792c0.363,2.82 -1.637,5.796 -5.645,8.453c4.543,1.554 7.235,3.938 7.599,6.757c0.363,2.823 -1.642,5.805 -5.663,8.464c1.313,0.5 2.379,1.141 3.122,1.884c1.913,1.908 1.667,4.342 -0.673,6.677c-3.421,3.421 -49.279,8.005 -66.166,4.69l-35.398,9.166zm88.395,-67.039c-2.306,-2.306 -7.394,-2.714 -17.562,-1.409c-1.742,0.225 -7.604,2.517 -15.025,5.42c-17.374,6.798 -43.626,17.071 -58.396,17.618c-7.792,0.29 -12.636,2.546 -14.4,6.711c-4.949,11.686 15.088,35.023 17.329,37.577l35.03,-9.071l0.113,0.022c17.467,3.494 62.649,-1.667 65.375,-4.393c1.354,-1.354 2.573,-3.367 0.671,-5.265c-0.808,-0.809 -2.091,-1.489 -3.71,-1.972l-1.081,-0.322l0.965,-0.584c4.255,-2.58 6.42,-5.439 6.082,-8.05c-0.33,-2.586 -3.22,-4.852 -7.919,-6.252l-1.08,-0.323l0.965,-0.583c4.254,-2.581 6.413,-5.441 6.078,-8.05c-0.335,-2.585 -3.219,-4.853 -7.915,-6.252l-1.081,-0.323l0.965,-0.583c0.643,-0.389 0.996,-0.822 1.08,-1.321c0.205,-1.2 -1.089,-2.772 -2.34,-4.294c-1.122,-1.364 -2.18,-2.651 -2.333,-3.849c-0.269,-2.095 -0.828,-3.47 -1.811,-4.452z" id="svg_114"/>
   </g>
   <g id="svg_115">
    <path stroke="#000000" fill="#F9B77A" d="m97.647,50.068c0,0 35.639,-37.882 44.522,-32.06c8.884,5.821 -31.97,32.349 -35.279,48.621" id="svg_116"/>
    <path stroke="#000000" d="m106.399,66.529c1.639,-8.052 12.211,-18.479 21.532,-27.676c7.896,-7.788 15.354,-15.146 14.985,-18.834c-0.065,-0.665 -0.398,-1.184 -1.023,-1.594c-6.999,-4.586 -34.051,21.534 -43.883,31.986l-0.729,-0.686c1.468,-1.56 36.031,-38.119 45.16,-32.136c0.879,0.577 1.374,1.361 1.47,2.332c0.415,4.162 -6.857,11.337 -15.278,19.645c-9.222,9.098 -19.679,19.409 -21.255,27.164l-0.979,-0.201z" id="svg_117"/>
   </g>
   <g id="svg_118">
    <polygon stroke="#000000" fill="#bef1e1" points="44.202,59.378 -1.527,57.197 -55.097,110.767 25.391,124.084   " id="svg_119"/>
    <polygon stroke="#000000" fill="#bef1e1" points="26.104,125.217 45.517,58.439 -0.57,56.24 -1.049,56.719 44.86,58.909 25.748,124.649 -55.531,111.201     -55.964,111.635 25.667,125.143   " id="svg_120"/>
    <polygon stroke="#000000" fill="#bef1e1" points="44.202,59.378 25.391,124.084 -55.097,110.767 -55.531,111.201 25.748,124.649 44.86,58.909 -1.049,56.719     -1.527,57.197   " id="svg_121"/>
   </g>
  </g>
 </g>

</svg>