<?xml version="1.0" encoding="utf-8"?>
<!-- Generator: Adobe Illustrator 16.0.0, SVG Export Plug-In . SVG Version: 6.00 Build 0)  -->
<!DOCTYPE svg PUBLIC "-//W3C//DTD SVG 1.1//EN" "http://www.w3.org/Graphics/SVG/1.1/DTD/svg11.dtd">
<svg version="1.1" id="Ebene_1" xmlns="http://www.w3.org/2000/svg" xmlns:xlink="http://www.w3.org/1999/xlink" x="0px" y="0px"
	 width="236.896px" height="263.335px" viewBox="0 0 236.896 263.335" enable-background="new 0 0 236.896 263.335"
	 xml:space="preserve">
<g>
	<g>
		<g>
			<path fill="#F9B77A" d="M84.074,187.585c0,0-24.957,1.533-25.261-0.103c-3.07-16.555,87.68-123.459,120.314-127.663
				c30.657-3.948-59.515,120.387-59.515,120.387"/>
		</g>
	</g>
	<g>
		<g>
			<path d="M66.76,189.263c-8.635,0-8.811-0.947-8.931-1.598c-1.136-6.115,8.675-21.191,17.104-32.761
				C102.689,116.808,155.706,61.829,179,58.829c3.134-0.406,5.334,0.41,6.527,2.422c4.099,6.904-5.666,29.175-29.022,66.193
				c-17.254,27.347-35.896,53.093-36.082,53.349l-1.618-1.174c20.598-28.4,72.427-104.845,65.004-117.349
				c-0.759-1.278-2.245-1.755-4.553-1.459c-22.766,2.931-75.162,57.464-102.706,95.271c-11.075,15.203-17.152,26.364-16.806,30.821
				c2.249,0.603,13.811,0.326,24.268-0.315l0.122,1.996C76.158,189.074,70.616,189.263,66.76,189.263z"/>
		</g>
	</g>
</g>
<g>
	<g>
		<g>
			<path fill="#F9B77A" d="M181.266,223.228c0,0-60.873-4.486-81.33,0s-63.44-22.24-46.949-26.627
				c16.492-4.387,135.891-24.313,135.891-24.313L181.266,223.228z"/>
		</g>
	</g>
	<g>
		<g>
			<path d="M94.851,224.734c-17.869,0.002-45.399-15.58-46.514-24.09c-0.183-1.387,0.146-3.881,4.393-5.01
				c16.35-4.35,134.787-24.135,135.98-24.334l1.357-0.227l-7.951,53.219l-0.925-0.068c-0.271-0.02-27.297-1.99-51.079-1.99
				c-13.92,0-24.001,0.664-29.964,1.971C98.552,224.554,96.768,224.734,94.851,224.734z M187.684,173.5
				c-13.271,2.224-119.129,19.994-134.439,24.068c-3.182,0.846-2.986,2.328-2.924,2.814c0.918,7.018,26.662,22.352,44.527,22.352
				c0.001,0,0.002,0,0.003,0c1.772,0,3.412-0.164,4.871-0.482c6.104-1.34,16.327-2.018,30.393-2.018c21.37,0,45.34,1.586,50.3,1.932
				L187.684,173.5z"/>
		</g>
	</g>
</g>
<g>
	<g>
		<g>
			<g>
				<g>
					
						<ellipse transform="matrix(-0.7252 0.6885 -0.6885 -0.7252 392.481 -36.9472)" fill="#F9B77A" cx="203.613" cy="59.843" rx="12.102" ry="9.444"/>
				</g>
			</g>
		</g>
	</g>
	<g>
		<g>
			<g>
				<g>
					<path d="M200.954,71.608c-2.721,0-5.15-0.981-6.844-2.766c-3.966-4.178-2.93-11.621,2.31-16.593
						c2.82-2.678,6.41-4.214,9.851-4.214c2.722,0,5.149,0.982,6.845,2.765c3.965,4.175,2.929,11.62-2.312,16.595
						C207.983,70.071,204.393,71.608,200.954,71.608z M206.269,50.036c-2.933,0-6.021,1.335-8.474,3.664
						c-4.438,4.214-5.44,10.389-2.235,13.766c1.33,1.4,3.194,2.143,5.395,2.143c2.933,0,6.021-1.336,8.473-3.662
						c4.438-4.216,5.441-10.393,2.235-13.769C210.332,50.777,208.468,50.036,206.269,50.036z"/>
				</g>
			</g>
		</g>
	</g>
</g>
<g id="Ebene_1_1_">
</g>
<g>
	<g>
		<g>
			<g>
				<g>
					<g>
						<g>
							<path fill="#F1F1F1" d="M197.929,209.81h-88.403c-4.613,0-8.367-3.754-8.367-8.367V22.176c0-4.613,3.754-8.367,8.367-8.367
								h88.403c4.612,0,8.366,3.754,8.366,8.367v179.267C206.297,206.056,202.543,209.81,197.929,209.81z"/>
						</g>
					</g>
				</g>
			</g>
		</g>
	</g>
</g>
<g id="Ebene_2" display="none">
	<g display="inline">
		<g>
			<path fill="#FEFEFE" d="M251.055,1099c-64.979,0-129.96-0.025-194.938,0.078c-3.174,0.006-4.228-0.299-4.225-3.959
				c0.129-130.127,0.122-260.252,0.026-390.379c-0.002-3.145,0.734-3.818,3.837-3.816c130.125,0.088,260.254,0.084,390.38,0.021
				c2.846-0.002,3.966,0.275,3.963,3.688c-0.115,130.291-0.111,260.584-0.018,390.877c0.005,3.004-0.634,3.574-3.592,3.57
				C381.347,1098.976,316.199,1099,251.055,1099z M126.963,1020.023c-0.037,1.135-0.037,2.258,1.016,3.027
				c1.143,3.475,3.619,5.646,6.878,7.059c2.258,3.764,5.663,6.367,9.057,8.984c0.47,2.252,1.688,3.703,4.122,3.854
				c0.295,0.035,0.588,0.086,0.878,0.146c0.233,1.82,1.187,2.869,3.103,2.879c0.303,0.023,0.603,0.064,0.898,0.121
				c0.853,3.119,3.42,4.066,6.119,4.852c0.296,0.037,0.59,0.088,0.881,0.148c2.039,3.496,5.438,4.893,9.098,5.879
				c0.306,0.023,0.604,0.063,0.904,0.121c0.138,1.088,0.796,1.715,1.741,2.219c13.485,7.162,27.85,11.922,42.615,15.568
				c0.979,0.242,1.983,0.137,2.729-0.727c0.609,0.018,1.224,0.029,1.832,0.055c0.91,2.334,2.405,2.219,4.168,0.998
				c0.61,0,1.225,0,1.833,0.002c1.275,2.668,3.152,2.135,5.148,0.965c0.626,0.004,1.253,0.008,1.88,0.01
				c2.725,3.23,5.964,1.842,9.14,1.021c2.104-0.541,4.014,0.512,6.022,0.721c3.808,1.275,7.609,2.521,11.118-0.74
				c1.954-0.01,3.905-0.02,5.859-0.029c5.849,2.25,11.492-0.355,17.207-0.854c1.642-0.143,4.205,0.646,4.936-2.115
				c0.62-0.01,1.236-0.02,1.857-0.029c0.776,0.891,1.697,0.729,2.729,0.506c18.802-4.045,36.362-11.178,52.523-21.568
				c3.907-2.516,8.604-4.32,10.826-8.967c0.314-0.059,0.636-0.105,0.949-0.146c7.021-4.102,13.408-8.922,17.974-15.813l-0.017-0.295
				c2.755-0.146,3.85-2.283,5.088-4.244c1.331-2.105,2.387-4.469,4.06-6.252c12.854-13.703,22.854-29.256,30.299-46.457
				c8.18-18.898,12.973-38.611,13.454-59.252c0.213-9.16-0.069-18.33,0.088-27.494c0.066-3.912-0.378-7.611-2.18-11.105
				c0.273-1.82-0.082-3.57-0.328-5.395c-0.73-5.398-4.732-9.646-5.354-14.889c-1.294-10.988-5.938-20.482-11.455-29.84
				c-8.178-13.871-17.559-26.816-28.227-38.844c-7.588-8.551-16.541-15.438-26.477-21.063c-0.332-0.326-0.664-0.654-0.996-0.98
				c0.178-2.135-1.479-3.332-2.711-4.469c-5.123-4.725-10.314-9.5-18.142-8.6c-22.938-11.791-47.494-17.027-73.091-18.033
				c-10.789-0.424-21.502,0.826-32.152,2.146c-7.464,0.936-15.046,1.996-21.993,5.346c-4.674,0.453-8.946,2.113-13.047,4.313
				c-6.229,2.127-12.072,5.107-17.879,8.162c-0.66,0.34-1.321,0.68-1.979,1.021c-4.306,0.363-8.354,1.15-10.005,5.967l-0.063,0.031
				c-6.814,4.686-13.572,9.436-18.974,15.818c-0.734,0.398-1.474,0.797-2.207,1.195c-12.902,10.402-22.306,23.813-31.729,37.182
				c-3.423,4.854-7.006,9.707-8.089,15.795c-2.146,3.43-4.228,6.887-5.088,10.912c-1.462,2.451-1.313,4.059,2.058,4.213
				c1.473,0.068,2.931,0.602,4.394,0.6c3.612-0.006,4.479,1.328,3.794,5.02c-2.027,10.951-1.84,11.17-12.896,11.18
				c-3.612,0.002-4.854,1.771-5.02,4.613c-0.215,3.699,2.897,2.531,4.708,2.453c15.063-0.645,30.131-1.215,45.213-0.924
				c0.224,2.895-1.608,3.086-3.824,3.068c-12.867-0.115-25.688,1.658-38.567,0.98c-2.002-0.105-3.907,0.52-5.853,0.752
				c-3.345,0.406-4.122,2.219-3.707,5.119c-0.079,0.734-0.158,1.475-0.237,2.213c-3.091,14.801-1.844,29.66-0.493,44.508
				c0.193,2.156,1.102,3.254,3.99,2.641c7.596-1.619,15.307-2.711,22.993-3.844c10.463-1.537,20.716-4.609,31.427-4.355
				c0.25,3.477-1.018,5.402-4.757,6.201c-15.978,3.42-31.887,7.146-47.838,10.688c-1.481,0.33-2.992,0.15-3.164,2.285
				c-0.251,3.125-0.73,6.23-0.982,9.355c-0.851,10.502,4.742,19.137,8.559,28.195c5.694,13.533,16.029,24.213,23.571,36.646
				c2.079,3.428,3.84,7.813,8.791,8.572C126.306,1019.365,126.635,1019.693,126.963,1020.023z"/>
			<path fill="#D0F096" d="M140.93,773.765c5.398-6.379,12.157-11.131,18.975-15.813c0.499,7.617,0.438,15.252,0.85,22.883
				c0.942,17.547,1.92,35.084,3.145,52.617c0.829,11.895,1.914,23.752,2.979,35.621c1.837,20.432,3.936,40.813,7.089,61.09
				c0.617,3.967,5.425,8.762,8.844,7.479c5.806-2.176,10.979-0.588,16.342,0.926c1.239,0.35,2.938,0.406,2.581-1.072
				c-1.217-5.07,2.396-9.504,1.353-14.578c-2.427-11.785-1.562-23.881-1.716-35.734c-0.415-31.604-0.882-63.229,0.359-94.875
				c0.703-17.914,1.915-35.881,1.149-53.854c6.947-3.344,14.529-4.41,21.993-5.34c10.649-1.326,21.363-2.576,32.152-2.152
				c25.597,1.006,50.153,6.242,73.09,18.033c-0.02,22.051-0.037,44.104-0.056,66.154c-14.826-9.934-31.188-14.004-48.737-11.145
				c-17.072,2.781-28.942,12.006-33.707,29.586c-2.612,9.646-4.223,19.363-5.587,29.205c-1.507,10.871-2.715,21.707-2.107,32.732
				c0.604,10.9,3.017,20.967,10.623,29.299c2.172,2.379,3.918,5.145,5.958,7.873c-7.715,0.449-11.604,3.094-12.508,8.305
				c-0.092,0.457-0.183,0.916-0.271,1.375c-2.808,0.982-1.271,3.373-1.626,5.131c-0.27,1.314-0.104,2.727-2.26,2.193
				c-10.613-2.613-21.537-3.242-32.328-4.605c-15.604-1.961-31.198-4.02-46.875-5.547c-9.586-0.934-19.255-2.719-28.873-4.191
				c-3.037-0.473-6.328-1.43-8.797,1.611c-10.472,2.35-20.938,4.709-31.421,7.014c-1.33,0.291-3.017,0.344-3.184,1.855
				c-0.405,3.701,0.707,7.4,2.481,10.396c1.082,1.824,4.224,0.719,6.515,0.148c8.799-2.18,17.629-4.23,26.445-6.334
				c1.925,9.412,3.789,18.834,5.804,28.229c0.664,3.098-0.059,3.623-3.217,3.043c-7.979-1.463-16.044-2.434-24.071-3.619
				c-0.747-0.109-1.713-0.795-1.914,0.498c-0.146,0.934,0.827,1.33,1.503,1.793c4.788,12.756,12.504,23.564,22.055,33.152
				c0.732,1.896,1.469,3.793,2.2,5.688l-0.181,0.197c-4.951-0.76-6.711-5.148-8.791-8.578
				c-7.542-12.432-17.877-23.111-23.572-36.646c-3.813-9.061-9.405-17.689-8.558-28.191c0.252-3.125,0.73-6.23,0.982-9.355
				c0.172-2.135,1.683-1.955,3.164-2.285c15.951-3.541,31.86-7.268,47.838-10.688c3.74-0.799,5.008-2.725,4.762-6.201
				c0.336-0.713,0.67-1.426,1.006-2.137c2.876,2.578,1.487,5.697,1.27,8.75c-0.102,1.387-1.019,3.938,1.529,3.904
				c1.959-0.029,2.12-2.473,1.971-3.98c-1.1-11.016-1.328-22.084-2.396-33.115c-1.672-17.27-2.88-34.654-3.004-52.006
				c-0.137-18.766-1.697-37.492-1.212-56.262C141.04,779.421,140.946,776.593,140.93,773.765z M154.417,837.48
				c-1.774,0.602-1.158,1.797-1.42,2.652c-2.552,8.33,0.124,16.715,0.508,24.936c0.479,10.256,0.822,20.656,2.371,30.93
				c1.336,8.861,1.359,17.914,2.46,26.822c0.264,2.111-0.32,6.381,3.662,5.902c3.676-0.438,2.004-4.123,1.856-6.174
				c-0.428-6.002-1.528-11.953-2.237-17.938c-1.207-10.191-2.514-20.375-3.39-30.602c-0.514-5.969-0.87-12.014-1.562-17.916
				C155.955,849.978,156.416,843.568,154.417,837.48z M155.049,830.585c-1.098-1.031-0.134-3.836-2.608-4.268
				c-1.483-0.264-1.502,1.502-1.354,2.602c0.265,1.916,0.521,4.176,2.868,4.518C155.239,833.625,154.819,831.996,155.049,830.585z"
				/>
			<path fill="#D0F096" d="M423.796,873.07c1.802,3.49,2.242,7.189,2.18,11.104c-0.157,9.162,0.125,18.332-0.088,27.494
				c-0.481,20.641-5.274,40.355-13.454,59.25c-7.445,17.201-17.442,32.756-30.299,46.459c-1.677,1.783-2.729,4.15-4.06,6.252
				c-1.242,1.961-2.333,4.096-5.088,4.244c0.352-1.957,0.694-3.914,1.041-5.871c1.361-3.328-1.509-2.707-2.896-2.74
				c-4.653-0.104-5.108-1.938-4.015-6.23c5.376-21.066,8.111-42.404,5.898-64.23c-2.274-22.436-11.563-33.098-33.607-37.977
				c-7.289-1.613-14.646-1.939-22.942-1.092c1.918-2.32,0.852-5.342,4.431-5.592c11.241-0.777,16.51-8.563,20.237-17.889
				c1.183-2.959,1.896-6.295-0.023-9.119c-2.225-3.27-1.53-6.102,0.229-9.086c2.806,0.156,5.676-0.018,8.4,0.525
				c9.888,1.969,19.951,2.27,29.915,3.492c8.333,1.02,16.675,2.016,25.037,2.73c5.465,0.469,10.944,2.98,16.468,0.248
				C422.553,875.072,422.873,873.671,423.796,873.07z"/>
			<path fill="#E4BE8D" d="M423.796,873.07c-0.923,0.602-1.24,2.002-2.637,1.975c-0.249-2.766-1.289-4.723-4.438-5.041
				c-5.763-0.578-11.498-1.354-17.255-1.965c-18.738-1.98-37.48-3.918-56.226-5.873c0.215-5.771,1.887-11.395,1.615-17.223
				c-0.561-12.123-6.205-21.684-14.8-29.795c0.018-22.053,0.035-44.104,0.055-66.156c7.824-0.898,13.02,3.877,18.142,8.6
				c1.23,1.141,2.89,2.336,2.712,4.469l0.019,0.018c-1.448,1.123-0.967,2.729-0.969,4.158c-0.025,23.094-0.022,46.186,0.002,69.271
				c0.001,0.814-0.363,1.83,1.939,3.586c0-26.15,0-51.104,0-76.063v0.012c9.938,5.625,18.894,12.51,26.479,21.063
				c10.668,12.023,20.049,24.977,28.227,38.848c5.52,9.354,10.161,18.852,11.455,29.84c0.617,5.242,4.619,9.49,5.354,14.889
				C423.714,869.494,424.07,871.244,423.796,873.07z"/>
			<path fill="#E4BE8D" d="M202.876,738.453c0.766,17.973-0.446,35.939-1.149,53.854c-1.242,31.646-0.774,63.271-0.36,94.875
				c0.156,11.855-0.709,23.947,1.717,35.732c1.044,5.074-2.566,9.51-1.353,14.58c0.354,1.479-1.342,1.42-2.581,1.072
				c-5.362-1.516-10.536-3.102-16.342-0.926c-3.419,1.279-8.227-3.514-8.844-7.479c-3.153-20.273-5.252-40.66-7.089-61.09
				c-1.064-11.871-2.149-23.73-2.979-35.621c-1.225-17.533-2.199-35.07-3.145-52.617c-0.411-7.631-0.351-15.266-0.85-22.885
				c-0.001,0,0.063-0.031,0.063-0.031c3.741-1.307,7.072-3.301,10.001-5.967c0.66-0.34,1.321-0.684,1.981-1.021
				c1.067,0.822,1.053,2,1.042,3.174c-0.254,25.24,1.039,50.439,2.008,75.648c0.308,7.949,0.101,15.979,1.204,23.816
				c0.88,6.234-0.063,12.791,3.032,18.789c0.432-6.439,2.907-12.705,1.247-19.248c-0.548-2.162-0.992-4.48-0.319-6.398
				c3.012-8.602-0.896-17.861,2.71-26.361c0.225-0.521-0.113-1.297-0.229-1.945c-1.268-7.029,1.067-13.869,1.33-20.836
				c0.183-4.904,1.024-10.057,1.386-14.979c0.636-8.697,2.365-17.258,2.729-25.932c0.199-4.729,2.243-9.143,1.739-13.896
				C193.927,740.572,198.202,738.91,202.876,738.453z"/>
			<path fill="#BAD4E4" d="M142.808,914.951c-0.334,0.711-0.668,1.424-1.004,2.137c-10.716-0.254-20.969,2.818-31.432,4.357
				c-7.688,1.131-15.397,2.223-22.993,3.842c-2.892,0.615-3.797-0.482-3.99-2.639c-1.352-14.85-2.599-29.707,0.497-44.512
				c16.892-1.041,33.776-2.088,50.715-2.18c3.637-0.021,5.973,1.168,6.233,4.777C141.672,892.126,143.605,903.462,142.808,914.951z"
				/>
			<path fill="#BAD4E4" d="M98.905,827.941c1.086-6.09,4.668-10.941,8.092-15.795c9.424-13.365,18.823-26.775,31.729-37.184
				c0.055,16.648,0.132,33.297,0.131,49.947c0,2.471-0.619,4.875-1.941,7.031c-10.79-1.041-21.585-1.98-32.439-1.898
				C102.368,830.058,100.056,830.505,98.905,827.941z"/>
			<path fill="#D0F096" d="M189.829,742.769c0.504,4.756-1.54,9.172-1.739,13.895c-0.362,8.672-2.095,17.232-2.729,25.932
				c-0.358,4.922-1.204,10.072-1.386,14.98c-0.262,6.967-2.597,13.805-1.33,20.836c0.117,0.646,0.452,1.424,0.229,1.945
				c-3.604,8.5,0.302,17.76-2.71,26.357c-0.672,1.92-0.229,4.238,0.319,6.398c1.66,6.543-0.815,12.813-1.247,19.25
				c-3.098-5.998-2.152-12.555-3.032-18.791c-1.104-7.838-0.896-15.867-1.204-23.816c-0.968-25.207-2.262-50.408-2.008-75.645
				c0.012-1.178,0.026-2.355-1.042-3.178C177.757,747.876,183.599,744.896,189.829,742.769z"/>
			<path fill="#BAD4E4" d="M136.073,866.005c-15.084-0.291-30.147,0.279-45.214,0.924c-1.811,0.078-4.923,1.246-4.708-2.453
				c0.166-2.844,1.403-4.609,5.02-4.613c11.055-0.01,10.864-0.229,12.896-11.18c0.685-3.689-0.182-5.025-3.794-5.02
				c-1.463,0.002-2.921-0.531-4.394-0.6c-3.369-0.154-3.521-1.766-2.058-4.217c1.587,1.814,3.716,1.064,5.622,1.105
				c12.848,0.295,25.688,0.617,38.474,2.063l0.063,0.064c-0.031,1.432,0.084,2.771,1.9,3.049c0.021,3.627,0.042,7.254,0.063,10.881
				c-0.774,2.615-2.938,4.889-1.968,7.938c0.316,1.012,0.638,2.02,0.958,3.039C137.981,866.66,137.027,866.332,136.073,866.005z"/>
			<path fill="#E4BE8D" d="M374.029,1022.001c-0.347,1.957-0.689,3.914-1.041,5.869c0,0,0.017,0.295,0.017,0.293
				c-4.593,1.688-7.498,5.617-11.063,8.605c-2.5,2.105-6.431,3.105-6.911,7.209c-0.313,0.039-0.635,0.092-0.951,0.146
				c-1.936-0.342-3.104,1.166-4.334,2.094c-14.566,11.01-30.908,18.326-48.207,23.867c-4.493,1.438-9.43,1.396-13.536,4.066
				c-0.621,0.014-1.237,0.02-1.858,0.027c-4.066,0.443-8.228,0.51-12.17,1.453c-3.316,0.797-6.978-0.971-9.972,1.52
				c-1.954,0.012-3.905,0.02-5.86,0.025c-3.721,0.076-7.523-1.188-11.117,0.742c-2.012-0.209-3.922-1.262-6.022-0.723
				c-2.818-2.367-6.068-0.871-9.14-1.02c-0.626-0.002-1.253-0.006-1.879-0.01c-1.417-1.932-3.354-1.063-5.148-0.965
				c-0.608-0.002-1.223-0.002-1.833-0.006c-1.042-1.783-2.665-1.146-4.168-0.994c-0.607-0.021-1.222-0.037-1.832-0.063
				c-0.513-1.078-1.545-1.041-2.515-1.25c-9.358-2.02-18.436-4.938-27.388-8.338c-5.856-2.223-11.083-5.846-17.187-7.471
				c-0.3-0.059-0.602-0.1-0.905-0.121c-2.05-3.48-5.422-4.912-9.097-5.879c-0.292-0.063-0.585-0.111-0.882-0.148
				c-0.795-3.188-3.349-4.152-6.119-4.852c-0.299-0.059-0.6-0.098-0.901-0.121c-0.086-1.979-1.117-2.938-3.1-2.879
				c-0.291-0.063-0.583-0.111-0.879-0.148c-0.35-2.379-1.63-3.764-4.121-3.852c-3.394-2.617-6.799-5.225-9.055-8.986
				c0.099-3.533-4.747-4.625-4.146-8.396c4.271,2.342,6.033,7.666,10.979,9.191c0.457,0.469,0.914,0.936,1.371,1.396
				c0.214,0.254,0.428,0.51,0.641,0.766l0.206,0.252c0.271,0.26,0.542,0.521,0.813,0.779c0.413,0.352,0.825,0.697,1.238,1.047
				c0.302,0.309,0.604,0.613,0.905,0.92l0.059,0.078c0.066,1.787,1.366,1.961,2.714,2.068l0.271,0.135
				c0.31,0.242,0.618,0.484,0.927,0.729l0.08,0.102c0.07,1.754,1.354,1.93,2.675,2.059l0.313,0.158
				c0.321,0.229,0.644,0.457,0.964,0.684l0.057,0.064c0.103,1.91,1.474,1.979,2.887,1.994l0.083,0.084
				c0.124,1.715,1.394,1.895,2.702,2.018l0.24,0.154c0.333,1.668,1.616,1.754,2.942,1.768l0.097,0.09
				c0.563,2.221,2.638,2.844,4.252,3.854c13.453,8.439,28.284,13.668,43.521,17.521c7.714,1.951,15.63,4.193,23.848,2.994
				l0.361-0.152l0.375,0.115c0.046,0.24,0.093,0.48,0.14,0.723c0.135-0.242,0.271-0.484,0.405-0.729
				c0.389-0.018,0.772-0.031,1.163-0.047c0.356,1.127,1.243,1.49,2.306,1.494c7.472,0.016,14.942,0.018,22.414,0.014
				c1.047,0,1.967-0.285,2.422-1.365c1.633-0.17,3.266-0.342,4.897-0.512c1.528,1.549,3.508,1.051,5.205,0.787
				c5.715-0.885,11.459-1.762,17.045-3.207c2.694-0.697,6.127-0.207,7.916-3.285c19.79-5.658,37.694-15.07,53.938-27.586
				C360.973,1033.554,367.396,1027.64,374.029,1022.001z"/>
			<path fill="#E4BE8D" d="M139.945,856.015c-0.021-3.627-0.042-7.254-0.063-10.883c0.177-1.521-0.479-2.523-1.902-3.047
				l-0.063-0.064c-2.893-3.104-0.136-6.77-1-10.076c1.323-2.158,1.941-4.563,1.941-7.033c0.001-16.648-0.077-33.297-0.131-49.945
				c0.73-0.395,1.468-0.797,2.204-1.195c0.016,2.824,0.107,5.654,0.034,8.48c-0.483,18.77,1.077,37.496,1.213,56.262
				c0.122,17.35,1.33,34.73,3.005,52.006c1.065,11.031,1.297,22.104,2.396,33.115c0.149,1.508-0.012,3.945-1.971,3.979
				c-2.548,0.035-1.63-2.521-1.529-3.904c0.222-3.051,1.606-6.172-1.27-8.75c0.795-11.488-1.141-22.824-1.977-34.217
				c-0.266-3.607-2.601-4.795-6.233-4.777c-16.938,0.092-33.823,1.145-50.718,2.186c0.078-0.736,0.157-1.479,0.235-2.215
				c4.324-1.145,8.729-1.775,13.199-1.918c11.289-0.352,22.583-0.598,33.867-1.057c3.813-0.156,7.374-1.119,7.75-5.967
				c-0.318-1.016-0.641-2.025-0.957-3.039C139.473,861.511,142.5,859.457,139.945,856.015z"/>
			<path fill="#D0F096" d="M136.916,831.943c0.864,3.307-1.892,6.973,1,10.078c-12.785-1.447-25.627-1.77-38.475-2.063
				c-1.906-0.043-4.036,0.705-5.622-1.107c0.86-4.025,2.942-7.48,5.086-10.908c1.15,2.563,3.463,2.113,5.567,2.1
				C115.33,829.962,126.125,830.9,136.916,831.943z"/>
			<path fill="#D0F096" d="M138.935,866.986c-0.376,4.848-3.938,5.813-7.75,5.967c-11.284,0.459-22.578,0.705-33.867,1.057
				c-4.47,0.145-8.875,0.771-13.199,1.918c-0.414-2.895,0.363-4.713,3.708-5.119c1.942-0.229,3.853-0.854,5.854-0.752
				c12.883,0.684,25.7-1.098,38.566-0.979c2.216,0.02,4.048-0.172,3.824-3.068C137.027,866.332,137.981,866.66,138.935,866.986z"/>
			<path fill="#BAD4E4" d="M288.002,1074.156c4.106-2.668,9.043-2.631,13.536-4.07c17.299-5.541,33.641-12.854,48.207-23.867
				c1.229-0.928,2.398-2.436,4.334-2.094c-2.224,4.648-6.917,6.453-10.824,8.969c-16.161,10.396-33.726,17.523-52.523,21.568
				C289.699,1074.884,288.779,1075.046,288.002,1074.156z"/>
			<path fill="#BAD4E4" d="M169.914,1057.095c6.103,1.625,11.326,5.248,17.187,7.471c8.954,3.396,18.026,6.316,27.388,8.338
				c0.97,0.209,2.002,0.174,2.515,1.252c-0.742,0.863-1.749,0.971-2.729,0.729c-14.769-3.645-29.129-8.406-42.615-15.568
				C170.71,1058.81,170.051,1058.183,169.914,1057.095z"/>
			<path fill="#BAD4E4" d="M355.031,1043.982c0.48-4.107,4.411-5.105,6.911-7.207c3.563-2.994,6.47-6.924,11.063-8.611
				C368.439,1035.06,362.052,1039.88,355.031,1043.982z"/>
			<path fill="#BAD4E4" d="M264.002,1077.154c2.994-2.486,6.651-0.721,9.972-1.518c3.942-0.943,8.104-1.01,12.17-1.451
				c-0.729,2.764-3.293,1.975-4.935,2.115C275.494,1076.798,269.848,1079.404,264.002,1077.154z"/>
			<path fill="#BAD4E4" d="M130.704,1021.703c-0.596,3.781,4.25,4.871,4.151,8.406c-3.26-1.41-5.736-3.584-6.879-7.059
				c0.096-0.771,0.188-1.545,0.281-2.314C129.073,1021.06,129.888,1021.382,130.704,1021.703z"/>
			<path fill="#D0F096" d="M169.969,751.951c-2.932,2.668-6.263,4.662-10.004,5.969
				C161.615,753.103,165.667,752.316,169.969,751.951z"/>
			<path fill="#BAD4E4" d="M247.022,1077.925c3.594-1.93,7.396-0.666,11.117-0.742
				C254.634,1080.447,250.829,1079.201,247.022,1077.925z"/>
			<path fill="#BAD4E4" d="M159.912,1051.095c3.674,0.967,7.046,2.4,9.097,5.879
				C165.349,1055.986,161.951,1054.591,159.912,1051.095z"/>
			<path fill="#BAD4E4" d="M231.86,1076.185c3.068,0.146,6.318-1.35,9.14,1.02C237.823,1078.027,234.584,1079.414,231.86,1076.185z"
				/>
			<path fill="#BAD4E4" d="M152.912,1046.095c2.771,0.695,5.324,1.664,6.12,4.854
				C156.332,1050.162,153.762,1049.214,152.912,1046.095z"/>
			<path fill="#BAD4E4" d="M224.832,1075.21c1.794-0.094,3.732-0.961,5.148,0.965
				C227.984,1077.345,226.107,1077.878,224.832,1075.21z"/>
			<path fill="#BAD4E4" d="M143.91,1039.095c2.491,0.088,3.771,1.475,4.122,3.854C145.597,1042.798,144.38,1041.347,143.91,1039.095
				z"/>
			<path fill="#BAD4E4" d="M218.831,1074.21c1.503-0.146,3.125-0.789,4.168,0.996
				C221.237,1076.429,219.741,1076.544,218.831,1074.21z"/>
			<path fill="#BAD4E4" d="M148.91,1043.095c1.979-0.061,3.014,0.9,3.103,2.879C150.094,1045.964,149.144,1044.916,148.91,1043.095z
				"/>
			<path fill="#D0F096" d="M128.263,1020.734c-0.098,0.771-0.191,1.545-0.287,2.316c-1.049-0.771-1.049-1.895-1.016-3.027
				c0,0,0.198-0.188,0.196-0.186C127.527,1020.138,127.895,1020.437,128.263,1020.734z"/>
			<path fill="#E4BE8D" d="M350.964,762.06c0.332,0.328,0.664,0.654,0.992,0.982c-0.001,0-0.001-0.012-0.001-0.012
				c-0.321-0.32-0.647-0.645-0.977-0.957L350.964,762.06z"/>
			<path fill="#D0F096" d="M126.963,1020.023c-0.329-0.33-0.654-0.658-0.983-0.988c0,0,0.181-0.195,0.179-0.193
				c0.335,0.332,0.67,0.664,1.006,0.996L126.963,1020.023z"/>
			<path fill="#654027" d="M145.954,1035.144c-0.413-0.348-0.825-0.695-1.236-1.047c0.012-0.553-0.255-0.82-0.813-0.777
				c0,0-0.206-0.252-0.203-0.252c0.087-0.51-0.104-0.783-0.644-0.768c-0.457-0.467-0.914-0.932-1.367-1.395
				c-0.086-2.148,2.254-4.34-0.162-6.453c-1.945-1.703-2.354-4.008-1.954-6.369c0.354-2.082-0.823-3.027-2.225-3.982
				c-3.383-8.486-3.581-17.723-6.139-26.418c-0.531-1.816-0.302-3.514-2.78-3.854c-8.853-1.217-17.688-2.545-26.525-3.83
				c-0.677-0.463-1.647-0.859-1.503-1.793c0.201-1.293,1.167-0.607,1.914-0.498c8.027,1.186,16.096,2.156,24.071,3.619
				c3.158,0.58,3.881,0.055,3.217-3.043c-2.016-9.396-3.879-18.814-5.805-28.23c-0.17-4.361-2.357-8.604-0.84-13.082
				c2.468-3.041,5.757-2.084,8.796-1.611c9.619,1.479,19.288,3.264,28.874,4.189c15.677,1.525,31.271,3.586,46.875,5.553
				c10.791,1.354,21.713,1.98,32.328,4.6c2.155,0.531,1.99-0.877,2.257-2.191c0.358-1.758-1.178-4.146,1.629-5.133
				c1.32,1.912,1.422,3.965,0.651,6.092c-1.308,3.621-0.23,6.811,1.483,10.211c2.12-1.658,0.76-4.645,3.313-6.098
				c-0.408,5.141-0.778,9.85-1.151,14.559c-0.229,0.248-0.216,0.482,0.042,0.703c0.639,11.297,3.547,22.188,5.959,33.168
				c0.116,1.506-0.122,3.08,0.818,4.436c1.477,2.438,3.995,1.084,5.983,1.652c12.1,1.908,24.18,3.941,36.306,5.66
				c4.51,0.639,7.889,1.928,7.084,7.262c-0.479,3.189,1.123,4.057,3.738,4.459c4.734,0.734,9.438,1.693,14.187,2.328
				c6.276,0.844,12.59,1.461,18.886,2.178c-3.731-2.973-8.655-1.75-12.333-4.969c8.086,1.063,16.172,2.119,24.258,3.182
				c0.042-0.309,0.084-0.613,0.126-0.922c-7.188-1.322-14.38-2.646-21.57-3.969c0.08-0.447,0.16-0.896,0.24-1.348
				c3.854,0.541,7.712,1.035,11.557,1.637c4.727,0.738,9.438,1.258,14.195,0.313c1.035-0.207,2-0.605,2.076-1.777
				c0.081-1.248-0.95-1.709-1.945-1.854c-7.358-1.094-14.707-2.377-22.104-3.127c-11.209-1.139-22.229-3.475-33.424-4.771
				c-13.102-1.518-26.06-4.229-39.074-6.426c-0.455-0.852-2.302-1.275-0.829-2.715c2.038,1.457,4.472,0.367,6.633,1.031
				c1.579,1.314,3.428,0.703,5.188,0.721c12.605,1.994,25.222,3.953,37.813,6.006c3.187,0.52,4.829,0.557,5.582-3.764
				c0.919-5.275,0.195-7.85-5.292-8.965c-4.813-0.979-9.454-2.779-14.198-4.125c-1.729-0.486-3.251-1.051-3.021-3.201
				c0.332-3.121-1.552-2.936-3.723-2.789c-5.119,0.338-10.275,0.873-15.229-1.143c-1.209-1.082-2.418-2.164-3.627-3.246
				c-3.936-6.777-1.028-14.783-3.894-21.758c-0.099-0.236-0.069-0.766-0.067-0.766c4.876-0.438,1.406-4.439,2.735-6.371
				c2.125,0.387,1.026,5.682,4.985,3.275c2.915,2.988,7.771,1.563,9.699-2.775c0.627-1.41,0.094-3.967,3.001-3.426
				c-0.399,2.223-0.792,4.441-1.208,6.668c-1.455,7.787-2.918,8.436-9.748,4.268c-1.67-1.02-3.666-1.332-5.127-0.439
				c-1.468,0.896-0.896,2.57-0.41,4.35c0.818,2.992-0.28,6.59,3.322,8.5c0.03,0.018-0.047,0.248-0.065,0.34
				c-0.946,1.455-2.056-1.143-3.217,0.428c2.436,2.029,0.179,5.848,3.521,8.072c3.908,2.605,8.009,1.844,12.054,1.855
				c7.885,0.02,11.782-6.857,7.955-13.797c-3.015-5.461-5.732-10.961-3.911-17.469c0.831-2.965-0.854-3.139-3.016-2.924
				c-0.688-2.969,1.787-2.824,3.141-2.52c2.423,0.541,3.247,2.418,2.417,4.932c-2.222,6.713,0.7,12.342,3.936,17.865
				c0.414,0.705,0.856,2.104,2.123,0.74c2.202-2.379,4.625-0.893,6.922-0.297c4.093,1.061,7.721,3.617,12.166,3.795
				c0.004-3.387-4.876-6.146-0.447-11.314c1.393,11.908,9.312,15.225,18.515,17.145c1.749,0.361,3.784,1.064,4.72,3.508
				c-1.867,0.668-3.285,0.354-4.91-0.223c-9.895-3.475-20.313-5.326-29.943-9.604c-3.811-1.688-6.396-0.846-7.896,3.055
				c-0.769,2-1.539,4.006-2.172,6.055c-1.145,3.691-0.479,6.377,3.979,7.012c2.067,0.295,4.138,0.795,6.129,1.438
				c11.161,3.607,22.313,7.246,33.438,10.971c3.563,1.191,6.583,0.445,9.114-2.137c2.46-2.51,2.966-5.762,1.637-8.809
				c-6.752-15.48-13.42-31.012-20.711-46.236c-3.563-7.449-12.332-7.434-17.006-0.609c-1.491,2.178-1.491,2.178-4.367,2.771
				c0.835-4.646,3.563-7.725,7.688-9.93c-3.992-1.1-7.731-3.818-11.318,1.398c-0.424-2.764,1.463-4.334,0.348-6.176
				c-0.791-1.305-1.411-3.162-3.146-2.387c-1.4,0.625,1.503,0.979,0.703,2.229c-0.903,1.408-1.021,3.826-3.695,2.281
				c-2.918-1.266-3.557-3.895-3.701-6.875c-5.383,1.5-10.313,3.361-15.525,4.307c-10.084,1.824-10.063,1.932-11.024,11.98
				c-2.224-2.182-0.769-4.939-1.148-7.402c-0.163-1.049,0.408-2.662-1.421-2.547c-7.055,0.443-14.622-1.094-20.354,4.807
				c-0.965,0.992-1.926,1.125-3.107,0.982c0.902-5.211,4.793-7.855,12.51-8.305c-2.04-2.729-3.786-5.494-5.958-7.873
				c-7.606-8.332-10.021-18.396-10.623-29.299c-0.605-11.025,0.604-21.861,2.106-32.732c1.363-9.842,2.976-19.561,5.587-29.205
				c4.766-17.58,16.634-26.805,33.707-29.586c17.55-2.859,33.911,1.211,48.737,11.143c8.596,8.113,14.238,17.674,14.801,29.797
				c0.271,5.828-1.399,11.451-1.615,17.221c-1.438,1.699-1.522,3.838-1.902,5.883c-1.755,2.982-2.447,5.816-0.227,9.086
				c1.922,2.822,1.206,6.16,0.023,9.119c-3.729,9.322-8.996,17.107-20.237,17.889c-3.579,0.25-2.513,3.271-4.431,5.588
				c8.297-0.848,15.654-0.52,22.943,1.096c22.045,4.879,31.333,15.543,33.606,37.979c2.213,21.824-0.521,43.162-5.897,64.229
				c-1.099,4.301-0.644,6.129,4.012,6.236c1.389,0.031,4.259-0.59,2.896,2.74c-6.634,5.639-13.057,11.553-19.945,16.857
				c-16.246,12.516-34.149,21.928-53.939,27.584c-5.6,1.135-11.188,2.311-16.795,3.391c-4.441,0.854-9.092,0.52-13.372,2.316
				c-1.634,0.17-3.268,0.342-4.898,0.516c-9.042-0.988-18.09-0.723-27.14-0.146c-0.39,0.018-0.775,0.031-1.16,0.053
				c-0.182-0.068-0.364-0.068-0.548,0.002l-0.375-0.115c0,0-0.362,0.15-0.364,0.156c-0.641-1.172-1.72-1.383-2.939-1.488
				c-20.082-1.775-38.783-8.109-56.795-16.922c-3.98-1.949-7.324-5.186-11.884-5.963c0,0-0.096-0.09-0.095-0.092
				c-0.397-1.559-1.452-2.029-2.945-1.766c0,0-0.238-0.156-0.235-0.158c-0.198-1.613-1.303-2.018-2.707-2.014
				c0,0-0.083-0.084-0.082-0.084c-0.417-1.453-1.479-1.971-2.885-1.994c0,0-0.058-0.064-0.057-0.064
				c-0.056-0.604-0.359-0.854-0.965-0.684c0,0-0.313-0.158-0.313-0.16c-0.152-1.646-1.245-2.074-2.68-2.057c0,0-0.08-0.1-0.078-0.1
				c-0.032-0.6-0.287-0.906-0.928-0.73c0,0-0.271-0.137-0.271-0.139c-0.148-1.68-1.235-2.133-2.717-2.066
				c0,0-0.059-0.076-0.058-0.076C146.844,1035.476,146.575,1035.136,145.954,1035.144z M284.882,908.814
				c-0.346-1.295-0.923-1.924-2.524-1.936c-7.913-0.057-15.798-0.512-23.255-3.576c-1.713-0.705-1.906,0.316-1.999,1.568
				c-3.245-0.064-1.932-4.816-5.102-4.955c-1.939,5.736,0.188,15.129,4.333,18.924c1.236,1.133,2.901,2.596,4.375,1.643
				c4.316-2.799,7.611-1.854,10.809,1.768c0.626,0.709,2.137,0.828,3.256,0.883c7.267,0.355,16.208-9.18,15.697-16.43
				C288.302,906.562,286.98,908.628,284.882,908.814z M264.035,896.035l-0.056-0.047c2.021,3.123,5.396,2.744,8.358,2.936
				c4.477,0.287,8.994-0.145,13.471,0.146c5.48,0.354,10.064,2.34,11.527,8.65c2.507-2.02,5.854-1.867,8.067-4.408
				c4.146-4.74,8.413-9.314,9.885-15.73c1.492-6.506,3.116-12.982,4.611-19.49c0.252-1.092,1.615-2.15,0.801-3.215
				c-4.335-5.658-1.973-11.633-1.021-17.551c0.81-5.061-1.302-11.826-4.622-13.35c-5.319-2.436-10.729-4.225-16.896-3.236
				c-8.396,1.342-16.998,3.211-24.938-1.994c-2.293-1.504-4.533-3.096-6.892-4.49c-3.133-1.857-9.485-0.824-11.187,1.896
				c-2.635,4.227-4.764,8.66-6.146,13.52c-3.565,12.547-3.559,25.607-5.707,38.359c-1.003,5.951-0.878,12.268,0.569,18.348
				c0.271,1.146,0.395,2.322,1.798,2.703c1.527,0.416,1.966-0.725,2.62-1.699c2.724-4.066,6.527-3.91,10.646-2.719
				C260.623,895.152,262.009,896.816,264.035,896.035z M164.923,942.093c-11.701-1.537-23.418-2.996-35.104-4.66
				c-3.729-0.527-5.502,0.398-4.642,4.408c0.02,0.828-0.083,1.682,0.073,2.48c3.976,20.064,7.965,40.135,11.975,60.193
				c1.822,9.141,2.296,9.346,11.529,10.641c19.433,2.725,38.83,5.67,58.244,8.51c14.643,2.143,29.271,4.354,43.934,6.342
				c5.663,0.766,6.253-0.025,5.181-5.473c-3.819-19.422-7.656-38.84-11.536-58.25c-3.312-16.564-2.146-14.154-18.489-16.33
				c-9.375-1.248-18.845-2.096-28.174-3.396C186.93,945.039,175.964,943.285,164.923,942.093z M302.705,926.427
				c1.723,0.959,4.038,1.453,4.697,2.777c1.75,3.508,4.723,4.23,8.012,4.969c2.414,0.541,4.702,1.633,7.107,2.23
				c6.828,1.688,11.046,5.895,13.868,12.354c6.311,14.449,13.211,28.646,19.055,43.303c0.466,1.17,0.624,2.871,2.423,2.662
				c1.537-0.176,2.68-0.953,3.016-2.787c3.365-18.395,4.981-36.898,0.943-55.313c-2.479-11.322-8.831-19.98-20.964-23.039
				c-7.381-1.859-14.839-1.707-22.33-1.414c-1.404,0.055-2.644,0.41-3.286,1.813C312.64,919.687,308.104,923.48,302.705,926.427z
				 M321.403,901.019c8.729,0.016,19.507-13.857,17.332-21.885c-0.931-3.434-3.363-5.814-7.039-3.984
				c-5.121,2.547-9.977,5.684-11.45,11.904c-0.724,3.059-1.229,6.201-2.313,9.127C316.354,900.429,318.481,901.146,321.403,901.019z
				 M301.015,1016.572c-2.125-1.381-3.825-1.207-5.438-1.451c-11.612-1.76-23.215-3.582-34.833-5.291
				c-1.709-0.252-4.396-2.201-4.991,0.4c-0.562,2.445,2.737,2.174,4.438,2.869c0.717,0.295,1.655-0.016,2.475,0.096
				c5.834,0.775,11.664,1.592,18.265,2.498c-1.688,1.652-2.925,1.885-4.185,2.184c-5.325,1.271-10.604,2.73-15.959,3.873
				c-2.543,0.545-2.582,1.779-2.187,3.934c0.503,2.74,1.779,2.457,3.867,1.855C275.05,1023.875,287.67,1020.349,301.015,1016.572z
				 M202.663,1031.611c0.758-0.422,2.646,0.98,2.446-1.117c-0.164-1.736,0.491-4.055-2.598-4.494
				c-7.646-1.092-15.25-2.455-22.879-3.684c-1.259-0.201-2.339,0.051-2.515,1.613c-0.197,1.77-0.082,3.473,2.087,3.84
				C186.992,1029.089,194.788,1030.328,202.663,1031.611z M231.557,1030.132c-1.054-0.105-2.542,0.154-2.582,2.527
				c-0.034,2.041,0.853,2.859,2.937,3.08c6.916,0.717,13.814,1.596,20.708,2.508c1.489,0.199,3.043,1.035,3.305-1.396
				c0.205-1.896-0.387-3.25-2.504-3.553C246.395,1032.291,239.372,1031.265,231.557,1030.132z M222.516,1035.128
				c1.466-1.063,4.129,1.105,4.354-2.139c0.185-2.605-0.933-4.002-3.557-4.322c-4.249-0.521-8.48-1.184-12.73-1.689
				c-1.438-0.17-3.17-0.451-3.408,1.756c-0.199,1.873,0.594,3.469,2.475,3.729C214.041,1033.068,218.406,1033.75,222.516,1035.128z
				 M171.676,1026.958c1.368-0.064,3.205,0.693,3.173-1.826c-0.026-1.865,0.051-3.736-2.557-4.039
				c-3.123-0.365-6.225-0.926-9.351-1.266c-1.678-0.188-4.174-2.314-4.688,1.184c-0.399,2.746,1.364,4.289,4.053,4.674
				C165.425,1026.13,168.549,1026.531,171.676,1026.958z M156.346,1024.525c0.277-4.713-1.78-6.621-6.136-6.414
				c-1.271,0.061-2.57-0.459-3.861-0.693c-1.874-0.34-4.217-0.393-4.611,1.6c-0.345,1.73,1.646,3.23,3.43,3.623
				C148.829,1023.451,152.569,1023.91,156.346,1024.525z M273.48,1016.9c-0.053-0.24-0.104-0.48-0.158-0.719
				c-4.547-0.768-9.092-1.547-13.641-2.295c-1.931-0.314-3.511,0.025-2.818,2.496c0.488,1.75-0.654,5.137,3.028,4.332
				C264.48,1019.714,268.956,1018.195,273.48,1016.9z M350.802,1029.201c-2.065-0.195-4.131-0.395-6.196-0.59
				C346.553,1030.4,348.734,1029.81,350.802,1029.201z"/>
			<path fill="#BAD4E4" d="M271.089,953.871c-1.331,1.932,2.14,5.938-2.736,6.371c-0.002,0-0.027,0.527,0.067,0.766
				c2.861,6.975-0.042,14.98,3.894,21.758c-0.187,4.031-0.89,7.908,0.295,12.119c0.767,2.73,2.813,8.084-3.786,8.389
				c-2.16-0.666-4.595,0.428-6.633-1.027c-2.728-0.41-5.448-0.818-8.173-1.23c-2.412-10.979-5.32-21.871-5.958-33.168
				c4.349,0.285,8.733-0.395,13.075,0.447c-4.227-2.021-8.729-1.01-13.118-1.152c0.374-4.707,0.744-9.416,1.151-14.557
				c-2.553,1.449-1.189,4.438-3.313,6.098c-1.717-3.4-2.791-6.59-1.483-10.213c0.771-2.127,0.668-4.18-0.653-6.09
				c0.093-0.459,0.184-0.918,0.271-1.375c1.185,0.143,2.145,0.01,3.108-0.982c5.729-5.896,13.299-4.359,20.354-4.807
				c1.828-0.115,1.256,1.498,1.42,2.547c0.383,2.467-1.072,5.227,1.148,7.402C270.377,948.066,270.732,950.968,271.089,953.871z
				 M261.557,942.345c-2.072,4.717-1.609,8.281,4.313,9.342c0.279-1.221,0.555-3.639-0.313-3.451
				c-5.859,1.252-2.488-3.076-3.185-4.881c0.103-0.396,0.406-0.924,0.257-1.166C262.33,941.707,261.873,941.949,261.557,942.345z"/>
			<path fill="#E4BE8D" d="M101.903,980c8.841,1.285,17.676,2.611,26.525,3.828c2.479,0.342,2.246,2.037,2.78,3.854
				c2.558,8.697,2.755,17.936,6.136,26.418c-1.264-0.229-2.549-0.756-3.771-0.643c-3.232,0.303-6.347-2.693-9.614-0.307
				C114.407,1003.562,106.691,992.755,101.903,980z"/>
			<path fill="#9C9599" d="M122.96,936.976c-1.521,4.479,0.669,8.717,0.84,13.082c-8.816,2.102-17.646,4.154-26.445,6.334
				c-2.291,0.566-5.434,1.676-6.515-0.148c-1.774-2.996-2.89-6.695-2.481-10.396c0.167-1.518,1.854-1.564,3.184-1.855
				C102.021,941.685,112.488,939.32,122.96,936.976z"/>
			<path fill="#E4BE8D" d="M154.417,837.48c1.999,6.088,1.538,12.496,2.253,18.621c0.688,5.9,1.051,11.945,1.562,17.914
				c0.875,10.223,2.183,20.406,3.39,30.6c0.709,5.982,1.813,11.936,2.237,17.936c0.146,2.053,1.816,5.734-1.856,6.176
				c-3.982,0.48-3.398-3.791-3.662-5.898c-1.102-8.908-1.125-17.961-2.46-26.824c-1.549-10.271-1.892-20.674-2.371-30.928
				c-0.384-8.225-3.061-16.605-0.508-24.939C153.259,839.277,152.64,838.082,154.417,837.48z"/>
			<path fill="#9C9599" d="M123.958,1013.152c3.271-2.389,6.382,0.605,9.614,0.307c1.227-0.115,2.512,0.408,3.771,0.641
				c1.404,0.957,2.582,1.902,2.229,3.984c-0.399,2.361,0.009,4.666,1.954,6.369c2.416,2.113,0.076,4.305,0.162,6.453
				c-4.946-1.531-6.71-6.857-10.979-9.199c-0.817-0.324-1.636-0.646-2.446-0.971c-0.364-0.301-0.732-0.6-1.102-0.896
				c-0.334-0.334-0.669-0.666-1.003-0.998C125.424,1016.943,124.691,1015.048,123.958,1013.152z"/>
			<path fill="#E4BE8D" d="M155.049,830.585c-0.229,1.41,0.188,3.039-1.095,2.852c-2.351-0.342-2.604-2.602-2.868-4.518
				c-0.148-1.1-0.133-2.859,1.354-2.602C154.916,826.75,153.951,829.554,155.049,830.585z"/>
			<path fill="#9C9599" d="M341.34,868.044c0.378-2.043,0.467-4.182,1.899-5.881c18.742,1.957,37.484,3.895,56.227,5.875
				c5.757,0.604,11.492,1.387,17.255,1.965c3.149,0.318,4.189,2.275,4.438,5.041c-5.521,2.729-11.002,0.221-16.467-0.248
				c-8.362-0.717-16.704-1.715-25.037-2.734c-9.964-1.219-20.025-1.521-29.915-3.49C347.013,868.027,344.143,868.201,341.34,868.044
				z"/>
			<path fill="#D0F096" d="M350.979,762.074c0.325,0.316,0.651,0.637,0.977,0.957c0,24.955,0,49.908,0,76.063
				c-2.307-1.756-1.938-2.77-1.939-3.586c-0.024-23.092-0.027-46.184-0.002-69.27C350.013,764.802,349.531,763.195,350.979,762.074z
				"/>
			<path fill="#D0F096" d="M139.945,856.015c2.556,3.439-0.473,5.496-1.967,7.934C137.009,860.9,139.17,858.628,139.945,856.015z"/>
			<path fill="#D0F096" d="M137.979,842.085c1.424,0.521,2.079,1.523,1.902,3.045C138.063,844.857,137.948,843.517,137.979,842.085z
				"/>
			<path fill="#9C9599" d="M163.869,1048.242c4.557,0.777,7.899,4.014,11.882,5.961c18.014,8.813,36.713,15.146,56.795,16.924
				c1.224,0.107,2.304,0.316,2.94,1.488c-8.214,1.195-16.13-1.047-23.844-2.998c-15.237-3.854-30.068-9.082-43.521-17.521
				C166.507,1051.083,164.433,1050.462,163.869,1048.242z"/>
			<path fill="#9C9599" d="M269.975,1072.15c4.278-1.797,8.93-1.463,13.372-2.316c5.604-1.08,11.193-2.256,16.794-3.389
				c-1.789,3.078-5.222,2.588-7.916,3.285c-5.586,1.445-11.33,2.322-17.045,3.207
				C273.482,1073.201,271.506,1073.699,269.975,1072.15z"/>
			<path fill="#9C9599" d="M237.935,1072.519c9.05-0.572,18.099-0.842,27.141,0.146c-0.454,1.078-1.374,1.363-2.421,1.363
				c-7.472,0.004-14.942,0.002-22.415-0.018C239.178,1074.011,238.294,1073.646,237.935,1072.519z"/>
			<path fill="#9C9599" d="M160.83,1046.386c1.492-0.266,2.545,0.205,2.944,1.768
				C162.447,1048.138,161.163,1048.054,160.83,1046.386z"/>
			<path fill="#9C9599" d="M146.918,1036.142c1.479-0.064,2.565,0.389,2.716,2.066
				C148.284,1038.103,146.985,1037.929,146.918,1036.142z"/>
			<path fill="#9C9599" d="M150.91,1039.169c1.433-0.018,2.523,0.41,2.678,2.059C152.264,1041.099,150.98,1040.923,150.91,1039.169z
				"/>
			<path fill="#9C9599" d="M154.918,1042.136c1.403,0.023,2.471,0.539,2.887,1.992
				C156.39,1044.117,155.019,1044.046,154.918,1042.136z"/>
			<path fill="#9C9599" d="M157.885,1044.212c1.405-0.004,2.51,0.4,2.708,2.016C159.279,1046.105,158.008,1045.929,157.885,1044.212
				z"/>
			<path fill="#9C9599" d="M145.954,1035.144c0.621-0.008,0.893,0.332,0.906,0.922
				C146.559,1035.757,146.256,1035.451,145.954,1035.144z"/>
			<path fill="#9C9599" d="M143.902,1033.318c0.562-0.043,0.825,0.227,0.813,0.777
				C144.445,1033.837,144.174,1033.578,143.902,1033.318z"/>
			<path fill="#9C9599" d="M149.903,1038.345c0.641-0.18,0.896,0.131,0.928,0.729
				C150.521,1038.83,150.212,1038.587,149.903,1038.345z"/>
			<path fill="#9C9599" d="M143.055,1032.3c0.535-0.018,0.729,0.258,0.643,0.768C143.483,1032.81,143.269,1032.554,143.055,1032.3z"
				/>
			<path fill="#9C9599" d="M153.899,1041.386c0.604-0.17,0.909,0.082,0.965,0.686
				C154.542,1041.843,154.22,1041.615,153.899,1041.386z"/>
			<path fill="#9C9599" d="M236.227,1072.574c0.186-0.072,0.368-0.07,0.548-0.002c-0.139,0.236-0.273,0.479-0.408,0.725
				C236.32,1073.056,236.273,1072.814,236.227,1072.574z"/>
			<path fill="#9C9599" d="M164.923,942.093c11.041,1.191,22.01,2.945,32.991,4.473c9.329,1.295,18.798,2.141,28.174,3.389
				c16.343,2.178,15.182-0.23,18.489,16.332c3.88,19.408,7.716,38.826,11.536,58.248c1.072,5.447,0.482,6.238-5.181,5.473
				c-14.661-1.979-29.292-4.199-43.934-6.34c-19.414-2.84-38.813-5.785-58.244-8.512c-9.233-1.295-9.707-1.5-11.529-10.637
				c-4.01-20.063-7.999-40.129-11.975-60.197c-0.155-0.799-0.057-1.65-0.073-2.479c0.88-1.871,1.694-2.852,4.388-2.344
				c7.885,1.49,15.864,2.625,23.854,3.309C157.187,943.126,161.221,944.228,164.923,942.093z M199.145,992.671
				c-0.153-8.967-3.439-14.525-9.551-18.213c-7.565-4.564-14.813-0.334-14.738,8.459c0.058,6.834,3.263,12.096,8.627,16.078
				c3.229,2.395,6.892,3.613,10.73,1.637C198.047,998.66,199.25,995.099,199.145,992.671z"/>
			<path fill="#E4BE8D" d="M264.035,896.035c-2.026,0.781-3.412-0.883-5.103-1.373c-4.119-1.189-7.926-1.35-10.646,2.719
				c-0.654,0.98-1.093,2.117-2.62,1.701c-1.4-0.383-1.522-1.557-1.798-2.705c-1.447-6.08-1.572-12.395-0.569-18.346
				c2.149-12.754,2.142-25.814,5.707-38.359c1.385-4.861,3.513-9.299,6.146-13.523c1.697-2.721,8.054-3.756,11.187-1.895
				c2.354,1.395,4.599,2.988,6.892,4.49c7.938,5.207,16.543,3.336,24.938,1.996c6.166-0.984,11.572,0.805,16.896,3.236
				c3.32,1.521,5.432,8.289,4.622,13.348c-0.948,5.918-3.313,11.893,1.021,17.553c0.814,1.063-0.549,2.121-0.801,3.215
				c-1.495,6.506-3.119,12.982-4.607,19.49c-1.476,6.416-5.743,10.986-9.889,15.732c-2.217,2.537-5.563,2.389-8.064,4.406
				c-1.466-6.313-6.05-8.297-11.53-8.65c-4.477-0.291-8.994,0.143-13.468-0.146c-2.966-0.189-6.343,0.189-8.361-2.934
				c2.095-0.17,4.188-0.344,6.144-0.5c-2.323-1.064-5.588-0.637-7.139-3.604c-1.537-2.945,0.453-5.633,0.864-8.719
				c-5.59,6.047-5.586,6.043-0.502,11.66C263.65,895.164,263.81,895.628,264.035,896.035z M283.146,870.117
				c-1.479-0.223-1.934,0.805-1.967,1.898c-0.036,1.064,0.981,0.961,1.733,1.033c0.762,0.723,1.522,1.443,2.285,2.164
				c4.017,1.637,8.224,2.396,12.526,2.701c1.626,0.219,3.076-0.369,4.518-0.988c1.523-0.268,3.106-0.66,2.86-2.635
				c-0.33-2.639-1.825-4.732-4.397-5.408c-4.433-1.162-8.95-2.012-13.454-2.887c-3.557-0.689-4.742,0.887-3.758,4.273
				L283.146,870.117z M249.082,865.958c-1.174,1.43,0.203,1.889,0.979,2.576l-0.021-0.135c3.5,3.352,8.39,2.174,12.417,3.795
				c2.83,0.732,3.864-1.709,5.494-3.105c1.707-2.744,2.179-5.602-1.535-6.645c-4.235-1.193-8.688-1.779-13.09-2.189
				c-2.438-0.227-4.321,1.521-5.464,3.639c-0.566,1.057-0.88,2.555,1.35,2.107L249.082,865.958z M289.793,859.771
				c5.33-0.59,9.81,0.709,13.741,3.959c0.805,0.66,1.911,1.959,2.948,0.613c0.888-1.148-0.332-2.168-1.095-2.953
				c-4.072-4.191-9.115-5.984-14.887-5.484c-2.289,0.197-6.197-0.713-6.102,2.461C284.504,861.55,288.137,859.068,289.793,859.771z
				 M258.3,849.619c-2.842,0.225-5.591,0.762-7.987,2.432c-0.689,0.48-1.416,1.064-1.118,2c0.348,1.094,1.333,0.861,2.048,0.543
				c5.548-2.477,10.666-1.316,15.628,1.666c0.961,0.58,2.203,1.355,2.92-0.236c0.569-1.271-0.307-2.201-1.291-2.932
				C265.465,850.861,262.059,849.716,258.3,849.619z M263.99,881.48c1.906-1.383,2.505-3.066,1.825-5.172
				C265.207,878.035,264.598,879.757,263.99,881.48z"/>
			<path fill="#BAD4E4" d="M300.275,935.757c2.675,1.545,2.792-0.873,3.695-2.281c0.8-1.25-2.104-1.604-0.703-2.229
				c1.737-0.775,2.358,1.082,3.146,2.387c1.116,1.842-0.771,3.412-0.347,6.178c3.587-5.225,7.326-2.5,11.318-1.404
				c-4.13,2.205-6.854,5.281-7.688,9.93c2.876-0.596,2.876-0.596,4.367-2.77c4.674-6.822,13.439-6.842,17.006,0.607
				c7.291,15.23,13.959,30.756,20.711,46.236c1.329,3.047,0.823,6.299-1.637,8.809c-2.531,2.582-5.551,3.328-9.114,2.139
				c-11.124-3.727-22.273-7.361-33.438-10.973c-1.991-0.645-4.062-1.145-6.129-1.438c-4.462-0.631-5.122-3.314-3.979-7.008
				c0.633-2.049,1.403-4.057,2.172-6.057c1.5-3.896,4.088-4.74,7.896-3.055c9.632,4.273,20.053,6.129,29.943,9.605
				c1.625,0.568,3.043,0.885,4.91,0.217c-0.936-2.443-2.971-3.145-4.72-3.506c-9.203-1.918-17.122-5.234-18.515-17.146
				c-4.428,5.168,0.454,7.93,0.45,11.314c-4.448-0.174-8.076-2.736-12.169-3.793c-2.297-0.596-4.72-2.082-6.922,0.293
				c-1.267,1.367-1.709-0.035-2.123-0.74c-3.23-5.523-6.151-11.152-3.936-17.865c0.83-2.514,0.006-4.391-2.417-4.932
				c-1.354-0.303-3.826-0.447-3.141,2.521l-0.15,0.146c-2.904-0.539-2.372,2.018-2.999,3.428c-1.93,4.34-6.784,5.77-9.699,2.777
				c-0.001,0-0.037-0.105-0.037-0.105c0.405-0.049,0.813-0.096,1.22-0.143c-0.067-0.291-0.139-0.58-0.209-0.869l-0.012,0.012
				c0.409-0.047,0.817-0.096,1.229-0.143c-0.07-0.291-0.144-0.582-0.216-0.873l-0.029,0.021c1.313,0.928,1.665-0.039,2.007-1.02
				l0.002-0.002c0.688,0.016,1.039-0.301,1.006-1.006l-0.001,0.002c0.705,0.041,1.064-0.268,0.999-0.998l0.012-0.018
				c1.339-0.443,2.128-1.113,1.035-2.551C289.795,946.136,294.91,940.789,300.275,935.757z"/>
			<path fill="#9C9599" d="M302.705,926.427c5.398-2.945,9.938-6.74,12.541-12.441c0.646-1.404,1.88-1.762,3.286-1.814
				c7.491-0.293,14.949-0.445,22.33,1.414c12.133,3.059,18.48,11.717,20.964,23.039c4.038,18.414,2.422,36.924-0.943,55.318
				c-0.339,1.832-1.479,2.609-3.016,2.785c-1.799,0.209-1.957-1.492-2.423-2.662c-5.844-14.658-12.744-28.854-19.055-43.303
				c-2.822-6.465-7.04-10.668-13.868-12.357c-2.405-0.6-4.693-1.689-7.107-2.23c-3.288-0.729-6.262-1.461-8.012-4.969
				C306.743,927.88,304.427,927.386,302.705,926.427z"/>
			<path fill="#BAD4E4" d="M275.938,986.013c4.953,2.016,10.108,1.479,15.229,1.141c2.171-0.145,4.055-0.332,3.723,2.789
				c-0.229,2.15,1.295,2.715,3.021,3.203c4.744,1.344,9.39,3.146,14.198,4.123c5.487,1.115,6.211,3.689,5.292,8.965
				c-0.753,4.318-2.396,4.281-5.582,3.764c-12.596-2.053-25.208-4.01-37.813-6.004C274.167,997.947,273.531,991.816,275.938,986.013
				z"/>
			<path fill="#9C9599" d="M263.016,1004.953c13.02,2.195,25.978,4.908,39.074,6.426c11.191,1.297,22.215,3.633,33.424,4.771
				c7.396,0.748,14.743,2.031,22.104,3.125c0.995,0.146,2.026,0.607,1.945,1.857c-0.076,1.172-1.041,1.57-2.076,1.775
				c-4.757,0.947-9.473,0.43-14.193-0.314c-3.847-0.602-7.702-1.096-11.559-1.637c-0.08,0.449-0.16,0.9-0.24,1.35
				c7.19,1.322,14.384,2.646,21.57,3.971c-0.042,0.307-0.084,0.609-0.126,0.922c-8.086-1.064-16.172-2.121-24.258-3.186
				c3.678,3.223,8.602,1.996,12.333,4.973c-6.296-0.719-12.605-1.338-18.886-2.18c-4.746-0.637-9.448-1.594-14.187-2.328
				c-2.614-0.402-4.218-1.27-3.738-4.459c0.805-5.334-2.574-6.621-7.084-7.264c-12.126-1.717-24.206-3.75-36.305-5.658
				c1.153-0.191,2.229-0.469,2.084-2.01L263.016,1004.953z M328.969,1021.14c-1.533-1.377-2.704-1.313-4.34-0.691
				C326.096,1021.025,327.09,1021.869,328.969,1021.14z"/>
			<path fill="#E4BE8D" d="M288.926,950.796c2.157-0.215,3.847-0.039,3.016,2.926c-1.82,6.504,0.896,12.004,3.911,17.465
				c3.827,6.939-0.07,13.816-7.955,13.799c-4.045-0.012-8.146,0.75-12.051-1.855c-3.348-2.229-1.091-6.041-3.522-8.072
				c1.161-1.564,2.271,1.029,3.217-0.428c0.021-0.09,0.103-0.316,0.065-0.338c-3.604-1.912-2.504-5.51-3.321-8.5
				c-0.484-1.779-1.059-3.455,0.409-4.35c1.461-0.895,3.457-0.58,5.127,0.438c6.83,4.17,8.293,3.521,9.748-4.268
				c0.416-2.221,0.809-4.443,1.208-6.668C288.772,950.945,288.926,950.796,288.926,950.796z"/>
			<path fill="#E4BE8D" d="M300.275,935.757c-5.364,5.031-10.479,10.379-17.2,13.713c-0.253,0.889-2.104,1.125-1.034,2.553
				l-0.012,0.014c-0.411,0.045-0.824,0.09-1.237,0.135c0.08,0.287,0.16,0.574,0.238,0.861h0.002
				c-0.358-0.02-0.718-0.035-1.076-0.053c0.022,0.352,0.047,0.703,0.069,1.057c0,0-0.002,0.002-0.001,0.002
				c-1.34-0.979-1.707-0.043-2.008,1.02l0.029-0.02c-0.729-0.053-1.094,0.26-1.014,1.016l0.012-0.012
				c-0.758-0.084-1.097,0.252-1.011,1.012c0,0,0.037,0.104,0.038,0.104c-3.959,2.402-2.861-2.893-4.986-3.277
				c-0.354-2.898-0.711-5.805-1.064-8.707c0.962-10.049,0.939-10.146,11.023-11.977c5.213-0.943,10.146-2.807,15.527-4.309
				C296.721,931.863,297.357,934.492,300.275,935.757z"/>
			<path fill="#E4BE8D" d="M321.403,901.019c-2.922,0.129-5.05-0.59-3.475-4.836c1.085-2.928,1.594-6.07,2.313-9.127
				c1.478-6.223,6.329-9.357,11.45-11.906c3.676-1.828,6.108,0.553,7.039,3.986C340.909,887.16,330.135,901.033,321.403,901.019z
				 M328.135,882.126c4.916-0.121,2.042,4.047,3.298,5.977c3.363-3.063-1.108-6.73,0.954-9.979
				c-2.038,0.783-3.768,1.643-4.631,3.594c-1.776,0.678-2.517,1.98-2.306,4.033C326.573,884.601,327.784,883.703,328.135,882.126z
				 M335.445,877.564c-0.107-0.086-0.229-0.25-0.332-0.238c-0.265,0.029-0.521,0.135-0.775,0.211
				c0.105,0.088,0.227,0.258,0.321,0.248C334.927,877.755,335.186,877.652,335.445,877.564z"/>
			<path fill="#E4BE8D" d="M284.879,908.816c2.104-0.189,3.426-2.254,5.593-2.111c0.511,7.25-8.435,16.779-15.697,16.428
				c-1.119-0.055-2.63-0.172-3.256-0.883c-3.193-3.621-6.488-4.564-10.809-1.766c-1.474,0.951-3.139-0.512-4.375-1.645
				c-4.145-3.793-6.272-13.188-4.333-18.922c3.17,0.137,1.854,4.891,5.102,4.955L257.068,905c-1.424,0.768-0.396,1.727-0.063,2.443
				c3.451,7.465,17.796,10.68,24.734,5.475c1.32-0.992,3.307-1.703,3.194-3.959L284.879,908.816z"/>
			<path fill="#9C9599" d="M301.015,1016.572c-13.348,3.775-25.968,7.303-38.546,10.961c-2.09,0.605-3.366,0.891-3.869-1.852
				c-0.396-2.152-0.356-3.389,2.187-3.934c5.354-1.146,10.634-2.605,15.959-3.873c1.26-0.299,2.493-0.529,4.185-2.184
				c-6.601-0.906-12.431-1.727-18.265-2.498c-0.815-0.109-1.758,0.193-2.475-0.1c-1.699-0.691-4.998-0.424-4.438-2.871
				c0.599-2.602,3.282-0.646,4.991-0.395c11.619,1.709,23.221,3.531,34.833,5.291
				C297.189,1015.365,298.89,1015.191,301.015,1016.572z"/>
			<path fill="#9C9599" d="M202.663,1031.611c-7.875-1.283-15.671-2.521-23.454-3.842c-2.169-0.367-2.285-2.07-2.087-3.84
				c0.175-1.563,1.256-1.814,2.518-1.613c7.626,1.229,15.229,2.592,22.876,3.684c3.089,0.439,2.434,2.758,2.598,4.494
				C205.309,1032.593,203.421,1031.189,202.663,1031.611z"/>
			<path fill="#9C9599" d="M231.557,1030.132c7.813,1.133,14.837,2.158,21.86,3.166c2.117,0.303,2.709,1.656,2.504,3.553
				c-0.262,2.434-1.813,1.598-3.305,1.396c-6.894-0.912-13.792-1.791-20.708-2.508c-2.084-0.221-2.971-1.039-2.937-3.08
				C229.015,1030.287,230.506,1030.025,231.557,1030.132z"/>
			<path fill="#9C9599" d="M222.516,1035.128c-4.11-1.379-8.478-2.061-12.869-2.668c-1.881-0.26-2.673-1.854-2.475-3.729
				c0.238-2.207,1.974-1.93,3.408-1.758c4.25,0.51,8.481,1.168,12.73,1.689c2.625,0.322,3.735,1.719,3.557,4.322
				C226.645,1036.234,223.982,1034.064,222.516,1035.128z"/>
			<path fill="#9C9599" d="M171.674,1026.955c-3.125-0.424-6.249-0.824-9.364-1.271c-2.688-0.385-4.452-1.928-4.053-4.674
				c0.515-3.494,3.012-1.365,4.688-1.184c3.125,0.34,6.228,0.898,9.351,1.266c2.604,0.303,2.527,2.174,2.557,4.039
				C174.881,1027.652,173.044,1026.894,171.674,1026.955z"/>
			<path fill="#BAD4E4" d="M164.923,942.093c-3.699,2.135-7.733,1.033-11.5,0.713c-7.99-0.682-15.974-1.816-23.854-3.307
				c-2.69-0.51-3.508,0.473-4.388,2.342c-0.86-4.01,0.908-4.938,4.642-4.408C141.505,939.097,153.219,940.556,164.923,942.093z"/>
			<path fill="#BAD4E4" d="M257.101,904.873c0.093-1.252,0.286-2.273,1.999-1.568c7.457,3.064,15.342,3.521,23.255,3.576
				c1.604,0.012,2.183,0.639,2.522,1.939c-0.001,0.002,0.061,0.145,0.061,0.145c-9.646,1.191-19.044,0.625-27.869-3.961
				L257.101,904.873z"/>
			<path fill="#9C9599" d="M156.346,1024.525c-3.777-0.615-7.52-1.074-11.182-1.887c-1.782-0.395-3.771-1.895-3.43-3.623
				c0.396-1.99,2.738-1.938,4.611-1.6c1.291,0.234,2.59,0.754,3.861,0.693C154.566,1017.904,156.625,1019.812,156.346,1024.525z"/>
			<path fill="#9C9599" d="M273.48,1016.9c-4.523,1.295-9,2.813-13.589,3.814c-3.687,0.805-2.54-2.582-3.028-4.332
				c-0.688-2.471,0.892-2.813,2.818-2.496c4.549,0.748,9.094,1.527,13.641,2.295C273.375,1016.421,273.428,1016.66,273.48,1016.9z"
				/>
			<path fill="#9C9599" d="M275.938,986.013c-2.406,5.805-1.771,11.936-1.935,17.979c-1.76-0.018-3.604,0.596-5.188-0.719
				c6.604-0.305,4.553-5.66,3.786-8.391c-1.185-4.209-0.479-8.086-0.295-12.117C273.52,983.849,274.729,984.931,275.938,986.013z"/>
			<path fill="#9C9599" d="M254.014,1001.013c2.725,0.408,5.445,0.816,8.173,1.229c-1.473,1.438,0.374,1.861,0.829,2.713
				c0,0-0.111,0.139-0.109,0.139c-2.677,0.439-5.521-2.932-8.07,0.355C253.892,1004.091,254.133,1002.519,254.014,1001.013z"/>
			<path fill="#E4BE8D" d="M254.835,1005.445c2.554-3.285,5.396,0.082,8.069-0.354c0.146,1.541-0.932,1.814-2.085,2.01
				C258.83,1006.531,256.309,1007.882,254.835,1005.445z"/>
			<path fill="#FEFEFE" d="M248.012,967.14c4.392,0.145,8.895-0.863,13.118,1.152c-4.342-0.842-8.729-0.162-13.075-0.447
				C247.799,967.625,247.785,967.39,248.012,967.14z"/>
			<path fill="#9C9599" d="M350.802,1029.201c-2.066,0.607-4.248,1.199-6.196-0.59
				C346.673,1028.808,348.735,1029.005,350.802,1029.201z"/>
			<path fill="#654027" d="M262.372,943.355c0.691,1.803-2.68,6.131,3.184,4.879c0.867-0.188,0.596,2.23,0.313,3.453
				c-5.922-1.063-6.385-4.625-4.313-9.344C261.828,942.683,262.101,943.019,262.372,943.355z"/>
			<path fill="#654027" d="M261.557,942.345c0.313-0.395,0.771-0.639,1.068-0.154c0.149,0.24-0.154,0.768-0.257,1.166
				C262.101,943.019,261.828,942.683,261.557,942.345z"/>
			<path fill="#FEFEFE" d="M199.145,992.671c0.104,2.428-1.101,5.988-4.932,7.961c-3.842,1.979-7.5,0.76-10.73-1.637
				c-5.364-3.982-8.569-9.244-8.627-16.078c-0.071-8.793,7.173-13.023,14.738-8.459
				C195.705,978.146,198.991,983.705,199.145,992.671z"/>
			<path fill="#654027" d="M283.496,870.275c-0.981-3.393,0.201-4.967,3.758-4.277c4.504,0.875,9.021,1.725,13.458,2.887
				c2.568,0.682,4.063,2.771,4.396,5.408c0.246,1.975-1.337,2.367-2.86,2.635c0.763-2.604,0.47-4.744-3.52-6.104
				c1.515,3.033-1.272,4.609-0.998,7.092c-4.307-0.305-8.514-1.063-12.527-2.699c1.128-0.91,3.502,1.369,3.854-1.48
				c0.185-1.514,0.942-3.818,0.275-4.379c-1.4-1.186-3.394-0.555-4.896,0.777C284.236,870.308,283.814,870.234,283.496,870.275z"/>
			<path fill="#654027" d="M262.457,872.193c-4.026-1.621-8.916-0.443-12.415-3.795c0.641,0.15,1.298,0.49,1.907,0.416
				c1.256-0.154,3.477,1.279,3.516-0.945c0.028-1.539,1.49-3.602,0.06-4.541c-1.364-0.896-3.54-0.914-4.98,0.707
				c-0.521,0.588-0.891,1.311-1.328,1.973c-2.229,0.441-1.916-1.059-1.35-2.105c1.143-2.119,3.022-3.863,5.464-3.643
				c4.399,0.408,8.854,0.994,13.09,2.189c3.714,1.047,3.242,3.902,1.536,6.646c-1.878-0.766-0.813-4.049-3.858-4.139
				C265.753,867.929,261.563,869.365,262.457,872.193z"/>
			<path fill="#654027" d="M289.793,859.771c-1.653-0.705-5.289,1.777-5.39-1.404c-0.1-3.174,3.813-2.262,6.102-2.461
				c5.771-0.5,10.813,1.293,14.887,5.484c0.763,0.785,1.979,1.805,1.095,2.953c-1.037,1.346-2.146,0.047-2.948-0.613
				C299.6,860.482,295.123,859.183,289.793,859.771z"/>
			<path fill="#654027" d="M258.299,849.621c3.763,0.098,7.166,1.242,10.197,3.471c0.984,0.73,1.86,1.658,1.291,2.928
				c-0.717,1.598-1.959,0.82-2.92,0.24c-4.962-2.988-10.08-4.143-15.628-1.666c-0.716,0.318-1.701,0.551-2.048-0.543
				c-0.298-0.938,0.429-1.52,1.118-2C252.709,850.38,255.458,849.843,258.299,849.621z"/>
			<path fill="#654027" d="M264.035,896.035c-0.227-0.406-0.386-0.871-0.688-1.207c-5.084-5.615-5.091-5.611,0.502-11.658
				c-0.411,3.086-2.402,5.771-0.864,8.719c1.551,2.965,4.813,2.537,7.139,3.604c-1.954,0.154-4.049,0.33-6.144,0.5L264.035,896.035z
				"/>
			<path fill="#FEFEFE" d="M249.212,866.005c0.438-0.66,0.809-1.385,1.328-1.971c1.44-1.623,3.615-1.605,4.98-0.709
				c1.435,0.938-0.027,3.004-0.06,4.543c-0.039,2.225-2.26,0.791-3.517,0.939c-0.608,0.074-1.271-0.266-1.906-0.416
				c-0.001,0,0.021,0.141,0.021,0.141c-0.063-0.959,0.479-2.148-0.979-2.576L249.212,866.005z"/>
			<path fill="#FEFEFE" d="M283.496,870.275c0.317-0.041,0.739,0.033,0.938-0.145c1.502-1.332,3.488-1.961,4.896-0.781
				c0.667,0.561-0.095,2.869-0.278,4.379c-0.35,2.855-2.724,0.576-3.852,1.484c-0.762-0.721-1.521-1.441-2.284-2.166
				c-0.099-0.992,1.342-1.861,0.229-2.932L283.496,870.275z"/>
			<path fill="#BAD4E4" d="M262.457,872.193c-0.896-2.83,3.296-4.264,1.634-7.236c3.051,0.088,1.983,3.373,3.861,4.137
				C266.322,870.486,265.287,872.931,262.457,872.193z"/>
			<path fill="#FEFEFE" d="M297.729,877.914c-0.274-2.48,2.513-4.057,0.998-7.09c3.985,1.359,4.278,3.494,3.52,6.104
				C300.805,877.546,299.354,878.132,297.729,877.914z"/>
			<path fill="#654027" d="M263.99,881.48c0.607-1.725,1.218-3.447,1.825-5.172C266.494,878.414,265.896,880.099,263.99,881.48z"/>
			<path fill="#654027" d="M283.146,870.117c1.108,1.068-0.328,1.939-0.229,2.932c-0.752-0.07-1.771,0.031-1.733-1.031
				C281.216,870.921,281.668,869.894,283.146,870.117z"/>
			<path fill="#654027" d="M249.082,865.958c1.462,0.426,0.919,1.615,0.979,2.576C249.284,867.847,247.907,867.386,249.082,865.958z
				"/>
			<path fill="#654027" d="M282.04,952.021c-1.067-1.426,0.781-1.662,1.034-2.553C284.168,950.902,283.379,951.574,282.04,952.021z"
				/>
			<path fill="#654027" d="M278.017,955.058c0.301-1.063,0.668-1.998,2.008-1.021C279.682,955.019,279.33,955.984,278.017,955.058z"
				/>
			<path fill="#654027" d="M277.035,956.046c-0.08-0.754,0.283-1.064,1.014-1.014c0.072,0.291,0.146,0.582,0.217,0.871
				C277.854,955.953,277.445,956,277.035,956.046z"/>
			<path fill="#654027" d="M276.036,957.046c-0.086-0.76,0.253-1.096,1.011-1.01c0.07,0.289,0.142,0.578,0.209,0.867
				C276.85,956.953,276.442,957,276.036,957.046z"/>
			<path fill="#654027" d="M281.03,953.031c-0.078-0.287-0.158-0.574-0.238-0.861c0.413-0.045,0.826-0.09,1.237-0.135
				C282.096,952.767,281.735,953.072,281.03,953.031z"/>
			<path fill="#654027" d="M280.025,954.035c-0.022-0.354-0.047-0.705-0.069-1.059c0.358,0.02,0.718,0.035,1.075,0.055
				C281.064,953.734,280.713,954.052,280.025,954.035z"/>
			<path fill="#654027" d="M328.969,1021.14c-1.88,0.73-2.871-0.113-4.34-0.691C326.263,1019.828,327.434,1019.763,328.969,1021.14z
				"/>
			<path fill="#654027" d="M327.755,881.714c0.867-1.947,2.597-2.807,4.635-3.59c-2.063,3.248,2.409,6.916-0.954,9.979
				c-1.256-1.93,1.618-6.098-3.298-5.977C328.004,881.996,327.872,881.859,327.755,881.714z"/>
			<path fill="#654027" d="M328.135,882.126c-0.354,1.574-1.563,2.475-2.685,3.625c-0.211-2.053,0.525-3.355,2.304-4.035
				C327.872,881.859,328.004,881.996,328.135,882.126z"/>
			<path fill="#654027" d="M335.447,877.57c-0.262,0.082-0.521,0.186-0.788,0.215c-0.099,0.01-0.216-0.16-0.321-0.248
				c0.259-0.076,0.515-0.184,0.775-0.211C335.217,877.316,335.337,877.478,335.447,877.57z"/>
			<path fill="#654027" d="M257.068,905c8.825,4.586,18.224,5.152,27.869,3.961c0.108,2.254-1.874,2.965-3.194,3.957
				c-6.938,5.205-21.283,1.99-24.734-5.475C256.676,906.726,255.645,905.767,257.068,905z"/>
		</g>
	</g>
</g>
<g>
	<g>
		<g>
			<g>
				<g>
					<path fill="#F9B77A" stroke="#000000" stroke-width="2" stroke-miterlimit="10" d="M170.078,190.498"/>
				</g>
			</g>
		</g>
	</g>
</g>
<g>
	<g>
		<g>
			<g>
				<g>
					<path fill="#F9B77A" stroke="#000000" stroke-width="2" stroke-miterlimit="10" d="M179.018,218.673"/>
				</g>
			</g>
		</g>
	</g>
</g>
<g>
	<g>
		<g>
			<g>
				<g>
					<path fill="#F9B77A" d="M208.333,149c4.552,0.195,8.043,4.98,7.798,10.689c-0.246,5.707-4.137,10.174-8.688,9.977
						c-4.553-0.194-3.896-4.09-3.648-9.797S203.782,148.802,208.333,149z"/>
				</g>
			</g>
		</g>
	</g>
	<g>
		<g>
			<g>
				<g>
					<path d="M207.73,170.671c-0.109,0-0.222-0.002-0.331-0.006c-1.557-0.068-2.696-0.523-3.487-1.394
						c-1.512-1.662-1.37-4.435-1.189-7.94c0.024-0.486,0.052-0.988,0.072-1.506c0.021-0.509,0.04-1.015,0.059-1.513
						c0.185-5.17,0.354-10.504,5.523-10.313c5.097,0.221,9.022,5.481,8.754,11.731C216.866,165.867,212.737,170.671,207.73,170.671z
						 M208.094,149.994c-2.67,0-3.038,2.557-3.245,8.391c-0.019,0.505-0.034,1.017-0.059,1.527
						c-0.021,0.521-0.049,1.031-0.073,1.521c-0.155,3.043-0.277,5.447,0.673,6.492c0.414,0.455,1.1,0.697,2.095,0.74
						c3.958,0.18,7.429-3.938,7.646-9.021c0.222-5.147-2.849-9.478-6.842-9.647L208.094,149.994z"/>
				</g>
			</g>
		</g>
	</g>
</g>
<g>
	<g>
		<g>
			<g>
				<g>
					<path fill="#F9B77A" d="M208.333,117.021c4.552,0.196,8.043,4.981,7.798,10.689c-0.246,5.708-4.137,10.174-8.688,9.979
						c-4.553-0.197-3.896-4.092-3.648-9.799C204.041,122.183,203.782,116.823,208.333,117.021z"/>
				</g>
			</g>
		</g>
	</g>
	<g>
		<g>
			<g>
				<g>
					<path d="M207.73,138.695c-0.109,0-0.222-0.002-0.331-0.008c-1.557-0.066-2.696-0.521-3.487-1.393
						c-1.512-1.662-1.37-4.433-1.189-7.94c0.024-0.486,0.052-0.99,0.072-1.508c0.021-0.508,0.04-1.013,0.059-1.511
						c0.185-5.171,0.354-10.513,5.523-10.313c5.097,0.219,9.022,5.481,8.754,11.73C216.866,133.888,212.737,138.695,207.73,138.695z
						 M208.094,118.016c-2.67,0-3.038,2.558-3.245,8.392c-0.019,0.504-0.034,1.014-0.059,1.525
						c-0.021,0.523-0.049,1.031-0.073,1.523c-0.155,3.043-0.277,5.448,0.673,6.493c0.414,0.455,1.1,0.697,2.095,0.74
						c3.958,0.172,7.429-3.939,7.646-9.022c0.222-5.146-2.849-9.477-6.842-9.646L208.094,118.016z"/>
				</g>
			</g>
		</g>
	</g>
</g>
<g>
	<g>
		<g>
			<path d="M174.796,219.607"/>
		</g>
	</g>
</g>
<g>
	<g>
		<polygon fill="#48826D" points="106.11,226.529 45.612,199.542 1.208,265.048 80.768,265.048 		"/>
	</g>
	<g>
		<polygon points="45.433,198.916 106.85,226.312 81.367,265.048 81.966,265.048 107.592,226.095 45.637,198.458 45.255,198.289 
			0,265.048 0.603,265.048 		"/>
	</g>
	<g>
		<polygon points="45.433,198.916 0.603,265.048 1.208,265.048 45.612,199.542 106.11,226.529 80.768,265.048 81.367,265.048 
			106.85,226.312 		"/>
	</g>
</g>
<g>
	<rect x="107.592" y="79.343" fill="#FFFFFF" width="91.29" height="39.5"/>
	<path fill="#BBBBBB" d="M199.382,119.343h-92.29v-40.5h92.29V119.343z M108.092,118.343h90.29v-38.5h-90.29V118.343z"/>
</g>
<g>
	<rect x="113.281" y="83.513" fill="#CCCCCC" width="26.175" height="3.667"/>
</g>
<g>
	<rect x="113.281" y="89.513" fill="#CCCCCC" width="70" height="3.667"/>
</g>
<g>
	<rect x="113.281" y="95.513" fill="#CCCCCC" width="56.796" height="3.667"/>
</g>
<g>
	<rect x="113.281" y="101.513" fill="#CCCCCC" width="62.667" height="3.667"/>
</g>
<g>
	<rect x="113.281" y="107.513" fill="#CCCCCC" width="70" height="3.667"/>
</g>
<g>
	<rect x="107.592" y="126.343" fill="#FFFFFF" width="91.29" height="39.5"/>
	<path fill="#BBBBBB" d="M199.382,166.343h-92.29v-40.5h92.29V166.343z M108.092,165.343h90.29v-38.5h-90.29V165.343z"/>
</g>
<g>
	<rect x="153.727" y="130.513" fill="#CCCCCC" width="13.337" height="3.667"/>
</g>
<g>
	<rect x="153.727" y="136.512" fill="#CCCCCC" width="35.667" height="3.667"/>
</g>
<g>
	<rect x="153.727" y="142.512" fill="#CCCCCC" width="28.938" height="3.667"/>
</g>
<g>
	<rect x="153.727" y="148.512" fill="#CCCCCC" width="31.93" height="3.667"/>
</g>
<g>
	<rect x="153.727" y="154.512" fill="#CCCCCC" width="35.667" height="3.667"/>
</g>
<g>
	<polygon fill="#CCCCCC" points="111.948,158.179 119.185,146.179 122.112,150.346 134.652,141.725 137.948,158.179 	"/>
</g>
<g>
	<circle fill="#CCCCCC" cx="122.088" cy="140.179" r="2.86"/>
</g>
<g>
	<polygon fill="#CCCCCC" points="108.092,69.317 122.152,46.004 127.839,54.1 152.201,37.351 158.604,69.317 	"/>
</g>
<g>
	<circle fill="#CCCCCC" cx="127.792" cy="34.347" r="5.556"/>
</g>
<g>
	<g>
		<path fill="none" d="M199.382,173.509v34.125c2.813-0.658,4.913-3.18,4.913-6.191V22.176c0-3.51-2.854-6.367-6.364-6.367h-88.405
			c-3.511,0-6.367,2.857-6.367,6.367v179.267c0,2.65,1.627,4.924,3.935,5.881v-33.814H199.382z"/>
	</g>
	<g>
		<path fill="#FFFFFF" d="M197.929,207.808c0.151,0,0.302-0.014,0.451-0.021v-33.277h-90.29v33.131
			c0.462,0.105,0.939,0.168,1.434,0.168H197.929z"/>
	</g>
	<g>
		<path fill="#BBBBBB" d="M107.592,174.009h91.29v33.72c0.169-0.024,0.336-0.056,0.5-0.095v-34.125h-92.29v33.814
			c0.164,0.066,0.33,0.129,0.5,0.182V174.009z"/>
	</g>
	<g>
		<path fill="#BBBBBB" d="M107.592,174.009v33.496c0.164,0.054,0.331,0.096,0.5,0.135v-33.131h90.29v33.275
			c0.169-0.013,0.335-0.031,0.5-0.057v-33.719H107.592z"/>
	</g>
	<g>
		<path d="M198.882,207.729v2.022c0.169-0.02,0.335-0.047,0.5-0.076v-2.041C199.218,207.673,199.051,207.705,198.882,207.729z"/>
	</g>
	<g>
		<path d="M107.592,207.505c-0.17-0.053-0.336-0.114-0.5-0.182v2.122c0.164,0.05,0.332,0.089,0.5,0.13V207.505z"/>
	</g>
	<g>
		<path d="M198.382,209.789c0.168-0.011,0.335-0.018,0.5-0.037v-2.021c-0.165,0.023-0.331,0.044-0.5,0.057V209.789z"/>
	</g>
	<g>
		<path d="M108.092,207.64c-0.169-0.039-0.336-0.081-0.5-0.135v2.07c0.165,0.038,0.332,0.072,0.5,0.103V207.64z"/>
	</g>
</g>
<g>
	<rect x="153.727" y="178.179" fill="#CCCCCC" width="13.337" height="3.667"/>
</g>
<g>
	<rect x="153.727" y="184.179" fill="#CCCCCC" width="35.667" height="3.666"/>
</g>
<g>
	<rect x="153.727" y="190.179" fill="#CCCCCC" width="28.938" height="3.666"/>
</g>
<g>
	<rect x="153.727" y="196.179" fill="#CCCCCC" width="31.93" height="3.666"/>
</g>
<g>
	<rect x="153.727" y="202.179" fill="#CCCCCC" width="35.667" height="3.666"/>
</g>
<g>
	<polygon fill="#CCCCCC" points="111.948,205.845 119.185,193.845 122.112,198.013 134.652,189.392 137.948,205.845 	"/>
</g>
<g>
	<circle fill="#CCCCCC" cx="122.088" cy="187.845" r="2.86"/>
</g>
<g>
	<circle fill="#BBBBBB" cx="183.281" cy="189.264" r="13.231"/>
	<path fill="#666666" d="M183.282,202.996c-7.571,0-13.731-6.16-13.731-13.73c0-7.571,6.16-13.73,13.731-13.73
		s13.73,6.159,13.73,13.73C197.012,196.835,190.853,202.996,183.282,202.996z"/>
</g>
<g>
	<g>
		<g>
			<g>
				<path fill="#FFFFFF" d="M189.801,182.746h-13.036c-0.896,0-1.622,0.733-1.622,1.629l-0.009,9.777
					c0,0.896,0.733,1.631,1.631,1.631h13.036c0.896,0,1.631-0.734,1.631-1.631v-9.777
					C191.43,183.479,190.697,182.746,189.801,182.746z M189.801,186.005l-6.519,4.072l-6.519-4.072v-1.633l6.519,4.076l6.519-4.076
					V186.005z"/>
			</g>
		</g>
	</g>
</g>
<g>
	<g>
		<g>
			<g>
				<path fill="#FFFFFF" d="M198.367,15.809h-88.403c-4.067,0-7.366,3.297-7.366,7.367v3.021h103.139v-3.021
					C205.734,19.106,202.437,15.809,198.367,15.809z"/>
			</g>
		</g>
	</g>
</g>
<g>
	<g>
		<g>
			<g>
				<g>
					<path d="M113.164,24.505v0.609h-3.418c-0.006-0.152,0.021-0.299,0.072-0.439c0.088-0.232,0.228-0.461,0.42-0.689
						c0.189-0.225,0.469-0.486,0.83-0.783c0.563-0.461,0.94-0.824,1.141-1.096c0.197-0.268,0.296-0.521,0.296-0.764
						c0-0.252-0.091-0.463-0.271-0.637c-0.182-0.174-0.414-0.26-0.703-0.26c-0.309,0-0.553,0.092-0.733,0.275
						c-0.185,0.184-0.276,0.438-0.278,0.762l-0.652-0.066c0.045-0.486,0.213-0.857,0.504-1.113c0.293-0.254,0.686-0.383,1.177-0.383
						c0.495,0,0.89,0.139,1.181,0.414c0.289,0.275,0.434,0.615,0.434,1.023c0,0.205-0.041,0.41-0.127,0.609
						c-0.084,0.201-0.225,0.412-0.422,0.631c-0.195,0.223-0.521,0.525-0.979,0.912c-0.384,0.32-0.627,0.537-0.731,0.648
						c-0.109,0.115-0.199,0.23-0.271,0.346L113.164,24.505L113.164,24.505z"/>
				</g>
			</g>
		</g>
	</g>
	<g>
		<g>
			<g>
				<g>
					<path d="M113.847,23.751l0.637-0.084c0.07,0.359,0.195,0.617,0.371,0.777c0.176,0.158,0.391,0.238,0.641,0.238
						c0.3,0,0.554-0.104,0.759-0.311c0.204-0.207,0.31-0.463,0.31-0.77c0-0.293-0.097-0.533-0.285-0.723
						c-0.19-0.189-0.434-0.283-0.729-0.283c-0.118,0-0.271,0.023-0.446,0.07l0.069-0.559c0.043,0.006,0.075,0.008,0.104,0.008
						c0.271,0,0.514-0.07,0.729-0.213c0.218-0.141,0.325-0.357,0.325-0.652c0-0.232-0.079-0.424-0.234-0.578
						c-0.158-0.152-0.361-0.229-0.609-0.229s-0.455,0.078-0.619,0.232c-0.164,0.156-0.27,0.389-0.314,0.699l-0.639-0.113
						c0.078-0.424,0.254-0.756,0.529-0.99c0.275-0.232,0.617-0.352,1.027-0.352c0.282,0,0.543,0.061,0.777,0.182
						c0.238,0.123,0.421,0.287,0.546,0.498c0.127,0.209,0.188,0.43,0.188,0.666c0,0.223-0.062,0.428-0.183,0.611
						c-0.118,0.182-0.297,0.328-0.532,0.438c0.309,0.07,0.545,0.217,0.715,0.439s0.254,0.5,0.254,0.834
						c0,0.451-0.164,0.834-0.494,1.148c-0.328,0.314-0.746,0.471-1.25,0.471c-0.453,0-0.83-0.135-1.129-0.404
						C114.06,24.532,113.89,24.18,113.847,23.751z"/>
				</g>
			</g>
		</g>
	</g>
	<g>
		<g>
			<g>
				<g>
					<path d="M117.984,21.184c0-0.369,0.092-0.684,0.277-0.941c0.188-0.26,0.454-0.389,0.811-0.389c0.322,0,0.592,0.117,0.806,0.348
						c0.213,0.232,0.319,0.572,0.319,1.021c0,0.438-0.106,0.775-0.322,1.012c-0.217,0.236-0.479,0.355-0.797,0.355
						c-0.313,0-0.571-0.117-0.78-0.352C118.089,22.007,117.984,21.655,117.984,21.184z M119.089,20.292
						c-0.157,0-0.289,0.068-0.396,0.205c-0.104,0.137-0.156,0.387-0.156,0.752c0,0.33,0.054,0.564,0.158,0.699
						c0.104,0.137,0.236,0.203,0.394,0.203c0.159,0,0.291-0.066,0.396-0.205c0.104-0.135,0.156-0.385,0.156-0.748
						c0-0.334-0.054-0.568-0.158-0.705C119.378,20.36,119.246,20.292,119.089,20.292z M119.093,25.305l2.83-5.451h0.515
						l-2.818,5.451H119.093z M121.33,23.901c0-0.371,0.093-0.686,0.277-0.943c0.188-0.258,0.457-0.387,0.813-0.387
						c0.323,0,0.595,0.115,0.808,0.348s0.317,0.572,0.317,1.021c0,0.438-0.104,0.775-0.321,1.01c-0.216,0.238-0.48,0.355-0.8,0.355
						c-0.313,0-0.573-0.117-0.78-0.352C121.431,24.721,121.33,24.37,121.33,23.901z M122.435,23.009
						c-0.158,0-0.291,0.068-0.396,0.205c-0.104,0.137-0.155,0.387-0.155,0.752c0,0.33,0.052,0.563,0.157,0.699
						c0.105,0.137,0.236,0.205,0.393,0.205c0.164,0,0.297-0.068,0.398-0.205c0.104-0.137,0.158-0.387,0.158-0.748
						c0-0.334-0.055-0.568-0.16-0.705C122.724,23.077,122.594,23.009,122.435,23.009z"/>
				</g>
			</g>
		</g>
	</g>
</g>
<g>
	<g>
		<g>
			<g>
				<g>
					<path d="M192.714,21.339l0.567,0.57c1.414-1.414,3.707-1.414,5.121,0l0.568-0.57C197.246,19.612,194.443,19.612,192.714,21.339
						z M194.99,23.614l0.854,0.854l0.854-0.854C196.226,23.141,195.462,23.141,194.99,23.614z M193.851,22.477l0.567,0.568
						c0.782-0.785,2.062-0.785,2.847,0l0.564-0.568C196.736,21.38,194.953,21.38,193.851,22.477z"/>
				</g>
			</g>
		</g>
	</g>
</g>
<g>
	<g>
		<g>
			<g>
				<g>
					<g>
						<g>
							<path d="M197.929,209.81h-88.403c-4.613,0-8.367-3.754-8.367-8.367V22.176c0-4.613,3.754-8.367,8.367-8.367h88.403
								c4.612,0,8.366,3.754,8.366,8.367v179.267C206.297,206.056,202.543,209.81,197.929,209.81z M109.524,15.809
								c-3.511,0-6.367,2.857-6.367,6.367v179.267c0,3.512,2.856,6.365,6.367,6.365h88.405c3.511,0,6.364-2.854,6.364-6.365V22.176
								c0-3.51-2.854-6.367-6.364-6.367H109.524z"/>
						</g>
					</g>
				</g>
			</g>
		</g>
	</g>
</g>
<g>
	<path fill="#FFFFFF" d="M199.382,64.022c0,2.924-2.37,5.295-5.295,5.295h-25.511c-2.924,0-5.295-2.371-5.295-5.295l0,0
		c0-2.924,2.371-5.295,5.295-5.295h25.511C197.01,58.728,199.382,61.098,199.382,64.022L199.382,64.022z"/>
</g>
<g>
	<rect x="168.243" y="62.189" fill="#CCCCCC" width="26.176" height="3.667"/>
</g>
<g>
	<rect x="163.281" y="49.526" fill="#CCCCCC" width="26.176" height="3.667"/>
</g>
<g>
	<rect x="163.281" y="44.193" fill="#CCCCCC" width="22.206" height="3.667"/>
</g>
<g>
	<rect x="163.281" y="35.713" fill="#CCCCCC" width="36.101" height="3.667"/>
</g>
<g>
	<g>
		<g>
			<path fill="#F9B77A" d="M50.003,200.953c0-34.502,94.665-36.459,90.813-13.367c-3.078,18.439-47.896-1.813-68.973,13.857"/>
		</g>
	</g>
	<g>
		<g>
			<path d="M72.439,202.246l-1.192-1.604c10.569-7.856,26.646-6.945,40.831-6.146c14.124,0.803,26.321,1.489,27.75-7.072
				c0.479-2.873-0.782-5.438-3.751-7.619c-11.617-8.537-48.37-9.256-70.039,1.711c-6.857,3.471-15.034,9.66-15.034,19.439h-2
				c0-8.545,5.578-15.886,16.131-21.228c20.953-10.603,58.699-11.403,72.128-1.535c3.574,2.629,5.146,5.935,4.538,9.562
				c-1.724,10.33-14.748,9.594-29.836,8.74C98.118,195.707,82.426,194.82,72.439,202.246z"/>
		</g>
	</g>
</g>
<g>
	<g>
		<g>
			<g>
				<g>
					<path fill="#F9B77A" d="M191.118,206.974c0,0,1.76-0.945,4.724,6.564c3.944,10.006,0.957,8.575,0.957,8.575
						s-10.051,5.607-16.051,1.97c-6.003-3.64-8.547-10.418-5.682-15.142C177.929,204.216,191.118,206.974,191.118,206.974z"/>
				</g>
			</g>
		</g>
	</g>
	<g>
		<g>
			<g>
				<g>
					<path d="M185.68,226.312c-2.114,0-3.948-0.463-5.45-1.373c-3.096-1.875-5.435-4.6-6.585-7.668
						c-1.185-3.152-0.981-6.295,0.564-8.848c1.308-2.156,4.37-3.248,9.104-3.248c3.533,0,6.896,0.604,7.785,0.775
						c0.068-0.009,0.146-0.017,0.228-0.017c1.742,0,3.521,2.366,5.443,7.235c2.611,6.625,2.285,8.447,1.709,9.295
						c-0.351,0.517-0.979,0.771-1.544,0.707C195.58,223.882,190.556,226.312,185.68,226.312z M183.316,207.175
						c-3.933,0-6.487,0.789-7.396,2.285c-1.224,2.018-1.366,4.541-0.403,7.106c0.995,2.649,3.036,5.017,5.749,6.658
						c1.187,0.721,2.67,1.086,4.414,1.086c5.069,0,10.575-3.039,10.631-3.069l0.452-0.253l0.114,0.056
						c0.043-0.64-0.124-2.463-1.968-7.14c-1.926-4.881-3.201-5.78-3.525-5.938l-0.113,0.063l-0.356-0.074
						C190.876,207.947,187.136,207.175,183.316,207.175z"/>
				</g>
			</g>
		</g>
	</g>
</g>
</svg>
