<?xml version="1.0" encoding="utf-8"?>
<!-- Generator: Adobe Illustrator 16.0.0, SVG Export Plug-In . SVG Version: 6.00 Build 0)  -->
<!DOCTYPE svg PUBLIC "-//W3C//DTD SVG 1.1//EN" "http://www.w3.org/Graphics/SVG/1.1/DTD/svg11.dtd">
<svg version="1.1" id="Ebene_1" xmlns="http://www.w3.org/2000/svg" xmlns:xlink="http://www.w3.org/1999/xlink" x="0px" y="0px"
	 width="350.5px" height="350.5px" viewBox="-250.5 -250.5 350.5 350.5" enable-background="new -250.5 -250.5 350.5 350.5"
	 xml:space="preserve">
<g>
	<rect x="-225.869" y="-217.223" fill="#F5F5F5" width="220.09" height="77"/>
	<path fill="#BBBBBB" d="M-5.279-139.723h-221.09v-78h221.09V-139.723z M-225.369-140.723h219.09v-76h-219.09V-140.723z"/>
</g>
<g>
	<g>
		<path fill="#BBBBBB" d="M-193.264-178.878v5.892h-1.984v-15.048h5.55c1.646,0,2.938,0.42,3.871,1.261s1.4,1.953,1.4,3.338
			c0,1.461-0.457,2.586-1.37,3.375s-2.22,1.183-3.922,1.183H-193.264z M-193.264-180.5h3.565c1.062,0,1.874-0.25,2.439-0.751
			c0.564-0.5,0.848-1.223,0.848-2.169c0-0.896-0.283-1.614-0.848-2.153c-0.565-0.538-1.34-0.817-2.325-0.839h-3.68V-180.5z"/>
	</g>
	<g>
		<path fill="#BBBBBB" d="M-180.117-172.986h-1.912v-15.875h1.912V-172.986z"/>
	</g>
	<g>
		<path fill="#BBBBBB" d="M-170.154-174.093c-0.744,0.875-1.837,1.313-3.276,1.313c-1.192,0-2.1-0.346-2.724-1.038
			c-0.623-0.692-0.938-1.718-0.945-3.075v-7.275h1.912v7.224c0,1.695,0.688,2.543,2.066,2.543c1.461,0,2.433-0.544,2.915-1.633
			v-8.134h1.912v11.183h-1.819L-170.154-174.093z"/>
	</g>
	<g>
		<path fill="#BBBBBB" d="M-165.845-178.671c0-1.743,0.402-3.13,1.209-4.16c0.806-1.029,1.874-1.545,3.204-1.545
			c1.364,0,2.429,0.482,3.193,1.447l0.093-1.24h1.747v10.914c0,1.446-0.43,2.587-1.287,3.421c-0.857,0.833-2.01,1.25-3.457,1.25
			c-0.807,0-1.595-0.172-2.367-0.517c-0.771-0.345-1.36-0.816-1.767-1.416l0.992-1.147c0.819,1.013,1.822,1.52,3.007,1.52
			c0.931,0,1.655-0.262,2.176-0.785c0.521-0.524,0.78-1.261,0.78-2.212v-0.961c-0.765,0.882-1.809,1.322-3.132,1.322
			c-1.309,0-2.368-0.526-3.178-1.581C-165.44-175.415-165.845-176.852-165.845-178.671z M-163.923-178.454
			c0,1.261,0.259,2.252,0.775,2.972s1.24,1.08,2.17,1.08c1.206,0,2.092-0.548,2.656-1.644v-5.105
			c-0.586-1.067-1.464-1.602-2.636-1.602c-0.93,0-1.656,0.361-2.181,1.085C-163.661-180.944-163.923-179.873-163.923-178.454z"/>
	</g>
	<g>
		<path fill="#BBBBBB" d="M-153.505-187.135c0-0.311,0.095-0.572,0.284-0.786c0.189-0.213,0.471-0.32,0.842-0.32
			c0.372,0,0.655,0.107,0.848,0.32c0.193,0.214,0.29,0.476,0.29,0.786c0,0.31-0.097,0.568-0.29,0.774
			c-0.192,0.207-0.476,0.311-0.848,0.311c-0.371,0-0.652-0.104-0.842-0.311C-153.41-186.566-153.505-186.825-153.505-187.135z
			 M-151.438-172.986h-1.912v-11.183h1.912V-172.986z"/>
	</g>
	<g>
		<path fill="#BBBBBB" d="M-146.57-184.169l0.062,1.405c0.854-1.074,1.971-1.612,3.349-1.612c2.363,0,3.556,1.334,3.576,4v7.39
			h-1.912v-7.4c-0.007-0.806-0.191-1.401-0.553-1.787c-0.361-0.387-0.925-0.579-1.689-0.579c-0.62,0-1.165,0.165-1.633,0.496
			c-0.469,0.33-0.834,0.765-1.096,1.302v7.969h-1.912v-11.183H-146.57z"/>
	</g>
	<g>
		<path fill="#BBBBBB" d="M-129.549-182.815c0.848-1.04,1.95-1.561,3.308-1.561c2.363,0,3.555,1.334,3.575,4v7.39h-1.911v-7.4
			c-0.007-0.806-0.191-1.401-0.554-1.787c-0.361-0.387-0.925-0.579-1.689-0.579c-0.62,0-1.164,0.165-1.633,0.496
			c-0.469,0.33-0.834,0.765-1.096,1.302v7.969h-1.912v-15.875h1.912V-182.815z"/>
	</g>
	<g>
		<path fill="#BBBBBB" d="M-120.31-178.681c0-1.096,0.216-2.081,0.646-2.956s1.029-1.551,1.798-2.025
			c0.769-0.476,1.646-0.714,2.631-0.714c1.522,0,2.754,0.527,3.694,1.582c0.94,1.054,1.411,2.456,1.411,4.206v0.134
			c0,1.089-0.209,2.065-0.626,2.931c-0.417,0.864-1.013,1.538-1.788,2.021c-0.774,0.482-1.665,0.723-2.671,0.723
			c-1.517,0-2.744-0.526-3.685-1.581c-0.94-1.054-1.411-2.449-1.411-4.186V-178.681z M-118.387-178.454
			c0,1.24,0.287,2.236,0.862,2.987s1.346,1.126,2.311,1.126c0.971,0,1.743-0.38,2.314-1.142c0.572-0.762,0.858-1.827,0.858-3.198
			c0-1.227-0.291-2.221-0.874-2.982c-0.582-0.761-1.355-1.142-2.319-1.142c-0.944,0-1.706,0.376-2.284,1.126
			C-118.098-180.927-118.387-179.853-118.387-178.454z"/>
	</g>
	<g>
		<path fill="#BBBBBB" d="M-103.246-174.341c0.682,0,1.278-0.206,1.788-0.62c0.51-0.413,0.792-0.93,0.848-1.55h1.809
			c-0.035,0.641-0.256,1.251-0.662,1.829c-0.406,0.579-0.949,1.041-1.628,1.385c-0.679,0.345-1.396,0.517-2.154,0.517
			c-1.522,0-2.733-0.508-3.633-1.524c-0.899-1.016-1.349-2.406-1.349-4.17v-0.32c0-1.089,0.199-2.057,0.6-2.904
			c0.399-0.847,0.973-1.505,1.721-1.974c0.747-0.469,1.631-0.703,2.65-0.703c1.254,0,2.296,0.376,3.127,1.127
			c0.83,0.751,1.272,1.726,1.328,2.925h-1.809c-0.056-0.724-0.329-1.317-0.822-1.783c-0.492-0.465-1.101-0.697-1.824-0.697
			c-0.972,0-1.724,0.35-2.258,1.049s-0.801,1.711-0.801,3.033v0.362c0,1.288,0.265,2.28,0.796,2.977
			C-104.989-174.688-104.231-174.341-103.246-174.341z"/>
	</g>
	<g>
		<path fill="#BBBBBB" d="M-94.741-182.815c0.848-1.04,1.95-1.561,3.308-1.561c2.363,0,3.555,1.334,3.575,4v7.39h-1.911v-7.4
			c-0.007-0.806-0.191-1.401-0.554-1.787c-0.361-0.387-0.925-0.579-1.689-0.579c-0.62,0-1.164,0.165-1.633,0.496
			c-0.469,0.33-0.834,0.765-1.096,1.302v7.969h-1.912v-15.875h1.912V-182.815z"/>
	</g>
	<g>
		<path fill="#BBBBBB" d="M-82.917-172.986h-1.912v-15.875h1.912V-172.986z"/>
	</g>
	<g>
		<path fill="#BBBBBB" d="M-72.955-172.986c-0.11-0.221-0.199-0.613-0.269-1.179c-0.889,0.924-1.95,1.385-3.183,1.385
			c-1.103,0-2.007-0.312-2.713-0.935c-0.707-0.624-1.06-1.414-1.06-2.372c0-1.164,0.442-2.068,1.328-2.713
			c0.885-0.645,2.13-0.967,3.735-0.967h1.86v-0.878c0-0.668-0.199-1.2-0.599-1.597c-0.4-0.396-0.989-0.595-1.768-0.595
			c-0.683,0-1.254,0.173-1.716,0.517c-0.462,0.345-0.692,0.762-0.692,1.251h-1.922c0-0.559,0.197-1.098,0.594-1.617
			c0.396-0.521,0.934-0.932,1.612-1.235c0.679-0.303,1.425-0.455,2.237-0.455c1.289,0,2.298,0.322,3.028,0.967
			s1.109,1.531,1.137,2.661v5.146c0,1.027,0.131,1.844,0.393,2.449v0.166H-72.955z M-76.128-174.443c0.6,0,1.168-0.155,1.705-0.466
			c0.538-0.31,0.927-0.713,1.168-1.209v-2.294h-1.498c-2.343,0-3.514,0.686-3.514,2.057c0,0.6,0.199,1.067,0.599,1.405
			C-77.268-174.612-76.755-174.443-76.128-174.443z"/>
	</g>
	<g>
		<path fill="#BBBBBB" d="M-68.811-178.671c0-1.716,0.406-3.095,1.22-4.139c0.813-1.044,1.877-1.566,3.193-1.566
			c1.309,0,2.346,0.448,3.111,1.344v-5.829h1.911v15.875h-1.757l-0.093-1.199c-0.765,0.938-1.829,1.405-3.193,1.405
			c-1.296,0-2.352-0.53-3.168-1.591c-0.816-1.062-1.225-2.446-1.225-4.155V-178.671z M-66.898-178.454
			c0,1.269,0.262,2.261,0.785,2.977c0.523,0.717,1.247,1.075,2.171,1.075c1.212,0,2.098-0.544,2.656-1.633v-5.137
			c-0.572-1.054-1.451-1.581-2.636-1.581c-0.938,0-1.668,0.361-2.191,1.085S-66.898-179.873-66.898-178.454z"/>
	</g>
	<g>
		<path fill="#BBBBBB" d="M-51.769-172.78c-1.516,0-2.749-0.497-3.7-1.493c-0.95-0.995-1.426-2.327-1.426-3.994v-0.352
			c0-1.109,0.212-2.1,0.636-2.972c0.424-0.871,1.016-1.553,1.777-2.046c0.762-0.492,1.587-0.739,2.476-0.739
			c1.453,0,2.583,0.479,3.39,1.437c0.806,0.958,1.209,2.329,1.209,4.113v0.796h-7.575c0.027,1.103,0.35,1.993,0.966,2.672
			c0.617,0.679,1.4,1.018,2.352,1.018c0.675,0,1.247-0.138,1.716-0.413c0.468-0.275,0.878-0.641,1.229-1.096l1.168,0.91
			C-48.489-173.5-49.895-172.78-51.769-172.78z M-52.006-182.805c-0.772,0-1.42,0.281-1.943,0.842
			c-0.523,0.563-0.848,1.35-0.972,2.362h5.602v-0.146c-0.055-0.971-0.316-1.724-0.785-2.258S-51.207-182.805-52.006-182.805z"/>
	</g>
	<g>
		<path fill="#BBBBBB" d="M-43.387-184.169l0.062,1.405c0.854-1.074,1.971-1.612,3.349-1.612c2.363,0,3.556,1.334,3.576,4v7.39
			h-1.912v-7.4c-0.007-0.806-0.191-1.401-0.553-1.787c-0.361-0.387-0.925-0.579-1.689-0.579c-0.62,0-1.165,0.165-1.633,0.496
			c-0.469,0.33-0.834,0.765-1.096,1.302v7.969h-1.912v-11.183H-43.387z"/>
	</g>
</g>
<g>
	<g>
		<g>
			<rect x="-74.057" y="-133.329" fill="#43836F" width="79.259" height="110.273"/>
		</g>
		<g>
			<rect x="-70.61" y="-126.437" fill="#FFFFFF" width="72.367" height="99.937"/>
		</g>
		<g>
			<polygon fill="#518E7A" points="-8.582,-12.719 -74.057,-23.056 -74.057,-133.329 -8.582,-122.99 			"/>
		</g>
	</g>
	<g>
		<polygon fill="#48826D" points="-8.582,-122.99 -43.042,-128.433 -43.042,-18.158 -8.582,-12.719 		"/>
	</g>
	<g>
		<g>
			<path fill="#FFFFFF" d="M-50.149-97.932c0,0.286-0.013,0.53-0.044,0.73c-0.03,0.199-0.07,0.361-0.118,0.482
				c-0.05,0.118-0.115,0.2-0.191,0.24c-0.078,0.045-0.169,0.069-0.267,0.069h-8.615c-0.263,0-0.471-0.089-0.616-0.264
				c-0.141-0.177-0.211-0.471-0.211-0.874v-0.678c0-0.177,0.005-0.339,0.02-0.482c0.014-0.145,0.048-0.283,0.088-0.413
				c0.04-0.131,0.101-0.27,0.175-0.408c0.078-0.138,0.175-0.289,0.29-0.459l4.939-7.625h-4.671c-0.188,0-0.336-0.115-0.451-0.354
				c-0.114-0.238-0.169-0.617-0.169-1.14c0-0.286,0.011-0.523,0.037-0.716c0.023-0.193,0.064-0.343,0.111-0.457
				c0.046-0.115,0.112-0.198,0.196-0.245c0.073-0.049,0.169-0.072,0.275-0.072h8.057c0.136,0,0.257,0.013,0.357,0.043
				c0.094,0.033,0.178,0.083,0.242,0.162c0.062,0.081,0.115,0.187,0.147,0.324c0.038,0.138,0.055,0.311,0.055,0.518v0.723
				c0,0.197-0.011,0.372-0.031,0.524c-0.023,0.151-0.049,0.296-0.086,0.433c-0.041,0.138-0.097,0.275-0.171,0.412
				c-0.074,0.14-0.161,0.286-0.258,0.442l-4.906,7.613h5.203c0.086,0,0.171,0.02,0.253,0.058c0.074,0.038,0.143,0.113,0.201,0.22
				c0.055,0.107,0.09,0.26,0.122,0.453C-50.156-98.467-50.149-98.225-50.149-97.932z"/>
		</g>
		<g>
			<path fill="#FFFFFF" d="M-43.332-114.559c0,0.749-0.152,1.269-0.457,1.552c-0.311,0.286-0.875,0.429-1.701,0.429
				c-0.838,0-1.398-0.138-1.693-0.414c-0.288-0.276-0.433-0.77-0.433-1.491c0-0.749,0.147-1.268,0.454-1.557
				c0.296-0.29,0.868-0.438,1.704-0.438c0.827,0,1.39,0.142,1.681,0.424C-43.479-115.774-43.332-115.275-43.332-114.559z
				 M-43.61-96.912c0,0.1-0.03,0.186-0.091,0.258c-0.058,0.073-0.154,0.138-0.303,0.187c-0.142,0.049-0.33,0.087-0.565,0.111
				c-0.236,0.023-0.54,0.037-0.906,0.037c-0.36,0-0.663-0.014-0.898-0.037c-0.24-0.023-0.428-0.062-0.571-0.111
				c-0.143-0.048-0.243-0.111-0.303-0.187c-0.06-0.072-0.087-0.158-0.087-0.258v-13.153c0-0.096,0.034-0.184,0.087-0.26
				c0.06-0.072,0.162-0.136,0.303-0.191c0.145-0.056,0.333-0.098,0.571-0.125c0.235-0.03,0.531-0.044,0.898-0.044
				c0.366,0,0.663,0.015,0.906,0.044c0.235,0.027,0.424,0.071,0.565,0.125c0.147,0.056,0.246,0.119,0.303,0.191
				c0.063,0.073,0.091,0.16,0.091,0.26V-96.912z"/>
		</g>
		<g>
			<path fill="#F5F5F5" d="M-26.633-103.693c0,1.17-0.12,2.23-0.376,3.17c-0.246,0.941-0.615,1.74-1.098,2.401
				c-0.483,0.663-1.084,1.17-1.805,1.525c-0.713,0.354-1.541,0.531-2.468,0.531c-0.379,0-0.736-0.037-1.055-0.112
				c-0.32-0.071-0.629-0.184-0.933-0.34c-0.302-0.152-0.603-0.342-0.895-0.569c-0.296-0.227-0.602-0.493-0.919-0.797v6.207
				c0,0.096-0.03,0.188-0.087,0.265c-0.063,0.08-0.161,0.146-0.302,0.2c-0.144,0.053-0.333,0.096-0.569,0.126
				c-0.235,0.031-0.539,0.045-0.902,0.045s-0.666-0.014-0.902-0.045c-0.239-0.03-0.431-0.073-0.573-0.126
				c-0.141-0.056-0.239-0.12-0.302-0.2c-0.06-0.079-0.083-0.171-0.083-0.265v-18.416c0-0.101,0.023-0.187,0.069-0.259
				c0.047-0.072,0.135-0.135,0.256-0.187c0.125-0.048,0.286-0.086,0.49-0.11c0.201-0.023,0.459-0.038,0.762-0.038
				c0.297,0,0.544,0.015,0.747,0.038c0.201,0.023,0.364,0.062,0.491,0.11c0.12,0.052,0.208,0.111,0.256,0.187
				c0.046,0.076,0.073,0.158,0.073,0.259v1.55c0.383-0.392,0.76-0.741,1.131-1.039c0.367-0.3,0.746-0.552,1.131-0.756
				c0.38-0.204,0.78-0.351,1.188-0.451c0.406-0.098,0.844-0.147,1.308-0.147c0.962,0,1.79,0.19,2.469,0.569
				c0.684,0.378,1.232,0.897,1.666,1.561c0.427,0.658,0.739,1.429,0.934,2.305C-26.734-105.626-26.633-104.69-26.633-103.693z
				 M-30.502-103.426c0-0.562-0.046-1.101-0.128-1.621c-0.082-0.516-0.222-0.979-0.426-1.381c-0.205-0.403-0.471-0.727-0.799-0.969
				c-0.332-0.24-0.744-0.363-1.235-0.363c-0.24,0-0.49,0.039-0.726,0.111c-0.242,0.073-0.492,0.196-0.744,0.363
				c-0.245,0.166-0.508,0.381-0.776,0.648c-0.265,0.264-0.545,0.595-0.84,0.988v4.345c0.518,0.658,1.019,1.168,1.494,1.53
				c0.472,0.358,0.967,0.539,1.48,0.539c0.482,0,0.897-0.125,1.232-0.369c0.337-0.246,0.62-0.569,0.836-0.969
				c0.213-0.399,0.375-0.852,0.484-1.355C-30.558-102.425-30.502-102.926-30.502-103.426z"/>
		</g>
	</g>
</g>
<g>
	<g>
		<g>
			<path fill="#666666" d="M-93.317,3.73c0-1.603,0.379-2.891,1.139-3.866c0.759-0.975,1.753-1.462,2.982-1.462
				c1.223,0,2.19,0.418,2.904,1.254v-5.442h1.785V9.037h-1.64l-0.087-1.12c-0.714,0.875-1.708,1.312-2.982,1.312
				c-1.209,0-2.196-0.494-2.958-1.486c-0.762-0.99-1.144-2.283-1.144-3.879V3.73z M-91.532,3.931c0,1.185,0.245,2.11,0.734,2.78
				c0.489,0.668,1.164,1.003,2.026,1.003c1.132,0,1.959-0.508,2.48-1.524V1.394c-0.534-0.984-1.354-1.476-2.46-1.476
				c-0.875,0-1.557,0.337-2.046,1.013C-91.288,1.605-91.532,2.606-91.532,3.931z"/>
		</g>
		<g>
			<path fill="#666666" d="M-77.404,9.229c-1.415,0-2.567-0.465-3.455-1.394c-0.889-0.93-1.332-2.173-1.332-3.73V3.776
				c0-1.035,0.198-1.959,0.593-2.773s0.949-1.451,1.66-1.911c0.71-0.459,1.481-0.69,2.311-0.69c1.357,0,2.413,0.447,3.165,1.342
				c0.752,0.894,1.129,2.174,1.129,3.84v0.743h-7.073c0.026,1.029,0.326,1.86,0.902,2.495c0.576,0.633,1.308,0.95,2.195,0.95
				c0.63,0,1.165-0.129,1.602-0.387c0.438-0.256,0.82-0.598,1.148-1.022l1.091,0.85C-74.342,8.558-75.655,9.229-77.404,9.229z
				 M-77.626-0.131c-0.721,0-1.326,0.262-1.814,0.787c-0.49,0.524-0.791,1.259-0.908,2.205h5.23V2.726
				c-0.052-0.908-0.296-1.61-0.733-2.109C-76.289,0.118-76.88-0.131-77.626-0.131z"/>
		</g>
		<g>
			<path fill="#666666" d="M-71.258-4.175c0-0.289,0.089-0.533,0.265-0.733c0.177-0.2,0.44-0.299,0.787-0.299s0.611,0.1,0.791,0.299
				c0.18,0.2,0.271,0.444,0.271,0.733c0,0.29-0.091,0.531-0.271,0.725c-0.18,0.193-0.444,0.289-0.791,0.289s-0.61-0.096-0.787-0.289
				C-71.169-3.644-71.258-3.885-71.258-4.175z M-69.327,9.037h-1.786V-1.405h1.786V9.037z"/>
		</g>
		<g>
			<path fill="#666666" d="M-64.782-1.405l0.058,1.313c0.797-1.003,1.84-1.506,3.126-1.506c2.207,0,3.32,1.245,3.339,3.735v6.9
				h-1.785v-6.91c-0.006-0.753-0.179-1.31-0.516-1.669c-0.337-0.36-0.864-0.54-1.578-0.54c-0.579,0-1.087,0.154-1.525,0.463
				c-0.438,0.309-0.778,0.714-1.023,1.215v7.441h-1.785V-1.405H-64.782z"/>
		</g>
		<g>
			<path fill="#666666" d="M-51.852,3.797h-4.709V2.339h4.709V3.797z"/>
		</g>
		<g>
			<path fill="#666666" d="M-41.295,3.931c0,1.59-0.363,2.87-1.09,3.841c-0.727,0.971-1.712,1.456-2.954,1.456
				c-1.267,0-2.264-0.401-2.991-1.206v5.028h-1.785V-1.405h1.631l0.087,1.158c0.727-0.9,1.737-1.351,3.03-1.351
				c1.255,0,2.247,0.473,2.978,1.419c0.729,0.945,1.095,2.261,1.095,3.946V3.931z M-43.08,3.73c0-1.179-0.251-2.108-0.752-2.79
				c-0.502-0.683-1.191-1.023-2.066-1.023c-1.081,0-1.891,0.479-2.432,1.437v4.989c0.534,0.952,1.351,1.429,2.451,1.429
				c0.855,0,1.536-0.339,2.041-1.018C-43.332,6.075-43.08,5.067-43.08,3.73z"/>
		</g>
		<g>
			<path fill="#666666" d="M-37.087,9.037h-1.786V-5.786h1.786V9.037z"/>
		</g>
		<g>
			<path fill="#666666" d="M-27.785,8.003c-0.695,0.817-1.715,1.225-3.059,1.225c-1.113,0-1.96-0.323-2.542-0.969
				c-0.583-0.646-0.877-1.604-0.883-2.871v-6.793h1.785V5.34c0,1.583,0.644,2.374,1.93,2.374c1.364,0,2.271-0.508,2.721-1.524
				v-7.595h1.785V9.037h-1.698L-27.785,8.003z"/>
		</g>
		<g>
			<path fill="#666666" d="M-23.761,3.73c0-1.628,0.376-2.923,1.129-3.885s1.75-1.443,2.992-1.443c1.273,0,2.267,0.451,2.982,1.351
				l0.086-1.158h1.63V8.785c0,1.351-0.4,2.416-1.201,3.194c-0.801,0.778-1.877,1.168-3.228,1.168c-0.753,0-1.489-0.162-2.21-0.483
				c-0.72-0.322-1.27-0.762-1.649-1.322l0.926-1.071c0.766,0.945,1.701,1.419,2.808,1.419c0.869,0,1.545-0.244,2.031-0.735
				c0.486-0.488,0.728-1.177,0.728-2.064V7.994c-0.713,0.824-1.688,1.234-2.923,1.234c-1.223,0-2.212-0.492-2.967-1.477
				C-23.383,6.768-23.761,5.427-23.761,3.73z M-21.966,3.931c0,1.177,0.242,2.103,0.724,2.775s1.158,1.008,2.027,1.008
				c1.125,0,1.952-0.512,2.479-1.535V1.413c-0.546-0.997-1.367-1.495-2.46-1.495c-0.869,0-1.547,0.337-2.036,1.013
				C-21.721,1.605-21.966,2.606-21.966,3.931z"/>
		</g>
		<g>
			<path fill="#666666" d="M-12.239-4.175c0-0.289,0.088-0.533,0.265-0.733s0.439-0.299,0.787-0.299c0.348,0,0.611,0.1,0.792,0.299
				s0.271,0.444,0.271,0.733c0,0.29-0.09,0.531-0.271,0.725c-0.18,0.193-0.444,0.289-0.792,0.289c-0.347,0-0.61-0.096-0.787-0.289
				C-12.151-3.644-12.239-3.885-12.239-4.175z M-10.309,9.037h-1.786V-1.405h1.786V9.037z"/>
		</g>
		<g>
			<path fill="#666666" d="M-5.764-1.405l0.057,1.313c0.798-1.003,1.84-1.506,3.127-1.506c2.207,0,3.319,1.245,3.338,3.735v6.9
				h-1.785v-6.91c-0.006-0.753-0.178-1.31-0.516-1.669c-0.337-0.36-0.863-0.54-1.577-0.54c-0.58,0-1.087,0.154-1.525,0.463
				c-0.438,0.309-0.778,0.714-1.023,1.215v7.441h-1.785V-1.405H-5.764z"/>
		</g>
		<g>
			<path fill="#666666" d="M3.49,8.101c0-0.31,0.092-0.565,0.275-0.772c0.184-0.207,0.458-0.31,0.825-0.31s0.645,0.104,0.835,0.31
				c0.189,0.207,0.285,0.462,0.285,0.772c0,0.295-0.095,0.543-0.285,0.743C5.235,9.043,4.957,9.142,4.59,9.142
				S3.948,9.043,3.765,8.844C3.582,8.644,3.49,8.396,3.49,8.101z"/>
		</g>
		<g>
			<path fill="#666666" d="M10.332,7.579h6.108v1.458H8.151V7.724l5.761-7.652H8.237v-1.477h7.913v1.264L10.332,7.579z"/>
		</g>
		<g>
			<path fill="#666666" d="M18.457-4.175c0-0.289,0.088-0.533,0.266-0.733c0.177-0.2,0.439-0.299,0.786-0.299
				c0.348,0,0.611,0.1,0.792,0.299s0.271,0.444,0.271,0.733c0,0.29-0.09,0.531-0.271,0.725c-0.18,0.193-0.444,0.289-0.792,0.289
				c-0.347,0-0.609-0.096-0.786-0.289C18.545-3.644,18.457-3.885,18.457-4.175z M20.387,9.037h-1.786V-1.405h1.786V9.037z"/>
		</g>
		<g>
			<path fill="#666666" d="M32.063,3.931c0,1.59-0.364,2.87-1.09,3.841c-0.727,0.971-1.711,1.456-2.953,1.456
				c-1.267,0-2.264-0.401-2.991-1.206v5.028h-1.786V-1.405h1.631l0.087,1.158c0.727-0.9,1.737-1.351,3.03-1.351
				c1.254,0,2.247,0.473,2.977,1.419c0.73,0.945,1.096,2.261,1.096,3.946V3.931z M30.278,3.73c0-1.179-0.251-2.108-0.752-2.79
				c-0.502-0.683-1.19-1.023-2.065-1.023c-1.081,0-1.891,0.479-2.432,1.437v4.989c0.534,0.952,1.351,1.429,2.451,1.429
				c0.856,0,1.537-0.339,2.041-1.018C30.025,6.075,30.278,5.067,30.278,3.73z"/>
		</g>
	</g>
</g>
<g opacity="0.2">
	<rect x="-123.583" y="-150.989" fill="#004ED4" width="174.25" height="181"/>
</g>
<g>
	<g>
		<rect x="-72.486" y="49.977" fill="#FFFFFF" width="123.152" height="33.5"/>
	</g>
	<g>
		<path fill="#0800D4" d="M51.166,83.977H-72.986v-34.5H51.166V83.977z M-71.986,82.977H50.166v-32.5H-71.986V82.977z"/>
	</g>
</g>
<g>
	<g>
		<path fill="#0800D4" d="M-48.948,66.099h3.588v2.595h-3.588v4.055h-2.733v-4.055h-3.598v-2.595h3.598v-3.886h2.733V66.099z"/>
	</g>
	<g>
		<path fill="#0800D4" d="M-34.656,69.886l-1.034,1.033v3.28h-2.873V58.934h2.873v8.457l0.557-0.715l2.753-3.23h3.449l-3.886,4.482
			l4.224,6.271h-3.3L-34.656,69.886z"/>
	</g>
	<g>
		<path fill="#0800D4" d="M-28.136,68.723c0-1.066,0.206-2.018,0.616-2.853c0.411-0.835,1.002-1.48,1.774-1.938
			c0.772-0.458,1.668-0.687,2.688-0.687c1.451,0,2.635,0.444,3.553,1.332c0.917,0.888,1.429,2.094,1.536,3.618l0.02,0.735
			c0,1.649-0.46,2.974-1.381,3.971s-2.157,1.496-3.707,1.496c-1.551,0-2.788-0.497-3.712-1.491s-1.387-2.346-1.387-4.056V68.723z
			 M-25.263,68.927c0,1.022,0.192,1.804,0.577,2.344c0.384,0.541,0.934,0.812,1.65,0.812c0.695,0,1.239-0.267,1.63-0.801
			c0.391-0.534,0.586-1.389,0.586-2.563c0-1.002-0.196-1.778-0.586-2.329c-0.391-0.551-0.941-0.826-1.65-0.826
			c-0.703,0-1.246,0.273-1.63,0.821C-25.071,66.931-25.263,67.778-25.263,68.927z"/>
	</g>
	<g>
		<path fill="#0800D4" d="M-6.499,68.922c0,1.656-0.376,2.983-1.128,3.98s-1.768,1.496-3.046,1.496
			c-1.087,0-1.964-0.378-2.634-1.134v5.069h-2.873V63.445h2.664l0.099,1.054c0.696-0.835,1.604-1.253,2.723-1.253
			c1.325,0,2.356,0.491,3.091,1.472s1.103,2.332,1.103,4.055V68.922z M-9.371,68.713c0-1-0.178-1.772-0.532-2.315
			c-0.354-0.544-0.87-0.815-1.546-0.815c-0.901,0-1.521,0.345-1.858,1.034v4.402c0.351,0.709,0.978,1.063,1.878,1.063
			C-10.057,72.082-9.371,70.959-9.371,68.713z"/>
	</g>
	<g>
		<path fill="#0800D4" d="M-4.739,60.662c0-0.431,0.144-0.785,0.432-1.063s0.681-0.417,1.178-0.417c0.49,0,0.881,0.139,1.173,0.417
			s0.438,0.633,0.438,1.063c0,0.438-0.147,0.796-0.442,1.073c-0.295,0.279-0.684,0.418-1.168,0.418
			c-0.483,0-0.873-0.139-1.167-0.418C-4.592,61.458-4.739,61.1-4.739,60.662z M-1.688,74.199H-4.57V63.445h2.882V74.199z"/>
	</g>
	<g>
		<path fill="#0800D4" d="M5.627,74.398c-1.577,0-2.861-0.484-3.851-1.451C0.785,71.979,0.29,70.69,0.29,69.081v-0.278
			c0-1.08,0.208-2.046,0.626-2.897s1.009-1.508,1.774-1.968c0.766-0.461,1.638-0.691,2.619-0.691c1.471,0,2.629,0.464,3.474,1.392
			s1.267,2.243,1.267,3.946v1.173H3.202c0.092,0.702,0.373,1.266,0.84,1.689c0.467,0.424,1.058,0.636,1.774,0.636
			c1.106,0,1.971-0.4,2.594-1.202l1.411,1.58c-0.431,0.609-1.014,1.085-1.749,1.426C7.336,74.228,6.521,74.398,5.627,74.398z
			 M5.299,65.563c-0.57,0-1.032,0.192-1.387,0.579c-0.354,0.386-0.582,0.938-0.681,1.657h3.995v-0.23
			c-0.013-0.639-0.186-1.133-0.517-1.482C6.379,65.737,5.909,65.563,5.299,65.563z"/>
	</g>
	<g>
		<path fill="#0800D4" d="M17.723,66.139c-0.391-0.053-0.735-0.079-1.034-0.079c-1.086,0-1.799,0.367-2.137,1.103v7.037H11.68
			V63.445h2.713l0.08,1.282c0.577-0.987,1.375-1.481,2.396-1.481c0.318,0,0.616,0.044,0.895,0.13L17.723,66.139z"/>
	</g>
	<g>
		<path fill="#0800D4" d="M23.865,74.398c-1.577,0-2.861-0.484-3.851-1.451c-0.991-0.968-1.486-2.257-1.486-3.866v-0.278
			c0-1.08,0.208-2.046,0.626-2.897s1.009-1.508,1.774-1.968c0.766-0.461,1.638-0.691,2.619-0.691c1.471,0,2.629,0.464,3.474,1.392
			c0.844,0.928,1.267,2.243,1.267,3.946v1.173H21.44c0.092,0.702,0.373,1.266,0.84,1.689c0.467,0.424,1.058,0.636,1.774,0.636
			c1.106,0,1.971-0.4,2.594-1.202l1.411,1.58c-0.431,0.609-1.014,1.085-1.749,1.426C25.575,74.228,24.76,74.398,23.865,74.398z
			 M23.538,65.563c-0.57,0-1.032,0.192-1.387,0.579c-0.354,0.386-0.582,0.938-0.681,1.657h3.995v-0.23
			c-0.013-0.639-0.186-1.133-0.517-1.482C24.617,65.737,24.147,65.563,23.538,65.563z"/>
	</g>
	<g>
		<path fill="#0800D4" d="M32.563,63.445l0.089,1.242c0.769-0.961,1.799-1.441,3.091-1.441c1.14,0,1.988,0.335,2.545,1.004
			c0.557,0.67,0.842,1.67,0.854,3.002v6.947H36.27v-6.878c0-0.609-0.133-1.052-0.398-1.327c-0.265-0.274-0.705-0.412-1.321-0.412
			c-0.809,0-1.415,0.345-1.819,1.034v7.583h-2.872V63.445H32.563z"/>
	</g>
</g>
<g>
	<path fill="#0800D4" d="M51.166,30.511h-175.25v-182h175.25V30.511z M-123.083,29.511h173.25v-180h-173.25V29.511z"/>
</g>
<g>
	<polygon fill="#FFFFFF" points="-79.076,35.039 -111.461,10.852 -111.705,51.271 -101.132,38.074 -87.373,65.731 -82.221,63.169 
		-95.98,35.51 	"/>
	<path fill="#666666" d="M-87.598,66.401l-13.633-27.404l-10.982,13.709l0.258-42.847l34.331,25.639l-17.559,0.49l13.633,27.405
		L-87.598,66.401z M-101.033,37.15l13.885,27.911l4.256-2.117l-13.885-27.912l16.25-0.453l-30.44-22.734l-0.229,37.992
		L-101.033,37.15z"/>
</g>
</svg>
