<?xml version="1.0" encoding="utf-8"?>
<!-- Generator: Adobe Illustrator 16.0.0, SVG Export Plug-In . SVG Version: 6.00 Build 0)  -->
<!DOCTYPE svg PUBLIC "-//W3C//DTD SVG 1.1//EN" "http://www.w3.org/Graphics/SVG/1.1/DTD/svg11.dtd">
<svg version="1.1" id="Ebene_1" xmlns="http://www.w3.org/2000/svg" xmlns:xlink="http://www.w3.org/1999/xlink" x="0px" y="0px"
	 width="454.082px" height="336.034px" viewBox="0 578.309 454.082 336.034" enable-background="new 0 578.309 454.082 336.034"
	 xml:space="preserve">
<g id="Ebene_1_1_">
</g>
<g id="Ebene_2" display="none">
	<g display="inline">
		<g>
			<path fill="#FEFEFE" d="M251.055,1099c-64.979,0-129.96-0.026-194.938,0.078c-3.174,0.005-4.228-0.3-4.225-3.96
				c0.129-130.126,0.122-260.252,0.029-390.378c-0.002-3.145,0.734-3.819,3.837-3.817c130.125,0.089,260.251,0.085,390.377,0.021
				c2.846-0.001,3.966,0.276,3.963,3.688c-0.115,130.292-0.111,260.584-0.016,390.877c0.003,3.005-0.633,3.575-3.591,3.57
				C381.347,1098.976,316.199,1099,251.055,1099z M126.963,1020.023c-0.037,1.135-0.037,2.257,1.013,3.027
				c1.143,3.475,3.619,5.646,6.878,7.059c2.258,3.763,5.663,6.367,9.057,8.985c0.47,2.252,1.687,3.703,4.122,3.852
				c0.295,0.036,0.588,0.087,0.878,0.148c0.233,1.82,1.184,2.869,3.1,2.878c0.303,0.024,0.603,0.064,0.901,0.122
				c0.85,3.118,3.42,4.066,6.119,4.851c0.296,0.037,0.59,0.088,0.881,0.149c2.039,3.496,5.437,4.891,9.097,5.878
				c0.304,0.023,0.605,0.063,0.905,0.122c0.137,1.088,0.796,1.715,1.741,2.218c13.485,7.163,27.85,11.921,42.615,15.568
				c0.98,0.242,1.986,0.138,2.729-0.727c0.609,0.019,1.221,0.035,1.832,0.055c0.91,2.334,2.405,2.219,4.168,0.999
				c0.61,0,1.222,0,1.833,0.001c1.275,2.669,3.152,2.136,5.148,0.966c0.626,0.004,1.253,0.007,1.88,0.01
				c2.725,3.229,5.964,1.841,9.14,1.021c2.101-0.542,4.011,0.511,6.022,0.72c3.808,1.275,7.612,2.521,11.118-0.739
				c1.954-0.011,3.908-0.021,5.862-0.03c5.846,2.249,11.492-0.355,17.207-0.854c1.639-0.143,4.205,0.646,4.933-2.114
				c0.62-0.011,1.239-0.021,1.86-0.031c0.776,0.891,1.697,0.729,2.727,0.507c18.802-4.046,36.362-11.177,52.523-21.569
				c3.91-2.516,8.604-4.32,10.829-8.967c0.314-0.057,0.633-0.104,0.949-0.145c7.021-4.103,13.408-8.922,17.971-15.815l-0.014-0.296
				c2.755-0.146,3.847-2.282,5.088-4.243c1.331-2.103,2.384-4.469,4.057-6.252c12.855-13.703,22.854-29.257,30.299-46.458
				c8.18-18.897,12.973-38.61,13.454-59.251c0.213-9.16-0.069-18.331,0.088-27.494c0.066-3.912-0.378-7.611-2.18-11.104
				c0.276-1.825-0.082-3.575-0.328-5.394c-0.73-5.399-4.732-9.647-5.351-14.889c-1.294-10.989-5.938-20.482-11.455-29.84
				c-8.178-13.871-17.559-26.817-28.227-38.843c-7.588-8.552-16.541-15.438-26.477-21.063c-0.332-0.327-0.664-0.654-0.996-0.981
				c0.178-2.134-1.479-3.332-2.711-4.469c-5.123-4.724-10.314-9.499-18.139-8.6c-22.938-11.79-47.494-17.027-73.091-18.032
				c-10.789-0.424-21.502,0.825-32.152,2.151c-7.464,0.931-15.046,1.996-21.993,5.341c-4.674,0.457-8.949,2.118-13.047,4.316
				c-6.23,2.127-12.072,5.107-17.879,8.163c-0.66,0.34-1.321,0.68-1.981,1.02c-4.303,0.365-8.354,1.151-10.002,5.967l-0.063,0.032
				c-6.814,4.685-13.572,9.436-18.974,15.819c-0.734,0.398-1.471,0.796-2.207,1.194c-12.902,10.406-22.303,23.817-31.727,37.182
				c-3.423,4.854-7.006,9.708-8.089,15.796c-2.146,3.429-4.228,6.885-5.088,10.911c-1.462,2.452-1.312,4.058,2.058,4.213
				c1.47,0.068,2.928,0.602,4.391,0.599c3.615-0.006,4.479,1.329,3.794,5.02c-2.027,10.952-1.84,11.171-12.893,11.18
				c-3.615,0.002-4.854,1.77-5.02,4.614c-0.215,3.698,2.9,2.53,4.708,2.453c15.066-0.645,30.131-1.216,45.213-0.925
				c0.224,2.896-1.608,3.087-3.824,3.068c-12.867-0.114-25.688,1.66-38.569,0.982c-2.001-0.104-3.908,0.518-5.851,0.752
				c-3.345,0.405-4.122,2.219-3.707,5.118c-0.079,0.738-0.158,1.475-0.237,2.213c-3.091,14.802-1.844,29.661-0.496,44.509
				c0.196,2.156,1.102,3.254,3.993,2.64c7.593-1.619,15.304-2.712,22.993-3.844c10.463-1.538,20.716-4.609,31.427-4.355
				c0.25,3.477-1.018,5.401-4.757,6.201c-15.978,3.42-31.887,7.146-47.838,10.688c-1.484,0.33-2.992,0.149-3.164,2.285
				c-0.251,3.124-0.733,6.229-0.985,9.354c-0.848,10.502,4.745,19.138,8.559,28.196c5.694,13.533,16.029,24.213,23.571,36.646
				c2.079,3.429,3.84,7.816,8.791,8.577C126.306,1019.364,126.635,1019.693,126.963,1020.023z"/>
			<path fill="#D0F096" d="M140.93,773.766c5.401-6.38,12.16-11.131,18.975-15.814c0.499,7.618,0.438,15.253,0.85,22.884
				c0.942,17.547,1.92,35.083,3.142,52.617c0.829,11.894,1.914,23.751,2.981,35.621c1.837,20.431,3.933,40.816,7.089,61.09
				c0.617,3.967,5.422,8.761,8.841,7.479c5.806-2.176,10.979-0.589,16.342,0.925c1.239,0.349,2.938,0.407,2.581-1.072
				c-1.217-5.07,2.396-9.505,1.353-14.579c-2.427-11.785-1.562-23.881-1.716-35.733c-0.415-31.606-0.882-63.232,0.359-94.875
				c0.703-17.914,1.915-35.882,1.152-53.854c6.947-3.344,14.529-4.41,21.993-5.34c10.649-1.327,21.363-2.576,32.152-2.152
				c25.597,1.005,50.153,6.242,73.09,18.032c-0.02,22.052-0.037,44.104-0.056,66.155c-14.826-9.933-31.188-14.004-48.737-11.145
				c-17.072,2.782-28.942,12.006-33.707,29.586c-2.612,9.646-4.223,19.364-5.587,29.205c-1.507,10.872-2.715,21.708-2.107,32.733
				c0.601,10.905,3.014,20.967,10.623,29.299c2.172,2.379,3.918,5.148,5.958,7.872c-7.715,0.45-11.606,3.095-12.508,8.305
				c-0.092,0.458-0.183,0.917-0.272,1.376c-2.805,0.982-1.269,3.373-1.626,5.131c-0.267,1.314-0.101,2.725-2.257,2.192
				c-10.616-2.613-21.537-3.241-32.328-4.6c-15.604-1.962-31.201-4.021-46.875-5.548c-9.586-0.933-19.255-2.718-28.874-4.195
				c-3.039-0.468-6.33-1.425-8.796,1.616c-10.472,2.345-20.939,4.709-31.421,7.009c-1.33,0.291-3.017,0.344-3.184,1.86
				c-0.405,3.701,0.707,7.4,2.484,10.396c1.082,1.824,4.221,0.718,6.512,0.149c8.799-2.18,17.629-4.232,26.447-6.334
				c1.923,9.411,3.79,18.834,5.802,28.227c0.664,3.099-0.056,3.623-3.217,3.043c-7.976-1.463-16.043-2.433-24.071-3.618
				c-0.747-0.109-1.713-0.796-1.914,0.497c-0.145,0.935,0.827,1.331,1.503,1.794c4.788,12.756,12.504,23.564,22.055,33.152
				c0.732,1.896,1.467,3.792,2.2,5.688l-0.181,0.196c-4.951-0.76-6.711-5.148-8.791-8.577
				c-7.542-12.433-17.877-23.112-23.572-36.646c-3.813-9.061-9.405-17.695-8.558-28.197c0.252-3.124,0.733-6.229,0.985-9.354
				c0.172-2.136,1.68-1.955,3.164-2.285c15.951-3.541,31.86-7.268,47.838-10.688c3.74-0.8,5.007-2.725,4.759-6.201
				c0.336-0.713,0.67-1.426,1.006-2.137c2.876,2.578,1.49,5.698,1.27,8.75c-0.102,1.387-1.019,3.94,1.529,3.904
				c1.959-0.029,2.12-2.468,1.971-3.976c-1.1-11.016-1.328-22.084-2.396-33.116c-1.672-17.274-2.88-34.658-3.004-52.005
				c-0.134-18.767-1.697-37.492-1.211-56.262C141.04,779.422,140.946,776.593,140.93,773.766z M154.417,837.48
				c-1.777,0.601-1.158,1.796-1.42,2.653c-2.552,8.329,0.124,16.714,0.508,24.935c0.479,10.255,0.822,20.656,2.371,30.929
				c1.336,8.862,1.359,17.915,2.46,26.823c0.261,2.112-0.323,6.381,3.662,5.903c3.676-0.439,2.004-4.123,1.856-6.175
				c-0.428-6.001-1.528-11.952-2.237-17.937c-1.207-10.191-2.514-20.376-3.39-30.598c-0.511-5.969-0.87-12.013-1.559-17.915
				C155.955,849.979,156.416,843.567,154.417,837.48z M155.049,830.586c-1.098-1.031-0.134-3.837-2.611-4.268
				c-1.483-0.259-1.502,1.502-1.352,2.602c0.262,1.916,0.519,4.175,2.868,4.518C155.239,833.625,154.819,831.996,155.049,830.586z"
				/>
			<path fill="#D0F096" d="M423.793,873.07c1.802,3.49,2.245,7.19,2.18,11.103c-0.157,9.163,0.125,18.333-0.088,27.494
				c-0.481,20.641-5.274,40.354-13.454,59.251c-7.445,17.201-17.442,32.755-30.299,46.458c-1.674,1.783-2.726,4.15-4.057,6.252
				c-1.242,1.961-2.333,4.097-5.088,4.244c0.349-1.956,0.694-3.913,1.041-5.87c1.361-3.329-1.509-2.708-2.896-2.74
				c-4.653-0.106-5.108-1.938-4.012-6.235c5.376-21.066,8.111-42.404,5.898-64.229c-2.274-22.435-11.563-33.098-33.607-37.977
				c-7.289-1.613-14.648-1.939-22.945-1.092c1.918-2.319,0.852-5.339,4.431-5.588c11.241-0.78,16.51-8.565,20.237-17.89
				c1.183-2.958,1.896-6.295-0.023-9.118c-2.225-3.27-1.53-6.103,0.226-9.087c2.806,0.156,5.676-0.018,8.403,0.525
				c9.887,1.97,19.951,2.271,29.915,3.492c8.333,1.02,16.675,2.017,25.037,2.733c5.465,0.469,10.944,2.978,16.468,0.248
				C422.553,875.072,422.873,873.672,423.793,873.07z"/>
			<path fill="#E4BE8D" d="M423.793,873.07c-0.92,0.602-1.24,2.002-2.634,1.974c-0.249-2.765-1.289-4.723-4.441-5.04
				c-5.761-0.579-11.498-1.357-17.255-1.966c-18.738-1.979-37.48-3.918-56.223-5.873c0.215-5.771,1.886-11.394,1.615-17.222
				c-0.561-12.124-6.205-21.684-14.8-29.795c0.018-22.053,0.035-44.104,0.055-66.156c7.824-0.898,13.017,3.876,18.14,8.6
				c1.232,1.139,2.889,2.335,2.711,4.469l0.019,0.013c-1.448,1.122-0.967,2.729-0.969,4.16c-0.025,23.092-0.022,46.183,0.002,69.273
				c0.001,0.814-0.363,1.831,1.942,3.586c0-26.153,0-51.108,0-76.063v0.012c9.938,5.625,18.891,12.51,26.479,21.063
				c10.668,12.024,20.049,24.972,28.227,38.844c5.517,9.356,10.161,18.851,11.455,29.839c0.617,5.242,4.619,9.49,5.351,14.889
				C423.711,869.494,424.07,871.244,423.793,873.07z"/>
			<path fill="#E4BE8D" d="M202.876,738.452c0.763,17.973-0.449,35.94-1.152,53.854c-1.242,31.643-0.774,63.269-0.36,94.875
				c0.156,11.854-0.709,23.948,1.717,35.733c1.044,5.074-2.569,9.509-1.353,14.579c0.356,1.479-1.342,1.421-2.581,1.072
				c-5.362-1.514-10.536-3.101-16.342-0.925c-3.419,1.28-8.224-3.514-8.841-7.479c-3.156-20.273-5.252-40.66-7.089-61.09
				c-1.067-11.87-2.152-23.728-2.981-35.621c-1.222-17.533-2.199-35.07-3.142-52.617c-0.411-7.63-0.351-15.266-0.85-22.884
				c-0.001,0,0.063-0.032,0.063-0.031c3.741-1.307,7.072-3.301,10.001-5.968c0.66-0.34,1.321-0.679,1.981-1.02
				c1.067,0.821,1.053,1.999,1.042,3.173c-0.254,25.24,1.039,50.44,2.008,75.648c0.305,7.949,0.098,15.978,1.204,23.816
				c0.88,6.239-0.065,12.792,3.032,18.79c0.432-6.437,2.907-12.705,1.247-19.249c-0.548-2.161-0.992-4.479-0.319-6.398
				c3.012-8.601-0.897-17.86,2.71-26.36c0.222-0.522-0.113-1.297-0.23-1.946c-1.265-7.03,1.07-13.869,1.33-20.836
				c0.183-4.904,1.027-10.056,1.386-14.978c0.636-8.698,2.365-17.258,2.73-25.932c0.199-4.724,2.243-9.139,1.739-13.894
				C193.927,740.571,198.202,738.909,202.876,738.452z"/>
			<path fill="#BAD4E4" d="M142.808,914.95c-0.334,0.712-0.668,1.425-1.004,2.138c-10.713-0.254-20.966,2.817-31.429,4.356
				c-7.689,1.131-15.4,2.224-22.993,3.843c-2.892,0.615-3.797-0.482-3.993-2.639c-1.349-14.849-2.596-29.707,0.497-44.511
				c16.892-1.041,33.779-2.089,50.715-2.181c3.637-0.02,5.973,1.168,6.236,4.777C141.672,892.127,143.605,903.463,142.808,914.95z"
				/>
			<path fill="#BAD4E4" d="M98.905,827.941c1.086-6.089,4.668-10.941,8.092-15.795c9.424-13.365,18.823-26.775,31.729-37.183
				c0.055,16.648,0.132,33.297,0.131,49.946c0,2.472-0.619,4.875-1.941,7.032c-10.79-1.042-21.585-1.979-32.442-1.899
				C102.368,830.058,100.056,830.505,98.905,827.941z"/>
			<path fill="#D0F096" d="M189.829,742.769c0.504,4.755-1.54,9.171-1.739,13.894c-0.365,8.673-2.095,17.234-2.73,25.932
				c-0.358,4.922-1.204,10.073-1.386,14.978c-0.259,6.967-2.594,13.806-1.33,20.836c0.117,0.649,0.452,1.424,0.23,1.946
				c-3.607,8.5,0.302,17.76-2.71,26.36c-0.672,1.92-0.229,4.237,0.319,6.398c1.66,6.543-0.815,12.813-1.247,19.249
				c-3.098-5.998-2.152-12.551-3.032-18.79c-1.106-7.839-0.899-15.868-1.204-23.816c-0.968-25.208-2.262-50.408-2.008-75.648
				c0.012-1.173,0.026-2.352-1.042-3.173C177.757,747.876,183.599,744.896,189.829,742.769z"/>
			<path fill="#BAD4E4" d="M136.073,866.005c-15.084-0.291-30.147,0.28-45.214,0.925c-1.808,0.078-4.923,1.246-4.708-2.453
				c0.166-2.845,1.403-4.611,5.02-4.614c11.052-0.009,10.864-0.229,12.893-11.18c0.685-3.689-0.179-5.025-3.794-5.02
				c-1.463,0.002-2.921-0.53-4.391-0.599c-3.369-0.155-3.521-1.762-2.058-4.213c1.587,1.813,3.716,1.063,5.622,1.106
				c12.848,0.294,25.689,0.616,38.474,2.063l0.063,0.064c-0.031,1.431,0.084,2.772,1.903,3.048
				c0.021,3.627,0.042,7.254,0.063,10.882c-0.774,2.614-2.937,4.884-1.968,7.932c0.319,1.013,0.638,2.025,0.958,3.04
				C137.981,866.659,137.027,866.332,136.073,866.005z"/>
			<path fill="#E4BE8D" d="M374.029,1022.001c-0.347,1.957-0.692,3.914-1.041,5.87c0-0.001,0.014,0.295,0.014,0.293
				c-4.59,1.688-7.498,5.616-11.06,8.609c-2.5,2.103-6.431,3.101-6.911,7.209c-0.316,0.039-0.635,0.088-0.951,0.143
				c-1.936-0.343-3.104,1.165-4.334,2.094c-14.569,11.009-30.911,18.325-48.207,23.866c-4.493,1.438-9.43,1.401-13.536,4.069
				c-0.621,0.012-1.24,0.021-1.861,0.03c-4.066,0.443-8.225,0.507-12.17,1.453c-3.316,0.796-6.975-0.972-9.969,1.517
				c-1.954,0.01-3.908,0.021-5.863,0.028c-3.718,0.075-7.523-1.188-11.117,0.741c-2.012-0.209-3.922-1.262-6.022-0.722
				c-2.821-2.367-6.071-0.871-9.14-1.019c-0.626-0.003-1.253-0.006-1.879-0.011c-1.417-1.926-3.354-1.058-5.148-0.965
				c-0.611-0.001-1.223-0.001-1.833-0.003c-1.042-1.785-2.665-1.144-4.168-0.997c-0.61-0.02-1.222-0.036-1.832-0.058
				c-0.513-1.077-1.545-1.041-2.515-1.25c-9.358-2.021-18.434-4.939-27.388-8.337c-5.856-2.223-11.083-5.847-17.184-7.471
				c-0.3-0.059-0.602-0.099-0.905-0.122c-2.05-3.479-5.422-4.912-9.097-5.878c-0.292-0.063-0.585-0.112-0.882-0.149
				c-0.795-3.188-3.349-4.155-6.119-4.851c-0.299-0.058-0.6-0.098-0.901-0.121c-0.086-1.979-1.12-2.938-3.1-2.879
				c-0.291-0.063-0.583-0.112-0.879-0.149c-0.35-2.379-1.63-3.764-4.121-3.851c-3.394-2.618-6.799-5.224-9.055-8.987
				c0.099-3.533-4.747-4.625-4.146-8.4c4.27,2.342,6.033,7.667,10.976,9.195c0.457,0.467,0.914,0.932,1.371,1.396
				c0.214,0.255,0.428,0.511,0.641,0.766l0.206,0.252c0.271,0.261,0.542,0.521,0.814,0.78c0.413,0.351,0.825,0.698,1.238,1.047
				c0.302,0.308,0.604,0.613,0.905,0.919l0.059,0.078c0.066,1.788,1.366,1.961,2.714,2.069l0.271,0.135
				c0.31,0.242,0.618,0.484,0.927,0.728l0.08,0.098c0.07,1.753,1.354,1.93,2.675,2.059l0.313,0.158
				c0.321,0.229,0.644,0.456,0.964,0.684l0.057,0.065c0.1,1.91,1.471,1.98,2.884,1.993l0.083,0.084
				c0.124,1.716,1.394,1.894,2.705,2.017l0.24,0.156c0.333,1.668,1.616,1.753,2.942,1.767l0.097,0.09
				c0.563,2.221,2.638,2.843,4.252,3.854c13.453,8.438,28.284,13.667,43.521,17.521c7.714,1.951,15.63,4.193,23.848,2.993
				l0.361-0.152l0.375,0.116c0.046,0.24,0.093,0.481,0.14,0.723c0.135-0.243,0.271-0.486,0.405-0.729
				c0.389-0.017,0.775-0.032,1.163-0.048c0.359,1.128,1.243,1.492,2.306,1.495c7.472,0.016,14.942,0.018,22.414,0.013
				c1.047,0,1.967-0.285,2.422-1.365c1.633-0.17,3.266-0.341,4.897-0.512c1.531,1.549,3.508,1.051,5.205,0.788
				c5.715-0.885,11.459-1.762,17.045-3.207c2.697-0.698,6.127-0.208,7.916-3.286c19.79-5.658,37.695-15.069,53.941-27.585
				C360.973,1033.554,367.396,1027.64,374.029,1022.001z"/>
			<path fill="#E4BE8D" d="M139.945,856.015c-0.021-3.627-0.042-7.254-0.062-10.883c0.174-1.521-0.481-2.524-1.905-3.046
				l-0.063-0.064c-2.893-3.104-0.136-6.771-1-10.078c1.323-2.157,1.941-4.561,1.941-7.032c0.001-16.649-0.077-33.297-0.131-49.946
				c0.733-0.397,1.468-0.796,2.204-1.195c0.016,2.824,0.11,5.654,0.037,8.479c-0.486,18.771,1.077,37.495,1.211,56.262
				c0.124,17.347,1.332,34.729,3.004,52.005c1.068,11.032,1.297,22.102,2.396,33.116c0.149,1.508-0.012,3.945-1.971,3.976
				c-2.548,0.037-1.63-2.519-1.529-3.904c0.222-3.052,1.606-6.172-1.27-8.75c0.795-11.488-1.138-22.824-1.974-34.217
				c-0.266-3.608-2.601-4.796-6.236-4.777c-16.936,0.092-33.823,1.141-50.715,2.182c0.078-0.736,0.157-1.475,0.235-2.211
				c4.324-1.146,8.729-1.779,13.199-1.919c11.289-0.351,22.583-0.598,33.867-1.057c3.813-0.155,7.374-1.118,7.75-5.966
				c-0.318-1.014-0.638-2.026-0.957-3.039C139.473,861.512,142.5,859.456,139.945,856.015z"/>
			<path fill="#D0F096" d="M136.916,831.942c0.864,3.307-1.892,6.974,1,10.079c-12.785-1.447-25.627-1.77-38.475-2.063
				c-1.906-0.043-4.036,0.706-5.622-1.106c0.86-4.026,2.942-7.482,5.086-10.91c1.15,2.563,3.463,2.115,5.567,2.101
				C115.33,829.963,126.125,830.899,136.916,831.942z"/>
			<path fill="#D0F096" d="M138.935,866.986c-0.376,4.848-3.937,5.812-7.75,5.966c-11.284,0.459-22.578,0.706-33.867,1.057
				c-4.47,0.14-8.875,0.771-13.199,1.919c-0.414-2.899,0.363-4.714,3.708-5.119c1.942-0.234,3.85-0.856,5.851-0.752
				c12.883,0.679,25.703-1.098,38.569-0.982c2.216,0.02,4.048-0.172,3.824-3.068C137.027,866.332,137.981,866.659,138.935,866.986z"
				/>
			<path fill="#BAD4E4" d="M288.002,1074.155c4.106-2.668,9.043-2.631,13.536-4.07c17.296-5.541,33.638-12.856,48.207-23.866
				c1.229-0.929,2.398-2.437,4.334-2.094c-2.224,4.647-6.917,6.452-10.827,8.968c-16.161,10.395-33.723,17.523-52.523,21.569
				C289.699,1074.884,288.779,1075.046,288.002,1074.155z"/>
			<path fill="#BAD4E4" d="M169.914,1057.096c6.1,1.624,11.326,5.248,17.184,7.471c8.954,3.396,18.029,6.315,27.388,8.337
				c0.97,0.209,2.002,0.173,2.515,1.251c-0.743,0.865-1.749,0.971-2.729,0.729c-14.766-3.647-29.129-8.405-42.615-15.568
				C170.71,1058.811,170.051,1058.184,169.914,1057.096z"/>
			<path fill="#BAD4E4" d="M355.031,1043.982c0.48-4.108,4.411-5.106,6.911-7.208c3.562-2.994,6.47-6.923,11.06-8.61
				C368.439,1035.061,362.051,1039.88,355.031,1043.982z"/>
			<path fill="#BAD4E4" d="M264.002,1077.154c2.994-2.487,6.651-0.721,9.969-1.517c3.945-0.945,8.104-1.01,12.17-1.452
				c-0.727,2.763-3.293,1.974-4.932,2.115C275.494,1076.799,269.848,1079.403,264.002,1077.154z"/>
			<path fill="#BAD4E4" d="M130.704,1021.703c-0.596,3.78,4.25,4.871,4.151,8.405c-3.26-1.41-5.736-3.583-6.879-7.058
				c0.096-0.771,0.191-1.545,0.284-2.314C129.073,1021.061,129.888,1021.382,130.704,1021.703z"/>
			<path fill="#D0F096" d="M169.969,751.951c-2.929,2.667-6.26,4.662-10.001,5.968C161.615,753.104,165.667,752.316,169.969,751.951
				z"/>
			<path fill="#BAD4E4" d="M247.022,1077.925c3.594-1.93,7.399-0.666,11.117-0.741
				C254.634,1080.446,250.829,1079.2,247.022,1077.925z"/>
			<path fill="#BAD4E4" d="M159.912,1051.096c3.674,0.966,7.046,2.399,9.097,5.878
				C165.349,1055.985,161.951,1054.592,159.912,1051.096z"/>
			<path fill="#BAD4E4" d="M231.86,1076.186c3.068,0.146,6.318-1.35,9.14,1.019C237.823,1078.026,234.584,1079.414,231.86,1076.186z
				"/>
			<path fill="#BAD4E4" d="M152.912,1046.096c2.771,0.694,5.324,1.663,6.12,4.852
				C156.332,1050.162,153.762,1049.214,152.912,1046.096z"/>
			<path fill="#BAD4E4" d="M224.832,1075.21c1.794-0.093,3.732-0.961,5.148,0.965
				C227.984,1077.346,226.107,1077.879,224.832,1075.21z"/>
			<path fill="#BAD4E4" d="M143.91,1039.096c2.491,0.087,3.771,1.473,4.122,3.852C145.597,1042.799,144.38,1041.348,143.91,1039.096
				z"/>
			<path fill="#BAD4E4" d="M218.831,1074.21c1.503-0.146,3.125-0.788,4.168,0.997
				C221.237,1076.429,219.741,1076.544,218.831,1074.21z"/>
			<path fill="#BAD4E4" d="M148.91,1043.096c1.979-0.061,3.014,0.899,3.1,2.879C150.094,1045.965,149.144,1044.916,148.91,1043.096z
				"/>
			<path fill="#D0F096" d="M128.263,1020.734c-0.095,0.771-0.191,1.545-0.287,2.316c-1.049-0.771-1.049-1.894-1.013-3.027
				c0,0,0.198-0.187,0.196-0.185C127.527,1020.139,127.895,1020.438,128.263,1020.734z"/>
			<path fill="#E4BE8D" d="M350.961,762.061c0.332,0.327,0.664,0.654,0.995,0.981c-0.001,0-0.001-0.012-0.001-0.012
				c-0.324-0.319-0.65-0.639-0.977-0.957L350.961,762.061z"/>
			<path fill="#D0F096" d="M126.963,1020.023c-0.329-0.33-0.657-0.659-0.986-0.988c0,0,0.181-0.196,0.179-0.194
				c0.335,0.333,0.67,0.665,1.006,0.997L126.963,1020.023z"/>
			<path fill="#654027" d="M145.954,1035.145c-0.413-0.349-0.825-0.696-1.236-1.047c0.009-0.554-0.255-0.821-0.815-0.779
				c0,0-0.206-0.252-0.203-0.252c0.087-0.509-0.105-0.782-0.644-0.767c-0.457-0.466-0.914-0.931-1.367-1.395
				c-0.086-2.147,2.254-4.339-0.162-6.453c-1.945-1.703-2.354-4.008-1.954-6.368c0.354-2.082-0.823-3.027-2.225-3.982
				c-3.38-8.488-3.581-17.723-6.136-26.419c-0.534-1.816-0.302-3.514-2.783-3.854c-8.85-1.217-17.685-2.544-26.525-3.829
				c-0.677-0.463-1.647-0.86-1.503-1.794c0.201-1.293,1.167-0.607,1.914-0.497c8.028,1.186,16.096,2.155,24.071,3.618
				c3.161,0.58,3.881,0.056,3.217-3.043c-2.013-9.393-3.879-18.814-5.802-28.226c-0.17-4.366-2.36-8.604-0.84-13.082
				c2.466-3.041,5.757-2.084,8.796-1.616c9.619,1.479,19.288,3.264,28.874,4.195c15.674,1.525,31.271,3.586,46.875,5.548
				c10.791,1.357,21.712,1.985,32.328,4.6c2.155,0.531,1.99-0.878,2.257-2.192c0.358-1.758-1.178-4.147,1.627-5.132
				c1.322,1.911,1.421,3.964,0.653,6.091c-1.308,3.622-0.233,6.81,1.483,10.212c2.12-1.658,0.76-4.646,3.313-6.098
				c-0.408,5.141-0.781,9.85-1.154,14.558c-0.228,0.249-0.213,0.483,0.042,0.703c0.639,11.298,3.547,22.188,5.959,33.169
				c0.119,1.506-0.122,3.079,0.821,4.434c1.474,2.438,3.995,1.085,5.983,1.654c12.1,1.908,24.18,3.941,36.306,5.659
				c4.507,0.64,7.886,1.929,7.083,7.263c-0.479,3.188,1.124,4.055,3.739,4.459c4.734,0.734,9.438,1.692,14.184,2.328
				c6.279,0.842,12.59,1.461,18.886,2.177c-3.731-2.973-8.655-1.75-12.333-4.969c8.086,1.062,16.172,2.12,24.258,3.182
				c0.042-0.309,0.084-0.614,0.126-0.922c-7.189-1.322-14.38-2.646-21.57-3.968c0.08-0.448,0.16-0.898,0.24-1.349
				c3.854,0.541,7.712,1.035,11.555,1.637c4.726,0.739,9.44,1.259,14.197,0.312c1.035-0.206,2-0.604,2.076-1.776
				c0.081-1.249-0.95-1.71-1.945-1.857c-7.361-1.093-14.707-2.377-22.104-3.126c-11.209-1.137-22.229-3.473-33.424-4.77
				c-13.099-1.518-26.057-4.229-39.074-6.426c-0.455-0.85-2.299-1.275-0.829-2.714c2.038,1.456,4.472,0.367,6.633,1.032
				c1.579,1.314,3.428,0.702,5.188,0.72c12.605,1.994,25.219,3.952,37.813,6.005c3.184,0.52,4.829,0.557,5.582-3.764
				c0.919-5.274,0.195-7.849-5.292-8.963c-4.813-0.979-9.454-2.781-14.198-4.125c-1.729-0.488-3.251-1.052-3.022-3.203
				c0.332-3.121-1.549-2.934-3.72-2.789c-5.12,0.338-10.278,0.874-15.231-1.141c-1.209-1.082-2.418-2.164-3.627-3.247
				c-3.933-6.778-1.028-14.783-3.891-21.758c-0.099-0.235-0.072-0.766-0.07-0.766c4.876-0.433,1.408-4.439,2.738-6.371
				c2.125,0.388,1.026,5.682,4.985,3.277c2.915,2.991,7.771,1.563,9.699-2.777c0.627-1.41,0.094-3.967,3.001-3.426
				c-0.399,2.224-0.792,4.447-1.208,6.668c-1.455,7.788-2.918,8.437-9.748,4.268c-1.67-1.02-3.666-1.332-5.127-0.439
				c-1.468,0.896-0.896,2.57-0.41,4.35c0.818,2.991-0.28,6.589,3.322,8.5c0.033,0.018-0.047,0.248-0.065,0.339
				c-0.946,1.456-2.056-1.143-3.217,0.428c2.436,2.03,0.179,5.844,3.522,8.072c3.908,2.605,8.006,1.845,12.051,1.854
				c7.885,0.02,11.782-6.857,7.955-13.796c-3.012-5.462-5.732-10.962-3.911-17.467c0.831-2.965-0.854-3.14-3.013-2.925
				c-0.688-2.969,1.787-2.824,3.138-2.521c2.423,0.541,3.247,2.418,2.417,4.931c-2.219,6.714,0.701,12.343,3.936,17.865
				c0.414,0.706,0.856,2.108,2.123,0.741c2.202-2.376,4.625-0.888,6.921-0.295c4.091,1.058,7.719,3.62,12.167,3.794
				c0.003-3.384-4.876-6.146-0.45-11.313c1.393,11.908,9.312,15.225,18.515,17.144c1.749,0.363,3.784,1.063,4.72,3.506
				c-1.868,0.668-3.286,0.354-4.911-0.218c-9.894-3.476-20.313-5.329-29.945-9.604c-3.808-1.688-6.396-0.846-7.896,3.055
				c-0.769,2-1.539,4.006-2.172,6.052c-1.143,3.693-0.479,6.378,3.979,7.01c2.07,0.294,4.138,0.795,6.129,1.438
				c11.161,3.607,22.314,7.246,33.438,10.97c3.563,1.192,6.583,0.445,9.114-2.137c2.46-2.509,2.966-5.762,1.637-8.809
				c-6.752-15.479-13.42-31.008-20.711-46.235c-3.565-7.449-12.332-7.434-17.006-0.61c-1.491,2.177-1.491,2.177-4.367,2.772
				c0.835-4.647,3.56-7.725,7.688-9.93c-3.992-1.095-7.731-3.819-11.318,1.403c-0.424-2.764,1.463-4.334,0.347-6.176
				c-0.791-1.305-1.412-3.162-3.148-2.387c-1.4,0.625,1.503,0.979,0.703,2.229c-0.903,1.408-1.021,3.825-3.695,2.28
				c-2.918-1.265-3.555-3.894-3.701-6.875c-5.383,1.501-10.314,3.362-15.526,4.307c-10.084,1.825-10.064,1.928-11.026,11.977
				c-2.222-2.18-0.767-4.936-1.148-7.403c-0.164-1.048,0.408-2.662-1.421-2.547c-7.055,0.444-14.622-1.093-20.354,4.808
				c-0.964,0.992-1.925,1.125-3.108,0.981c0.902-5.21,4.793-7.854,12.509-8.305c-2.04-2.724-3.786-5.493-5.958-7.872
				c-7.608-8.332-10.022-18.395-10.623-29.299c-0.607-11.025,0.602-21.861,2.107-32.733c1.364-9.841,2.975-19.56,5.587-29.205
				c4.765-17.58,16.634-26.804,33.707-29.586c17.549-2.859,33.911,1.212,48.737,11.144c8.596,8.113,14.239,17.673,14.801,29.797
				c0.27,5.828-1.4,11.451-1.616,17.22c-1.437,1.7-1.524,3.838-1.903,5.882c-1.755,2.984-2.448,5.817-0.225,9.087
				c1.921,2.822,1.206,6.16,0.023,9.118c-3.729,9.324-8.996,17.109-20.237,17.89c-3.579,0.249-2.513,3.269-4.431,5.587
				c8.297-0.848,15.656-0.521,22.945,1.092c22.045,4.88,31.333,15.543,33.607,37.978c2.213,21.825-0.522,43.163-5.898,64.229
				c-1.098,4.3-0.643,6.13,4.011,6.236c1.388,0.032,4.258-0.589,2.896,2.74c-6.634,5.639-13.057,11.553-19.946,16.858
				c-16.247,12.516-34.151,21.928-53.941,27.584c-5.598,1.134-11.188,2.31-16.794,3.39c-4.442,0.854-9.091,0.521-13.372,2.317
				c-1.633,0.171-3.266,0.342-4.899,0.515c-9.042-0.988-18.09-0.721-27.14-0.146c-0.388,0.017-0.775,0.031-1.16,0.054
				c-0.18-0.069-0.364-0.07-0.548,0.002l-0.375-0.117c0,0-0.362,0.152-0.364,0.157c-0.64-1.171-1.72-1.382-2.94-1.488
				c-20.082-1.776-38.784-8.11-56.795-16.923c-3.982-1.948-7.325-5.184-11.883-5.961c0,0-0.096-0.09-0.095-0.092
				c-0.398-1.56-1.452-2.029-2.945-1.766c0,0-0.239-0.156-0.236-0.158c-0.2-1.614-1.303-2.019-2.708-2.015
				c0,0-0.083-0.084-0.082-0.084c-0.417-1.453-1.48-1.97-2.884-1.993c0,0-0.057-0.064-0.056-0.064
				c-0.056-0.604-0.36-0.854-0.965-0.685c0,0-0.313-0.157-0.312-0.159c-0.154-1.647-1.245-2.074-2.679-2.058
				c0,0-0.08-0.098-0.078-0.099c-0.033-0.596-0.288-0.906-0.928-0.727c0,0-0.271-0.135-0.269-0.137
				c-0.15-1.681-1.237-2.133-2.716-2.067c0,0-0.059-0.077-0.058-0.077C146.844,1035.476,146.575,1035.137,145.954,1035.145z
				 M284.882,908.814c-0.346-1.295-0.923-1.924-2.527-1.935c-7.913-0.057-15.798-0.512-23.255-3.576
				c-1.713-0.705-1.906,0.315-1.999,1.568c-3.245-0.063-1.929-4.816-5.099-4.955c-1.942,5.736,0.188,15.129,4.333,18.923
				c1.236,1.133,2.901,2.596,4.375,1.643c4.316-2.799,7.611-1.854,10.806,1.767c0.626,0.71,2.137,0.828,3.256,0.883
				c7.267,0.353,16.208-9.179,15.697-16.429C288.302,906.563,286.98,908.629,284.882,908.814z M264.035,896.034l-0.056-0.046
				c2.021,3.122,5.398,2.744,8.361,2.935c4.474,0.288,8.994-0.146,13.468,0.145c5.483,0.356,10.067,2.339,11.53,8.653
				c2.504-2.021,5.852-1.868,8.067-4.408c4.143-4.744,8.413-9.318,9.885-15.733c1.492-6.507,3.116-12.983,4.611-19.49
				c0.252-1.093,1.615-2.153,0.801-3.215c-4.335-5.659-1.973-11.634-1.023-17.552c0.81-5.058-1.302-11.825-4.622-13.346
				c-5.319-2.436-10.728-4.225-16.895-3.239c-8.396,1.341-16.998,3.211-24.939-1.995c-2.293-1.503-4.533-3.094-6.889-4.49
				c-3.133-1.857-9.488-0.824-11.187,1.896c-2.634,4.225-4.761,8.663-6.144,13.523c-3.568,12.546-3.559,25.606-5.707,38.359
				c-1.003,5.951-0.878,12.267,0.569,18.347c0.272,1.147,0.395,2.322,1.798,2.704c1.527,0.416,1.966-0.725,2.62-1.7
				c2.724-4.068,6.527-3.909,10.646-2.719C260.623,895.151,262.009,896.815,264.035,896.034z M164.923,942.094
				c-11.704-1.537-23.418-2.997-35.104-4.66c-3.729-0.529-5.502,0.398-4.642,4.408c0.02,0.828-0.083,1.681,0.076,2.479
				c3.973,20.069,7.965,40.136,11.972,60.198c1.825,9.136,2.296,9.341,11.532,10.636c19.43,2.726,38.83,5.671,58.244,8.511
				c14.64,2.142,29.27,4.355,43.931,6.341c5.663,0.767,6.253-0.024,5.181-5.473c-3.819-19.422-7.656-38.84-11.536-58.249
				c-3.312-16.563-2.149-14.154-18.489-16.331c-9.375-1.248-18.845-2.095-28.174-3.391
				C186.93,945.039,175.964,943.284,164.923,942.094z M302.705,926.427c1.72,0.96,4.038,1.454,4.697,2.777
				c1.75,3.509,4.723,4.235,8.012,4.97c2.414,0.541,4.702,1.633,7.107,2.229c6.828,1.691,11.046,5.896,13.868,12.358
				c6.311,14.45,13.211,28.644,19.055,43.303c0.466,1.17,0.624,2.871,2.423,2.663c1.537-0.177,2.677-0.954,3.013-2.788
				c3.368-18.395,4.984-36.902,0.946-55.316c-2.482-11.322-8.831-19.981-20.964-23.039c-7.381-1.859-14.839-1.707-22.33-1.414
				c-1.407,0.055-2.644,0.41-3.286,1.814C312.64,919.688,308.104,923.48,302.705,926.427z M321.403,901.02
				c8.729,0.015,19.507-13.859,17.332-21.885c-0.931-3.435-3.363-5.815-7.039-3.986c-5.121,2.548-9.977,5.685-11.45,11.906
				c-0.724,3.058-1.231,6.201-2.316,9.127C316.354,900.43,318.481,901.146,321.403,901.02z M301.015,1016.571
				c-2.125-1.38-3.825-1.207-5.438-1.451c-11.612-1.759-23.215-3.581-34.833-5.29c-1.709-0.252-4.396-2.201-4.991,0.4
				c-0.562,2.446,2.737,2.174,4.438,2.869c0.717,0.295,1.655-0.015,2.475,0.096c5.834,0.775,11.664,1.591,18.262,2.498
				c-1.688,1.653-2.922,1.884-4.182,2.184c-5.325,1.27-10.607,2.729-15.959,3.873c-2.543,0.545-2.582,1.779-2.187,3.934
				c0.503,2.739,1.782,2.456,3.869,1.851C275.05,1023.874,287.67,1020.35,301.015,1016.571z M202.663,1031.61
				c0.758-0.421,2.646,0.981,2.446-1.116c-0.164-1.737,0.491-4.055-2.598-4.495c-7.645-1.091-15.25-2.455-22.876-3.683
				c-1.259-0.202-2.339,0.05-2.515,1.614c-0.197,1.768-0.082,3.471,2.087,3.839C186.992,1029.09,194.788,1030.327,202.663,1031.61z
				 M231.557,1030.132c-1.051-0.105-2.542,0.155-2.582,2.527c-0.034,2.042,0.853,2.864,2.937,3.08
				c6.916,0.717,13.814,1.596,20.708,2.509c1.489,0.198,3.043,1.035,3.305-1.397c0.205-1.896-0.387-3.249-2.504-3.553
				C246.395,1032.291,239.372,1031.266,231.557,1030.132z M222.516,1035.129c1.466-1.063,4.129,1.105,4.355-2.14
				c0.182-2.604-0.933-4.001-3.557-4.322c-4.249-0.521-8.48-1.183-12.73-1.688c-1.438-0.171-3.17-0.452-3.408,1.754
				c-0.202,1.873,0.591,3.469,2.472,3.729C214.041,1033.067,218.406,1033.749,222.516,1035.129z M171.676,1026.959
				c1.368-0.064,3.205,0.692,3.17-1.826c-0.026-1.866,0.051-3.736-2.554-4.04c-3.123-0.365-6.225-0.926-9.351-1.265
				c-1.678-0.183-4.174-2.312-4.687,1.184c-0.402,2.745,1.364,4.289,4.05,4.674C165.425,1026.131,168.549,1026.531,171.676,1026.959
				z M156.346,1024.524c0.28-4.712-1.78-6.62-6.133-6.414c-1.274,0.061-2.573-0.458-3.864-0.693c-1.874-0.34-4.214-0.393-4.611,1.6
				c-0.345,1.729,1.647,3.229,3.43,3.623C148.829,1023.45,152.569,1023.909,156.346,1024.524z M273.48,1016.899
				c-0.053-0.239-0.104-0.479-0.158-0.717c-4.547-0.768-9.092-1.548-13.641-2.295c-1.928-0.315-3.508,0.025-2.818,2.495
				c0.488,1.75-0.654,5.137,3.028,4.332C264.48,1019.714,268.956,1018.195,273.48,1016.899z M350.801,1029.201
				c-2.065-0.196-4.131-0.395-6.196-0.59C346.553,1030.399,348.734,1029.811,350.801,1029.201z"/>
			<path fill="#BAD4E4" d="M271.089,953.871c-1.331,1.932,2.137,5.938-2.739,6.371c-0.002,0-0.027,0.528,0.07,0.766
				c2.861,6.975-0.042,14.979,3.891,21.758c-0.184,4.031-0.887,7.908,0.295,12.118c0.767,2.729,2.816,8.085-3.786,8.389
				c-2.16-0.666-4.595,0.424-6.633-1.032c-2.725-0.409-5.448-0.818-8.173-1.228c-2.412-10.979-5.32-21.871-5.958-33.167
				c4.349,0.284,8.736-0.395,13.078,0.447c-4.227-2.02-8.729-1.011-13.121-1.152c0.374-4.708,0.747-9.417,1.154-14.558
				c-2.553,1.45-1.192,4.438-3.313,6.098c-1.717-3.402-2.791-6.59-1.483-10.212c0.768-2.127,0.668-4.18-0.653-6.091
				c0.09-0.458,0.181-0.917,0.271-1.375c1.185,0.144,2.145,0.011,3.108-0.981c5.731-5.899,13.299-4.362,20.354-4.808
				c1.828-0.115,1.256,1.499,1.42,2.547c0.383,2.468-1.072,5.225,1.148,7.403C270.377,948.066,270.732,950.969,271.089,953.871z
				 M261.557,942.346c-2.072,4.717-1.609,8.281,4.313,9.342c0.279-1.221,0.555-3.639-0.315-3.452
				c-5.859,1.252-2.488-3.076-3.182-4.88c0.1-0.397,0.406-0.924,0.257-1.166C262.33,941.707,261.873,941.949,261.557,942.346z"/>
			<path fill="#E4BE8D" d="M101.903,979.999c8.841,1.285,17.676,2.612,26.525,3.829c2.481,0.341,2.249,2.037,2.783,3.854
				c2.555,8.696,2.755,17.931,6.133,26.417c-1.261-0.232-2.546-0.756-3.771-0.642c-3.232,0.302-6.347-2.693-9.614-0.307
				C114.407,1003.563,106.691,992.755,101.903,979.999z"/>
			<path fill="#9C9599" d="M122.96,936.977c-1.521,4.478,0.669,8.716,0.84,13.082c-8.819,2.101-17.649,4.153-26.448,6.333
				c-2.291,0.567-5.431,1.675-6.512-0.149c-1.777-2.995-2.89-6.694-2.484-10.396c0.167-1.518,1.854-1.569,3.184-1.86
				C102.021,941.686,112.488,939.32,122.96,936.977z"/>
			<path fill="#E4BE8D" d="M154.417,837.48c1.999,6.087,1.538,12.497,2.253,18.621c0.688,5.901,1.048,11.945,1.559,17.915
				c0.875,10.222,2.183,20.406,3.39,30.598c0.709,5.983,1.81,11.936,2.237,17.937c0.146,2.052,1.819,5.734-1.856,6.175
				c-3.985,0.478-3.401-3.791-3.662-5.903c-1.102-8.908-1.125-17.961-2.46-26.823c-1.549-10.272-1.892-20.674-2.371-30.929
				c-0.384-8.22-3.061-16.605-0.508-24.935C153.259,839.276,152.64,838.082,154.417,837.48z"/>
			<path fill="#9C9599" d="M123.958,1013.151c3.268-2.388,6.382,0.607,9.614,0.307c1.227-0.114,2.512,0.408,3.771,0.642
				c1.404,0.957,2.582,1.902,2.228,3.984c-0.399,2.36,0.009,4.665,1.954,6.368c2.416,2.114,0.076,4.306,0.162,6.453
				c-4.946-1.531-6.71-6.856-10.979-9.198c-0.82-0.325-1.636-0.646-2.448-0.971c-0.365-0.301-0.733-0.599-1.1-0.896
				c-0.334-0.334-0.669-0.666-1.003-0.999C125.424,1016.943,124.691,1015.048,123.958,1013.151z"/>
			<path fill="#E4BE8D" d="M155.049,830.586c-0.23,1.41,0.188,3.039-1.095,2.852c-2.351-0.343-2.606-2.602-2.868-4.518
				c-0.151-1.1-0.133-2.859,1.352-2.602C154.916,826.749,153.951,829.555,155.049,830.586z"/>
			<path fill="#9C9599" d="M341.337,868.045c0.378-2.044,0.467-4.182,1.902-5.882c18.742,1.957,37.484,3.896,56.224,5.875
				c5.757,0.607,11.494,1.387,17.255,1.966c3.152,0.317,4.192,2.275,4.441,5.04c-5.521,2.729-11.002,0.221-16.467-0.248
				c-8.362-0.717-16.704-1.714-25.037-2.734c-9.964-1.219-20.028-1.521-29.915-3.491
				C347.013,868.027,344.143,868.201,341.337,868.045z"/>
			<path fill="#D0F096" d="M350.979,762.073c0.325,0.318,0.651,0.638,0.977,0.957c0,24.955,0,49.909,0,76.063
				c-2.307-1.756-1.941-2.771-1.942-3.586c-0.024-23.091-0.027-46.183-0.002-69.273
				C350.013,764.802,349.531,763.195,350.979,762.073z"/>
			<path fill="#D0F096" d="M139.945,856.015c2.556,3.44-0.473,5.497-1.967,7.933C137.009,860.899,139.17,858.629,139.945,856.015z"
				/>
			<path fill="#D0F096" d="M137.979,842.085c1.424,0.521,2.079,1.524,1.905,3.046C138.063,844.857,137.948,843.517,137.979,842.085z
				"/>
			<path fill="#9C9599" d="M163.869,1048.242c4.557,0.777,7.899,4.013,11.882,5.961c18.011,8.813,36.713,15.146,56.795,16.923
				c1.221,0.107,2.301,0.317,2.94,1.488c-8.214,1.196-16.13-1.046-23.844-2.997c-15.237-3.854-30.068-9.083-43.521-17.521
				C166.507,1051.084,164.433,1050.462,163.869,1048.242z"/>
			<path fill="#9C9599" d="M269.975,1072.15c4.281-1.797,8.93-1.463,13.372-2.317c5.607-1.08,11.196-2.256,16.794-3.389
				c-1.789,3.079-5.219,2.589-7.916,3.286c-5.586,1.445-11.33,2.322-17.045,3.207
				C273.482,1073.201,271.506,1073.699,269.975,1072.15z"/>
			<path fill="#9C9599" d="M237.935,1072.52c9.05-0.574,18.099-0.843,27.141,0.146c-0.454,1.077-1.374,1.362-2.421,1.362
				c-7.472,0.005-14.942,0.003-22.415-0.013C239.178,1074.012,238.294,1073.646,237.935,1072.52z"/>
			<path fill="#9C9599" d="M160.83,1046.386c1.492-0.265,2.545,0.206,2.944,1.767
				C162.447,1048.139,161.163,1048.054,160.83,1046.386z"/>
			<path fill="#9C9599" d="M146.918,1036.142c1.479-0.064,2.565,0.388,2.716,2.067
				C148.284,1038.104,146.985,1037.93,146.918,1036.142z"/>
			<path fill="#9C9599" d="M150.91,1039.17c1.433-0.018,2.523,0.409,2.678,2.059C152.264,1041.1,150.98,1040.923,150.91,1039.17z"/>
			<path fill="#9C9599" d="M154.918,1042.136c1.403,0.023,2.468,0.54,2.884,1.993
				C156.39,1044.117,155.019,1044.046,154.918,1042.136z"/>
			<path fill="#9C9599" d="M157.885,1044.213c1.405-0.004,2.507,0.399,2.708,2.016
				C159.279,1046.105,158.008,1045.929,157.885,1044.213z"/>
			<path fill="#9C9599" d="M145.954,1035.145c0.621-0.008,0.89,0.332,0.906,0.92
				C146.559,1035.758,146.256,1035.451,145.954,1035.145z"/>
			<path fill="#9C9599" d="M143.902,1033.317c0.562-0.042,0.825,0.227,0.815,0.779
				C144.445,1033.838,144.174,1033.577,143.902,1033.317z"/>
			<path fill="#9C9599" d="M149.903,1038.346c0.641-0.181,0.896,0.131,0.928,0.727
				C150.521,1038.83,150.212,1038.588,149.903,1038.346z"/>
			<path fill="#9C9599" d="M143.055,1032.3c0.538-0.017,0.73,0.259,0.643,0.767C143.483,1032.811,143.269,1032.555,143.055,1032.3z"
				/>
			<path fill="#9C9599" d="M153.899,1041.387c0.604-0.17,0.909,0.081,0.965,0.685
				C154.542,1041.843,154.22,1041.615,153.899,1041.387z"/>
			<path fill="#9C9599" d="M236.227,1072.574c0.186-0.072,0.368-0.071,0.548-0.002c-0.139,0.236-0.273,0.479-0.408,0.724
				C236.32,1073.056,236.273,1072.814,236.227,1072.574z"/>
			<path fill="#9C9599" d="M164.923,942.094c11.041,1.19,22.007,2.945,32.991,4.471c9.329,1.295,18.798,2.142,28.174,3.39
				c16.34,2.177,15.179-0.231,18.489,16.331c3.88,19.409,7.716,38.827,11.536,58.249c1.072,5.446,0.482,6.237-5.181,5.473
				c-14.661-1.983-29.292-4.199-43.931-6.341c-19.414-2.84-38.813-5.785-58.244-8.511c-9.236-1.295-9.707-1.5-11.532-10.637
				c-4.007-20.063-7.999-40.128-11.972-60.197c-0.158-0.8-0.057-1.65-0.076-2.479c0.88-1.87,1.697-2.852,4.388-2.343
				c7.885,1.489,15.864,2.625,23.857,3.308C157.187,943.127,161.221,944.229,164.923,942.094z M199.145,992.672
				c-0.153-8.967-3.439-14.525-9.551-18.213c-7.565-4.565-14.811-0.334-14.738,8.459c0.058,6.834,3.263,12.096,8.627,16.077
				c3.232,2.396,6.892,3.614,10.733,1.637C198.047,998.659,199.25,995.1,199.145,992.672z"/>
			<path fill="#E4BE8D" d="M264.035,896.034c-2.026,0.781-3.412-0.883-5.103-1.372c-4.119-1.19-7.923-1.35-10.646,2.719
				c-0.654,0.978-1.093,2.116-2.62,1.7c-1.403-0.382-1.525-1.556-1.798-2.704c-1.447-6.081-1.572-12.396-0.569-18.347
				c2.149-12.753,2.139-25.813,5.707-38.359c1.382-4.86,3.51-9.299,6.144-13.523c1.697-2.721,8.054-3.755,11.187-1.896
				c2.354,1.396,4.596,2.987,6.889,4.49c7.941,5.206,16.543,3.335,24.939,1.995c6.167-0.984,11.574,0.805,16.895,3.239
				c3.32,1.521,5.432,8.289,4.622,13.346c-0.948,5.917-3.312,11.893,1.023,17.552c0.814,1.063-0.549,2.122-0.801,3.215
				c-1.495,6.506-3.119,12.983-4.61,19.49c-1.473,6.416-5.743,10.989-9.886,15.734c-2.217,2.539-5.563,2.388-8.067,4.407
				c-1.463-6.313-6.047-8.297-11.53-8.653c-4.474-0.291-8.994,0.144-13.468-0.145c-2.963-0.19-6.34,0.188-8.361-2.935
				c2.095-0.17,4.188-0.341,6.144-0.5c-2.326-1.062-5.588-0.633-7.139-3.6c-1.537-2.946,0.453-5.633,0.864-8.719
				c-5.59,6.046-5.586,6.042-0.502,11.659C263.65,895.164,263.81,895.629,264.035,896.034z M283.146,870.116
				c-1.479-0.222-1.931,0.805-1.967,1.9c-0.036,1.063,0.984,0.96,1.736,1.032c0.762,0.723,1.522,1.443,2.285,2.165
				c4.017,1.637,8.224,2.396,12.526,2.7c1.626,0.219,3.076-0.368,4.518-0.988c1.523-0.268,3.106-0.66,2.86-2.634
				c-0.33-2.64-1.825-4.733-4.397-5.408c-4.433-1.163-8.95-2.013-13.454-2.887c-3.557-0.689-4.742,0.886-3.758,4.277
				L283.146,870.116z M249.082,865.958c-1.174,1.43,0.203,1.889,0.979,2.577l-0.021-0.136c3.5,3.352,8.387,2.174,12.417,3.795
				c2.83,0.737,3.864-1.708,5.494-3.1c1.707-2.744,2.179-5.602-1.535-6.647c-4.238-1.194-8.689-1.779-13.09-2.188
				c-2.44-0.227-4.321,1.52-5.464,3.638c-0.566,1.053-0.88,2.551,1.35,2.109L249.082,865.958z M289.793,859.771
				c5.33-0.589,9.807,0.709,13.741,3.959c0.802,0.661,1.911,1.959,2.948,0.614c0.888-1.149-0.332-2.168-1.095-2.953
				c-4.072-4.193-9.115-5.986-14.884-5.485c-2.289,0.198-6.2-0.714-6.102,2.46C284.504,861.55,288.137,859.067,289.793,859.771z
				 M258.3,849.619c-2.842,0.224-5.591,0.762-7.99,2.431c-0.689,0.48-1.416,1.062-1.118,2.001c0.348,1.094,1.333,0.861,2.048,0.542
				c5.548-2.476,10.666-1.321,15.628,1.667c0.961,0.579,2.203,1.353,2.92-0.24c0.569-1.27-0.307-2.202-1.291-2.928
				C265.465,850.861,262.059,849.717,258.3,849.619z M263.99,881.48c1.906-1.382,2.505-3.067,1.825-5.171
				C265.207,878.034,264.598,879.757,263.99,881.48z"/>
			<path fill="#BAD4E4" d="M300.275,935.757c2.675,1.545,2.792-0.872,3.695-2.28c0.8-1.25-2.104-1.604-0.703-2.229
				c1.737-0.775,2.358,1.082,3.148,2.387c1.116,1.842-0.771,3.412-0.347,6.177c3.587-5.225,7.326-2.5,11.318-1.404
				c-4.13,2.205-6.854,5.281-7.688,9.93c2.876-0.597,2.876-0.597,4.367-2.772c4.674-6.822,13.439-6.839,17.006,0.61
				c7.291,15.229,13.959,30.756,20.711,46.235c1.329,3.047,0.823,6.3-1.637,8.809c-2.531,2.582-5.551,3.329-9.114,2.137
				c-11.124-3.724-22.276-7.361-33.438-10.97c-1.991-0.645-4.059-1.146-6.129-1.438c-4.459-0.632-5.121-3.315-3.979-7.009
				c0.633-2.047,1.403-4.053,2.172-6.053c1.5-3.899,4.088-4.742,7.896-3.055c9.632,4.273,20.053,6.128,29.945,9.604
				c1.625,0.571,3.043,0.886,4.911,0.218c-0.936-2.443-2.971-3.143-4.72-3.506c-9.203-1.919-17.122-5.234-18.515-17.144
				c-4.426,5.167,0.454,7.929,0.451,11.313c-4.449-0.174-8.077-2.736-12.168-3.793c-2.296-0.594-4.719-2.082-6.921,0.294
				c-1.267,1.367-1.709-0.035-2.123-0.741c-3.233-5.522-6.153-11.151-3.936-17.865c0.83-2.513,0.006-4.39-2.417-4.931
				c-1.351-0.304-3.826-0.447-3.138,2.521l-0.153,0.147c-2.904-0.54-2.372,2.017-2.999,3.427c-1.928,4.34-6.784,5.77-9.699,2.777
				c-0.001,0-0.037-0.103-0.037-0.103c0.405-0.048,0.813-0.095,1.22-0.143c-0.07-0.29-0.139-0.579-0.209-0.868l-0.012,0.011
				c0.409-0.047,0.817-0.095,1.228-0.143c-0.071-0.29-0.142-0.581-0.214-0.872l-0.032,0.024c1.313,0.927,1.665-0.039,2.007-1.021
				l0.002-0.002c0.688,0.017,1.039-0.301,1.006-1.005l-0.001,0.001c0.705,0.041,1.065-0.265,0.999-0.997l0.012-0.015
				c1.339-0.446,2.128-1.117,1.035-2.552C289.795,946.137,294.91,940.789,300.275,935.757z"/>
			<path fill="#9C9599" d="M302.705,926.427c5.398-2.945,9.935-6.739,12.541-12.441c0.644-1.404,1.88-1.761,3.286-1.814
				c7.491-0.293,14.949-0.445,22.33,1.414c12.133,3.058,18.48,11.717,20.964,23.039c4.038,18.414,2.422,36.923-0.946,55.317
				c-0.336,1.833-1.476,2.61-3.013,2.787c-1.799,0.209-1.957-1.493-2.423-2.663c-5.844-14.659-12.744-28.853-19.055-43.303
				c-2.822-6.464-7.04-10.667-13.868-12.358c-2.405-0.598-4.693-1.688-7.107-2.229c-3.288-0.733-6.262-1.461-8.012-4.97
				C306.743,927.881,304.425,927.387,302.705,926.427z"/>
			<path fill="#BAD4E4" d="M275.938,986.013c4.953,2.015,10.111,1.479,15.231,1.141c2.171-0.145,4.052-0.332,3.72,2.789
				c-0.229,2.151,1.295,2.715,3.022,3.204c4.744,1.343,9.387,3.146,14.198,4.123c5.487,1.115,6.211,3.688,5.292,8.964
				c-0.753,4.319-2.398,4.282-5.582,3.764c-12.596-2.053-25.208-4.011-37.813-6.005
				C274.167,997.947,273.531,991.816,275.938,986.013z"/>
			<path fill="#9C9599" d="M263.016,1004.953c13.02,2.195,25.978,4.908,39.074,6.426c11.194,1.297,22.215,3.633,33.424,4.77
				c7.397,0.749,14.743,2.033,22.104,3.126c0.995,0.147,2.026,0.608,1.945,1.857c-0.076,1.173-1.041,1.57-2.076,1.776
				c-4.757,0.947-9.473,0.429-14.196-0.312c-3.844-0.602-7.702-1.096-11.556-1.637c-0.08,0.449-0.16,0.899-0.24,1.349
				c7.19,1.322,14.381,2.646,21.57,3.968c-0.042,0.308-0.084,0.613-0.126,0.922c-8.086-1.062-16.172-2.12-24.258-3.182
				c3.678,3.219,8.602,1.996,12.333,4.969c-6.296-0.716-12.605-1.335-18.886-2.177c-4.746-0.636-9.448-1.594-14.184-2.328
				c-2.614-0.404-4.218-1.271-3.738-4.459c0.802-5.334-2.577-6.623-7.084-7.263c-12.126-1.718-24.206-3.751-36.305-5.659
				c1.153-0.194,2.23-0.468,2.084-2.01L263.016,1004.953z M328.967,1021.141c-1.533-1.377-2.704-1.313-4.34-0.692
				C326.096,1021.024,327.087,1021.869,328.967,1021.141z"/>
			<path fill="#E4BE8D" d="M288.926,950.797c2.157-0.215,3.844-0.04,3.013,2.925c-1.82,6.505,0.899,12.005,3.911,17.466
				c3.827,6.938-0.07,13.815-7.955,13.797c-4.045-0.011-8.143,0.751-12.051-1.854c-3.345-2.229-1.088-6.042-3.522-8.072
				c1.161-1.569,2.271,1.028,3.217-0.428c0.02-0.091,0.1-0.321,0.065-0.339c-3.604-1.911-2.504-5.509-3.321-8.5
				c-0.485-1.778-1.059-3.454,0.409-4.35c1.461-0.893,3.457-0.579,5.127,0.439c6.83,4.169,8.293,3.521,9.748-4.268
				c0.416-2.221,0.809-4.444,1.208-6.668C288.772,950.944,288.926,950.797,288.926,950.797z"/>
			<path fill="#E4BE8D" d="M300.275,935.757c-5.364,5.032-10.479,10.38-17.2,13.713c-0.253,0.889-2.104,1.126-1.034,2.552
				l-0.012,0.014c-0.411,0.045-0.824,0.09-1.237,0.135c0.08,0.288,0.16,0.575,0.238,0.862l0.002-0.001
				c-0.358-0.019-0.718-0.035-1.076-0.053c0.022,0.353,0.047,0.705,0.069,1.058c0,0-0.002,0.002-0.001,0.001
				c-1.34-0.977-1.707-0.043-2.008,1.021l0.032-0.024c-0.729-0.053-1.094,0.26-1.014,1.015l0.012-0.011
				c-0.758-0.085-1.097,0.251-1.011,1.011c0,0,0.037,0.103,0.038,0.103c-3.959,2.403-2.861-2.891-4.986-3.277
				c-0.355-2.902-0.711-5.805-1.067-8.707c0.962-10.049,0.942-10.15,11.026-11.977c5.212-0.943,10.145-2.806,15.527-4.307
				C296.721,931.863,297.357,934.492,300.275,935.757z"/>
			<path fill="#E4BE8D" d="M321.403,901.02c-2.922,0.128-5.05-0.59-3.475-4.837c1.085-2.927,1.594-6.07,2.316-9.127
				c1.475-6.222,6.329-9.358,11.45-11.906c3.676-1.829,6.108,0.552,7.039,3.986C340.909,887.16,330.133,901.033,321.403,901.02z
				 M328.135,882.127c4.916-0.122,2.042,4.046,3.298,5.977c3.363-3.063-1.108-6.731,0.954-9.979
				c-2.038,0.783-3.765,1.643-4.631,3.594c-1.776,0.678-2.514,1.979-2.303,4.033C326.573,884.602,327.784,883.702,328.135,882.127z
				 M335.445,877.564c-0.11-0.086-0.23-0.25-0.332-0.238c-0.265,0.029-0.521,0.135-0.778,0.211c0.108,0.088,0.227,0.258,0.324,0.248
				C334.927,877.756,335.186,877.651,335.445,877.564z"/>
			<path fill="#E4BE8D" d="M284.879,908.815c2.102-0.188,3.423-2.253,5.59-2.111c0.511,7.25-8.432,16.78-15.697,16.429
				c-1.119-0.055-2.63-0.173-3.256-0.883c-3.193-3.621-6.488-4.564-10.806-1.767c-1.474,0.953-3.139-0.51-4.375-1.643
				c-4.145-3.794-6.275-13.188-4.333-18.923c3.17,0.138,1.854,4.892,5.099,4.955L257.068,905c-1.424,0.768-0.393,1.726-0.061,2.443
				c3.451,7.465,17.795,10.68,24.734,5.474c1.32-0.991,3.307-1.703,3.194-3.958L284.879,908.815z"/>
			<path fill="#9C9599" d="M301.015,1016.571c-13.345,3.777-25.965,7.303-38.546,10.962c-2.087,0.605-3.366,0.89-3.869-1.851
				c-0.396-2.153-0.356-3.389,2.187-3.934c5.352-1.146,10.634-2.604,15.959-3.873c1.26-0.3,2.493-0.529,4.182-2.184
				c-6.598-0.907-12.428-1.723-18.262-2.498c-0.818-0.109-1.758,0.198-2.475-0.096c-1.699-0.695-4.998-0.423-4.438-2.87
				c0.596-2.602,3.282-0.651,4.991-0.399c11.619,1.709,23.221,3.531,34.833,5.29C297.189,1015.364,298.89,1015.191,301.015,1016.571
				z"/>
			<path fill="#9C9599" d="M202.663,1031.61c-7.875-1.283-15.671-2.521-23.454-3.841c-2.169-0.368-2.285-2.071-2.087-3.839
				c0.175-1.564,1.256-1.816,2.515-1.614c7.626,1.228,15.231,2.592,22.876,3.683c3.089,0.44,2.434,2.758,2.598,4.495
				C205.309,1032.593,203.421,1031.189,202.663,1031.61z"/>
			<path fill="#9C9599" d="M231.557,1030.132c7.814,1.134,14.837,2.159,21.863,3.166c2.117,0.304,2.709,1.656,2.504,3.553
				c-0.262,2.434-1.814,1.597-3.305,1.397c-6.894-0.913-13.792-1.792-20.708-2.509c-2.084-0.216-2.971-1.038-2.937-3.08
				C229.015,1030.287,230.506,1030.025,231.557,1030.132z"/>
			<path fill="#9C9599" d="M222.516,1035.129c-4.11-1.38-8.475-2.062-12.869-2.669c-1.881-0.26-2.673-1.854-2.472-3.729
				c0.238-2.206,1.971-1.925,3.408-1.753c4.25,0.506,8.481,1.168,12.73,1.688c2.625,0.321,3.738,1.719,3.557,4.322
				C226.645,1036.234,223.982,1034.064,222.516,1035.129z"/>
			<path fill="#9C9599" d="M171.674,1026.955c-3.125-0.424-6.249-0.824-9.367-1.271c-2.687-0.385-4.452-1.929-4.05-4.674
				c0.512-3.494,3.009-1.365,4.687-1.184c3.125,0.339,6.228,0.898,9.351,1.265c2.604,0.304,2.527,2.174,2.554,4.04
				C174.881,1027.651,173.044,1026.895,171.674,1026.955z"/>
			<path fill="#BAD4E4" d="M164.923,942.094c-3.702,2.135-7.736,1.033-11.5,0.713c-7.993-0.683-15.974-1.817-23.857-3.308
				c-2.69-0.509-3.508,0.473-4.388,2.343c-0.86-4.01,0.911-4.938,4.642-4.408C141.505,939.097,153.219,940.557,164.923,942.094z"/>
			<path fill="#BAD4E4" d="M257.101,904.873c0.093-1.253,0.286-2.273,1.999-1.568c7.457,3.064,15.342,3.521,23.255,3.576
				c1.604,0.011,2.183,0.639,2.525,1.935c-0.001,0.001,0.058,0.145,0.058,0.146c-9.646,1.192-19.044,0.626-27.869-3.96
				L257.101,904.873z"/>
			<path fill="#9C9599" d="M156.346,1024.524c-3.777-0.615-7.517-1.074-11.179-1.886c-1.782-0.395-3.773-1.894-3.43-3.623
				c0.397-1.991,2.738-1.938,4.611-1.6c1.291,0.235,2.59,0.754,3.864,0.693C154.566,1017.904,156.625,1019.813,156.346,1024.524z"/>
			<path fill="#9C9599" d="M273.48,1016.899c-4.523,1.296-9,2.813-13.589,3.815c-3.684,0.805-2.54-2.582-3.028-4.332
				c-0.688-2.47,0.892-2.812,2.818-2.495c4.549,0.747,9.094,1.527,13.641,2.295C273.375,1016.422,273.428,1016.66,273.48,1016.899z"
				/>
			<path fill="#9C9599" d="M275.938,986.013c-2.406,5.805-1.771,11.936-1.932,17.979c-1.76-0.018-3.607,0.596-5.188-0.72
				c6.604-0.304,4.553-5.66,3.786-8.389c-1.182-4.21-0.479-8.087-0.295-12.118C273.52,983.849,274.729,984.931,275.938,986.013z"/>
			<path fill="#9C9599" d="M254.014,1001.013c2.725,0.408,5.448,0.817,8.173,1.228c-1.47,1.438,0.374,1.863,0.829,2.714
				c0,0-0.111,0.138-0.109,0.138c-2.677,0.438-5.521-2.932-8.07,0.354C253.892,1004.092,254.133,1002.519,254.014,1001.013z"/>
			<path fill="#E4BE8D" d="M254.835,1005.445c2.551-3.286,5.395,0.082,8.069-0.354c0.146,1.542-0.932,1.814-2.085,2.01
				C258.83,1006.53,256.309,1007.883,254.835,1005.445z"/>
			<path fill="#FEFEFE" d="M248.012,967.141c4.392,0.143,8.895-0.865,13.121,1.152c-4.342-0.842-8.729-0.163-13.078-0.447
				C247.799,967.624,247.785,967.39,248.012,967.141z"/>
			<path fill="#9C9599" d="M350.801,1029.201c-2.066,0.607-4.248,1.198-6.196-0.59
				C346.67,1028.808,348.735,1029.005,350.801,1029.201z"/>
			<path fill="#654027" d="M262.372,943.355c0.691,1.803-2.68,6.131,3.181,4.879c0.87-0.187,0.596,2.231,0.315,3.453
				c-5.922-1.062-6.385-4.625-4.313-9.343C261.828,942.684,262.101,943.02,262.372,943.355z"/>
			<path fill="#654027" d="M261.557,942.346c0.316-0.396,0.773-0.639,1.071-0.156c0.149,0.242-0.157,0.769-0.257,1.167
				C262.101,943.02,261.828,942.684,261.557,942.346z"/>
			<path fill="#FEFEFE" d="M199.145,992.672c0.105,2.428-1.098,5.987-4.929,7.96c-3.842,1.979-7.5,0.761-10.733-1.637
				c-5.364-3.981-8.569-9.243-8.627-16.077c-0.071-8.793,7.173-13.024,14.738-8.459
				C195.705,978.146,198.991,983.705,199.145,992.672z"/>
			<path fill="#654027" d="M283.496,870.275c-0.984-3.393,0.201-4.967,3.758-4.277c4.504,0.874,9.021,1.724,13.455,2.887
				c2.571,0.676,4.066,2.769,4.396,5.408c0.246,1.975-1.337,2.366-2.86,2.635c0.76-2.609,0.467-4.744-3.52-6.104
				c1.515,3.033-1.272,4.609-0.998,7.091c-4.304-0.305-8.511-1.063-12.527-2.699c1.128-0.909,3.502,1.37,3.852-1.485
				c0.185-1.509,0.945-3.818,0.278-4.378c-1.403-1.181-3.394-0.551-4.896,0.781C284.236,870.309,283.814,870.233,283.496,870.275z"
				/>
			<path fill="#654027" d="M262.457,872.193c-4.029-1.621-8.916-0.443-12.415-3.795c0.638,0.15,1.298,0.49,1.907,0.416
				c1.256-0.154,3.477,1.279,3.516-0.945c0.028-1.539,1.49-3.602,0.057-4.542c-1.364-0.896-3.54-0.914-4.98,0.708
				c-0.522,0.587-0.891,1.311-1.328,1.972c-2.229,0.441-1.916-1.058-1.35-2.109c1.143-2.119,3.022-3.864,5.464-3.638
				c4.399,0.408,8.852,0.993,13.09,2.188c3.714,1.047,3.242,3.903,1.536,6.647c-1.878-0.765-0.813-4.049-3.861-4.138
				C265.753,867.93,261.563,869.364,262.457,872.193z"/>
			<path fill="#654027" d="M289.793,859.771c-1.656-0.705-5.289,1.778-5.39-1.405c-0.1-3.174,3.813-2.261,6.102-2.46
				c5.769-0.501,10.812,1.292,14.884,5.485c0.763,0.784,1.981,1.804,1.095,2.953c-1.037,1.345-2.146,0.047-2.948-0.614
				C299.6,860.481,295.123,859.183,289.793,859.771z"/>
			<path fill="#654027" d="M258.299,849.621c3.76,0.097,7.166,1.241,10.197,3.471c0.984,0.726,1.86,1.658,1.291,2.928
				c-0.717,1.593-1.959,0.819-2.92,0.24c-4.962-2.989-10.08-4.143-15.628-1.667c-0.716,0.319-1.701,0.552-2.048-0.542
				c-0.298-0.939,0.429-1.521,1.118-2.001C252.709,850.381,255.458,849.843,258.299,849.621z"/>
			<path fill="#654027" d="M264.035,896.034c-0.227-0.405-0.386-0.871-0.688-1.206c-5.084-5.616-5.088-5.612,0.502-11.659
				c-0.411,3.086-2.402,5.772-0.864,8.719c1.551,2.966,4.813,2.538,7.139,3.6c-1.954,0.159-4.049,0.33-6.144,0.5
				C263.98,895.988,264.035,896.034,264.035,896.034z"/>
			<path fill="#FEFEFE" d="M249.212,866.006c0.438-0.661,0.806-1.385,1.328-1.972c1.44-1.622,3.615-1.604,4.98-0.708
				c1.435,0.941-0.027,3.004-0.057,4.542c-0.039,2.226-2.26,0.791-3.517,0.944c-0.608,0.075-1.27-0.265-1.906-0.416
				c-0.001,0,0.019,0.137,0.019,0.137c-0.06-0.96,0.482-2.149-0.979-2.577L249.212,866.006z"/>
			<path fill="#FEFEFE" d="M283.496,870.275c0.317-0.042,0.739,0.033,0.938-0.144c1.502-1.333,3.491-1.962,4.896-0.782
				c0.667,0.561-0.095,2.87-0.278,4.379c-0.35,2.855-2.724,0.576-3.852,1.485c-0.762-0.722-1.522-1.443-2.284-2.166
				c-0.099-0.992,1.342-1.862,0.229-2.933L283.496,870.275z"/>
			<path fill="#BAD4E4" d="M262.457,872.193c-0.896-2.83,3.296-4.264,1.634-7.237c3.048,0.089,1.983,3.373,3.861,4.138
				C266.322,870.485,265.287,872.931,262.457,872.193z"/>
			<path fill="#FEFEFE" d="M297.729,877.914c-0.274-2.481,2.513-4.058,0.998-7.091c3.985,1.36,4.278,3.494,3.52,6.104
				C300.805,877.546,299.354,878.133,297.729,877.914z"/>
			<path fill="#654027" d="M263.99,881.48c0.607-1.725,1.218-3.447,1.825-5.171C266.494,878.413,265.896,880.099,263.99,881.48z"/>
			<path fill="#654027" d="M283.146,870.116c1.111,1.069-0.328,1.94-0.229,2.933c-0.752-0.07-1.772,0.031-1.736-1.032
				C281.216,870.921,281.668,869.895,283.146,870.116z"/>
			<path fill="#654027" d="M249.082,865.958c1.462,0.427,0.919,1.616,0.979,2.577C249.284,867.847,247.907,867.387,249.082,865.958z
				"/>
			<path fill="#654027" d="M282.04,952.021c-1.07-1.426,0.781-1.663,1.034-2.552C284.168,950.902,283.379,951.573,282.04,952.021z"
				/>
			<path fill="#654027" d="M278.017,955.058c0.301-1.063,0.668-1.998,2.008-1.021C279.682,955.019,279.33,955.983,278.017,955.058z"
				/>
			<path fill="#654027" d="M277.035,956.047c-0.08-0.755,0.283-1.066,1.014-1.015c0.072,0.291,0.143,0.582,0.214,0.872
				C277.854,955.952,277.445,956,277.035,956.047z"/>
			<path fill="#654027" d="M276.036,957.047c-0.086-0.76,0.253-1.096,1.011-1.011c0.07,0.289,0.139,0.578,0.209,0.868
				C276.85,956.952,276.442,956.999,276.036,957.047z"/>
			<path fill="#654027" d="M281.03,953.031c-0.078-0.287-0.158-0.574-0.238-0.862c0.413-0.045,0.826-0.09,1.237-0.135
				C282.096,952.768,281.735,953.072,281.03,953.031z"/>
			<path fill="#654027" d="M280.025,954.035c-0.022-0.354-0.047-0.705-0.069-1.059c0.358,0.019,0.718,0.035,1.075,0.054
				C281.064,953.734,280.713,954.052,280.025,954.035z"/>
			<path fill="#654027" d="M328.967,1021.141c-1.88,0.729-2.871-0.115-4.34-0.692
				C326.263,1019.828,327.434,1019.764,328.967,1021.141z"/>
			<path fill="#654027" d="M327.752,881.715c0.87-1.947,2.597-2.807,4.635-3.59c-2.063,3.247,2.409,6.916-0.954,9.979
				c-1.256-1.931,1.618-6.098-3.298-5.977C328.001,881.996,327.872,881.858,327.752,881.715z"/>
			<path fill="#654027" d="M328.135,882.127c-0.351,1.574-1.562,2.474-2.682,3.625c-0.211-2.054,0.525-3.354,2.301-4.035
				C327.872,881.858,328.001,881.996,328.135,882.127z"/>
			<path fill="#654027" d="M335.447,877.57c-0.262,0.081-0.521,0.186-0.788,0.214c-0.099,0.011-0.216-0.16-0.324-0.248
				c0.259-0.076,0.515-0.183,0.778-0.211C335.214,877.315,335.334,877.479,335.447,877.57z"/>
			<path fill="#654027" d="M257.068,905c8.825,4.586,18.224,5.152,27.869,3.96c0.111,2.254-1.874,2.966-3.194,3.957
				c-6.939,5.206-21.283,1.991-24.734-5.474C256.676,906.726,255.645,905.768,257.068,905z"/>
		</g>
	</g>
</g>
<g>
	<path fill="#848484" d="M100.667,777.523v15.945c0,4.067,3.298,7.366,7.367,7.366h88.405c4.069,0,7.367-3.299,7.367-7.366v-29.124
		l-1.504-0.386L100.667,777.523z"/>
</g>
<g>
	<polygon fill="#769186" points="100.667,709.821 100.667,737.874 202.302,763.959 203.805,763.758 203.805,736.292 	"/>
</g>
<g>
	<polygon fill="#696969" points="100.667,737.874 100.667,777.523 202.302,763.959 	"/>
</g>
<g>
	<polygon fill="#B5C9C0" points="100.667,677.493 100.667,707.188 203.805,693.42 203.805,664.313 202.302,663.928 	"/>
</g>
<g>
	<polygon fill="#8CAA9D" points="203.805,693.42 100.667,707.188 100.667,709.821 203.805,736.292 	"/>
</g>
<g>
	<polygon fill="#A7D1BD" points="100.667,637.843 100.667,677.493 202.302,663.928 	"/>
</g>
<g>
	<path fill="#B3E2CA" d="M196.439,606.835h-88.405c-4.068,0-7.367,3.298-7.367,7.368v23.64l101.635,26.085l1.504-0.202v-49.523
		C203.805,610.133,200.508,606.835,196.439,606.835z"/>
</g>
<g>
	<path fill="#FFFFFF" d="M196.439,606.835h-88.405c-4.068,0-7.367,3.298-7.367,7.368v3.022h103.139v-3.022
		C203.805,610.133,200.508,606.835,196.439,606.835z"/>
</g>
<g>
	<g>
		<path d="M196.439,801.835h-88.405c-4.613,0-8.367-3.753-8.367-8.366V614.203c0-4.614,3.753-8.368,8.367-8.368h88.405
			c4.613,0,8.367,3.754,8.367,8.368v179.266C204.805,798.082,201.052,801.835,196.439,801.835z M108.033,607.835
			c-3.511,0-6.367,2.857-6.367,6.368v179.266c0,3.511,2.856,6.366,6.367,6.366h88.405c3.511,0,6.367-2.855,6.367-6.366V614.203
			c0-3.511-2.856-6.368-6.367-6.368H108.033z"/>
	</g>
</g>
<g>
	<g>
		<path d="M111.236,615.531v0.61h-3.419c-0.005-0.153,0.02-0.3,0.074-0.441c0.087-0.232,0.227-0.461,0.418-0.688
			c0.191-0.226,0.469-0.487,0.831-0.783c0.563-0.461,0.942-0.826,1.14-1.096c0.198-0.269,0.296-0.523,0.296-0.764
			c0-0.252-0.09-0.464-0.27-0.637c-0.18-0.173-0.414-0.26-0.704-0.26c-0.306,0-0.55,0.092-0.734,0.276s-0.277,0.437-0.279,0.762
			l-0.652-0.067c0.044-0.486,0.212-0.858,0.504-1.113c0.292-0.255,0.684-0.383,1.176-0.383c0.496,0,0.889,0.138,1.178,0.414
			c0.289,0.275,0.434,0.616,0.434,1.023c0,0.206-0.042,0.41-0.127,0.61c-0.084,0.2-0.225,0.411-0.422,0.631
			c-0.196,0.222-0.522,0.524-0.979,0.911c-0.381,0.32-0.626,0.537-0.734,0.65c-0.108,0.114-0.198,0.229-0.269,0.344H111.236z"/>
	</g>
	<g>
		<path d="M111.92,614.776l0.635-0.084c0.073,0.36,0.197,0.619,0.372,0.778c0.175,0.159,0.389,0.239,0.64,0.239
			c0.299,0,0.552-0.104,0.757-0.311c0.206-0.207,0.309-0.463,0.309-0.77c0-0.292-0.095-0.532-0.286-0.722
			c-0.19-0.189-0.433-0.284-0.727-0.284c-0.12,0-0.27,0.024-0.448,0.07l0.07-0.557c0.042,0.005,0.077,0.007,0.103,0.007
			c0.271,0,0.514-0.071,0.73-0.212c0.217-0.142,0.325-0.359,0.325-0.653c0-0.232-0.079-0.425-0.237-0.578
			c-0.158-0.153-0.361-0.229-0.61-0.229c-0.247,0-0.454,0.078-0.619,0.232c-0.164,0.156-0.27,0.389-0.317,0.699l-0.635-0.112
			c0.078-0.425,0.254-0.756,0.529-0.99c0.275-0.234,0.618-0.352,1.027-0.352c0.283,0,0.542,0.061,0.78,0.182
			c0.238,0.122,0.419,0.287,0.545,0.497c0.125,0.209,0.189,0.431,0.189,0.667c0,0.223-0.06,0.427-0.18,0.61
			s-0.298,0.329-0.533,0.438c0.306,0.071,0.543,0.217,0.713,0.44c0.169,0.222,0.253,0.5,0.253,0.833
			c0,0.452-0.165,0.835-0.494,1.149c-0.329,0.314-0.746,0.471-1.25,0.471c-0.454,0-0.83-0.135-1.13-0.405
			S111.962,615.207,111.92,614.776z"/>
	</g>
	<g>
		<path d="M116.055,612.211c0-0.37,0.093-0.684,0.279-0.942s0.455-0.388,0.809-0.388c0.324,0,0.593,0.116,0.806,0.348
			c0.213,0.231,0.319,0.572,0.319,1.021c0,0.438-0.107,0.775-0.322,1.011c-0.216,0.237-0.48,0.355-0.796,0.355
			c-0.313,0-0.573-0.117-0.782-0.35C116.159,613.033,116.055,612.681,116.055,612.211z M117.159,611.318
			c-0.157,0-0.289,0.068-0.394,0.205c-0.104,0.136-0.156,0.387-0.156,0.751c0,0.332,0.052,0.566,0.158,0.701
			c0.105,0.135,0.237,0.203,0.392,0.203c0.161,0,0.292-0.067,0.397-0.205c0.105-0.136,0.156-0.386,0.156-0.748
			c0-0.334-0.052-0.569-0.158-0.705C117.449,611.386,117.318,611.318,117.159,611.318z M117.163,616.332l2.83-5.452h0.515
			l-2.82,5.452H117.163z M119.401,614.928c0-0.372,0.093-0.687,0.278-0.944c0.186-0.258,0.457-0.387,0.812-0.387
			c0.325,0,0.594,0.116,0.806,0.348c0.213,0.232,0.32,0.572,0.32,1.022c0,0.437-0.107,0.774-0.323,1.01
			c-0.214,0.237-0.481,0.354-0.799,0.354c-0.313,0-0.574-0.117-0.782-0.351C119.505,615.747,119.401,615.396,119.401,614.928z
			 M120.509,614.035c-0.16,0-0.292,0.068-0.397,0.205c-0.104,0.137-0.156,0.387-0.156,0.752c0,0.329,0.052,0.563,0.159,0.699
			c0.106,0.136,0.236,0.205,0.392,0.205c0.163,0,0.295-0.069,0.4-0.205c0.105-0.136,0.158-0.386,0.158-0.749
			c0-0.333-0.054-0.568-0.159-0.704C120.798,614.103,120.666,614.035,120.509,614.035z"/>
	</g>
</g>
<g>
	<g>
		<path d="M190.785,612.365l0.568,0.57c1.414-1.414,3.707-1.414,5.121,0l0.568-0.57
			C195.316,610.639,192.514,610.639,190.785,612.365z M193.061,614.641l0.853,0.854l0.854-0.854
			C194.298,614.168,193.533,614.168,193.061,614.641z M191.923,613.504l0.569,0.567c0.784-0.784,2.06-0.784,2.843,0l0.569-0.567
			C194.807,612.405,193.024,612.405,191.923,613.504z"/>
	</g>
</g>
<g>
	<g>
		<path fill="#FFFFFF" d="M182.924,689.213c0,5.988-4.855,10.845-10.847,10.845h-39.469c-5.991,0-10.847-4.856-10.847-10.845v-39.47
			c0-5.988,4.856-10.845,10.847-10.845h39.469c5.992,0,10.847,4.857,10.847,10.845V689.213z"/>
		<path d="M172.076,700.558h-39.469c-6.257,0-11.347-5.089-11.347-11.345v-39.47c0-6.256,5.09-11.345,11.347-11.345h39.469
			c6.257,0,11.347,5.089,11.347,11.345v39.47C183.424,695.469,178.333,700.558,172.076,700.558z M132.608,639.398
			c-5.706,0-10.347,4.641-10.347,10.345v39.47c0,5.704,4.642,10.345,10.347,10.345h39.469c5.706,0,10.347-4.641,10.347-10.345
			v-39.47c0-5.705-4.642-10.345-10.347-10.345H132.608z"/>
	</g>
	<g>
		<g>
			<path d="M166.828,674.95c-2.376,0-4.674-0.386-6.816-1.081c-0.678-0.232-1.43-0.059-1.951,0.461l-3.033,3.807
				c-5.466-2.609-10.585-7.533-13.309-13.192l3.767-3.206c0.522-0.541,0.677-1.294,0.464-1.971
				c-0.715-2.143-1.081-4.442-1.081-6.816c0-1.043-0.872-1.913-1.913-1.913h-6.685c-1.041,0-2.297,0.464-2.297,1.913
				c0,17.943,14.931,32.853,32.853,32.853c1.373,0,1.913-1.217,1.913-2.279v-6.664C168.741,675.819,167.871,674.95,166.828,674.95z"
				/>
		</g>
	</g>
</g>
<g>
	<g>
		<g>
			<path fill="#F9B77A" d="M199.875,800.75c-6.042,0.779-13.139,1.057-19.563,1c-0.928-0.008-1.141,0.86-2.009,0.642
				c-0.667,0.98-1.306,1.961-1.894,2.935c-4.086-4.459-8.818-8.788-14.176-12.76c-24.89-18.465-45.066-33.427-62.932-9.337
				c-17.871,24.088,2.304,39.055,27.191,57.519c24.887,18.46,53.061,22.64,62.934,9.338c5.402-7.285-2.364-19.326,5.513-38.233
				C196.712,807.595,198.374,804.209,199.875,800.75z"/>
		</g>
		<g>
			<path d="M198.753,800.38c-0.5,1.139-1.027,2.312-1.569,3.516c-1.059,2.361-2.191,4.883-3.288,7.521
				c-4.455,10.692-4.024,19.143-3.679,25.922c0.264,5.105,0.467,9.144-1.7,12.071c-4.264,5.746-12.454,8.238-23.064,7.017
				c-11.963-1.372-25.914-7.417-38.282-16.59c-24.665-18.298-44.152-32.754-26.958-55.931c6.761-9.111,13.978-12.889,22.716-11.888
				c11.474,1.317,24.059,10.652,38.631,21.463c5.078,3.769,9.794,8.012,14.014,12.616l1.026,1.118l0.78-1.301
				c0.685-1.134,2.258-3.479,2.995-4.54c-0.816-0.113-1.743-0.161-2.5-0.438c-0.316,0.47-1.346,2.044-1.653,2.525
				c-4.048-4.286-8.527-8.255-13.318-11.808c-14.827-11.002-27.639-20.508-39.717-21.893c-9.496-1.089-17.609,3.098-24.798,12.79
				c-18.55,25.001,2.76,40.807,27.43,59.104c12.675,9.402,27.023,15.608,39.373,17.026c11.45,1.313,20.378-1.502,25.145-7.921
				c2.657-3.58,2.43-7.978,2.147-13.542c-0.335-6.555-0.756-14.713,3.502-24.933c1.09-2.62,2.213-5.12,3.269-7.459
				c0.756-1.683,1.473-3.277,2.118-4.784C200.511,800.134,199.637,800.247,198.753,800.38z"/>
		</g>
	</g>
	<g>
		<g>
			<path fill="#F9B77A" d="M109.816,773.462c0,0,25.256,7.745,33.5,19.133"/>
		</g>
		<g>
			<path d="M142.396,793.261c-7.925-10.954-32.663-18.637-32.91-18.714l0.665-2.17c1.047,0.325,25.715,7.992,34.086,19.552
				L142.396,793.261z"/>
		</g>
	</g>
	<g>
		<g>
			<path fill="#F9B77A" d="M99.3,783.229c0,0,27.994,8.463,33.051,17.048"/>
		</g>
		<g>
			<path d="M131.372,800.854c-4.779-8.11-32.126-16.455-32.4-16.536l0.659-2.174c1.157,0.354,28.472,8.688,33.696,17.558
				L131.372,800.854z"/>
		</g>
	</g>
	<g>
		<g>
			<path fill="#F9B77A" d="M92.996,796.131c0,0,5.796-6.294,26.17,11.254"/>
		</g>
		<g>
			<path d="M118.423,808.247c-18.959-16.332-24.557-11.375-24.614-11.319l-1.646-1.566c0.671-0.723,7.144-6.588,27.746,11.164
				L118.423,808.247z"/>
		</g>
	</g>
</g>
<path d="M196.917,881.99c-0.863,0.071-1.759,0.108-2.642,0.108c-16.526,0-30.533-12.92-31.89-29.413
	c-1.444-17.604,11.702-33.104,29.306-34.552 M191.753,819.132c-17.034,1.401-29.77,16.417-28.37,33.472
	c1.314,15.979,14.884,28.495,30.893,28.495c0.855,0,1.724-0.036,2.581-0.106"/>
<g>
	<g>
		<path fill="#FFFFFF" d="M184.768,757.352c0,5.987-4.854,10.844-10.846,10.844h-39.467c-5.991,0-10.847-4.856-10.847-10.844
			v-39.468c0-5.988,4.856-10.845,10.847-10.845h39.467c5.991,0,10.846,4.856,10.846,10.845V757.352z"/>
		<path d="M173.922,768.695h-39.467c-6.256,0-11.347-5.089-11.347-11.344v-39.468c0-6.256,5.09-11.345,11.347-11.345h39.467
			c6.256,0,11.346,5.089,11.346,11.345v39.468C185.268,763.606,180.178,768.695,173.922,768.695z M134.455,707.539
			c-5.705,0-10.347,4.641-10.347,10.345v39.468c0,5.703,4.642,10.344,10.347,10.344h39.467c5.705,0,10.346-4.641,10.346-10.344
			v-39.468c0-5.704-4.641-10.345-10.346-10.345H134.455z"/>
	</g>
	<g>
		<g>
			<path fill="#48826D" d="M139.95,768.183l0.29,0.064c-0.004,0.021-0.009,0.042-0.013,0.063h3.281
				c0.101-0.429,0.282-0.886,0.567-1.38c0.789-1.363,1.778-2.026,3.025-2.026c1.586,0,3.389,1.042,5.475,2.248
				c0.593,0.342,1.156,0.732,1.686,1.158h0.306c0.059-0.114,0.118-0.227,0.181-0.334c0.77-1.331,1.801-2.261,2.509-2.261
				c0.13,0,0.249,0.03,0.353,0.09c0.57,0.329,0.281,1.242-0.121,2.505h15.152c-1.426-3.218-3.025-5.743-4.109-6.189
				c-3.316-1.365-9.319-3.057-9.38-3.073l-0.073-0.026l-0.027-0.074c-0.006-0.018-0.666-1.81-2.137-2.007
				c-0.156-0.021-0.449-0.032-0.869-0.032c-3.182,0-12.791,0.614-14.01,0.692l-0.241,2.737l-0.13,0.005
				c-0.063,0.002-6.292,0.314-7.319,2.74c-0.293,0.693-0.48,2.696-0.596,5.228h6.176C139.932,768.267,139.94,768.224,139.95,768.183
				z"/>
		</g>
		<g>
			<path d="M134.207,762.979c1.076-2.542,7.449-2.786,7.449-2.786l0.24-2.733c0,0,13.456-0.88,15.036-0.668s2.258,2.101,2.258,2.101
				s6.033,1.684,9.396,3.068c1.104,0.455,2.75,3.052,4.207,6.349h0.143c-1.482-3.36-3.163-6.02-4.293-6.485
				c-3.135-1.291-8.649-2.857-9.342-3.054c-0.146-0.362-0.859-1.925-2.349-2.125c-0.172-0.023-0.47-0.035-0.909-0.035
				c-3.393,0-14.049,0.695-14.156,0.702l-0.127,0.009l-0.239,2.732c-0.946,0.051-6.424,0.449-7.45,2.872
				c-0.309,0.73-0.503,2.794-0.624,5.384h0.149C133.714,765.737,133.905,763.692,134.207,762.979z"/>
		</g>
		<g>
			<path d="M134.343,763.082c1.027-2.426,7.256-2.738,7.319-2.74l0.13-0.005l0.241-2.737c1.219-0.078,10.828-0.692,14.01-0.692
				c0.42,0,0.713,0.012,0.869,0.032c1.471,0.197,2.131,1.989,2.137,2.007l0.027,0.074l0.073,0.026
				c0.061,0.017,6.063,1.708,9.38,3.073c1.084,0.446,2.684,2.972,4.109,6.189h0.154c-1.457-3.297-3.104-5.894-4.207-6.349
				c-3.363-1.385-9.396-3.068-9.396-3.068s-0.678-1.889-2.258-2.101s-15.036,0.668-15.036,0.668l-0.24,2.733
				c0,0-6.373,0.244-7.449,2.786c-0.302,0.713-0.493,2.758-0.611,5.33h0.151C133.863,765.778,134.05,763.775,134.343,763.082z"/>
		</g>
		<g>
			<path d="M139.95,768.183c-0.01,0.041-0.018,0.084-0.027,0.127h0.304c0.004-0.021,0.009-0.042,0.013-0.063L139.95,768.183z"/>
		</g>
		<g>
			<path fill="#F9B77A" d="M157.201,768.229c0.334-1.05,0.623-1.956,0.259-2.167c-0.442-0.253-1.533,0.466-2.457,2.063
				c-0.034,0.06-0.067,0.123-0.101,0.186h2.273C157.184,768.283,157.193,768.255,157.201,768.229z"/>
		</g>
		<g>
			<path fill="#F9B77A" d="M147.1,765.199c-1.147,0-2.027,0.598-2.769,1.88c-0.254,0.438-0.421,0.847-0.517,1.23h9.963
				c-0.43-0.326-0.881-0.63-1.351-0.901C150.377,766.223,148.608,765.199,147.1,765.199z"/>
		</g>
		<g>
			<path d="M144.203,767.004c1.959-3.389,4.797-1.748,8.298,0.275c0.55,0.317,1.058,0.665,1.524,1.03h0.234
				c-0.529-0.426-1.093-0.816-1.686-1.158c-2.086-1.206-3.889-2.248-5.475-2.248c-1.247,0-2.236,0.663-3.025,2.026
				c-0.285,0.494-0.467,0.951-0.567,1.38h0.152C143.758,767.903,143.934,767.471,144.203,767.004z"/>
		</g>
		<g>
			<path d="M157.608,765.805c-0.104-0.06-0.223-0.09-0.353-0.09c-0.708,0-1.739,0.93-2.509,2.261
				c-0.063,0.107-0.122,0.22-0.181,0.334h0.167c0.047-0.087,0.092-0.174,0.143-0.261c0.874-1.512,2.064-2.46,2.658-2.116
				c0.473,0.273,0.18,1.176-0.203,2.377h0.156C157.889,767.047,158.178,766.134,157.608,765.805z"/>
		</g>
		<g>
			<path d="M155.003,768.124c0.924-1.597,2.015-2.315,2.457-2.063c0.364,0.211,0.075,1.117-0.259,2.167
				c-0.009,0.026-0.018,0.055-0.025,0.081h0.154c0.383-1.201,0.676-2.104,0.203-2.377c-0.594-0.344-1.784,0.604-2.658,2.116
				c-0.051,0.087-0.096,0.174-0.143,0.261h0.17C154.936,768.247,154.969,768.184,155.003,768.124z"/>
		</g>
		<g>
			<path d="M144.331,767.079c0.741-1.282,1.621-1.88,2.769-1.88c1.508,0,3.277,1.023,5.327,2.209
				c0.47,0.271,0.921,0.575,1.351,0.901h0.248c-0.467-0.365-0.975-0.713-1.524-1.03c-3.501-2.023-6.339-3.664-8.298-0.275
				c-0.27,0.467-0.445,0.899-0.544,1.306h0.155C143.91,767.926,144.077,767.518,144.331,767.079z"/>
		</g>
	</g>
	<g>
		<g>
			<g>
				<path d="M161.882,765.949l-0.296-0.012c0.107-2.806,0.845-4.553,2.191-5.195c2.074-0.987,4.783,1.015,4.897,1.1l-0.178,0.237
					c-0.026-0.02-2.679-1.979-4.593-1.069C162.666,761.601,161.985,763.263,161.882,765.949z"/>
			</g>
		</g>
		<g>
			<g>
				<g>
					<path fill="#F9B77A" d="M145.421,765.581c0,0,3.39,0.629,4.628,1.983"/>
				</g>
				<g>
					<path d="M149.94,767.664c-1.19-1.303-4.512-1.931-4.545-1.938l0.055-0.29c0.14,0.025,3.451,0.653,4.709,2.027L149.94,767.664z"
						/>
				</g>
			</g>
		</g>
		<g>
			<g>
				<path fill="#141719" d="M153.749,757.847c-0.46,0.154-0.909,0.324-1.336,0.526c-0.344,0.162-0.684,0.324-1.022,0.483
					c0.756-0.285,1.501-0.601,2.232-0.958C153.668,757.876,153.708,757.861,153.749,757.847z"/>
			</g>
		</g>
		<g>
			<path fill="#F9B77A" d="M155.707,753.5c0,0,4.126,11.291-5.545,11.027c-9.669-0.264-7.1-11.027-7.1-11.027H155.707z"/>
			<path d="M150.492,764.532l-0.343-0.005c-2.788-0.076-4.883-1.002-6.226-2.752c-2.616-3.408-1.4-8.669-1.347-8.892l0.092-0.384
				h13.389l0.12,0.328c0.088,0.242,2.137,5.965-0.229,9.348C154.854,763.739,153.019,764.532,150.492,764.532z M143.473,753.5
				c-0.216,1.229-0.704,5.134,1.245,7.67c1.151,1.497,2.987,2.29,5.458,2.357l0.316,0.005c2.181,0,3.741-0.649,4.636-1.93
				c1.775-2.538,0.602-6.88,0.218-8.103H143.473z"/>
		</g>
		<g>
			<g>
				<g>
					<path fill="#F9B77A" d="M139.997,754.325h-3.168v-6.086c0,0.03,0.226,0.006,0.299-0.05c0.359,0.563,0.854,1.037,1.559,1.274
						C138.669,751.078,139.161,753.023,139.997,754.325z"/>
				</g>
			</g>
			<g>
				<g>
					<path fill="#F9B77A" d="M158.403,749.371v4.954h-5.714c-0.032,0-0.062,0.057-0.097,0.092c0.775-0.886,1.374-1.917,1.738-3.093
						c1.212-0.071,2.065-0.684,2.557-1.513c0.09,0.181,0.26,0.279,0.515,0.096C157.698,749.69,158.031,749.525,158.403,749.371z"/>
				</g>
			</g>
			<g>
				<g>
					<path fill="#C9C9C9" d="M170.534,717.783c0.032,0.126,0.063,0.253,0.095,0.379c-0.313-0.075-0.06-0.264-0.076-0.4
						C170.555,717.76,170.534,717.783,170.534,717.783z"/>
				</g>
			</g>
			<g>
				<g>
					<path fill="#F9B77A" d="M168.586,737.027c0.023,1.203-3.142,7.938-3.357,9.113c-0.451,2.465-3.711,0.063-5.106,1.975
						c-0.059,0.083-0.121,0.157-0.189,0.229c-0.032,0.035-0.065,0.071-0.101,0.104c-0.051,0.05-0.104,0.018-0.157,0.063
						c-0.054,0.044-0.106,0.05-0.16,0.05c-0.003,0-0.003,0-0.003,0c-0.112,0-0.229,0.234-0.346,0.303
						c-0.061,0.035-0.119,0.107-0.182,0.141c-0.219,0.118-0.444,0.242-0.67,0.349c-0.332,0.154-0.66,0.327-0.957,0.543
						c-0.254,0.184-0.382,0.088-0.471-0.093c-0.492,0.83-1.346,1.439-2.557,1.511c-0.364,1.176-0.963,2.199-1.739,3.085
						c-0.099,0.109-0.198,0.221-0.3,0.33c-0.079,0.083-0.159,0.163-0.242,0.243c-0.176,0.166-0.355,0.329-0.543,0.489
						c-0.092,0.077-0.189,0.154-0.283,0.231c-0.098,0.076-0.195,0.15-0.297,0.225c-1.691,1.25-2.817,1.078-4.557-0.163
						c-0.702-0.503-1.819-0.892-2.641-0.159c-1.027,0.915-1.878,0.634-2.737-0.102c-0.085-0.074-0.168-0.151-0.252-0.236
						c-0.065-0.065-0.127-0.134-0.187-0.205c-0.029-0.032-0.056-0.065-0.083-0.098c-0.112-0.133-0.219-0.275-0.32-0.427
						c-0.035-0.051-0.068-0.104-0.101-0.153c-0.018-0.027-0.035-0.057-0.053-0.083c-0.835-1.351-2.586-0.79-2.569-2.404
						c-0.705-0.237-1.449-2.439-1.629-2.47c-0.495-0.086,0.024-1.368-0.154-1.97c-0.682-2.288-1.123-4.673-0.892-6.99
						c0.48-4.805,0.24-9.658,1.037-14.437c0.347-2.092,0.705-4.181,1.801-6.032c1.535-2.593,3.472-3.09,5.867-1.351
						c2.847,2.067,5.922,2.139,9.166,1.442c1.926-0.412,3.837-0.896,5.843-0.75c3.493,0.255,5.872,2.773,5.771,6.654
						c-0.375,1.888-0.168,4.157,0.457,6.507C165.209,734.413,168.545,735.004,168.586,737.027z"/>
				</g>
			</g>
			<g>
				<g>
					<g>
						<path d="M146.016,753.203c-5.951,0-5.921-5.757-5.921-5.757s4.439,0.579,5.921,0.579c1.484,0,5.923-0.579,5.923-0.579
							S151.968,753.203,146.016,753.203z"/>
					</g>
					<g>
						<path d="M146.016,753.351c-1.83,0-3.291-0.536-4.343-1.593c-1.72-1.729-1.727-4.208-1.727-4.313l0.001-0.168l0.166,0.021
							c0.044,0.006,4.445,0.578,5.902,0.578s5.859-0.572,5.904-0.578l0.166-0.021l0.001,0.168c0.001,0.104-0.007,2.583-1.727,4.313
							C149.309,752.814,147.847,753.351,146.016,753.351z M140.249,747.615c0.034,0.582,0.252,2.546,1.636,3.936
							c0.994,0.998,2.385,1.504,4.131,1.504c1.75,0,3.14-0.507,4.135-1.507c1.385-1.391,1.6-3.352,1.635-3.933
							c-0.846,0.108-4.441,0.558-5.77,0.558C144.69,748.174,141.094,747.724,140.249,747.615z"/>
					</g>
				</g>
				<g>
					<g>
						<path fill="#FFFFFF" d="M151.744,748.862c0.197-0.814,0.194-1.416,0.194-1.416s-4.438,0.579-5.923,0.579
							c-1.482,0-5.921-0.579-5.921-0.579s-0.003,0.602,0.194,1.416c0.871,0.11,4.43,0.554,5.727,0.554
							C147.315,749.416,150.874,748.973,151.744,748.862z"/>
					</g>
				</g>
			</g>
			<g>
				<g>
					<g>
						<path fill="#592C03" d="M167.649,713.122c-6.88-4.876-14.592-5.437-22.473-2.675c-4.747,1.662-8.13,5.01-9.297,9.919
							c-1.421,5.971-2.116,12.032-2.12,18.139c0.222-0.041,0.456-0.065,0.707-0.065c0.156,0,0.304,0.01,0.449,0.026
							c0.271-4.152,0.188-8.327,0.876-12.446c0.346-2.092,0.705-4.181,1.801-6.032c1.535-2.593,3.472-3.091,5.866-1.352
							c2.848,2.068,5.923,2.139,9.167,1.443c1.925-0.412,3.837-0.896,5.843-0.75c3.492,0.255,5.872,2.773,5.771,6.654
							c-0.377,1.888-0.17,4.157,0.455,6.507c0.516,1.923,1.924,5.227,1.965,7.25c0.01,0.475-0.146,0.994-0.354,1.521
							c0.053-0.003,0.104-0.009,0.158-0.009c0.938,0,1.674,0.313,2.211,0.801c1.3-2.358,2.734-4.775,2.974-4.924
							c0.47-1.715,1.915-6.352,2.169-8.109C174.75,722.55,173.01,716.924,167.649,713.122z"/>
					</g>
				</g>
			</g>
			<g>
				<g>
					<g>
						<path fill="#3F1B00" d="M166.535,740.583c-0.277,1.011-0.941,2.114-1.109,3.027c-0.45,2.465-3.908,2.594-5.304,4.505
							c-0.059,0.083-0.839,0.732-0.956,0.797c-0.061,0.036-1.512,0.772-1.809,0.989c-0.254,0.184-3.99,3.611-4.767,4.497
							c-0.098,0.109-0.198,0.22-0.299,0.329c-0.08,0.083-0.16,0.164-0.243,0.243c-0.175,0.167-0.355,0.329-0.543,0.489
							c-0.091,0.077-0.189,0.154-0.283,0.231c-0.098,0.076-0.195,0.15-0.297,0.225c-1.691,1.25-2.817,1.078-4.557-0.163
							c-0.701-0.503-1.818-0.892-2.64-0.159c-1.028,0.915-1.878,0.634-2.738-0.102c-0.085-0.074-0.168-0.151-0.252-0.236
							c-0.064-0.066-0.127-0.134-0.187-0.205c-0.029-0.032-0.056-0.065-0.083-0.098c-0.112-0.133-0.219-0.275-0.32-0.427
							c-0.035-0.051-0.067-0.104-0.101-0.153c-0.018-0.027-0.035-0.057-0.053-0.083c-0.836-1.351-0.72-1.239-1.655-2.556
							c-0.431-0.606-1.988-1.555-2.697-4.288c-0.601-2.311-1.124-4.673-0.892-6.989c0.127-1.274,0.204-2.552,0.262-3.831
							c-0.161,0.021-0.326,0.035-0.5,0.035c-0.259,0-0.502-0.025-0.731-0.069c-0.07,2.88,0.011,5.772,0.25,8.671
							c0.276,3.324,0.575,6.678,2.507,9.581c1.49,2.24,5.265,6.249,5.345,6.299c1.099,0.738,3.282,1.111,6.04,0.24
							c2.738-0.862,9.725-3.019,11.449-4.012c0.941-0.74,1.789-1.339,2.542-2.032c1.76-1.62,3.914-6.556,4.553-8.752
							c-0.035-0.365,1.368-3.052,2.728-5.471C168.288,741.304,167.317,741.126,166.535,740.583z"/>
					</g>
				</g>
			</g>
			<g>
				<g>
					<g>
						<path fill="#F9B77A" d="M170.605,735.473c-0.384,0.258-1.936,3.657-2.703,5.144c-0.88,1.704-0.69,2.71-1.156,3.177
							c-1.296,1.298-0.728,2.665,1.04,2.282c0.426-0.093,0.902-0.218,1.221-0.487c2.451-2.07,4.215-4.524,4.22-7.498
							C173.066,735.507,172.119,734.46,170.605,735.473z"/>
					</g>
					<g>
						<path d="M167.219,746.289L167.219,746.289c-0.611,0-1.066-0.25-1.246-0.686c-0.229-0.552,0.021-1.268,0.668-1.915
							c0.184-0.186,0.256-0.499,0.355-0.934c0.122-0.537,0.291-1.271,0.773-2.207c0.223-0.431,0.512-1.023,0.818-1.653
							c0.984-2.018,1.65-3.354,1.934-3.544c0.404-0.271,0.781-0.407,1.123-0.407c0.99,0,1.604,1.114,1.729,3.138
							c-0.004,2.705-1.4,5.194-4.271,7.62c-0.336,0.283-0.816,0.417-1.285,0.519C167.606,746.266,167.405,746.289,167.219,746.289z
							 M171.645,735.239c-0.281,0-0.604,0.12-0.957,0.357c-0.24,0.16-1.198,2.127-1.833,3.428c-0.308,0.631-0.597,1.226-0.821,1.659
							c-0.467,0.901-0.629,1.615-0.748,2.137c-0.111,0.483-0.19,0.832-0.436,1.077c-0.551,0.552-0.781,1.162-0.604,1.593
							c0.133,0.319,0.486,0.502,0.973,0.502l0,0c0.165,0,0.346-0.021,0.535-0.062c0.432-0.094,0.871-0.214,1.157-0.456
							c2.8-2.365,4.162-4.78,4.167-7.385C172.963,736.255,172.455,735.239,171.645,735.239z"/>
					</g>
				</g>
				<g>
					<g>
						<path fill="#DF8F6B" d="M170.485,737.223c-0.206,0.139-0.609,1.162-1.043,2.061c0.186,0.19,0.518,0.578,0.182,1.106
							c-0.35,0.55-0.842,0.433-1.033,0.292c-0.565,0.782-1.036,1.724-1.09,2.301c-0.108,1.161-0.049,1.504,1.119,1.251
							c0.281-0.062,0.598-0.144,0.809-0.322c1.619-1.369,2.786-2.991,2.789-4.958C172.112,737.245,171.485,736.553,170.485,737.223z
							"/>
					</g>
				</g>
				<g>
					<g>
						<path d="M172.365,739.183l-0.297-0.006c0.025-1.398-0.28-1.836-0.542-1.955c-0.437-0.201-1.058,0.335-1.064,0.341
							l-0.197-0.222c0.03-0.027,0.767-0.673,1.386-0.389C172.155,737.184,172.389,737.913,172.365,739.183z"/>
					</g>
				</g>
			</g>
			<g>
				<g>
					<path fill="#FFFFFF" d="M150.117,735.352c-0.198,2.293,1.686,2.202,3.984,2.401s4.14,0.611,4.338-1.682
						c0.124-1.431-1.639-2.752-3.938-2.951C152.205,732.921,150.24,733.92,150.117,735.352z"/>
				</g>
				<g>
					<path d="M156.264,738.063L156.264,738.063c-0.472,0-0.998-0.051-1.556-0.105c-0.202-0.02-0.409-0.039-0.62-0.058
						c-0.21-0.019-0.418-0.034-0.619-0.05c-1.35-0.103-2.515-0.191-3.108-0.891c-0.324-0.382-0.452-0.912-0.391-1.622
						c0.118-1.362,1.817-2.391,3.952-2.391c0.196,0,0.396,0.009,0.594,0.025c2.375,0.206,4.202,1.602,4.072,3.111
						C158.436,737.828,157.328,738.063,156.264,738.063z M153.922,733.243c-1.98,0-3.553,0.912-3.657,2.121
						c-0.054,0.627,0.052,1.086,0.321,1.404c0.514,0.604,1.622,0.689,2.905,0.787c0.203,0.016,0.411,0.031,0.623,0.05
						c0.212,0.018,0.419,0.038,0.622,0.058c0.551,0.054,1.07,0.104,1.528,0.104c1.128,0,1.904-0.29,2.027-1.708
						c0.116-1.348-1.589-2.599-3.802-2.791C154.301,733.252,154.11,733.243,153.922,733.243z"/>
				</g>
			</g>
			<g>
				<g>
					<path fill="#944E00" d="M152.242,735.298c-0.099,1.137,0.742,2.137,1.879,2.235c1.137,0.098,2.137-0.743,2.234-1.879
						c0.099-1.136-0.742-2.137-1.879-2.235S152.34,734.162,152.242,735.298z"/>
				</g>
			</g>
			<g>
				<g>
					<circle cx="154.595" cy="735.476" r="0.99"/>
				</g>
			</g>
			<g>
				<g>
					<circle fill="#FFFFFF" cx="154.831" cy="734.81" r="0.405"/>
				</g>
			</g>
			<g>
				<g>
					<g>
						<path fill="#592C03" d="M158.796,732.93c-0.145,0-0.29-0.042-0.419-0.13c-3.891-2.668-7.531-0.783-7.684-0.702
							c-0.36,0.193-0.809,0.058-1.002-0.302c-0.193-0.36-0.061-0.808,0.299-1.002c0.184-0.1,4.567-2.409,9.225,0.784
							c0.338,0.231,0.424,0.692,0.191,1.03C159.264,732.817,159.032,732.93,158.796,732.93z"/>
					</g>
				</g>
			</g>
			<g>
				<g>
					<g>
						<path fill="#FFFFFF" d="M144.791,733.864c0.042,2.302-1.832,2.084-4.139,2.127s-4.171,0.33-4.214-1.971
							c-0.027-1.437,1.821-2.635,4.127-2.678C142.871,731.299,144.764,732.429,144.791,733.864z"/>
					</g>
					<g>
						<path d="M139.109,736.174c-1.406,0-2.781-0.166-2.819-2.15c-0.027-1.516,1.889-2.784,4.273-2.829l0.13-0.001
							c2.352,0,4.217,1.172,4.246,2.669c0.013,0.712-0.15,1.232-0.499,1.591c-0.641,0.658-1.809,0.668-3.162,0.68
							c-0.203,0.001-0.411,0.003-0.623,0.007s-0.419,0.01-0.622,0.016C139.712,736.165,139.402,736.174,139.109,736.174z
							 M140.693,731.489l-0.125,0.001c-2.221,0.042-4.007,1.176-3.982,2.527c0.029,1.563,0.909,1.859,2.522,1.859
							c0.291,0,0.598-0.009,0.917-0.018c0.204-0.006,0.413-0.012,0.625-0.016c0.212-0.004,0.422-0.006,0.626-0.008
							c1.286-0.011,2.397-0.021,2.951-0.59c0.291-0.299,0.428-0.75,0.416-1.379C144.617,732.556,142.846,731.489,140.693,731.489z"
							/>
					</g>
				</g>
				<g>
					<g>
						<path fill="#944E00" d="M142.674,733.667c0.021,1.142-0.886,2.083-2.026,2.104c-1.141,0.021-2.082-0.886-2.103-2.026
							c-0.021-1.139,0.885-2.081,2.026-2.103C141.711,731.62,142.653,732.528,142.674,733.667z"/>
					</g>
				</g>
				<g>
					<g>
						<circle cx="140.906" cy="733.707" r="0.991"/>
					</g>
				</g>
				<g>
					<g>
						<circle fill="#FFFFFF" cx="141.309" cy="733.006" r="0.404"/>
					</g>
				</g>
				<g>
					<g>
						<g>
							<path fill="#592C03" d="M136.345,730.863c-0.253,0-0.5-0.13-0.639-0.364c-0.208-0.352-0.091-0.807,0.261-1.014
								c4.863-2.872,9.08-0.271,9.257-0.159c0.346,0.219,0.449,0.677,0.23,1.022c-0.219,0.345-0.674,0.448-1.021,0.23
								c-0.149-0.093-3.652-2.216-7.714,0.182C136.603,730.83,136.473,730.863,136.345,730.863z"/>
						</g>
					</g>
				</g>
			</g>
			<g>
				<g>
					<path d="M143.971,745.704c-1.096,0-1.815-0.25-2.178-0.754c-0.768-1.065,0.297-2.926,1.077-4.283
						c0.227-0.396,0.424-0.74,0.529-0.987c0.684-1.606,1.27-5.732,1.275-5.774l0.294,0.042c-0.024,0.17-0.598,4.207-1.298,5.849
						c-0.111,0.264-0.313,0.613-0.545,1.019c-0.696,1.216-1.749,3.052-1.092,3.963c0.512,0.71,2.006,0.821,4.442,0.331l0.059,0.29
						C145.524,745.603,144.67,745.704,143.971,745.704z"/>
				</g>
			</g>
		</g>
	</g>
</g>
<g>
	<g>
		<path fill="#48826D" d="M191.733,818.632c-17.356,1.428-30.273,16.655-28.849,34.013c1.428,17.359,16.656,30.274,34.013,28.846
			L454,871.263v-63.066L191.733,818.632z"/>
		<path d="M194.277,882.099c0,0-0.001,0-0.001,0c-16.526-0.001-30.534-12.921-31.89-29.413
			c-1.444-17.604,11.702-33.104,29.306-34.552L454.5,807.676v64.067l-0.48,0.02L196.917,881.99
			C196.054,882.062,195.158,882.099,194.277,882.099z M453.5,808.717l-261.748,10.415c-17.034,1.401-29.77,16.417-28.37,33.472
			c1.314,15.978,14.884,28.494,30.893,28.495c0,0,0.001,0,0.001,0c0.854,0,1.722-0.036,2.579-0.106l256.644-10.21V808.717z"/>
	</g>
	<g>
		<line x1="454" y1="871.263" x2="454" y2="958.5"/>
	</g>
	<g>
		<line x1="454" y1="671.5" x2="454" y2="808.196"/>
	</g>
	<g>
		<line x1="454" y1="808.196" x2="454" y2="871.263"/>
	</g>
</g>
</svg>
