<svg width="500" height="500" xmlns="http://www.w3.org/2000/svg" version="1.1" enable-background="new 0 0 500 500" xml:space="preserve">
 <g>
  <title>Layer 1</title>
  <g id="svg_1">
   <path fill="#bef1e1" d="m298.956,288.553c0,0 -34.27,1.313 -40.057,14.979c-5.787,13.666 -3.971,118.158 -3.971,118.158s160.002,2.55 213.254,0c38.765,-1.854 -6.345,-116.187 -24.427,-123.633c-18.081,-7.447 -50.526,-16.496 -50.526,-16.496s-3.638,-10.16 -12.135,-11.3c-8.494,-1.139 -80.848,3.593 -80.848,3.593l-1.29,14.699z" id="svg_2"/>
   <path fill="#363636" d="m389.239,424c-0.005,0 -0.005,0 -0.011,0c-62.469,0 -133.6,-1.313 -134.312,-1.324l-0.771,-0.106l-0.013,-0.816c-0.075,-4.274 -1.753,-104.846 4.033,-118.508c5.517,-13.029 34.972,-15.172 40.058,-15.44l1.289,-14.693l0.684,-0.051c0.574,-0.037 57.877,-3.771 76.117,-3.771c2.365,0 3.965,0.063 4.889,0.188c8.007,1.072 11.841,9.476 12.629,11.426c3.726,1.052 33.373,9.478 50.229,16.419c14.309,5.893 45.057,77.172 39.521,109.131c-1.771,10.235 -6.939,15.821 -15.36,16.227c-15.715,0.745 -42.292,1.318 -78.982,1.318zm-133.524,-2.607c7.897,0.121 74.566,1.607 133.516,1.607c0.002,0 0.008,0 0.01,0c36.668,0 63.214,-0.867 78.908,-1.619c7.571,-0.363 12.238,-5.559 13.864,-14.959c5.453,-31.496 -24.561,-101.742 -38.56,-107.511c-17.828,-7.343 -50.11,-16.435 -50.437,-16.524l-0.396,-0.14l-0.141,-0.401c-0.033,-0.097 -3.584,-9.729 -11.49,-10.789c-0.842,-0.111 -2.414,-0.174 -4.676,-0.174c-17.108,0 -68.776,3.301 -75.332,3.725l-1.295,14.715l-0.699,0.027c-0.338,0.012 -33.834,1.692 -39.354,14.736c-5.395,12.74 -4.067,107.739 -3.918,117.307z" id="svg_3"/>
  </g>
  <g id="svg_4">
   <path d="m289.771,427.375c-0.084,-0.585 -8.256,-58.979 0.011,-95.868l1.558,0.349c-8.207,36.606 -0.073,94.714 0.011,95.298l-1.58,0.221z" id="svg_5"/>
  </g>
  <g id="svg_6">
   <path d="m407.71,319.5l-1.594,-0.063c0.578,-15.086 4.544,-24.481 11.785,-27.934c11.153,-5.311 25.719,5.453 26.334,5.912l-0.955,1.273c-0.145,-0.106 -14.407,-10.645 -24.696,-5.748c-6.661,3.18 -10.318,12.115 -10.874,26.56z" id="svg_7"/>
  </g>
  <g id="svg_8">
   <path d="m436.54,389.256c-0.366,0 -0.77,-0.419 -1.587,-1.268c-9.688,-10.071 -46.938,-42.944 -47.313,-43.274l1.055,-1.196c0.299,0.266 24.019,21.195 38.579,34.818c-13.134,-16.691 -19.167,-27.979 -17.956,-33.609l1.559,0.334c-0.897,4.181 2.689,14.719 24.896,41.191c1.794,2.143 1.864,2.225 1.271,2.758c-0.183,0.163 -0.341,0.246 -0.504,0.246z" id="svg_9"/>
  </g>
  <g id="svg_10">
   <g id="svg_11">
    <path fill="#F9B77A" d="m381.609,337.482c2.602,-9.026 5.918,-16.221 2.721,-18.068c-3.195,-1.848 -9.596,3.246 -14.297,11.38c-0.702,1.214 -1.316,2.429 -1.86,3.62c-3.205,-2.779 -6.85,-5.419 -10.902,-7.762c-18.824,-10.881 -34.086,-19.699 -44.617,-1.479c-10.53,18.221 4.729,27.041 23.557,37.922c18.822,10.879 38.798,11.541 44.616,1.479c3.18,-5.508 -3.196,-13.285 0.782,-27.092z" id="svg_12"/>
    <path d="m364.617,372.506l0,0c-8.724,0 -19.222,-3.18 -28.81,-8.722c-18.66,-10.782 -34.776,-20.097 -23.846,-39.009c4.236,-7.334 9.559,-10.898 16.264,-10.898c8.53,0 18.223,5.602 29.438,12.086c3.623,2.096 7.062,4.503 10.228,7.168c0.459,-0.941 0.943,-1.859 1.45,-2.736c4.138,-7.156 9.683,-12.154 13.487,-12.154c0.701,0 1.34,0.164 1.896,0.484c3.071,1.775 1.502,6.7 -0.668,13.517c-0.549,1.716 -1.133,3.548 -1.685,5.463c-2.149,7.465 -1.206,13.116 -0.448,17.659c0.645,3.855 1.151,6.902 -0.414,9.609c-2.805,4.857 -8.806,7.533 -16.892,7.533zm-36.388,-57.035c-6.172,0 -10.901,3.211 -14.888,10.104c-10.132,17.531 4.607,26.05 23.265,36.834c9.354,5.404 19.563,8.505 28.013,8.505c7.493,0.002 13.005,-2.39 15.52,-6.733c1.275,-2.215 0.812,-5.013 0.221,-8.553c-0.784,-4.7 -1.762,-10.554 0.49,-18.363c0.555,-1.929 1.144,-3.774 1.692,-5.505c1.8,-5.646 3.354,-10.521 1.394,-11.653c-2.375,-1.359 -8.244,2.504 -13.211,11.088c-0.647,1.125 -1.264,2.32 -1.824,3.556l-0.441,0.968l-0.807,-0.695c-3.311,-2.873 -6.937,-5.453 -10.778,-7.676c-11.025,-6.375 -20.544,-11.877 -28.646,-11.877z" id="svg_13"/>
   </g>
   <g id="svg_14">
    <path fill="#F9B77A" d="m319.201,317.523c0,0 18.226,3.381 24.884,10.662" id="svg_15"/>
    <path d="m343.496,328.723c-6.4,-7.004 -24.261,-10.382 -24.438,-10.416l0.291,-1.564c0.754,0.142 18.563,3.516 25.323,10.904l-1.176,1.076z" id="svg_16"/>
   </g>
   <g id="svg_17">
    <path fill="#F9B77A" d="m312.652,325.175c0,0 20.189,3.66 24.402,9.239" id="svg_18"/>
    <path d="m336.418,334.896c-3.979,-5.272 -23.711,-8.901 -23.908,-8.938l0.285,-1.565c0.836,0.152 20.544,3.78 24.895,9.545l-1.272,0.958z" id="svg_19"/>
   </g>
   <g id="svg_20">
    <path fill="#F9B77A" d="m309.289,334.672c0,0 3.538,-4.854 19.143,5.755" id="svg_21"/>
    <path d="m327.982,341.085c-14.522,-9.871 -18.027,-5.967 -18.063,-5.925l-1.272,-0.959c0.41,-0.559 4.453,-5.163 20.234,5.566l-0.899,1.318z" id="svg_22"/>
   </g>
  </g>
  <g id="svg_23">
   <path fill="#141719" d="m363.98,275.934c-2.476,0.827 -4.888,1.744 -7.183,2.83c-1.85,0.875 -3.677,1.743 -5.497,2.598c4.063,-1.532 8.068,-3.227 12.004,-5.148c0.24,-0.12 0.457,-0.198 0.676,-0.28z" id="svg_24"/>
  </g>
  <g id="svg_25">
   <g id="svg_26">
    <g id="svg_27">
     <polyline fill="#3f3b3b" points="281.687,475.236 300.319,478.545 384.644,448.37 384.644,431.786 280.644,408.189      280.644,476.584    " id="svg_28" stroke="#000000"/>
     <path d="m300.668,479.633l-18.572,-3.049l-1.452,0l0,-69.395l105,23.963l0,17.779l-84.976,30.702zm-17.729,-5.711l18.266,3.533l83.439,-29.647l0,-15.385l-101,-23.233l0,64.854l-0.705,-0.122z" id="svg_29" fill="#3f3b3b" stroke="#000000"/>
    </g>
    <g id="svg_30">
     <polygon fill="#494747" points="281.185,474.839 299.567,478.348 383.644,448.37 383.644,431.786 279.644,463.941      279.644,475.797    " id="svg_31" stroke="#000000"/>
     <path d="m299.519,479.17l-17.771,-3.487l-2.104,1.586l0,-13.913l105,-32.647l0,18.227l-0.779,0.188l-84.346,30.046zm-18.397,-5.174l18.832,3.527l83.689,-29.714l0,-14.939l-103,31.659l0,9.796l0.479,-0.329z" id="svg_32" fill="#494747" stroke="#000000"/>
    </g>
    <g id="svg_33">
     <path fill="#363636" d="m299.644,451.878c0,12.682 -9.65,22.961 -22.332,22.961l-214.503,-22.961c-12.681,0 -23.165,-10.279 -23.165,-22.96l0,-126.285c0,-12.679 10.8,-22.96 23.479,-22.96l213.934,22.96c12.679,0 22.588,10.281 22.588,22.963l0,126.282l-0.001,0z" id="svg_34" stroke="#000000"/>
     <path d="m277.914,475.636l-0.172,0.45l-214.206,-22.502c-0.002,0 -0.006,0 -0.008,0c-12.914,0 -23.885,-11.568 -23.885,-24.666l0,-126.285c0,-13.099 10.82,-23.385 23.878,-23.385l214.349,23.336c0.002,0 0.006,0 0.008,0c12.881,0 23.768,9.914 23.768,23.012l0,126.282c-0.002,13.099 -10.74,23.758 -23.732,23.758zm-214.273,-195.169c-12.095,0.004 -21.997,9.946 -21.997,22.166l0,126.285c0,12.222 9.857,22.164 21.98,22.164l214.13,22.961c12.093,-0.023 21.89,-9.956 21.89,-22.165l0,-126.282c0,-12.223 -9.802,-22.166 -21.892,-22.166l-214.111,-22.963z" id="svg_35" fill="#363636" stroke="#000000"/>
    </g>
   </g>
   <g id="svg_36">
    <g id="svg_37">
     <polygon fill="#000000" points="151.464,368.584 137.6,368.584 142.222,356.584 156.086,356.584    " id="svg_38"/>
    </g>
    <g id="svg_39">
     <polygon fill="#000000" points="144.532,384.584 130.665,384.584 135.288,372.584 149.154,372.584    " id="svg_40"/>
    </g>
    <g id="svg_41">
     <polygon fill="#000000" points="167.644,368.584 153.777,368.584 158.399,356.584 172.266,356.584    " id="svg_42"/>
    </g>
    <g id="svg_43">
     <polygon fill="#000000" points="160.709,384.584 146.844,384.584 151.464,372.584 165.331,372.584    " id="svg_44"/>
    </g>
   </g>
  </g>
  <g id="svg_45">
   <path fill="#bef1e1" d="m395.7,406.008c0,0 63.897,36.851 81.933,10.934" id="svg_46"/>
   <path fill="#bef1e1" d="m456.082,427.036c-25.121,0 -58.854,-19.229 -60.78,-20.339l0.798,-1.381c0.631,0.363 63.464,36.188 80.881,11.168l1.307,0.908c-4.903,7.046 -12.974,9.644 -22.206,9.644z" id="svg_47"/>
  </g>
  <g id="svg_48">
   <path fill="#F9B77A" d="m381.632,274.566c0,0 7.676,32.854 -25.515,30.854c-33.189,-2 -33.258,-21.98 -33.258,-21.98l58.773,-8.874z" id="svg_49"/>
   <path d="m358.952,306.007c-0.925,0 -1.889,-0.03 -2.864,-0.089c-33.272,-2.005 -33.728,-22.273 -33.729,-22.479l-0.002,-0.433l59.655,-9.006l0.104,0.45c0.14,0.594 3.313,14.646 -4.017,23.888c-4.033,5.089 -10.476,7.669 -19.147,7.669zm-35.562,-22.143c0.276,2.876 3.164,19.272 32.759,21.057c9.771,0.589 16.918,-1.841 21.17,-7.202c6.319,-7.966 4.398,-20.104 3.92,-22.587l-57.849,8.732z" id="svg_50"/>
  </g>
  <g id="svg_51">
   <path fill="#F9B77A" d="m290.034,257l-17.034,0l0,-32.724c0,0.159 1.213,0.031 1.61,-0.27c1.929,3.024 4.59,5.574 8.381,6.851c-0.095,8.683 2.55,19.143 7.043,26.143z" id="svg_52"/>
  </g>
  <g id="svg_53">
   <path fill="#F9B77A" d="m389,230.363l0,26.637l-30.722,0c-0.174,0 -0.334,0.303 -0.524,0.494c4.176,-4.768 7.393,-10.312 9.352,-16.634c6.517,-0.383 11.104,-3.673 13.748,-8.133c0.479,0.974 1.398,1.502 2.767,0.516c1.592,-1.164 3.379,-2.052 5.379,-2.88z" id="svg_54"/>
  </g>
  <g id="svg_55">
   <path fill="#C9C9C9" d="m454.234,60.514c0.172,0.679 0.342,1.36 0.513,2.039c-1.681,-0.407 -0.323,-1.42 -0.415,-2.154c0.012,-0.012 -0.098,0.115 -0.098,0.115z" id="svg_56"/>
  </g>
  <g id="svg_57">
   <path fill="#F9B77A" d="m443.758,163.992c0.128,6.467 -16.892,42.675 -18.056,48.999c-2.421,13.254 -19.95,0.341 -27.454,10.617c-0.316,0.446 -0.65,0.845 -1.021,1.227c-0.174,0.19 -0.35,0.383 -0.541,0.558c-0.271,0.271 -0.558,0.096 -0.844,0.335c-0.287,0.24 -0.572,0.272 -0.861,0.272c-0.015,0 -0.015,0 -0.015,0c-0.604,0 -1.229,1.256 -1.864,1.624c-0.318,0.191 -0.638,0.581 -0.973,0.756c-1.181,0.638 -2.39,1.302 -3.601,1.876c-1.784,0.827 -3.555,1.757 -5.146,2.921c-1.369,0.987 -2.056,0.473 -2.533,-0.498c-2.646,4.46 -7.231,7.738 -13.748,8.121c-1.959,6.325 -5.176,11.825 -9.352,16.591c-0.525,0.588 -1.066,1.185 -1.607,1.771c-0.431,0.443 -0.86,0.879 -1.308,1.309c-0.94,0.894 -1.909,1.771 -2.916,2.629c-0.491,0.414 -1.02,0.83 -1.526,1.244c-0.525,0.413 -1.053,0.813 -1.595,1.209c-9.099,6.723 -15.149,5.799 -24.502,-0.876c-3.772,-2.706 -9.78,-4.796 -14.194,-0.858c-5.526,4.923 -10.1,3.408 -14.721,-0.543c-0.46,-0.397 -0.906,-0.813 -1.354,-1.272c-0.35,-0.353 -0.686,-0.719 -1.004,-1.101c-0.156,-0.176 -0.303,-0.352 -0.444,-0.524c-0.604,-0.717 -1.181,-1.481 -1.722,-2.295c-0.188,-0.271 -0.364,-0.558 -0.541,-0.827c-0.096,-0.145 -0.188,-0.304 -0.286,-0.445c-4.492,-7.264 -13.907,-4.248 -13.813,-12.93c-3.791,-1.274 -7.789,-13.117 -8.762,-13.276c-2.659,-0.463 0.128,-7.36 -0.827,-10.595c-3.665,-12.299 -6.039,-25.123 -4.795,-37.581c2.58,-25.839 1.289,-51.934 5.576,-77.628c1.861,-11.248 3.789,-22.479 9.685,-32.436c8.254,-13.938 18.67,-16.614 31.543,-7.264c15.309,11.119 31.844,11.5 49.288,7.757c10.354,-2.214 20.63,-4.811 31.415,-4.029c18.78,1.369 31.573,14.91 31.031,35.779c-2.021,10.148 -0.907,22.352 2.454,34.984c2.778,10.337 20.712,13.518 20.934,24.399z" id="svg_58"/>
  </g>
  <g id="svg_59">
   <g id="svg_60">
    <path d="m322.4,250.964c-32,0 -31.842,-30.953 -31.842,-30.953s23.866,3.114 31.842,3.114c7.979,0 31.846,-3.114 31.846,-3.114s0.158,30.953 -31.846,30.953z" id="svg_61"/>
    <path d="m322.4,251.762c-9.84,0 -17.696,-2.884 -23.354,-8.569c-9.249,-9.296 -9.287,-22.624 -9.283,-23.187l0.004,-0.902l0.896,0.117c0.237,0.031 23.905,3.107 31.737,3.107c7.836,0 31.505,-3.076 31.742,-3.107l0.896,-0.117l0.004,0.902c0.005,0.563 -0.034,13.89 -9.282,23.187c-5.658,5.685 -13.518,8.569 -23.36,8.569zm-31.009,-30.842c0.186,3.13 1.354,13.688 8.797,21.159c5.347,5.366 12.819,8.088 22.215,8.088c9.402,0 16.879,-2.726 22.229,-8.1c7.443,-7.48 8.604,-18.021 8.788,-21.147c-4.545,0.582 -23.881,3 -31.017,3c-7.135,0.001 -26.467,-2.418 -31.012,-3z" id="svg_62"/>
   </g>
   <g id="svg_63">
    <path fill="#FFFFFF" d="m353.202,227.624c1.06,-4.378 1.043,-7.613 1.043,-7.613s-23.865,3.114 -31.846,3.114c-7.976,0 -31.842,-3.114 -31.842,-3.114s-0.016,3.235 1.045,7.613c4.682,0.596 23.818,2.979 30.797,2.979c6.983,0 26.122,-2.383 30.803,-2.979z" id="svg_64"/>
   </g>
  </g>
  <g id="svg_65">
   <g id="svg_66">
    <path fill="#592C03" d="m438.714,35.453c-36.989,-26.221 -78.459,-29.232 -120.833,-14.385c-25.521,8.938 -43.713,26.938 -49.99,53.335c-7.64,32.106 -11.38,64.699 -11.396,97.533c1.191,-0.224 2.451,-0.356 3.8,-0.356c0.836,0 1.636,0.058 2.411,0.146c1.459,-22.326 1.015,-44.774 4.711,-66.926c1.861,-11.248 3.789,-22.479 9.685,-32.436c8.254,-13.938 18.67,-16.614 31.543,-7.264c15.309,11.119 31.844,11.5 49.289,7.757c10.354,-2.214 20.629,-4.811 31.414,-4.029c18.781,1.369 31.574,14.91 31.032,35.779c-2.022,10.148 -0.907,22.352 2.454,34.984c2.771,10.339 10.341,28.105 10.563,38.987c0.05,2.55 -0.795,5.342 -1.9,8.177c0.283,-0.011 0.556,-0.042 0.847,-0.042c5.044,0 9,1.679 11.892,4.303c6.984,-12.683 14.698,-25.679 15.986,-26.477c2.521,-9.22 10.293,-34.148 11.662,-43.604c5.014,-34.791 -4.338,-65.042 -33.17,-85.482z" id="svg_67"/>
   </g>
  </g>
  <g id="svg_68">
   <g id="svg_69">
    <path fill="#3F1B00" d="m432.729,183.11c-1.492,5.435 -5.06,11.364 -5.964,16.276c-2.421,13.255 -21.013,13.946 -28.517,24.223c-0.316,0.446 -4.509,3.937 -5.146,4.284c-0.318,0.193 -8.125,4.154 -9.717,5.317c-1.371,0.987 -21.459,19.42 -25.634,24.183c-0.526,0.59 -1.067,1.184 -1.608,1.771c-0.43,0.445 -0.859,0.878 -1.307,1.309c-0.939,0.895 -1.91,1.77 -2.916,2.627c-0.492,0.414 -1.021,0.83 -1.527,1.244c-0.524,0.413 -1.051,0.813 -1.594,1.209c-9.099,6.723 -15.15,5.799 -24.502,-0.876c-3.773,-2.706 -9.779,-4.796 -14.193,-0.858c-5.527,4.924 -10.101,3.408 -14.722,-0.543c-0.46,-0.397 -0.901,-0.816 -1.354,-1.272c-0.347,-0.354 -0.685,-0.719 -1.005,-1.101c-0.155,-0.176 -0.301,-0.352 -0.443,-0.524c-0.604,-0.717 -1.18,-1.481 -1.723,-2.295c-0.188,-0.271 -0.363,-0.558 -0.541,-0.827c-0.094,-0.145 -0.188,-0.304 -0.284,-0.445c-4.493,-7.264 -3.871,-6.664 -8.896,-13.74c-2.316,-3.262 -10.689,-8.363 -14.505,-23.06c-3.229,-12.422 -6.039,-25.123 -4.795,-37.581c0.683,-6.852 1.095,-13.721 1.409,-20.595c-0.864,0.109 -1.752,0.188 -2.691,0.188c-1.394,0 -2.699,-0.136 -3.932,-0.377c-0.379,15.49 0.061,31.039 1.342,46.625c1.481,17.874 3.092,35.907 13.479,51.52c8.013,12.043 28.309,33.598 28.738,33.868c5.908,3.968 17.648,5.974 32.479,1.29c14.721,-4.635 52.285,-16.232 61.559,-21.568c5.063,-3.982 9.621,-7.201 13.669,-10.929c9.461,-8.712 21.046,-35.25 24.479,-47.06c-0.188,-1.962 7.356,-16.411 14.669,-29.416c-4.879,1.007 -10.102,0.05 -14.307,-2.867z" id="svg_70"/>
   </g>
  </g>
  <g id="svg_71">
   <g id="svg_72">
    <path fill="#F9B77A" d="m454.612,155.633c-2.063,1.383 -10.407,19.664 -14.535,27.651c-4.733,9.162 -3.713,14.571 -6.218,17.082c-6.967,6.979 -3.907,14.33 5.593,12.271c2.288,-0.496 4.854,-1.171 6.565,-2.621c13.177,-11.131 22.661,-24.327 22.688,-40.313c-0.86,-13.888 -5.952,-19.52 -14.093,-14.07z" id="svg_73"/>
    <path d="m436.403,213.788l0,0c-3.286,0 -5.728,-1.344 -6.697,-3.687c-1.23,-2.964 0.11,-6.813 3.591,-10.298c0.992,-0.994 1.378,-2.683 1.911,-5.019c0.659,-2.887 1.563,-6.839 4.161,-11.866c1.194,-2.314 2.753,-5.506 4.4,-8.889c5.29,-10.848 8.869,-18.035 10.398,-19.06c2.171,-1.453 4.201,-2.189 6.038,-2.189c5.318,0 8.618,5.992 9.293,16.872c-0.021,14.55 -7.534,27.935 -22.969,40.973c-1.807,1.526 -4.389,2.245 -6.911,2.792c-1.13,0.246 -2.212,0.371 -3.215,0.371zm23.804,-59.413c-1.517,0 -3.248,0.646 -5.151,1.92c-1.286,0.86 -6.441,11.436 -9.854,18.434c-1.651,3.39 -3.212,6.591 -4.417,8.92c-2.505,4.85 -3.384,8.688 -4.022,11.491c-0.594,2.595 -1.021,4.47 -2.34,5.789c-2.961,2.966 -4.204,6.249 -3.244,8.563c0.711,1.717 2.616,2.702 5.226,2.702c0.001,0 0.001,0 0.001,0c0.891,0 1.858,-0.111 2.881,-0.333c2.32,-0.504 4.68,-1.147 6.221,-2.45c15.053,-12.718 22.382,-25.706 22.403,-39.708c-0.617,-9.866 -3.351,-15.328 -7.704,-15.328z" id="svg_74"/>
   </g>
   <g id="svg_75">
    <path fill="#DF8F6B" d="m453.965,165.041c-1.106,0.74 -3.274,6.25 -5.604,11.075c0.992,1.027 2.782,3.109 0.974,5.951c-1.879,2.955 -4.524,2.328 -5.553,1.571c-3.043,4.205 -5.575,9.27 -5.863,12.368c-0.581,6.244 -0.263,8.091 6.021,6.729c1.511,-0.327 3.206,-0.773 4.342,-1.732c8.712,-7.361 14.983,-16.086 15.002,-26.659c-0.571,-9.184 -3.938,-12.906 -9.319,-9.303z" id="svg_76"/>
   </g>
   <g id="svg_77">
    <path d="m464.078,175.577l-1.593,-0.028c0.135,-7.523 -1.512,-9.873 -2.917,-10.518c-2.352,-1.079 -5.69,1.804 -5.724,1.833l-1.063,-1.189c0.167,-0.148 4.119,-3.617 7.449,-2.09c2.713,1.245 3.971,5.167 3.848,11.992z" id="svg_78"/>
   </g>
  </g>
  <g id="svg_79">
   <path fill="#FFFFFF" d="m344.451,154.977c-1.065,12.329 9.067,11.845 21.422,12.915c12.36,1.07 22.261,3.287 23.326,-9.042c0.667,-7.694 -8.812,-14.797 -21.171,-15.868c-12.353,-1.07 -22.911,4.301 -23.577,11.995z" id="svg_80"/>
   <path d="m377.505,169.56l0,0c-2.54,0 -5.368,-0.273 -8.368,-0.564c-1.085,-0.105 -2.197,-0.214 -3.33,-0.312s-2.248,-0.183 -3.336,-0.266c-7.252,-0.553 -13.519,-1.03 -16.711,-4.791c-1.744,-2.052 -2.432,-4.905 -2.101,-8.719c0.634,-7.331 9.771,-12.859 21.254,-12.859c1.052,0 2.123,0.047 3.187,0.139c12.776,1.106 22.599,8.611 21.896,16.73c-0.812,9.377 -6.771,10.642 -12.491,10.642zm-12.592,-25.918c-10.649,0 -19.104,4.902 -19.668,11.403c-0.291,3.37 0.273,5.839 1.728,7.55c2.766,3.255 8.721,3.709 15.62,4.234c1.093,0.084 2.212,0.168 3.351,0.268c1.141,0.098 2.256,0.207 3.35,0.313c2.958,0.286 5.752,0.557 8.214,0.557c6.066,0 10.241,-1.563 10.902,-9.188c0.626,-7.243 -8.546,-13.975 -20.444,-15.006c-1.023,-0.086 -2.046,-0.131 -3.053,-0.131z" id="svg_81"/>
  </g>
  <g id="svg_82">
   <path fill="#944E00" d="m355.877,154.689c-0.529,6.111 3.992,11.491 10.102,12.021c6.11,0.526 11.49,-3.995 12.02,-10.106c0.527,-6.104 -3.994,-11.488 -10.104,-12.016c-6.112,-0.529 -11.491,3.995 -12.018,10.101z" id="svg_83"/>
  </g>
  <g id="svg_84">
   <circle cx="368.529" cy="155.646" r="5.326" id="svg_85"/>
  </g>
  <g id="svg_86">
   <circle fill="#FFFFFF" cx="369.798" cy="152.067" r="2.174" id="svg_87"/>
  </g>
  <g id="svg_88">
   <g id="svg_89">
    <path fill="#592C03" d="m391.117,141.957c-0.776,0 -1.562,-0.227 -2.25,-0.699c-20.925,-14.348 -40.496,-4.213 -41.317,-3.774c-1.938,1.036 -4.35,0.307 -5.388,-1.626c-1.04,-1.934 -0.323,-4.339 1.604,-5.384c0.99,-0.535 24.563,-12.954 49.604,4.216c1.813,1.243 2.276,3.724 1.03,5.537c-0.767,1.125 -2.013,1.73 -3.283,1.73z" id="svg_90"/>
   </g>
  </g>
  <g id="svg_91">
   <path fill="#FFFFFF" d="m315.811,146.984c0.229,12.372 -9.849,11.204 -22.252,11.437c-12.399,0.23 -22.428,1.772 -22.66,-10.601c-0.143,-7.723 9.793,-14.167 22.194,-14.398c12.4,-0.233 22.57,5.839 22.718,13.562z" id="svg_92"/>
   <path d="m285.257,159.399c-7.561,0 -14.954,-0.893 -15.153,-11.563c-0.149,-8.148 10.154,-14.973 22.976,-15.211l0.7,-0.006c12.648,0 22.677,6.304 22.826,14.351c0.071,3.829 -0.808,6.627 -2.686,8.556c-3.441,3.536 -9.724,3.589 -16.998,3.651c-1.092,0.009 -2.21,0.019 -3.347,0.04c-1.139,0.021 -2.254,0.054 -3.344,0.085c-1.73,0.049 -3.396,0.097 -4.974,0.097zm8.52,-25.188l-0.67,0.007c-11.941,0.223 -21.549,6.318 -21.412,13.588c0.156,8.407 4.889,10 13.563,10c1.563,0 3.216,-0.048 4.929,-0.097c1.098,-0.032 2.22,-0.064 3.358,-0.086c1.144,-0.021 2.269,-0.031 3.365,-0.04c6.916,-0.06 12.892,-0.109 15.867,-3.169c1.566,-1.608 2.299,-4.034 2.234,-7.415c-0.13,-7.052 -9.656,-12.788 -21.234,-12.788z" id="svg_93"/>
  </g>
  <g id="svg_94">
   <path fill="#944E00" d="m304.43,145.924c0.113,6.133 -4.764,11.195 -10.893,11.31c-6.134,0.114 -11.194,-4.763 -11.308,-10.896c-0.115,-6.128 4.763,-11.191 10.895,-11.305c6.129,-0.116 11.192,4.763 11.306,10.891z" id="svg_95"/>
  </g>
  <g id="svg_96">
   <circle cx="294.924" cy="146.131" r="5.327" id="svg_97"/>
  </g>
  <g id="svg_98">
   <circle fill="#FFFFFF" cx="297.088" cy="142.366" r="2.174" id="svg_99"/>
  </g>
  <g id="svg_100">
   <g id="svg_101">
    <path fill="#592C03" d="m270.398,130.846c-1.361,0 -2.688,-0.698 -3.435,-1.957c-1.118,-1.895 -0.487,-4.337 1.405,-5.455c26.146,-15.439 48.821,-1.455 49.778,-0.851c1.855,1.176 2.41,3.636 1.233,5.495c-1.175,1.855 -3.625,2.41 -5.485,1.241c-0.806,-0.501 -19.636,-11.918 -41.479,0.973c-0.629,0.376 -1.327,0.554 -2.017,0.554z" id="svg_102"/>
   </g>
  </g>
  <g id="svg_103">
   <path d="m311.404,210.645c-5.895,0 -9.762,-1.347 -11.713,-4.055c-4.131,-5.731 1.601,-15.729 5.785,-23.029c1.226,-2.136 2.282,-3.98 2.846,-5.308c3.681,-8.641 6.834,-30.827 6.863,-31.05l1.578,0.222c-0.13,0.919 -3.214,22.621 -6.976,31.452c-0.602,1.415 -1.682,3.297 -2.932,5.477c-3.744,6.534 -9.402,16.407 -5.875,21.306c2.75,3.818 10.787,4.419 23.891,1.78l0.313,1.562c-5.433,1.094 -10.02,1.642 -13.78,1.643z" id="svg_104"/>
  </g>
  <g id="svg_105">
   <g id="svg_106">
    <g id="svg_107">
     <g id="svg_108">
      <g id="svg_109">
       <g id="svg_110">
        <path fill="#000000" d="m466.166,472.299c-11.739,0 -21.291,-9.552 -21.291,-21.291c0,-11.74 9.552,-21.292 21.291,-21.292c11.741,0 21.293,9.552 21.293,21.292c0,11.739 -9.552,21.291 -21.293,21.291zm0,-34.188c-7.112,0 -12.896,5.785 -12.896,12.896c0,7.113 5.784,12.896 12.896,12.896s12.898,-5.783 12.898,-12.896c0.001,-7.111 -5.785,-12.896 -12.898,-12.896z" id="svg_111"/>
       </g>
      </g>
      <g id="svg_112">
       <g id="svg_113">
        <path fill="#000000" d="m466.166,472.898c-12.07,0 -21.891,-9.818 -21.891,-21.891s9.818,-21.892 21.891,-21.892c12.071,0 21.893,9.819 21.893,21.892s-9.821,21.891 -21.893,21.891zm0,-42.583c-11.41,0 -20.691,9.283 -20.691,20.692c0,11.411 9.281,20.691 20.691,20.691c11.409,0 20.693,-9.28 20.693,-20.691c0.001,-11.408 -9.284,-20.692 -20.693,-20.692zm0,34.189c-7.442,0 -13.496,-6.055 -13.496,-13.496s6.054,-13.496 13.496,-13.496c7.443,0 13.498,6.055 13.498,13.496s-6.054,13.496 -13.498,13.496zm0,-25.793c-6.78,0 -12.297,5.516 -12.297,12.297s5.517,12.297 12.297,12.297c6.781,0 12.299,-5.516 12.299,-12.297s-5.517,-12.297 -12.299,-12.297z" id="svg_114"/>
       </g>
      </g>
     </g>
    </g>
    <g id="svg_115">
     <g id="svg_116">
      <g id="svg_117">
       <path fill="#000000" d="m464.672,422.226l0,58.332c0,0.347 0.54,0.696 0.419,1.031c-1.522,4.593 -12.566,8.142 -26.587,8.142c-14.03,0 -25.55,-3.849 -26.749,-8.441l-0.283,-59.063l53.2,0l0,-0.001z" id="svg_118"/>
      </g>
     </g>
     <g id="svg_119">
      <g id="svg_120">
       <path fill="#000000" d="m438.654,490.33c-14.319,0 -26.1,-3.767 -27.403,-8.76l-0.02,-0.579l-0.362,-59.965l55.003,0l0,59.531c0,0.059 0.027,0.16 0.055,0.258c0.069,0.251 0.166,0.595 0.028,0.975c-1.637,4.942 -13.121,8.54 -27.301,8.54zm-26.225,-9.426c1.094,3.765 11.372,8.011 26.225,8.011c13.457,0 24.707,-3.216 26.169,-7.624c0.008,-0.049 -0.027,-0.124 -0.051,-0.211c-0.045,-0.159 -0.1,-0.302 -0.1,-0.524l0,-58.332l-52.598,0l0.355,58.68z" id="svg_121"/>
      </g>
     </g>
    </g>
    <g id="svg_122">
     <g id="svg_123">
      <g id="svg_124">
       <path fill="#FEFEFE" d="m465.871,480.556l0,1.03l-0.181,0c0.122,-0.335 0.181,-0.682 0.181,-1.03z" id="svg_125"/>
      </g>
     </g>
     <g id="svg_126">
      <g id="svg_127">
       <path d="m466.471,482.188l-1.633,0l0.288,-0.804c0.098,-0.267 0.146,-0.546 0.146,-0.827l1.199,0l0,1.631z" id="svg_128"/>
      </g>
     </g>
    </g>
    <g id="svg_129">
     <g id="svg_130">
      <g id="svg_131">
       <ellipse fill="#1e1d1d" cx="438.585" cy="421.795" rx="27.286" ry="9.171" id="svg_132"/>
      </g>
     </g>
     <g id="svg_133">
      <g id="svg_134">
       <path fill="#1e1d1d" d="m438.583,431.569c-15.637,0 -27.886,-4.293 -27.886,-9.772c0,-5.479 12.249,-9.772 27.886,-9.772c15.639,0 27.888,4.294 27.888,9.772c0,5.479 -12.249,9.772 -27.888,9.772zm0,-18.347c-15.964,0 -26.687,4.434 -26.687,8.574c0,4.14 10.723,8.571 26.687,8.571c15.965,0 26.688,-4.432 26.688,-8.571c0.001,-4.141 -10.723,-8.574 -26.688,-8.574z" id="svg_135"/>
      </g>
     </g>
    </g>
    <g id="svg_136">
     <g id="svg_137">
      <g id="svg_138">
       <path fill="#634a4a" d="m462.844,425.993c-4.532,-2.955 -13.69,-4.977 -24.259,-4.977c-10.57,0 -19.728,2.022 -24.261,4.977c4.532,2.955 13.69,4.974 24.261,4.974c10.569,0.003 19.727,-2.019 24.259,-4.974z" id="svg_139"/>
      </g>
     </g>
    </g>
   </g>
   <g id="svg_140">
    <g id="svg_141">
     <g id="svg_142">
      <path fill="#d5cece" d="m424.121,449.445l0,-6.683l1.351,0l0,2.97l2.725,-2.97l1.814,0l-2.516,2.604l2.652,4.078l-1.746,0l-1.836,-3.137l-1.094,1.12l0,2.019l-1.351,0l0,-0.001l0.001,0z" id="svg_143"/>
     </g>
    </g>
    <g id="svg_144">
     <g id="svg_145">
      <path fill="#d5cece" d="m431.792,446.082l-1.163,-0.209c0.131,-0.471 0.357,-0.817 0.676,-1.04c0.318,-0.225 0.793,-0.337 1.422,-0.337c0.572,0 0.997,0.068 1.276,0.201c0.28,0.136 0.477,0.307 0.591,0.516c0.113,0.208 0.171,0.59 0.171,1.147l-0.015,1.494c0,0.427 0.021,0.74 0.063,0.942c0.041,0.201 0.119,0.419 0.23,0.648l-1.269,0c-0.032,-0.084 -0.074,-0.211 -0.124,-0.377c-0.021,-0.075 -0.036,-0.127 -0.044,-0.15c-0.22,0.214 -0.453,0.373 -0.703,0.479c-0.249,0.105 -0.516,0.159 -0.798,0.159c-0.499,0 -0.891,-0.134 -1.178,-0.405c-0.286,-0.271 -0.43,-0.614 -0.43,-1.026c0,-0.273 0.065,-0.518 0.195,-0.73s0.313,-0.377 0.55,-0.492c0.235,-0.114 0.573,-0.213 1.019,-0.3c0.6,-0.112 1.014,-0.215 1.245,-0.313l0,-0.127c0,-0.246 -0.062,-0.421 -0.183,-0.526c-0.122,-0.104 -0.351,-0.157 -0.687,-0.157c-0.229,0 -0.406,0.044 -0.534,0.134c-0.127,0.087 -0.23,0.243 -0.31,0.469zm1.715,1.04c-0.164,0.056 -0.424,0.121 -0.78,0.194c-0.354,0.077 -0.587,0.152 -0.695,0.225c-0.169,0.119 -0.252,0.27 -0.252,0.452c0,0.181 0.067,0.335 0.2,0.464c0.134,0.131 0.305,0.196 0.512,0.196c0.229,0 0.451,-0.074 0.66,-0.227c0.156,-0.115 0.258,-0.256 0.306,-0.424c0.034,-0.11 0.051,-0.319 0.051,-0.626l-0.002,-0.254l0,0z" id="svg_146"/>
     </g>
    </g>
    <g id="svg_147">
     <g id="svg_148">
      <path fill="#d5cece" d="m435.466,444.606l0.713,0l0,-0.365c0,-0.408 0.043,-0.713 0.129,-0.912c0.086,-0.201 0.246,-0.365 0.479,-0.491c0.231,-0.124 0.525,-0.188 0.88,-0.188c0.367,0 0.725,0.054 1.073,0.164l-0.175,0.893c-0.203,-0.05 -0.399,-0.073 -0.587,-0.073c-0.185,0 -0.319,0.045 -0.398,0.129c-0.08,0.087 -0.122,0.253 -0.122,0.499l0,0.342l0.958,0l0,1.008l-0.958,0l0,3.834l-1.28,0l0,-3.834l-0.712,0l0,-1.006l0,0z" id="svg_149"/>
     </g>
    </g>
    <g id="svg_150">
     <g id="svg_151">
      <path fill="#d5cece" d="m438.575,444.606l0.713,0l0,-0.365c0,-0.408 0.044,-0.713 0.129,-0.912c0.086,-0.201 0.246,-0.365 0.479,-0.491c0.232,-0.124 0.525,-0.188 0.882,-0.188c0.365,0 0.723,0.054 1.071,0.164l-0.174,0.893c-0.204,-0.05 -0.398,-0.073 -0.588,-0.073c-0.185,0 -0.319,0.045 -0.398,0.129c-0.08,0.087 -0.122,0.253 -0.122,0.499l0,0.342l0.959,0l0,1.008l-0.959,0l0,3.834l-1.279,0l0,-3.834l-0.712,0l0,-1.006l-0.001,0z" id="svg_152"/>
     </g>
    </g>
    <g id="svg_153">
     <g id="svg_154">
      <path fill="#d5cece" d="m445.048,447.904l1.277,0.215c-0.167,0.469 -0.426,0.825 -0.778,1.071c-0.353,0.243 -0.797,0.365 -1.329,0.365c-0.84,0 -1.464,-0.274 -1.868,-0.825c-0.319,-0.439 -0.479,-0.995 -0.479,-1.67c0,-0.801 0.211,-1.429 0.629,-1.883s0.949,-0.682 1.59,-0.682c0.721,0 1.29,0.239 1.705,0.715c0.417,0.475 0.616,1.203 0.598,2.185l-3.209,0c0.01,0.38 0.112,0.675 0.311,0.888c0.196,0.211 0.442,0.316 0.737,0.316c0.201,0 0.369,-0.056 0.507,-0.164c0.136,-0.109 0.239,-0.288 0.309,-0.531zm0.073,-1.293c-0.01,-0.37 -0.104,-0.653 -0.286,-0.846c-0.183,-0.192 -0.404,-0.288 -0.666,-0.288c-0.279,0 -0.511,0.101 -0.692,0.305c-0.183,0.203 -0.272,0.479 -0.271,0.829l1.915,0l0,0z" id="svg_155"/>
     </g>
    </g>
    <g id="svg_156">
     <g id="svg_157">
      <path fill="#d5cece" d="m450.24,447.904l1.275,0.215c-0.165,0.469 -0.425,0.825 -0.776,1.071c-0.353,0.243 -0.798,0.365 -1.33,0.365c-0.841,0 -1.464,-0.274 -1.867,-0.825c-0.32,-0.439 -0.479,-0.995 -0.479,-1.67c0,-0.801 0.211,-1.429 0.629,-1.883s0.95,-0.682 1.591,-0.682c0.72,0 1.289,0.239 1.705,0.715c0.417,0.475 0.616,1.203 0.597,2.185l-3.209,0c0.01,0.38 0.113,0.675 0.311,0.888c0.197,0.211 0.443,0.316 0.738,0.316c0.2,0 0.369,-0.056 0.506,-0.164c0.135,-0.109 0.239,-0.288 0.309,-0.531zm0.073,-1.293c-0.01,-0.37 -0.104,-0.653 -0.286,-0.846c-0.183,-0.192 -0.403,-0.288 -0.666,-0.288c-0.278,0 -0.511,0.101 -0.693,0.305c-0.182,0.203 -0.271,0.479 -0.27,0.829l1.915,0l0,0z" id="svg_158"/>
     </g>
    </g>
    <g id="svg_159">
     <g id="svg_160">
      <path fill="#d5cece" d="m420.625,455.807l1.181,0l0,0.663c0.423,-0.516 0.925,-0.772 1.51,-0.772c0.309,0 0.578,0.065 0.807,0.191c0.228,0.127 0.416,0.321 0.56,0.579c0.215,-0.261 0.443,-0.452 0.688,-0.579c0.246,-0.126 0.51,-0.191 0.789,-0.191c0.355,0 0.656,0.074 0.902,0.218c0.246,0.143 0.43,0.355 0.552,0.635c0.088,0.206 0.133,0.541 0.133,1.002l0,3.097l-1.281,0l0,-2.769c0,-0.478 -0.044,-0.789 -0.133,-0.928c-0.118,-0.183 -0.301,-0.273 -0.546,-0.273c-0.179,0 -0.348,0.054 -0.507,0.163c-0.158,0.11 -0.271,0.27 -0.341,0.48c-0.07,0.211 -0.105,0.546 -0.105,1l0,2.324l-1.28,0l0,-2.651c0,-0.472 -0.023,-0.775 -0.069,-0.914c-0.044,-0.136 -0.116,-0.236 -0.212,-0.305c-0.096,-0.067 -0.225,-0.101 -0.39,-0.101c-0.198,0 -0.375,0.054 -0.531,0.159c-0.158,0.108 -0.273,0.261 -0.34,0.462c-0.069,0.201 -0.104,0.534 -0.104,0.998l0,2.352l-1.281,0l-0.002,-4.84l0,0z" id="svg_161"/>
     </g>
    </g>
    <g id="svg_162">
     <g id="svg_163">
      <path fill="#d5cece" d="m429.978,457.285l-1.161,-0.211c0.131,-0.469 0.355,-0.815 0.676,-1.04c0.318,-0.225 0.793,-0.337 1.422,-0.337c0.572,0 0.996,0.07 1.276,0.203c0.278,0.136 0.476,0.307 0.59,0.516c0.113,0.208 0.171,0.59 0.171,1.146l-0.014,1.496c0,0.425 0.021,0.738 0.062,0.939c0.041,0.204 0.119,0.422 0.231,0.651l-1.269,0c-0.034,-0.087 -0.075,-0.211 -0.124,-0.377c-0.022,-0.077 -0.036,-0.127 -0.045,-0.15c-0.22,0.211 -0.453,0.37 -0.702,0.476c-0.25,0.105 -0.517,0.159 -0.798,0.159c-0.499,0 -0.892,-0.133 -1.179,-0.405c-0.286,-0.269 -0.43,-0.611 -0.43,-1.023c0,-0.273 0.066,-0.518 0.194,-0.73c0.132,-0.216 0.315,-0.377 0.55,-0.494c0.236,-0.112 0.575,-0.213 1.02,-0.298c0.6,-0.112 1.015,-0.218 1.245,-0.313l0,-0.129c0,-0.243 -0.061,-0.422 -0.183,-0.524c-0.122,-0.105 -0.35,-0.157 -0.688,-0.157c-0.227,0 -0.406,0.045 -0.532,0.134c-0.13,0.083 -0.232,0.244 -0.312,0.468zm1.715,1.037c-0.165,0.057 -0.425,0.122 -0.78,0.197c-0.354,0.075 -0.588,0.149 -0.696,0.223c-0.168,0.119 -0.251,0.27 -0.251,0.452c0,0.18 0.068,0.335 0.2,0.464c0.134,0.131 0.304,0.196 0.511,0.196c0.23,0 0.451,-0.075 0.662,-0.228c0.155,-0.114 0.257,-0.255 0.306,-0.424c0.032,-0.11 0.05,-0.318 0.05,-0.625l-0.002,-0.255l0,0z" id="svg_164"/>
     </g>
    </g>
    <g id="svg_165">
     <g id="svg_166">
      <path fill="#d5cece" d="m438.435,457.238l-1.264,0.227c-0.041,-0.253 -0.138,-0.439 -0.288,-0.568c-0.149,-0.129 -0.346,-0.192 -0.585,-0.192c-0.321,0 -0.575,0.11 -0.764,0.33c-0.19,0.221 -0.285,0.588 -0.285,1.105c0,0.574 0.097,0.979 0.289,1.218c0.193,0.237 0.452,0.354 0.775,0.354c0.244,0 0.443,-0.068 0.598,-0.206c0.155,-0.139 0.265,-0.375 0.328,-0.715l1.259,0.216c-0.131,0.576 -0.382,1.014 -0.752,1.307c-0.372,0.295 -0.868,0.442 -1.491,0.442c-0.708,0 -1.272,-0.222 -1.693,-0.67c-0.422,-0.447 -0.63,-1.065 -0.63,-1.854c0,-0.799 0.211,-1.422 0.633,-1.869c0.423,-0.443 0.993,-0.668 1.714,-0.668c0.59,0 1.059,0.129 1.407,0.382c0.347,0.255 0.596,0.641 0.749,1.161z" id="svg_167"/>
     </g>
    </g>
    <g id="svg_168">
     <g id="svg_169">
      <path fill="#d5cece" d="m440.683,453.966l0,2.457c0.413,-0.482 0.906,-0.724 1.479,-0.724c0.296,0 0.563,0.054 0.798,0.164c0.236,0.11 0.417,0.248 0.535,0.419c0.121,0.171 0.203,0.361 0.246,0.567c0.045,0.206 0.066,0.526 0.066,0.96l0,2.841l-1.279,0l0,-2.558c0,-0.508 -0.026,-0.829 -0.074,-0.967c-0.049,-0.136 -0.135,-0.244 -0.258,-0.326c-0.124,-0.079 -0.277,-0.119 -0.463,-0.119c-0.214,0 -0.402,0.052 -0.571,0.154c-0.166,0.104 -0.289,0.261 -0.366,0.467c-0.077,0.208 -0.116,0.518 -0.116,0.925l0,2.424l-1.281,0l0,-6.682l1.284,0l0,-0.002z" id="svg_170"/>
     </g>
    </g>
    <g id="svg_171">
     <g id="svg_172">
      <path fill="#d5cece" d="m447.912,459.107l1.276,0.216c-0.165,0.468 -0.426,0.824 -0.778,1.067c-0.353,0.246 -0.797,0.368 -1.328,0.368c-0.841,0 -1.465,-0.274 -1.869,-0.824c-0.319,-0.44 -0.478,-0.998 -0.478,-1.671c0,-0.803 0.21,-1.429 0.628,-1.883c0.419,-0.454 0.95,-0.682 1.591,-0.682c0.721,0 1.289,0.236 1.705,0.712c0.418,0.476 0.617,1.206 0.597,2.188l-3.209,0c0.01,0.38 0.112,0.675 0.311,0.886c0.197,0.211 0.442,0.316 0.738,0.316c0.2,0 0.368,-0.054 0.506,-0.164c0.137,-0.107 0.24,-0.285 0.31,-0.529zm0.073,-1.295c-0.01,-0.369 -0.104,-0.65 -0.287,-0.843c-0.183,-0.194 -0.404,-0.29 -0.665,-0.29c-0.28,0 -0.512,0.103 -0.693,0.307c-0.183,0.203 -0.273,0.479 -0.271,0.829l1.916,0l0,-0.003z" id="svg_173"/>
     </g>
    </g>
    <g id="svg_174">
     <g id="svg_175">
      <path fill="#d5cece" d="m454.703,460.648l-1.28,0l0,-2.471c0,-0.525 -0.026,-0.86 -0.082,-1.017c-0.055,-0.152 -0.143,-0.272 -0.267,-0.356s-0.271,-0.126 -0.444,-0.126c-0.223,0 -0.421,0.061 -0.597,0.18c-0.176,0.122 -0.298,0.284 -0.362,0.482c-0.066,0.202 -0.099,0.572 -0.099,1.113l0,2.192l-1.281,0l0,-4.84l1.19,0l0,0.713c0.423,-0.549 0.954,-0.822 1.595,-0.822c0.282,0 0.54,0.051 0.774,0.152c0.234,0.103 0.411,0.231 0.531,0.389c0.12,0.159 0.203,0.337 0.251,0.538c0.047,0.202 0.07,0.487 0.07,0.862l0,3.011l0.001,0z" id="svg_176"/>
     </g>
    </g>
    <g id="svg_177">
     <g id="svg_178">
      <path fill="#d5cece" d="m423.829,471.85l0,-6.681l1.281,0l0,6.681l-1.281,0z" id="svg_179"/>
     </g>
    </g>
    <g id="svg_180">
     <g id="svg_181">
      <path fill="#d5cece" d="m427.38,468.485l-1.161,-0.208c0.131,-0.469 0.355,-0.815 0.676,-1.04c0.318,-0.225 0.793,-0.337 1.422,-0.337c0.572,0 0.996,0.067 1.276,0.201c0.278,0.136 0.476,0.31 0.59,0.518c0.114,0.209 0.171,0.59 0.171,1.146l-0.014,1.497c0,0.424 0.021,0.737 0.062,0.938c0.041,0.202 0.119,0.42 0.231,0.649l-1.269,0c-0.034,-0.085 -0.075,-0.211 -0.124,-0.377c-0.022,-0.075 -0.036,-0.127 -0.045,-0.15c-0.22,0.213 -0.453,0.372 -0.702,0.478c-0.25,0.105 -0.517,0.159 -0.798,0.159c-0.499,0 -0.892,-0.133 -1.178,-0.404c-0.287,-0.272 -0.431,-0.614 -0.431,-1.026c0,-0.274 0.066,-0.516 0.194,-0.73c0.132,-0.214 0.315,-0.378 0.55,-0.492c0.236,-0.115 0.575,-0.213 1.02,-0.3c0.6,-0.112 1.015,-0.216 1.245,-0.313l0,-0.127c0,-0.246 -0.061,-0.422 -0.183,-0.527c-0.122,-0.103 -0.35,-0.156 -0.688,-0.156c-0.227,0 -0.406,0.044 -0.532,0.136c-0.129,0.084 -0.232,0.241 -0.312,0.465zm1.715,1.04c-0.165,0.055 -0.425,0.12 -0.78,0.195c-0.354,0.074 -0.588,0.151 -0.696,0.225c-0.168,0.119 -0.251,0.27 -0.251,0.449c0,0.181 0.068,0.335 0.2,0.467c0.134,0.131 0.304,0.196 0.511,0.196c0.23,0 0.451,-0.075 0.662,-0.228c0.155,-0.114 0.258,-0.257 0.306,-0.426c0.032,-0.107 0.05,-0.316 0.05,-0.623l-0.002,-0.255l0,0z" id="svg_182"/>
     </g>
    </g>
    <g id="svg_183">
     <g id="svg_184">
      <path fill="#d5cece" d="m431.164,470.47l1.285,-0.196c0.055,0.248 0.166,0.438 0.334,0.566c0.166,0.129 0.4,0.194 0.701,0.194c0.33,0 0.578,-0.061 0.747,-0.183c0.112,-0.084 0.169,-0.199 0.169,-0.34c0,-0.099 -0.03,-0.178 -0.092,-0.243c-0.063,-0.059 -0.206,-0.117 -0.426,-0.169c-1.034,-0.228 -1.689,-0.436 -1.967,-0.625c-0.382,-0.261 -0.574,-0.626 -0.574,-1.09c0,-0.419 0.166,-0.771 0.497,-1.056c0.33,-0.286 0.845,-0.429 1.539,-0.429c0.664,0 1.155,0.107 1.477,0.325c0.322,0.216 0.545,0.534 0.666,0.956l-1.208,0.225c-0.052,-0.188 -0.15,-0.333 -0.294,-0.434c-0.145,-0.101 -0.351,-0.149 -0.617,-0.149c-0.338,0 -0.579,0.047 -0.726,0.141c-0.097,0.067 -0.145,0.154 -0.145,0.26c0,0.091 0.042,0.169 0.126,0.231c0.116,0.085 0.516,0.206 1.197,0.361c0.683,0.154 1.158,0.344 1.429,0.569c0.269,0.229 0.401,0.545 0.401,0.953c0,0.444 -0.186,0.826 -0.556,1.146c-0.373,0.318 -0.921,0.478 -1.646,0.478c-0.661,0 -1.182,-0.134 -1.567,-0.4c-0.382,-0.269 -0.632,-0.632 -0.75,-1.091z" id="svg_185"/>
     </g>
    </g>
    <g id="svg_186">
     <g id="svg_187">
      <path fill="#d5cece" d="m436.356,470.47l1.285,-0.196c0.055,0.248 0.166,0.438 0.333,0.566s0.4,0.194 0.701,0.194c0.331,0 0.58,-0.061 0.747,-0.183c0.113,-0.084 0.17,-0.199 0.17,-0.34c0,-0.099 -0.03,-0.178 -0.092,-0.243c-0.063,-0.059 -0.206,-0.117 -0.427,-0.169c-1.033,-0.228 -1.688,-0.436 -1.966,-0.625c-0.383,-0.261 -0.573,-0.626 -0.573,-1.09c0,-0.419 0.165,-0.771 0.496,-1.056c0.33,-0.286 0.844,-0.429 1.539,-0.429c0.664,0 1.155,0.107 1.477,0.325c0.322,0.216 0.545,0.534 0.667,0.956l-1.209,0.225c-0.052,-0.188 -0.149,-0.333 -0.294,-0.434c-0.144,-0.101 -0.351,-0.149 -0.617,-0.149c-0.337,0 -0.578,0.047 -0.725,0.141c-0.098,0.067 -0.146,0.154 -0.146,0.26c0,0.091 0.043,0.169 0.128,0.231c0.115,0.085 0.515,0.206 1.196,0.361c0.683,0.154 1.158,0.344 1.428,0.569c0.27,0.229 0.403,0.545 0.403,0.953c0,0.444 -0.187,0.826 -0.558,1.146c-0.371,0.318 -0.92,0.478 -1.646,0.478c-0.659,0 -1.181,-0.134 -1.566,-0.4c-0.384,-0.269 -0.632,-0.632 -0.751,-1.091z" id="svg_188"/>
     </g>
    </g>
    <g id="svg_189">
     <g id="svg_190">
      <path fill="#d5cece" d="m444.802,470.309l1.277,0.215c-0.167,0.469 -0.426,0.824 -0.778,1.068c-0.353,0.246 -0.797,0.367 -1.329,0.367c-0.84,0 -1.464,-0.273 -1.868,-0.824c-0.319,-0.44 -0.478,-0.998 -0.478,-1.67c0,-0.801 0.21,-1.429 0.628,-1.883c0.418,-0.455 0.95,-0.682 1.591,-0.682c0.72,0 1.289,0.236 1.705,0.714c0.417,0.474 0.615,1.204 0.597,2.186l-3.209,0c0.01,0.38 0.112,0.675 0.311,0.886c0.197,0.211 0.442,0.315 0.738,0.315c0.2,0 0.368,-0.054 0.506,-0.163c0.136,-0.109 0.24,-0.286 0.309,-0.529zm0.073,-1.293c-0.011,-0.373 -0.105,-0.654 -0.287,-0.846c-0.183,-0.194 -0.404,-0.291 -0.666,-0.291c-0.279,0 -0.511,0.104 -0.692,0.307c-0.183,0.204 -0.273,0.48 -0.271,0.83l1.916,0l0,0z" id="svg_191"/>
     </g>
    </g>
    <g id="svg_192">
     <g id="svg_193">
      <path fill="#d5cece" d="m451.594,471.85l-1.281,0l0,-2.472c0,-0.522 -0.025,-0.859 -0.081,-1.014c-0.055,-0.152 -0.143,-0.271 -0.268,-0.358c-0.123,-0.085 -0.271,-0.127 -0.443,-0.127c-0.223,0 -0.421,0.062 -0.597,0.183c-0.176,0.122 -0.298,0.281 -0.363,0.482c-0.065,0.199 -0.099,0.572 -0.099,1.113l0,2.192l-1.28,0l0,-4.84l1.19,0l0,0.71c0.423,-0.546 0.954,-0.822 1.594,-0.822c0.283,0 0.541,0.052 0.775,0.155c0.234,0.101 0.411,0.229 0.531,0.389c0.12,0.156 0.203,0.337 0.251,0.538c0.047,0.199 0.07,0.487 0.07,0.86l0,3.011l0.001,0z" id="svg_194"/>
     </g>
    </g>
   </g>
  </g>
  <g id="svg_195">
   <g id="svg_196">
    <g id="svg_197">
     <g id="svg_198">
      <rect x="385.354" y="462.797" transform="matrix(-0.3703 -0.9289 0.9289 -0.3703 95.3433 999.2242)" fill="#EEEEEE" width="2.002" height="8.999" id="svg_199"/>
     </g>
    </g>
    <g id="svg_200">
     <g id="svg_201">
      <path d="m382.881,470.818l-1.11,-2.785l8.36,-3.33l1.11,2.785l-8.36,3.33z" id="svg_202"/>
     </g>
    </g>
   </g>
   <g id="svg_203">
    <g stroke-opacity="0" id="svg_204">
     <g id="svg_205">
      <rect stroke="#000000" x="364.273" y="454.884" transform="matrix(-0.3701 -0.929 0.929 -0.3701 62.0366 991.8333)" fill="#bef1e1" width="6" height="40.002" id="svg_206"/>
     </g>
    </g>
    <g id="svg_207">
     <g id="svg_208">
      <path fill="#bef1e1" d="m350.175,485.998l-2.59,-6.502l38.09,-15.172l2.592,6.504l-38.092,15.17zm-1.29,-5.943l1.851,4.646l36.23,-14.432l-1.85,-4.646l-36.231,14.432z" id="svg_209"/>
     </g>
    </g>
   </g>
   <g id="svg_210">
    <g id="svg_211">
     <g id="svg_212">
      <polygon fill="#666666" points="350.058,485.703 347.689,479.754 342.263,485.359     " id="svg_213"/>
     </g>
    </g>
    <g id="svg_214">
     <g id="svg_215">
      <path d="m342.056,485.443l6.356,-6.572l2.777,6.973l-9.133,-0.401zm5.837,-5.179l-4.494,4.645l6.456,0.285l-1.962,-4.93z" id="svg_216"/>
     </g>
    </g>
   </g>
   <g id="svg_217">
    <g id="svg_218">
     <g id="svg_219">
      <path fill="#000000" d="m354.84,480.783l-0.727,-0.889l0.262,-0.105l0.456,0.59l-0.09,-0.734l0.259,-0.105l0.436,0.6l-0.069,-0.744l0.265,-0.105l0.077,1.148l-0.258,0.102l-0.436,-0.584l0.088,0.725l-0.263,0.101z" id="svg_220"/>
     </g>
    </g>
    <g id="svg_221">
     <g id="svg_222">
      <path fill="#000000" d="m356.636,479.693l0.286,-0.064c0.005,0.113 -0.02,0.211 -0.073,0.291c-0.055,0.08 -0.137,0.145 -0.248,0.188c-0.178,0.07 -0.33,0.064 -0.463,-0.018c-0.104,-0.064 -0.184,-0.17 -0.239,-0.311c-0.067,-0.168 -0.074,-0.318 -0.024,-0.447c0.05,-0.131 0.144,-0.223 0.276,-0.277c0.151,-0.059 0.291,-0.059 0.418,0.008c0.127,0.064 0.229,0.201 0.309,0.408l-0.675,0.27c0.034,0.078 0.08,0.133 0.139,0.16c0.062,0.027 0.121,0.029 0.183,0.006c0.042,-0.018 0.074,-0.043 0.094,-0.078c0.016,-0.034 0.023,-0.079 0.017,-0.136zm-0.092,-0.279c-0.033,-0.076 -0.076,-0.127 -0.131,-0.152c-0.055,-0.023 -0.109,-0.027 -0.164,-0.006c-0.06,0.023 -0.099,0.064 -0.12,0.123s-0.017,0.123 0.014,0.197l0.401,-0.162z" id="svg_223"/>
     </g>
    </g>
    <g id="svg_224">
     <g id="svg_225">
      <path fill="#000000" d="m357.255,479.82l-0.56,-1.402l0.269,-0.105l0.202,0.504c0.045,-0.125 0.125,-0.213 0.239,-0.26c0.122,-0.047 0.243,-0.045 0.36,0.014c0.114,0.057 0.208,0.17 0.273,0.338c0.069,0.172 0.083,0.322 0.037,0.451c-0.046,0.127 -0.128,0.213 -0.246,0.26c-0.057,0.023 -0.12,0.031 -0.188,0.023c-0.067,-0.006 -0.135,-0.029 -0.196,-0.068l0.059,0.146l-0.249,0.099zm0.057,-0.634c0.042,0.104 0.089,0.176 0.144,0.213c0.074,0.055 0.15,0.063 0.229,0.031c0.059,-0.021 0.1,-0.066 0.122,-0.135c0.021,-0.066 0.01,-0.156 -0.033,-0.264c-0.047,-0.117 -0.103,-0.193 -0.163,-0.229c-0.063,-0.033 -0.127,-0.039 -0.192,-0.012c-0.064,0.025 -0.108,0.072 -0.131,0.139c-0.027,0.069 -0.017,0.153 0.024,0.257z" id="svg_226"/>
     </g>
    </g>
    <g id="svg_227">
     <g id="svg_228">
      <path fill="#000000" d="m359.398,478.969l-0.25,0.1l-0.061,-0.148c-0.019,0.074 -0.051,0.137 -0.095,0.188c-0.046,0.051 -0.097,0.088 -0.154,0.109c-0.116,0.047 -0.235,0.039 -0.355,-0.02c-0.121,-0.063 -0.215,-0.176 -0.282,-0.344c-0.068,-0.174 -0.081,-0.32 -0.035,-0.441c0.045,-0.123 0.131,-0.207 0.255,-0.258c0.112,-0.045 0.229,-0.037 0.352,0.023l-0.201,-0.506l0.268,-0.105l0.558,1.402zm-0.93,-0.244c0.042,0.107 0.089,0.182 0.14,0.217c0.069,0.055 0.146,0.064 0.224,0.031c0.062,-0.021 0.104,-0.07 0.126,-0.141c0.021,-0.068 0.013,-0.156 -0.028,-0.262c-0.047,-0.117 -0.103,-0.193 -0.163,-0.229c-0.063,-0.035 -0.128,-0.039 -0.193,-0.012c-0.063,0.025 -0.107,0.072 -0.129,0.139c-0.026,0.071 -0.018,0.155 0.023,0.257z" id="svg_229"/>
     </g>
    </g>
    <g id="svg_230">
     <g id="svg_231">
      <path fill="#000000" d="m360.122,478.305l0.286,-0.063c0.005,0.113 -0.021,0.209 -0.074,0.289c-0.054,0.082 -0.137,0.145 -0.248,0.188c-0.178,0.072 -0.33,0.066 -0.461,-0.018c-0.104,-0.064 -0.185,-0.168 -0.241,-0.311c-0.065,-0.168 -0.074,-0.316 -0.024,-0.447c0.05,-0.129 0.143,-0.223 0.278,-0.275c0.149,-0.061 0.289,-0.059 0.415,0.008c0.129,0.063 0.231,0.201 0.309,0.408l-0.673,0.27c0.031,0.078 0.081,0.131 0.139,0.158c0.062,0.029 0.12,0.031 0.182,0.008c0.043,-0.02 0.074,-0.043 0.094,-0.078c0.016,-0.036 0.024,-0.081 0.018,-0.137zm-0.092,-0.278c-0.033,-0.078 -0.076,-0.129 -0.132,-0.154s-0.109,-0.027 -0.163,-0.006c-0.06,0.023 -0.099,0.064 -0.121,0.123c-0.021,0.059 -0.017,0.123 0.014,0.197l0.402,-0.16z" id="svg_232"/>
     </g>
    </g>
    <g id="svg_233">
     <g id="svg_234">
      <path fill="#000000" d="m360.543,478.178l0.252,-0.15c0.033,0.049 0.072,0.08 0.119,0.094c0.046,0.012 0.101,0.006 0.162,-0.018c0.07,-0.029 0.117,-0.064 0.143,-0.104c0.018,-0.027 0.02,-0.057 0.008,-0.086c-0.01,-0.021 -0.021,-0.035 -0.041,-0.043c-0.018,-0.008 -0.054,-0.008 -0.104,0c-0.236,0.039 -0.391,0.049 -0.465,0.033c-0.103,-0.021 -0.173,-0.082 -0.212,-0.182c-0.035,-0.088 -0.029,-0.176 0.017,-0.264c0.044,-0.088 0.142,-0.16 0.288,-0.219c0.14,-0.055 0.249,-0.074 0.335,-0.055c0.087,0.018 0.16,0.064 0.223,0.145l-0.235,0.148c-0.027,-0.035 -0.061,-0.059 -0.098,-0.066c-0.04,-0.01 -0.089,-0.002 -0.144,0.02c-0.071,0.027 -0.118,0.061 -0.142,0.09c-0.015,0.023 -0.018,0.047 -0.008,0.068c0.007,0.02 0.021,0.031 0.046,0.037c0.029,0.008 0.126,0 0.281,-0.023c0.155,-0.025 0.271,-0.025 0.349,0c0.075,0.023 0.129,0.08 0.163,0.166c0.037,0.094 0.029,0.189 -0.021,0.287c-0.051,0.1 -0.15,0.178 -0.305,0.238c-0.14,0.055 -0.26,0.07 -0.362,0.045c-0.102,-0.021 -0.186,-0.075 -0.249,-0.161z" id="svg_235"/>
     </g>
    </g>
    <g id="svg_236">
     <g id="svg_237">
      <path fill="#000000" d="m361.383,476.84l-0.101,-0.25l0.27,-0.105l0.101,0.25l-0.27,0.105zm0.459,1.154l-0.404,-1.018l0.271,-0.107l0.404,1.018l-0.271,0.107z" id="svg_238"/>
     </g>
    </g>
    <g id="svg_239">
     <g id="svg_240">
      <path fill="#000000" d="m362.39,477.854l0.32,-0.084c0.021,0.033 0.042,0.053 0.066,0.059c0.031,0.01 0.076,0.002 0.131,-0.02c0.07,-0.027 0.118,-0.061 0.146,-0.096c0.02,-0.021 0.025,-0.053 0.026,-0.09c-0.001,-0.025 -0.012,-0.066 -0.037,-0.127l-0.059,-0.148c-0.036,0.143 -0.116,0.238 -0.239,0.285c-0.136,0.057 -0.268,0.041 -0.394,-0.043c-0.099,-0.066 -0.176,-0.168 -0.229,-0.305c-0.067,-0.17 -0.078,-0.316 -0.033,-0.439c0.047,-0.123 0.132,-0.207 0.254,-0.256c0.125,-0.049 0.25,-0.037 0.377,0.041l-0.057,-0.143l0.25,-0.102l0.364,0.912c0.048,0.121 0.073,0.215 0.078,0.281c0.002,0.068 -0.007,0.125 -0.027,0.174c-0.023,0.049 -0.061,0.094 -0.112,0.137c-0.052,0.041 -0.124,0.082 -0.216,0.117c-0.171,0.07 -0.306,0.088 -0.401,0.059c-0.095,-0.029 -0.16,-0.09 -0.196,-0.182c-0.003,-0.007 -0.008,-0.017 -0.012,-0.03zm0.003,-0.692c0.043,0.107 0.095,0.178 0.155,0.213c0.063,0.031 0.123,0.037 0.186,0.012c0.064,-0.025 0.11,-0.072 0.137,-0.143c0.024,-0.07 0.017,-0.154 -0.023,-0.256c-0.042,-0.105 -0.095,-0.174 -0.158,-0.209c-0.063,-0.033 -0.129,-0.037 -0.194,-0.01c-0.064,0.023 -0.107,0.07 -0.13,0.139c-0.025,0.067 -0.015,0.151 0.027,0.254z" id="svg_241"/>
     </g>
    </g>
    <g id="svg_242">
     <g id="svg_243">
      <path fill="#000000" d="m364.508,476.932l-0.269,0.107l-0.206,-0.52c-0.044,-0.109 -0.077,-0.18 -0.104,-0.205c-0.023,-0.027 -0.053,-0.045 -0.086,-0.053c-0.031,-0.01 -0.066,-0.006 -0.104,0.01c-0.046,0.018 -0.084,0.049 -0.11,0.088c-0.026,0.041 -0.039,0.084 -0.035,0.133c0.002,0.047 0.027,0.127 0.072,0.242l0.185,0.459l-0.271,0.105l-0.405,-1.016l0.25,-0.102l0.062,0.152c0.042,-0.15 0.131,-0.254 0.266,-0.307c0.061,-0.023 0.117,-0.035 0.175,-0.035c0.059,0.004 0.107,0.016 0.146,0.039c0.037,0.021 0.07,0.055 0.097,0.092c0.027,0.039 0.057,0.098 0.086,0.174l0.251,0.637z" id="svg_244"/>
     </g>
    </g>
    <g id="svg_245">
     <g id="svg_246">
      <path fill="#000000" d="m364.903,475.598l0.246,-0.1l0.057,0.139c0.046,-0.143 0.13,-0.236 0.253,-0.285c0.065,-0.025 0.126,-0.035 0.187,-0.027c0.058,0.008 0.112,0.033 0.165,0.074c0.022,-0.072 0.055,-0.133 0.097,-0.18c0.041,-0.049 0.091,-0.082 0.149,-0.105c0.073,-0.029 0.144,-0.041 0.207,-0.031s0.12,0.039 0.168,0.088c0.036,0.035 0.074,0.104 0.112,0.201l0.259,0.648l-0.27,0.105l-0.231,-0.58c-0.04,-0.102 -0.074,-0.162 -0.104,-0.184c-0.039,-0.029 -0.086,-0.033 -0.138,-0.014c-0.037,0.016 -0.068,0.041 -0.094,0.076c-0.023,0.037 -0.033,0.08 -0.03,0.131c0.004,0.051 0.022,0.123 0.062,0.219l0.194,0.488l-0.27,0.107l-0.222,-0.559c-0.04,-0.1 -0.069,-0.16 -0.09,-0.186c-0.022,-0.023 -0.045,-0.041 -0.071,-0.047c-0.025,-0.006 -0.056,-0.002 -0.09,0.012c-0.041,0.018 -0.074,0.043 -0.099,0.078c-0.024,0.037 -0.035,0.076 -0.033,0.125c0.004,0.049 0.023,0.121 0.063,0.219l0.196,0.494l-0.27,0.105l-0.403,-1.011z" id="svg_247"/>
     </g>
    </g>
    <g id="svg_248">
     <g id="svg_249">
      <path fill="#000000" d="m366.99,475.127l-0.262,0.051c-0.012,-0.107 0.008,-0.197 0.056,-0.273c0.048,-0.074 0.139,-0.137 0.271,-0.189c0.12,-0.047 0.216,-0.068 0.285,-0.064c0.07,0.008 0.125,0.025 0.167,0.061s0.085,0.109 0.132,0.229l0.123,0.313c0.035,0.09 0.064,0.154 0.092,0.193c0.023,0.039 0.06,0.078 0.103,0.117l-0.267,0.104c-0.015,-0.014 -0.033,-0.037 -0.059,-0.068c-0.011,-0.014 -0.019,-0.023 -0.021,-0.027c-0.028,0.063 -0.063,0.117 -0.107,0.16s-0.095,0.076 -0.153,0.1c-0.104,0.043 -0.198,0.047 -0.282,0.014c-0.082,-0.031 -0.143,-0.094 -0.177,-0.18c-0.021,-0.057 -0.028,-0.113 -0.021,-0.17c0.01,-0.057 0.035,-0.105 0.075,-0.148s0.104,-0.094 0.188,-0.148c0.117,-0.072 0.194,-0.129 0.234,-0.17l-0.01,-0.027c-0.021,-0.051 -0.049,-0.082 -0.082,-0.094c-0.035,-0.012 -0.087,-0.004 -0.158,0.023c-0.048,0.02 -0.081,0.043 -0.102,0.072c-0.018,0.023 -0.026,0.066 -0.025,0.121zm0.447,0.072c-0.029,0.025 -0.079,0.063 -0.146,0.107c-0.068,0.047 -0.111,0.08 -0.129,0.104c-0.024,0.039 -0.029,0.078 -0.014,0.117c0.015,0.037 0.041,0.063 0.08,0.08c0.039,0.016 0.081,0.016 0.124,-0.002c0.049,-0.02 0.088,-0.055 0.118,-0.104c0.023,-0.037 0.034,-0.076 0.03,-0.115c-0.004,-0.023 -0.018,-0.068 -0.043,-0.135l-0.02,-0.052z" id="svg_250"/>
     </g>
    </g>
    <g id="svg_251">
     <g id="svg_252">
      <path fill="#000000" d="m368.761,474.408l-0.245,0.154c-0.03,-0.051 -0.066,-0.082 -0.109,-0.096c-0.041,-0.016 -0.087,-0.014 -0.138,0.006c-0.067,0.027 -0.111,0.072 -0.135,0.137c-0.021,0.061 -0.01,0.145 0.033,0.254c0.049,0.121 0.104,0.199 0.162,0.232c0.061,0.033 0.126,0.037 0.194,0.01c0.051,-0.021 0.087,-0.053 0.107,-0.094c0.021,-0.043 0.023,-0.102 0.009,-0.18l0.281,-0.059c0.021,0.133 0.005,0.244 -0.049,0.338c-0.052,0.094 -0.144,0.166 -0.275,0.219c-0.147,0.059 -0.284,0.059 -0.411,0c-0.125,-0.059 -0.223,-0.17 -0.287,-0.338c-0.067,-0.168 -0.075,-0.316 -0.023,-0.443c0.052,-0.129 0.152,-0.225 0.305,-0.285c0.124,-0.049 0.233,-0.061 0.326,-0.037c0.095,0.026 0.181,0.087 0.255,0.182z" id="svg_253"/>
     </g>
    </g>
    <g id="svg_254">
     <g id="svg_255">
      <path fill="#000000" d="m368.96,473.533l0.205,0.516c0.048,-0.137 0.131,-0.227 0.252,-0.273c0.063,-0.025 0.121,-0.035 0.182,-0.033c0.06,0.002 0.107,0.018 0.146,0.043s0.072,0.059 0.099,0.098c0.025,0.041 0.06,0.105 0.096,0.197l0.235,0.596l-0.268,0.107l-0.214,-0.537c-0.042,-0.107 -0.074,-0.174 -0.097,-0.197c-0.021,-0.023 -0.05,-0.039 -0.081,-0.047c-0.032,-0.006 -0.068,-0.002 -0.107,0.014c-0.046,0.018 -0.08,0.045 -0.106,0.08c-0.026,0.037 -0.038,0.078 -0.037,0.129s0.019,0.117 0.053,0.203l0.202,0.51l-0.271,0.107l-0.559,-1.404l0.27,-0.109z" id="svg_256"/>
     </g>
    </g>
    <g id="svg_257">
     <g id="svg_258">
      <path fill="#000000" d="m370.908,474.01l0.286,-0.063c0.005,0.113 -0.021,0.209 -0.074,0.289c-0.054,0.082 -0.137,0.145 -0.248,0.188c-0.177,0.072 -0.33,0.064 -0.462,-0.018c-0.103,-0.064 -0.184,-0.168 -0.239,-0.311c-0.066,-0.168 -0.076,-0.316 -0.025,-0.447s0.143,-0.223 0.277,-0.275c0.15,-0.061 0.289,-0.059 0.417,0.008c0.127,0.063 0.229,0.199 0.309,0.408l-0.673,0.268c0.032,0.08 0.08,0.133 0.138,0.16c0.062,0.029 0.121,0.029 0.182,0.006c0.043,-0.018 0.074,-0.043 0.095,-0.076c0.016,-0.038 0.023,-0.083 0.017,-0.137zm-0.092,-0.28c-0.033,-0.078 -0.076,-0.129 -0.131,-0.154c-0.056,-0.023 -0.11,-0.025 -0.164,-0.004c-0.06,0.021 -0.099,0.063 -0.121,0.121c-0.021,0.059 -0.017,0.125 0.015,0.197l0.401,-0.16z" id="svg_259"/>
     </g>
    </g>
    <g id="svg_260">
     <g id="svg_261">
      <path fill="#000000" d="m372.462,473.764l-0.269,0.107l-0.207,-0.518c-0.044,-0.111 -0.077,-0.182 -0.103,-0.207c-0.024,-0.027 -0.052,-0.045 -0.086,-0.053c-0.032,-0.01 -0.066,-0.006 -0.104,0.01c-0.047,0.02 -0.083,0.049 -0.111,0.088c-0.025,0.041 -0.037,0.084 -0.034,0.133c0.002,0.047 0.026,0.129 0.072,0.242l0.183,0.459l-0.269,0.107l-0.405,-1.018l0.251,-0.102l0.061,0.152c0.042,-0.15 0.13,-0.254 0.266,-0.307c0.061,-0.023 0.118,-0.035 0.175,-0.033c0.06,0 0.106,0.014 0.146,0.037s0.069,0.055 0.098,0.092c0.027,0.039 0.056,0.098 0.087,0.174l0.249,0.637z" id="svg_262"/>
     </g>
    </g>
    <g id="svg_263">
     <g id="svg_264">
      <path fill="#000000" d="m372.737,473.656l-0.56,-1.404l0.27,-0.107l0.56,1.402l-0.27,0.109z" id="svg_265"/>
     </g>
    </g>
    <g id="svg_266">
     <g id="svg_267">
      <path fill="#000000" d="m373.199,472.652l-0.261,0.053c-0.013,-0.109 0.007,-0.199 0.055,-0.275c0.049,-0.072 0.139,-0.137 0.271,-0.188c0.117,-0.047 0.215,-0.07 0.284,-0.064c0.068,0.006 0.123,0.025 0.166,0.059c0.041,0.035 0.085,0.109 0.131,0.229l0.123,0.314c0.035,0.088 0.065,0.152 0.093,0.191c0.024,0.037 0.06,0.078 0.103,0.117l-0.267,0.105c-0.015,-0.016 -0.033,-0.037 -0.059,-0.068c-0.011,-0.014 -0.019,-0.023 -0.021,-0.029c-0.028,0.064 -0.065,0.117 -0.107,0.16c-0.044,0.043 -0.095,0.076 -0.153,0.102c-0.104,0.041 -0.198,0.045 -0.282,0.014c-0.082,-0.033 -0.143,-0.094 -0.175,-0.18c-0.023,-0.059 -0.03,-0.113 -0.021,-0.17s0.034,-0.107 0.074,-0.15s0.104,-0.094 0.188,-0.146c0.116,-0.074 0.194,-0.131 0.234,-0.172l-0.011,-0.025c-0.021,-0.051 -0.048,-0.082 -0.082,-0.096c-0.034,-0.012 -0.088,-0.004 -0.158,0.023c-0.048,0.021 -0.081,0.043 -0.101,0.074c-0.017,0.027 -0.025,0.068 -0.024,0.122zm0.448,0.075c-0.029,0.025 -0.079,0.061 -0.146,0.105c-0.067,0.047 -0.11,0.08 -0.129,0.105c-0.022,0.037 -0.03,0.078 -0.015,0.115c0.015,0.037 0.043,0.064 0.081,0.08c0.039,0.018 0.08,0.018 0.124,-0.002c0.049,-0.018 0.088,-0.053 0.118,-0.104c0.023,-0.035 0.033,-0.074 0.03,-0.113c-0.004,-0.025 -0.018,-0.07 -0.043,-0.137l-0.02,-0.049z" id="svg_268"/>
     </g>
    </g>
    <g id="svg_269">
     <g id="svg_270">
      <path fill="#000000" d="m374.16,472.752l0.254,-0.148c0.032,0.049 0.071,0.078 0.118,0.092c0.046,0.014 0.1,0.008 0.163,-0.018c0.069,-0.027 0.117,-0.063 0.142,-0.102c0.018,-0.027 0.02,-0.057 0.006,-0.086c-0.008,-0.021 -0.021,-0.035 -0.039,-0.043c-0.018,-0.008 -0.053,-0.008 -0.104,0c-0.236,0.037 -0.391,0.049 -0.465,0.033c-0.104,-0.023 -0.174,-0.084 -0.212,-0.182c-0.036,-0.088 -0.029,-0.176 0.017,-0.266c0.045,-0.086 0.143,-0.158 0.287,-0.217c0.139,-0.057 0.251,-0.074 0.337,-0.057c0.085,0.02 0.159,0.066 0.22,0.146l-0.232,0.146c-0.028,-0.035 -0.061,-0.057 -0.101,-0.066c-0.038,-0.008 -0.087,-0.002 -0.143,0.021c-0.07,0.027 -0.116,0.059 -0.141,0.09c-0.015,0.021 -0.018,0.045 -0.009,0.068c0.008,0.018 0.023,0.031 0.046,0.035c0.031,0.01 0.126,0.002 0.281,-0.023c0.156,-0.023 0.273,-0.023 0.349,0c0.074,0.025 0.13,0.082 0.165,0.168c0.036,0.094 0.028,0.189 -0.021,0.287s-0.153,0.178 -0.306,0.238c-0.141,0.055 -0.261,0.068 -0.362,0.045c-0.102,-0.018 -0.185,-0.075 -0.25,-0.161z" id="svg_271"/>
     </g>
    </g>
    <g id="svg_272">
     <g id="svg_273">
      <path fill="#000000" d="m375.25,472.318l0.254,-0.148c0.032,0.047 0.072,0.078 0.118,0.09c0.045,0.016 0.1,0.01 0.163,-0.018c0.07,-0.027 0.117,-0.063 0.142,-0.102c0.018,-0.025 0.02,-0.057 0.008,-0.086c-0.009,-0.02 -0.021,-0.033 -0.039,-0.043c-0.019,-0.008 -0.055,-0.008 -0.104,0c-0.237,0.039 -0.392,0.051 -0.466,0.033c-0.104,-0.021 -0.172,-0.082 -0.212,-0.18c-0.034,-0.09 -0.029,-0.176 0.017,-0.268c0.045,-0.086 0.142,-0.156 0.288,-0.217c0.14,-0.055 0.251,-0.074 0.337,-0.057c0.085,0.02 0.159,0.066 0.222,0.146l-0.236,0.148c-0.026,-0.035 -0.061,-0.059 -0.098,-0.068c-0.039,-0.008 -0.087,-0.002 -0.144,0.021c-0.07,0.027 -0.117,0.061 -0.141,0.092c-0.015,0.021 -0.018,0.045 -0.008,0.066c0.008,0.018 0.022,0.031 0.047,0.037c0.029,0.01 0.124,0 0.278,-0.023c0.157,-0.025 0.273,-0.025 0.35,0c0.075,0.025 0.13,0.08 0.164,0.166c0.037,0.094 0.029,0.188 -0.021,0.287c-0.05,0.098 -0.153,0.178 -0.305,0.238c-0.139,0.057 -0.26,0.068 -0.362,0.047c-0.104,-0.02 -0.187,-0.075 -0.252,-0.161z" id="svg_274"/>
     </g>
    </g>
    <g id="svg_275">
     <g id="svg_276">
      <path fill="#000000" d="m377.01,471.578l0.286,-0.064c0.006,0.113 -0.02,0.211 -0.074,0.291c-0.053,0.08 -0.136,0.145 -0.246,0.188c-0.179,0.072 -0.33,0.064 -0.463,-0.02c-0.104,-0.063 -0.184,-0.168 -0.239,-0.309c-0.067,-0.168 -0.075,-0.318 -0.025,-0.447c0.05,-0.131 0.144,-0.223 0.277,-0.275c0.15,-0.061 0.29,-0.061 0.417,0.008c0.128,0.063 0.229,0.199 0.309,0.408l-0.675,0.268c0.035,0.078 0.081,0.133 0.14,0.16c0.061,0.029 0.12,0.031 0.183,0.006c0.042,-0.018 0.073,-0.043 0.093,-0.078c0.016,-0.034 0.024,-0.079 0.017,-0.136zm-0.092,-0.279c-0.033,-0.076 -0.076,-0.127 -0.132,-0.152c-0.054,-0.023 -0.108,-0.027 -0.162,-0.006c-0.06,0.023 -0.099,0.064 -0.121,0.123c-0.021,0.059 -0.017,0.123 0.015,0.197l0.4,-0.162z" id="svg_277"/>
     </g>
    </g>
    <g id="svg_278">
     <g id="svg_279">
      <path fill="#000000" d="m378.567,471.332l-0.27,0.107l-0.207,-0.52c-0.043,-0.109 -0.078,-0.178 -0.102,-0.207c-0.025,-0.025 -0.054,-0.043 -0.086,-0.051c-0.034,-0.008 -0.068,-0.006 -0.104,0.01c-0.047,0.02 -0.083,0.047 -0.109,0.088c-0.026,0.039 -0.039,0.086 -0.035,0.133c0.002,0.047 0.027,0.129 0.072,0.24l0.184,0.461l-0.27,0.107l-0.405,-1.018l0.25,-0.1l0.06,0.15c0.043,-0.15 0.132,-0.252 0.269,-0.307c0.059,-0.023 0.116,-0.035 0.174,-0.035c0.058,0.004 0.104,0.016 0.145,0.039s0.07,0.055 0.099,0.092c0.025,0.037 0.056,0.098 0.087,0.176l0.248,0.635z" id="svg_280"/>
     </g>
    </g>
   </g>
  </g>
  <g id="svg_281">
   <g id="svg_282">
    <g id="svg_283">
     <polygon fill="#2b2929" points="126.262,468.438 39.995,457.495 54.389,475.953 140.654,486.895    " id="svg_284"/>
    </g>
    <g id="svg_285">
     <path fill="#2b2929" d="m141.794,487.544l-87.672,-11.121l-15.266,-19.576l87.674,11.12l15.264,19.577zm-87.139,-12.061l84.86,10.763l-13.52,-17.339l-84.86,-10.763l13.52,17.339z" id="svg_286"/>
    </g>
   </g>
   <g id="svg_287">
    <g id="svg_288">
     <rect x="38.185" y="462.874" transform="matrix(-0.9921 -0.1258 0.1258 -0.9921 102.9668 955.5394)" fill="#000000" width="86.958" height="23.288" id="svg_289"/>
    </g>
    <g id="svg_290">
     <path fill="#000000" d="m123.765,492.1l-87.259,-11.067l3.056,-24.096l87.259,11.067l-3.056,24.096zm-86.141,-11.934l85.275,10.815l2.804,-22.111l-85.275,-10.815l-2.804,22.111l0,0z" id="svg_291"/>
    </g>
   </g>
   <g id="svg_292">
    <g id="svg_293">
     <path fill="#d5cece" d="m49.742,473.072l2.212,0.063c0.038,0.749 0.236,1.321 0.595,1.718c0.358,0.395 0.879,0.635 1.561,0.722c0.724,0.092 1.287,0.008 1.693,-0.252c0.406,-0.26 0.633,-0.593 0.685,-1.002c0.033,-0.264 -0.016,-0.498 -0.146,-0.701c-0.131,-0.206 -0.38,-0.398 -0.747,-0.583c-0.251,-0.124 -0.83,-0.363 -1.735,-0.714c-1.166,-0.451 -1.963,-0.925 -2.394,-1.42c-0.605,-0.699 -0.852,-1.486 -0.74,-2.366c0.072,-0.567 0.299,-1.076 0.682,-1.529c0.383,-0.454 0.894,-0.77 1.531,-0.95c0.636,-0.182 1.382,-0.218 2.236,-0.109c1.396,0.176 2.407,0.616 3.034,1.317s0.895,1.563 0.801,2.59l-2.258,-0.187c-0.023,-0.581 -0.178,-1.019 -0.462,-1.308c-0.284,-0.293 -0.742,-0.477 -1.374,-0.557c-0.653,-0.083 -1.18,-0.014 -1.583,0.207c-0.259,0.143 -0.407,0.355 -0.444,0.644c-0.033,0.265 0.05,0.503 0.248,0.717c0.253,0.275 0.91,0.61 1.968,1.006c1.06,0.396 1.833,0.764 2.321,1.108c0.488,0.341 0.85,0.771 1.085,1.285c0.234,0.516 0.307,1.123 0.218,1.826c-0.081,0.638 -0.333,1.213 -0.757,1.724s-0.978,0.862 -1.659,1.05s-1.505,0.221 -2.47,0.098c-1.405,-0.178 -2.443,-0.641 -3.115,-1.385c-0.668,-0.746 -0.997,-1.75 -0.986,-3.012z" id="svg_294"/>
    </g>
    <g id="svg_295">
     <path fill="#d5cece" d="m62.713,478.394l1.171,-9.237l-3.298,-0.418l0.239,-1.882l8.834,1.121l-0.239,1.881l-3.292,-0.417l-1.172,9.236l-2.243,-0.284z" id="svg_296"/>
    </g>
    <g id="svg_297">
     <path fill="#d5cece" d="m69.698,479.279l1.41,-11.118l8.243,1.045l-0.239,1.882l-5.998,-0.761l-0.313,2.465l5.581,0.708l-0.237,1.874l-5.582,-0.709l-0.384,3.026l6.211,0.789l-0.237,1.871l-8.455,-1.072l0,0z" id="svg_298"/>
    </g>
    <g id="svg_299">
     <path fill="#d5cece" d="m80.071,480.594l1.41,-11.117l7.621,0.967l-0.239,1.881l-5.376,-0.682l-0.334,2.632l4.641,0.589l-0.239,1.881l-4.641,-0.589l-0.599,4.724l-2.244,-0.286z" id="svg_300"/>
    </g>
    <g id="svg_301">
     <path fill="#d5cece" d="m98.711,482.959l-2.442,-0.311l-0.649,-2.649l-4.444,-0.563l-1.238,2.411l-2.381,-0.303l5.74,-10.569l2.374,0.302l3.04,11.682zm-3.576,-4.923l-1.009,-4.32l-2.025,3.936l3.034,0.384z" id="svg_302"/>
    </g>
    <g id="svg_303">
     <path fill="#d5cece" d="m99.925,483.112l1.41,-11.118l2.184,0.277l3.607,8.003l0.942,-7.425l2.085,0.264l-1.41,11.117l-2.252,-0.284l-3.563,-7.819l-0.919,7.25l-2.084,-0.265z" id="svg_304"/>
    </g>
   </g>
  </g>
 </g>

</svg>