<?xml version="1.0" encoding="utf-8"?>
<!-- Generator: Adobe Illustrator 16.0.0, SVG Export Plug-In . SVG Version: 6.00 Build 0)  -->
<!DOCTYPE svg PUBLIC "-//W3C//DTD SVG 1.1//EN" "http://www.w3.org/Graphics/SVG/1.1/DTD/svg11.dtd">
<svg version="1.1" id="new" xmlns="http://www.w3.org/2000/svg" xmlns:xlink="http://www.w3.org/1999/xlink" x="0px" y="0px"
	 width="500px" height="500px" viewBox="0 0 500 500" enable-background="new 0 0 500 500" xml:space="preserve">
<g>
	<path fill="#48826D" d="M298.956,288.553c0,0-34.27,1.313-40.057,14.979c-5.787,13.666-3.971,118.158-3.971,118.158
		s160.002,2.55,213.254,0c38.765-1.854-6.345-116.187-24.427-123.633c-18.081-7.447-50.526-16.496-50.526-16.496
		s-3.638-10.16-12.135-11.3c-8.494-1.139-80.848,3.593-80.848,3.593L298.956,288.553z"/>
	<path d="M389.239,424c-0.005,0-0.005,0-0.011,0c-62.469,0-133.6-1.313-134.312-1.324l-0.771-0.106l-0.013-0.816
		c-0.075-4.274-1.753-104.846,4.033-118.508c5.517-13.029,34.972-15.172,40.058-15.44l1.289-14.693l0.684-0.051
		c0.574-0.037,57.877-3.771,76.117-3.771c2.365,0,3.965,0.063,4.889,0.188c8.007,1.072,11.841,9.476,12.629,11.426
		c3.726,1.052,33.373,9.478,50.229,16.419c14.309,5.893,45.057,77.172,39.521,109.131c-1.771,10.235-6.939,15.821-15.36,16.227
		C452.506,423.427,425.929,424,389.239,424z M255.715,421.393c7.897,0.121,74.566,1.607,133.516,1.607c0.002,0,0.008,0,0.01,0
		c36.668,0,63.214-0.867,78.908-1.619c7.571-0.363,12.238-5.559,13.864-14.959c5.453-31.496-24.561-101.742-38.56-107.511
		c-17.828-7.343-50.11-16.435-50.437-16.524l-0.396-0.14l-0.141-0.401c-0.033-0.097-3.584-9.729-11.49-10.789
		c-0.842-0.111-2.414-0.174-4.676-0.174c-17.108,0-68.776,3.301-75.332,3.725l-1.295,14.715l-0.699,0.027
		c-0.338,0.012-33.834,1.692-39.354,14.736C254.238,316.826,255.566,411.825,255.715,421.393z"/>
</g>
<g>
	<path d="M289.771,427.375c-0.084-0.585-8.256-58.979,0.011-95.868l1.558,0.349c-8.207,36.606-0.073,94.714,0.011,95.298
		L289.771,427.375z"/>
</g>
<g>
	<path d="M407.71,319.5l-1.594-0.063c0.578-15.086,4.544-24.481,11.785-27.934c11.153-5.311,25.719,5.453,26.334,5.912l-0.955,1.273
		c-0.145-0.106-14.407-10.645-24.696-5.748C411.923,296.12,408.266,305.055,407.71,319.5z"/>
</g>
<g>
	<path d="M436.54,389.256c-0.366,0-0.77-0.419-1.587-1.268c-9.688-10.071-46.938-42.944-47.313-43.274l1.055-1.196
		c0.299,0.266,24.019,21.195,38.579,34.818c-13.134-16.691-19.167-27.979-17.956-33.609l1.559,0.334
		c-0.897,4.181,2.689,14.719,24.896,41.191c1.794,2.143,1.864,2.225,1.271,2.758C436.861,389.173,436.703,389.256,436.54,389.256z"
		/>
</g>
<g>
	<g>
		<path fill="#F9B77A" d="M381.609,337.482c2.602-9.026,5.918-16.221,2.721-18.068c-3.195-1.848-9.596,3.246-14.297,11.38
			c-0.702,1.214-1.316,2.429-1.86,3.62c-3.205-2.779-6.85-5.419-10.902-7.762c-18.824-10.881-34.086-19.699-44.617-1.479
			c-10.53,18.221,4.729,27.041,23.557,37.922c18.822,10.879,38.798,11.541,44.616,1.479
			C384.007,359.066,377.631,351.289,381.609,337.482z"/>
		<path d="M364.617,372.506L364.617,372.506c-8.724,0-19.222-3.18-28.81-8.722c-18.66-10.782-34.776-20.097-23.846-39.009
			c4.236-7.334,9.559-10.898,16.264-10.898c8.53,0,18.223,5.602,29.438,12.086c3.623,2.096,7.062,4.503,10.228,7.168
			c0.459-0.941,0.943-1.859,1.45-2.736c4.138-7.156,9.683-12.154,13.487-12.154c0.701,0,1.34,0.164,1.896,0.484
			c3.071,1.775,1.502,6.7-0.668,13.517c-0.549,1.716-1.133,3.548-1.685,5.463c-2.149,7.465-1.206,13.116-0.448,17.659
			c0.645,3.855,1.151,6.902-0.414,9.609C378.704,369.83,372.703,372.506,364.617,372.506z M328.229,315.471
			c-6.172,0-10.901,3.211-14.888,10.104c-10.132,17.531,4.607,26.05,23.265,36.834c9.354,5.404,19.563,8.505,28.013,8.505
			c7.493,0.002,13.005-2.39,15.52-6.733c1.275-2.215,0.812-5.013,0.221-8.553c-0.784-4.7-1.762-10.554,0.49-18.363
			c0.555-1.929,1.144-3.774,1.692-5.505c1.8-5.646,3.354-10.521,1.394-11.653c-2.375-1.359-8.244,2.504-13.211,11.088
			c-0.647,1.125-1.264,2.32-1.824,3.556l-0.441,0.968l-0.807-0.695c-3.311-2.873-6.937-5.453-10.778-7.676
			C345.85,320.973,336.331,315.471,328.229,315.471z"/>
	</g>
	<g>
		<path fill="#F9B77A" d="M319.201,317.523c0,0,18.226,3.381,24.884,10.662"/>
		<path d="M343.496,328.723c-6.4-7.004-24.261-10.382-24.438-10.416l0.291-1.564c0.754,0.142,18.563,3.516,25.323,10.904
			L343.496,328.723z"/>
	</g>
	<g>
		<path fill="#F9B77A" d="M312.652,325.175c0,0,20.189,3.66,24.402,9.239"/>
		<path d="M336.418,334.896c-3.979-5.272-23.711-8.901-23.908-8.938l0.285-1.565c0.836,0.152,20.544,3.78,24.895,9.545
			L336.418,334.896z"/>
	</g>
	<g>
		<path fill="#F9B77A" d="M309.289,334.672c0,0,3.538-4.854,19.143,5.755"/>
		<path d="M327.982,341.085c-14.522-9.871-18.027-5.967-18.063-5.925l-1.272-0.959c0.41-0.559,4.453-5.163,20.234,5.566
			L327.982,341.085z"/>
	</g>
</g>
<g>
	<path fill="#141719" d="M363.98,275.934c-2.476,0.827-4.888,1.744-7.183,2.83c-1.85,0.875-3.677,1.743-5.497,2.598
		c4.063-1.532,8.068-3.227,12.004-5.148C363.544,276.094,363.761,276.016,363.98,275.934z"/>
</g>
<g>
	<g>
		<g>
			<polyline fill="#A5A5A5" points="281.687,475.236 300.319,478.545 384.644,448.37 384.644,431.786 280.644,408.189 
				280.644,476.584 			"/>
			<path d="M300.668,479.633l-18.572-3.049h-1.452v-69.395l105,23.963v17.779L300.668,479.633z M282.939,473.922l18.266,3.533
				l83.439-29.647v-15.385l-101-23.233v64.854L282.939,473.922z"/>
		</g>
		<g>
			<polygon fill="#BABABA" points="281.185,474.839 299.567,478.348 383.644,448.37 383.644,431.786 279.644,463.941 
				279.644,475.797 			"/>
			<path d="M299.519,479.17l-17.771-3.487l-2.104,1.586v-13.913l105-32.647v18.227l-0.779,0.188L299.519,479.17z M281.122,473.996
				l18.832,3.527l83.689-29.714V432.87l-103,31.659v9.796L281.122,473.996z"/>
		</g>
		<g>
			<path fill="#C6C6C6" d="M299.644,451.878c0,12.682-9.65,22.961-22.332,22.961L62.809,451.878
				c-12.681,0-23.165-10.279-23.165-22.96V302.633c0-12.679,10.8-22.96,23.479-22.96l213.934,22.96
				c12.679,0,22.588,10.281,22.588,22.963V451.878z"/>
			<path d="M277.914,475.636l-0.172,0.45L63.536,453.584c-0.002,0-0.006,0-0.008,0c-12.914,0-23.885-11.568-23.885-24.666V302.633
				c0-13.099,10.82-23.385,23.878-23.385l214.349,23.336c0.002,0,0.006,0,0.008,0c12.881,0,23.768,9.914,23.768,23.012v126.282
				C301.644,464.977,290.906,475.636,277.914,475.636z M63.641,280.467c-12.095,0.004-21.997,9.946-21.997,22.166v126.285
				c0,12.222,9.857,22.164,21.98,22.164l214.13,22.961c12.093-0.023,21.89-9.956,21.89-22.165V325.596
				c0-12.223-9.802-22.166-21.892-22.166L63.641,280.467z"/>
		</g>
	</g>
	<g>
		<g>
			<polygon fill="#FFFFFF" points="151.464,368.584 137.6,368.584 142.222,356.584 156.086,356.584 			"/>
		</g>
		<g>
			<polygon fill="#FFFFFF" points="144.532,384.584 130.665,384.584 135.288,372.584 149.154,372.584 			"/>
		</g>
		<g>
			<polygon fill="#FFFFFF" points="167.644,368.584 153.777,368.584 158.399,356.584 172.266,356.584 			"/>
		</g>
		<g>
			<polygon fill="#FFFFFF" points="160.709,384.584 146.844,384.584 151.464,372.584 165.331,372.584 			"/>
		</g>
	</g>
</g>
<g>
	<path fill="#48826D" d="M395.7,406.008c0,0,63.897,36.851,81.933,10.934"/>
	<path d="M456.082,427.036c-25.121,0-58.854-19.229-60.78-20.339l0.798-1.381c0.631,0.363,63.464,36.188,80.881,11.168l1.307,0.908
		C473.385,424.438,465.314,427.036,456.082,427.036z"/>
</g>
<g>
	<path fill="#F9B77A" d="M381.632,274.566c0,0,7.676,32.854-25.515,30.854c-33.189-2-33.258-21.98-33.258-21.98L381.632,274.566z"/>
	<path d="M358.952,306.007c-0.925,0-1.889-0.03-2.864-0.089c-33.272-2.005-33.728-22.273-33.729-22.479l-0.002-0.433l59.655-9.006
		l0.104,0.45c0.14,0.594,3.313,14.646-4.017,23.888C374.066,303.427,367.623,306.007,358.952,306.007z M323.39,283.864
		c0.276,2.876,3.164,19.272,32.759,21.057c9.771,0.589,16.918-1.841,21.17-7.202c6.319-7.966,4.398-20.104,3.92-22.587
		L323.39,283.864z"/>
</g>
<g>
	<path fill="#F9B77A" d="M290.034,257H273v-32.724c0,0.159,1.213,0.031,1.61-0.27c1.929,3.024,4.59,5.574,8.381,6.851
		C282.896,239.54,285.541,250,290.034,257z"/>
</g>
<g>
	<path fill="#F9B77A" d="M389,230.363V257h-30.722c-0.174,0-0.334,0.303-0.524,0.494c4.176-4.768,7.393-10.312,9.352-16.634
		c6.517-0.383,11.104-3.673,13.748-8.133c0.479,0.974,1.398,1.502,2.767,0.516C385.213,232.079,387,231.191,389,230.363z"/>
</g>
<g>
	<path fill="#C9C9C9" d="M454.234,60.514c0.172,0.679,0.342,1.36,0.513,2.039c-1.681-0.407-0.323-1.42-0.415-2.154
		C454.344,60.387,454.234,60.514,454.234,60.514z"/>
</g>
<g>
	<path fill="#F9B77A" d="M443.758,163.992c0.128,6.467-16.892,42.675-18.056,48.999c-2.421,13.254-19.95,0.341-27.454,10.617
		c-0.316,0.446-0.65,0.845-1.021,1.227c-0.174,0.19-0.35,0.383-0.541,0.558c-0.271,0.271-0.558,0.096-0.844,0.335
		c-0.287,0.24-0.572,0.272-0.861,0.272c-0.015,0-0.015,0-0.015,0c-0.604,0-1.229,1.256-1.864,1.624
		c-0.318,0.191-0.638,0.581-0.973,0.756c-1.181,0.638-2.39,1.302-3.601,1.876c-1.784,0.827-3.555,1.757-5.146,2.921
		c-1.369,0.987-2.056,0.473-2.533-0.498c-2.646,4.46-7.231,7.738-13.748,8.121c-1.959,6.325-5.176,11.825-9.352,16.591
		c-0.525,0.588-1.066,1.185-1.607,1.771c-0.431,0.443-0.86,0.879-1.308,1.309c-0.94,0.894-1.909,1.771-2.916,2.629
		c-0.491,0.414-1.02,0.83-1.526,1.244c-0.525,0.413-1.053,0.813-1.595,1.209c-9.099,6.723-15.149,5.799-24.502-0.876
		c-3.772-2.706-9.78-4.796-14.194-0.858c-5.526,4.923-10.1,3.408-14.721-0.543c-0.46-0.397-0.906-0.813-1.354-1.272
		c-0.35-0.353-0.686-0.719-1.004-1.101c-0.156-0.176-0.303-0.352-0.444-0.524c-0.604-0.717-1.181-1.481-1.722-2.295
		c-0.188-0.271-0.364-0.558-0.541-0.827c-0.096-0.145-0.188-0.304-0.286-0.445c-4.492-7.264-13.907-4.248-13.813-12.93
		c-3.791-1.274-7.789-13.117-8.762-13.276c-2.659-0.463,0.128-7.36-0.827-10.595c-3.665-12.299-6.039-25.123-4.795-37.581
		c2.58-25.839,1.289-51.934,5.576-77.628c1.861-11.248,3.789-22.479,9.685-32.436c8.254-13.938,18.67-16.614,31.543-7.264
		c15.309,11.119,31.844,11.5,49.288,7.757c10.354-2.214,20.63-4.811,31.415-4.029c18.78,1.369,31.573,14.91,31.031,35.779
		c-2.021,10.148-0.907,22.352,2.454,34.984C425.602,149.93,443.536,153.111,443.758,163.992z"/>
</g>
<g>
	<g>
		<path d="M322.4,250.964c-32,0-31.842-30.953-31.842-30.953s23.866,3.114,31.842,3.114c7.979,0,31.846-3.114,31.846-3.114
			S354.404,250.964,322.4,250.964z"/>
		<path d="M322.4,251.762c-9.84,0-17.696-2.884-23.354-8.569c-9.249-9.296-9.287-22.624-9.283-23.187l0.004-0.902l0.896,0.117
			c0.237,0.031,23.905,3.107,31.737,3.107c7.836,0,31.505-3.076,31.742-3.107l0.896-0.117l0.004,0.902
			c0.005,0.563-0.034,13.89-9.282,23.187C340.102,248.878,332.242,251.762,322.4,251.762z M291.391,220.92
			c0.186,3.13,1.354,13.688,8.797,21.159c5.347,5.366,12.819,8.088,22.215,8.088c9.402,0,16.879-2.726,22.229-8.1
			c7.443-7.48,8.604-18.021,8.788-21.147c-4.545,0.582-23.881,3-31.017,3C315.268,223.921,295.936,221.502,291.391,220.92z"/>
	</g>
	<g>
		<path fill="#FFFFFF" d="M353.202,227.624c1.06-4.378,1.043-7.613,1.043-7.613s-23.865,3.114-31.846,3.114
			c-7.976,0-31.842-3.114-31.842-3.114s-0.016,3.235,1.045,7.613c4.682,0.596,23.818,2.979,30.797,2.979
			C329.382,230.603,348.521,228.22,353.202,227.624z"/>
	</g>
</g>
<g>
	<g>
		<path fill="#592C03" d="M438.714,35.453C401.725,9.232,360.255,6.221,317.881,21.068c-25.521,8.938-43.713,26.938-49.99,53.335
			c-7.64,32.106-11.38,64.699-11.396,97.533c1.191-0.224,2.451-0.356,3.8-0.356c0.836,0,1.636,0.058,2.411,0.146
			c1.459-22.326,1.015-44.774,4.711-66.926c1.861-11.248,3.789-22.479,9.685-32.436c8.254-13.938,18.67-16.614,31.543-7.264
			c15.309,11.119,31.844,11.5,49.289,7.757c10.354-2.214,20.629-4.811,31.414-4.029c18.781,1.369,31.574,14.91,31.032,35.779
			c-2.022,10.148-0.907,22.352,2.454,34.984c2.771,10.339,10.341,28.105,10.563,38.987c0.05,2.55-0.795,5.342-1.9,8.177
			c0.283-0.011,0.556-0.042,0.847-0.042c5.044,0,9,1.679,11.892,4.303c6.984-12.683,14.698-25.679,15.986-26.477
			c2.521-9.22,10.293-34.148,11.662-43.604C476.898,86.144,467.546,55.893,438.714,35.453z"/>
	</g>
</g>
<g>
	<g>
		<path fill="#3F1B00" d="M432.729,183.11c-1.492,5.435-5.06,11.364-5.964,16.276c-2.421,13.255-21.013,13.946-28.517,24.223
			c-0.316,0.446-4.509,3.937-5.146,4.284c-0.318,0.193-8.125,4.154-9.717,5.317c-1.371,0.987-21.459,19.42-25.634,24.183
			c-0.526,0.59-1.067,1.184-1.608,1.771c-0.43,0.445-0.859,0.878-1.307,1.309c-0.939,0.895-1.91,1.77-2.916,2.627
			c-0.492,0.414-1.021,0.83-1.527,1.244c-0.524,0.413-1.051,0.813-1.594,1.209c-9.099,6.723-15.15,5.799-24.502-0.876
			c-3.773-2.706-9.779-4.796-14.193-0.858c-5.527,4.924-10.101,3.408-14.722-0.543c-0.46-0.397-0.901-0.816-1.354-1.272
			c-0.347-0.354-0.685-0.719-1.005-1.101c-0.155-0.176-0.301-0.352-0.443-0.524c-0.604-0.717-1.18-1.481-1.723-2.295
			c-0.188-0.271-0.363-0.558-0.541-0.827c-0.094-0.145-0.188-0.304-0.284-0.445c-4.493-7.264-3.871-6.664-8.896-13.74
			c-2.316-3.262-10.689-8.363-14.505-23.06c-3.229-12.422-6.039-25.123-4.795-37.581c0.683-6.852,1.095-13.721,1.409-20.595
			c-0.864,0.109-1.752,0.188-2.691,0.188c-1.394,0-2.699-0.136-3.932-0.377c-0.379,15.49,0.061,31.039,1.342,46.625
			c1.481,17.874,3.092,35.907,13.479,51.52c8.013,12.043,28.309,33.598,28.738,33.868c5.908,3.968,17.648,5.974,32.479,1.29
			c14.721-4.635,52.285-16.232,61.559-21.568c5.063-3.982,9.621-7.201,13.669-10.929c9.461-8.712,21.046-35.25,24.479-47.06
			c-0.188-1.962,7.356-16.411,14.669-29.416C442.157,186.984,436.934,186.027,432.729,183.11z"/>
	</g>
</g>
<g>
	<g>
		<path fill="#F9B77A" d="M454.612,155.633c-2.063,1.383-10.407,19.664-14.535,27.651c-4.733,9.162-3.713,14.571-6.218,17.082
			c-6.967,6.979-3.907,14.33,5.593,12.271c2.288-0.496,4.854-1.171,6.565-2.621c13.177-11.131,22.661-24.327,22.688-40.313
			C467.845,155.815,462.753,150.183,454.612,155.633z"/>
		<path d="M436.403,213.788L436.403,213.788c-3.286,0-5.728-1.344-6.697-3.687c-1.23-2.964,0.11-6.813,3.591-10.298
			c0.992-0.994,1.378-2.683,1.911-5.019c0.659-2.887,1.563-6.839,4.161-11.866c1.194-2.314,2.753-5.506,4.4-8.889
			c5.29-10.848,8.869-18.035,10.398-19.06c2.171-1.453,4.201-2.189,6.038-2.189c5.318,0,8.618,5.992,9.293,16.872
			c-0.021,14.55-7.534,27.935-22.969,40.973c-1.807,1.526-4.389,2.245-6.911,2.792C438.488,213.663,437.406,213.788,436.403,213.788
			z M460.207,154.375c-1.517,0-3.248,0.646-5.151,1.92c-1.286,0.86-6.441,11.436-9.854,18.434c-1.651,3.39-3.212,6.591-4.417,8.92
			c-2.505,4.85-3.384,8.688-4.022,11.491c-0.594,2.595-1.021,4.47-2.34,5.789c-2.961,2.966-4.204,6.249-3.244,8.563
			c0.711,1.717,2.616,2.702,5.226,2.702c0.001,0,0.001,0,0.001,0c0.891,0,1.858-0.111,2.881-0.333c2.32-0.504,4.68-1.147,6.221-2.45
			c15.053-12.718,22.382-25.706,22.403-39.708C467.294,159.837,464.56,154.375,460.207,154.375z"/>
	</g>
	<g>
		<path fill="#DF8F6B" d="M453.965,165.041c-1.106,0.74-3.274,6.25-5.604,11.075c0.992,1.027,2.782,3.109,0.974,5.951
			c-1.879,2.955-4.524,2.328-5.553,1.571c-3.043,4.205-5.575,9.27-5.863,12.368c-0.581,6.244-0.263,8.091,6.021,6.729
			c1.511-0.327,3.206-0.773,4.342-1.732c8.712-7.361,14.983-16.086,15.002-26.659C462.713,165.16,459.346,161.438,453.965,165.041z"
			/>
	</g>
	<g>
		<path d="M464.078,175.577l-1.593-0.028c0.135-7.523-1.512-9.873-2.917-10.518c-2.352-1.079-5.69,1.804-5.724,1.833l-1.063-1.189
			c0.167-0.148,4.119-3.617,7.449-2.09C462.943,164.83,464.201,168.752,464.078,175.577z"/>
	</g>
</g>
<g>
	<path fill="#FFFFFF" d="M344.451,154.977c-1.065,12.329,9.067,11.845,21.422,12.915c12.36,1.07,22.261,3.287,23.326-9.042
		c0.667-7.694-8.812-14.797-21.171-15.868C355.675,141.912,345.117,147.283,344.451,154.977z"/>
	<path d="M377.505,169.56L377.505,169.56c-2.54,0-5.368-0.273-8.368-0.564c-1.085-0.105-2.197-0.214-3.33-0.312
		s-2.248-0.183-3.336-0.266c-7.252-0.553-13.519-1.03-16.711-4.791c-1.744-2.052-2.432-4.905-2.101-8.719
		c0.634-7.331,9.771-12.859,21.254-12.859c1.052,0,2.123,0.047,3.187,0.139c12.776,1.106,22.599,8.611,21.896,16.73
		C389.184,168.295,383.225,169.56,377.505,169.56z M364.913,143.642c-10.649,0-19.104,4.902-19.668,11.403
		c-0.291,3.37,0.273,5.839,1.728,7.55c2.766,3.255,8.721,3.709,15.62,4.234c1.093,0.084,2.212,0.168,3.351,0.268
		c1.141,0.098,2.256,0.207,3.35,0.313c2.958,0.286,5.752,0.557,8.214,0.557c6.066,0,10.241-1.563,10.902-9.188
		c0.626-7.243-8.546-13.975-20.444-15.006C366.943,143.687,365.92,143.642,364.913,143.642z"/>
</g>
<g>
	<path fill="#944E00" d="M355.877,154.689c-0.529,6.111,3.992,11.491,10.102,12.021c6.11,0.526,11.49-3.995,12.02-10.106
		c0.527-6.104-3.994-11.488-10.104-12.016C361.783,144.059,356.404,148.583,355.877,154.689z"/>
</g>
<g>
	<circle cx="368.529" cy="155.646" r="5.326"/>
</g>
<g>
	<circle fill="#FFFFFF" cx="369.798" cy="152.067" r="2.174"/>
</g>
<g>
	<g>
		<path fill="#592C03" d="M391.117,141.957c-0.776,0-1.562-0.227-2.25-0.699c-20.925-14.348-40.496-4.213-41.317-3.774
			c-1.938,1.036-4.35,0.307-5.388-1.626c-1.04-1.934-0.323-4.339,1.604-5.384c0.99-0.535,24.563-12.954,49.604,4.216
			c1.813,1.243,2.276,3.724,1.03,5.537C393.633,141.352,392.387,141.957,391.117,141.957z"/>
	</g>
</g>
<g>
	<path fill="#FFFFFF" d="M315.811,146.984c0.229,12.372-9.849,11.204-22.252,11.437c-12.399,0.23-22.428,1.772-22.66-10.601
		c-0.143-7.723,9.793-14.167,22.194-14.398C305.493,133.189,315.663,139.261,315.811,146.984z"/>
	<path d="M285.257,159.399c-7.561,0-14.954-0.893-15.153-11.563c-0.149-8.148,10.154-14.973,22.976-15.211l0.7-0.006
		c12.648,0,22.677,6.304,22.826,14.351c0.071,3.829-0.808,6.627-2.686,8.556c-3.441,3.536-9.724,3.589-16.998,3.651
		c-1.092,0.009-2.21,0.019-3.347,0.04c-1.139,0.021-2.254,0.054-3.344,0.085C288.501,159.351,286.835,159.399,285.257,159.399z
		 M293.777,134.211l-0.67,0.007c-11.941,0.223-21.549,6.318-21.412,13.588c0.156,8.407,4.889,10,13.563,10
		c1.563,0,3.216-0.048,4.929-0.097c1.098-0.032,2.22-0.064,3.358-0.086c1.144-0.021,2.269-0.031,3.365-0.04
		c6.916-0.06,12.892-0.109,15.867-3.169c1.566-1.608,2.299-4.034,2.234-7.415C314.881,139.947,305.355,134.211,293.777,134.211z"/>
</g>
<g>
	<path fill="#944E00" d="M304.43,145.924c0.113,6.133-4.764,11.195-10.893,11.31c-6.134,0.114-11.194-4.763-11.308-10.896
		c-0.115-6.128,4.763-11.191,10.895-11.305C299.253,134.917,304.316,139.796,304.43,145.924z"/>
</g>
<g>
	<circle cx="294.924" cy="146.131" r="5.327"/>
</g>
<g>
	<circle fill="#FFFFFF" cx="297.088" cy="142.366" r="2.174"/>
</g>
<g>
	<g>
		<path fill="#592C03" d="M270.398,130.846c-1.361,0-2.688-0.698-3.435-1.957c-1.118-1.895-0.487-4.337,1.405-5.455
			c26.146-15.439,48.821-1.455,49.778-0.851c1.855,1.176,2.41,3.636,1.233,5.495c-1.175,1.855-3.625,2.41-5.485,1.241
			c-0.806-0.501-19.636-11.918-41.479,0.973C271.786,130.668,271.088,130.846,270.398,130.846z"/>
	</g>
</g>
<g>
	<path d="M311.404,210.645c-5.895,0-9.762-1.347-11.713-4.055c-4.131-5.731,1.601-15.729,5.785-23.029
		c1.226-2.136,2.282-3.98,2.846-5.308c3.681-8.641,6.834-30.827,6.863-31.05l1.578,0.222c-0.13,0.919-3.214,22.621-6.976,31.452
		c-0.602,1.415-1.682,3.297-2.932,5.477c-3.744,6.534-9.402,16.407-5.875,21.306c2.75,3.818,10.787,4.419,23.891,1.78l0.313,1.562
		C319.751,210.096,315.164,210.644,311.404,210.645z"/>
</g>
<g>
	<g>
		<g>
			<g>
				<g>
					<g>
						<path fill="#F5F5F5" d="M466.166,472.299c-11.739,0-21.291-9.552-21.291-21.291c0-11.74,9.552-21.292,21.291-21.292
							c11.741,0,21.293,9.552,21.293,21.292C487.459,462.747,477.907,472.299,466.166,472.299z M466.166,438.111
							c-7.112,0-12.896,5.785-12.896,12.896c0,7.113,5.784,12.896,12.896,12.896s12.898-5.783,12.898-12.896
							C479.065,443.896,473.279,438.111,466.166,438.111z"/>
					</g>
				</g>
				<g>
					<g>
						<path d="M466.166,472.898c-12.07,0-21.891-9.818-21.891-21.891s9.818-21.892,21.891-21.892
							c12.071,0,21.893,9.819,21.893,21.892S478.238,472.898,466.166,472.898z M466.166,430.315
							c-11.41,0-20.691,9.283-20.691,20.692c0,11.411,9.281,20.691,20.691,20.691c11.409,0,20.693-9.28,20.693-20.691
							C486.86,439.599,477.575,430.315,466.166,430.315z M466.166,464.504c-7.442,0-13.496-6.055-13.496-13.496
							s6.054-13.496,13.496-13.496c7.443,0,13.498,6.055,13.498,13.496S473.61,464.504,466.166,464.504z M466.166,438.711
							c-6.78,0-12.297,5.516-12.297,12.297s5.517,12.297,12.297,12.297c6.781,0,12.299-5.516,12.299-12.297
							S472.948,438.711,466.166,438.711z"/>
					</g>
				</g>
			</g>
		</g>
		<g>
			<g>
				<g>
					<path fill="#F5F5F5" d="M464.672,422.226v58.332c0,0.347,0.54,0.696,0.419,1.031c-1.522,4.593-12.566,8.142-26.587,8.142
						c-14.03,0-25.55-3.849-26.749-8.441l-0.283-59.063H464.672z"/>
				</g>
			</g>
			<g>
				<g>
					<path d="M438.654,490.33c-14.319,0-26.1-3.767-27.403-8.76l-0.02-0.579l-0.362-59.965h55.003v59.531
						c0,0.059,0.027,0.16,0.055,0.258c0.069,0.251,0.166,0.595,0.028,0.975C464.318,486.732,452.834,490.33,438.654,490.33z
						 M412.429,480.904c1.094,3.765,11.372,8.011,26.225,8.011c13.457,0,24.707-3.216,26.169-7.624
						c0.008-0.049-0.027-0.124-0.051-0.211c-0.045-0.159-0.1-0.302-0.1-0.524v-58.332h-52.598L412.429,480.904z"/>
				</g>
			</g>
		</g>
		<g>
			<g>
				<g>
					<path fill="#FEFEFE" d="M465.871,480.556v1.03h-0.181C465.812,481.251,465.871,480.904,465.871,480.556z"/>
				</g>
			</g>
			<g>
				<g>
					<path d="M466.471,482.188h-1.633l0.288-0.804c0.098-0.267,0.146-0.546,0.146-0.827h1.199V482.188z"/>
				</g>
			</g>
		</g>
		<g>
			<g>
				<g>
					<ellipse fill="#F5F5F5" cx="438.585" cy="421.795" rx="27.286" ry="9.171"/>
				</g>
			</g>
			<g>
				<g>
					<path d="M438.583,431.569c-15.637,0-27.886-4.293-27.886-9.772c0-5.479,12.249-9.772,27.886-9.772
						c15.639,0,27.888,4.294,27.888,9.772C466.471,427.276,454.222,431.569,438.583,431.569z M438.583,413.222
						c-15.964,0-26.687,4.434-26.687,8.574c0,4.14,10.723,8.571,26.687,8.571c15.965,0,26.688-4.432,26.688-8.571
						C465.272,417.655,454.548,413.222,438.583,413.222z"/>
				</g>
			</g>
		</g>
		<g>
			<g>
				<g>
					<path fill="#301600" d="M462.844,425.993c-4.532-2.955-13.69-4.977-24.259-4.977c-10.57,0-19.728,2.022-24.261,4.977
						c4.532,2.955,13.69,4.974,24.261,4.974C449.154,430.97,458.312,428.948,462.844,425.993z"/>
				</g>
			</g>
		</g>
	</g>
	<g>
		<g>
			<g>
				<path d="M424.121,449.445v-6.683h1.351v2.97l2.725-2.97h1.814l-2.516,2.604l2.652,4.078h-1.746l-1.836-3.137l-1.094,1.12v2.019
					h-1.351V449.445z"/>
			</g>
		</g>
		<g>
			<g>
				<path d="M431.792,446.082l-1.163-0.209c0.131-0.471,0.357-0.817,0.676-1.04c0.318-0.225,0.793-0.337,1.422-0.337
					c0.572,0,0.997,0.068,1.276,0.201c0.28,0.136,0.477,0.307,0.591,0.516c0.113,0.208,0.171,0.59,0.171,1.147l-0.015,1.494
					c0,0.427,0.021,0.74,0.063,0.942c0.041,0.201,0.119,0.419,0.23,0.648h-1.269c-0.032-0.084-0.074-0.211-0.124-0.377
					c-0.021-0.075-0.036-0.127-0.044-0.15c-0.22,0.214-0.453,0.373-0.703,0.479c-0.249,0.105-0.516,0.159-0.798,0.159
					c-0.499,0-0.891-0.134-1.178-0.405c-0.286-0.271-0.43-0.614-0.43-1.026c0-0.273,0.065-0.518,0.195-0.73s0.313-0.377,0.55-0.492
					c0.235-0.114,0.573-0.213,1.019-0.3c0.6-0.112,1.014-0.215,1.245-0.313v-0.127c0-0.246-0.062-0.421-0.183-0.526
					c-0.122-0.104-0.351-0.157-0.687-0.157c-0.229,0-0.406,0.044-0.534,0.134C431.975,445.7,431.872,445.856,431.792,446.082z
					 M433.507,447.122c-0.164,0.056-0.424,0.121-0.78,0.194c-0.354,0.077-0.587,0.152-0.695,0.225
					c-0.169,0.119-0.252,0.27-0.252,0.452c0,0.181,0.067,0.335,0.2,0.464c0.134,0.131,0.305,0.196,0.512,0.196
					c0.229,0,0.451-0.074,0.66-0.227c0.156-0.115,0.258-0.256,0.306-0.424c0.034-0.11,0.051-0.319,0.051-0.626L433.507,447.122
					L433.507,447.122z"/>
			</g>
		</g>
		<g>
			<g>
				<path d="M435.466,444.606h0.713v-0.365c0-0.408,0.043-0.713,0.129-0.912c0.086-0.201,0.246-0.365,0.479-0.491
					c0.231-0.124,0.525-0.188,0.88-0.188c0.367,0,0.725,0.054,1.073,0.164l-0.175,0.893c-0.203-0.05-0.399-0.073-0.587-0.073
					c-0.185,0-0.319,0.045-0.398,0.129c-0.08,0.087-0.122,0.253-0.122,0.499v0.342h0.958v1.008h-0.958v3.834h-1.28v-3.834h-0.712
					L435.466,444.606L435.466,444.606z"/>
			</g>
		</g>
		<g>
			<g>
				<path d="M438.575,444.606h0.713v-0.365c0-0.408,0.044-0.713,0.129-0.912c0.086-0.201,0.246-0.365,0.479-0.491
					c0.232-0.124,0.525-0.188,0.882-0.188c0.365,0,0.723,0.054,1.071,0.164l-0.174,0.893c-0.204-0.05-0.398-0.073-0.588-0.073
					c-0.185,0-0.319,0.045-0.398,0.129c-0.08,0.087-0.122,0.253-0.122,0.499v0.342h0.959v1.008h-0.959v3.834h-1.279v-3.834h-0.712
					V444.606z"/>
			</g>
		</g>
		<g>
			<g>
				<path d="M445.048,447.904l1.277,0.215c-0.167,0.469-0.426,0.825-0.778,1.071c-0.353,0.243-0.797,0.365-1.329,0.365
					c-0.84,0-1.464-0.274-1.868-0.825c-0.319-0.439-0.479-0.995-0.479-1.67c0-0.801,0.211-1.429,0.629-1.883s0.949-0.682,1.59-0.682
					c0.721,0,1.29,0.239,1.705,0.715c0.417,0.475,0.616,1.203,0.598,2.185h-3.209c0.01,0.38,0.112,0.675,0.311,0.888
					c0.196,0.211,0.442,0.316,0.737,0.316c0.201,0,0.369-0.056,0.507-0.164C444.875,448.326,444.978,448.147,445.048,447.904z
					 M445.121,446.611c-0.01-0.37-0.104-0.653-0.286-0.846c-0.183-0.192-0.404-0.288-0.666-0.288c-0.279,0-0.511,0.101-0.692,0.305
					c-0.183,0.203-0.272,0.479-0.271,0.829H445.121L445.121,446.611z"/>
			</g>
		</g>
		<g>
			<g>
				<path d="M450.24,447.904l1.275,0.215c-0.165,0.469-0.425,0.825-0.776,1.071c-0.353,0.243-0.798,0.365-1.33,0.365
					c-0.841,0-1.464-0.274-1.867-0.825c-0.32-0.439-0.479-0.995-0.479-1.67c0-0.801,0.211-1.429,0.629-1.883s0.95-0.682,1.591-0.682
					c0.72,0,1.289,0.239,1.705,0.715c0.417,0.475,0.616,1.203,0.597,2.185h-3.209c0.01,0.38,0.113,0.675,0.311,0.888
					c0.197,0.211,0.443,0.316,0.738,0.316c0.2,0,0.369-0.056,0.506-0.164C450.066,448.326,450.17,448.147,450.24,447.904z
					 M450.313,446.611c-0.01-0.37-0.104-0.653-0.286-0.846c-0.183-0.192-0.403-0.288-0.666-0.288c-0.278,0-0.511,0.101-0.693,0.305
					c-0.182,0.203-0.271,0.479-0.27,0.829H450.313L450.313,446.611z"/>
			</g>
		</g>
		<g>
			<g>
				<path d="M420.625,455.807h1.181v0.663c0.423-0.516,0.925-0.772,1.51-0.772c0.309,0,0.578,0.065,0.807,0.191
					c0.228,0.127,0.416,0.321,0.56,0.579c0.215-0.261,0.443-0.452,0.688-0.579c0.246-0.126,0.51-0.191,0.789-0.191
					c0.355,0,0.656,0.074,0.902,0.218c0.246,0.143,0.43,0.355,0.552,0.635c0.088,0.206,0.133,0.541,0.133,1.002v3.097h-1.281v-2.769
					c0-0.478-0.044-0.789-0.133-0.928c-0.118-0.183-0.301-0.273-0.546-0.273c-0.179,0-0.348,0.054-0.507,0.163
					c-0.158,0.11-0.271,0.27-0.341,0.48c-0.07,0.211-0.105,0.546-0.105,1v2.324h-1.28v-2.651c0-0.472-0.023-0.775-0.069-0.914
					c-0.044-0.136-0.116-0.236-0.212-0.305c-0.096-0.067-0.225-0.101-0.39-0.101c-0.198,0-0.375,0.054-0.531,0.159
					c-0.158,0.108-0.273,0.261-0.34,0.462c-0.069,0.201-0.104,0.534-0.104,0.998v2.352h-1.281L420.625,455.807L420.625,455.807z"/>
			</g>
		</g>
		<g>
			<g>
				<path d="M429.978,457.285l-1.161-0.211c0.131-0.469,0.355-0.815,0.676-1.04c0.318-0.225,0.793-0.337,1.422-0.337
					c0.572,0,0.996,0.07,1.276,0.203c0.278,0.136,0.476,0.307,0.59,0.516c0.113,0.208,0.171,0.59,0.171,1.146l-0.014,1.496
					c0,0.425,0.021,0.738,0.062,0.939c0.041,0.204,0.119,0.422,0.231,0.651h-1.269c-0.034-0.087-0.075-0.211-0.124-0.377
					c-0.022-0.077-0.036-0.127-0.045-0.15c-0.22,0.211-0.453,0.37-0.702,0.476c-0.25,0.105-0.517,0.159-0.798,0.159
					c-0.499,0-0.892-0.133-1.179-0.405c-0.286-0.269-0.43-0.611-0.43-1.023c0-0.273,0.066-0.518,0.194-0.73
					c0.132-0.216,0.315-0.377,0.55-0.494c0.236-0.112,0.575-0.213,1.02-0.298c0.6-0.112,1.015-0.218,1.245-0.313v-0.129
					c0-0.243-0.061-0.422-0.183-0.524c-0.122-0.105-0.35-0.157-0.688-0.157c-0.227,0-0.406,0.045-0.532,0.134
					C430.16,456.9,430.058,457.061,429.978,457.285z M431.693,458.322c-0.165,0.057-0.425,0.122-0.78,0.197
					c-0.354,0.075-0.588,0.149-0.696,0.223c-0.168,0.119-0.251,0.27-0.251,0.452c0,0.18,0.068,0.335,0.2,0.464
					c0.134,0.131,0.304,0.196,0.511,0.196c0.23,0,0.451-0.075,0.662-0.228c0.155-0.114,0.257-0.255,0.306-0.424
					c0.032-0.11,0.05-0.318,0.05-0.625L431.693,458.322L431.693,458.322z"/>
			</g>
		</g>
		<g>
			<g>
				<path d="M438.435,457.238l-1.264,0.227c-0.041-0.253-0.138-0.439-0.288-0.568c-0.149-0.129-0.346-0.192-0.585-0.192
					c-0.321,0-0.575,0.11-0.764,0.33c-0.19,0.221-0.285,0.588-0.285,1.105c0,0.574,0.097,0.979,0.289,1.218
					c0.193,0.237,0.452,0.354,0.775,0.354c0.244,0,0.443-0.068,0.598-0.206c0.155-0.139,0.265-0.375,0.328-0.715l1.259,0.216
					c-0.131,0.576-0.382,1.014-0.752,1.307c-0.372,0.295-0.868,0.442-1.491,0.442c-0.708,0-1.272-0.222-1.693-0.67
					c-0.422-0.447-0.63-1.065-0.63-1.854c0-0.799,0.211-1.422,0.633-1.869c0.423-0.443,0.993-0.668,1.714-0.668
					c0.59,0,1.059,0.129,1.407,0.382C438.033,456.332,438.282,456.718,438.435,457.238z"/>
			</g>
		</g>
		<g>
			<g>
				<path d="M440.683,453.966v2.457c0.413-0.482,0.906-0.724,1.479-0.724c0.296,0,0.563,0.054,0.798,0.164
					c0.236,0.11,0.417,0.248,0.535,0.419c0.121,0.171,0.203,0.361,0.246,0.567c0.045,0.206,0.066,0.526,0.066,0.96v2.841h-1.279
					v-2.558c0-0.508-0.026-0.829-0.074-0.967c-0.049-0.136-0.135-0.244-0.258-0.326c-0.124-0.079-0.277-0.119-0.463-0.119
					c-0.214,0-0.402,0.052-0.571,0.154c-0.166,0.104-0.289,0.261-0.366,0.467c-0.077,0.208-0.116,0.518-0.116,0.925v2.424h-1.281
					v-6.682h1.284V453.966z"/>
			</g>
		</g>
		<g>
			<g>
				<path d="M447.912,459.107l1.276,0.216c-0.165,0.468-0.426,0.824-0.778,1.067c-0.353,0.246-0.797,0.368-1.328,0.368
					c-0.841,0-1.465-0.274-1.869-0.824c-0.319-0.44-0.478-0.998-0.478-1.671c0-0.803,0.21-1.429,0.628-1.883
					c0.419-0.454,0.95-0.682,1.591-0.682c0.721,0,1.289,0.236,1.705,0.712c0.418,0.476,0.617,1.206,0.597,2.188h-3.209
					c0.01,0.38,0.112,0.675,0.311,0.886c0.197,0.211,0.442,0.316,0.738,0.316c0.2,0,0.368-0.054,0.506-0.164
					C447.739,459.529,447.842,459.351,447.912,459.107z M447.985,457.812c-0.01-0.369-0.104-0.65-0.287-0.843
					c-0.183-0.194-0.404-0.29-0.665-0.29c-0.28,0-0.512,0.103-0.693,0.307c-0.183,0.203-0.273,0.479-0.271,0.829h1.916V457.812z"/>
			</g>
		</g>
		<g>
			<g>
				<path d="M454.703,460.648h-1.28v-2.471c0-0.525-0.026-0.86-0.082-1.017c-0.055-0.152-0.143-0.272-0.267-0.356
					s-0.271-0.126-0.444-0.126c-0.223,0-0.421,0.061-0.597,0.18c-0.176,0.122-0.298,0.284-0.362,0.482
					c-0.066,0.202-0.099,0.572-0.099,1.113v2.192h-1.281v-4.84h1.19v0.713c0.423-0.549,0.954-0.822,1.595-0.822
					c0.282,0,0.54,0.051,0.774,0.152c0.234,0.103,0.411,0.231,0.531,0.389c0.12,0.159,0.203,0.337,0.251,0.538
					c0.047,0.202,0.07,0.487,0.07,0.862V460.648L454.703,460.648z"/>
			</g>
		</g>
		<g>
			<g>
				<path d="M423.829,471.85v-6.681h1.281v6.681H423.829z"/>
			</g>
		</g>
		<g>
			<g>
				<path d="M427.38,468.485l-1.161-0.208c0.131-0.469,0.355-0.815,0.676-1.04c0.318-0.225,0.793-0.337,1.422-0.337
					c0.572,0,0.996,0.067,1.276,0.201c0.278,0.136,0.476,0.31,0.59,0.518c0.114,0.209,0.171,0.59,0.171,1.146l-0.014,1.497
					c0,0.424,0.021,0.737,0.062,0.938c0.041,0.202,0.119,0.42,0.231,0.649h-1.269c-0.034-0.085-0.075-0.211-0.124-0.377
					c-0.022-0.075-0.036-0.127-0.045-0.15c-0.22,0.213-0.453,0.372-0.702,0.478c-0.25,0.105-0.517,0.159-0.798,0.159
					c-0.499,0-0.892-0.133-1.178-0.404c-0.287-0.272-0.431-0.614-0.431-1.026c0-0.274,0.066-0.516,0.194-0.73
					c0.132-0.214,0.315-0.378,0.55-0.492c0.236-0.115,0.575-0.213,1.02-0.3c0.6-0.112,1.015-0.216,1.245-0.313v-0.127
					c0-0.246-0.061-0.422-0.183-0.527c-0.122-0.103-0.35-0.156-0.688-0.156c-0.227,0-0.406,0.044-0.532,0.136
					C427.563,468.104,427.46,468.261,427.38,468.485z M429.095,469.525c-0.165,0.055-0.425,0.12-0.78,0.195
					c-0.354,0.074-0.588,0.151-0.696,0.225c-0.168,0.119-0.251,0.27-0.251,0.449c0,0.181,0.068,0.335,0.2,0.467
					c0.134,0.131,0.304,0.196,0.511,0.196c0.23,0,0.451-0.075,0.662-0.228c0.155-0.114,0.258-0.257,0.306-0.426
					c0.032-0.107,0.05-0.316,0.05-0.623L429.095,469.525L429.095,469.525z"/>
			</g>
		</g>
		<g>
			<g>
				<path d="M431.164,470.47l1.285-0.196c0.055,0.248,0.166,0.438,0.334,0.566c0.166,0.129,0.4,0.194,0.701,0.194
					c0.33,0,0.578-0.061,0.747-0.183c0.112-0.084,0.169-0.199,0.169-0.34c0-0.099-0.03-0.178-0.092-0.243
					c-0.063-0.059-0.206-0.117-0.426-0.169c-1.034-0.228-1.689-0.436-1.967-0.625c-0.382-0.261-0.574-0.626-0.574-1.09
					c0-0.419,0.166-0.771,0.497-1.056c0.33-0.286,0.845-0.429,1.539-0.429c0.664,0,1.155,0.107,1.477,0.325
					c0.322,0.216,0.545,0.534,0.666,0.956l-1.208,0.225c-0.052-0.188-0.15-0.333-0.294-0.434c-0.145-0.101-0.351-0.149-0.617-0.149
					c-0.338,0-0.579,0.047-0.726,0.141c-0.097,0.067-0.145,0.154-0.145,0.26c0,0.091,0.042,0.169,0.126,0.231
					c0.116,0.085,0.516,0.206,1.197,0.361c0.683,0.154,1.158,0.344,1.429,0.569c0.269,0.229,0.401,0.545,0.401,0.953
					c0,0.444-0.186,0.826-0.556,1.146c-0.373,0.318-0.921,0.478-1.646,0.478c-0.661,0-1.182-0.134-1.567-0.4
					C431.532,471.292,431.282,470.929,431.164,470.47z"/>
			</g>
		</g>
		<g>
			<g>
				<path d="M436.356,470.47l1.285-0.196c0.055,0.248,0.166,0.438,0.333,0.566s0.4,0.194,0.701,0.194
					c0.331,0,0.58-0.061,0.747-0.183c0.113-0.084,0.17-0.199,0.17-0.34c0-0.099-0.03-0.178-0.092-0.243
					c-0.063-0.059-0.206-0.117-0.427-0.169c-1.033-0.228-1.688-0.436-1.966-0.625c-0.383-0.261-0.573-0.626-0.573-1.09
					c0-0.419,0.165-0.771,0.496-1.056c0.33-0.286,0.844-0.429,1.539-0.429c0.664,0,1.155,0.107,1.477,0.325
					c0.322,0.216,0.545,0.534,0.667,0.956l-1.209,0.225c-0.052-0.188-0.149-0.333-0.294-0.434c-0.144-0.101-0.351-0.149-0.617-0.149
					c-0.337,0-0.578,0.047-0.725,0.141c-0.098,0.067-0.146,0.154-0.146,0.26c0,0.091,0.043,0.169,0.128,0.231
					c0.115,0.085,0.515,0.206,1.196,0.361c0.683,0.154,1.158,0.344,1.428,0.569c0.27,0.229,0.403,0.545,0.403,0.953
					c0,0.444-0.187,0.826-0.558,1.146c-0.371,0.318-0.92,0.478-1.646,0.478c-0.659,0-1.181-0.134-1.566-0.4
					C436.723,471.292,436.475,470.929,436.356,470.47z"/>
			</g>
		</g>
		<g>
			<g>
				<path d="M444.802,470.309l1.277,0.215c-0.167,0.469-0.426,0.824-0.778,1.068c-0.353,0.246-0.797,0.367-1.329,0.367
					c-0.84,0-1.464-0.273-1.868-0.824c-0.319-0.44-0.478-0.998-0.478-1.67c0-0.801,0.21-1.429,0.628-1.883
					c0.418-0.455,0.95-0.682,1.591-0.682c0.72,0,1.289,0.236,1.705,0.714c0.417,0.474,0.615,1.204,0.597,2.186h-3.209
					c0.01,0.38,0.112,0.675,0.311,0.886c0.197,0.211,0.442,0.315,0.738,0.315c0.2,0,0.368-0.054,0.506-0.163
					C444.629,470.729,444.733,470.552,444.802,470.309z M444.875,469.016c-0.011-0.373-0.105-0.654-0.287-0.846
					c-0.183-0.194-0.404-0.291-0.666-0.291c-0.279,0-0.511,0.104-0.692,0.307c-0.183,0.204-0.273,0.48-0.271,0.83H444.875
					L444.875,469.016z"/>
			</g>
		</g>
		<g>
			<g>
				<path d="M451.594,471.85h-1.281v-2.472c0-0.522-0.025-0.859-0.081-1.014c-0.055-0.152-0.143-0.271-0.268-0.358
					c-0.123-0.085-0.271-0.127-0.443-0.127c-0.223,0-0.421,0.062-0.597,0.183c-0.176,0.122-0.298,0.281-0.363,0.482
					c-0.065,0.199-0.099,0.572-0.099,1.113v2.192h-1.28v-4.84h1.19v0.71c0.423-0.546,0.954-0.822,1.594-0.822
					c0.283,0,0.541,0.052,0.775,0.155c0.234,0.101,0.411,0.229,0.531,0.389c0.12,0.156,0.203,0.337,0.251,0.538
					c0.047,0.199,0.07,0.487,0.07,0.86V471.85z"/>
			</g>
		</g>
	</g>
</g>
<g>
	<g>
		<g>
			<g>
				
					<rect x="385.354" y="462.797" transform="matrix(-0.3703 -0.9289 0.9289 -0.3703 95.3433 999.2242)" fill="#EEEEEE" width="2.002" height="8.999"/>
			</g>
		</g>
		<g>
			<g>
				<path d="M382.881,470.818l-1.11-2.785l8.36-3.33l1.11,2.785L382.881,470.818z"/>
			</g>
		</g>
	</g>
	<g>
		<g>
			<g>
				
					<rect x="364.273" y="454.884" transform="matrix(-0.3701 -0.929 0.929 -0.3701 62.0366 991.8333)" fill="#48826D" width="6" height="40.002"/>
			</g>
		</g>
		<g>
			<g>
				<path d="M350.175,485.998l-2.59-6.502l38.09-15.172l2.592,6.504L350.175,485.998z M348.885,480.055l1.851,4.646l36.23-14.432
					l-1.85-4.646L348.885,480.055z"/>
			</g>
		</g>
	</g>
	<g>
		<g>
			<g>
				<polygon fill="#666666" points="350.058,485.703 347.689,479.754 342.263,485.359 				"/>
			</g>
		</g>
		<g>
			<g>
				<path d="M342.056,485.443l6.356-6.572l2.777,6.973L342.056,485.443z M347.893,480.264l-4.494,4.645l6.456,0.285L347.893,480.264
					z"/>
			</g>
		</g>
	</g>
	<g>
		<g>
			<g>
				<path fill="#FFFFFF" d="M354.84,480.783l-0.727-0.889l0.262-0.105l0.456,0.59l-0.09-0.734l0.259-0.105l0.436,0.6l-0.069-0.744
					l0.265-0.105l0.077,1.148l-0.258,0.102l-0.436-0.584l0.088,0.725L354.84,480.783z"/>
			</g>
		</g>
		<g>
			<g>
				<path fill="#FFFFFF" d="M356.636,479.693l0.286-0.064c0.005,0.113-0.02,0.211-0.073,0.291c-0.055,0.08-0.137,0.145-0.248,0.188
					c-0.178,0.07-0.33,0.064-0.463-0.018c-0.104-0.064-0.184-0.17-0.239-0.311c-0.067-0.168-0.074-0.318-0.024-0.447
					c0.05-0.131,0.144-0.223,0.276-0.277c0.151-0.059,0.291-0.059,0.418,0.008c0.127,0.064,0.229,0.201,0.309,0.408l-0.675,0.27
					c0.034,0.078,0.08,0.133,0.139,0.16c0.062,0.027,0.121,0.029,0.183,0.006c0.042-0.018,0.074-0.043,0.094-0.078
					C356.635,479.795,356.642,479.75,356.636,479.693z M356.544,479.414c-0.033-0.076-0.076-0.127-0.131-0.152
					c-0.055-0.023-0.109-0.027-0.164-0.006c-0.06,0.023-0.099,0.064-0.12,0.123s-0.017,0.123,0.014,0.197L356.544,479.414z"/>
			</g>
		</g>
		<g>
			<g>
				<path fill="#FFFFFF" d="M357.255,479.82l-0.56-1.402l0.269-0.105l0.202,0.504c0.045-0.125,0.125-0.213,0.239-0.26
					c0.122-0.047,0.243-0.045,0.36,0.014c0.114,0.057,0.208,0.17,0.273,0.338c0.069,0.172,0.083,0.322,0.037,0.451
					c-0.046,0.127-0.128,0.213-0.246,0.26c-0.057,0.023-0.12,0.031-0.188,0.023c-0.067-0.006-0.135-0.029-0.196-0.068l0.059,0.146
					L357.255,479.82z M357.312,479.186c0.042,0.104,0.089,0.176,0.144,0.213c0.074,0.055,0.15,0.063,0.229,0.031
					c0.059-0.021,0.1-0.066,0.122-0.135c0.021-0.066,0.01-0.156-0.033-0.264c-0.047-0.117-0.103-0.193-0.163-0.229
					c-0.063-0.033-0.127-0.039-0.192-0.012c-0.064,0.025-0.108,0.072-0.131,0.139C357.261,478.998,357.271,479.082,357.312,479.186z
					"/>
			</g>
		</g>
		<g>
			<g>
				<path fill="#FFFFFF" d="M359.398,478.969l-0.25,0.1l-0.061-0.148c-0.019,0.074-0.051,0.137-0.095,0.188
					c-0.046,0.051-0.097,0.088-0.154,0.109c-0.116,0.047-0.235,0.039-0.355-0.02c-0.121-0.063-0.215-0.176-0.282-0.344
					c-0.068-0.174-0.081-0.32-0.035-0.441c0.045-0.123,0.131-0.207,0.255-0.258c0.112-0.045,0.229-0.037,0.352,0.023l-0.201-0.506
					l0.268-0.105L359.398,478.969z M358.468,478.725c0.042,0.107,0.089,0.182,0.14,0.217c0.069,0.055,0.146,0.064,0.224,0.031
					c0.062-0.021,0.104-0.07,0.126-0.141c0.021-0.068,0.013-0.156-0.028-0.262c-0.047-0.117-0.103-0.193-0.163-0.229
					c-0.063-0.035-0.128-0.039-0.193-0.012c-0.063,0.025-0.107,0.072-0.129,0.139C358.419,478.539,358.427,478.623,358.468,478.725z
					"/>
			</g>
		</g>
		<g>
			<g>
				<path fill="#FFFFFF" d="M360.122,478.305l0.286-0.063c0.005,0.113-0.021,0.209-0.074,0.289
					c-0.054,0.082-0.137,0.145-0.248,0.188c-0.178,0.072-0.33,0.066-0.461-0.018c-0.104-0.064-0.185-0.168-0.241-0.311
					c-0.065-0.168-0.074-0.316-0.024-0.447c0.05-0.129,0.143-0.223,0.278-0.275c0.149-0.061,0.289-0.059,0.415,0.008
					c0.129,0.063,0.231,0.201,0.309,0.408l-0.673,0.27c0.031,0.078,0.081,0.131,0.139,0.158c0.062,0.029,0.12,0.031,0.182,0.008
					c0.043-0.02,0.074-0.043,0.094-0.078C360.12,478.406,360.128,478.361,360.122,478.305z M360.03,478.027
					c-0.033-0.078-0.076-0.129-0.132-0.154s-0.109-0.027-0.163-0.006c-0.06,0.023-0.099,0.064-0.121,0.123
					c-0.021,0.059-0.017,0.123,0.014,0.197L360.03,478.027z"/>
			</g>
		</g>
		<g>
			<g>
				<path fill="#FFFFFF" d="M360.543,478.178l0.252-0.15c0.033,0.049,0.072,0.08,0.119,0.094c0.046,0.012,0.101,0.006,0.162-0.018
					c0.07-0.029,0.117-0.064,0.143-0.104c0.018-0.027,0.02-0.057,0.008-0.086c-0.01-0.021-0.021-0.035-0.041-0.043
					c-0.018-0.008-0.054-0.008-0.104,0c-0.236,0.039-0.391,0.049-0.465,0.033c-0.103-0.021-0.173-0.082-0.212-0.182
					c-0.035-0.088-0.029-0.176,0.017-0.264c0.044-0.088,0.142-0.16,0.288-0.219c0.14-0.055,0.249-0.074,0.335-0.055
					c0.087,0.018,0.16,0.064,0.223,0.145l-0.235,0.148c-0.027-0.035-0.061-0.059-0.098-0.066c-0.04-0.01-0.089-0.002-0.144,0.02
					c-0.071,0.027-0.118,0.061-0.142,0.09c-0.015,0.023-0.018,0.047-0.008,0.068c0.007,0.02,0.021,0.031,0.046,0.037
					c0.029,0.008,0.126,0,0.281-0.023c0.155-0.025,0.271-0.025,0.349,0c0.075,0.023,0.129,0.08,0.163,0.166
					c0.037,0.094,0.029,0.189-0.021,0.287c-0.051,0.1-0.15,0.178-0.305,0.238c-0.14,0.055-0.26,0.07-0.362,0.045
					C360.69,478.318,360.606,478.264,360.543,478.178z"/>
			</g>
		</g>
		<g>
			<g>
				<path fill="#FFFFFF" d="M361.383,476.84l-0.101-0.25l0.27-0.105l0.101,0.25L361.383,476.84z M361.842,477.994l-0.404-1.018
					l0.271-0.107l0.404,1.018L361.842,477.994z"/>
			</g>
		</g>
		<g>
			<g>
				<path fill="#FFFFFF" d="M362.39,477.854l0.32-0.084c0.021,0.033,0.042,0.053,0.066,0.059c0.031,0.01,0.076,0.002,0.131-0.02
					c0.07-0.027,0.118-0.061,0.146-0.096c0.02-0.021,0.025-0.053,0.026-0.09c-0.001-0.025-0.012-0.066-0.037-0.127l-0.059-0.148
					c-0.036,0.143-0.116,0.238-0.239,0.285c-0.136,0.057-0.268,0.041-0.394-0.043c-0.099-0.066-0.176-0.168-0.229-0.305
					c-0.067-0.17-0.078-0.316-0.033-0.439c0.047-0.123,0.132-0.207,0.254-0.256c0.125-0.049,0.25-0.037,0.377,0.041l-0.057-0.143
					l0.25-0.102l0.364,0.912c0.048,0.121,0.073,0.215,0.078,0.281c0.002,0.068-0.007,0.125-0.027,0.174
					c-0.023,0.049-0.061,0.094-0.112,0.137c-0.052,0.041-0.124,0.082-0.216,0.117c-0.171,0.07-0.306,0.088-0.401,0.059
					c-0.095-0.029-0.16-0.09-0.196-0.182C362.399,477.877,362.394,477.867,362.39,477.854z M362.393,477.162
					c0.043,0.107,0.095,0.178,0.155,0.213c0.063,0.031,0.123,0.037,0.186,0.012c0.064-0.025,0.11-0.072,0.137-0.143
					c0.024-0.07,0.017-0.154-0.023-0.256c-0.042-0.105-0.095-0.174-0.158-0.209c-0.063-0.033-0.129-0.037-0.194-0.01
					c-0.064,0.023-0.107,0.07-0.13,0.139C362.341,476.975,362.351,477.059,362.393,477.162z"/>
			</g>
		</g>
		<g>
			<g>
				<path fill="#FFFFFF" d="M364.508,476.932l-0.269,0.107l-0.206-0.52c-0.044-0.109-0.077-0.18-0.104-0.205
					c-0.023-0.027-0.053-0.045-0.086-0.053c-0.031-0.01-0.066-0.006-0.104,0.01c-0.046,0.018-0.084,0.049-0.11,0.088
					c-0.026,0.041-0.039,0.084-0.035,0.133c0.002,0.047,0.027,0.127,0.072,0.242l0.185,0.459l-0.271,0.105l-0.405-1.016l0.25-0.102
					l0.062,0.152c0.042-0.15,0.131-0.254,0.266-0.307c0.061-0.023,0.117-0.035,0.175-0.035c0.059,0.004,0.107,0.016,0.146,0.039
					c0.037,0.021,0.07,0.055,0.097,0.092c0.027,0.039,0.057,0.098,0.086,0.174L364.508,476.932z"/>
			</g>
		</g>
		<g>
			<g>
				<path fill="#FFFFFF" d="M364.903,475.598l0.246-0.1l0.057,0.139c0.046-0.143,0.13-0.236,0.253-0.285
					c0.065-0.025,0.126-0.035,0.187-0.027c0.058,0.008,0.112,0.033,0.165,0.074c0.022-0.072,0.055-0.133,0.097-0.18
					c0.041-0.049,0.091-0.082,0.149-0.105c0.073-0.029,0.144-0.041,0.207-0.031s0.12,0.039,0.168,0.088
					c0.036,0.035,0.074,0.104,0.112,0.201l0.259,0.648l-0.27,0.105l-0.231-0.58c-0.04-0.102-0.074-0.162-0.104-0.184
					c-0.039-0.029-0.086-0.033-0.138-0.014c-0.037,0.016-0.068,0.041-0.094,0.076c-0.023,0.037-0.033,0.08-0.03,0.131
					c0.004,0.051,0.022,0.123,0.062,0.219l0.194,0.488l-0.27,0.107l-0.222-0.559c-0.04-0.1-0.069-0.16-0.09-0.186
					c-0.022-0.023-0.045-0.041-0.071-0.047c-0.025-0.006-0.056-0.002-0.09,0.012c-0.041,0.018-0.074,0.043-0.099,0.078
					c-0.024,0.037-0.035,0.076-0.033,0.125c0.004,0.049,0.023,0.121,0.063,0.219l0.196,0.494l-0.27,0.105L364.903,475.598z"/>
			</g>
		</g>
		<g>
			<g>
				<path fill="#FFFFFF" d="M366.99,475.127l-0.262,0.051c-0.012-0.107,0.008-0.197,0.056-0.273
					c0.048-0.074,0.139-0.137,0.271-0.189c0.12-0.047,0.216-0.068,0.285-0.064c0.07,0.008,0.125,0.025,0.167,0.061
					s0.085,0.109,0.132,0.229l0.123,0.313c0.035,0.09,0.064,0.154,0.092,0.193c0.023,0.039,0.06,0.078,0.103,0.117l-0.267,0.104
					c-0.015-0.014-0.033-0.037-0.059-0.068c-0.011-0.014-0.019-0.023-0.021-0.027c-0.028,0.063-0.063,0.117-0.107,0.16
					s-0.095,0.076-0.153,0.1c-0.104,0.043-0.198,0.047-0.282,0.014c-0.082-0.031-0.143-0.094-0.177-0.18
					c-0.021-0.057-0.028-0.113-0.021-0.17c0.01-0.057,0.035-0.105,0.075-0.148s0.104-0.094,0.188-0.148
					c0.117-0.072,0.194-0.129,0.234-0.17l-0.01-0.027c-0.021-0.051-0.049-0.082-0.082-0.094c-0.035-0.012-0.087-0.004-0.158,0.023
					c-0.048,0.02-0.081,0.043-0.102,0.072C366.997,475.029,366.989,475.072,366.99,475.127z M367.437,475.199
					c-0.029,0.025-0.079,0.063-0.146,0.107c-0.068,0.047-0.111,0.08-0.129,0.104c-0.024,0.039-0.029,0.078-0.014,0.117
					c0.015,0.037,0.041,0.063,0.08,0.08c0.039,0.016,0.081,0.016,0.124-0.002c0.049-0.02,0.088-0.055,0.118-0.104
					c0.023-0.037,0.034-0.076,0.03-0.115c-0.004-0.023-0.018-0.068-0.043-0.135L367.437,475.199z"/>
			</g>
		</g>
		<g>
			<g>
				<path fill="#FFFFFF" d="M368.761,474.408l-0.245,0.154c-0.03-0.051-0.066-0.082-0.109-0.096
					c-0.041-0.016-0.087-0.014-0.138,0.006c-0.067,0.027-0.111,0.072-0.135,0.137c-0.021,0.061-0.01,0.145,0.033,0.254
					c0.049,0.121,0.104,0.199,0.162,0.232c0.061,0.033,0.126,0.037,0.194,0.01c0.051-0.021,0.087-0.053,0.107-0.094
					c0.021-0.043,0.023-0.102,0.009-0.18l0.281-0.059c0.021,0.133,0.005,0.244-0.049,0.338c-0.052,0.094-0.144,0.166-0.275,0.219
					c-0.147,0.059-0.284,0.059-0.411,0c-0.125-0.059-0.223-0.17-0.287-0.338c-0.067-0.168-0.075-0.316-0.023-0.443
					c0.052-0.129,0.152-0.225,0.305-0.285c0.124-0.049,0.233-0.061,0.326-0.037C368.601,474.252,368.687,474.313,368.761,474.408z"
					/>
			</g>
		</g>
		<g>
			<g>
				<path fill="#FFFFFF" d="M368.96,473.533l0.205,0.516c0.048-0.137,0.131-0.227,0.252-0.273c0.063-0.025,0.121-0.035,0.182-0.033
					c0.06,0.002,0.107,0.018,0.146,0.043s0.072,0.059,0.099,0.098c0.025,0.041,0.06,0.105,0.096,0.197l0.235,0.596l-0.268,0.107
					l-0.214-0.537c-0.042-0.107-0.074-0.174-0.097-0.197c-0.021-0.023-0.05-0.039-0.081-0.047c-0.032-0.006-0.068-0.002-0.107,0.014
					c-0.046,0.018-0.08,0.045-0.106,0.08c-0.026,0.037-0.038,0.078-0.037,0.129s0.019,0.117,0.053,0.203l0.202,0.51l-0.271,0.107
					l-0.559-1.404L368.96,473.533z"/>
			</g>
		</g>
		<g>
			<g>
				<path fill="#FFFFFF" d="M370.908,474.01l0.286-0.063c0.005,0.113-0.021,0.209-0.074,0.289c-0.054,0.082-0.137,0.145-0.248,0.188
					c-0.177,0.072-0.33,0.064-0.462-0.018c-0.103-0.064-0.184-0.168-0.239-0.311c-0.066-0.168-0.076-0.316-0.025-0.447
					s0.143-0.223,0.277-0.275c0.15-0.061,0.289-0.059,0.417,0.008c0.127,0.063,0.229,0.199,0.309,0.408l-0.673,0.268
					c0.032,0.08,0.08,0.133,0.138,0.16c0.062,0.029,0.121,0.029,0.182,0.006c0.043-0.018,0.074-0.043,0.095-0.076
					C370.907,474.109,370.914,474.064,370.908,474.01z M370.816,473.73c-0.033-0.078-0.076-0.129-0.131-0.154
					c-0.056-0.023-0.11-0.025-0.164-0.004c-0.06,0.021-0.099,0.063-0.121,0.121c-0.021,0.059-0.017,0.125,0.015,0.197
					L370.816,473.73z"/>
			</g>
		</g>
		<g>
			<g>
				<path fill="#FFFFFF" d="M372.462,473.764l-0.269,0.107l-0.207-0.518c-0.044-0.111-0.077-0.182-0.103-0.207
					c-0.024-0.027-0.052-0.045-0.086-0.053c-0.032-0.01-0.066-0.006-0.104,0.01c-0.047,0.02-0.083,0.049-0.111,0.088
					c-0.025,0.041-0.037,0.084-0.034,0.133c0.002,0.047,0.026,0.129,0.072,0.242l0.183,0.459l-0.269,0.107l-0.405-1.018l0.251-0.102
					l0.061,0.152c0.042-0.15,0.13-0.254,0.266-0.307c0.061-0.023,0.118-0.035,0.175-0.033c0.06,0,0.106,0.014,0.146,0.037
					s0.069,0.055,0.098,0.092c0.027,0.039,0.056,0.098,0.087,0.174L372.462,473.764z"/>
			</g>
		</g>
		<g>
			<g>
				<path fill="#FFFFFF" d="M372.737,473.656l-0.56-1.404l0.27-0.107l0.56,1.402L372.737,473.656z"/>
			</g>
		</g>
		<g>
			<g>
				<path fill="#FFFFFF" d="M373.199,472.652l-0.261,0.053c-0.013-0.109,0.007-0.199,0.055-0.275
					c0.049-0.072,0.139-0.137,0.271-0.188c0.117-0.047,0.215-0.07,0.284-0.064c0.068,0.006,0.123,0.025,0.166,0.059
					c0.041,0.035,0.085,0.109,0.131,0.229l0.123,0.314c0.035,0.088,0.065,0.152,0.093,0.191c0.024,0.037,0.06,0.078,0.103,0.117
					l-0.267,0.105c-0.015-0.016-0.033-0.037-0.059-0.068c-0.011-0.014-0.019-0.023-0.021-0.029c-0.028,0.064-0.065,0.117-0.107,0.16
					c-0.044,0.043-0.095,0.076-0.153,0.102c-0.104,0.041-0.198,0.045-0.282,0.014c-0.082-0.033-0.143-0.094-0.175-0.18
					c-0.023-0.059-0.03-0.113-0.021-0.17s0.034-0.107,0.074-0.15s0.104-0.094,0.188-0.146c0.116-0.074,0.194-0.131,0.234-0.172
					l-0.011-0.025c-0.021-0.051-0.048-0.082-0.082-0.096c-0.034-0.012-0.088-0.004-0.158,0.023
					c-0.048,0.021-0.081,0.043-0.101,0.074C373.206,472.557,373.198,472.598,373.199,472.652z M373.647,472.727
					c-0.029,0.025-0.079,0.061-0.146,0.105c-0.067,0.047-0.11,0.08-0.129,0.105c-0.022,0.037-0.03,0.078-0.015,0.115
					c0.015,0.037,0.043,0.064,0.081,0.08c0.039,0.018,0.08,0.018,0.124-0.002c0.049-0.018,0.088-0.053,0.118-0.104
					c0.023-0.035,0.033-0.074,0.03-0.113c-0.004-0.025-0.018-0.07-0.043-0.137L373.647,472.727z"/>
			</g>
		</g>
		<g>
			<g>
				<path fill="#FFFFFF" d="M374.16,472.752l0.254-0.148c0.032,0.049,0.071,0.078,0.118,0.092c0.046,0.014,0.1,0.008,0.163-0.018
					c0.069-0.027,0.117-0.063,0.142-0.102c0.018-0.027,0.02-0.057,0.006-0.086c-0.008-0.021-0.021-0.035-0.039-0.043
					c-0.018-0.008-0.053-0.008-0.104,0c-0.236,0.037-0.391,0.049-0.465,0.033c-0.104-0.023-0.174-0.084-0.212-0.182
					c-0.036-0.088-0.029-0.176,0.017-0.266c0.045-0.086,0.143-0.158,0.287-0.217c0.139-0.057,0.251-0.074,0.337-0.057
					c0.085,0.02,0.159,0.066,0.22,0.146l-0.232,0.146c-0.028-0.035-0.061-0.057-0.101-0.066c-0.038-0.008-0.087-0.002-0.143,0.021
					c-0.07,0.027-0.116,0.059-0.141,0.09c-0.015,0.021-0.018,0.045-0.009,0.068c0.008,0.018,0.023,0.031,0.046,0.035
					c0.031,0.01,0.126,0.002,0.281-0.023c0.156-0.023,0.273-0.023,0.349,0c0.074,0.025,0.13,0.082,0.165,0.168
					c0.036,0.094,0.028,0.189-0.021,0.287s-0.153,0.178-0.306,0.238c-0.141,0.055-0.261,0.068-0.362,0.045
					C374.308,472.895,374.225,472.838,374.16,472.752z"/>
			</g>
		</g>
		<g>
			<g>
				<path fill="#FFFFFF" d="M375.25,472.318l0.254-0.148c0.032,0.047,0.072,0.078,0.118,0.09c0.045,0.016,0.1,0.01,0.163-0.018
					c0.07-0.027,0.117-0.063,0.142-0.102c0.018-0.025,0.02-0.057,0.008-0.086c-0.009-0.02-0.021-0.033-0.039-0.043
					c-0.019-0.008-0.055-0.008-0.104,0c-0.237,0.039-0.392,0.051-0.466,0.033c-0.104-0.021-0.172-0.082-0.212-0.18
					c-0.034-0.09-0.029-0.176,0.017-0.268c0.045-0.086,0.142-0.156,0.288-0.217c0.14-0.055,0.251-0.074,0.337-0.057
					c0.085,0.02,0.159,0.066,0.222,0.146l-0.236,0.148c-0.026-0.035-0.061-0.059-0.098-0.068c-0.039-0.008-0.087-0.002-0.144,0.021
					c-0.07,0.027-0.117,0.061-0.141,0.092c-0.015,0.021-0.018,0.045-0.008,0.066c0.008,0.018,0.022,0.031,0.047,0.037
					c0.029,0.01,0.124,0,0.278-0.023c0.157-0.025,0.273-0.025,0.35,0c0.075,0.025,0.13,0.08,0.164,0.166
					c0.037,0.094,0.029,0.188-0.021,0.287c-0.05,0.098-0.153,0.178-0.305,0.238c-0.139,0.057-0.26,0.068-0.362,0.047
					C375.398,472.459,375.315,472.404,375.25,472.318z"/>
			</g>
		</g>
		<g>
			<g>
				<path fill="#FFFFFF" d="M377.01,471.578l0.286-0.064c0.006,0.113-0.02,0.211-0.074,0.291c-0.053,0.08-0.136,0.145-0.246,0.188
					c-0.179,0.072-0.33,0.064-0.463-0.02c-0.104-0.063-0.184-0.168-0.239-0.309c-0.067-0.168-0.075-0.318-0.025-0.447
					c0.05-0.131,0.144-0.223,0.277-0.275c0.15-0.061,0.29-0.061,0.417,0.008c0.128,0.063,0.229,0.199,0.309,0.408l-0.675,0.268
					c0.035,0.078,0.081,0.133,0.14,0.16c0.061,0.029,0.12,0.031,0.183,0.006c0.042-0.018,0.073-0.043,0.093-0.078
					C377.009,471.68,377.017,471.635,377.01,471.578z M376.918,471.299c-0.033-0.076-0.076-0.127-0.132-0.152
					c-0.054-0.023-0.108-0.027-0.162-0.006c-0.06,0.023-0.099,0.064-0.121,0.123c-0.021,0.059-0.017,0.123,0.015,0.197
					L376.918,471.299z"/>
			</g>
		</g>
		<g>
			<g>
				<path fill="#FFFFFF" d="M378.567,471.332l-0.27,0.107l-0.207-0.52c-0.043-0.109-0.078-0.178-0.102-0.207
					c-0.025-0.025-0.054-0.043-0.086-0.051c-0.034-0.008-0.068-0.006-0.104,0.01c-0.047,0.02-0.083,0.047-0.109,0.088
					c-0.026,0.039-0.039,0.086-0.035,0.133c0.002,0.047,0.027,0.129,0.072,0.24l0.184,0.461l-0.27,0.107l-0.405-1.018l0.25-0.1
					l0.06,0.15c0.043-0.15,0.132-0.252,0.269-0.307c0.059-0.023,0.116-0.035,0.174-0.035c0.058,0.004,0.104,0.016,0.145,0.039
					s0.07,0.055,0.099,0.092c0.025,0.037,0.056,0.098,0.087,0.176L378.567,471.332z"/>
			</g>
		</g>
	</g>
</g>
<g>
	<g>
		<g>
			<polygon fill="#F5F5F5" points="126.262,468.438 39.995,457.495 54.389,475.953 140.654,486.895 			"/>
		</g>
		<g>
			<path d="M141.794,487.544l-87.672-11.121l-15.266-19.576l87.674,11.12L141.794,487.544z M54.655,475.483l84.86,10.763
				l-13.52-17.339l-84.86-10.763L54.655,475.483z"/>
		</g>
	</g>
	<g>
		<g>
			
				<rect x="38.185" y="462.874" transform="matrix(-0.9921 -0.1258 0.1258 -0.9921 102.9668 955.5394)" fill="#F5F5F5" width="86.958" height="23.288"/>
		</g>
		<g>
			<path d="M123.765,492.1l-87.259-11.067l3.056-24.096l87.259,11.067L123.765,492.1z M37.624,480.166l85.275,10.815l2.804-22.111
				l-85.275-10.815L37.624,480.166L37.624,480.166z"/>
		</g>
	</g>
	<g>
		<g>
			<path d="M49.742,473.072l2.212,0.063c0.038,0.749,0.236,1.321,0.595,1.718c0.358,0.395,0.879,0.635,1.561,0.722
				c0.724,0.092,1.287,0.008,1.693-0.252c0.406-0.26,0.633-0.593,0.685-1.002c0.033-0.264-0.016-0.498-0.146-0.701
				c-0.131-0.206-0.38-0.398-0.747-0.583c-0.251-0.124-0.83-0.363-1.735-0.714c-1.166-0.451-1.963-0.925-2.394-1.42
				c-0.605-0.699-0.852-1.486-0.74-2.366c0.072-0.567,0.299-1.076,0.682-1.529c0.383-0.454,0.894-0.77,1.531-0.95
				c0.636-0.182,1.382-0.218,2.236-0.109c1.396,0.176,2.407,0.616,3.034,1.317s0.895,1.563,0.801,2.59l-2.258-0.187
				c-0.023-0.581-0.178-1.019-0.462-1.308c-0.284-0.293-0.742-0.477-1.374-0.557c-0.653-0.083-1.18-0.014-1.583,0.207
				c-0.259,0.143-0.407,0.355-0.444,0.644c-0.033,0.265,0.05,0.503,0.248,0.717c0.253,0.275,0.91,0.61,1.968,1.006
				c1.06,0.396,1.833,0.764,2.321,1.108c0.488,0.341,0.85,0.771,1.085,1.285c0.234,0.516,0.307,1.123,0.218,1.826
				c-0.081,0.638-0.333,1.213-0.757,1.724s-0.978,0.862-1.659,1.05s-1.505,0.221-2.47,0.098c-1.405-0.178-2.443-0.641-3.115-1.385
				C50.06,475.338,49.731,474.334,49.742,473.072z"/>
		</g>
		<g>
			<path d="M62.713,478.394l1.171-9.237l-3.298-0.418l0.239-1.882l8.834,1.121l-0.239,1.881l-3.292-0.417l-1.172,9.236
				L62.713,478.394z"/>
		</g>
		<g>
			<path d="M69.698,479.279l1.41-11.118l8.243,1.045l-0.239,1.882l-5.998-0.761l-0.313,2.465l5.581,0.708l-0.237,1.874l-5.582-0.709
				l-0.384,3.026l6.211,0.789l-0.237,1.871L69.698,479.279L69.698,479.279z"/>
		</g>
		<g>
			<path d="M80.071,480.594l1.41-11.117l7.621,0.967l-0.239,1.881l-5.376-0.682l-0.334,2.632l4.641,0.589l-0.239,1.881l-4.641-0.589
				l-0.599,4.724L80.071,480.594z"/>
		</g>
		<g>
			<path d="M98.711,482.959l-2.442-0.311l-0.649-2.649l-4.444-0.563l-1.238,2.411l-2.381-0.303l5.74-10.569l2.374,0.302
				L98.711,482.959z M95.135,478.036l-1.009-4.32l-2.025,3.936L95.135,478.036z"/>
		</g>
		<g>
			<path d="M99.925,483.112l1.41-11.118l2.184,0.277l3.607,8.003l0.942-7.425l2.085,0.264l-1.41,11.117l-2.252-0.284l-3.563-7.819
				l-0.919,7.25L99.925,483.112z"/>
		</g>
	</g>
</g>
</svg>
