<?xml version="1.0" encoding="utf-8"?>
<!-- Generator: Adobe Illustrator 16.0.0, SVG Export Plug-In . SVG Version: 6.00 Build 0)  -->
<!DOCTYPE svg PUBLIC "-//W3C//DTD SVG 1.1//EN" "http://www.w3.org/Graphics/SVG/1.1/DTD/svg11.dtd">
<svg version="1.1" id="Ebene_1" xmlns="http://www.w3.org/2000/svg" xmlns:xlink="http://www.w3.org/1999/xlink" x="0px" y="0px"
	 width="100px" height="100px" viewBox="0 0 100 100" enable-background="new 0 0 100 100" xml:space="preserve">
<g>
	<rect x="18.672" y="8.226" fill="#43836F" width="67.974" height="86.774"/>
	<g>
		<rect x="15.78" y="5.333" fill="#FFFFFF" width="67.973" height="86.774"/>
	</g>
	<rect x="49.043" y="5.333" fill="#F5F5F5" width="34.71" height="86.774"/>
	<g>
		<path fill="#43836F" d="M28.727,18.241c0,0.152-0.006,0.272-0.02,0.36c-0.011,0.086-0.031,0.149-0.059,0.187
			c-0.028,0.036-0.061,0.053-0.1,0.049c-0.039-0.004-0.089-0.021-0.151-0.049l-4.758-2.37c-0.058-0.032-0.1-0.101-0.127-0.209
			c-0.028-0.105-0.041-0.263-0.041-0.474c0-0.107,0.004-0.201,0.013-0.282c0.007-0.081,0.019-0.147,0.031-0.198
			c0.011-0.052,0.03-0.093,0.051-0.125c0.024-0.03,0.05-0.055,0.079-0.07l4.751-2.357c0.12-0.058,0.206-0.047,0.254,0.035
			c0.051,0.08,0.076,0.244,0.076,0.493c0,0.169-0.002,0.304-0.011,0.403c-0.005,0.099-0.017,0.178-0.033,0.235
			c-0.016,0.058-0.039,0.099-0.068,0.123c-0.029,0.025-0.068,0.049-0.118,0.076l-3.573,1.674l3.505,1.626
			c0.062,0.028,0.113,0.058,0.151,0.086c0.04,0.029,0.07,0.075,0.092,0.133c0.02,0.061,0.034,0.14,0.042,0.242
			C28.723,17.93,28.727,18.068,28.727,18.241z"/>
		<path fill="#43836F" d="M34.749,13.192c0,0.338-0.049,0.645-0.146,0.918c-0.097,0.273-0.234,0.509-0.41,0.708
			c-0.175,0.198-0.386,0.359-0.633,0.479c-0.246,0.12-0.519,0.196-0.816,0.229l-0.049,1.209c-0.004,0.075-0.062,0.13-0.176,0.168
			c-0.114,0.036-0.278,0.057-0.493,0.057c-0.136,0-0.25-0.003-0.344-0.01c-0.093-0.006-0.167-0.017-0.22-0.034
			c-0.053-0.016-0.092-0.039-0.118-0.068c-0.025-0.029-0.04-0.065-0.044-0.111l-0.056-1.463c-0.004-0.134,0.001-0.24,0.019-0.323
			c0.017-0.083,0.046-0.149,0.09-0.198c0.042-0.049,0.098-0.083,0.165-0.103c0.066-0.019,0.145-0.029,0.236-0.029h0.087
			c0.218,0,0.408-0.035,0.568-0.105c0.159-0.07,0.292-0.164,0.394-0.28c0.104-0.115,0.18-0.251,0.227-0.409
			c0.048-0.156,0.071-0.325,0.071-0.501c0-0.198-0.029-0.38-0.084-0.546c-0.055-0.165-0.14-0.308-0.254-0.428
			c-0.114-0.12-0.256-0.211-0.428-0.276c-0.172-0.065-0.373-0.096-0.604-0.096c-0.211,0-0.396,0.02-0.558,0.063
			c-0.161,0.041-0.299,0.087-0.415,0.135c-0.116,0.049-0.211,0.095-0.29,0.136c-0.076,0.042-0.134,0.063-0.176,0.063
			c-0.029,0-0.056-0.009-0.081-0.029c-0.025-0.019-0.047-0.052-0.062-0.103c-0.017-0.049-0.03-0.12-0.041-0.211
			c-0.01-0.091-0.016-0.207-0.016-0.347c0-0.145,0.005-0.25,0.019-0.317c0.013-0.066,0.039-0.12,0.081-0.16
			c0.041-0.042,0.12-0.091,0.236-0.146c0.116-0.055,0.254-0.107,0.417-0.155c0.161-0.048,0.341-0.088,0.54-0.122
			c0.197-0.032,0.405-0.049,0.62-0.049c0.488,0,0.905,0.067,1.254,0.202c0.348,0.135,0.632,0.315,0.852,0.542
			c0.221,0.228,0.383,0.487,0.487,0.783C34.696,12.556,34.749,12.866,34.749,13.192z M32.912,18.507
			c0,0.171-0.014,0.313-0.041,0.428c-0.027,0.116-0.074,0.209-0.143,0.28c-0.068,0.069-0.16,0.12-0.272,0.151
			c-0.113,0.032-0.253,0.046-0.419,0.046c-0.173,0-0.317-0.016-0.428-0.046c-0.111-0.03-0.201-0.083-0.271-0.151
			c-0.068-0.071-0.115-0.164-0.143-0.28c-0.028-0.115-0.041-0.257-0.041-0.428c0-0.173,0.013-0.319,0.041-0.436
			c0.027-0.117,0.073-0.213,0.143-0.286c0.068-0.072,0.158-0.124,0.271-0.154c0.111-0.03,0.255-0.046,0.428-0.046
			c0.165,0,0.305,0.016,0.419,0.046c0.114,0.03,0.205,0.083,0.272,0.154c0.068,0.073,0.116,0.168,0.143,0.286
			S32.912,18.333,32.912,18.507z"/>
		<path fill="#43836F" d="M41.614,16.263c0,0.492-0.054,0.936-0.158,1.331c-0.104,0.395-0.258,0.73-0.461,1.008
			s-0.456,0.491-0.757,0.64c-0.301,0.149-0.646,0.223-1.036,0.223c-0.161,0-0.308-0.016-0.443-0.046
			c-0.135-0.031-0.265-0.078-0.391-0.143c-0.126-0.065-0.252-0.144-0.375-0.239c-0.124-0.095-0.252-0.207-0.385-0.334v2.604
			c0,0.041-0.012,0.079-0.037,0.112c-0.024,0.033-0.066,0.061-0.127,0.083c-0.061,0.023-0.14,0.041-0.239,0.053
			c-0.098,0.014-0.225,0.019-0.378,0.019c-0.152,0-0.28-0.005-0.377-0.019c-0.1-0.013-0.18-0.03-0.241-0.053
			c-0.061-0.023-0.101-0.05-0.127-0.083c-0.025-0.033-0.036-0.071-0.036-0.112v-7.728c0-0.043,0.01-0.079,0.03-0.109
			s0.057-0.057,0.108-0.079c0.052-0.02,0.12-0.036,0.206-0.046c0.085-0.01,0.191-0.016,0.32-0.016c0.124,0,0.228,0.006,0.313,0.016
			c0.086,0.01,0.153,0.026,0.206,0.046c0.053,0.022,0.089,0.046,0.108,0.079c0.02,0.03,0.03,0.066,0.03,0.109v0.65
			c0.161-0.165,0.32-0.311,0.474-0.436c0.155-0.126,0.314-0.232,0.475-0.317c0.162-0.085,0.328-0.147,0.499-0.189
			c0.17-0.042,0.354-0.063,0.549-0.063c0.405,0,0.75,0.08,1.035,0.239c0.287,0.159,0.518,0.377,0.699,0.655
			c0.179,0.277,0.311,0.6,0.393,0.968C41.575,15.452,41.614,15.846,41.614,16.263z M39.99,16.374c0-0.235-0.018-0.461-0.053-0.68
			c-0.035-0.217-0.096-0.411-0.181-0.58c-0.085-0.169-0.197-0.305-0.334-0.406c-0.139-0.101-0.312-0.152-0.519-0.152
			c-0.104,0-0.206,0.017-0.306,0.047c-0.101,0.03-0.206,0.082-0.31,0.152c-0.105,0.069-0.214,0.16-0.326,0.272
			c-0.11,0.111-0.229,0.25-0.354,0.415v1.824c0.219,0.276,0.428,0.49,0.626,0.642s0.405,0.226,0.621,0.226
			c0.203,0,0.375-0.052,0.518-0.155c0.142-0.103,0.259-0.238,0.351-0.407c0.091-0.167,0.157-0.357,0.201-0.568
			C39.968,16.796,39.99,16.585,39.99,16.374z"/>
		<path fill="#43836F" d="M48.145,19.109c0,0.042-0.014,0.079-0.038,0.109c-0.025,0.03-0.064,0.058-0.123,0.077
			c-0.058,0.021-0.138,0.037-0.24,0.047c-0.101,0.01-0.226,0.016-0.375,0.016c-0.152,0-0.281-0.006-0.381-0.016
			c-0.101-0.01-0.181-0.026-0.238-0.047c-0.058-0.02-0.1-0.046-0.125-0.077c-0.025-0.032-0.038-0.066-0.038-0.109v-3.158
			c0-0.269-0.018-0.479-0.059-0.633c-0.042-0.153-0.097-0.285-0.17-0.394c-0.074-0.109-0.171-0.194-0.289-0.254
			c-0.117-0.061-0.256-0.09-0.412-0.09c-0.199,0-0.399,0.072-0.602,0.217c-0.203,0.144-0.414,0.356-0.634,0.633v3.678
			c0,0.042-0.014,0.079-0.038,0.109c-0.023,0.03-0.066,0.058-0.127,0.077c-0.061,0.021-0.139,0.037-0.239,0.047
			c-0.098,0.01-0.226,0.016-0.379,0.016c-0.151,0-0.279-0.006-0.377-0.016c-0.1-0.01-0.179-0.026-0.24-0.047
			c-0.061-0.02-0.101-0.046-0.127-0.077c-0.025-0.03-0.036-0.066-0.036-0.109v-8.157c0-0.041,0.011-0.078,0.036-0.111
			c0.026-0.032,0.066-0.062,0.127-0.084c0.061-0.023,0.14-0.041,0.24-0.054c0.098-0.011,0.226-0.018,0.377-0.018
			c0.153,0,0.279,0.005,0.379,0.018c0.1,0.013,0.179,0.03,0.239,0.054c0.06,0.023,0.104,0.051,0.127,0.084
			c0.024,0.033,0.038,0.07,0.038,0.111v3.059c0.27-0.265,0.543-0.462,0.821-0.593c0.279-0.129,0.57-0.195,0.873-0.195
			c0.375,0,0.693,0.063,0.951,0.187c0.259,0.123,0.467,0.294,0.626,0.509c0.158,0.214,0.272,0.465,0.345,0.753
			c0.068,0.288,0.105,0.635,0.105,1.046L48.145,19.109L48.145,19.109z"/>
		<path fill="#43836F" d="M55.248,16.263c0,0.492-0.054,0.936-0.157,1.331c-0.104,0.395-0.261,0.73-0.464,1.008
			c-0.2,0.278-0.454,0.491-0.756,0.64c-0.301,0.149-0.646,0.223-1.034,0.223c-0.161,0-0.308-0.016-0.445-0.046
			c-0.133-0.031-0.264-0.078-0.39-0.143c-0.125-0.065-0.251-0.144-0.375-0.239s-0.253-0.207-0.385-0.334v2.604
			c0,0.041-0.012,0.079-0.037,0.112c-0.024,0.033-0.066,0.061-0.127,0.083s-0.139,0.041-0.239,0.053
			c-0.099,0.014-0.226,0.019-0.379,0.019c-0.152,0-0.278-0.005-0.377-0.019c-0.1-0.013-0.178-0.03-0.239-0.053
			c-0.061-0.023-0.103-0.05-0.128-0.083c-0.024-0.033-0.036-0.071-0.036-0.112v-7.728c0-0.043,0.01-0.079,0.03-0.109
			s0.056-0.057,0.109-0.079c0.052-0.02,0.12-0.036,0.206-0.046c0.084-0.01,0.191-0.016,0.319-0.016c0.125,0,0.229,0.006,0.314,0.016
			c0.084,0.01,0.153,0.026,0.205,0.046c0.053,0.022,0.089,0.046,0.109,0.079c0.02,0.03,0.03,0.066,0.03,0.109v0.65
			c0.16-0.165,0.32-0.311,0.475-0.436c0.155-0.126,0.313-0.232,0.474-0.317c0.163-0.085,0.329-0.147,0.5-0.189
			s0.354-0.063,0.549-0.063c0.406,0,0.751,0.08,1.036,0.239c0.285,0.159,0.517,0.377,0.697,0.655c0.181,0.277,0.311,0.6,0.395,0.968
			S55.248,15.846,55.248,16.263z M53.623,16.374c0-0.235-0.019-0.461-0.054-0.68c-0.034-0.217-0.094-0.411-0.181-0.58
			c-0.085-0.169-0.196-0.305-0.334-0.406c-0.139-0.101-0.311-0.152-0.518-0.152c-0.104,0-0.207,0.017-0.307,0.047
			c-0.102,0.03-0.206,0.082-0.309,0.152c-0.105,0.069-0.215,0.16-0.326,0.272c-0.112,0.111-0.229,0.25-0.354,0.415v1.824
			c0.218,0.276,0.428,0.49,0.626,0.642s0.404,0.226,0.62,0.226c0.203,0,0.377-0.052,0.519-0.155c0.142-0.103,0.259-0.238,0.35-0.407
			c0.092-0.167,0.158-0.357,0.203-0.568C53.599,16.796,53.623,16.585,53.623,16.374z"/>
	</g>
	<g>
		<path fill="#43836F" d="M28.421,78.635c0,0.338-0.049,0.644-0.146,0.917c-0.096,0.273-0.234,0.51-0.409,0.709
			c-0.177,0.198-0.386,0.356-0.634,0.478c-0.246,0.119-0.517,0.195-0.815,0.229l-0.049,1.209c-0.004,0.077-0.063,0.131-0.176,0.168
			c-0.114,0.036-0.278,0.056-0.493,0.056c-0.136,0-0.25-0.003-0.344-0.012c-0.093-0.006-0.167-0.018-0.221-0.032
			c-0.053-0.016-0.092-0.038-0.118-0.068c-0.025-0.029-0.04-0.066-0.044-0.111l-0.056-1.464c-0.004-0.132,0.001-0.238,0.019-0.324
			c0.015-0.082,0.045-0.148,0.089-0.197c0.043-0.049,0.098-0.085,0.165-0.103c0.067-0.017,0.145-0.029,0.236-0.029h0.086
			c0.218,0,0.409-0.032,0.568-0.103c0.159-0.072,0.291-0.164,0.394-0.28c0.104-0.115,0.179-0.251,0.227-0.409
			c0.047-0.155,0.071-0.324,0.071-0.503c0-0.198-0.029-0.381-0.084-0.545c-0.055-0.167-0.14-0.309-0.254-0.43
			c-0.114-0.118-0.256-0.21-0.428-0.274c-0.171-0.064-0.373-0.095-0.604-0.095c-0.211,0-0.396,0.019-0.558,0.062
			c-0.161,0.04-0.3,0.088-0.416,0.136c-0.116,0.051-0.211,0.096-0.29,0.138c-0.077,0.04-0.134,0.063-0.176,0.063
			c-0.029,0-0.057-0.012-0.082-0.028c-0.024-0.02-0.046-0.054-0.062-0.104c-0.017-0.048-0.031-0.119-0.041-0.21
			c-0.01-0.092-0.016-0.208-0.016-0.347c0-0.145,0.005-0.251,0.019-0.317c0.013-0.066,0.039-0.121,0.08-0.16
			c0.041-0.04,0.12-0.092,0.236-0.146c0.116-0.057,0.254-0.107,0.417-0.155c0.16-0.048,0.341-0.088,0.54-0.121
			c0.197-0.031,0.405-0.049,0.62-0.049c0.488,0,0.905,0.067,1.254,0.202c0.348,0.134,0.632,0.314,0.852,0.543
			c0.221,0.228,0.383,0.488,0.487,0.782C28.371,77.998,28.421,78.308,28.421,78.635z M26.586,83.95c0,0.169-0.013,0.312-0.041,0.427
			c-0.027,0.115-0.073,0.21-0.143,0.279c-0.068,0.07-0.159,0.121-0.271,0.151c-0.113,0.029-0.254,0.046-0.42,0.046
			c-0.173,0-0.316-0.017-0.428-0.046c-0.111-0.03-0.201-0.084-0.271-0.151c-0.068-0.071-0.115-0.164-0.143-0.279
			s-0.041-0.258-0.041-0.427c0-0.176,0.014-0.319,0.041-0.438c0.027-0.118,0.073-0.212,0.143-0.285
			c0.068-0.073,0.158-0.124,0.271-0.153c0.112-0.03,0.255-0.047,0.428-0.047c0.165,0,0.305,0.017,0.42,0.047
			c0.113,0.029,0.205,0.083,0.271,0.153c0.068,0.073,0.115,0.167,0.143,0.285C26.571,83.631,26.586,83.774,26.586,83.95z"/>
		<path fill="#43836F" d="M34.828,81.196c0,0.106-0.004,0.2-0.013,0.279c-0.007,0.077-0.019,0.144-0.033,0.197
			c-0.015,0.055-0.033,0.096-0.056,0.127c-0.023,0.032-0.049,0.055-0.079,0.065l-4.756,2.357c-0.059,0.029-0.108,0.041-0.149,0.038
			c-0.042-0.006-0.075-0.028-0.102-0.07c-0.028-0.039-0.047-0.102-0.057-0.181c-0.01-0.082-0.016-0.185-0.016-0.309
			c0-0.169,0.003-0.305,0.009-0.402c0.005-0.099,0.017-0.179,0.033-0.235c0.017-0.059,0.039-0.1,0.067-0.127
			c0.029-0.029,0.068-0.052,0.119-0.074l3.572-1.672l-3.504-1.625c-0.065-0.03-0.118-0.059-0.158-0.087
			c-0.039-0.031-0.069-0.075-0.091-0.136c-0.021-0.06-0.033-0.14-0.041-0.241c-0.007-0.101-0.008-0.239-0.008-0.411
			c0-0.152,0.004-0.272,0.016-0.361c0.01-0.087,0.029-0.148,0.056-0.187c0.028-0.037,0.061-0.054,0.103-0.048
			c0.041,0.002,0.091,0.021,0.148,0.048l4.763,2.376c0.054,0.026,0.096,0.092,0.127,0.199
			C34.811,80.827,34.828,80.986,34.828,81.196z"/>
	</g>
	<rect x="23.011" y="25.581" fill="#6B6D6B" width="31.817" height="1.447"/>
	<rect x="49.043" y="25.581" fill="#848484" width="5.785" height="1.447"/>
	<rect x="23.011" y="29.919" fill="#6B6D6B" width="13.016" height="1.446"/>
	<rect x="23.011" y="34.258" fill="#6B6D6B" width="15.908" height="1.447"/>
	<rect x="23.011" y="38.597" fill="#6B6D6B" width="23.139" height="1.446"/>
	<rect x="30.242" y="42.936" fill="#6B6D6B" width="40.495" height="1.446"/>
	<rect x="49.043" y="42.936" fill="#848484" width="21.693" height="1.446"/>
	<rect x="30.242" y="47.274" fill="#6B6D6B" width="21.693" height="1.447"/>
	<rect x="49.043" y="47.274" fill="#848484" width="2.892" height="1.447"/>
	<rect x="30.242" y="51.612" fill="#6B6D6B" width="30.372" height="1.447"/>
	<rect x="49.043" y="51.612" fill="#848484" width="11.57" height="1.447"/>
	<rect x="23.011" y="55.951" fill="#6B6D6B" width="44.833" height="1.446"/>
	<rect x="49.043" y="55.951" fill="#848484" width="18.801" height="1.446"/>
	<rect x="23.011" y="60.291" fill="#6B6D6B" width="53.51" height="1.445"/>
	<rect x="49.043" y="60.291" fill="#848484" width="27.479" height="1.445"/>
	<rect x="30.242" y="64.63" fill="#6B6D6B" width="24.586" height="1.445"/>
	<rect x="49.043" y="64.63" fill="#848484" width="5.785" height="1.445"/>
	<rect x="23.011" y="68.968" fill="#6B6D6B" width="28.923" height="1.446"/>
	<rect x="49.043" y="68.968" fill="#848484" width="2.892" height="1.446"/>
</g>
<path fill="#518E7A" d="M84.253,92.607H15.28V4.833h68.973V92.607z M16.28,91.607h66.973V5.833H16.28V91.607z"/>
</svg>
