<svg width="532.5" height="315.537" xmlns="http://www.w3.org/2000/svg" version="1.1" enable-background="new 0 -77.462 532.5 315.537" xml:space="preserve">
 <g>
  <title>Layer 1</title>
  <g id="svg_1">
   <rect x="39.75" y="250.931" fill="#CCCCCC" width="460" height="1" id="svg_2"/>
  </g>
  <g id="svg_3">
   <g id="svg_4">
    <path fill="#bef1e1" d="m404.7,229.427l-4.7,18.891l-128.85,-4.59l-128.851,4.59l-4.7,-18.891c0,0 69.567,-73.376 102.706,-42.999c2.864,2.625 39.724,4.76 41.328,2.617c26.638,-35.579 123.067,40.382 123.067,40.382z" id="svg_5" stroke="#000000"/>
    <path d="m400.388,248.832l-0.405,-0.014l-128.85,-4.59l-129.22,4.604l-4.864,-19.55l0.188,-0.198c0.479,-0.506 48.305,-50.523 83.339,-50.523c7.887,0 14.639,2.523 20.067,7.5c1.82,1.668 20.464,3.363 32.537,3.363l0.002,0c7.136,0 7.986,-0.618 8.06,-0.688c4.804,-6.417 12.194,-9.676 21.958,-9.676c37.928,0 101.175,49.476 101.81,49.976l0.254,0.2l-4.876,19.596zm-129.255,-5.604l128.479,4.576l4.524,-18.183c-4.426,-3.435 -64.569,-49.563 -100.937,-49.563c-9.432,0 -16.553,3.124 -21.166,9.286c-0.241,0.322 -0.808,1.078 -8.851,1.078c-0.001,0 -0.002,0 -0.003,0c-10.277,0 -30.889,-1.496 -33.213,-3.626c-5.238,-4.802 -11.762,-7.237 -19.392,-7.237c-33.5,0 -79.104,46.574 -82.424,50.014l4.535,18.229l128.448,-4.574z" id="svg_6" fill="#bef1e1" stroke="#000000"/>
   </g>
  </g>
  <g id="svg_7">
   <g id="svg_8">
    <g id="svg_9">
     <g id="svg_10">
      <g id="svg_11">
       <path fill="#F9B77A" d="m317.403,224.35c-3.122,-5.55 -5.019,-10.574 -7.432,-9.908c-2.413,0.663 -2.997,6.177 -1.308,12.316c0.253,0.917 0.548,1.791 0.863,2.622c-2.867,0.225 -5.876,0.729 -8.935,1.572c-14.211,3.914 -25.729,7.09 -21.939,20.842c3.788,13.756 15.31,10.582 29.52,6.668c14.209,-3.916 24.03,-13.248 21.939,-20.844c-1.145,-4.158 -7.933,-4.777 -12.708,-13.268z" id="svg_12"/>
      </g>
     </g>
     <g id="svg_13">
      <g id="svg_14">
       <path d="m326.233,249.218l0,0c-4.148,4.211 -10.68,7.77 -17.917,9.764c-14.085,3.883 -26.251,7.234 -30.184,-7.043c-1.524,-5.533 -0.715,-9.8 2.475,-13.039c4.06,-4.119 11.374,-6.135 19.843,-8.466c2.734,-0.754 5.532,-1.269 8.325,-1.528c-0.236,-0.67 -0.448,-1.341 -0.631,-2.002c-1.487,-5.402 -1.264,-10.459 0.547,-12.297c0.334,-0.339 0.717,-0.568 1.136,-0.686c2.318,-0.639 3.95,2.463 6.209,6.754c0.568,1.08 1.177,2.234 1.838,3.41c2.581,4.591 5.762,6.822 8.314,8.617c2.168,1.524 3.882,2.729 4.444,4.772c1.01,3.668 -0.554,7.838 -4.399,11.744zm-44.857,-9.56c-2.937,2.98 -3.635,6.791 -2.202,11.996c3.646,13.232 14.771,10.168 28.855,6.287c7.061,-1.945 13.413,-5.4 17.434,-9.48c3.565,-3.618 5.032,-7.418 4.13,-10.698c-0.462,-1.67 -2.034,-2.776 -4.024,-4.175c-2.643,-1.857 -5.935,-4.172 -8.635,-8.975c-0.667,-1.185 -1.279,-2.348 -1.854,-3.436c-1.867,-3.555 -3.482,-6.625 -4.964,-6.219c-1.787,0.502 -2.714,5.174 -0.93,11.656c0.235,0.848 0.52,1.713 0.849,2.572l0.258,0.674l-0.721,0.057c-2.962,0.232 -5.933,0.757 -8.834,1.555c-8.321,2.294 -15.506,4.272 -19.362,8.186z" id="svg_15"/>
      </g>
     </g>
    </g>
    <g id="svg_16">
     <g id="svg_17">
      <g id="svg_18">
       <path fill="#F9B77A" d="m278.074,244.994c0,0 10.303,-7.193 16.985,-6.944" id="svg_19"/>
      </g>
     </g>
     <g id="svg_20">
      <g id="svg_21">
       <path d="m295.04,238.589c-6.428,-0.241 -16.556,6.775 -16.655,6.846l-0.618,-0.884c0.428,-0.298 10.529,-7.293 17.313,-7.043l-0.04,1.081z" id="svg_22"/>
      </g>
     </g>
    </g>
    <g id="svg_23">
     <g id="svg_24">
      <g id="svg_25">
       <path fill="#F9B77A" d="m278.654,251.796c0,0 11.372,-8.01 16.071,-7.389" id="svg_26"/>
      </g>
     </g>
     <g id="svg_27">
      <g id="svg_28">
       <path d="m294.655,244.943c-4.438,-0.586 -15.577,7.217 -15.689,7.295l-0.621,-0.885c0.472,-0.33 11.599,-8.121 16.453,-7.479l-0.143,1.069z" id="svg_29"/>
      </g>
     </g>
    </g>
    <g id="svg_30">
     <g id="svg_31">
      <g id="svg_32">
       <path fill="#F9B77A" d="m281.64,257.939c0,0 -0.66,-4.018 11.886,-6.508" id="svg_33"/>
      </g>
     </g>
     <g id="svg_34">
      <g id="svg_35">
       <path d="m293.63,251.962c-11.676,2.316 -11.457,5.867 -11.454,5.904l-1.068,0.158c-0.073,-0.463 -0.375,-4.607 12.313,-7.125l0.209,1.063z" id="svg_36"/>
      </g>
     </g>
    </g>
   </g>
   <g id="svg_37">
    <g id="svg_38">
     <g id="svg_39">
      <path fill="#bef1e1" d="m397,256.798l-65,0c-8.284,0 -15,-6.717 -15,-15c0,-8.284 6.716,-15 15,-15l65,0c8.283,0 15,6.716 15,15c0,8.284 -6.717,15 -15,15z" id="svg_40" stroke="#000000"/>
     </g>
     <g id="svg_41">
      <path d="m397,256.798l-65,0c-8.548,0 -15.5,-6.953 -15.5,-15.5s6.952,-15.5 15.5,-15.5l65,0c8.547,0 15.5,6.953 15.5,15.5s-6.953,15.5 -15.5,15.5zm-65,-30c-7.995,0 -14.5,6.505 -14.5,14.5c0,7.994 6.505,14.5 14.5,14.5l65,0c7.994,0 14.5,-6.506 14.5,-14.5c0,-7.995 -6.506,-14.5 -14.5,-14.5l-65,0z" id="svg_42" fill="#bef1e1" stroke="#000000"/>
     </g>
    </g>
   </g>
  </g>
  <g id="svg_43">
   <g id="svg_44">
    <g id="svg_45">
     <g id="svg_46">
      <g id="svg_47">
       <g id="svg_48">
        <path fill="#F5F5F5" d="m115.746,284.552c-9.789,0 -17.754,-7.965 -17.754,-17.754s7.965,-17.754 17.754,-17.754c9.79,0 17.755,7.965 17.755,17.754s-7.965,17.754 -17.755,17.754zm0,-28.508c-5.931,0 -10.754,4.824 -10.754,10.754c0,5.932 4.823,10.754 10.754,10.754s10.755,-4.822 10.755,-10.754c0,-5.929 -4.824,-10.754 -10.755,-10.754z" id="svg_49"/>
       </g>
      </g>
      <g id="svg_50">
       <g id="svg_51">
        <path d="m115.746,285.052c-10.065,0 -18.254,-8.188 -18.254,-18.254s8.188,-18.254 18.254,-18.254c10.065,0 18.255,8.188 18.255,18.254s-8.189,18.254 -18.255,18.254zm0,-35.508c-9.515,0 -17.254,7.74 -17.254,17.254c0,9.516 7.739,17.254 17.254,17.254c9.514,0 17.255,-7.738 17.255,-17.254c0,-9.513 -7.741,-17.254 -17.255,-17.254zm0,28.508c-6.206,0 -11.254,-5.049 -11.254,-11.254s5.048,-11.254 11.254,-11.254s11.255,5.049 11.255,11.254s-5.049,11.254 -11.255,11.254zm0,-21.508c-5.654,0 -10.254,4.6 -10.254,10.254s4.6,10.254 10.254,10.254s10.255,-4.6 10.255,-10.254s-4.6,-10.254 -10.255,-10.254z" id="svg_52"/>
       </g>
      </g>
     </g>
    </g>
    <g id="svg_53">
     <g id="svg_54">
      <g id="svg_55">
       <path fill="#F5F5F5" d="m114.5,242.798l0,48.641c0,0.289 0.45,0.58 0.35,0.859c-1.27,3.83 -10.479,6.789 -22.17,6.789c-11.699,0 -21.305,-3.209 -22.305,-7.039l-0.236,-49.25l44.361,0z" id="svg_56"/>
      </g>
     </g>
     <g id="svg_57">
      <g id="svg_58">
       <path d="m92.805,299.587c-11.94,0 -21.764,-3.141 -22.851,-7.305l-0.017,-0.482l-0.302,-50.002l45.865,0l0,49.641c0,0.049 0.022,0.133 0.046,0.215c0.058,0.209 0.138,0.496 0.023,0.813c-1.365,4.12 -10.94,7.12 -22.764,7.12zm-21.868,-7.859c0.912,3.139 9.483,6.68 21.868,6.68c11.221,0 20.602,-2.682 21.82,-6.357c0.007,-0.041 -0.022,-0.104 -0.042,-0.176c-0.037,-0.133 -0.083,-0.252 -0.083,-0.438l0,-48.641l-43.858,0l0.295,48.932z" id="svg_59"/>
      </g>
     </g>
    </g>
    <g id="svg_60">
     <g id="svg_61">
      <g id="svg_62">
       <path fill="#FEFEFE" d="m115.5,291.437l0,0.859l-0.15,0c0.1,-0.279 0.15,-0.568 0.15,-0.859z" id="svg_63"/>
      </g>
     </g>
     <g id="svg_64">
      <g id="svg_65">
       <path d="m116,292.798l-1.361,0l0.24,-0.67c0.081,-0.223 0.121,-0.455 0.121,-0.689l1,0l0,1.359z" id="svg_66"/>
      </g>
     </g>
    </g>
    <g id="svg_67">
     <g id="svg_68">
      <g id="svg_69">
       <ellipse fill="#F5F5F5" cx="92.747" cy="242.44" rx="22.753" ry="7.647" id="svg_70"/>
      </g>
     </g>
     <g id="svg_71">
      <g id="svg_72">
       <path d="m92.746,250.589c-13.039,0 -23.253,-3.579 -23.253,-8.148c0,-4.568 10.214,-8.148 23.253,-8.148c13.04,0 23.254,3.58 23.254,8.148c0,4.569 -10.214,8.148 -23.254,8.148zm0,-15.298c-13.312,0 -22.253,3.697 -22.253,7.149s8.941,7.147 22.253,7.147s22.254,-3.695 22.254,-7.147s-8.942,-7.149 -22.254,-7.149z" id="svg_73"/>
      </g>
     </g>
    </g>
    <g id="svg_74">
     <g id="svg_75">
      <g id="svg_76">
       <path fill="#301600" d="m112.976,245.94c-3.779,-2.464 -11.416,-4.149 -20.229,-4.149c-8.813,0 -16.449,1.687 -20.229,4.149c3.779,2.464 11.416,4.147 20.229,4.147c8.813,0.002 16.45,-1.683 20.229,-4.147z" id="svg_77"/>
      </g>
     </g>
    </g>
   </g>
   <g id="svg_78">
    <g id="svg_79">
     <g id="svg_80">
      <path d="m80.687,265.496l0,-5.572l1.126,0l0,2.477l2.272,-2.477l1.513,0l-2.098,2.172l2.212,3.4l-1.456,0l-1.531,-2.615l-0.912,0.934l0,1.684l-1.126,0l0,-0.003z" id="svg_81"/>
     </g>
    </g>
    <g id="svg_82">
     <g id="svg_83">
      <path d="m87.083,262.691l-0.97,-0.174c0.109,-0.393 0.298,-0.682 0.563,-0.867c0.266,-0.188 0.661,-0.281 1.186,-0.281c0.478,0 0.831,0.057 1.064,0.168c0.233,0.113 0.397,0.256 0.492,0.43s0.143,0.492 0.143,0.957l-0.012,1.246c0,0.355 0.018,0.617 0.052,0.785s0.1,0.35 0.192,0.541l-1.058,0c-0.027,-0.07 -0.063,-0.176 -0.104,-0.314c-0.018,-0.063 -0.03,-0.105 -0.037,-0.125c-0.183,0.178 -0.378,0.311 -0.586,0.398s-0.43,0.133 -0.665,0.133c-0.416,0 -0.743,-0.111 -0.982,-0.338c-0.238,-0.227 -0.358,-0.512 -0.358,-0.855c0,-0.229 0.055,-0.432 0.163,-0.609s0.262,-0.314 0.458,-0.41s0.479,-0.178 0.85,-0.25c0.5,-0.094 0.846,-0.18 1.038,-0.262l0,-0.105c0,-0.205 -0.051,-0.352 -0.152,-0.439c-0.102,-0.086 -0.292,-0.131 -0.572,-0.131c-0.19,0 -0.339,0.037 -0.445,0.111c-0.107,0.073 -0.193,0.203 -0.26,0.391zm1.43,0.867c-0.137,0.047 -0.354,0.102 -0.65,0.162c-0.296,0.064 -0.489,0.127 -0.58,0.188c-0.141,0.1 -0.21,0.225 -0.21,0.377c0,0.15 0.057,0.279 0.167,0.387c0.111,0.109 0.254,0.164 0.427,0.164c0.191,0 0.376,-0.063 0.551,-0.189c0.13,-0.096 0.215,-0.213 0.255,-0.354c0.028,-0.092 0.042,-0.266 0.042,-0.521l-0.002,-0.214l0,0z" id="svg_84"/>
     </g>
    </g>
    <g id="svg_85">
     <g id="svg_86">
      <path d="m90.147,261.46l0.595,0l0,-0.305c0,-0.34 0.035,-0.594 0.107,-0.76c0.071,-0.168 0.205,-0.305 0.398,-0.41c0.193,-0.104 0.438,-0.156 0.734,-0.156c0.306,0 0.604,0.045 0.895,0.137l-0.146,0.744c-0.17,-0.041 -0.333,-0.061 -0.489,-0.061c-0.154,0 -0.267,0.037 -0.333,0.107c-0.066,0.072 -0.102,0.211 -0.102,0.416l0,0.285l0.799,0l0,0.84l-0.799,0l0,3.197l-1.066,0l0,-3.197l-0.594,0l0.001,-0.837l0,0z" id="svg_87"/>
     </g>
    </g>
    <g id="svg_88">
     <g id="svg_89">
      <path d="m92.74,261.46l0.595,0l0,-0.305c0,-0.34 0.036,-0.594 0.107,-0.76c0.071,-0.168 0.205,-0.305 0.398,-0.41c0.194,-0.104 0.438,-0.156 0.735,-0.156c0.305,0 0.603,0.045 0.894,0.137l-0.145,0.744c-0.171,-0.041 -0.333,-0.061 -0.49,-0.061c-0.154,0 -0.267,0.037 -0.333,0.107c-0.066,0.072 -0.102,0.211 -0.102,0.416l0,0.285l0.8,0l0,0.84l-0.8,0l0,3.197l-1.066,0l0,-3.197l-0.593,0l0,-0.837z" id="svg_90"/>
     </g>
    </g>
    <g id="svg_91">
     <g id="svg_92">
      <path d="m98.137,264.21l1.064,0.18c-0.139,0.391 -0.354,0.688 -0.648,0.893c-0.294,0.203 -0.665,0.305 -1.108,0.305c-0.7,0 -1.221,-0.229 -1.558,-0.688c-0.267,-0.367 -0.399,-0.83 -0.399,-1.393c0,-0.668 0.176,-1.191 0.524,-1.57s0.792,-0.568 1.326,-0.568c0.601,0 1.075,0.199 1.422,0.596c0.348,0.396 0.514,1.004 0.498,1.822l-2.676,0c0.008,0.316 0.094,0.563 0.259,0.74c0.164,0.176 0.369,0.264 0.615,0.264c0.167,0 0.308,-0.047 0.422,-0.137c0.114,-0.092 0.2,-0.24 0.259,-0.444zm0.061,-1.078c-0.008,-0.309 -0.087,-0.545 -0.238,-0.705c-0.152,-0.16 -0.337,-0.24 -0.556,-0.24c-0.232,0 -0.426,0.084 -0.577,0.254c-0.152,0.17 -0.228,0.4 -0.226,0.691l1.597,0l0,0z" id="svg_93"/>
     </g>
    </g>
    <g id="svg_94">
     <g id="svg_95">
      <path d="m102.466,264.21l1.063,0.18c-0.138,0.391 -0.354,0.688 -0.647,0.893c-0.294,0.203 -0.665,0.305 -1.108,0.305c-0.701,0 -1.221,-0.229 -1.558,-0.688c-0.267,-0.367 -0.399,-0.83 -0.399,-1.393c0,-0.668 0.176,-1.191 0.524,-1.57s0.792,-0.568 1.326,-0.568c0.601,0 1.075,0.199 1.422,0.596c0.348,0.396 0.514,1.004 0.498,1.822l-2.676,0c0.008,0.316 0.094,0.563 0.259,0.74c0.164,0.176 0.369,0.264 0.615,0.264c0.167,0 0.308,-0.047 0.422,-0.137c0.114,-0.092 0.2,-0.24 0.259,-0.444zm0.061,-1.078c-0.008,-0.309 -0.087,-0.545 -0.238,-0.705c-0.152,-0.16 -0.337,-0.24 -0.556,-0.24c-0.232,0 -0.426,0.084 -0.578,0.254c-0.151,0.17 -0.227,0.4 -0.225,0.691l1.597,0l0,0z" id="svg_96"/>
     </g>
    </g>
    <g id="svg_97">
     <g id="svg_98">
      <path d="m77.772,270.8l0.984,0l0,0.553c0.353,-0.43 0.771,-0.645 1.259,-0.645c0.258,0 0.482,0.055 0.673,0.16c0.189,0.105 0.347,0.268 0.467,0.482c0.179,-0.217 0.369,-0.377 0.574,-0.482s0.425,-0.16 0.657,-0.16c0.297,0 0.548,0.063 0.753,0.182s0.358,0.297 0.46,0.529c0.073,0.172 0.11,0.451 0.11,0.836l0,2.582l-1.068,0l0,-2.309c0,-0.398 -0.036,-0.658 -0.11,-0.773c-0.099,-0.152 -0.251,-0.229 -0.455,-0.229c-0.149,0 -0.29,0.045 -0.423,0.137c-0.132,0.092 -0.227,0.225 -0.284,0.4c-0.059,0.176 -0.088,0.455 -0.088,0.834l0,1.938l-1.067,0l0,-2.211c0,-0.393 -0.02,-0.646 -0.058,-0.762c-0.037,-0.113 -0.098,-0.197 -0.177,-0.254c-0.08,-0.057 -0.188,-0.084 -0.325,-0.084c-0.165,0 -0.313,0.045 -0.443,0.133c-0.132,0.09 -0.228,0.217 -0.283,0.385c-0.058,0.168 -0.086,0.445 -0.086,0.832l0,1.961l-1.068,0l-0.002,-4.035l0,0z" id="svg_99"/>
     </g>
    </g>
    <g id="svg_100">
     <g id="svg_101">
      <path d="m85.571,272.033l-0.969,-0.176c0.109,-0.391 0.297,-0.68 0.563,-0.867c0.266,-0.188 0.661,-0.281 1.186,-0.281c0.478,0 0.831,0.059 1.064,0.17c0.232,0.113 0.396,0.256 0.492,0.43c0.095,0.174 0.143,0.492 0.143,0.955l-0.012,1.248c0,0.354 0.018,0.615 0.052,0.783c0.034,0.17 0.099,0.352 0.192,0.543l-1.058,0c-0.028,-0.072 -0.063,-0.176 -0.104,-0.314c-0.019,-0.064 -0.03,-0.105 -0.037,-0.125c-0.184,0.176 -0.378,0.309 -0.586,0.396s-0.431,0.133 -0.665,0.133c-0.416,0 -0.743,-0.111 -0.982,-0.338c-0.239,-0.225 -0.358,-0.51 -0.358,-0.854c0,-0.229 0.055,-0.432 0.162,-0.609c0.109,-0.18 0.263,-0.314 0.458,-0.412c0.197,-0.094 0.479,-0.178 0.851,-0.248c0.5,-0.094 0.846,-0.182 1.038,-0.262l0,-0.107c0,-0.203 -0.051,-0.352 -0.152,-0.438c-0.102,-0.088 -0.292,-0.131 -0.573,-0.131c-0.189,0 -0.339,0.037 -0.444,0.111c-0.109,0.072 -0.195,0.205 -0.261,0.393zm1.429,0.865c-0.138,0.047 -0.354,0.102 -0.65,0.164s-0.49,0.125 -0.581,0.186c-0.14,0.1 -0.209,0.225 -0.209,0.377c0,0.15 0.057,0.279 0.167,0.387c0.111,0.109 0.253,0.164 0.426,0.164c0.192,0 0.376,-0.063 0.552,-0.189c0.13,-0.096 0.215,-0.213 0.255,-0.354c0.027,-0.092 0.042,-0.266 0.042,-0.521l-0.002,-0.214l0,0z" id="svg_102"/>
     </g>
    </g>
    <g id="svg_103">
     <g id="svg_104">
      <path d="m92.622,271.994l-1.054,0.189c-0.034,-0.211 -0.115,-0.367 -0.24,-0.475s-0.288,-0.16 -0.488,-0.16c-0.268,0 -0.479,0.092 -0.637,0.275c-0.158,0.184 -0.237,0.49 -0.237,0.922c0,0.479 0.08,0.816 0.241,1.016c0.161,0.197 0.377,0.295 0.646,0.295c0.203,0 0.369,-0.057 0.498,-0.172c0.13,-0.115 0.221,-0.313 0.273,-0.596l1.05,0.18c-0.109,0.48 -0.318,0.846 -0.627,1.09c-0.311,0.246 -0.724,0.369 -1.243,0.369c-0.591,0 -1.062,-0.186 -1.412,-0.559c-0.352,-0.373 -0.525,-0.889 -0.525,-1.547c0,-0.666 0.176,-1.186 0.527,-1.559c0.353,-0.369 0.828,-0.557 1.43,-0.557c0.491,0 0.883,0.107 1.173,0.318c0.29,0.215 0.498,0.537 0.625,0.971z" id="svg_105"/>
     </g>
    </g>
    <g id="svg_106">
     <g id="svg_107">
      <path d="m94.496,269.265l0,2.049c0.345,-0.402 0.756,-0.604 1.234,-0.604c0.246,0 0.469,0.045 0.665,0.137c0.197,0.092 0.348,0.207 0.446,0.35c0.101,0.143 0.169,0.301 0.205,0.473c0.037,0.172 0.056,0.439 0.056,0.801l0,2.369l-1.067,0l0,-2.133c0,-0.424 -0.021,-0.691 -0.062,-0.807c-0.041,-0.113 -0.112,-0.203 -0.215,-0.271c-0.104,-0.066 -0.231,-0.1 -0.386,-0.1c-0.179,0 -0.336,0.043 -0.477,0.129c-0.139,0.086 -0.241,0.217 -0.306,0.389c-0.064,0.174 -0.097,0.432 -0.097,0.771l0,2.021l-1.068,0l0,-5.572l1.07,0l0,-0.002l0.002,0z" id="svg_108"/>
     </g>
    </g>
    <g id="svg_109">
     <g id="svg_110">
      <path d="m100.525,273.552l1.064,0.18c-0.138,0.391 -0.354,0.688 -0.648,0.891c-0.294,0.205 -0.665,0.307 -1.107,0.307c-0.701,0 -1.222,-0.229 -1.559,-0.688c-0.267,-0.367 -0.398,-0.832 -0.398,-1.393c0,-0.67 0.175,-1.191 0.523,-1.57c0.35,-0.379 0.792,-0.568 1.326,-0.568c0.602,0 1.075,0.197 1.422,0.594c0.349,0.396 0.515,1.006 0.498,1.824l-2.676,0c0.008,0.316 0.094,0.563 0.259,0.738c0.164,0.176 0.369,0.264 0.615,0.264c0.167,0 0.308,-0.045 0.422,-0.137c0.114,-0.09 0.2,-0.239 0.259,-0.442zm0.06,-1.08c-0.008,-0.309 -0.087,-0.543 -0.239,-0.703c-0.152,-0.162 -0.337,-0.242 -0.555,-0.242c-0.233,0 -0.427,0.086 -0.578,0.256c-0.152,0.17 -0.228,0.4 -0.226,0.691l1.598,0l0,-0.002z" id="svg_111"/>
     </g>
    </g>
    <g id="svg_112">
     <g id="svg_113">
      <path d="m106.188,274.837l-1.067,0l0,-2.061c0,-0.438 -0.022,-0.717 -0.068,-0.848c-0.046,-0.127 -0.119,-0.227 -0.223,-0.297s-0.227,-0.105 -0.37,-0.105c-0.186,0 -0.352,0.051 -0.498,0.15c-0.146,0.102 -0.248,0.236 -0.302,0.402c-0.056,0.168 -0.082,0.477 -0.082,0.928l0,1.828l-1.068,0l0,-4.034l0.992,0l0,0.594c0.353,-0.457 0.796,-0.686 1.33,-0.686c0.235,0 0.45,0.043 0.646,0.127c0.195,0.086 0.343,0.193 0.443,0.324c0.1,0.133 0.169,0.281 0.209,0.449c0.039,0.168 0.059,0.406 0.059,0.719l0,2.51l-0.001,0z" id="svg_114"/>
     </g>
    </g>
    <g id="svg_115">
     <g id="svg_116">
      <path d="m80.444,284.177l0,-5.57l1.068,0l0,5.57l-1.068,0z" id="svg_117"/>
     </g>
    </g>
    <g id="svg_118">
     <g id="svg_119">
      <path d="m83.405,281.373l-0.969,-0.174c0.109,-0.391 0.297,-0.68 0.563,-0.867c0.266,-0.188 0.661,-0.281 1.186,-0.281c0.478,0 0.831,0.057 1.064,0.168c0.232,0.113 0.396,0.258 0.492,0.432c0.095,0.174 0.143,0.492 0.143,0.955l-0.012,1.248c0,0.354 0.018,0.615 0.052,0.783s0.099,0.35 0.192,0.541l-1.058,0c-0.028,-0.07 -0.063,-0.176 -0.104,-0.314c-0.019,-0.063 -0.03,-0.105 -0.037,-0.125c-0.184,0.178 -0.378,0.311 -0.586,0.398s-0.431,0.133 -0.665,0.133c-0.416,0 -0.743,-0.111 -0.982,-0.338s-0.358,-0.512 -0.358,-0.855c0,-0.229 0.055,-0.43 0.162,-0.609c0.109,-0.178 0.263,-0.314 0.458,-0.41c0.197,-0.096 0.479,-0.178 0.851,-0.25c0.5,-0.094 0.846,-0.18 1.038,-0.262l0,-0.105c0,-0.205 -0.051,-0.352 -0.152,-0.439c-0.102,-0.086 -0.292,-0.131 -0.573,-0.131c-0.189,0 -0.339,0.037 -0.444,0.113c-0.109,0.07 -0.195,0.201 -0.261,0.389zm1.429,0.867c-0.138,0.045 -0.354,0.1 -0.65,0.162s-0.49,0.127 -0.581,0.188c-0.14,0.1 -0.209,0.225 -0.209,0.375s0.057,0.279 0.167,0.389c0.111,0.109 0.253,0.164 0.426,0.164c0.192,0 0.376,-0.063 0.552,-0.189c0.13,-0.096 0.215,-0.215 0.255,-0.355c0.027,-0.09 0.042,-0.264 0.042,-0.52l-0.002,-0.214l0,0z" id="svg_120"/>
     </g>
    </g>
    <g id="svg_121">
     <g id="svg_122">
      <path d="m86.56,283.027l1.071,-0.164c0.046,0.207 0.139,0.365 0.278,0.473c0.139,0.107 0.334,0.162 0.585,0.162c0.275,0 0.482,-0.051 0.623,-0.152c0.094,-0.07 0.141,-0.166 0.141,-0.283c0,-0.082 -0.025,-0.148 -0.076,-0.203c-0.053,-0.049 -0.172,-0.098 -0.355,-0.141c-0.862,-0.189 -1.408,-0.363 -1.64,-0.521c-0.318,-0.217 -0.479,-0.521 -0.479,-0.908c0,-0.35 0.138,-0.643 0.414,-0.881c0.275,-0.238 0.704,-0.357 1.283,-0.357c0.554,0 0.964,0.09 1.231,0.271c0.269,0.18 0.454,0.445 0.556,0.797l-1.008,0.188c-0.043,-0.156 -0.125,-0.277 -0.245,-0.361s-0.292,-0.125 -0.515,-0.125c-0.281,0 -0.482,0.039 -0.604,0.117c-0.081,0.057 -0.121,0.129 -0.121,0.217c0,0.076 0.035,0.141 0.105,0.193c0.097,0.07 0.43,0.172 0.998,0.301c0.569,0.129 0.966,0.287 1.191,0.475c0.224,0.191 0.335,0.455 0.335,0.795c0,0.371 -0.155,0.689 -0.464,0.955c-0.311,0.266 -0.768,0.398 -1.372,0.398c-0.551,0 -0.985,-0.111 -1.307,-0.334c-0.319,-0.227 -0.527,-0.529 -0.625,-0.912z" id="svg_123"/>
     </g>
    </g>
    <g id="svg_124">
     <g id="svg_125">
      <path d="m90.889,283.027l1.071,-0.164c0.046,0.207 0.139,0.365 0.277,0.473c0.14,0.107 0.334,0.162 0.585,0.162c0.276,0 0.483,-0.051 0.623,-0.152c0.095,-0.07 0.142,-0.166 0.142,-0.283c0,-0.082 -0.025,-0.148 -0.076,-0.203c-0.053,-0.049 -0.172,-0.098 -0.356,-0.141c-0.861,-0.189 -1.407,-0.363 -1.639,-0.521c-0.319,-0.217 -0.479,-0.521 -0.479,-0.908c0,-0.35 0.138,-0.643 0.414,-0.881c0.275,-0.238 0.703,-0.357 1.283,-0.357c0.554,0 0.963,0.09 1.231,0.271c0.269,0.18 0.454,0.445 0.556,0.797l-1.008,0.188c-0.043,-0.156 -0.125,-0.277 -0.245,-0.361s-0.292,-0.125 -0.515,-0.125c-0.281,0 -0.482,0.039 -0.604,0.117c-0.081,0.057 -0.122,0.129 -0.122,0.217c0,0.076 0.036,0.141 0.106,0.193c0.097,0.07 0.43,0.172 0.998,0.301c0.569,0.129 0.966,0.287 1.19,0.475c0.225,0.191 0.336,0.455 0.336,0.795c0,0.371 -0.155,0.689 -0.465,0.955s-0.767,0.398 -1.372,0.398c-0.55,0 -0.984,-0.111 -1.306,-0.334c-0.319,-0.227 -0.526,-0.529 -0.625,-0.912z" id="svg_126"/>
     </g>
    </g>
    <g id="svg_127">
     <g id="svg_128">
      <path d="m97.932,282.892l1.064,0.18c-0.139,0.391 -0.354,0.688 -0.648,0.891c-0.294,0.205 -0.665,0.307 -1.108,0.307c-0.7,0 -1.221,-0.229 -1.558,-0.688c-0.267,-0.367 -0.398,-0.832 -0.398,-1.393c0,-0.668 0.175,-1.191 0.523,-1.57s0.792,-0.568 1.326,-0.568c0.601,0 1.075,0.197 1.422,0.596c0.348,0.395 0.514,1.004 0.498,1.822l-2.676,0c0.008,0.316 0.094,0.563 0.259,0.738c0.164,0.176 0.369,0.264 0.615,0.264c0.167,0 0.308,-0.045 0.422,-0.137c0.114,-0.09 0.2,-0.239 0.259,-0.442zm0.06,-1.078c-0.009,-0.311 -0.088,-0.545 -0.239,-0.705c-0.152,-0.162 -0.337,-0.242 -0.556,-0.242c-0.232,0 -0.426,0.086 -0.577,0.256c-0.152,0.17 -0.228,0.4 -0.226,0.691l1.598,0l0,0z" id="svg_129"/>
     </g>
    </g>
    <g id="svg_130">
     <g id="svg_131">
      <path d="m103.595,284.177l-1.068,0l0,-2.061c0,-0.436 -0.021,-0.717 -0.067,-0.846c-0.046,-0.127 -0.119,-0.227 -0.224,-0.299c-0.103,-0.07 -0.226,-0.105 -0.369,-0.105c-0.186,0 -0.352,0.051 -0.498,0.152s-0.248,0.234 -0.303,0.402c-0.055,0.166 -0.082,0.477 -0.082,0.928l0,1.828l-1.067,0l0,-4.035l0.992,0l0,0.592c0.353,-0.455 0.796,-0.686 1.329,-0.686c0.236,0 0.451,0.043 0.646,0.129c0.195,0.084 0.343,0.191 0.443,0.324c0.1,0.131 0.169,0.281 0.209,0.449c0.039,0.166 0.059,0.406 0.059,0.717l0,2.511z" id="svg_132"/>
     </g>
    </g>
   </g>
  </g>
  <g id="svg_133">
   <g id="svg_134">
    <g id="svg_135">
     <polygon fill="#F5F5F5" points="434.5,293.7980041503906 376.5,293.7980041503906 414.5,269.7980041503906 472.5,269.7980041503906 " id="svg_136"/>
    </g>
    <g id="svg_137">
     <path d="m434.645,293.798l-59.872,0l39.583,-25l59.872,0l-39.583,25zm-56.417,-1l56.128,0l36.417,-23l-56.128,0l-36.417,23z" id="svg_138"/>
    </g>
   </g>
   <g id="svg_139">
    <g id="svg_140">
     <rect x="402.5" y="286.798" width="26" height="1" id="svg_141"/>
    </g>
   </g>
   <g id="svg_142">
    <g id="svg_143">
     <rect x="412.5" y="283.798" width="23" height="1" id="svg_144"/>
    </g>
   </g>
   <g id="svg_145">
    <g id="svg_146">
     <rect x="406.5" y="280.798" width="36" height="1" id="svg_147"/>
    </g>
   </g>
   <g id="svg_148">
    <g id="svg_149">
     <rect x="418.5" y="277.798" width="31" height="1" id="svg_150"/>
    </g>
   </g>
   <g id="svg_151">
    <g id="svg_152">
     <rect x="418.5" y="274.798" width="38" height="1" id="svg_153"/>
    </g>
   </g>
  </g>
  <g id="svg_154">
   <g id="svg_155">
    <g id="svg_156">
     <polygon fill="#F5F5F5" points="423.5,284.7980041503906 365.5,284.7980041503906 403.5,260.7980041503906 461.5,260.7980041503906 " id="svg_157"/>
    </g>
    <g id="svg_158">
     <path d="m423.645,284.798l-59.872,0l39.583,-25l59.872,0l-39.583,25zm-56.417,-1l56.128,0l36.417,-23l-56.128,0l-36.417,23z" id="svg_159"/>
    </g>
   </g>
   <g id="svg_160">
    <g id="svg_161">
     <rect x="391.5" y="277.798" width="26" height="1" id="svg_162"/>
    </g>
   </g>
   <g id="svg_163">
    <g id="svg_164">
     <rect x="401.5" y="274.798" width="23" height="1" id="svg_165"/>
    </g>
   </g>
   <g id="svg_166">
    <g id="svg_167">
     <rect x="395.5" y="271.798" width="36" height="1" id="svg_168"/>
    </g>
   </g>
   <g id="svg_169">
    <g id="svg_170">
     <rect x="407.5" y="268.798" width="31" height="1" id="svg_171"/>
    </g>
   </g>
   <g id="svg_172">
    <g id="svg_173">
     <rect x="407.5" y="265.798" width="38" height="1" id="svg_174"/>
    </g>
   </g>
  </g>
  <g id="svg_175">
   <g id="svg_176">
    <g id="svg_177">
     <polygon fill="#F5F5F5" points="403.5,299.7980041503906 345.5,299.7980041503906 383.5,275.7980041503906 441.5,275.7980041503906 " id="svg_178"/>
    </g>
    <g id="svg_179">
     <path d="m403.645,299.798l-59.872,0l39.583,-25l59.872,0l-39.583,25zm-56.417,-1l56.128,0l36.417,-23l-56.128,0l-36.417,23z" id="svg_180"/>
    </g>
   </g>
   <g id="svg_181">
    <g id="svg_182">
     <rect x="371.5" y="292.798" width="26" height="1" id="svg_183"/>
    </g>
   </g>
   <g id="svg_184">
    <g id="svg_185">
     <rect x="381.5" y="289.798" width="23" height="1" id="svg_186"/>
    </g>
   </g>
   <g id="svg_187">
    <g id="svg_188">
     <rect x="375.5" y="286.798" width="36" height="1" id="svg_189"/>
    </g>
   </g>
   <g id="svg_190">
    <g id="svg_191">
     <rect x="387.5" y="283.798" width="31" height="1" id="svg_192"/>
    </g>
   </g>
   <g id="svg_193">
    <g id="svg_194">
     <rect x="387.5" y="280.798" width="38" height="1" id="svg_195"/>
    </g>
   </g>
  </g>
  <g id="svg_196">
   <g id="svg_197">
    <g id="svg_198">
     <polygon fill="#F5F5F5" points="392.5,290.7980041503906 334.5,290.7980041503906 372.5,266.7980041503906 430.5,266.7980041503906 " id="svg_199"/>
    </g>
    <g id="svg_200">
     <path d="m392.645,290.798l-59.872,0l39.583,-25l59.872,0l-39.583,25zm-56.417,-1l56.128,0l36.417,-23l-56.128,0l-36.417,23z" id="svg_201"/>
    </g>
   </g>
   <g id="svg_202">
    <g id="svg_203">
     <rect x="360.5" y="283.798" width="26" height="1" id="svg_204"/>
    </g>
   </g>
   <g id="svg_205">
    <g id="svg_206">
     <rect x="370.5" y="280.798" width="23" height="1" id="svg_207"/>
    </g>
   </g>
   <g id="svg_208">
    <g id="svg_209">
     <rect x="364.5" y="277.798" width="36" height="1" id="svg_210"/>
    </g>
   </g>
   <g id="svg_211">
    <g id="svg_212">
     <rect x="376.5" y="274.798" width="31" height="1" id="svg_213"/>
    </g>
   </g>
   <g id="svg_214">
    <g id="svg_215">
     <rect x="376.5" y="271.798" width="38" height="1" id="svg_216"/>
    </g>
   </g>
  </g>
  <g id="svg_217">
   <g id="svg_218">
    <g id="svg_219">
     <g id="svg_220">
      <rect x="272.75508" y="162.64632" transform="matrix(-0.3703 -0.9289 0.9289 -0.3703 294.572 584.693)" fill="#EEEEEE" width="2.002" height="8.999" id="svg_221"/>
     </g>
    </g>
    <g id="svg_222">
     <g id="svg_223">
      <path d="m344.991,272.025l-1.11,-2.785l8.36,-3.33l1.11,2.785l-8.36,3.33z" id="svg_224"/>
     </g>
    </g>
   </g>
   <g id="svg_225">
    <g id="svg_226">
     <g id="svg_227">
      <rect x="251.66978" y="154.74978" transform="matrix(-0.3701 -0.929 0.929 -0.3701 261.295 577.353)" fill="#48826D" width="6" height="40.002" id="svg_228"/>
     </g>
    </g>
    <g id="svg_229">
     <g id="svg_230">
      <path d="m312.285,287.205l-2.59,-6.502l38.09,-15.172l2.592,6.504l-38.092,15.17zm-1.29,-5.944l1.851,4.646l36.23,-14.432l-1.85,-4.646l-36.231,14.432z" id="svg_231"/>
     </g>
    </g>
   </g>
   <g id="svg_232">
    <g id="svg_233">
     <g id="svg_234">
      <polygon fill="#666666" points="312.1679992675781,286.9100036621094 309.79901123046875,280.96002197265625 304.37298583984375,286.56597900390625 " id="svg_235"/>
     </g>
    </g>
    <g id="svg_236">
     <g id="svg_237">
      <path d="m304.166,286.65l6.356,-6.572l2.777,6.973l-9.133,-0.401zm5.837,-5.18l-4.494,4.645l6.456,0.285l-1.962,-4.93z" id="svg_238"/>
     </g>
    </g>
   </g>
   <g id="svg_239">
    <g id="svg_240">
     <g id="svg_241">
      <path fill="#FFFFFF" d="m316.95,281.99l-0.727,-0.889l0.262,-0.105l0.456,0.59l-0.09,-0.734l0.259,-0.105l0.436,0.6l-0.069,-0.744l0.265,-0.105l0.077,1.148l-0.258,0.102l-0.436,-0.584l0.088,0.725l-0.263,0.101z" id="svg_242"/>
     </g>
    </g>
    <g id="svg_243">
     <g id="svg_244">
      <path fill="#FFFFFF" d="m318.746,280.9l0.286,-0.064c0.005,0.113 -0.02,0.211 -0.073,0.291c-0.055,0.08 -0.137,0.145 -0.248,0.188c-0.178,0.07 -0.33,0.064 -0.463,-0.018c-0.104,-0.064 -0.184,-0.17 -0.239,-0.311c-0.067,-0.168 -0.074,-0.318 -0.024,-0.447c0.05,-0.131 0.144,-0.223 0.276,-0.277c0.151,-0.059 0.291,-0.059 0.418,0.008c0.127,0.064 0.229,0.201 0.309,0.408l-0.675,0.27c0.034,0.078 0.08,0.133 0.139,0.16c0.062,0.027 0.121,0.029 0.183,0.006c0.042,-0.018 0.074,-0.043 0.094,-0.078c0.016,-0.035 0.023,-0.079 0.017,-0.136zm-0.091,-0.279c-0.033,-0.076 -0.076,-0.127 -0.131,-0.152c-0.055,-0.023 -0.109,-0.027 -0.164,-0.006c-0.06,0.023 -0.099,0.064 -0.12,0.123s-0.017,0.123 0.014,0.197l0.401,-0.162z" id="svg_245"/>
     </g>
    </g>
    <g id="svg_246">
     <g id="svg_247">
      <path fill="#FFFFFF" d="m319.365,281.027l-0.56,-1.402l0.269,-0.105l0.202,0.504c0.045,-0.125 0.125,-0.213 0.239,-0.26c0.122,-0.047 0.243,-0.045 0.36,0.014c0.114,0.057 0.208,0.17 0.273,0.338c0.069,0.172 0.083,0.322 0.037,0.451c-0.046,0.127 -0.128,0.213 -0.246,0.26c-0.057,0.023 -0.12,0.031 -0.188,0.023c-0.067,-0.006 -0.135,-0.029 -0.196,-0.068l0.059,0.146l-0.249,0.099zm0.057,-0.635c0.042,0.104 0.089,0.176 0.144,0.213c0.074,0.055 0.15,0.063 0.229,0.031c0.059,-0.021 0.1,-0.066 0.122,-0.135c0.021,-0.066 0.01,-0.156 -0.033,-0.264c-0.047,-0.117 -0.103,-0.193 -0.163,-0.229c-0.063,-0.033 -0.127,-0.039 -0.192,-0.012c-0.064,0.025 -0.108,0.072 -0.131,0.139c-0.027,0.07 -0.017,0.154 0.024,0.257z" id="svg_248"/>
     </g>
    </g>
    <g id="svg_249">
     <g id="svg_250">
      <path fill="#FFFFFF" d="m321.508,280.175l-0.25,0.1l-0.061,-0.148c-0.019,0.074 -0.051,0.137 -0.095,0.188c-0.046,0.051 -0.097,0.088 -0.154,0.109c-0.116,0.047 -0.235,0.039 -0.355,-0.02c-0.121,-0.063 -0.215,-0.176 -0.282,-0.344c-0.068,-0.174 -0.081,-0.32 -0.035,-0.441c0.045,-0.123 0.131,-0.207 0.255,-0.258c0.112,-0.045 0.229,-0.037 0.352,0.023l-0.201,-0.506l0.268,-0.105l0.558,1.402zm-0.93,-0.244c0.042,0.107 0.089,0.182 0.14,0.217c0.069,0.055 0.146,0.064 0.224,0.031c0.062,-0.021 0.104,-0.07 0.126,-0.141c0.021,-0.068 0.013,-0.156 -0.028,-0.262c-0.047,-0.117 -0.103,-0.193 -0.163,-0.229c-0.063,-0.035 -0.128,-0.039 -0.193,-0.012c-0.063,0.025 -0.107,0.072 -0.129,0.139c-0.025,0.072 -0.018,0.156 0.023,0.257z" id="svg_251"/>
     </g>
    </g>
    <g id="svg_252">
     <g id="svg_253">
      <path fill="#FFFFFF" d="m322.233,279.511l0.286,-0.063c0.005,0.113 -0.021,0.209 -0.074,0.289c-0.054,0.082 -0.137,0.145 -0.248,0.188c-0.178,0.072 -0.33,0.066 -0.461,-0.018c-0.104,-0.064 -0.185,-0.168 -0.241,-0.311c-0.065,-0.168 -0.074,-0.316 -0.024,-0.447c0.05,-0.129 0.143,-0.223 0.278,-0.275c0.149,-0.061 0.289,-0.059 0.415,0.008c0.129,0.063 0.231,0.201 0.309,0.408l-0.673,0.27c0.031,0.078 0.081,0.131 0.139,0.158c0.062,0.029 0.12,0.031 0.182,0.008c0.043,-0.02 0.074,-0.043 0.094,-0.078c0.016,-0.035 0.024,-0.08 0.018,-0.137zm-0.093,-0.277c-0.033,-0.078 -0.076,-0.129 -0.132,-0.154s-0.109,-0.027 -0.163,-0.006c-0.06,0.023 -0.099,0.064 -0.121,0.123c-0.021,0.059 -0.017,0.123 0.014,0.197l0.402,-0.16z" id="svg_254"/>
     </g>
    </g>
    <g id="svg_255">
     <g id="svg_256">
      <path fill="#FFFFFF" d="m322.654,279.384l0.252,-0.15c0.033,0.049 0.072,0.08 0.119,0.094c0.046,0.012 0.101,0.006 0.162,-0.018c0.07,-0.029 0.117,-0.064 0.143,-0.104c0.018,-0.027 0.02,-0.057 0.008,-0.086c-0.01,-0.021 -0.021,-0.035 -0.041,-0.043c-0.018,-0.008 -0.054,-0.008 -0.104,0c-0.236,0.039 -0.391,0.049 -0.465,0.033c-0.103,-0.021 -0.173,-0.082 -0.212,-0.182c-0.035,-0.088 -0.029,-0.176 0.017,-0.264c0.044,-0.088 0.142,-0.16 0.288,-0.219c0.14,-0.055 0.249,-0.074 0.335,-0.055c0.087,0.018 0.16,0.064 0.223,0.145l-0.235,0.148c-0.027,-0.035 -0.061,-0.059 -0.098,-0.066c-0.04,-0.01 -0.089,-0.002 -0.144,0.02c-0.071,0.027 -0.118,0.061 -0.142,0.09c-0.015,0.023 -0.018,0.047 -0.008,0.068c0.007,0.02 0.021,0.031 0.046,0.037c0.029,0.008 0.126,0 0.281,-0.023c0.155,-0.025 0.271,-0.025 0.349,0c0.075,0.023 0.129,0.08 0.163,0.166c0.037,0.094 0.029,0.189 -0.021,0.287c-0.051,0.1 -0.15,0.178 -0.305,0.238c-0.14,0.055 -0.26,0.07 -0.362,0.045c-0.103,-0.02 -0.187,-0.075 -0.249,-0.161z" id="svg_257"/>
     </g>
    </g>
    <g id="svg_258">
     <g id="svg_259">
      <path fill="#FFFFFF" d="m323.493,278.046l-0.101,-0.25l0.27,-0.105l0.101,0.25l-0.27,0.105zm0.459,1.155l-0.404,-1.018l0.271,-0.107l0.404,1.018l-0.271,0.107z" id="svg_260"/>
     </g>
    </g>
    <g id="svg_261">
     <g id="svg_262">
      <path fill="#FFFFFF" d="m324.5,279.06l0.32,-0.084c0.021,0.033 0.042,0.053 0.066,0.059c0.031,0.01 0.076,0.002 0.131,-0.02c0.07,-0.027 0.118,-0.061 0.146,-0.096c0.02,-0.021 0.025,-0.053 0.026,-0.09c-0.001,-0.025 -0.012,-0.066 -0.037,-0.127l-0.059,-0.148c-0.036,0.143 -0.116,0.238 -0.239,0.285c-0.136,0.057 -0.268,0.041 -0.394,-0.043c-0.099,-0.066 -0.176,-0.168 -0.229,-0.305c-0.067,-0.17 -0.078,-0.316 -0.033,-0.439c0.047,-0.123 0.132,-0.207 0.254,-0.256c0.125,-0.049 0.25,-0.037 0.377,0.041l-0.057,-0.143l0.25,-0.102l0.364,0.912c0.048,0.121 0.073,0.215 0.078,0.281c0.002,0.068 -0.007,0.125 -0.027,0.174c-0.023,0.049 -0.061,0.094 -0.112,0.137c-0.052,0.041 -0.124,0.082 -0.216,0.117c-0.171,0.07 -0.306,0.088 -0.401,0.059c-0.095,-0.029 -0.16,-0.09 -0.196,-0.182c-0.003,-0.007 -0.008,-0.016 -0.012,-0.03zm0.003,-0.691c0.043,0.107 0.095,0.178 0.155,0.213c0.063,0.031 0.123,0.037 0.186,0.012c0.064,-0.025 0.11,-0.072 0.137,-0.143c0.024,-0.07 0.017,-0.154 -0.023,-0.256c-0.042,-0.105 -0.095,-0.174 -0.158,-0.209c-0.063,-0.033 -0.129,-0.037 -0.194,-0.01c-0.064,0.023 -0.107,0.07 -0.13,0.139c-0.025,0.066 -0.015,0.15 0.027,0.254z" id="svg_263"/>
     </g>
    </g>
    <g id="svg_264">
     <g id="svg_265">
      <path fill="#FFFFFF" d="m326.618,278.138l-0.269,0.107l-0.206,-0.52c-0.044,-0.109 -0.077,-0.18 -0.104,-0.205c-0.023,-0.027 -0.053,-0.045 -0.086,-0.053c-0.031,-0.01 -0.066,-0.006 -0.104,0.01c-0.046,0.018 -0.084,0.049 -0.11,0.088c-0.026,0.041 -0.039,0.084 -0.035,0.133c0.002,0.047 0.027,0.127 0.072,0.242l0.185,0.459l-0.271,0.105l-0.405,-1.016l0.25,-0.102l0.062,0.152c0.042,-0.15 0.131,-0.254 0.266,-0.307c0.061,-0.023 0.117,-0.035 0.175,-0.035c0.059,0.004 0.107,0.016 0.146,0.039c0.037,0.021 0.07,0.055 0.097,0.092c0.027,0.039 0.057,0.098 0.086,0.174l0.251,0.637z" id="svg_266"/>
     </g>
    </g>
    <g id="svg_267">
     <g id="svg_268">
      <path fill="#FFFFFF" d="m327.013,276.804l0.246,-0.1l0.057,0.139c0.046,-0.143 0.13,-0.236 0.253,-0.285c0.065,-0.025 0.126,-0.035 0.187,-0.027c0.058,0.008 0.112,0.033 0.165,0.074c0.022,-0.072 0.055,-0.133 0.097,-0.18c0.041,-0.049 0.091,-0.082 0.149,-0.105c0.073,-0.029 0.144,-0.041 0.207,-0.031s0.12,0.039 0.168,0.088c0.036,0.035 0.074,0.104 0.112,0.201l0.259,0.648l-0.27,0.105l-0.231,-0.58c-0.04,-0.102 -0.074,-0.162 -0.104,-0.184c-0.039,-0.029 -0.086,-0.033 -0.138,-0.014c-0.037,0.016 -0.068,0.041 -0.094,0.076c-0.023,0.037 -0.033,0.08 -0.03,0.131c0.004,0.051 0.022,0.123 0.062,0.219l0.194,0.488l-0.27,0.107l-0.222,-0.559c-0.04,-0.1 -0.069,-0.16 -0.09,-0.186c-0.022,-0.023 -0.045,-0.041 -0.071,-0.047c-0.025,-0.006 -0.056,-0.002 -0.09,0.012c-0.041,0.018 -0.074,0.043 -0.099,0.078c-0.024,0.037 -0.035,0.076 -0.033,0.125c0.004,0.049 0.023,0.121 0.063,0.219l0.196,0.494l-0.27,0.105l-0.403,-1.011z" id="svg_269"/>
     </g>
    </g>
    <g id="svg_270">
     <g id="svg_271">
      <path fill="#FFFFFF" d="m329.1,276.333l-0.262,0.051c-0.012,-0.107 0.008,-0.197 0.056,-0.273c0.048,-0.074 0.139,-0.137 0.271,-0.189c0.12,-0.047 0.216,-0.068 0.285,-0.064c0.07,0.008 0.125,0.025 0.167,0.061s0.085,0.109 0.132,0.229l0.123,0.313c0.035,0.09 0.064,0.154 0.092,0.193c0.023,0.039 0.06,0.078 0.103,0.117l-0.267,0.104c-0.015,-0.014 -0.033,-0.037 -0.059,-0.068c-0.011,-0.014 -0.019,-0.023 -0.021,-0.027c-0.028,0.063 -0.063,0.117 -0.107,0.16s-0.095,0.076 -0.153,0.1c-0.104,0.043 -0.198,0.047 -0.282,0.014c-0.082,-0.031 -0.143,-0.094 -0.177,-0.18c-0.021,-0.057 -0.028,-0.113 -0.021,-0.17c0.01,-0.057 0.035,-0.105 0.075,-0.148s0.104,-0.094 0.188,-0.148c0.117,-0.072 0.194,-0.129 0.234,-0.17l-0.01,-0.027c-0.021,-0.051 -0.049,-0.082 -0.082,-0.094c-0.035,-0.012 -0.087,-0.004 -0.158,0.023c-0.048,0.02 -0.081,0.043 -0.102,0.072c-0.017,0.024 -0.026,0.067 -0.025,0.121zm0.447,0.073c-0.029,0.025 -0.079,0.063 -0.146,0.107c-0.068,0.047 -0.111,0.08 -0.129,0.104c-0.024,0.039 -0.029,0.078 -0.014,0.117c0.015,0.037 0.041,0.063 0.08,0.08c0.039,0.016 0.081,0.016 0.124,-0.002c0.049,-0.02 0.088,-0.055 0.118,-0.104c0.023,-0.037 0.034,-0.076 0.03,-0.115c-0.004,-0.023 -0.018,-0.068 -0.043,-0.135l-0.02,-0.052z" id="svg_272"/>
     </g>
    </g>
    <g id="svg_273">
     <g id="svg_274">
      <path fill="#FFFFFF" d="m330.871,275.615l-0.245,0.154c-0.03,-0.051 -0.066,-0.082 -0.109,-0.096c-0.041,-0.016 -0.087,-0.014 -0.138,0.006c-0.067,0.027 -0.111,0.072 -0.135,0.137c-0.021,0.061 -0.01,0.145 0.033,0.254c0.049,0.121 0.104,0.199 0.162,0.232c0.061,0.033 0.126,0.037 0.194,0.01c0.051,-0.021 0.087,-0.053 0.107,-0.094c0.021,-0.043 0.023,-0.102 0.009,-0.18l0.281,-0.059c0.021,0.133 0.005,0.244 -0.049,0.338c-0.052,0.094 -0.144,0.166 -0.275,0.219c-0.147,0.059 -0.284,0.059 -0.411,0c-0.125,-0.059 -0.223,-0.17 -0.287,-0.338c-0.067,-0.168 -0.075,-0.316 -0.023,-0.443c0.052,-0.129 0.152,-0.225 0.305,-0.285c0.124,-0.049 0.233,-0.061 0.326,-0.037c0.095,0.025 0.181,0.086 0.255,0.182z" id="svg_275"/>
     </g>
    </g>
    <g id="svg_276">
     <g id="svg_277">
      <path fill="#FFFFFF" d="m331.071,274.74l0.205,0.516c0.048,-0.137 0.131,-0.227 0.252,-0.273c0.063,-0.025 0.121,-0.035 0.182,-0.033c0.06,0.002 0.107,0.018 0.146,0.043s0.072,0.059 0.099,0.098c0.025,0.041 0.06,0.105 0.096,0.197l0.235,0.596l-0.268,0.107l-0.214,-0.537c-0.042,-0.107 -0.074,-0.174 -0.097,-0.197c-0.021,-0.023 -0.05,-0.039 -0.081,-0.047c-0.032,-0.006 -0.068,-0.002 -0.107,0.014c-0.046,0.018 -0.08,0.045 -0.106,0.08c-0.026,0.037 -0.038,0.078 -0.037,0.129s0.019,0.117 0.053,0.203l0.202,0.51l-0.271,0.107l-0.559,-1.404l0.27,-0.109z" id="svg_278"/>
     </g>
    </g>
    <g id="svg_279">
     <g id="svg_280">
      <path fill="#FFFFFF" d="m333.019,275.216l0.286,-0.063c0.005,0.113 -0.021,0.209 -0.074,0.289c-0.054,0.082 -0.137,0.145 -0.248,0.188c-0.177,0.072 -0.33,0.064 -0.462,-0.018c-0.103,-0.064 -0.184,-0.168 -0.239,-0.311c-0.066,-0.168 -0.076,-0.316 -0.025,-0.447s0.143,-0.223 0.277,-0.275c0.15,-0.061 0.289,-0.059 0.417,0.008c0.127,0.063 0.229,0.199 0.309,0.408l-0.673,0.268c0.032,0.08 0.08,0.133 0.138,0.16c0.062,0.029 0.121,0.029 0.182,0.006c0.043,-0.018 0.074,-0.043 0.095,-0.076c0.016,-0.037 0.023,-0.082 0.017,-0.137zm-0.093,-0.279c-0.033,-0.078 -0.076,-0.129 -0.131,-0.154c-0.056,-0.023 -0.11,-0.025 -0.164,-0.004c-0.06,0.021 -0.099,0.063 -0.121,0.121c-0.021,0.059 -0.017,0.125 0.015,0.197l0.401,-0.16z" id="svg_281"/>
     </g>
    </g>
    <g id="svg_282">
     <g id="svg_283">
      <path fill="#FFFFFF" d="m334.573,274.97l-0.269,0.107l-0.207,-0.518c-0.044,-0.111 -0.077,-0.182 -0.103,-0.207c-0.024,-0.027 -0.052,-0.045 -0.086,-0.053c-0.032,-0.01 -0.066,-0.006 -0.104,0.01c-0.047,0.02 -0.083,0.049 -0.111,0.088c-0.025,0.041 -0.037,0.084 -0.034,0.133c0.002,0.047 0.026,0.129 0.072,0.242l0.183,0.459l-0.269,0.107l-0.405,-1.018l0.251,-0.102l0.061,0.152c0.042,-0.15 0.13,-0.254 0.266,-0.307c0.061,-0.023 0.118,-0.035 0.175,-0.033c0.06,0 0.106,0.014 0.146,0.037s0.069,0.055 0.098,0.092c0.027,0.039 0.056,0.098 0.087,0.174l0.249,0.637z" id="svg_284"/>
     </g>
    </g>
    <g id="svg_285">
     <g id="svg_286">
      <path fill="#FFFFFF" d="m334.847,274.863l-0.56,-1.404l0.27,-0.107l0.56,1.402l-0.27,0.109z" id="svg_287"/>
     </g>
    </g>
    <g id="svg_288">
     <g id="svg_289">
      <path fill="#FFFFFF" d="m335.31,273.859l-0.261,0.053c-0.013,-0.109 0.007,-0.199 0.055,-0.275c0.049,-0.072 0.139,-0.137 0.271,-0.188c0.117,-0.047 0.215,-0.07 0.284,-0.064c0.068,0.006 0.123,0.025 0.166,0.059c0.041,0.035 0.085,0.109 0.131,0.229l0.123,0.314c0.035,0.088 0.065,0.152 0.093,0.191c0.024,0.037 0.06,0.078 0.103,0.117l-0.267,0.105c-0.015,-0.016 -0.033,-0.037 -0.059,-0.068c-0.011,-0.014 -0.019,-0.023 -0.021,-0.029c-0.028,0.064 -0.065,0.117 -0.107,0.16c-0.044,0.043 -0.095,0.076 -0.153,0.102c-0.104,0.041 -0.198,0.045 -0.282,0.014c-0.082,-0.033 -0.143,-0.094 -0.175,-0.18c-0.023,-0.059 -0.03,-0.113 -0.021,-0.17s0.034,-0.107 0.074,-0.15s0.104,-0.094 0.188,-0.146c0.116,-0.074 0.194,-0.131 0.234,-0.172l-0.011,-0.025c-0.021,-0.051 -0.048,-0.082 -0.082,-0.096c-0.034,-0.012 -0.088,-0.004 -0.158,0.023c-0.048,0.021 -0.081,0.043 -0.101,0.074c-0.017,0.026 -0.025,0.067 -0.024,0.122zm0.447,0.074c-0.029,0.025 -0.079,0.061 -0.146,0.105c-0.067,0.047 -0.11,0.08 -0.129,0.105c-0.022,0.037 -0.03,0.078 -0.015,0.115c0.015,0.037 0.043,0.064 0.081,0.08c0.039,0.018 0.08,0.018 0.124,-0.002c0.049,-0.018 0.088,-0.053 0.118,-0.104c0.023,-0.035 0.033,-0.074 0.03,-0.113c-0.004,-0.025 -0.018,-0.07 -0.043,-0.137l-0.02,-0.049z" id="svg_290"/>
     </g>
    </g>
    <g id="svg_291">
     <g id="svg_292">
      <path fill="#FFFFFF" d="m336.271,273.958l0.254,-0.148c0.032,0.049 0.071,0.078 0.118,0.092c0.046,0.014 0.1,0.008 0.163,-0.018c0.069,-0.027 0.117,-0.063 0.142,-0.102c0.018,-0.027 0.02,-0.057 0.006,-0.086c-0.008,-0.021 -0.021,-0.035 -0.039,-0.043c-0.018,-0.008 -0.053,-0.008 -0.104,0c-0.236,0.037 -0.391,0.049 -0.465,0.033c-0.104,-0.023 -0.174,-0.084 -0.212,-0.182c-0.036,-0.088 -0.029,-0.176 0.017,-0.266c0.045,-0.086 0.143,-0.158 0.287,-0.217c0.139,-0.057 0.251,-0.074 0.337,-0.057c0.085,0.02 0.159,0.066 0.22,0.146l-0.232,0.146c-0.028,-0.035 -0.061,-0.057 -0.101,-0.066c-0.038,-0.008 -0.087,-0.002 -0.143,0.021c-0.07,0.027 -0.116,0.059 -0.141,0.09c-0.015,0.021 -0.018,0.045 -0.009,0.068c0.008,0.018 0.023,0.031 0.046,0.035c0.031,0.01 0.126,0.002 0.281,-0.023c0.156,-0.023 0.273,-0.023 0.349,0c0.074,0.025 0.13,0.082 0.165,0.168c0.036,0.094 0.028,0.189 -0.021,0.287s-0.153,0.178 -0.306,0.238c-0.141,0.055 -0.261,0.068 -0.362,0.045c-0.103,-0.018 -0.186,-0.075 -0.25,-0.161z" id="svg_293"/>
     </g>
    </g>
    <g id="svg_294">
     <g id="svg_295">
      <path fill="#FFFFFF" d="m337.361,273.525l0.254,-0.148c0.032,0.047 0.072,0.078 0.118,0.09c0.045,0.016 0.1,0.01 0.163,-0.018c0.07,-0.027 0.117,-0.063 0.142,-0.102c0.018,-0.025 0.02,-0.057 0.008,-0.086c-0.009,-0.02 -0.021,-0.033 -0.039,-0.043c-0.019,-0.008 -0.055,-0.008 -0.104,0c-0.237,0.039 -0.392,0.051 -0.466,0.033c-0.104,-0.021 -0.172,-0.082 -0.212,-0.18c-0.034,-0.09 -0.029,-0.176 0.017,-0.268c0.045,-0.086 0.142,-0.156 0.288,-0.217c0.14,-0.055 0.251,-0.074 0.337,-0.057c0.085,0.02 0.159,0.066 0.222,0.146l-0.236,0.148c-0.026,-0.035 -0.061,-0.059 -0.098,-0.068c-0.039,-0.008 -0.087,-0.002 -0.144,0.021c-0.07,0.027 -0.117,0.061 -0.141,0.092c-0.015,0.021 -0.018,0.045 -0.008,0.066c0.008,0.018 0.022,0.031 0.047,0.037c0.029,0.01 0.124,0 0.278,-0.023c0.157,-0.025 0.273,-0.025 0.35,0c0.075,0.025 0.13,0.08 0.164,0.166c0.037,0.094 0.029,0.188 -0.021,0.287c-0.05,0.098 -0.153,0.178 -0.305,0.238c-0.139,0.057 -0.26,0.068 -0.362,0.047c-0.105,-0.02 -0.188,-0.075 -0.252,-0.161z" id="svg_296"/>
     </g>
    </g>
    <g id="svg_297">
     <g id="svg_298">
      <path fill="#FFFFFF" d="m339.12,272.785l0.286,-0.064c0.006,0.113 -0.02,0.211 -0.074,0.291c-0.053,0.08 -0.136,0.145 -0.246,0.188c-0.179,0.072 -0.33,0.064 -0.463,-0.02c-0.104,-0.063 -0.184,-0.168 -0.239,-0.309c-0.067,-0.168 -0.075,-0.318 -0.025,-0.447c0.05,-0.131 0.144,-0.223 0.277,-0.275c0.15,-0.061 0.29,-0.061 0.417,0.008c0.128,0.063 0.229,0.199 0.309,0.408l-0.675,0.268c0.035,0.078 0.081,0.133 0.14,0.16c0.061,0.029 0.12,0.031 0.183,0.006c0.042,-0.018 0.073,-0.043 0.093,-0.078c0.016,-0.035 0.024,-0.08 0.017,-0.136zm-0.091,-0.28c-0.033,-0.076 -0.076,-0.127 -0.132,-0.152c-0.054,-0.023 -0.108,-0.027 -0.162,-0.006c-0.06,0.023 -0.099,0.064 -0.121,0.123c-0.021,0.059 -0.017,0.123 0.015,0.197l0.4,-0.162z" id="svg_299"/>
     </g>
    </g>
    <g id="svg_300">
     <g id="svg_301">
      <path fill="#FFFFFF" d="m340.677,272.539l-0.27,0.107l-0.207,-0.52c-0.043,-0.109 -0.078,-0.178 -0.102,-0.207c-0.025,-0.025 -0.054,-0.043 -0.086,-0.051c-0.034,-0.008 -0.068,-0.006 -0.104,0.01c-0.047,0.02 -0.083,0.047 -0.109,0.088c-0.026,0.039 -0.039,0.086 -0.035,0.133c0.002,0.047 0.027,0.129 0.072,0.24l0.184,0.461l-0.27,0.107l-0.405,-1.018l0.25,-0.1l0.06,0.15c0.043,-0.15 0.132,-0.252 0.269,-0.307c0.059,-0.023 0.116,-0.035 0.174,-0.035c0.058,0.004 0.104,0.016 0.145,0.039s0.07,0.055 0.099,0.092c0.025,0.037 0.056,0.098 0.087,0.176l0.248,0.635z" id="svg_302"/>
     </g>
    </g>
   </g>
  </g>
  <g id="svg_303">
   <g id="svg_304">
    <polygon fill="#F5F5F5" points="239.80599975585938,275.7980041503906 152.84800720214844,275.7980041503906 169.44900512695312,292.2980041503906 256.406005859375,292.2980041503906 " id="svg_305"/>
   </g>
   <g id="svg_306">
    <path d="m257.618,292.798l-88.375,0l-17.607,-17.5l88.376,0l17.606,17.5zm-87.963,-1l85.54,0l-15.595,-15.5l-85.54,0l15.595,15.5z" id="svg_307"/>
   </g>
  </g>
  <g id="svg_308">
   <g id="svg_309">
    <rect x="152.848" y="275.798" fill="#F5F5F5" width="86.958" height="23.289" id="svg_310"/>
   </g>
   <g id="svg_311">
    <path d="m240.306,299.587l-87.958,0l0,-24.289l87.958,0l0,24.289zm-86.958,-1l85.958,0l0,-22.289l-85.958,0l0,22.289l0,0z" id="svg_312"/>
   </g>
  </g>
  <g id="svg_313">
   <g id="svg_314">
    <path d="m165.917,289.152l2.202,-0.215c0.132,0.738 0.4,1.281 0.807,1.629c0.405,0.346 0.952,0.52 1.64,0.52c0.729,0 1.277,-0.154 1.647,-0.463s0.554,-0.668 0.554,-1.08c0,-0.266 -0.078,-0.492 -0.232,-0.678c-0.156,-0.188 -0.428,-0.348 -0.814,-0.484c-0.265,-0.092 -0.869,-0.256 -1.812,-0.49c-1.214,-0.301 -2.064,-0.67 -2.554,-1.107c-0.688,-0.617 -1.031,-1.367 -1.031,-2.254c0,-0.572 0.161,-1.105 0.484,-1.604s0.79,-0.875 1.399,-1.135c0.608,-0.26 1.344,-0.391 2.205,-0.391c1.406,0 2.465,0.309 3.176,0.926s1.084,1.439 1.12,2.469l-2.264,0.1c-0.097,-0.574 -0.305,-0.988 -0.623,-1.24c-0.318,-0.254 -0.796,-0.379 -1.433,-0.379c-0.658,0 -1.172,0.135 -1.544,0.404c-0.239,0.174 -0.359,0.404 -0.359,0.695c0,0.266 0.112,0.492 0.336,0.68c0.286,0.24 0.979,0.49 2.079,0.75c1.102,0.26 1.915,0.527 2.442,0.807c0.527,0.277 0.94,0.658 1.238,1.139c0.298,0.482 0.446,1.076 0.446,1.785c0,0.643 -0.178,1.244 -0.534,1.805s-0.861,0.979 -1.514,1.25s-1.465,0.408 -2.438,0.408c-1.417,0 -2.505,-0.328 -3.265,-0.982c-0.757,-0.658 -1.21,-1.611 -1.358,-2.865z" id="svg_315"/>
   </g>
   <g id="svg_316">
    <path d="m179.454,292.798l0,-9.311l-3.325,0l0,-1.896l8.905,0l0,1.896l-3.318,0l0,9.311l-2.262,0z" id="svg_317"/>
   </g>
   <g id="svg_318">
    <path d="m186.495,292.798l0,-11.207l8.309,0l0,1.896l-6.046,0l0,2.484l5.626,0l0,1.889l-5.626,0l0,3.051l6.261,0l0,1.887l-8.524,0l0,0z" id="svg_319"/>
   </g>
   <g id="svg_320">
    <path d="m196.951,292.798l0,-11.207l7.682,0l0,1.896l-5.419,0l0,2.652l4.678,0l0,1.896l-4.678,0l0,4.762l-2.263,0l0,0.001z" id="svg_321"/>
   </g>
   <g id="svg_322">
    <path d="m215.74,292.798l-2.462,0l-0.978,-2.547l-4.479,0l-0.925,2.547l-2.399,0l4.364,-11.207l2.394,0l4.485,11.207zm-4.166,-4.433l-1.545,-4.158l-1.514,4.158l3.059,0z" id="svg_323"/>
   </g>
   <g id="svg_324">
    <path d="m216.964,292.798l0,-11.207l2.201,0l4.586,7.484l0,-7.484l2.102,0l0,11.207l-2.27,0l-4.519,-7.309l0,7.309l-2.1,0z" id="svg_325"/>
   </g>
  </g>
  <g id="Ebene_2" display="none">
   <g display="inline" id="svg_326">
    <g id="svg_327">
     <path fill="#FFFFFF" d="m162.062,441.351c4.905,4.724 8.204,0.219 12.938,-4.694c4.733,-4.916 9.107,-8.386 4.204,-13.105c-3.062,-2.947 -9.379,-1.352 -14.113,3.566c-4.734,4.91 -6.09,11.285 -3.029,14.233z" id="svg_328"/>
     <path d="m179.737,432.256l0,0c-0.879,1.089 -1.974,2.203 -3.137,3.386c-0.42,0.426 -0.852,0.866 -1.286,1.315c-0.434,0.451 -0.855,0.898 -1.268,1.334c-2.745,2.914 -5.118,5.429 -7.832,5.492c-1.48,0.035 -2.94,-0.656 -4.456,-2.119c-2.917,-2.807 -2.12,-8.629 1.853,-13.541c0.364,-0.449 0.756,-0.891 1.163,-1.313c4.895,-5.082 11.502,-6.688 14.732,-3.578c3.731,3.593 2.211,6.58 0.231,9.024zm-15.443,-3.582c-3.686,4.558 -4.515,9.869 -1.929,12.359c1.342,1.291 2.593,1.904 3.827,1.873c2.35,-0.055 4.604,-2.447 7.218,-5.217c0.414,-0.438 0.836,-0.889 1.272,-1.34c0.437,-0.453 0.87,-0.893 1.292,-1.324c1.146,-1.166 2.229,-2.268 3.081,-3.32c2.099,-2.596 2.876,-4.922 -0.157,-7.844c-2.882,-2.773 -8.936,-1.18 -13.494,3.555c-0.388,0.407 -0.762,0.829 -1.11,1.258z" id="svg_329"/>
    </g>
    <g id="svg_330">
     <path fill="#944E00" d="m165.892,436.362c2.433,2.342 6.297,2.27 8.638,-0.16c2.34,-2.432 2.267,-6.299 -0.164,-8.639c-2.429,-2.34 -6.296,-2.266 -8.637,0.164c-2.341,2.432 -2.266,6.299 0.163,8.635z" id="svg_331"/>
    </g>
    <g id="svg_332">
     <circle cx="170.679" cy="431.283" r="2.931" id="svg_333"/>
    </g>
    <g id="svg_334">
     <circle fill="#FFFFFF" cx="169.588" cy="429.502" r="1.197" id="svg_335"/>
    </g>
   </g>
   <g display="inline" id="svg_336">
    <g id="svg_337">
     <path fill="#FFFFFF" d="m190.182,412.321c4.905,4.723 8.204,0.219 12.938,-4.695c4.733,-4.916 9.107,-8.385 4.203,-13.104c-3.061,-2.946 -9.379,-1.353 -14.112,3.565c-4.734,4.912 -6.09,11.287 -3.029,14.234z" id="svg_338"/>
     <path d="m207.857,403.228l0,0c-0.878,1.088 -1.974,2.203 -3.137,3.385c-0.42,0.427 -0.852,0.867 -1.286,1.316c-0.434,0.45 -0.855,0.897 -1.268,1.334c-2.745,2.914 -5.118,5.428 -7.832,5.491c-1.481,0.035 -2.94,-0.655 -4.456,-2.118c-2.917,-2.808 -2.121,-8.63 1.853,-13.541c0.364,-0.449 0.755,-0.892 1.162,-1.313c4.895,-5.082 11.502,-6.688 14.732,-3.578c3.732,3.591 2.212,6.578 0.232,9.024zm-15.443,-3.582c-3.686,4.558 -4.515,9.869 -1.929,12.358c1.343,1.291 2.594,1.904 3.827,1.873c2.351,-0.055 4.604,-2.446 7.217,-5.217c0.414,-0.438 0.837,-0.889 1.273,-1.34c0.436,-0.453 0.869,-0.893 1.292,-1.324c1.146,-1.166 2.228,-2.268 3.081,-3.32c2.099,-2.596 2.876,-4.922 -0.158,-7.844c-2.882,-2.772 -8.935,-1.18 -13.494,3.556c-0.387,0.405 -0.761,0.827 -1.109,1.258z" id="svg_339"/>
    </g>
    <g id="svg_340">
     <path fill="#944E00" d="m194.012,407.333c2.431,2.342 6.297,2.271 8.638,-0.16c2.339,-2.432 2.267,-6.299 -0.165,-8.639c-2.428,-2.34 -6.295,-2.266 -8.635,0.164c-2.341,2.431 -2.267,6.299 0.162,8.635z" id="svg_341"/>
    </g>
    <g id="svg_342">
     <circle cx="198.799" cy="402.254" r="2.93" id="svg_343"/>
    </g>
    <g id="svg_344">
     <circle fill="#FFFFFF" cx="197.708" cy="400.473" r="1.197" id="svg_345"/>
    </g>
   </g>
  </g>
  <g id="svg_346">
   <path fill="#F9B77A" d="m244.009,171.25c0,0 -16.596,29.935 20.183,31.243c36.779,1.309 19.346,-31.243 19.346,-31.243l-37.606,0.588" id="svg_347"/>
   <path d="m266.294,203.031c-0.691,0 -1.397,-0.013 -2.12,-0.038c-11.494,-0.409 -19.034,-3.646 -22.412,-9.622c-5.286,-9.35 1.517,-21.836 1.809,-22.364l0.875,0.485c-0.069,0.125 -6.823,12.53 -1.812,21.39c3.196,5.65 10.455,8.715 21.575,9.111c10.63,0.373 17.663,-2.061 20.899,-7.25c5.127,-8.223 -0.871,-20.98 -1.875,-22.988l-37.295,0.583l-0.016,-1l37.911,-0.593l0.144,0.269c0.323,0.602 7.835,14.863 1.98,24.256c-3.211,5.154 -9.821,7.761 -19.663,7.761z" id="svg_348"/>
  </g>
  <g id="svg_349">
   <g id="svg_350">
    <g id="svg_351">
     <g id="svg_352">
      <g id="svg_353">
       <path fill="#F9B77A" d="m290.264,75.91c-4.38,-6.938 -7.33,-14.043 -8.02,-20.5c-3.583,-12.604 -13.784,-18.322 -25.292,-15.629c-6.607,1.551 -12.281,5.033 -18.07,8.299c-9.75,5.509 -19.728,8.374 -30.985,4.582c-9.463,-3.195 -15.203,0.36 -17.538,10.256c-1.669,7.07 -0.719,14.158 0.27,21.246c2.246,16.2 7.901,31.59 11.193,47.557c1.588,7.696 5.411,14.936 9.909,21.62c1.178,1.756 0.798,6.414 2.48,6.195c0.612,-0.092 5.227,6.26 7.737,6.307c1.565,5.226 6.642,1.652 10.695,5.166c0.082,0.067 0.171,0.145 0.256,0.209c0.155,0.13 0.314,0.271 0.479,0.399c0.477,0.384 0.962,0.738 1.46,1.049c0.12,0.079 0.239,0.158 0.367,0.231c0.262,0.168 0.531,0.327 0.803,0.472c0.358,0.192 0.701,0.354 1.052,0.509c3.508,1.501 6.53,1.555 8.918,-2.429c1.909,-3.188 5.899,-3.059 8.667,-2.144c6.85,2.25 10.654,1.667 14.843,-4.061c0.252,-0.342 0.494,-0.679 0.729,-1.023c0.229,-0.347 0.466,-0.69 0.685,-1.034c0.441,-0.702 0.855,-1.41 1.254,-2.123c0.186,-0.338 0.361,-0.679 0.537,-1.023c0.215,-0.456 0.43,-0.91 0.633,-1.365c1.609,-3.634 2.508,-7.532 2.498,-11.686c3.832,-1.45 5.969,-4.266 6.717,-7.435c0.47,0.493 0.979,0.683 1.616,-0.166c0.735,-0.996 1.628,-1.864 2.542,-2.693c0.619,-0.571 1.231,-1.154 1.819,-1.758c0.168,-0.165 0.311,-0.38 0.466,-0.554c0.311,-0.339 0.5,-1.045 0.863,-1.161c0,0 0,0 0.011,-0.005c0.169,-0.051 0.284,-0.286 0.412,-0.483c0.126,-0.196 0.28,-0.307 0.391,-0.52c0.084,-0.141 0.152,-0.287 0.221,-0.436c0.15,-0.297 0.276,-0.598 0.386,-0.926c2.569,-7.561 15.49,-3.105 14.456,-11.502c-0.484,-4.008 2.936,-28.89 1.646,-32.738c-2.171,-6.476 -13.512,-5.026 -17.106,-10.703z" id="svg_354"/>
      </g>
     </g>
    </g>
    <g id="svg_355">
     <g id="svg_356">
      <g id="svg_357">
       <path fill="#F9B77A" d="m223.325,156.787c-2.51,-0.052 -4.786,-0.954 -6.508,-2.408c-0.182,0.257 -0.371,0.398 -1.354,0.604l6.091,19.485l11.086,-3.461c-4.05,-3.511 -7.746,-9.001 -9.315,-14.22z" id="svg_358"/>
      </g>
     </g>
    </g>
    <g id="svg_359">
     <g id="svg_360">
      <g id="svg_361">
       <path fill="#F9B77A" d="m283.945,139.47c-0.634,0.846 -0.932,0.584 -1.399,0.092c-0.752,3.167 -2.89,5.984 -6.72,7.43c0.008,4.157 -0.891,8.05 -2.499,11.688c0.079,-0.151 0.138,-0.295 0.206,-0.45l17.698,-5.535l-4.951,-15.843c-0.799,0.797 -1.596,1.62 -2.335,2.618z" id="svg_362"/>
      </g>
     </g>
    </g>
    <g id="svg_363">
     <g id="svg_364">
      <g id="svg_365">
       <g id="svg_366">
        <path fill="#592C03" d="m316.156,55.549c0.953,5.922 0.963,22.313 1.178,28.307c-0.622,0.72 -2.812,9.951 -4.62,18.859c-2.223,-1.034 -4.907,-1.297 -7.932,-0.355c-0.173,0.054 -0.328,0.125 -0.5,0.186c0.138,-1.905 0.118,-3.737 -0.391,-5.256c-2.171,-6.479 -10.033,-15.705 -13.627,-21.382c-4.38,-6.936 -7.334,-14.041 -8.021,-20.499c-3.584,-12.605 -13.783,-18.324 -25.291,-15.63c-6.611,1.552 -12.28,5.033 -18.072,8.297c-9.749,5.512 -19.726,8.375 -30.982,4.583c-9.465,-3.194 -15.205,0.362 -17.539,10.256c-1.668,7.07 -0.72,14.159 0.27,21.248c1.934,13.962 6.403,27.329 9.708,40.978c-0.481,0.094 -0.97,0.208 -1.472,0.365c-0.806,0.251 -1.536,0.567 -2.209,0.925c-6.138,-19.674 -9.998,-39.903 -11.435,-60.572c-1.179,-16.988 6.35,-31.182 19.968,-41.315c22.61,-16.833 48.019,-22.79 75.091,-14.007c21.104,6.851 32.372,23.227 35.876,45.012z" id="svg_367"/>
       </g>
      </g>
     </g>
    </g>
    <g id="svg_368">
     <g id="svg_369">
      <g id="svg_370">
       <g id="svg_371">
        <path fill="#3F1B00" d="m313.448,99.168c-1.945,9.158 -3.761,19.23 -3.281,20.37c0.154,7.718 -1.821,25.791 -5.856,32.781c-1.728,2.992 -3.855,5.772 -6.146,9.106c-4.556,4.932 -24.892,18.912 -32.844,24.451c-8.009,5.584 -15.417,6.578 -19.7,5.307c-0.311,-0.077 -16.507,-9.195 -23.563,-14.912c-9.141,-7.413 -13.484,-17.911 -17.718,-28.345c-3.686,-9.098 -6.86,-18.331 -9.536,-27.683c0.785,-0.085 1.595,-0.25 2.427,-0.51c0.565,-0.177 1.082,-0.389 1.578,-0.617c1.098,4.18 2.136,8.371 3.01,12.605c1.587,7.696 5.651,14.782 9.911,21.619c5.037,8.092 11.009,9.582 13.008,11.1c4.333,3.301 3.85,3.053 7.901,6.565c0.086,0.069 0.172,0.147 0.255,0.214c0.159,0.128 0.317,0.267 0.479,0.398c0.477,0.382 0.962,0.732 1.459,1.051c0.121,0.075 0.239,0.156 0.367,0.231c0.263,0.167 0.534,0.322 0.807,0.471c0.357,0.188 0.7,0.352 1.05,0.508c3.51,1.502 6.53,1.553 8.918,-2.431c1.91,-3.185 5.9,-3.061 8.665,-2.143c6.854,2.249 10.654,1.668 14.845,-4.062c0.253,-0.341 0.491,-0.678 0.728,-1.024c0.229,-0.346 0.469,-0.692 0.688,-1.031c0.438,-0.703 0.853,-1.41 1.25,-2.121c0.188,-0.339 0.362,-0.681 0.54,-1.026c0.215,-0.457 0.429,-0.91 0.633,-1.363c1.607,-3.638 10.192,-18.44 10.829,-19.289c0.736,-0.996 4.671,-4.831 4.827,-5.006c0.314,-0.326 2.176,-3.203 2.281,-3.529c2.571,-7.563 13.581,-11.458 12.551,-19.854c-0.38,-3.111 0.648,-7.332 0.524,-10.868c3.073,0.963 6.38,0.554 9.113,-0.963z" id="svg_372"/>
       </g>
      </g>
     </g>
    </g>
    <g id="svg_373">
     <g id="svg_374">
      <g id="svg_375">
       <g id="svg_376">
        <path fill="#F9B77A" d="m323.386,85.362c2.976,9.584 -0.235,19.264 -6.044,28.403c-0.76,1.188 -2.169,2.072 -3.446,2.799c-5.305,3.014 -8.515,-0.82 -5.648,-6.305c1.03,-1.974 -0.591,-5.024 0.529,-11.399c0.977,-5.56 2.552,-18.073 3.529,-19.29c3.86,-4.787 7.964,-2.366 11.08,5.792z" id="svg_377"/>
       </g>
      </g>
      <g id="svg_378">
       <g id="svg_379">
        <path d="m307.79,117.099c-1.491,-1.489 -1.487,-4.195 0.016,-7.069c0.411,-0.784 0.323,-1.867 0.207,-3.367c-0.147,-1.852 -0.344,-4.389 0.271,-7.887c0.285,-1.611 0.619,-3.822 0.974,-6.154c1.138,-7.488 1.938,-12.464 2.659,-13.364c1.856,-2.304 3.879,-3.104 5.853,-2.36c2.232,0.844 4.335,3.708 6.094,8.314c2.702,8.693 0.702,18.119 -6.098,28.818c-0.8,1.254 -2.214,2.168 -3.622,2.97c-0.111,0.06 -0.223,0.124 -0.33,0.18c-2.44,1.281 -4.694,1.25 -6.024,-0.081zm4.906,-37.216c-0.61,0.76 -1.717,8.056 -2.451,12.885c-0.355,2.342 -0.692,4.554 -0.978,6.177c-0.594,3.375 -0.4,5.838 -0.259,7.638c0.133,1.667 0.223,2.872 -0.317,3.907c-1.289,2.472 -1.369,4.732 -0.197,5.9c1.059,1.056 2.998,0.96 5.156,-0.259c1.296,-0.734 2.589,-1.565 3.269,-2.631c6.638,-10.442 8.6,-19.596 6.002,-27.958c-1.643,-4.303 -3.548,-6.967 -5.506,-7.706c-0.875,-0.334 -1.731,-0.27 -2.615,0.195c-0.699,0.367 -1.409,0.993 -2.104,1.852z" id="svg_380"/>
       </g>
      </g>
     </g>
     <g id="svg_381">
      <g id="svg_382">
       <g id="svg_383">
        <path fill="#DF8F6B" d="m321.008,89.161c1.966,6.336 -0.159,12.739 -3.999,18.781c-0.502,0.787 -1.432,1.371 -2.277,1.852c-3.51,1.988 -4.045,0.943 -4.869,-2.906c-0.405,-1.913 0.163,-5.421 1.2,-8.511c0.755,0.262 2.459,0.143 3.031,-1.979c0.555,-2.042 -0.908,-2.954 -1.696,-3.386c0.491,-3.325 0.759,-7.031 1.284,-7.683c2.551,-3.165 5.266,-1.567 7.326,3.832z" id="svg_384"/>
       </g>
      </g>
     </g>
     <g id="svg_385">
      <g id="svg_386">
       <g id="svg_387">
        <path d="m320.755,90.03c-1.328,-4.529 -2.752,-5.631 -3.713,-5.755c-1.63,-0.213 -3.079,2.146 -3.09,2.17l-0.857,-0.513c0.073,-0.124 1.788,-2.941 4.07,-2.649c1.857,0.239 3.347,2.354 4.549,6.466l-0.959,0.281z" id="svg_388"/>
       </g>
      </g>
     </g>
    </g>
    <g id="svg_389">
     <g id="svg_390">
      <g id="svg_391">
       <g id="svg_392">
        <path fill="#592C03" d="m270.241,76.795c0.596,-1.244 0.071,-2.74 -1.172,-3.333c-17.188,-8.247 -30.617,1.725 -31.18,2.153c-1.095,0.834 -1.308,2.394 -0.476,3.495c0.83,1.098 2.396,1.319 3.496,0.492c0.469,-0.352 11.636,-8.521 25.998,-1.634c0.471,0.229 0.979,0.294 1.463,0.217c0.784,-0.122 1.498,-0.617 1.871,-1.39z" id="svg_393"/>
       </g>
      </g>
     </g>
    </g>
    <g id="svg_394">
     <g id="svg_395">
      <g id="svg_396">
       <g id="svg_397">
        <path fill="#592C03" d="m227.131,80.522c0.34,-1.339 -0.473,-2.7 -1.813,-3.036c-18.485,-4.644 -29.651,7.809 -30.12,8.338c-0.905,1.037 -0.801,2.607 0.232,3.519c1.033,0.911 2.611,0.815 3.524,-0.218c0.388,-0.436 9.698,-10.672 25.146,-6.789c0.508,0.126 1.018,0.09 1.474,-0.08c0.747,-0.277 1.35,-0.904 1.557,-1.734z" id="svg_398"/>
       </g>
      </g>
     </g>
    </g>
    <g id="svg_399">
     <g id="svg_400">
      <g id="svg_401">
       <path d="m232.247,136.004c-3.549,-2.659 -1.986,-9.721 -0.845,-14.878c0.334,-1.508 0.622,-2.813 0.711,-3.714c0.588,-5.864 -1.679,-19.748 -1.703,-19.888l0.988,-0.163c0.093,0.576 2.309,14.156 1.711,20.152c-0.094,0.958 -0.389,2.288 -0.731,3.831c-1.017,4.615 -2.564,11.589 0.469,13.866c2.365,1.771 7.295,0.625 14.647,-3.408l0.48,0.877c-0.405,0.222 -0.803,0.437 -1.195,0.641c-7.169,3.761 -11.928,4.64 -14.532,2.684z" id="svg_402"/>
      </g>
     </g>
    </g>
    <g id="svg_403">
     <g id="svg_404">
      <path d="m225.409,145.297c4.267,-0.077 8.538,-0.13 12.801,-0.244c7.035,-0.194 13.892,-1.254 20.231,-4.532c1.588,-0.82 3.439,-1.377 4.194,-3.292c2.558,1.092 3.939,2.079 0.413,4.033c-11.229,6.221 -23.539,6.271 -35.819,6.563c-1.785,0.042 -2.421,-0.817 -1.82,-2.528z" id="svg_405"/>
     </g>
    </g>
   </g>
   <g id="svg_406">
    <g id="svg_407">
     <g id="svg_408">
      <path fill="#FFFFFF" d="m241.762,90.633c0.846,6.757 6.242,5.329 13.012,4.482c6.772,-0.847 12.354,-0.796 11.509,-7.55c-0.527,-4.216 -6.446,-6.947 -13.218,-6.098c-6.77,0.846 -11.831,4.95 -11.303,9.166z" id="svg_409"/>
     </g>
     <g id="svg_410">
      <path d="m261.224,94.672l0,0c-1.366,0.293 -2.919,0.473 -4.569,0.662c-0.594,0.065 -1.207,0.138 -1.826,0.215c-0.621,0.078 -1.23,0.16 -1.824,0.239c-3.969,0.542 -7.393,1.004 -9.543,-0.652c-1.173,-0.903 -1.875,-2.358 -2.133,-4.449c-0.504,-4.017 3.774,-8.044 9.953,-9.366c0.565,-0.122 1.146,-0.217 1.732,-0.293c6.998,-0.874 13.147,2.032 13.706,6.479c0.641,5.14 -2.419,6.509 -5.496,7.165zm-9.758,-12.493c-5.729,1.228 -9.715,4.837 -9.27,8.399c0.233,1.847 0.821,3.109 1.798,3.863c1.863,1.434 5.121,0.99 8.893,0.479c0.596,-0.08 1.209,-0.166 1.832,-0.24c0.625,-0.08 1.238,-0.15 1.84,-0.219c1.623,-0.186 3.156,-0.362 4.482,-0.646c3.262,-0.699 5.33,-2.018 4.807,-6.198c-0.496,-3.97 -6.207,-6.534 -12.729,-5.72c-0.556,0.074 -1.111,0.165 -1.653,0.282z" id="svg_411"/>
     </g>
    </g>
    <g id="svg_412">
     <g id="svg_413">
      <path fill="#944E00" d="m247.876,89.164c0.42,3.347 3.47,5.72 6.818,5.303c3.349,-0.421 5.722,-3.475 5.303,-6.822c-0.418,-3.344 -3.472,-5.719 -6.82,-5.301c-3.348,0.42 -5.722,3.475 -5.301,6.82z" id="svg_414"/>
     </g>
    </g>
    <g id="svg_415">
     <g id="svg_416">
      <circle cx="256.696" cy="88.156" r="2.931" id="svg_417"/>
     </g>
    </g>
    <g id="svg_418">
     <g id="svg_419">
      <circle fill="#FFFFFF" cx="259.533" cy="86.839" r="1.197" id="svg_420"/>
     </g>
    </g>
   </g>
   <g id="svg_421">
    <g id="svg_422">
     <g id="svg_423">
      <path fill="#FFFFFF" d="m200.83,96.465c0.846,6.756 6.242,5.328 13.013,4.481c6.771,-0.847 12.354,-0.796 11.508,-7.551c-0.528,-4.216 -6.445,-6.946 -13.219,-6.098c-6.769,0.847 -11.831,4.952 -11.302,9.168z" id="svg_424"/>
     </g>
     <g id="svg_425">
      <path d="m220.292,100.504l0,0c-1.366,0.293 -2.92,0.473 -4.57,0.66c-0.593,0.067 -1.207,0.139 -1.826,0.216c-0.62,0.076 -1.23,0.16 -1.824,0.239c-3.969,0.543 -7.393,1.004 -9.544,-0.652c-1.173,-0.904 -1.875,-2.357 -2.133,-4.45c-0.503,-4.017 3.776,-8.043 9.954,-9.365c0.566,-0.122 1.145,-0.217 1.731,-0.293c7,-0.874 13.148,2.032 13.706,6.479c0.642,5.141 -2.418,6.509 -5.494,7.166zm-9.759,-12.494c-5.729,1.229 -9.714,4.837 -9.269,8.399c0.232,1.848 0.82,3.11 1.796,3.863c1.864,1.434 5.122,0.991 8.894,0.479c0.597,-0.08 1.21,-0.166 1.832,-0.24c0.625,-0.08 1.238,-0.149 1.84,-0.219c1.624,-0.185 3.156,-0.361 4.483,-0.645c3.261,-0.699 5.329,-2.019 4.808,-6.199c-0.497,-3.969 -6.208,-6.534 -12.729,-5.719c-0.558,0.074 -1.113,0.165 -1.655,0.281z" id="svg_426"/>
     </g>
    </g>
    <g id="svg_427">
     <g id="svg_428">
      <path fill="#944E00" d="m206.945,94.993c0.419,3.348 3.47,5.723 6.818,5.305c3.349,-0.42 5.721,-3.475 5.302,-6.822c-0.418,-3.344 -3.472,-5.718 -6.82,-5.3c-3.349,0.42 -5.722,3.475 -5.3,6.817z" id="svg_429"/>
     </g>
    </g>
    <g id="svg_430">
     <g id="svg_431">
      <circle cx="215.765" cy="93.988" r="2.931" id="svg_432"/>
     </g>
    </g>
    <g id="svg_433">
     <g id="svg_434">
      <circle fill="#FFFFFF" cx="218.601" cy="92.671" r="1.197" id="svg_435"/>
     </g>
    </g>
   </g>
  </g>
  <g id="svg_436">
   <g id="svg_437">
    <g id="svg_438">
     <path fill="#bef1e1" d="m222.834,256.798l-79,0c-8.284,0 -15,-6.717 -15,-15c0,-8.284 6.716,-15 15,-15l79,0c8.284,0 15,6.716 15,15c0,8.284 -6.716,15 -15,15z" id="svg_439" stroke="#000000"/>
    </g>
    <g id="svg_440">
     <path d="m222.834,256.798l-79,0c-8.547,0 -15.5,-6.953 -15.5,-15.5s6.953,-15.5 15.5,-15.5l79,0c8.547,0 15.5,6.953 15.5,15.5s-6.953,15.5 -15.5,15.5zm-79,-30c-7.995,0 -14.5,6.505 -14.5,14.5c0,7.994 6.505,14.5 14.5,14.5l79,0c7.995,0 14.5,-6.506 14.5,-14.5c0,-7.995 -6.505,-14.5 -14.5,-14.5l-79,0z" id="svg_441" fill="#bef1e1" stroke="#000000"/>
    </g>
   </g>
  </g>
  <g id="svg_442">
   <g id="svg_443">
    <g id="svg_444">
     <g id="svg_445">
      <path fill="#F9B77A" d="m226.386,237.619c-2.091,7.596 7.731,16.928 21.94,20.844c14.209,3.914 25.73,7.088 29.519,-6.668c3.789,-13.752 -7.73,-16.928 -21.939,-20.842c-3.06,-0.844 -6.067,-1.349 -8.936,-1.572c0.316,-0.831 0.611,-1.705 0.863,-2.622c1.689,-6.14 1.105,-11.653 -1.308,-12.316c-2.412,-0.665 -4.31,4.358 -7.432,9.908c-4.772,8.49 -11.56,9.109 -12.707,13.268z" id="svg_446"/>
     </g>
    </g>
    <g id="svg_447">
     <g id="svg_448">
      <path d="m225.867,237.475c0.563,-2.044 2.275,-3.248 4.443,-4.772c2.554,-1.795 5.733,-4.026 8.314,-8.617c0.662,-1.176 1.27,-2.33 1.838,-3.41c2.259,-4.291 3.891,-7.393 6.209,-6.754c0.419,0.117 0.802,0.347 1.136,0.686c1.812,1.838 2.034,6.895 0.547,12.297c-0.183,0.661 -0.395,1.332 -0.631,2.002c2.793,0.26 5.591,0.774 8.326,1.528c8.468,2.331 15.783,4.347 19.841,8.466c3.189,3.239 4,7.506 2.475,13.039c-3.932,14.277 -16.098,10.926 -30.183,7.043c-7.237,-1.994 -13.768,-5.553 -17.917,-9.764l0,0c-3.845,-3.907 -5.408,-8.077 -4.398,-11.744zm29.894,-6.002c-2.901,-0.798 -5.872,-1.321 -8.834,-1.554l-0.72,-0.059l0.257,-0.673c0.329,-0.858 0.613,-1.726 0.849,-2.573c1.784,-6.481 0.857,-11.154 -0.93,-11.654c-1.48,-0.407 -3.096,2.662 -4.964,6.218c-0.575,1.088 -1.188,2.251 -1.854,3.437c-2.7,4.803 -5.992,7.115 -8.635,8.973c-1.99,1.398 -3.563,2.506 -4.024,4.176c-0.902,3.281 0.563,7.08 4.131,10.697c4.02,4.08 10.373,7.535 17.433,9.482c14.084,3.879 25.21,6.943 28.855,-6.289c1.434,-5.203 0.734,-9.015 -2.201,-11.994c-3.856,-3.916 -11.043,-5.894 -19.363,-8.187z" id="svg_449"/>
     </g>
    </g>
   </g>
   <g id="svg_450">
    <g id="svg_451">
     <g id="svg_452">
      <path fill="#F9B77A" d="m261.438,238.049c6.684,-0.249 16.986,6.944 16.986,6.944" id="svg_453"/>
     </g>
    </g>
    <g id="svg_454">
     <g id="svg_455">
      <path d="m261.419,237.508c6.783,-0.25 16.886,6.745 17.312,7.043l-0.617,0.884c-0.102,-0.068 -10.229,-7.087 -16.656,-6.846l-0.039,-1.081z" id="svg_456"/>
     </g>
    </g>
   </g>
   <g id="svg_457">
    <g id="svg_458">
     <g id="svg_459">
      <path fill="#F9B77A" d="m261.774,244.408c4.699,-0.621 16.072,7.389 16.072,7.389" id="svg_460"/>
     </g>
    </g>
    <g id="svg_461">
     <g id="svg_462">
      <path d="m261.702,243.875c4.854,-0.643 15.982,7.148 16.453,7.479l-0.621,0.885c-0.111,-0.078 -11.25,-7.881 -15.689,-7.295l-0.143,-1.069z" id="svg_463"/>
     </g>
    </g>
   </g>
   <g id="svg_464">
    <g id="svg_465">
     <g id="svg_466">
      <path fill="#F9B77A" d="m262.973,251.431c12.546,2.49 11.886,6.508 11.886,6.508" id="svg_467"/>
     </g>
    </g>
    <g id="svg_468">
     <g id="svg_469">
      <path d="m263.077,250.9c12.689,2.518 12.388,6.662 12.314,7.125l-1.068,-0.158c0.002,-0.037 0.223,-3.588 -11.455,-5.904l0.209,-1.063z" id="svg_470"/>
     </g>
    </g>
   </g>
  </g>
  <g id="svg_471">
   <path d="m187.005,227.285l-0.232,-0.973c0.135,-0.032 13.485,-3.256 15.685,-7.026l0.863,0.504c-2.414,4.136 -15.75,7.36 -16.316,7.495z" id="svg_472"/>
  </g>
  <g id="svg_473">
   <path d="m356.348,227.285c-0.566,-0.135 -13.901,-3.358 -16.315,-7.495l0.863,-0.504c2.201,3.771 15.55,6.994 15.685,7.026l-0.233,0.973z" id="svg_474"/>
  </g>
  <g id="svg_475">
   <path fill="none" stroke="#000000" stroke-miterlimit="10" d="m218.273,213.689" id="svg_476"/>
  </g>
 </g>

</svg>