<?xml version="1.0" encoding="utf-8"?>
<!-- Generator: Adobe Illustrator 16.0.0, SVG Export Plug-In . SVG Version: 6.00 Build 0)  -->
<!DOCTYPE svg PUBLIC "-//W3C//DTD SVG 1.1//EN" "http://www.w3.org/Graphics/SVG/1.1/DTD/svg11.dtd">
<svg version="1.1" id="Ebene_1" xmlns="http://www.w3.org/2000/svg" xmlns:xlink="http://www.w3.org/1999/xlink" x="0px" y="0px"
	 width="100px" height="100px" viewBox="0 0 100 100" enable-background="new 0 0 100 100" xml:space="preserve">
<g>
	<polygon fill="#518E7A" points="69.338,13.129 66.604,10.333 27.633,10.333 27.633,92.334 30.366,92.334 76.833,92.334 
		76.833,20.8 	"/>
	<g>
		<polygon fill="#FFFFFF" points="66.604,13.067 63.871,10.333 24.899,10.333 24.899,89.6 27.633,89.6 74.1,89.6 74.1,20.565 		"/>
		<path fill="#518E7A" d="M75.1,90.6h-51.2V9.333h40.386L75.1,20.151V90.6z M25.899,88.6h47.2V20.979l-9.643-9.646H25.899V88.6z"/>
	</g>
	<g>
		<path fill="#518E7A" d="M45.981,79.004c0,0.248-0.013,0.438-0.048,0.568c-0.032,0.131-0.07,0.227-0.123,0.279
			c-0.051,0.051-0.123,0.102-0.224,0.145c-0.096,0.041-0.211,0.08-0.342,0.107c-0.133,0.031-0.28,0.055-0.432,0.074
			c-0.155,0.016-0.31,0.021-0.467,0.021c-0.422,0-0.788-0.053-1.097-0.16s-0.566-0.273-0.769-0.496
			c-0.203-0.219-0.353-0.502-0.449-0.838c-0.096-0.338-0.141-0.738-0.141-1.197v-3.859h-0.905c-0.106,0-0.187-0.064-0.246-0.199
			c-0.059-0.135-0.08-0.354-0.08-0.66c0-0.166,0.005-0.305,0.021-0.416c0.011-0.113,0.035-0.201,0.059-0.268
			c0.032-0.061,0.064-0.111,0.107-0.139c0.043-0.027,0.091-0.043,0.149-0.043h0.895v-1.676c0-0.059,0.013-0.107,0.045-0.154
			c0.032-0.043,0.09-0.08,0.17-0.113c0.083-0.031,0.192-0.053,0.331-0.066c0.136-0.014,0.304-0.021,0.513-0.021
			c0.208,0,0.382,0.006,0.515,0.021c0.139,0.014,0.248,0.035,0.326,0.066c0.077,0.033,0.136,0.07,0.168,0.113
			c0.038,0.047,0.054,0.096,0.054,0.154v1.68h1.639c0.059,0,0.107,0.012,0.149,0.041c0.043,0.029,0.075,0.076,0.107,0.143
			c0.027,0.064,0.048,0.148,0.062,0.268c0.013,0.111,0.019,0.248,0.019,0.41c0,0.311-0.027,0.531-0.08,0.662
			c-0.056,0.133-0.142,0.199-0.246,0.199h-1.649v3.537c0,0.412,0.064,0.721,0.192,0.924c0.134,0.205,0.363,0.311,0.694,0.311
			c0.112,0,0.213-0.012,0.304-0.033c0.088-0.016,0.171-0.043,0.24-0.066s0.128-0.051,0.176-0.066c0.048-0.021,0.09-0.031,0.13-0.031
			c0.035,0,0.067,0.01,0.096,0.031c0.032,0.016,0.056,0.059,0.072,0.117c0.019,0.057,0.032,0.139,0.048,0.24
			C45.976,78.715,45.981,78.844,45.981,79.004z"/>
		<path fill="#518E7A" d="M54.064,79.594c0.048,0.096,0.063,0.172,0.059,0.234c0,0.061-0.043,0.115-0.118,0.152
			c-0.08,0.043-0.2,0.066-0.362,0.08c-0.169,0.016-0.385,0.021-0.651,0.021c-0.257,0-0.459,0-0.614-0.012
			c-0.154-0.01-0.277-0.025-0.363-0.051c-0.085-0.023-0.152-0.055-0.191-0.094c-0.043-0.037-0.075-0.08-0.097-0.139l-1.393-2.674
			l-1.396,2.674c-0.024,0.059-0.056,0.102-0.094,0.139c-0.037,0.039-0.096,0.07-0.181,0.094c-0.08,0.025-0.192,0.041-0.342,0.051
			c-0.144,0.006-0.336,0.012-0.571,0.012c-0.251,0-0.448-0.006-0.593-0.021c-0.146-0.014-0.253-0.041-0.32-0.08
			c-0.066-0.037-0.101-0.092-0.106-0.152c0-0.063,0.024-0.139,0.075-0.234l2.082-3.709l-1.922-3.475
			c-0.054-0.102-0.078-0.188-0.08-0.256c-0.003-0.072,0.032-0.129,0.104-0.166c0.072-0.039,0.189-0.07,0.353-0.086
			c0.163-0.016,0.376-0.021,0.654-0.021c0.246,0,0.443,0.006,0.595,0.012c0.147,0.01,0.264,0.021,0.35,0.039
			c0.083,0.018,0.149,0.047,0.182,0.078c0.042,0.039,0.075,0.086,0.102,0.141l1.345,2.516l1.332-2.516
			c0.016-0.045,0.046-0.084,0.071-0.119c0.038-0.033,0.092-0.059,0.166-0.082c0.069-0.021,0.171-0.041,0.299-0.051
			c0.126-0.012,0.299-0.018,0.516-0.018c0.248,0,0.445,0.006,0.595,0.018c0.152,0.01,0.257,0.037,0.326,0.074
			c0.062,0.043,0.091,0.096,0.088,0.166c-0.003,0.068-0.035,0.162-0.096,0.273l-1.874,3.42L54.064,79.594z"/>
		<path fill="#518E7A" d="M59.92,79.004c0,0.248-0.01,0.438-0.045,0.568c-0.032,0.131-0.072,0.227-0.123,0.279
			c-0.051,0.051-0.125,0.102-0.224,0.145c-0.099,0.041-0.214,0.08-0.345,0.107c-0.134,0.031-0.277,0.055-0.433,0.074
			c-0.154,0.016-0.31,0.021-0.467,0.021c-0.419,0-0.787-0.053-1.097-0.16c-0.308-0.107-0.566-0.273-0.767-0.496
			c-0.203-0.219-0.354-0.502-0.448-0.838c-0.097-0.338-0.142-0.738-0.142-1.197v-3.859h-0.907c-0.107,0-0.188-0.064-0.246-0.199
			c-0.056-0.135-0.08-0.354-0.08-0.66c0-0.166,0.006-0.305,0.021-0.416c0.014-0.113,0.035-0.201,0.059-0.268
			c0.032-0.061,0.064-0.111,0.107-0.139c0.045-0.027,0.09-0.043,0.149-0.043h0.896v-1.676c0-0.059,0.011-0.107,0.045-0.154
			c0.03-0.043,0.089-0.08,0.169-0.113c0.082-0.031,0.191-0.053,0.331-0.066c0.139-0.014,0.307-0.021,0.512-0.021
			c0.209,0,0.382,0.006,0.519,0.021c0.139,0.014,0.245,0.035,0.322,0.066c0.08,0.033,0.137,0.07,0.171,0.113
			c0.035,0.047,0.051,0.096,0.051,0.154v1.68h1.64c0.059,0,0.106,0.012,0.149,0.041c0.042,0.029,0.074,0.076,0.106,0.143
			c0.026,0.064,0.048,0.148,0.064,0.268c0.01,0.111,0.016,0.248,0.016,0.41c0,0.311-0.026,0.531-0.08,0.662
			c-0.054,0.133-0.139,0.199-0.246,0.199H57.95v3.537c0,0.412,0.067,0.721,0.195,0.924c0.131,0.205,0.36,0.311,0.691,0.311
			c0.114,0,0.216-0.012,0.304-0.033c0.091-0.016,0.171-0.043,0.24-0.066s0.131-0.051,0.177-0.066
			c0.051-0.021,0.091-0.031,0.133-0.031c0.035,0,0.064,0.01,0.097,0.031c0.032,0.016,0.056,0.059,0.069,0.117
			c0.019,0.057,0.032,0.139,0.048,0.24C59.915,78.715,59.92,78.844,59.92,79.004z"/>
	</g>
</g>
</svg>
