<?xml version="1.0" encoding="utf-8"?>
<!-- Generator: Adobe Illustrator 16.0.0, SVG Export Plug-In . SVG Version: 6.00 Build 0)  -->
<!DOCTYPE svg PUBLIC "-//W3C//DTD SVG 1.1//EN" "http://www.w3.org/Graphics/SVG/1.1/DTD/svg11.dtd">
<svg version="1.1" id="new" xmlns="http://www.w3.org/2000/svg" xmlns:xlink="http://www.w3.org/1999/xlink" x="0px" y="0px"
	 width="729.07px" height="405.04px" viewBox="-11.705 15.296 729.07 405.04" enable-background="new -11.705 15.296 729.07 405.04"
	 xml:space="preserve">
<g>
	<path fill-rule="evenodd" clip-rule="evenodd" fill="#8B5F3C" d="M152.783,322.892c8.397-16.407,16.826-32.809,25.187-49.222
		c13.505-26.515,26.952-53.04,40.454-79.555c4.92-9.662,15.479-14.238,33.22-14.243c104.484-0.028,208.973-0.021,313.459-0.026
		c3.104,0,6.208,0,10.916,0c-7.565-7.189-17.661-10.42-30.163-11.431c-4.28-0.347-8.689-0.227-13.041-0.228
		c-61.82-0.011-123.643-0.097-185.462,0.104c-8.438,0.027-10.854-1.363-10.81-6.168c0.143-15.75-17.653-26.014-45-26.154
		c-31.635-0.162-63.272-0.145-94.91-0.047c-26.677,0.081-44.945,10.429-44.993,25.771c-0.17,53.643-0.067,107.286-0.067,160.929
		C151.977,322.712,152.378,322.802,152.783,322.892z"/>
	<g>
		<g>
			<g>
				<rect x="236.228" y="112.189" fill="#43836F" width="107.02" height="136.62"/>
			</g>
			<g>
				<g>
					<rect x="231.674" y="107.633" fill="#FFFFFF" width="107.018" height="136.62"/>
				</g>
			</g>
			<g>
				<rect x="284.045" y="107.633" fill="#F5F5F5" width="54.646" height="136.62"/>
			</g>
			<g>
				<g>
					<path fill="#43836F" d="M252.058,127.958c0,0.238-0.01,0.428-0.031,0.566c-0.018,0.135-0.049,0.234-0.094,0.294
						c-0.045,0.058-0.098,0.083-0.158,0.077c-0.063-0.006-0.139-0.033-0.236-0.077l-7.492-3.731
						c-0.092-0.051-0.156-0.159-0.199-0.329c-0.045-0.165-0.064-0.414-0.064-0.747c0-0.168,0.006-0.315,0.02-0.443
						c0.012-0.127,0.029-0.23,0.049-0.312c0.018-0.081,0.049-0.146,0.08-0.196c0.039-0.047,0.078-0.087,0.125-0.11l7.48-3.711
						c0.189-0.092,0.324-0.073,0.4,0.055c0.08,0.126,0.119,0.384,0.119,0.776c0,0.266-0.004,0.479-0.018,0.635
						c-0.008,0.155-0.027,0.279-0.051,0.37c-0.025,0.091-0.063,0.155-0.109,0.193c-0.045,0.04-0.107,0.077-0.184,0.119l-5.626,2.636
						l5.519,2.561c0.098,0.044,0.178,0.091,0.236,0.135c0.064,0.046,0.111,0.118,0.145,0.209c0.033,0.097,0.055,0.221,0.068,0.382
						C252.052,127.467,252.058,127.684,252.058,127.958z"/>
				</g>
				<g>
					<path fill="#43836F" d="M261.538,120.007c0,0.532-0.078,1.016-0.23,1.445s-0.367,0.802-0.645,1.114
						c-0.275,0.313-0.607,0.565-0.996,0.754c-0.389,0.189-0.816,0.31-1.285,0.361l-0.078,1.903
						c-0.006,0.118-0.096,0.205-0.275,0.265c-0.182,0.057-0.439,0.09-0.777,0.09c-0.213,0-0.395-0.005-0.541-0.016
						c-0.148-0.01-0.264-0.027-0.348-0.054c-0.084-0.025-0.145-0.062-0.186-0.106c-0.039-0.047-0.063-0.103-0.07-0.176l-0.086-2.303
						c-0.006-0.211,0-0.378,0.029-0.509c0.027-0.13,0.072-0.235,0.143-0.312c0.064-0.077,0.154-0.131,0.26-0.162
						c0.104-0.03,0.227-0.046,0.371-0.046h0.135c0.346,0,0.643-0.056,0.896-0.165c0.25-0.111,0.461-0.258,0.621-0.441
						c0.162-0.181,0.281-0.395,0.355-0.644c0.078-0.246,0.113-0.512,0.113-0.788c0-0.313-0.047-0.6-0.133-0.861
						c-0.088-0.259-0.221-0.484-0.4-0.673c-0.18-0.189-0.404-0.332-0.674-0.435c-0.271-0.104-0.588-0.151-0.951-0.151
						c-0.332,0-0.623,0.032-0.879,0.099c-0.252,0.064-0.471,0.137-0.652,0.213c-0.184,0.078-0.332,0.15-0.457,0.215
						c-0.119,0.065-0.209,0.099-0.277,0.099c-0.045,0-0.088-0.014-0.127-0.046c-0.039-0.029-0.072-0.082-0.098-0.162
						c-0.027-0.077-0.047-0.188-0.064-0.332c-0.016-0.144-0.025-0.326-0.025-0.547c0-0.228,0.008-0.393,0.029-0.498
						c0.02-0.104,0.063-0.189,0.129-0.252c0.064-0.066,0.188-0.144,0.371-0.23c0.182-0.087,0.4-0.168,0.656-0.244
						c0.254-0.076,0.537-0.139,0.852-0.191c0.311-0.051,0.635-0.078,0.975-0.078c0.768,0,1.426,0.106,1.973,0.318
						c0.549,0.213,0.998,0.496,1.344,0.854c0.348,0.359,0.604,0.767,0.766,1.233C261.454,119.006,261.538,119.495,261.538,120.007z
						 M258.648,128.375c0,0.269-0.023,0.492-0.064,0.674c-0.043,0.182-0.117,0.329-0.227,0.44c-0.105,0.109-0.252,0.189-0.43,0.238
						c-0.178,0.05-0.396,0.072-0.658,0.072c-0.273,0-0.498-0.025-0.674-0.072c-0.174-0.048-0.316-0.13-0.426-0.238
						c-0.107-0.111-0.182-0.259-0.227-0.44s-0.064-0.405-0.064-0.674c0-0.272,0.02-0.502,0.064-0.687
						c0.043-0.185,0.115-0.335,0.227-0.45c0.105-0.113,0.248-0.195,0.426-0.242c0.176-0.047,0.4-0.072,0.674-0.072
						c0.26,0,0.48,0.025,0.658,0.072c0.18,0.047,0.324,0.131,0.43,0.242c0.105,0.115,0.184,0.265,0.227,0.45
						C258.624,127.875,258.648,128.102,258.648,128.375z"/>
				</g>
				<g>
					<path fill="#43836F" d="M272.348,124.842c0,0.774-0.084,1.475-0.25,2.096c-0.162,0.623-0.404,1.15-0.725,1.587
						c-0.32,0.438-0.717,0.772-1.191,1.009c-0.475,0.234-1.018,0.35-1.633,0.35c-0.252,0-0.484-0.024-0.697-0.072
						c-0.213-0.049-0.416-0.123-0.615-0.225c-0.198-0.103-0.397-0.227-0.591-0.377c-0.193-0.149-0.396-0.325-0.605-0.525v4.1
						c0,0.064-0.02,0.124-0.059,0.176c-0.037,0.053-0.105,0.097-0.201,0.131c-0.094,0.037-0.219,0.064-0.375,0.084
						c-0.154,0.021-0.354,0.03-0.596,0.03c-0.24,0-0.439-0.009-0.594-0.03c-0.156-0.021-0.283-0.047-0.379-0.084
						c-0.096-0.035-0.158-0.078-0.199-0.131c-0.039-0.052-0.059-0.111-0.059-0.176v-12.167c0-0.067,0.018-0.124,0.049-0.172
						c0.031-0.047,0.09-0.089,0.17-0.124c0.082-0.031,0.189-0.057,0.324-0.072s0.301-0.025,0.502-0.025
						c0.197,0,0.361,0.01,0.494,0.025c0.135,0.016,0.242,0.041,0.324,0.072c0.084,0.035,0.141,0.072,0.17,0.124
						c0.031,0.048,0.049,0.104,0.049,0.172v1.023c0.252-0.26,0.502-0.489,0.744-0.687c0.246-0.198,0.496-0.365,0.748-0.499
						c0.257-0.134,0.519-0.231,0.788-0.298c0.268-0.066,0.557-0.099,0.863-0.099c0.639,0,1.182,0.126,1.631,0.376
						c0.451,0.25,0.814,0.594,1.1,1.031c0.281,0.436,0.49,0.944,0.619,1.523C272.285,123.566,272.348,124.186,272.348,124.842z
						 M269.793,125.017c0-0.37-0.029-0.726-0.086-1.071c-0.055-0.341-0.152-0.646-0.283-0.912c-0.137-0.267-0.311-0.48-0.527-0.64
						s-0.492-0.239-0.816-0.239c-0.164,0-0.326,0.027-0.482,0.074c-0.158,0.047-0.324,0.129-0.487,0.239
						c-0.166,0.108-0.34,0.252-0.514,0.428s-0.361,0.394-0.559,0.653v2.873c0.346,0.434,0.676,0.771,0.986,1.01
						c0.312,0.24,0.638,0.355,0.978,0.355c0.32,0,0.59-0.081,0.814-0.243c0.225-0.163,0.41-0.374,0.555-0.641
						c0.143-0.263,0.246-0.563,0.316-0.896C269.756,125.682,269.793,125.349,269.793,125.017z"/>
				</g>
				<g>
					<path fill="#43836F" d="M282.631,129.323c0,0.066-0.021,0.125-0.061,0.172c-0.039,0.048-0.1,0.092-0.193,0.121
						c-0.092,0.033-0.217,0.059-0.377,0.074s-0.357,0.025-0.59,0.025c-0.24,0-0.443-0.01-0.602-0.025s-0.285-0.041-0.373-0.074
						c-0.094-0.031-0.158-0.072-0.197-0.121c-0.041-0.05-0.063-0.104-0.063-0.172v-4.971c0-0.424-0.027-0.755-0.092-0.998
						c-0.066-0.24-0.152-0.447-0.268-0.62c-0.117-0.171-0.27-0.306-0.455-0.399c-0.184-0.096-0.402-0.142-0.648-0.142
						c-0.314,0-0.627,0.112-0.947,0.341c-0.32,0.227-0.652,0.561-1,0.998v5.79c0,0.065-0.021,0.124-0.059,0.171
						c-0.035,0.048-0.104,0.092-0.199,0.122c-0.098,0.032-0.219,0.058-0.377,0.073c-0.154,0.017-0.355,0.025-0.596,0.025
						c-0.238,0-0.439-0.009-0.594-0.025c-0.158-0.016-0.281-0.041-0.379-0.073c-0.096-0.032-0.158-0.072-0.199-0.122
						c-0.039-0.047-0.057-0.104-0.057-0.171v-12.843c0-0.064,0.018-0.123,0.057-0.175c0.041-0.05,0.104-0.098,0.199-0.132
						c0.098-0.037,0.221-0.064,0.379-0.085c0.154-0.018,0.355-0.028,0.594-0.028c0.24,0,0.438,0.008,0.596,0.028
						s0.281,0.047,0.377,0.085c0.094,0.035,0.164,0.08,0.199,0.132c0.037,0.052,0.059,0.11,0.059,0.175v4.816
						c0.426-0.417,0.855-0.728,1.295-0.934c0.439-0.203,0.896-0.307,1.375-0.307c0.59,0,1.09,0.099,1.496,0.294
						c0.408,0.194,0.736,0.463,0.984,0.802c0.25,0.336,0.428,0.731,0.545,1.186c0.105,0.453,0.164,1,0.164,1.646L282.631,129.323
						L282.631,129.323z"/>
				</g>
				<g>
					<path fill="#43836F" d="M293.815,124.842c0,0.774-0.086,1.475-0.25,2.096c-0.162,0.623-0.408,1.15-0.729,1.587
						c-0.316,0.438-0.717,0.772-1.189,1.009c-0.475,0.234-1.018,0.35-1.629,0.35c-0.254,0-0.484-0.024-0.701-0.072
						c-0.209-0.049-0.416-0.123-0.613-0.225c-0.195-0.103-0.396-0.227-0.59-0.377c-0.197-0.149-0.4-0.325-0.605-0.525v4.1
						c0,0.064-0.02,0.124-0.059,0.176c-0.039,0.053-0.105,0.097-0.199,0.131c-0.098,0.035-0.221,0.064-0.379,0.084
						c-0.154,0.021-0.355,0.03-0.598,0.03c-0.238,0-0.436-0.009-0.592-0.03c-0.158-0.021-0.281-0.047-0.375-0.084
						c-0.096-0.035-0.164-0.078-0.203-0.131c-0.037-0.052-0.057-0.111-0.057-0.176v-12.167c0-0.067,0.016-0.124,0.047-0.172
						c0.031-0.047,0.09-0.089,0.172-0.124c0.084-0.031,0.189-0.057,0.324-0.072c0.133-0.016,0.301-0.025,0.504-0.025
						c0.195,0,0.359,0.01,0.494,0.025c0.133,0.016,0.24,0.041,0.322,0.072c0.084,0.035,0.139,0.072,0.172,0.124
						c0.031,0.048,0.047,0.104,0.047,0.172v1.023c0.252-0.26,0.504-0.489,0.748-0.687c0.242-0.198,0.492-0.365,0.746-0.499
						c0.256-0.134,0.518-0.231,0.787-0.298c0.268-0.066,0.557-0.099,0.865-0.099c0.639,0,1.18,0.126,1.629,0.376
						s0.814,0.594,1.098,1.031c0.287,0.436,0.49,0.944,0.621,1.523C293.756,123.569,293.815,124.186,293.815,124.842z
						 M291.256,125.017c0-0.37-0.031-0.726-0.086-1.071c-0.053-0.341-0.148-0.646-0.285-0.912c-0.133-0.267-0.309-0.48-0.525-0.64
						c-0.219-0.159-0.49-0.239-0.816-0.239c-0.162,0-0.326,0.027-0.482,0.074c-0.16,0.047-0.324,0.129-0.486,0.239
						c-0.166,0.108-0.338,0.252-0.514,0.428s-0.359,0.394-0.557,0.653v2.873c0.342,0.434,0.674,0.771,0.984,1.01
						c0.313,0.24,0.637,0.355,0.977,0.355c0.32,0,0.594-0.081,0.816-0.243c0.225-0.163,0.408-0.374,0.553-0.641
						c0.145-0.263,0.248-0.563,0.318-0.896C291.217,125.682,291.256,125.349,291.256,125.017z"/>
				</g>
			</g>
			<g>
				<g>
					<path fill="#43836F" d="M251.575,223.042c0,0.532-0.078,1.015-0.23,1.444c-0.15,0.43-0.367,0.803-0.645,1.115
						c-0.277,0.313-0.607,0.562-0.996,0.754c-0.389,0.188-0.814,0.307-1.285,0.359l-0.076,1.904c-0.006,0.121-0.1,0.207-0.277,0.264
						s-0.436,0.089-0.775,0.089c-0.215,0-0.393-0.005-0.543-0.019c-0.145-0.01-0.262-0.028-0.348-0.051
						c-0.084-0.025-0.145-0.06-0.186-0.107c-0.039-0.045-0.063-0.104-0.068-0.175l-0.088-2.305c-0.006-0.208,0-0.374,0.029-0.51
						c0.023-0.129,0.07-0.233,0.141-0.311c0.066-0.077,0.152-0.134,0.26-0.162c0.105-0.026,0.229-0.046,0.369-0.046h0.137
						c0.344,0,0.645-0.051,0.895-0.162c0.25-0.113,0.457-0.258,0.621-0.441c0.162-0.18,0.281-0.395,0.355-0.643
						c0.074-0.244,0.113-0.511,0.113-0.792c0-0.312-0.045-0.601-0.133-0.858c-0.088-0.263-0.219-0.486-0.398-0.677
						c-0.182-0.187-0.404-0.331-0.676-0.432c-0.268-0.101-0.588-0.149-0.951-0.149c-0.332,0-0.623,0.029-0.879,0.098
						c-0.252,0.063-0.471,0.139-0.654,0.215c-0.182,0.079-0.332,0.15-0.455,0.217c-0.121,0.063-0.213,0.1-0.277,0.1
						c-0.045,0-0.09-0.02-0.129-0.045c-0.039-0.031-0.074-0.084-0.098-0.164c-0.029-0.075-0.051-0.188-0.064-0.33
						c-0.016-0.145-0.025-0.328-0.025-0.547c0-0.229,0.008-0.395,0.029-0.499c0.02-0.104,0.061-0.19,0.125-0.251
						c0.066-0.063,0.189-0.146,0.373-0.23c0.184-0.09,0.4-0.169,0.656-0.244c0.252-0.075,0.537-0.139,0.85-0.19
						c0.311-0.049,0.639-0.077,0.977-0.077c0.77,0,1.424,0.105,1.975,0.317c0.547,0.212,0.994,0.495,1.341,0.856
						c0.346,0.358,0.602,0.768,0.766,1.23C251.497,222.04,251.575,222.528,251.575,223.042z M248.687,231.412
						c0,0.266-0.021,0.49-0.064,0.672c-0.043,0.181-0.115,0.331-0.227,0.439c-0.105,0.11-0.25,0.19-0.426,0.237
						c-0.178,0.046-0.398,0.072-0.66,0.072c-0.273,0-0.498-0.026-0.674-0.072c-0.176-0.047-0.316-0.132-0.428-0.237
						c-0.107-0.112-0.182-0.259-0.225-0.439c-0.045-0.181-0.064-0.406-0.064-0.672c0-0.278,0.021-0.503,0.064-0.69
						c0.043-0.186,0.113-0.334,0.225-0.448c0.107-0.115,0.25-0.195,0.428-0.241c0.176-0.047,0.4-0.074,0.674-0.074
						c0.258,0,0.479,0.027,0.66,0.074c0.18,0.046,0.324,0.131,0.426,0.241c0.107,0.114,0.182,0.263,0.227,0.448
						C248.664,230.909,248.687,231.133,248.687,231.412z"/>
				</g>
				<g>
					<path fill="#43836F" d="M261.663,227.075c0,0.167-0.006,0.315-0.021,0.439c-0.01,0.121-0.029,0.227-0.053,0.311
						c-0.021,0.086-0.051,0.151-0.086,0.199c-0.035,0.051-0.08,0.088-0.125,0.104l-7.488,3.711
						c-0.092,0.045-0.168,0.064-0.234,0.059c-0.066-0.009-0.119-0.043-0.16-0.109c-0.045-0.062-0.076-0.161-0.092-0.285
						c-0.016-0.129-0.023-0.291-0.023-0.486c0-0.266,0.004-0.48,0.016-0.633c0.006-0.156,0.023-0.281,0.051-0.37
						c0.025-0.093,0.061-0.157,0.105-0.2c0.047-0.045,0.107-0.082,0.188-0.117l5.625-2.632l-5.52-2.559
						c-0.102-0.047-0.186-0.093-0.246-0.137c-0.063-0.048-0.109-0.118-0.145-0.214c-0.035-0.094-0.053-0.221-0.066-0.379
						c-0.01-0.16-0.012-0.377-0.012-0.648c0-0.238,0.006-0.428,0.025-0.567c0.016-0.138,0.045-0.233,0.088-0.294
						c0.043-0.059,0.096-0.086,0.164-0.076c0.063,0.004,0.141,0.033,0.232,0.076l7.498,3.74c0.086,0.041,0.15,0.145,0.199,0.313
						C261.636,226.495,261.663,226.745,261.663,227.075z"/>
				</g>
			</g>
			<g>
				<rect x="243.058" y="139.513" fill="#6B6D6B" width="50.094" height="2.278"/>
			</g>
			<g>
				<rect x="284.045" y="139.513" fill="#848484" width="9.107" height="2.278"/>
			</g>
			<g>
				<rect x="243.058" y="146.342" fill="#6B6D6B" width="20.492" height="2.277"/>
			</g>
			<g>
				<rect x="243.058" y="153.174" fill="#6B6D6B" width="25.045" height="2.278"/>
			</g>
			<g>
				<rect x="243.058" y="160.006" fill="#6B6D6B" width="36.43" height="2.276"/>
			</g>
			<g>
				<rect x="254.445" y="166.837" fill="#6B6D6B" width="63.755" height="2.276"/>
			</g>
			<g>
				<rect x="284.045" y="166.837" fill="#848484" width="34.152" height="2.276"/>
			</g>
			<g>
				<rect x="254.445" y="173.667" fill="#6B6D6B" width="34.153" height="2.279"/>
			</g>
			<g>
				<rect x="284.045" y="173.667" fill="#848484" width="4.553" height="2.279"/>
			</g>
			<g>
				<rect x="254.445" y="180.497" fill="#6B6D6B" width="47.817" height="2.279"/>
			</g>
			<g>
				<rect x="284.045" y="180.497" fill="#848484" width="18.215" height="2.279"/>
			</g>
			<g>
				<rect x="243.058" y="187.329" fill="#6B6D6B" width="70.588" height="2.276"/>
			</g>
			<g>
				<rect x="284.045" y="187.329" fill="#848484" width="29.602" height="2.276"/>
			</g>
			<g>
				<rect x="243.058" y="194.162" fill="#6B6D6B" width="84.249" height="2.274"/>
			</g>
			<g>
				<rect x="284.045" y="194.162" fill="#848484" width="43.264" height="2.274"/>
			</g>
			<g>
				<rect x="254.445" y="200.993" fill="#6B6D6B" width="38.708" height="2.275"/>
			</g>
			<g>
				<rect x="284.045" y="200.993" fill="#848484" width="9.107" height="2.275"/>
			</g>
			<g>
				<rect x="243.058" y="207.823" fill="#6B6D6B" width="45.538" height="2.277"/>
			</g>
			<g>
				<rect x="284.045" y="207.823" fill="#848484" width="4.553" height="2.277"/>
			</g>
		</g>
		<g>
			<path fill="#518E7A" d="M339.479,245.042H230.886V106.846h108.592V245.042z M232.461,243.466h105.444V108.421H232.461V243.466z"
				/>
		</g>
	</g>
	<g>
		<circle fill-rule="evenodd" clip-rule="evenodd" fill="#FFFFFF" cx="579.827" cy="166.697" r="100.088"/>
		<g>
			<g>
				<path fill-rule="evenodd" clip-rule="evenodd" fill="#464342" d="M680.527,171.862c-0.389,3.105-0.729,6.218-1.176,9.315
					c-2.924,20.299-11.355,38.057-25.135,53.169c-15.77,17.296-35.283,28.151-58.439,31.684
					c-30.445,4.643-57.738-3.016-81.271-22.955c-18.033-15.277-29.123-34.792-33.586-58.013c-0.689-3.589-0.928-7.267-1.389-10.901
					c-0.1-0.771-0.268-1.534-0.404-2.3c0-3.409,0-6.819,0-10.228c0.137-0.768,0.301-1.527,0.404-2.298
					c0.492-3.762,0.771-7.563,1.486-11.279c4.484-23.307,15.863-42.658,33.887-58.035c14.543-12.41,31.354-19.998,50.295-22.773
					c3.162-0.464,6.342-0.802,9.514-1.199c3.41,0,6.818,0,10.229,0c0.764,0.136,1.523,0.31,2.295,0.397
					c2.861,0.326,5.75,0.477,8.586,0.953c21.166,3.568,39.504,12.797,54.734,27.93c15.883,15.777,25.547,34.79,28.795,56.99
					c0.453,3.095,0.787,6.209,1.176,9.314C680.527,165.042,680.527,168.453,680.527,171.862z M579.773,262.89
					c53.014,0.07,96.139-43.014,96.186-96.09c0.049-53.055-42.969-96.124-96.078-96.196c-53.012-0.069-96.148,43.021-96.186,96.088
					C483.656,219.736,526.687,262.823,579.773,262.89z"/>
			</g>
			<g>
				<path fill-rule="evenodd" clip-rule="evenodd" fill="#464342" d="M637.45,102.737c-8.418,1.205-13.104,5.101-14.631,12.206
					c-1.055,4.908,0.152,9.515,2.43,13.841c1.674,3.184,3.543,6.269,5.4,9.351c4.834,8.019,8.197,16.572,7.211,26.042
					c-0.617,5.934-2.182,11.821-3.816,17.589c-3.369,11.891-7.068,23.689-10.637,35.524c-0.094,0.309-0.238,0.603-0.52,1.306
					c-10.389-30.898-20.66-61.452-30.982-92.153c3.275-0.322,6.318-0.597,9.355-0.927c2.357-0.254,3.777-1.746,3.695-3.785
					c-0.09-2.186-1.65-3.541-4.139-3.455c-8.576,0.293-17.152,0.839-25.729,0.876c-6.543,0.028-13.088-0.597-19.633-0.871
					c-2.455-0.103-3.951,1.308-4.008,3.565c-0.053,2.044,1.135,3.398,3.311,3.65c2.535,0.293,5.076,0.576,7.623,0.737
					c1.004,0.062,1.479,0.396,1.822,1.345c4.16,11.504,8.375,22.987,12.531,34.494c0.225,0.619,0.26,1.444,0.053,2.063
					c-6.008,18.124-12.057,36.232-18.105,54.344c-0.061,0.183-0.168,0.351-0.395,0.816c-10.447-31.066-20.814-61.906-31.221-92.855
					c3.252-0.316,6.301-0.589,9.346-0.919c2.43-0.263,3.879-1.863,3.688-3.971c-0.193-2.108-1.689-3.37-4.104-3.269
					c-6.939,0.291-13.875,0.667-20.813,0.954c-2.283,0.096-4.572,0.016-7.436,0.016c13.547-19.58,31.357-32.008,54.137-36.888
					C590.706,76.191,619.025,85.447,637.45,102.737z"/>
			</g>
			<g>
				<path fill-rule="evenodd" clip-rule="evenodd" fill="#464342" d="M608.234,248.23c-17.436,5.91-34.826,6.296-52.686,1.333
					c8.561-24.874,17.072-49.614,25.586-74.355c0.141-0.011,0.283-0.019,0.422-0.031
					C590.421,199.453,599.284,223.726,608.234,248.23z"/>
			</g>
			<g>
				<path fill-rule="evenodd" clip-rule="evenodd" fill="#464342" d="M541.872,244.071c-44.41-21.384-58.65-74.111-40.846-111.919
					C514.648,169.479,528.216,206.652,541.872,244.071z"/>
			</g>
			<g>
				<path fill-rule="evenodd" clip-rule="evenodd" fill="#464342" d="M655.845,126.155c21.018,38.505,9.16,90.602-32.24,114.813
					c0.234-0.771,0.389-1.35,0.582-1.911c9.398-27.125,18.838-54.235,28.176-81.38C655.837,147.574,657.009,137.162,655.845,126.155
					z"/>
			</g>
		</g>
	</g>
	<g>
		<g>
			<g>
				<rect x="349.298" y="99.769" fill="#43836F" width="130.812" height="167.318"/>
			</g>
			<g>
				<g>
					<rect x="343.215" y="93.686" fill="#FFFFFF" width="130.809" height="167.317"/>
				</g>
			</g>
			<g>
				<rect x="407.1" y="93.686" fill="#F5F5F5" width="66.924" height="167.317"/>
			</g>
			<g>
				<g>
					<path fill="#43836F" d="M368.037,119.906c0,0.292-0.013,0.522-0.04,0.691c-0.021,0.167-0.063,0.287-0.11,0.356
						c-0.051,0.068-0.114,0.104-0.194,0.096c-0.075-0.008-0.17-0.041-0.289-0.096l-9.124-4.541c-0.11-0.063-0.191-0.198-0.245-0.399
						c-0.051-0.201-0.076-0.508-0.076-0.909c0-0.203,0.005-0.386,0.023-0.542c0.015-0.154,0.036-0.279,0.062-0.379
						c0.021-0.099,0.055-0.178,0.101-0.237c0.044-0.06,0.092-0.106,0.15-0.136l9.112-4.521c0.226-0.114,0.392-0.087,0.484,0.064
						c0.096,0.153,0.144,0.468,0.144,0.945c0,0.325-0.004,0.581-0.02,0.772c-0.012,0.193-0.034,0.342-0.065,0.45
						c-0.031,0.113-0.078,0.191-0.13,0.238c-0.058,0.047-0.129,0.098-0.225,0.141l-6.852,3.212l6.726,3.114
						c0.117,0.056,0.214,0.114,0.289,0.169c0.072,0.056,0.132,0.139,0.177,0.257c0.039,0.116,0.063,0.27,0.08,0.461
						C368.031,119.311,368.037,119.575,368.037,119.906z"/>
				</g>
				<g>
					<path fill="#43836F" d="M380.917,121.572c0,0.079-0.022,0.149-0.068,0.207c-0.045,0.056-0.126,0.11-0.239,0.15
						c-0.107,0.039-0.261,0.068-0.457,0.085c-0.194,0.021-0.434,0.032-0.72,0.032c-0.292,0-0.534-0.009-0.73-0.032
						c-0.194-0.019-0.348-0.047-0.455-0.085c-0.11-0.042-0.191-0.09-0.239-0.15c-0.048-0.062-0.069-0.128-0.069-0.207v-6.054
						c0-0.515-0.043-0.923-0.115-1.215c-0.075-0.293-0.184-0.541-0.329-0.756c-0.142-0.21-0.323-0.371-0.552-0.487
						c-0.225-0.116-0.49-0.175-0.791-0.175c-0.38,0-0.764,0.14-1.151,0.419c-0.387,0.275-0.794,0.68-1.216,1.211v7.05
						c0,0.081-0.024,0.149-0.07,0.206c-0.044,0.059-0.126,0.112-0.245,0.151c-0.113,0.039-0.267,0.07-0.453,0.087
						c-0.191,0.019-0.433,0.03-0.725,0.03c-0.297,0-0.537-0.008-0.729-0.03c-0.19-0.021-0.342-0.049-0.454-0.087
						c-0.115-0.041-0.194-0.09-0.246-0.151c-0.048-0.059-0.071-0.125-0.071-0.206v-15.64c0-0.077,0.026-0.147,0.071-0.21
						c0.049-0.064,0.127-0.118,0.246-0.163c0.113-0.04,0.267-0.075,0.454-0.099c0.187-0.025,0.432-0.037,0.729-0.037
						c0.292,0,0.533,0.012,0.725,0.037c0.187,0.024,0.342,0.056,0.453,0.099c0.119,0.045,0.194,0.099,0.245,0.163
						c0.049,0.063,0.07,0.133,0.07,0.21v5.863c0.515-0.508,1.043-0.885,1.574-1.135c0.539-0.25,1.094-0.373,1.672-0.373
						c0.721,0,1.332,0.12,1.825,0.356c0.496,0.237,0.897,0.561,1.202,0.974c0.304,0.412,0.524,0.894,0.661,1.446
						c0.137,0.547,0.202,1.217,0.202,2.002v6.51h-0.004V121.572z"/>
				</g>
				<g>
					<path fill="#43836F" d="M389.907,120.523c0,0.352-0.022,0.618-0.066,0.803c-0.043,0.187-0.101,0.316-0.173,0.392
						c-0.073,0.077-0.176,0.145-0.319,0.202c-0.14,0.059-0.301,0.113-0.487,0.156c-0.186,0.041-0.391,0.075-0.605,0.1
						c-0.221,0.025-0.439,0.037-0.664,0.037c-0.591,0-1.108-0.074-1.544-0.222c-0.437-0.151-0.798-0.38-1.077-0.696
						c-0.287-0.314-0.498-0.711-0.635-1.184c-0.137-0.476-0.2-1.037-0.2-1.689v-5.436h-1.272c-0.151,0-0.265-0.095-0.343-0.28
						c-0.081-0.186-0.119-0.499-0.119-0.935c0-0.227,0.008-0.421,0.031-0.581c0.021-0.158,0.048-0.283,0.088-0.374
						c0.041-0.091,0.089-0.154,0.15-0.194c0.061-0.04,0.129-0.062,0.209-0.062h1.262v-2.366c0-0.079,0.021-0.15,0.065-0.217
						c0.041-0.063,0.12-0.115,0.237-0.16c0.113-0.041,0.27-0.072,0.463-0.094c0.192-0.02,0.437-0.031,0.718-0.031
						c0.292,0,0.536,0.009,0.73,0.031c0.196,0.022,0.348,0.051,0.462,0.094c0.108,0.045,0.191,0.097,0.237,0.16
						c0.046,0.066,0.069,0.135,0.069,0.217v2.366h2.309c0.077,0,0.15,0.02,0.206,0.062c0.055,0.041,0.106,0.107,0.147,0.194
						c0.039,0.089,0.073,0.216,0.088,0.374c0.022,0.16,0.033,0.354,0.033,0.581c0,0.438-0.041,0.749-0.121,0.935
						c-0.077,0.185-0.193,0.28-0.345,0.28h-2.317v4.985c0,0.577,0.091,1.012,0.275,1.302c0.185,0.288,0.507,0.437,0.973,0.437
						c0.16,0,0.304-0.015,0.43-0.043c0.128-0.03,0.24-0.062,0.339-0.096c0.095-0.036,0.183-0.066,0.248-0.094
						c0.065-0.028,0.126-0.041,0.185-0.041c0.048,0,0.095,0.011,0.136,0.041c0.043,0.027,0.077,0.082,0.103,0.166
						c0.022,0.087,0.043,0.197,0.063,0.341C389.894,120.119,389.907,120.304,389.907,120.523z"/>
				</g>
				<g>
					<path fill="#43836F" d="M408.944,121.572c0,0.079-0.021,0.149-0.067,0.207c-0.045,0.056-0.125,0.11-0.236,0.15
						c-0.115,0.039-0.263,0.068-0.45,0.085c-0.192,0.021-0.434,0.032-0.729,0.032c-0.301,0-0.547-0.009-0.738-0.032
						c-0.187-0.019-0.342-0.047-0.456-0.085c-0.116-0.042-0.194-0.09-0.239-0.15c-0.041-0.062-0.063-0.128-0.063-0.207v-6.291
						c0-0.357-0.036-0.683-0.102-0.973c-0.067-0.293-0.171-0.544-0.312-0.759c-0.135-0.209-0.313-0.37-0.524-0.485
						c-0.209-0.117-0.461-0.175-0.757-0.175c-0.356,0-0.718,0.14-1.08,0.417c-0.364,0.277-0.761,0.681-1.188,1.213v7.05
						c0,0.078-0.024,0.149-0.068,0.206c-0.046,0.057-0.128,0.111-0.244,0.15c-0.119,0.039-0.272,0.068-0.456,0.085
						c-0.188,0.02-0.43,0.032-0.717,0.032c-0.29,0-0.536-0.009-0.723-0.032c-0.191-0.019-0.345-0.046-0.458-0.085
						c-0.113-0.041-0.194-0.09-0.245-0.15c-0.046-0.061-0.068-0.128-0.068-0.206v-6.29c0-0.357-0.032-0.683-0.104-0.973
						c-0.063-0.293-0.167-0.544-0.304-0.759c-0.132-0.209-0.31-0.37-0.521-0.485c-0.214-0.117-0.461-0.175-0.747-0.175
						c-0.365,0-0.729,0.14-1.096,0.417c-0.367,0.277-0.758,0.681-1.177,1.213v7.05c0,0.078-0.024,0.149-0.074,0.206
						c-0.044,0.057-0.126,0.111-0.245,0.15c-0.113,0.039-0.267,0.068-0.452,0.085c-0.191,0.02-0.433,0.032-0.724,0.032
						c-0.296,0-0.538-0.009-0.727-0.032c-0.193-0.019-0.344-0.046-0.457-0.085c-0.115-0.041-0.197-0.09-0.244-0.15
						c-0.048-0.061-0.071-0.128-0.071-0.206v-10.607c0-0.08,0.02-0.15,0.061-0.207c0.041-0.06,0.113-0.11,0.214-0.149
						c0.099-0.039,0.237-0.068,0.399-0.088c0.161-0.019,0.366-0.031,0.611-0.031c0.253,0,0.467,0.011,0.631,0.031
						c0.167,0.022,0.295,0.046,0.389,0.088c0.09,0.041,0.156,0.089,0.197,0.149c0.038,0.06,0.057,0.126,0.057,0.207v1.225
						c0.587-0.631,1.172-1.109,1.757-1.426c0.583-0.314,1.19-0.473,1.825-0.473c0.438,0,0.826,0.044,1.177,0.135
						c0.351,0.093,0.662,0.223,0.933,0.392c0.276,0.171,0.51,0.374,0.709,0.614c0.198,0.237,0.367,0.505,0.498,0.797
						c0.317-0.341,0.63-0.631,0.936-0.882c0.306-0.247,0.61-0.447,0.904-0.6c0.295-0.154,0.593-0.269,0.892-0.345
						c0.298-0.076,0.602-0.113,0.911-0.113c0.704,0,1.3,0.118,1.781,0.357c0.485,0.235,0.873,0.561,1.171,0.967
						c0.3,0.407,0.509,0.888,0.635,1.431c0.129,0.547,0.194,1.125,0.194,1.739v6.79h-0.017V121.572z"/>
				</g>
				<g>
					<path fill="#43836F" d="M414.881,121.572c0,0.079-0.024,0.149-0.068,0.207c-0.043,0.056-0.126,0.11-0.244,0.15
						c-0.116,0.039-0.268,0.068-0.453,0.085c-0.19,0.021-0.433,0.032-0.727,0.032c-0.291,0-0.531-0.009-0.727-0.032
						c-0.19-0.019-0.344-0.047-0.454-0.085c-0.115-0.042-0.194-0.09-0.246-0.15c-0.048-0.062-0.07-0.128-0.07-0.207v-15.638
						c0-0.08,0.022-0.149,0.07-0.214c0.052-0.062,0.127-0.114,0.246-0.16c0.113-0.042,0.266-0.077,0.454-0.1
						c0.191-0.028,0.436-0.04,0.727-0.04c0.294,0,0.536,0.012,0.727,0.04c0.188,0.023,0.342,0.056,0.453,0.1
						c0.118,0.045,0.194,0.098,0.244,0.16c0.05,0.065,0.068,0.134,0.068,0.214V121.572z"/>
				</g>
				<g>
					<path fill="#43836F" d="M427.668,115.135c0,0.208-0.007,0.383-0.028,0.536c-0.013,0.148-0.037,0.275-0.06,0.379
						c-0.029,0.104-0.066,0.187-0.109,0.242c-0.038,0.059-0.093,0.101-0.147,0.126l-9.126,4.518
						c-0.114,0.056-0.203,0.078-0.287,0.07c-0.076-0.008-0.142-0.053-0.191-0.131c-0.052-0.078-0.092-0.196-0.109-0.35
						c-0.021-0.155-0.03-0.35-0.03-0.589c0-0.324,0.007-0.58,0.02-0.772c0.011-0.191,0.032-0.34,0.06-0.45
						c0.032-0.109,0.075-0.191,0.132-0.243c0.055-0.053,0.131-0.098,0.225-0.136l6.852-3.214l-6.724-3.114
						c-0.126-0.06-0.222-0.114-0.299-0.167c-0.078-0.06-0.133-0.142-0.176-0.259c-0.041-0.115-0.063-0.267-0.075-0.46
						c-0.011-0.194-0.019-0.456-0.019-0.791c0-0.293,0.008-0.524,0.031-0.69c0.018-0.167,0.053-0.284,0.106-0.357
						c0.051-0.069,0.113-0.104,0.198-0.095c0.077,0.007,0.17,0.04,0.285,0.095l9.134,4.557c0.098,0.048,0.185,0.174,0.244,0.379
						C427.63,114.429,427.668,114.73,427.668,115.135z"/>
				</g>
			</g>
			<g>
				<g>
					<path fill="#43836F" d="M368.037,245.388c0,0.293-0.013,0.526-0.04,0.693c-0.021,0.165-0.063,0.287-0.11,0.354
						c-0.051,0.065-0.114,0.102-0.194,0.094c-0.075-0.009-0.17-0.043-0.289-0.094l-9.124-4.544c-0.11-0.063-0.191-0.193-0.245-0.4
						c-0.051-0.199-0.076-0.504-0.076-0.91c0-0.204,0.005-0.386,0.023-0.541c0.015-0.155,0.036-0.282,0.062-0.381
						c0.021-0.095,0.055-0.18,0.101-0.238c0.044-0.059,0.092-0.104,0.15-0.136l9.112-4.518c0.226-0.111,0.392-0.089,0.484,0.066
						c0.096,0.147,0.144,0.47,0.144,0.946c0,0.32-0.004,0.582-0.02,0.771c-0.012,0.192-0.034,0.342-0.065,0.451
						c-0.031,0.114-0.078,0.189-0.13,0.238c-0.058,0.046-0.129,0.095-0.225,0.141l-6.852,3.211l6.726,3.118
						c0.117,0.056,0.214,0.106,0.289,0.165c0.072,0.061,0.132,0.141,0.177,0.257c0.039,0.119,0.063,0.272,0.08,0.464
						C368.031,244.793,368.037,245.052,368.037,245.388z"/>
				</g>
				<g>
					<path fill="#43836F" d="M372.285,250.538c-0.041,0.102-0.093,0.188-0.159,0.249c-0.063,0.066-0.15,0.119-0.265,0.154
						c-0.118,0.041-0.255,0.069-0.427,0.089c-0.176,0.026-0.392,0.032-0.651,0.032c-0.326,0-0.589-0.016-0.798-0.047
						c-0.201-0.033-0.362-0.078-0.467-0.143c-0.106-0.066-0.167-0.146-0.186-0.242c-0.016-0.103,0-0.214,0.049-0.353l7.111-19.968
						c0.033-0.099,0.081-0.187,0.145-0.255c0.063-0.06,0.15-0.119,0.261-0.162c0.112-0.037,0.255-0.063,0.436-0.088
						c0.179-0.021,0.396-0.031,0.649-0.031c0.33,0,0.598,0.02,0.803,0.048c0.2,0.034,0.354,0.08,0.455,0.143
						c0.101,0.061,0.164,0.143,0.179,0.243c0.016,0.102,0.004,0.216-0.037,0.352L372.285,250.538z"/>
				</g>
				<g>
					<path fill="#43836F" d="M391.379,247.052c0,0.082-0.023,0.15-0.071,0.206c-0.043,0.061-0.126,0.114-0.237,0.15
						c-0.11,0.039-0.261,0.07-0.455,0.087c-0.196,0.024-0.436,0.032-0.722,0.032c-0.292,0-0.534-0.007-0.73-0.032
						c-0.2-0.017-0.348-0.048-0.459-0.087c-0.109-0.039-0.189-0.089-0.235-0.15c-0.048-0.061-0.072-0.124-0.072-0.206v-6.053
						c0-0.515-0.041-0.919-0.115-1.208c-0.073-0.298-0.183-0.546-0.325-0.755c-0.14-0.213-0.326-0.375-0.553-0.487
						c-0.225-0.117-0.49-0.175-0.791-0.175c-0.38,0-0.766,0.138-1.154,0.417c-0.386,0.276-0.794,0.679-1.215,1.211v7.05
						c0,0.08-0.025,0.148-0.071,0.204c-0.045,0.06-0.126,0.113-0.244,0.152c-0.114,0.039-0.268,0.068-0.457,0.085
						c-0.186,0.024-0.429,0.031-0.722,0.031c-0.296,0-0.536-0.007-0.729-0.031c-0.191-0.017-0.345-0.049-0.454-0.085
						c-0.114-0.041-0.196-0.089-0.245-0.152c-0.048-0.059-0.069-0.124-0.069-0.204v-15.644c0-0.075,0.024-0.147,0.069-0.208
						c0.049-0.06,0.126-0.118,0.245-0.165c0.115-0.039,0.267-0.072,0.454-0.097c0.187-0.026,0.433-0.038,0.729-0.038
						c0.293,0,0.533,0.012,0.722,0.038c0.192,0.025,0.346,0.056,0.457,0.097c0.115,0.047,0.196,0.097,0.244,0.165
						c0.049,0.061,0.071,0.133,0.071,0.208v5.867c0.517-0.507,1.042-0.886,1.576-1.135c0.536-0.25,1.094-0.374,1.672-0.374
						c0.718,0,1.329,0.121,1.822,0.356c0.495,0.24,0.897,0.563,1.204,0.975c0.302,0.41,0.52,0.89,0.659,1.446
						c0.131,0.551,0.201,1.215,0.201,2L391.379,247.052L391.379,247.052L391.379,247.052z"/>
				</g>
				<g>
					<path fill="#43836F" d="M400.373,246.006c0,0.352-0.021,0.616-0.063,0.806c-0.047,0.187-0.104,0.315-0.178,0.39
						c-0.073,0.075-0.176,0.146-0.317,0.199c-0.139,0.063-0.299,0.114-0.487,0.158c-0.188,0.044-0.389,0.075-0.607,0.099
						c-0.218,0.027-0.438,0.039-0.662,0.039c-0.591,0-1.105-0.075-1.545-0.221c-0.434-0.155-0.796-0.388-1.076-0.701
						c-0.29-0.315-0.496-0.703-0.636-1.184c-0.13-0.473-0.199-1.039-0.199-1.689v-5.432h-1.272c-0.15,0-0.264-0.097-0.345-0.284
						c-0.076-0.189-0.115-0.495-0.115-0.937c0-0.226,0.007-0.424,0.027-0.58c0.022-0.155,0.053-0.284,0.088-0.374
						c0.044-0.092,0.09-0.157,0.15-0.194c0.065-0.037,0.126-0.063,0.207-0.063h1.264v-2.368c0-0.072,0.02-0.146,0.065-0.213
						c0.041-0.061,0.122-0.111,0.235-0.16c0.116-0.041,0.272-0.07,0.467-0.094c0.191-0.02,0.436-0.029,0.717-0.029
						c0.292,0,0.536,0.009,0.73,0.029c0.194,0.024,0.348,0.055,0.459,0.094c0.11,0.049,0.194,0.099,0.239,0.16
						c0.049,0.068,0.071,0.141,0.071,0.213v2.368h2.307c0.08,0,0.147,0.021,0.206,0.063c0.057,0.039,0.107,0.102,0.149,0.194
						c0.041,0.092,0.068,0.219,0.086,0.374c0.021,0.155,0.031,0.354,0.031,0.58c0,0.442-0.041,0.747-0.117,0.937
						c-0.079,0.187-0.194,0.284-0.342,0.284h-2.32v4.983c0,0.577,0.09,1.012,0.273,1.303c0.184,0.291,0.508,0.434,0.974,0.434
						c0.157,0,0.303-0.012,0.43-0.042c0.126-0.031,0.239-0.058,0.337-0.094c0.095-0.037,0.182-0.066,0.246-0.097
						c0.068-0.027,0.129-0.041,0.188-0.041c0.046,0,0.094,0.014,0.135,0.041c0.044,0.031,0.079,0.084,0.101,0.169
						c0.026,0.088,0.046,0.194,0.064,0.337C400.36,245.603,400.373,245.783,400.373,246.006z"/>
				</g>
				<g>
					<path fill="#43836F" d="M419.41,247.052c0,0.082-0.022,0.15-0.063,0.206c-0.051,0.061-0.135,0.114-0.242,0.15
						c-0.11,0.039-0.26,0.07-0.448,0.087c-0.191,0.024-0.433,0.032-0.727,0.032c-0.299,0-0.548-0.007-0.736-0.032
						c-0.188-0.017-0.345-0.048-0.46-0.087c-0.114-0.039-0.194-0.089-0.237-0.15c-0.041-0.061-0.061-0.124-0.061-0.206v-6.289
						c0-0.356-0.035-0.684-0.104-0.973c-0.063-0.298-0.172-0.546-0.306-0.755c-0.135-0.213-0.315-0.375-0.523-0.487
						c-0.21-0.117-0.463-0.175-0.76-0.175c-0.359,0-0.72,0.138-1.078,0.417c-0.367,0.276-0.763,0.679-1.192,1.211v7.05
						c0,0.08-0.024,0.148-0.069,0.204c-0.047,0.06-0.126,0.113-0.246,0.152c-0.115,0.039-0.266,0.068-0.453,0.085
						c-0.193,0.024-0.433,0.031-0.719,0.031c-0.291,0-0.533-0.007-0.72-0.031c-0.192-0.017-0.345-0.049-0.459-0.085
						c-0.114-0.041-0.194-0.089-0.242-0.152c-0.048-0.059-0.07-0.124-0.07-0.204v-6.291c0-0.356-0.037-0.684-0.103-0.973
						c-0.066-0.299-0.168-0.546-0.302-0.755c-0.135-0.211-0.315-0.374-0.525-0.488c-0.214-0.116-0.463-0.174-0.75-0.174
						c-0.361,0-0.728,0.138-1.096,0.417c-0.364,0.276-0.754,0.679-1.176,1.213v7.047c0,0.08-0.025,0.147-0.071,0.207
						c-0.043,0.058-0.126,0.111-0.243,0.15c-0.113,0.039-0.269,0.068-0.458,0.085c-0.188,0.024-0.43,0.031-0.722,0.031
						c-0.295,0-0.533-0.007-0.73-0.031c-0.191-0.017-0.339-0.049-0.453-0.085c-0.11-0.039-0.193-0.09-0.244-0.15
						c-0.047-0.061-0.071-0.126-0.071-0.207V236.44c0-0.078,0.021-0.148,0.062-0.208c0.041-0.058,0.113-0.107,0.213-0.146
						c0.101-0.041,0.235-0.065,0.401-0.087c0.164-0.022,0.365-0.034,0.613-0.034c0.249,0,0.458,0.012,0.629,0.034
						c0.167,0.022,0.293,0.051,0.386,0.087c0.089,0.034,0.154,0.088,0.195,0.146c0.04,0.063,0.06,0.13,0.06,0.208v1.225
						c0.588-0.633,1.171-1.109,1.757-1.427c0.582-0.32,1.192-0.476,1.82-0.476c0.439,0,0.831,0.046,1.181,0.133
						c0.354,0.092,0.658,0.221,0.938,0.394c0.272,0.172,0.508,0.374,0.706,0.614c0.198,0.235,0.365,0.504,0.497,0.795
						c0.318-0.339,0.632-0.633,0.934-0.88c0.311-0.243,0.609-0.442,0.904-0.6c0.297-0.155,0.593-0.27,0.893-0.342
						c0.293-0.075,0.601-0.114,0.908-0.114c0.706,0,1.3,0.119,1.781,0.354c0.487,0.237,0.873,0.565,1.174,0.968
						c0.299,0.41,0.509,0.885,0.635,1.437c0.128,0.548,0.194,1.123,0.194,1.737v6.788h-0.019V247.052z"/>
				</g>
				<g>
					<path fill="#43836F" d="M425.348,247.052c0,0.082-0.021,0.15-0.068,0.206c-0.047,0.061-0.132,0.114-0.243,0.15
						c-0.121,0.039-0.269,0.07-0.456,0.087c-0.191,0.024-0.437,0.032-0.728,0.032c-0.292,0-0.532-0.007-0.726-0.032
						c-0.19-0.017-0.342-0.048-0.453-0.087c-0.114-0.039-0.199-0.089-0.246-0.15c-0.046-0.061-0.068-0.124-0.068-0.206v-15.641
						c0-0.075,0.022-0.148,0.068-0.208c0.047-0.063,0.126-0.119,0.246-0.165c0.118-0.042,0.266-0.073,0.453-0.097
						c0.189-0.027,0.434-0.039,0.726-0.039c0.291,0,0.536,0.012,0.728,0.039c0.19,0.024,0.345,0.056,0.456,0.097
						c0.111,0.046,0.191,0.097,0.243,0.165c0.048,0.061,0.068,0.133,0.068,0.208V247.052z"/>
				</g>
				<g>
					<path fill="#43836F" d="M438.135,240.618c0,0.208-0.009,0.391-0.027,0.538c-0.014,0.148-0.039,0.279-0.063,0.381
						c-0.028,0.099-0.063,0.184-0.104,0.242c-0.044,0.056-0.095,0.097-0.153,0.122l-9.122,4.52
						c-0.113,0.058-0.209,0.074-0.285,0.067c-0.078-0.005-0.146-0.051-0.2-0.128c-0.047-0.078-0.088-0.192-0.106-0.352
						c-0.017-0.155-0.029-0.347-0.029-0.59c0-0.32,0.007-0.582,0.019-0.771c0.011-0.192,0.035-0.339,0.065-0.452
						c0.03-0.106,0.069-0.189,0.13-0.242c0.054-0.051,0.129-0.097,0.226-0.136l6.852-3.211l-6.715-3.115
						c-0.129-0.054-0.229-0.109-0.307-0.167c-0.075-0.054-0.134-0.139-0.172-0.257c-0.041-0.112-0.063-0.272-0.075-0.461
						c-0.013-0.192-0.02-0.454-0.02-0.791c0-0.292,0.007-0.522,0.031-0.689c0.02-0.165,0.054-0.286,0.109-0.356
						c0.047-0.07,0.112-0.102,0.192-0.097c0.079,0.008,0.178,0.042,0.285,0.097l9.134,4.554c0.105,0.049,0.188,0.175,0.242,0.378
						C438.096,239.909,438.135,240.212,438.135,240.618z"/>
				</g>
			</g>
			<g>
				<rect x="358.423" y="133.233" fill="#6B6D6B" width="60.842" height="3.042"/>
			</g>
			<g>
				<rect x="407.1" y="133.233" fill="#848484" width="24.336" height="3.042"/>
			</g>
			<g>
				<rect x="358.423" y="142.36" fill="#6B6D6B" width="45.634" height="3.043"/>
			</g>
			<g>
				<rect x="358.423" y="151.487" fill="#6B6D6B" width="39.548" height="3.042"/>
			</g>
			<g>
				<rect x="358.423" y="157.571" fill="#6B6D6B" width="30.425" height="3.041"/>
			</g>
			<g>
				<rect x="358.423" y="166.695" fill="#6B6D6B" width="73.013" height="3.045"/>
			</g>
			<g>
				<rect x="407.1" y="166.695" fill="#848484" width="24.336" height="3.045"/>
			</g>
			<g>
				<rect x="358.423" y="175.823" fill="#6B6D6B" width="54.757" height="3.043"/>
			</g>
			<g>
				<rect x="407.1" y="175.823" fill="#848484" width="15.211" height="3.043"/>
			</g>
			<g>
				<rect x="358.423" y="184.951" fill="#6B6D6B" width="69.971" height="3.039"/>
			</g>
			<g>
				<rect x="407.1" y="184.951" fill="#848484" width="36.505" height="3.039"/>
			</g>
			<g>
				<rect x="358.423" y="191.032" fill="#6B6D6B" width="63.888" height="3.042"/>
			</g>
			<g>
				<rect x="407.1" y="191.032" fill="#848484" width="15.211" height="3.042"/>
			</g>
			<g>
				<rect x="358.423" y="200.159" fill="#6B6D6B" width="63.888" height="3.042"/>
			</g>
			<g>
				<rect x="407.1" y="200.159" fill="#848484" width="15.211" height="3.042"/>
			</g>
			<g>
				<rect x="370.592" y="209.283" fill="#6B6D6B" width="48.673" height="3.042"/>
			</g>
			<g>
				<rect x="407.1" y="209.283" fill="#848484" width="30.422" height="3.042"/>
			</g>
			<g>
				<rect x="358.423" y="218.41" fill="#6B6D6B" width="54.757" height="3.044"/>
			</g>
			<g>
				<rect x="407.1" y="218.41" fill="#848484" width="18.252" height="3.044"/>
			</g>
		</g>
		<g>
			<path fill="#518E7A" d="M475.004,261.981H342.237V92.708h132.768V261.981z M344.192,260.026h128.855V94.663H344.192V260.026z"/>
		</g>
	</g>
	<g>
		<g>
			<path fill="#9B5C8F" d="M46.665,213.758h188.822c11.949,0,21.622,9.673,21.622,21.624v72.077
				c0,11.949-9.672,21.623-21.623,21.623h-67.714l9.295,22.762l-40.877-22.762H46.76c-11.949,0-21.625-9.672-21.625-21.623v-72.077
				C25.042,223.526,34.714,213.758,46.665,213.758L46.665,213.758z"/>
		</g>
		<g>
			<path fill="#FFFFFF" d="M38.344,233.467c1.32-1.792,3.301-2.735,5.941-2.923c4.809-0.377,7.543,1.886,8.204,6.79
				c2.923,19.709,6.129,36.398,9.523,50.074l20.651-39.324c1.887-3.584,4.243-5.47,7.072-5.658c4.149-0.283,6.696,2.356,7.732,7.92
				c2.357,12.542,5.375,23.198,8.959,32.25c2.451-23.953,6.601-41.208,12.447-51.865c1.414-2.64,3.488-3.96,6.224-4.149
				c2.169-0.188,4.15,0.471,5.94,1.887c1.793,1.414,2.734,3.206,2.924,5.375c0.094,1.698-0.189,3.111-0.943,4.526
				c-3.678,6.79-6.695,18.2-9.146,34.042c-2.357,15.373-3.207,27.348-2.641,35.93c0.188,2.355-0.188,4.43-1.132,6.223
				c-1.131,2.076-2.828,3.205-4.997,3.395c-2.452,0.189-4.998-0.943-7.449-3.488c-8.77-8.959-15.749-22.35-20.84-40.172
				c-6.13,12.07-10.656,21.123-13.578,27.158c-5.564,10.656-10.278,16.125-14.239,16.408c-2.546,0.188-4.716-1.982-6.602-6.508
				c-4.809-12.354-9.995-36.211-15.56-71.572c-0.377-2.451,0.189-4.621,1.51-6.317H38.344z M240.995,248.271
				c-3.395-5.94-8.393-9.524-15.087-10.939c-1.792-0.377-3.489-0.565-5.093-0.565c-9.052,0-16.407,4.715-22.159,14.146
				c-4.903,8.015-7.355,16.88-7.355,26.593c0,7.26,1.509,13.482,4.526,18.67c3.395,5.941,8.393,9.523,15.087,10.939
				c1.792,0.377,3.488,0.564,5.093,0.564c9.146,0,16.501-4.715,22.159-14.145c4.903-8.109,7.355-16.975,7.355-26.686
				C245.616,259.493,244.012,253.364,240.995,248.271z M229.114,274.392c-1.32,6.225-3.679,10.844-7.168,13.957
				c-2.733,2.453-5.28,3.488-7.637,3.018c-2.264-0.471-4.15-2.451-5.564-6.129c-1.131-2.924-1.696-5.848-1.696-8.582
				c0-2.357,0.188-4.715,0.659-6.885c0.85-3.865,2.452-7.637,4.998-11.221c3.112-4.621,6.412-6.507,9.807-5.848
				c2.264,0.473,4.15,2.453,5.563,6.131c1.132,2.924,1.697,5.846,1.697,8.58C229.773,269.866,229.585,272.224,229.114,274.392z
				 M181.965,248.271c-3.396-5.94-8.487-9.524-15.088-10.939c-1.791-0.377-3.488-0.565-5.092-0.565
				c-9.053,0-16.408,4.715-22.16,14.146c-4.903,8.015-7.355,16.88-7.355,26.593c0,7.26,1.509,13.482,4.526,18.67
				c3.396,5.941,8.393,9.523,15.088,10.939c1.791,0.377,3.488,0.564,5.092,0.564c9.146,0,16.501-4.715,22.16-14.145
				c4.903-8.109,7.355-16.975,7.355-26.686C186.491,259.493,184.982,253.364,181.965,248.271L181.965,248.271z M169.989,274.392
				c-1.32,6.225-3.679,10.844-7.168,13.957c-2.733,2.453-5.28,3.488-7.637,3.018c-2.264-0.471-4.15-2.451-5.563-6.129
				c-1.132-2.924-1.697-5.848-1.697-8.582c0-2.357,0.188-4.715,0.659-6.885c0.85-3.865,2.452-7.637,4.997-11.221
				c3.113-4.621,6.413-6.507,9.808-5.848c2.264,0.473,4.15,2.453,5.563,6.131c1.132,2.924,1.697,5.846,1.697,8.58
				C170.743,269.866,170.46,272.224,169.989,274.392z"/>
		</g>
	</g>
	<path fill-rule="evenodd" clip-rule="evenodd" fill="#8B5F3C" d="M152.24,366.127c3.515,0.111,6.339,0.279,9.167,0.28
		c140.232,0.043,280.469,0.051,420.701,0.175c6.092,0.005,8.756-1.299,10.365-4.483c26.424-52.283,53.023-104.537,79.439-156.821
		c4.111-8.138-1.856-12.74-16.489-12.746c-130.944-0.052-261.889-0.055-392.833,0.002c-14.016,0.006-25.22,4.874-29.153,12.575
		c-26.582,52.082-53.03,104.187-79.485,156.289C153.243,362.79,152.909,364.246,152.24,366.127z"/>
</g>
</svg>
