<?xml version="1.0" encoding="utf-8"?>
<!-- Generator: Adobe Illustrator 16.0.0, SVG Export Plug-In . SVG Version: 6.00 Build 0)  -->
<!DOCTYPE svg PUBLIC "-//W3C//DTD SVG 1.1//EN" "http://www.w3.org/Graphics/SVG/1.1/DTD/svg11.dtd">
<svg version="1.1" id="Ebene_1" xmlns="http://www.w3.org/2000/svg" xmlns:xlink="http://www.w3.org/1999/xlink" x="0px" y="0px"
	 width="278.512px" height="260.653px" viewBox="0 0 278.512 260.653" enable-background="new 0 0 278.512 260.653"
	 xml:space="preserve">
<g>
	<path fill="#9B5C8F" d="M34.374,53.666h209.659c13.268,0,24.009,10.741,24.009,24.01v80.03c0,13.27-10.741,24.01-24.01,24.01
		h-75.186l10.319,25.271l-45.386-25.271H34.482c-13.269,0-24.012-10.74-24.012-24.01v-80.03
		C10.366,64.512,21.105,53.666,34.374,53.666L34.374,53.666z"/>
	<path fill="#FFFFFF" d="M25.137,75.549c1.466-1.989,3.665-3.037,6.596-3.246c5.34-0.419,8.376,2.093,9.11,7.539
		c3.246,21.884,6.805,40.416,10.574,55.598l22.93-43.661c2.095-3.979,4.711-6.073,7.853-6.282c4.608-0.314,7.436,2.617,8.586,8.794
		c2.617,13.926,5.968,25.757,9.947,35.809c2.723-26.596,7.33-45.756,13.821-57.588c1.571-2.931,3.874-4.397,6.91-4.607
		c2.409-0.209,4.608,0.523,6.596,2.095c1.991,1.569,3.037,3.56,3.246,5.967c0.104,1.886-0.209,3.455-1.046,5.026
		c-4.083,7.539-7.434,20.208-10.156,37.797c-2.618,17.069-3.562,30.366-2.933,39.893c0.209,2.617-0.208,4.92-1.256,6.91
		c-1.257,2.305-3.141,3.561-5.549,3.77c-2.723,0.209-5.55-1.047-8.271-3.873c-9.738-9.947-17.487-24.814-23.14-44.605
		c-6.806,13.402-11.832,23.455-15.077,30.154c-6.177,11.832-11.413,17.904-15.811,18.219c-2.827,0.209-5.235-2.199-7.33-7.225
		c-5.339-13.717-11.099-40.206-17.276-79.47C23.044,79.842,23.672,77.434,25.137,75.549L25.137,75.549z M250.149,91.988
		c-3.771-6.596-9.318-10.576-16.752-12.146c-1.989-0.419-3.873-0.628-5.654-0.628c-10.052,0-18.219,5.235-24.605,15.706
		c-5.444,8.899-8.167,18.743-8.167,29.526c0,8.062,1.675,14.971,5.026,20.732c3.77,6.596,9.318,10.574,16.751,12.145
		c1.99,0.42,3.874,0.629,5.654,0.629c10.156,0,18.322-5.234,24.605-15.707c5.444-9.004,8.167-18.846,8.167-29.63
		C255.28,104.447,253.5,97.642,250.149,91.988z M236.956,120.991c-1.465,6.91-4.083,12.041-7.958,15.496
		c-3.035,2.723-5.862,3.873-8.479,3.35c-2.514-0.521-4.608-2.721-6.178-6.805c-1.256-3.245-1.884-6.491-1.884-9.527
		c0-2.618,0.209-5.235,0.732-7.644c0.942-4.292,2.722-8.48,5.549-12.459c3.456-5.13,7.12-7.224,10.889-6.492
		c2.514,0.523,4.608,2.723,6.178,6.807c1.256,3.246,1.885,6.492,1.885,9.528C237.689,115.965,237.479,118.583,236.956,120.991z
		 M184.604,91.988c-3.769-6.596-9.422-10.576-16.751-12.146c-1.989-0.419-3.874-0.628-5.654-0.628
		c-10.052,0-18.219,5.235-24.605,15.706c-5.444,8.899-8.167,18.743-8.167,29.526c0,8.062,1.675,14.971,5.026,20.732
		c3.77,6.596,9.318,10.574,16.752,12.145c1.989,0.42,3.873,0.629,5.653,0.629c10.157,0,18.322-5.234,24.606-15.707
		c5.443-9.004,8.166-18.846,8.166-29.63C189.63,104.447,187.955,97.642,184.604,91.988L184.604,91.988z M171.307,120.991
		c-1.465,6.91-4.083,12.041-7.958,15.496c-3.035,2.723-5.863,3.873-8.479,3.35c-2.514-0.521-4.608-2.721-6.177-6.805
		c-1.259-3.245-1.886-6.491-1.886-9.527c0-2.618,0.21-5.235,0.733-7.644c0.941-4.292,2.722-8.48,5.548-12.459
		c3.456-5.13,7.121-7.224,10.89-6.492c2.514,0.523,4.608,2.723,6.177,6.807c1.258,3.246,1.885,6.492,1.885,9.528
		C172.145,115.965,171.83,118.583,171.307,120.991z"/>
</g>
</svg>
