<svg width="278.512" height="261.736" xmlns="http://www.w3.org/2000/svg" version="1.1" enable-background="new 0 0 278.512 261.736" xml:space="preserve">
 <g>
  <title>Layer 1</title>
  <g id="svg_1">
   <g id="svg_2">
    <polygon fill="#bef1e1" points="200.604,163.447 168.928,163.379 103.776,167.244 71.471,165.034 56.896,227.403 219.896,227.403       " id="svg_3"/>
    <path fill="#bef1e1" d="m220.57,227.403l-164.304,0l14.815,-63.164l32.731,2.413l65.085,-3.866l32.077,-0.104l19.596,64.721zm-163.043,-1l161.696,0l-18.99,-62.706l-31.305,0.058l-65.122,3.926l-31.946,-2.398l-14.333,61.12z" id="svg_4"/>
   </g>
   <g id="svg_5">
    <path stroke="#000000" fill="#bef1e1" d="m273.766,204.265c-1.144,-5.865 -5.566,-10.242 -10.991,-11.641l-55.733,-27.735c-7.417,-3.69 -16.422,-0.67 -20.112,6.746c-3.69,7.418 -0.669,16.421 6.747,20.111l18.571,9.241l-19.872,3.879c-8.131,1.588 -13.436,9.467 -11.85,17.596c1.588,8.131 9.465,13.436 17.596,11.849l62.265,-12.152c0.856,-0.106 1.697,-0.294 2.52,-0.544c7.562,-2.011 12.381,-9.557 10.859,-17.35z" id="svg_6"/>
    <path stroke="#000000" fill="#bef1e1" d="m195.232,235.091l0,0c-7.389,0 -13.779,-5.271 -15.198,-12.533c-1.636,-8.388 3.856,-16.544 12.245,-18.183l18.427,-3.597l-17.253,-8.585c-7.651,-3.807 -10.778,-13.13 -6.972,-20.781c2.639,-5.303 7.96,-8.598 13.889,-8.598c2.405,0 4.725,0.548 6.894,1.627l55.687,27.712c5.739,1.501 10.175,6.212 11.307,12.016c1.556,7.967 -3.374,15.842 -11.223,17.929c-0.862,0.263 -1.738,0.451 -2.587,0.557l-62.23,12.147c-0.987,0.192 -1.99,0.289 -2.986,0.289zm5.138,-71.276c-5.546,0 -10.525,3.082 -12.994,8.043c-3.561,7.158 -0.635,15.879 6.522,19.441l19.89,9.897l-21.317,4.161c-7.847,1.532 -12.985,9.162 -11.454,17.009c1.326,6.793 7.305,11.725 14.215,11.725l0.001,0c0.931,0 1.87,-0.091 2.793,-0.271l62.265,-12.152c0.825,-0.104 1.646,-0.28 2.47,-0.531c7.359,-1.957 11.971,-9.323 10.516,-16.775c-1.063,-5.445 -5.232,-9.862 -10.626,-11.252l-0.098,-0.037l-55.733,-27.735c-2.031,-1.011 -4.201,-1.523 -6.45,-1.523z" id="svg_7"/>
   </g>
   <g id="svg_8">
    <g id="svg_9">
     <g id="svg_10">
      <g id="svg_11">
       <path fill="#F9B77A" d="m160.596,224.684c0.881,0.355 1.756,0.65 2.607,0.905c-1.561,2.413 -2.986,5.113 -4.172,8.055c-4.055,10.055 -10.838,23.93 -3.834,24.7c3.53,0.389 6.488,-11.801 9.533,-14.362c4.826,-4.062 6.84,1.36 12.737,2.517c9.262,1.816 12.083,-29.321 4.777,-32.271c-4.001,-1.609 -8.612,3.407 -18.259,2.052c-6.307,-0.89 -11.45,-2.431 -12.385,-0.109c-0.938,2.32 3.091,6.13 8.996,8.513z" id="svg_12"/>
       <path d="m155.363,258.853c0,0 0,0 0,0c-0.073,0 -0.147,-0.004 -0.221,-0.012c-1.304,-0.144 -2.257,-0.711 -2.833,-1.688c-2.111,-3.577 1.356,-11.897 4.71,-19.943c0.536,-1.286 1.062,-2.547 1.548,-3.752c1.067,-2.647 2.365,-5.196 3.862,-7.584c-0.718,-0.229 -1.384,-0.469 -2.021,-0.726c-4.547,-1.835 -8.139,-4.563 -9.151,-6.95c-0.345,-0.813 -0.385,-1.558 -0.119,-2.215c0.554,-1.375 2.14,-1.534 3.284,-1.534c1.537,0 3.521,0.337 5.817,0.727c1.201,0.204 2.482,0.421 3.817,0.609c1.087,0.152 2.173,0.23 3.228,0.23c3.589,0 6.415,-0.894 8.687,-1.612c1.692,-0.535 3.153,-0.997 4.534,-0.997c0.697,0 1.328,0.117 1.927,0.358c4.347,1.755 5.396,12.557 3.65,21.545c-1.548,7.971 -4.87,12.438 -8.711,11.68c-2.286,-0.448 -3.986,-1.497 -5.486,-2.422c-1.367,-0.844 -2.547,-1.572 -3.784,-1.572c-0.97,0 -1.938,0.436 -3.048,1.37c-1.179,0.991 -2.441,3.744 -3.663,6.407c-1.907,4.155 -3.707,8.081 -6.027,8.081zm-0.941,-43.404c-1.784,0 -2.199,0.519 -2.356,0.908c-0.163,0.403 -0.126,0.891 0.111,1.45c0.9,2.122 4.359,4.699 8.606,6.413c0.791,0.319 1.63,0.61 2.563,0.891l0.638,0.19l-0.361,0.56c-1.612,2.493 -3.002,5.175 -4.128,7.97c-0.487,1.21 -1.015,2.474 -1.553,3.764c-3.107,7.455 -6.629,15.904 -4.771,19.051c0.413,0.7 1.094,1.094 2.081,1.202c0.037,0.004 0.074,0.006 0.111,0.006l0,0c1.678,0 3.506,-3.983 5.117,-7.498c1.326,-2.891 2.578,-5.62 3.928,-6.756c1.283,-1.079 2.49,-1.604 3.692,-1.604c1.521,0 2.813,0.798 4.309,1.721c1.429,0.881 3.047,1.879 5.155,2.293c0.227,0.044 0.453,0.066 0.674,0.066c2.92,0 5.55,-4.198 6.862,-10.956c1.636,-8.421 0.788,-18.881 -3.043,-20.427c-1.51,-0.607 -3.426,-0.082 -5.785,0.665c-2.337,0.738 -5.245,1.658 -8.988,1.658c-1.101,0 -2.233,-0.081 -3.367,-0.24c-1.345,-0.189 -2.636,-0.408 -3.845,-0.613c-2.253,-0.384 -4.197,-0.714 -5.65,-0.714z" id="svg_13"/>
      </g>
     </g>
    </g>
    <g id="svg_14">
     <path d="m171.752,244.291l-0.29,-0.958c0.008,-0.002 0.816,-0.264 1.222,-1.084c0.35,-0.708 0.319,-1.639 -0.091,-2.766l0.939,-0.342c0.511,1.403 0.523,2.604 0.038,3.569c-0.605,1.206 -1.769,1.566 -1.818,1.581z" id="svg_15"/>
    </g>
    <g id="svg_16">
     <path d="m174.752,246.291l-0.29,-0.958c0.008,-0.002 0.816,-0.264 1.222,-1.084c0.35,-0.708 0.319,-1.639 -0.091,-2.766l0.939,-0.342c0.511,1.403 0.523,2.604 0.038,3.569c-0.605,1.206 -1.769,1.566 -1.818,1.581z" id="svg_17"/>
    </g>
   </g>
   <g id="svg_18">
    <path stroke="#000000" fill="#bef1e1" d="m86.137,204.867l-19.872,-3.879l18.571,-9.241c7.416,-3.69 10.438,-12.693 6.747,-20.111c-3.69,-7.416 -12.695,-10.437 -20.112,-6.746l-55.733,27.735c-5.425,1.398 -9.847,5.775 -10.991,11.641c-1.522,7.793 3.297,15.339 10.86,17.35c0.823,0.25 1.664,0.438 2.52,0.544l62.265,12.152c8.131,1.587 16.008,-3.718 17.596,-11.849c1.584,-8.13 -3.72,-16.008 -11.851,-17.596z" id="svg_19"/>
    <path stroke="#000000" fill="#bef1e1" d="m83.281,235.091c-0.001,0 0,0 0,0c-0.996,0 -2,-0.098 -2.986,-0.289l-62.265,-12.152c-0.814,-0.101 -1.69,-0.289 -2.57,-0.557c-7.832,-2.082 -12.761,-9.957 -11.205,-17.924c1.132,-5.804 5.567,-10.516 11.306,-12.016l55.687,-27.712c2.169,-1.079 4.488,-1.627 6.894,-1.627c5.928,0 11.25,3.295 13.889,8.598c3.807,7.651 0.679,16.975 -6.972,20.781l-17.252,8.585l18.426,3.597c8.388,1.639 13.881,9.795 12.245,18.183c-1.419,7.262 -7.811,12.533 -15.197,12.533zm-5.139,-71.276c-2.25,0 -4.419,0.512 -6.449,1.521l-55.831,27.772c-5.393,1.39 -9.563,5.807 -10.625,11.252c-1.456,7.452 3.156,14.818 10.498,16.771c0.842,0.256 1.662,0.433 2.453,0.531l62.299,12.157c0.922,0.181 1.863,0.271 2.794,0.271c6.91,0 12.889,-4.931 14.215,-11.725c1.531,-7.847 -3.608,-15.477 -11.455,-17.009l-21.317,-4.161l19.89,-9.897c7.157,-3.563 10.083,-12.283 6.522,-19.441c-2.469,-4.96 -7.448,-8.042 -12.994,-8.042z" id="svg_20"/>
   </g>
   <g id="svg_21">
    <g id="svg_22">
     <g id="svg_23">
      <g id="svg_24">
       <path fill="#F9B77A" d="m117.916,224.684c-0.881,0.355 -1.756,0.65 -2.608,0.905c1.561,2.413 2.987,5.113 4.173,8.055c4.055,10.055 10.837,23.93 3.833,24.7c-3.53,0.389 -6.488,-11.801 -9.533,-14.362c-4.827,-4.062 -6.841,1.36 -12.738,2.517c-9.262,1.816 -12.083,-29.321 -4.777,-32.271c4.001,-1.609 8.612,3.407 18.259,2.052c6.307,-0.89 11.45,-2.431 12.385,-0.109c0.939,2.32 -3.089,6.13 -8.994,8.513z" id="svg_25"/>
       <path d="m123.149,258.853c-2.32,0 -4.121,-3.926 -6.027,-8.082c-1.221,-2.662 -2.484,-5.415 -3.662,-6.406c-1.11,-0.935 -2.079,-1.37 -3.048,-1.37c-1.238,0 -2.418,0.729 -3.785,1.572c-1.5,0.925 -3.2,1.974 -5.486,2.422c-0.29,0.058 -0.582,0.086 -0.867,0.086c0,0 -0.001,0 -0.001,0c-3.531,0 -6.389,-4.285 -7.841,-11.759c-1.748,-8.991 -0.699,-19.797 3.649,-21.552c0.6,-0.241 1.23,-0.358 1.927,-0.358c1.38,0 2.842,0.462 4.534,0.997c2.271,0.719 5.098,1.612 8.687,1.612c1.055,0 2.141,-0.078 3.229,-0.23c1.333,-0.188 2.616,-0.405 3.816,-0.609c2.297,-0.39 4.28,-0.727 5.817,-0.727c1.145,0 2.73,0.159 3.285,1.535c0.536,1.325 -0.192,3.024 -2.051,4.783c-1.743,1.649 -4.307,3.205 -7.22,4.381c-0.639,0.258 -1.305,0.497 -2.021,0.726c1.497,2.387 2.794,4.935 3.863,7.584c0.486,1.204 1.011,2.465 1.547,3.75c3.354,8.047 6.822,16.367 4.71,19.945c-0.576,0.978 -1.529,1.545 -2.833,1.688c-0.075,0.008 -0.149,0.012 -0.222,0.012zm-12.737,-16.858c1.201,0 2.409,0.525 3.692,1.604c1.35,1.136 2.602,3.865 3.927,6.755c1.647,3.593 3.483,7.678 5.229,7.493c0.987,-0.108 1.668,-0.502 2.081,-1.202c1.857,-3.147 -1.665,-11.598 -4.772,-19.053c-0.538,-1.289 -1.064,-2.553 -1.552,-3.762c-1.127,-2.796 -2.517,-5.478 -4.129,-7.97l-0.362,-0.56l0.639,-0.191c0.932,-0.278 1.77,-0.569 2.564,-0.89c2.8,-1.13 5.252,-2.614 6.907,-4.18c1.517,-1.436 2.177,-2.778 1.812,-3.683c-0.157,-0.391 -0.573,-0.909 -2.357,-0.909c-1.452,0 -3.397,0.33 -5.65,0.713c-1.209,0.205 -2.5,0.424 -3.844,0.613c-1.134,0.159 -2.267,0.24 -3.368,0.24c-3.743,0 -6.651,-0.92 -8.988,-1.658c-2.359,-0.746 -4.272,-1.272 -5.786,-0.665c-3.832,1.547 -4.678,12.011 -3.041,20.434c1.313,6.754 3.941,10.949 6.86,10.949c0,0 0,0 0.001,0c0.221,0 0.448,-0.022 0.675,-0.066c2.108,-0.414 3.726,-1.412 5.154,-2.293c1.494,-0.922 2.786,-1.719 4.308,-1.719z" id="svg_26"/>
      </g>
     </g>
    </g>
    <g id="svg_27">
     <path d="m106.76,244.291c-0.049,-0.015 -1.213,-0.375 -1.819,-1.58c-0.485,-0.965 -0.473,-2.166 0.038,-3.569l0.939,0.342c-0.412,1.134 -0.44,2.069 -0.083,2.778c0.408,0.812 1.204,1.068 1.211,1.07l-0.286,0.959z" id="svg_28"/>
    </g>
    <g id="svg_29">
     <path d="m103.76,246.291c-0.049,-0.015 -1.213,-0.375 -1.819,-1.58c-0.485,-0.966 -0.473,-2.166 0.038,-3.569l0.939,0.342c-0.41,1.127 -0.44,2.058 -0.09,2.766c0.405,0.82 1.213,1.082 1.222,1.084l-0.29,0.957z" id="svg_30"/>
    </g>
   </g>
   <g id="svg_31">
    <path fill="#F9B77A" d="m155.978,179.403c0,0 13.998,28.512 -18.813,27.846s-24.09,-27.846 -24.09,-27.846l42.903,0z" id="svg_32"/>
    <path d="m138.281,207.502c-0.371,0 -0.743,-0.004 -1.128,-0.012c-10.636,-0.216 -18.095,-3.219 -22.169,-8.926c-5.911,-8.279 -2.533,-19.236 -2.386,-19.693l0.111,-0.469l43.58,0l0.138,0.4c0.251,0.513 6.094,12.699 0.863,21.092c-3.12,5.009 -9.516,7.608 -19.009,7.608zm-24.83,-28.099c-0.52,2 -2.698,11.399 2.351,18.466c3.881,5.432 11.072,8.353 21.372,8.562c0.377,0.008 0.743,0.042 1.107,0.042c9.123,0 15.232,-2.485 18.159,-7.179c4.518,-7.246 0.056,-17.891 -0.782,-19.891l-42.207,0z" id="svg_33"/>
   </g>
   <g id="svg_34">
    <g id="svg_35">
     <path fill="#F9B77A" d="m153.108,135.311c0,0 32.595,12.033 20.941,30.434s-24.653,8.973 -24.653,8.973l3.712,-39.407z" id="svg_36"/>
     <path d="m157.526,177.632c-4.906,0 -8.282,-2.408 -8.424,-2.511l-0.23,-0.167l0.026,-0.284l3.773,-40.054l0.609,0.226c0.781,0.288 19.164,7.19 23.069,18.734c1.386,4.095 0.754,8.279 -1.878,12.436c-6.081,9.604 -12.572,11.62 -16.945,11.62zm-7.603,-3.166c0.819,0.518 3.733,2.166 7.604,2.166c5.996,0 11.413,-3.753 16.101,-11.155c2.463,-3.889 3.061,-7.784 1.777,-11.579c-3.364,-9.944 -18.61,-16.566 -21.86,-17.879l-3.622,38.447z" id="svg_37"/>
    </g>
    <g id="svg_38">
     <g id="svg_39">
      <path fill="#F9B77A" d="m177.568,80.682c-3.736,-7.303 -6.035,-14.646 -6.139,-21.14c-2.431,-12.874 -12.074,-19.489 -23.779,-17.844c-6.721,0.949 -12.683,3.904 -18.744,6.636c-10.206,4.605 -20.403,6.561 -31.27,1.766c-9.138,-4.032 -15.174,-1.011 -18.393,8.635c-2.299,6.891 -1.992,14.037 -1.647,21.184c0.774,16.336 5.021,32.176 6.86,48.373c0.886,7.809 4.042,15.364 7.919,22.424c1.014,1.857 0.218,6.46 1.912,6.391c0.615,-0.03 4.64,6.709 7.134,6.986c1.091,5.341 6.467,2.24 10.187,6.105c0.076,0.073 0.157,0.16 0.234,0.234c0.144,0.143 0.29,0.297 0.442,0.438c0.439,0.426 0.895,0.819 1.359,1.179c0.111,0.088 0.224,0.177 0.345,0.263c0.245,0.191 0.5,0.375 0.759,0.541c0.337,0.225 0.664,0.419 1,0.604c3.359,1.811 6.363,2.137 9.103,-1.617c2.188,-3 6.15,-2.513 8.825,-1.353c6.621,2.858 10.459,2.624 15.15,-2.704c0.281,-0.318 0.55,-0.633 0.818,-0.955c0.256,-0.324 0.524,-0.646 0.771,-0.967c0.504,-0.66 0.981,-1.328 1.44,-1.998c0.216,-0.324 0.424,-0.646 0.63,-0.975c0.254,-0.434 0.51,-0.866 0.752,-1.301c1.932,-3.475 3.177,-7.275 3.542,-11.414c3.946,-1.098 6.329,-3.711 7.36,-6.799c0.422,0.532 0.913,0.768 1.622,-0.02c0.823,-0.925 1.791,-1.709 2.775,-2.453c0.667,-0.514 1.331,-1.038 1.972,-1.586c0.18,-0.15 0.343,-0.351 0.514,-0.512c0.342,-0.309 0.592,-0.996 0.964,-1.076c0,0 0,0 0.01,-0.002c0.175,-0.039 0.311,-0.262 0.455,-0.446c0.144,-0.185 0.309,-0.28 0.438,-0.483c0.095,-0.133 0.177,-0.272 0.258,-0.414c0.178,-0.281 0.328,-0.571 0.466,-0.887c3.242,-7.299 15.709,-1.697 15.438,-10.152c-0.124,-4.035 5.525,-28.507 4.589,-32.456c-1.576,-6.646 -13.003,-6.224 -16.071,-12.205z" id="svg_40"/>
     </g>
    </g>
    <g id="svg_41">
     <g id="svg_42">
      <path fill="#F9B77A" d="m103.609,155.196c-2.493,-0.278 -4.679,-1.384 -6.263,-2.985c-0.202,0.237 -0.404,0.363 -1.402,0.478l4.307,19.959l11.357,-2.451c-3.719,-3.862 -6.905,-9.662 -7.999,-15.001z" id="svg_43"/>
     </g>
    </g>
    <g id="svg_44">
     <g id="svg_45">
      <path fill="#F9B77A" d="m165.546,143.417c-0.708,0.785 -0.981,0.497 -1.405,-0.035c-1.031,3.086 -3.414,5.698 -7.361,6.795c-0.365,4.14 -1.612,7.937 -3.542,11.414c0.093,-0.143 0.164,-0.281 0.246,-0.432l18.125,-3.912l-3.502,-16.228c-0.868,0.72 -1.737,1.468 -2.561,2.398z" id="svg_46"/>
     </g>
    </g>
    <g id="svg_47">
     <g id="svg_48">
      <g id="svg_49">
       <path fill="#592C03" d="m205.191,62.743c0.413,5.983 -1.053,22.309 -1.38,28.299c-0.685,0.66 -3.697,9.656 -6.304,18.363c-2.12,-1.229 -4.769,-1.733 -7.865,-1.066c-0.178,0.037 -0.34,0.094 -0.515,0.139c0.308,-1.887 0.454,-3.709 0.086,-5.27c-1.579,-6.646 -8.578,-16.545 -11.647,-22.523c-3.734,-7.304 -6.036,-14.645 -6.139,-21.139c-2.433,-12.877 -12.074,-19.492 -23.779,-17.846c-6.722,0.949 -12.682,3.904 -18.743,6.633c-10.207,4.608 -20.403,6.563 -31.271,1.771c-9.138,-4.033 -15.173,-1.011 -18.393,8.634c-2.298,6.891 -1.993,14.037 -1.646,21.186c0.667,14.08 3.913,27.797 5.974,41.688c-0.488,0.049 -0.985,0.118 -1.499,0.23c-0.827,0.177 -1.583,0.428 -2.285,0.723c-4.338,-20.15 -6.356,-40.643 -5.924,-61.357c0.357,-17.026 9.134,-30.482 23.611,-39.346c24.035,-14.725 49.876,-18.367 76.048,-7.178c20.4,8.721 30.145,26.045 31.671,48.059z" id="svg_50"/>
      </g>
     </g>
    </g>
    <g id="svg_51">
     <g id="svg_52">
      <g id="svg_53">
       <path fill="#3F1B00" d="m198.563,105.938c-2.764,8.945 -5.48,18.813 -5.104,19.992c-0.543,7.7 -4.139,25.52 -8.79,32.116c-1.989,2.823 -4.358,5.403 -6.94,8.517c-4.981,4.504 -26.495,16.594 -34.912,21.388c-8.48,4.841 -15.952,5.161 -20.103,3.511c-0.3,-0.107 -15.61,-10.646 -22.12,-16.977c-8.44,-8.204 -11.816,-19.055 -15.092,-29.824c-2.85,-9.395 -5.18,-18.877 -6.999,-28.432c0.789,-0.016 1.608,-0.104 2.464,-0.29c0.576,-0.124 1.112,-0.289 1.626,-0.473c0.717,4.262 1.375,8.53 1.863,12.825c0.887,7.81 4.295,15.229 7.92,22.424c4.287,8.513 10.101,10.535 11.953,12.23c4.021,3.675 3.56,3.387 7.279,7.25c0.077,0.075 0.157,0.162 0.233,0.238c0.145,0.143 0.291,0.293 0.443,0.436c0.439,0.426 0.894,0.818 1.359,1.179c0.111,0.089 0.223,0.178 0.345,0.264c0.245,0.19 0.501,0.371 0.76,0.542c0.339,0.221 0.664,0.417 0.999,0.602c3.359,1.813 6.364,2.137 9.103,-1.617c2.188,-3 6.15,-2.514 8.824,-1.352c6.622,2.857 10.458,2.623 15.15,-2.707c0.282,-0.316 0.55,-0.631 0.816,-0.953c0.26,-0.324 0.527,-0.646 0.775,-0.965c0.503,-0.662 0.979,-1.328 1.44,-2c0.216,-0.322 0.424,-0.646 0.629,-0.975c0.254,-0.434 0.509,-0.867 0.752,-1.3c1.93,-3.477 11.815,-17.446 12.523,-18.233c0.825,-0.926 5.091,-4.391 5.261,-4.551c0.344,-0.297 2.454,-2.993 2.59,-3.31c3.242,-7.298 14.559,-10.187 14.289,-18.641c-0.098,-3.132 1.307,-7.243 1.504,-10.776c2.97,1.235 6.3,1.128 9.16,-0.138z" id="svg_54"/>
      </g>
     </g>
    </g>
    <g id="svg_55">
     <g id="svg_56">
      <g id="svg_57">
       <path fill="#F9B77A" d="m209.703,93.084c2.102,9.814 -1.97,19.166 -8.58,27.743c-0.861,1.115 -2.345,1.87 -3.683,2.478c-5.556,2.521 -8.407,-1.584 -5.059,-6.79c1.205,-1.872 -0.137,-5.056 1.555,-11.304c1.474,-5.449 4.172,-17.771 5.256,-18.895c4.274,-4.418 8.144,-1.638 10.511,6.768z" id="svg_58"/>
      </g>
      <g id="svg_59">
       <path d="m191.309,123.284c-1.351,-1.615 -1.1,-4.313 0.654,-7.037c0.479,-0.742 0.49,-1.828 0.51,-3.334c0.021,-1.857 0.053,-4.4 0.98,-7.83c0.429,-1.578 0.961,-3.748 1.525,-6.041c1.808,-7.355 3.053,-12.236 3.854,-13.069c2.056,-2.127 4.144,-2.742 6.04,-1.821c2.146,1.041 3.984,4.084 5.32,8.83c1.906,8.9 -0.934,18.109 -8.674,28.152c-0.908,1.176 -2.398,1.959 -3.872,2.627c-0.118,0.055 -0.233,0.104 -0.347,0.151c-2.542,1.055 -4.782,0.819 -5.99,-0.628zm8.242,-36.619c-0.676,0.7 -2.438,7.869 -3.603,12.611c-0.565,2.299 -1.101,4.475 -1.53,6.064c-0.895,3.307 -0.926,5.777 -0.947,7.584c-0.019,1.67 -0.036,2.877 -0.669,3.861c-1.508,2.344 -1.788,4.588 -0.728,5.856c0.96,1.147 2.9,1.228 5.158,0.208c1.358,-0.615 2.721,-1.326 3.494,-2.327c7.553,-9.8 10.329,-18.74 8.496,-27.302c-1.249,-4.432 -2.904,-7.258 -4.787,-8.171c-0.842,-0.41 -1.699,-0.423 -2.621,-0.04c-0.732,0.304 -1.494,0.863 -2.263,1.656z" id="svg_60"/>
      </g>
     </g>
     <g id="svg_61">
      <g id="svg_62">
       <path fill="#DF8F6B" d="m206.991,96.653c1.39,6.488 -1.305,12.675 -5.677,18.346c-0.568,0.738 -1.549,1.234 -2.434,1.637c-3.675,1.668 -4.112,0.576 -4.585,-3.331c-0.233,-1.94 0.649,-5.384 1.961,-8.368c0.729,0.329 2.436,0.364 3.197,-1.698c0.735,-1.983 -0.64,-3.024 -1.385,-3.524c0.79,-3.267 1.39,-6.935 1.972,-7.535c2.827,-2.925 5.386,-1.088 6.951,4.473z" id="svg_63"/>
      </g>
     </g>
     <g id="svg_64">
      <g id="svg_65">
       <path d="m206.662,97.496c-0.913,-4.629 -2.232,-5.854 -3.18,-6.065c-1.604,-0.358 -3.258,1.86 -3.272,1.884l-0.808,-0.591c0.084,-0.114 2.047,-2.767 4.293,-2.27c1.828,0.404 3.119,2.644 3.947,6.85l-0.98,0.192z" id="svg_66"/>
      </g>
     </g>
    </g>
    <g id="svg_67">
     <g id="svg_68">
      <g id="svg_69">
       <path fill="#592C03" d="m159.051,79.917c0.993,-0.957 1.025,-2.541 0.066,-3.534c-13.222,-13.731 -29.288,-9.081 -29.964,-8.878c-1.319,0.398 -2.063,1.787 -1.669,3.109c0.395,1.318 1.785,2.072 3.106,1.681c0.563,-0.165 13.878,-3.917 24.927,7.556c0.361,0.377 0.816,0.617 1.294,0.713c0.779,0.161 1.623,-0.053 2.24,-0.647z" id="svg_70"/>
      </g>
     </g>
    </g>
    <g id="svg_71">
     <g id="svg_72">
      <g id="svg_73">
       <path fill="#592C03" d="m85.742,80.563c0.478,-0.096 0.932,-0.336 1.294,-0.713c11.048,-11.473 24.364,-7.721 24.926,-7.556c1.322,0.392 2.711,-0.362 3.106,-1.681c0.394,-1.322 -0.35,-2.711 -1.669,-3.109c-0.676,-0.203 -16.742,-4.854 -29.964,8.878c-0.958,0.993 -0.926,2.577 0.067,3.534c0.619,0.595 1.462,0.809 2.24,0.647z" id="svg_74"/>
      </g>
     </g>
    </g>
    <g id="svg_75">
     <g id="svg_76">
      <path d="m111.89,130.756c-2.652,-3.555 0.841,-9.888 3.393,-14.514c0.746,-1.354 1.39,-2.521 1.729,-3.362c2.219,-5.457 3.965,-19.418 3.981,-19.558l0.993,0.121c-0.071,0.58 -1.78,14.231 -4.047,19.813c-0.362,0.895 -1.019,2.086 -1.784,3.47c-2.279,4.14 -5.732,10.397 -3.465,13.434c1.768,2.368 6.824,2.66 15.013,0.867l0.212,0.977c-0.45,0.1 -0.894,0.192 -1.326,0.278c-7.938,1.585 -12.753,1.083 -14.699,-1.526z" id="svg_77"/>
     </g>
    </g>
    <g id="svg_78">
     <g id="svg_79">
      <path fill="#FFFFFF" d="m155.301,91.042c-0.302,7.764 -6.574,6.666 -14.354,6.363c-7.782,-0.304 -14.121,0.3 -13.82,-7.462c0.19,-4.845 6.651,-8.525 14.431,-8.222c7.78,0.305 13.934,4.477 13.743,9.321z" id="svg_80"/>
      <path d="m146.981,98.134c-1.236,0 -2.555,-0.065 -3.951,-0.134c-0.686,-0.034 -1.388,-0.068 -2.103,-0.096c-0.713,-0.028 -1.414,-0.048 -2.1,-0.068c-4.565,-0.131 -8.508,-0.245 -10.624,-2.508c-1.154,-1.235 -1.669,-3.003 -1.576,-5.405c0.2,-5.083 6.83,-9.031 14.95,-8.702c3.854,0.151 7.449,1.232 10.121,3.043c2.744,1.861 4.201,4.275 4.102,6.796c-0.228,5.871 -3.69,7.074 -8.819,7.074zm-6.318,-15.93c-7.139,0 -12.865,3.408 -13.036,7.759c-0.082,2.121 0.346,3.653 1.308,4.683c1.831,1.959 5.581,2.067 9.922,2.192c0.688,0.02 1.393,0.041 2.109,0.068c0.718,0.028 1.424,0.063 2.112,0.097c1.384,0.068 2.69,0.132 3.902,0.132c4.802,0 7.621,-1 7.819,-6.112c0.086,-2.164 -1.215,-4.269 -3.663,-5.929c-2.519,-1.708 -5.928,-2.729 -9.599,-2.873c-0.293,-0.012 -0.584,-0.017 -0.874,-0.017z" id="svg_81"/>
     </g>
     <g id="svg_82">
      <path fill="#944E00" d="m148.209,89.968c-0.148,3.847 -3.389,6.843 -7.234,6.693c-3.847,-0.152 -6.842,-3.391 -6.692,-7.238c0.15,-3.844 3.39,-6.841 7.237,-6.69c3.843,0.149 6.84,3.39 6.689,7.235z" id="svg_83"/>
     </g>
     <g id="svg_84">
      <circle cx="140.254" cy="89.57" r="3.344" id="svg_85"/>
     </g>
     <g id="svg_86">
      <circle fill="#FFFFFF" cx="139.745" cy="87.241" r="1.364" id="svg_87"/>
     </g>
    </g>
    <g id="svg_88">
     <g id="svg_89">
      <g id="svg_90">
       <path fill="#FFFFFF" d="m114.131,90.703c0.935,7.713 -5.433,7.626 -13.162,8.563c-7.731,0.936 -13.894,2.538 -14.829,-5.173c-0.582,-4.813 5.212,-9.474 12.941,-10.409c7.731,-0.935 14.469,2.206 15.05,7.019z" id="svg_91"/>
       <path d="m93.033,100.573c-3.078,0 -6.698,-0.729 -7.389,-6.42c-0.613,-5.079 5.388,-9.999 13.378,-10.966c0.923,-0.111 1.853,-0.168 2.765,-0.168c6.907,0 12.307,3.207 12.841,7.624c0.289,2.387 -0.081,4.191 -1.13,5.516c-1.923,2.428 -5.841,2.862 -10.378,3.364c-0.682,0.076 -1.38,0.153 -2.09,0.239c-0.709,0.085 -1.404,0.177 -2.084,0.266c-2.133,0.28 -4.148,0.545 -5.913,0.545zm8.754,-16.554c-0.872,0 -1.761,0.054 -2.645,0.161c-7.443,0.901 -13.053,5.321 -12.505,9.853c0.558,4.599 2.96,5.541 6.396,5.541c1.7,0 3.683,-0.26 5.783,-0.536c0.683,-0.09 1.382,-0.182 2.094,-0.268c0.713,-0.086 1.415,-0.164 2.1,-0.24c4.314,-0.478 8.041,-0.891 9.705,-2.991c0.875,-1.105 1.177,-2.667 0.921,-4.775c-0.473,-3.909 -5.456,-6.745 -11.849,-6.745z" id="svg_92"/>
      </g>
      <g id="svg_93">
       <path fill="#944E00" d="m106.959,90.769c0.464,3.821 -2.259,7.294 -6.08,7.758c-3.822,0.461 -7.294,-2.261 -7.757,-6.084c-0.462,-3.818 2.26,-7.292 6.082,-7.755c3.82,-0.463 7.293,2.261 7.755,6.081z" id="svg_94"/>
      </g>
      <g id="svg_95">
       <circle cx="99.042" cy="91.639" r="3.344" id="svg_96"/>
      </g>
      <g id="svg_97">
       <circle fill="#FFFFFF" cx="98.169" cy="89.421" r="1.364" id="svg_98"/>
      </g>
     </g>
    </g>
    <g id="svg_99">
     <g id="svg_100">
      <ellipse fill-rule="evenodd" clip-rule="evenodd" cx="122.896" cy="151.305" rx="14.014" ry="6.744" id="svg_101"/>
      <path d="m122.896,158.549c-8.139,0 -14.514,-3.182 -14.514,-7.244c0,-4.063 6.375,-7.246 14.514,-7.246s14.514,3.183 14.514,7.246c0,4.063 -6.375,7.244 -14.514,7.244zm0,-13.49c-7.325,0 -13.514,2.86 -13.514,6.246c0,3.385 6.189,6.244 13.514,6.244s13.514,-2.859 13.514,-6.244c0,-3.386 -6.188,-6.246 -13.514,-6.246z" id="svg_102"/>
     </g>
     <g id="svg_103">
      <path fill="#FFFFFF" d="m122.896,144.198c-4.102,0 -7.78,1.205 -10.344,2.205l20.688,0c-2.563,-1 -6.241,-2.205 -10.344,-2.205z" id="svg_104"/>
     </g>
     <g id="svg_105">
      <path fill="#FFFFFF" d="m133.597,155.403l-21.401,0c2.57,1 6.408,2.394 10.701,2.394s8.13,-1.394 10.7,-2.394z" id="svg_106"/>
     </g>
    </g>
    <g id="svg_107">
     <g id="svg_108">
      <g id="svg_109">
       <path d="m122.895,159.792c-17.489,0 -17.402,-16.916 -17.402,-16.916s13.043,1.702 17.402,1.702c4.361,0 17.404,-1.702 17.404,-1.702s0.086,16.916 -17.404,16.916z" id="svg_110"/>
      </g>
      <g id="svg_111">
       <path d="m122.895,160.228c-5.378,0 -9.672,-1.575 -12.763,-4.683c-5.055,-5.08 -5.075,-12.364 -5.074,-12.672l0.002,-0.493l0.489,0.064c0.129,0.017 13.064,1.698 17.345,1.698c4.282,0 17.217,-1.682 17.347,-1.698l0.489,-0.064l0.003,0.493c0.002,0.308 -0.02,7.592 -5.074,12.672c-3.091,3.108 -7.385,4.683 -12.764,4.683zm-16.947,-16.854c0.101,1.71 0.74,7.479 4.808,11.563c2.921,2.933 7.006,4.42 12.14,4.42c5.139,0 9.225,-1.489 12.148,-4.426c4.067,-4.089 4.702,-9.85 4.803,-11.558c-2.484,0.317 -13.051,1.639 -16.951,1.639c-3.899,0.001 -14.465,-1.321 -16.948,-1.638z" id="svg_112"/>
      </g>
     </g>
     <g id="svg_113">
      <g id="svg_114">
       <path fill="#FFFFFF" d="m139.729,147.037c0.578,-2.393 0.57,-4.16 0.57,-4.16s-13.043,1.702 -17.404,1.702c-4.359,0 -17.402,-1.702 -17.402,-1.702s-0.009,1.768 0.57,4.16c2.559,0.326 13.018,1.629 16.832,1.629c3.815,0 14.276,-1.303 16.834,-1.629z" id="svg_115"/>
      </g>
     </g>
    </g>
   </g>
   <g id="svg_116">
    <line fill="#48826D" x1="212.428" y1="201.403" x2="241.428" y2="201.403" id="svg_117"/>
    <rect x="212.428" y="200.403" width="29" height="1" id="svg_118"/>
   </g>
   <g id="svg_119">
    <line fill="#48826D" x1="38.428" y1="201.403" x2="67.428" y2="201.403" id="svg_120"/>
    <rect x="38.428" y="200.403" width="29" height="1" id="svg_121"/>
   </g>
  </g>
 </g>

</svg>