<?xml version="1.0" encoding="utf-8"?>
<!-- Generator: Adobe Illustrator 16.0.0, SVG Export Plug-In . SVG Version: 6.00 Build 0)  -->
<!DOCTYPE svg PUBLIC "-//W3C//DTD SVG 1.1//EN" "http://www.w3.org/Graphics/SVG/1.1/DTD/svg11.dtd">
<svg version="1.1" id="Ebene_1" xmlns="http://www.w3.org/2000/svg" xmlns:xlink="http://www.w3.org/1999/xlink" x="0px" y="0px"
	 width="278.512px" height="260.653px" viewBox="0 0 278.512 260.653" enable-background="new 0 0 278.512 260.653"
	 xml:space="preserve">
<g>
	<path fill-rule="evenodd" clip-rule="evenodd" fill="#464342" d="M145.748,3.58c3.91,0.49,7.828,0.924,11.728,1.481
		c23.858,3.405,45.007,12.961,63.354,28.511c22.957,19.459,37.694,44.009,42.906,73.662c7.237,41.166-3.332,77.674-31.345,108.697
		c-19.552,21.652-44.172,34.568-72.957,39.421c-3.566,0.602-7.2,0.8-10.8,1.213c-0.968,0.112-1.923,0.335-2.886,0.508
		c-4.29,0-8.58,0-12.871,0c-0.88-0.17-1.754-0.378-2.639-0.497c-5.545-0.759-11.166-1.149-16.626-2.304
		c-28.756-6.08-52.64-20.485-71.502-42.978c-15.282-18.223-24.691-39.196-28.059-62.799c-0.556-3.902-0.992-7.823-1.483-11.732
		c0-4.292,0-8.583,0-12.873c0.171-0.965,0.378-1.924,0.506-2.895c0.623-4.733,0.972-9.517,1.872-14.195
		c5.647-29.333,19.967-53.693,42.651-73.047C75.903,18.134,97.061,8.584,120.902,5.089c3.979-0.583,7.983-1.01,11.976-1.509
		C137.168,3.58,141.458,3.58,145.748,3.58z M260.311,130.285C260.296,63.495,206.04,9.268,139.277,9.313
		C72.47,9.359,18.299,63.566,18.316,130.357c0.016,66.77,54.297,121.027,121.033,120.981
		C206.157,251.292,260.328,197.082,260.311,130.285z"/>
	<path fill-rule="evenodd" clip-rule="evenodd" fill="#464342" d="M154.518,79.59c4.134-0.403,7.968-0.748,11.794-1.162
		c2.958-0.321,4.747-2.219,4.63-4.786c-0.128-2.75-2.088-4.436-5.229-4.329c-10.796,0.372-21.588,1.058-32.382,1.104
		c-8.235,0.037-16.472-0.752-24.711-1.097c-3.079-0.128-4.962,1.666-5.024,4.509c-0.056,2.573,1.438,4.259,4.188,4.574
		c3.192,0.367,6.41,0.553,9.584,1.032c0.818,0.124,1.932,0.901,2.206,1.64c5.36,14.433,10.628,28.901,15.858,43.382
		c0.281,0.779,0.311,1.817,0.052,2.599c-7.564,22.811-15.178,45.604-22.789,68.398c-0.077,0.232-0.215,0.443-0.493,1
		c-13.144-39.093-26.197-77.917-39.291-116.863c4.103-0.399,7.947-0.742,11.782-1.159c3.049-0.331,4.875-2.364,4.62-5.017
		c-0.255-2.651-2.136-4.222-5.184-4.093c-8.734,0.369-17.463,0.842-26.197,1.203c-2.868,0.119-5.745,0.019-9.34,0.019
		C65.713,45.818,88.17,29.931,117.006,24.12c35.564-7.167,67.201,1.723,95.333,25.625c-1.902,0.222-3.176,0.272-4.408,0.53
		c-10.453,2.183-17.255,12.992-14.32,23.916c1.428,5.315,4.043,10.423,6.79,15.244c4.167,7.315,8.54,14.464,10.652,22.733
		c2.437,9.542,1.801,18.978-0.949,28.308c-5.305,18.004-10.717,35.975-16.092,53.958c-0.069,0.229-0.236,0.428-0.556,0.99
		C180.437,156.691,167.506,118.229,154.518,79.59z"/>
	<path fill-rule="evenodd" clip-rule="evenodd" fill="#464342" d="M141.528,141.028c11.141,30.514,22.28,61.024,33.537,91.855
		c-21.906,7.438-43.792,7.926-66.308,1.683c10.768-31.295,21.483-62.441,32.199-93.586
		C141.146,140.998,141.338,141.012,141.528,141.028z"/>
	<path fill-rule="evenodd" clip-rule="evenodd" fill="#464342" d="M40.101,86.7c17.184,47.084,34.246,93.833,51.389,140.805
		C38.901,203.081,16.563,138.067,40.101,86.7z"/>
	<path fill-rule="evenodd" clip-rule="evenodd" fill="#464342" d="M194.296,223.779c5.956-17.238,11.733-34.043,17.566-50.828
		c5.837-16.793,11.719-33.568,17.599-50.347c4.881-13.926,7.231-28.179,5.538-43.129
		C260.617,124.681,248.451,192.307,194.296,223.779z"/>
</g>
</svg>
