<?xml version="1.0" encoding="utf-8"?>
<!-- Generator: Adobe Illustrator 16.0.0, SVG Export Plug-In . SVG Version: 6.00 Build 0)  -->
<!DOCTYPE svg PUBLIC "-//W3C//DTD SVG 1.1//EN" "http://www.w3.org/Graphics/SVG/1.1/DTD/svg11.dtd">
<svg version="1.1" xmlns="http://www.w3.org/2000/svg" xmlns:xlink="http://www.w3.org/1999/xlink" x="0px" y="0px" width="350.5px"
	 height="350.5px" viewBox="-250.5 -250.5 350.5 350.5" enable-background="new -250.5 -250.5 350.5 350.5" xml:space="preserve">
<g id="Ebene_2">
	<g id="Ebene_4">
		<g>
			<polygon fill="#48826D" points="-141.966,-76.99 -147.928,-78.182 -147.064,-82.496 -142.428,-81.568 -72.099,-111.147 
				-70.394,-107.092 			"/>
		</g>
		<g>
			<g>
				<g>
					<path fill="#F9B77A" d="M-154.128-39.742c0,0,1.263-12.241-0.744-27.501c-1.437-10.923-4.306-26.654-11.644-25.518
						c-17.591,2.726-14.618,37.162-14.618,37.162l-2.974,27.501L-154.128-39.742z"/>
					<path d="M-184.475-27.617l3.029-28.015c-0.124-1.357-2.796-34.7,14.881-37.439c0.266-0.041,0.532-0.062,0.792-0.062
						c7.002,0,9.753,14.753,11.213,25.85c1.989,15.121,0.757,27.452,0.745,27.574l-0.021,0.19L-184.475-27.617z M-165.773-92.504
						c-0.226,0-0.461,0.019-0.694,0.055c-17.099,2.649-14.382,36.484-14.353,36.825l-2.918,27.048l29.315-11.388
						c0.146-1.612,1.084-13.217-0.76-27.237C-156.006-73.459-158.512-92.504-165.773-92.504z"/>
				</g>
				<g>
					<path fill="#F9B77A" d="M-155.12-49.404c0,0,29.235-15.36,18.83-21.801c-10.405-6.442-24.032,11.893-24.032,11.893"/>
					<path d="M-154.973-49.125l-0.292-0.558c0.207-0.107,20.65-10.93,20.898-17.952c0.047-1.324-0.637-2.405-2.088-3.303
						c-10.04-6.217-23.48,11.63-23.615,11.812l-0.504-0.376c0.563-0.758,13.92-18.49,24.45-11.971
						c1.638,1.014,2.44,2.312,2.385,3.86C-133.999-60.229-154.117-49.576-154.973-49.125z"/>
				</g>
				<g>
					<path fill="#F9B77A" d="M-155.862-81.859c0,0,4.458-10.901,7.185-1.486c2.725,9.415,1.735,10.158,5.697,9.167
						c3.964-0.992,3.47-34.438-15.608-16.848"/>
					<path d="M-144.859-73.547c-1.578,0-1.881-1.194-2.777-4.716c-0.334-1.31-0.749-2.941-1.343-4.995
						c-0.668-2.309-1.502-3.554-2.409-3.603c-0.02,0-0.04-0.001-0.059-0.001c-1.661,0-3.536,3.684-4.124,5.122l-0.582-0.239
						c0.237-0.577,2.384-5.657,4.798-5.51c1.233,0.066,2.209,1.392,2.979,4.055c0.598,2.064,1.014,3.7,1.349,5.016
						c1.178,4.632,1.178,4.632,3.972,3.934c0.569-0.142,1.282-1.53,1.594-4.311c0.613-5.45-0.561-14.159-5.091-16.454
						c-2.996-1.516-6.972-0.017-11.822,4.454l-0.426-0.462c5.063-4.668,9.28-6.2,12.533-4.552
						c4.798,2.431,6.064,11.454,5.431,17.084c-0.151,1.34-0.654,4.498-2.066,4.851C-143.724-73.667-144.356-73.547-144.859-73.547z"
						/>
				</g>
				<g>
					<path fill="#F9B77A" d="M-159.58-87.062c0,0,4.459-10.901,7.185-1.487c2.726,9.415,1.735,10.158,5.699,9.167
						c3.964-0.99,3.469-34.437-15.609-16.846"/>
					<path d="M-148.575-78.75c-1.579,0-1.882-1.194-2.778-4.716c-0.334-1.311-0.749-2.941-1.343-4.995
						c-0.668-2.309-1.501-3.554-2.408-3.603c-1.678-0.118-3.588,3.666-4.183,5.12l-0.582-0.238c0.236-0.577,2.407-5.647,4.798-5.51
						c1.234,0.066,2.209,1.393,2.98,4.056c0.597,2.063,1.014,3.699,1.347,5.014c1.179,4.634,1.18,4.632,3.973,3.936
						c0.568-0.143,1.281-1.531,1.594-4.312c0.613-5.45-0.561-14.158-5.09-16.454c-2.994-1.516-6.972-0.018-11.823,4.454
						l-0.426-0.462c5.063-4.669,9.28-6.2,12.533-4.552c4.798,2.431,6.065,11.454,5.431,17.084c-0.15,1.341-0.653,4.497-2.066,4.851
						C-147.44-78.871-148.072-78.75-148.575-78.75z"/>
				</g>
				<g>
					<path fill="#F9B77A" d="M-164.782-87.062c0,0,4.459-10.901,7.185-1.487c2.725,9.415,1.734,10.158,5.697,9.167
						c3.964-0.99,3.469-34.437-15.608-16.846"/>
					<path d="M-153.778-78.75c-1.579,0-1.882-1.193-2.778-4.716c-0.333-1.311-0.749-2.942-1.343-4.995
						c-0.668-2.309-1.501-3.554-2.409-3.603c-1.665-0.109-3.587,3.666-4.184,5.12l-0.581-0.238c0.236-0.577,2.383-5.646,4.798-5.51
						c1.234,0.066,2.209,1.393,2.98,4.056c0.597,2.063,1.013,3.699,1.348,5.014c1.179,4.634,1.18,4.632,3.973,3.936
						c0.568-0.143,1.282-1.531,1.594-4.312c0.613-5.45-0.562-14.158-5.091-16.454c-2.995-1.516-6.973-0.018-11.823,4.454
						l-0.425-0.462c5.063-4.669,9.28-6.2,12.532-4.552c4.798,2.431,6.064,11.454,5.432,17.084c-0.151,1.341-0.654,4.497-2.067,4.851
						C-152.643-78.871-153.275-78.75-153.778-78.75z"/>
				</g>
				<g>
					<path fill="#F9B77A" d="M-184.603-29.83c0,0-2.23-62.931,11.149-64.912c25.669-3.803,19.574,15.856,15.609,16.847
						c-3.963,0.991-2.973,0.248-5.698-9.167c-2.726-9.415-7.184,1.486-7.184,1.486"/>
					<path d="M-184.916-29.819c-0.092-2.581-2.085-63.234,11.417-65.234c15.147-2.243,18.65,3.672,19.39,7.398
						c0.922,4.643-1.629,9.557-3.659,10.064c-3.4,0.85-3.553,0.255-4.734-4.39c-0.334-1.311-0.749-2.941-1.343-4.994
						c-0.668-2.309-1.502-3.554-2.41-3.603c-1.664-0.096-3.587,3.666-4.182,5.121l-0.582-0.238c0.237-0.578,2.383-5.645,4.799-5.51
						c1.233,0.066,2.208,1.393,2.979,4.055c0.598,2.063,1.014,3.7,1.347,5.015c1.179,4.634,1.18,4.632,3.973,3.936
						c1.625-0.407,4.08-4.883,3.196-9.333c-0.696-3.507-4.048-9.064-18.682-6.899c-12.95,1.918-10.904,63.963-10.881,64.59
						L-184.916-29.819z"/>
				</g>
			</g>
			<g>
				<g>
					<path fill="#48826D" d="M-182.027,70.984l-4.958-93.535c-0.633-11.921,8.401-22.092,20.324-22.724
						c11.921-0.631,21.98,8.526,22.614,20.448l4.958,93.534c0.632,11.922-8.405,22.094-20.325,22.725
						C-171.336,92.064-181.396,82.906-182.027,70.984z"/>
					<path d="M-160.577,91.777c-11.587,0-21.146-9.125-21.764-20.777l-4.959-93.535c-0.311-5.855,1.654-11.474,5.533-15.821
						c3.887-4.354,9.245-6.922,15.088-7.232c12.107-0.634,22.305,8.7,22.945,20.744l4.959,93.535
						c0.639,12.074-8.611,22.416-20.624,23.053C-159.793,91.766-160.187,91.777-160.577,91.777z M-165.5-44.991
						c-0.379,0-0.761,0.01-1.146,0.03c-5.675,0.301-10.878,2.795-14.652,7.024c-3.769,4.221-5.677,9.68-5.375,15.37l4.958,93.533
						c0.62,11.699,10.522,20.77,22.282,20.152c11.665-0.619,20.65-10.664,20.028-22.395l-4.958-93.534
						C-144.962-36.126-154.247-44.991-165.5-44.991z"/>
				</g>
			</g>
			<g>
				<polygon fill="#48826D" points="-86.97,89.408 -149.428,89.408 -149.428,53.603 -124.064,47.317 -86.97,53.603 				"/>
			</g>
			<g>
				<g>
					<g>
						<g>
							<path fill="none" d="M-15.571,14.912c-13.559,0-50.176,2.2-65.085,3.135c15.207,0.806,52.344,2.83,58.67,3.679
								c1.237,0.166,2.625,0.357,4.086,0.563c0.219-0.105,0.471-0.226,0.748-0.362c-0.143-0.029-0.271-0.056-0.364-0.083
								c-0.501-1.244,6.138-4.129,8.125-6.175c-0.304-0.266-0.873-0.472-1.783-0.594C-11.964,14.969-13.443,14.912-15.571,14.912z"
								/>
						</g>
					</g>
					<g>
						<g>
							<path fill="#48826D" d="M75.034,89.365c-8.308-23.619-20.16-45.085-27.43-48.079C26.123,27.49-17.975,23.326-18.282,23.239
								l-0.373-0.131l-0.133-0.379c-0.004-0.013,0.337-0.174,0.887-0.44c-1.46-0.206-2.848-0.397-4.084-0.563
								c-6.328-0.849-43.464-2.873-58.671-3.679c-2.795,0.173-4.83,0.307-5.804,0.369l-1.218,13.847l-0.658,0.026
								c-0.252,0.008-20.089,1.003-30.903,7.521c1.718,1.334,2.876,3.372,2.737,5.623c-0.769,12.449-2.472,24.961-5.286,37.116
								c-0.91,3.928-4.033,5.43-7.115,5.145c-0.014,0.557-0.028,1.111-0.04,1.672h29.347c0.548-6.105,1.384-12.002,2.594-17.41
								l1.467,0.33c-1.19,5.305-2.012,11.088-2.557,17.08H75.034z"/>
							<path d="M-88.324,32.602l0.935-0.037l1.218-13.854l0.249-0.017c1.092-0.07,2.916-0.187,5.249-0.334
								c15.529,0.823,52.329,2.829,58.645,3.676c0.952,0.126,1.993,0.27,3.088,0.422c-0.202,0.126-0.194,0.201-0.145,0.374
								l0.183,0.521l0.535,0.189c0.041,0.012,0.057,0.014,0.619,0.077c10.587,1.184,46.571,5.978,65.233,17.957
								c6.686,2.755,17.809,21.976,26.301,45.243c0.384,0.285,0.719,0.602,1.01,0.945c-8.602-23.938-20.13-43.91-27.021-46.743
								C29.049,28.994-7.057,24.182-17.676,22.992c-0.319-0.035-0.5-0.048-0.5-0.05l-0.207-0.073
								c0.101-0.049,0.23-0.112,0.385-0.186l1.166-0.564l-1.025-0.143c-1.46-0.207-2.85-0.399-4.086-0.564
								c-6.338-0.853-43.159-2.858-58.731-3.681c-2.371,0.147-4.194,0.266-5.287,0.336l-0.787,0.05l-1.218,13.84l-0.381,0.014
								c-0.253,0.011-20.276,0.962-31.174,7.631c0.19,0.135,0.375,0.278,0.552,0.43C-108.242,33.665-88.573,32.611-88.324,32.602z"
								/>
							<path d="M-119.635,89.051h-8.984l0.11-1.332c-0.235-0.012-0.47-0.033-0.705-0.064c-0.014,0.564-0.027,1.129-0.041,1.703
								l-0.007,0.322h9.398C-119.796,89.467-119.72,89.256-119.635,89.051z"/>
						</g>
					</g>
					<g>
						<g>
							<path d="M-17.516,21.843c0.095,0.026,0.223,0.054,0.365,0.083c3.108-1.521,9.427-4.802,7.762-6.257
								C-11.376,17.713-18.017,20.599-17.516,21.843z"/>
						</g>
					</g>
					<g>
						<g>
							<path d="M0.346,24.958c0,0,28.013,5.588,47.547,15.521c7.364,3.033,19.488,24.909,27.919,48.883h0.711
								C67.996,65.096,55.684,42.88,48.177,39.79C22.823,25.414-12.069,22.958-17.15,21.925c-0.278,0.138-0.529,0.257-0.748,0.362
								C-9.9,23.415,0.346,24.958,0.346,24.958z"/>
						</g>
					</g>
					<g>
						<g>
							<path d="M-18.654,23.108l0.374,0.131c0.308,0.087,44.405,4.25,65.886,18.048c7.27,2.994,19.123,24.459,27.431,48.079h0.775
								c-8.431-23.977-20.555-45.852-27.918-48.884C28.359,30.546,0.348,24.959,0.348,24.959S-9.9,23.415-17.898,22.288
								c-0.552,0.266-0.893,0.429-0.888,0.44L-18.654,23.108z"/>
						</g>
					</g>
					<g>
						<g>
							<path d="M-117.11,72.285l-1.466-0.328c-1.211,5.408-2.047,11.303-2.595,17.408h1.505
								C-119.122,83.373-118.299,77.59-117.11,72.285z"/>
						</g>
					</g>
				</g>
				<g>
					<g>
						<g>
							<path d="M13.973,60.66l-1.5-0.06c0.545-14.194,4.276-23.038,11.09-26.286c10.497-4.995,24.202,5.132,24.781,5.563l-0.899,1.2
								c-0.136-0.101-13.558-10.016-23.24-5.408C17.936,38.658,14.494,47.066,13.973,60.66z"/>
						</g>
					</g>
				</g>
				<g>
					<g>
						<g>
							<path fill="#141719" d="M-27.179,19.663c-2.329,0.777-4.599,1.641-6.758,2.663c-1.741,0.824-3.461,1.638-5.172,2.445
								c3.821-1.443,7.591-3.037,11.295-4.848C-27.588,19.813-27.384,19.742-27.179,19.663z"/>
						</g>
					</g>
				</g>
				<g>
					<g>
						<path fill="#F9B77A" d="M-27.883-1.381c0,0,32.87,31.708-0.602,46.888c-33.47,15.181-42.589-25.859-42.589-25.859
							L-27.883-1.381z"/>
					</g>
					<g>
						<path d="M-42.435,49.191c-22.141,0-28.88-29.18-28.946-29.475l-0.054-0.241l43.611-21.233l0.159,0.153
							c0.169,0.163,16.803,16.408,14.258,31.157c-1.174,6.812-6.204,12.277-14.95,16.242
							C-33.325,48.048-38.063,49.191-42.435,49.191z M-70.709,19.821c0.691,2.789,7.697,28.742,28.274,28.742
							c4.281,0,8.932-1.124,13.82-3.342c8.544-3.875,13.453-9.183,14.59-15.776C-11.666,15.778-26.263,0.685-27.944-1
							L-70.709,19.821z"/>
					</g>
				</g>
				<g>
					<g>
						<g>
							<path fill="#F9B77A" d="M-96.761,1.846h-16.031v-30.791c0,0.149,1.142,0.029,1.517-0.257c1.815,2.847,4.32,5.246,7.887,6.448
								C-103.478-14.584-100.99-4.741-96.761,1.846z"/>
						</g>
					</g>
				</g>
				<g>
					<g>
						<g>
							<path fill="#F9B77A" d="M-3.635-23.219V1.846h-28.909c-0.163,0-0.314,0.285-0.493,0.464c3.929-4.484,6.956-9.701,8.801-15.65
								c6.13-0.361,10.447-3.458,12.937-7.654c0.449,0.915,1.316,1.413,2.603,0.484C-7.2-21.606-5.517-22.439-3.635-23.219z"/>
						</g>
					</g>
				</g>
				<g>
					<g>
						<g>
							<path fill="#C9C9C9" d="M57.75-183.047c0.163,0.639,0.322,1.279,0.482,1.918c-1.581-0.382-0.304-1.336-0.39-2.027
								C57.854-183.167,57.75-183.047,57.75-183.047z"/>
						</g>
					</g>
				</g>
				<g>
					<g>
						<g>
							<path fill="#F9B77A" d="M47.893-85.675c0.121,6.086-15.896,40.157-16.99,46.108c-2.279,12.47-18.774,0.322-25.834,9.992
								c-0.299,0.42-0.613,0.795-0.96,1.153c-0.164,0.181-0.327,0.36-0.51,0.525c-0.252,0.256-0.522,0.089-0.793,0.317
								c-0.271,0.224-0.538,0.254-0.81,0.254c-0.014,0-0.014,0-0.014,0c-0.569,0-1.157,1.182-1.755,1.528
								c-0.298,0.182-0.598,0.546-0.913,0.71c-1.111,0.602-2.25,1.227-3.388,1.769c-1.681,0.776-3.345,1.654-4.843,2.749
								c-1.289,0.928-1.935,0.446-2.384-0.468c-2.491,4.196-6.807,7.279-12.938,7.64C-26.083-7.446-29.11-2.27-33.041,2.214
								c-0.494,0.554-1.004,1.115-1.514,1.668c-0.404,0.42-0.809,0.826-1.228,1.23c-0.886,0.841-1.798,1.665-2.744,2.475
								c-0.464,0.39-0.959,0.781-1.437,1.171c-0.495,0.388-0.992,0.765-1.5,1.137c-8.563,6.326-14.258,5.458-23.057-0.825
								c-3.551-2.547-9.205-4.512-13.358-0.807c-5.201,4.631-9.504,3.208-13.852-0.511c-0.433-0.375-0.854-0.765-1.274-1.198
								c-0.329-0.331-0.644-0.677-0.944-1.034c-0.147-0.165-0.285-0.33-0.42-0.495c-0.568-0.673-1.11-1.395-1.62-2.159
								c-0.179-0.256-0.343-0.523-0.509-0.78c-0.089-0.132-0.178-0.283-0.268-0.417c-4.229-6.837-13.088-3.999-13-12.167
								c-3.567-1.197-7.331-12.343-8.244-12.493c-2.503-0.434,0.12-6.926-0.778-9.971c-3.45-11.573-5.683-23.641-4.513-35.362
								c2.428-24.315,1.213-48.87,5.248-73.049c1.752-10.585,3.565-21.152,9.112-30.522c7.766-13.115,17.569-15.634,29.682-6.834
								c14.405,10.462,29.965,10.82,46.381,7.299c9.742-2.083,19.412-4.527,29.561-3.792c17.673,1.289,29.711,14.03,29.2,33.668
								c-1.901,9.549-0.852,21.033,2.311,32.92C30.808-98.907,47.684-95.915,47.893-85.675z"/>
						</g>
					</g>
				</g>
				<g>
					<g>
						<g>
							<g>
								<path fill="#592C03" d="M43.146-206.63c-34.808-24.674-73.83-27.507-113.705-13.537
									c-24.015,8.41-41.134,25.349-47.042,50.188c-7.188,30.212-10.708,60.882-10.723,91.779c1.121-0.21,2.307-0.336,3.576-0.336
									c0.787,0,1.539,0.055,2.268,0.138c1.373-21.009,0.955-42.134,4.433-62.978c1.752-10.584,3.566-21.151,9.113-30.521
									c7.766-13.116,17.568-15.635,29.682-6.835c14.405,10.462,29.964,10.821,46.381,7.299c9.743-2.083,19.412-4.526,29.561-3.792
									c17.673,1.29,29.71,14.031,29.202,33.669c-1.903,9.549-0.854,21.033,2.308,32.92c2.609,9.729,9.732,26.448,9.942,36.687
									c0.046,2.399-0.747,5.027-1.788,7.692c0.266-0.009,0.521-0.04,0.796-0.04c4.746,0,8.47,1.582,11.189,4.051
									c6.574-11.936,13.831-24.165,15.045-24.917c2.371-8.675,9.685-32.133,10.975-41.031
									C79.077-158.929,70.277-187.396,43.146-206.63z"/>
							</g>
						</g>
					</g>
				</g>
				<g>
					<g>
						<g>
							<g>
								<path fill="#3F1B00" d="M37.514-67.685c-1.404,5.114-4.76,10.694-5.612,15.314C29.623-39.896,12.128-39.245,5.068-29.575
									c-0.299,0.419-4.242,3.704-4.842,4.031c-0.299,0.183-7.646,3.909-9.143,5.002C-10.208-19.611-29.11-2.268-33.037,2.215
									c-0.497,0.554-1.005,1.113-1.515,1.667c-0.404,0.42-0.808,0.825-1.229,1.232c-0.883,0.841-1.797,1.663-2.744,2.473
									c-0.462,0.389-0.958,0.781-1.437,1.17c-0.494,0.388-0.99,0.765-1.5,1.137c-8.562,6.326-14.257,5.458-23.056-0.825
									c-3.551-2.545-9.203-4.512-13.356-0.807c-5.201,4.632-9.505,3.208-13.853-0.511c-0.434-0.376-0.849-0.771-1.275-1.198
									c-0.325-0.332-0.644-0.677-0.944-1.035c-0.147-0.165-0.283-0.33-0.417-0.495c-0.571-0.673-1.111-1.394-1.622-2.159
									c-0.177-0.256-0.342-0.523-0.509-0.781c-0.088-0.132-0.176-0.283-0.268-0.417c-4.228-6.837-3.643-6.27-8.372-12.928
									c-2.18-3.069-10.059-7.873-13.648-21.701c-3.038-11.689-5.682-23.641-4.512-35.363c0.643-6.449,1.029-12.912,1.325-19.38
									c-0.813,0.104-1.648,0.177-2.532,0.177c-1.311,0-2.541-0.128-3.7-0.354c-0.355,14.576,0.058,29.208,1.263,43.875
									c1.394,16.82,2.909,33.787,12.684,48.48c7.539,11.333,26.638,31.616,27.042,31.869c5.561,3.735,16.608,5.622,30.564,1.217
									c13.852-4.362,49.2-15.276,57.927-20.297c4.764-3.747,9.053-6.778,12.861-10.285c8.903-8.198,19.805-33.17,23.034-44.283
									c-0.176-1.846,6.924-15.443,13.805-27.68C46.386-64.039,41.47-64.939,37.514-67.685z"/>
							</g>
						</g>
					</g>
				</g>
				<g>
					<g>
						<g>
							<g>
								<path fill="#F9B77A" d="M58.105-93.541c-1.94,1.302-9.792,18.504-13.678,26.02c-4.454,8.622-3.495,13.712-5.851,16.074
									c-6.556,6.568-3.677,13.486,5.263,11.548c2.154-0.465,4.569-1.103,6.179-2.467C62.417-52.84,71.344-65.256,71.367-80.3
									C70.561-93.37,65.769-98.668,58.105-93.541z"/>
							</g>
						</g>
						<g>
							<g>
								<path d="M40.971-38.816L40.971-38.816c-3.092,0-5.389-1.264-6.303-3.469c-1.158-2.788,0.105-6.413,3.381-9.689
									c0.933-0.936,1.296-2.525,1.797-4.724c0.622-2.716,1.472-6.434,3.916-11.166c1.123-2.178,2.589-5.182,4.141-8.364
									c4.979-10.208,8.347-16.972,9.785-17.936c2.043-1.368,3.953-2.059,5.684-2.059c5.004,0,8.108,5.638,8.745,15.876
									c-0.021,13.691-7.092,26.286-21.614,38.553c-1.7,1.438-4.129,2.114-6.506,2.629C42.934-38.935,41.915-38.816,40.971-38.816z
									 M63.371-94.724c-1.427,0-3.057,0.607-4.848,1.807c-1.212,0.811-6.063,10.761-9.274,17.346
									c-1.553,3.189-3.022,6.202-4.155,8.395c-2.357,4.562-3.184,8.172-3.785,10.812c-0.56,2.442-0.961,4.206-2.202,5.448
									c-2.788,2.79-3.957,5.88-3.053,8.059c0.668,1.614,2.463,2.542,4.917,2.542c0.001,0,0.001,0,0.001,0
									c0.838,0,1.75-0.106,2.711-0.313c2.185-0.474,4.404-1.081,5.854-2.307c14.165-11.965,21.061-24.189,21.08-37.365
									C70.039-89.584,67.468-94.724,63.371-94.724z"/>
							</g>
						</g>
					</g>
					<g>
						<g>
							<g>
								<path fill="#DF8F6B" d="M57.496-84.688c-1.042,0.698-3.082,5.881-5.273,10.422c0.935,0.967,2.619,2.927,0.915,5.601
									c-1.768,2.781-4.257,2.192-5.225,1.479c-2.865,3.957-5.245,8.722-5.517,11.638c-0.546,5.876-0.246,7.613,5.667,6.333
									c1.422-0.309,3.018-0.729,4.085-1.632c8.199-6.925,14.101-15.136,14.116-25.086C65.729-84.576,62.56-88.078,57.496-84.688z"
									/>
							</g>
						</g>
					</g>
					<g>
						<g>
							<g>
								<path d="M67.013-74.772l-1.497-0.026c0.126-7.08-1.422-9.291-2.746-9.896c-2.21-1.016-5.354,1.696-5.384,1.725l-1.002-1.12
									c0.158-0.139,3.877-3.403,7.011-1.966C65.945-84.885,67.13-81.196,67.013-74.772z"/>
							</g>
						</g>
					</g>
				</g>
				<g>
					<g>
						<g>
							<path d="M-76.653-41.775c-5.547,0-9.186-1.269-11.022-3.815c-3.887-5.393,1.505-14.801,5.443-21.669
								c1.153-2.011,2.149-3.747,2.678-4.996c3.463-8.13,6.431-29.008,6.458-29.219l1.484,0.209
								c-0.121,0.865-3.023,21.287-6.563,29.596c-0.566,1.332-1.583,3.103-2.758,5.156c-3.523,6.148-8.848,15.437-5.529,20.046
								c2.587,3.595,10.15,4.159,22.481,1.676l0.294,1.469C-68.798-42.292-73.115-41.775-76.653-41.775z"/>
						</g>
					</g>
				</g>
				<g>
					<g>
						<g>
							<g>
								<g>
									<path fill="#FFFFFF" d="M-45.556-94.158c-1.001,11.601,8.299,6.779,19.925,7.785C-14-85.367-4.45-78.912-3.448-90.513
										c0.63-7.242-8.083-9.556-19.713-10.563C-34.785-102.083-44.928-101.397-45.556-94.158z"/>
								</g>
							</g>
						</g>
					</g>
				</g>
				<g>
					<g>
						<path fill="#944E00" d="M-7.4-91.686c0.248-2.875-0.694-5.58-2.417-7.627c-2.091-0.351-4.359-0.615-6.756-0.823
							c-2.809-0.243-5.528-0.386-8.051-0.363c-1.994,1.717-3.348,4.181-3.593,7.01c-0.264,3.042,1.025,5.11,2.938,7.193
							c2.023-0.081,3.977,0.668,6.234,0.863c2.612,0.225,5.115,0.727,7.443,1.236C-9.278-85.917-7.67-88.579-7.4-91.686z"/>
					</g>
				</g>
				<g>
					<g>
						<path fill="#D38A4F" d="M-32.256-84.334c0,0,10.272,7.136,14.585,3.136"/>
					</g>
				</g>
				<g>
					<g>
						<g>
							<g>
								<g>
									<path fill="#FFFFFF" d="M-116.445-102.313c-1.001,11.602,8.3,6.779,19.924,7.785c11.632,1.007,21.183,7.461,22.184-4.141
										c0.629-7.239-8.083-9.555-19.712-10.563C-105.675-110.238-115.817-109.553-116.445-102.313z"/>
								</g>
							</g>
						</g>
					</g>
				</g>
				<g>
					<g>
						<path fill="#944E00" d="M-80.486-100.155c0.249-2.875-0.692-5.58-2.417-7.627c-2.092-0.35-4.359-0.614-6.755-0.822
							c-2.809-0.244-5.529-0.386-8.05-0.363c-1.994,1.716-3.348,4.181-3.592,7.01c-0.264,3.042,0.83,5.032,2.743,7.115
							c2.024-0.082,4.173,0.747,6.429,0.941c2.612,0.226,5.116,0.727,7.444,1.235C-82.363-94.385-80.754-97.048-80.486-100.155z"/>
					</g>
				</g>
				<g>
					<g>
						<path fill="#D38A4F" d="M-89.756-88.375c0,0-11.478,5.728-15.411,1.193"/>
					</g>
				</g>
				<g>
					<g>
						<path fill="#D38A4F" d="M-82.52,0.12c0,0,3.135,12.548,23.211,0"/>
					</g>
				</g>
				<g>
					<g>
						<path d="M-80.459-91.362L-80.459-91.362c-2.104,0-4.551-0.545-7.386-1.176c-2.638-0.588-5.629-1.255-8.715-1.521
							c-1.154-0.099-2.352-0.147-3.668-0.147c-1.792,0-3.472,0.089-5.096,0.174c-1.388,0.074-2.698,0.143-3.895,0.143
							c-2.265,0-4.781-0.221-6.283-1.857c-1.235-1.347-1.684-3.447-1.411-6.606c0.45-5.192,5.465-7.715,15.336-7.715
							c2.226,0,4.7,0.12,7.567,0.369c6.766,0.585,11.408,1.534,14.607,2.985c4.039,1.83,5.848,4.475,5.534,8.087
							C-74.302-93.603-76.335-91.362-80.459-91.362z M-100.229-95.149c1.342,0,2.569,0.05,3.75,0.152
							c3.148,0.273,6.171,0.946,8.838,1.539c2.781,0.62,5.183,1.155,7.182,1.155l0,0c2.649,0,5.167-0.776,5.654-6.406
							c0.275-3.167-1.356-5.505-4.985-7.149c-3.101-1.405-7.646-2.329-14.301-2.906c-2.839-0.246-5.288-0.365-7.485-0.365
							c-9.291,0-14,2.242-14.4,6.856c-0.245,2.839,0.138,4.766,1.168,5.889c0.999,1.088,2.669,1.553,5.587,1.553
							c1.17,0,2.471-0.07,3.845-0.142C-103.737-95.059-102.045-95.149-100.229-95.149z"/>
					</g>
				</g>
				<g>
					<g>
						<path d="M-9.57-83.207L-9.57-83.207c-2.104,0-4.552-0.546-7.387-1.176c-2.638-0.588-5.629-1.255-8.715-1.521
							c-1.153-0.1-2.352-0.148-3.668-0.148c-1.792,0-3.472,0.088-5.097,0.175c-1.388,0.074-2.698,0.142-3.894,0.142
							c-2.265,0-4.781-0.22-6.282-1.857c-1.235-1.348-1.684-3.447-1.411-6.607c0.45-5.191,5.466-7.716,15.336-7.716
							c2.226,0,4.7,0.121,7.566,0.369c6.765,0.586,11.408,1.535,14.607,2.984c4.04,1.83,5.849,4.475,5.534,8.088
							C-3.413-85.448-5.446-83.207-9.57-83.207z M-29.339-86.994c1.341,0,2.57,0.05,3.75,0.152c3.148,0.272,6.17,0.945,8.837,1.539
							c2.782,0.619,5.184,1.155,7.183,1.155l0,0c2.648,0,5.166-0.777,5.654-6.406c0.275-3.167-1.357-5.505-4.985-7.15
							c-3.1-1.405-7.646-2.328-14.301-2.905c-2.84-0.246-5.287-0.365-7.485-0.365c-9.291,0-14,2.243-14.401,6.856
							c-0.243,2.839,0.14,4.766,1.169,5.889c0.999,1.088,2.668,1.553,5.587,1.553c1.172,0,2.471-0.069,3.845-0.141
							C-32.848-86.903-31.157-86.994-29.339-86.994z"/>
					</g>
				</g>
			</g>
			<g>
				<path fill="#592C03" d="M1.331-106.967c-0.586,0-1.18-0.149-1.724-0.463c-4.164-2.393-16.487-8.027-23.455-5.413
					c-11.958,4.484-24.999-9.988-26.446-11.653c-1.252-1.441-1.101-3.624,0.34-4.877c1.44-1.252,3.623-1.102,4.876,0.34
					c2.859,3.274,12.458,12.094,18.803,9.715c11.259-4.221,27.519,4.85,29.336,5.899c1.654,0.954,2.221,3.067,1.267,4.72
					C3.688-107.587,2.526-106.967,1.331-106.967z"/>
			</g>
			<g>
				<path fill="#592C03" d="M-77.22-127.078c-1.144,0-2.264-0.567-2.922-1.605c-4.094-6.456-8.735-9.928-13.795-10.318
					c-9.276-0.72-17.676,8.758-17.76,8.854c-1.256,1.435-3.438,1.583-4.874,0.331c-1.437-1.253-1.591-3.429-0.341-4.869
					c0.432-0.497,10.725-12.161,23.466-11.211c7.367,0.553,13.807,5.1,19.142,13.512c1.022,1.612,0.545,3.749-1.068,4.771
					C-75.946-127.252-76.586-127.078-77.22-127.078z"/>
			</g>
			<g>
				<path fill="#D38A4F" d="M-90.396-109.324c-13.7,0-22.09-5.792-22.202-5.872l0.363-0.514c0.149,0.106,15.236,10.502,38.058,3.1
					l0.194,0.598C-80.031-110.049-85.545-109.324-90.396-109.324z"/>
			</g>
			<g>
				<path fill="#D38A4F" d="M-14.353-100.525c-13.7,0-22.09-5.792-22.203-5.872l0.363-0.513c0.151,0.105,15.235,10.501,38.058,3.099
					l0.193,0.598C-3.988-101.25-9.503-100.525-14.353-100.525z"/>
			</g>
			<g>
				<path d="M-51.301-12.698c-0.275,0-0.555-0.062-0.82-0.189c-0.615-0.268-3.17-0.222-4.86-0.19
					c-3.16,0.058-6.142,0.11-7.888-0.764c-2.253-1.127-10.153-0.14-12.749,0.185c-5.365,0.675-15.523-3.428-16.664-3.898
					c-0.962-0.397-1.42-1.499-1.024-2.462c0.396-0.963,1.498-1.421,2.461-1.025c2.846,1.171,11.044,4.1,14.76,3.644
					c6.98-0.874,12.185-1.175,14.904,0.184c0.918,0.458,4.058,0.401,6.134,0.366c3.227-0.058,5.273-0.063,6.57,0.566
					c0.937,0.453,1.329,1.581,0.876,2.519C-49.928-13.091-50.601-12.698-51.301-12.698z"/>
			</g>
			<g>
				<path fill="none" stroke="#48826D" stroke-width="7" stroke-linecap="square" stroke-miterlimit="10" d="M-56.17-82.772"/>
			</g>
			<g>
				<path fill="none" stroke="#48826D" stroke-width="7" stroke-linecap="square" stroke-miterlimit="10" d="M-67.796-84.029"/>
			</g>
			<g>
				<g>
					<g>
						<g opacity="0.6">
							<path fill="#E2E2E2" d="M-86.57-70.767c0,0-6.642,29.118-32.421,26.552c-29.773-2.962-26.378-32.207-26.378-32.207"/>
							<path fill="#48826D" d="M-115.863-41.857c-1.098,0-2.213-0.056-3.345-0.168c-9.473-0.942-16.771-4.519-21.693-10.631
								c-8.157-10.13-6.718-23.456-6.652-24.018l0.253-2.186l4.37,0.508l-0.254,2.185c-0.014,0.117-1.273,12.112,5.732,20.78
								c4.155,5.142,10.439,8.165,18.679,8.985c23.521,2.339,29.802-23.744,30.058-24.854l0.495-2.141l4.283,0.979l-0.489,2.143
								c-0.071,0.314-1.814,7.783-6.887,15.012C-97.501-46.447-105.938-41.857-115.863-41.857z"/>
						</g>
						<g>
							<path fill="#48826D" d="M-115.863-41.857c-1.098,0-2.213-0.056-3.345-0.168c-9.473-0.942-16.771-4.519-21.693-10.631
								c-8.157-10.13-6.718-23.456-6.652-24.018l0.253-2.186l4.37,0.508l-0.254,2.185c-0.014,0.117-1.273,12.112,5.732,20.78
								c4.155,5.142,10.439,8.165,18.679,8.985c23.521,2.339,29.802-23.744,30.058-24.854l0.495-2.141l4.283,0.979l-0.489,2.143
								c-0.071,0.314-1.814,7.783-6.887,15.012C-97.501-46.447-105.938-41.857-115.863-41.857z"/>
						</g>
					</g>
					<g>
						<g opacity="0.6">
							<path fill="#E2E2E2" d="M-15.279-63.674c0,0-6.642,29.118-32.42,26.553c-29.773-2.963-26.376-32.207-26.376-32.207"/>
							<path fill="#48826D" d="M-44.571-34.764c-1.098,0-2.212-0.055-3.346-0.169c-9.471-0.941-16.77-4.518-21.691-10.63
								c-8.157-10.129-6.718-23.455-6.653-24.018l0.254-2.185l4.37,0.508l-0.254,2.184c-0.013,0.117-1.274,12.112,5.731,20.781
								c4.156,5.142,10.44,8.164,18.679,8.984c23.502,2.336,29.803-23.745,30.06-24.856l0.493-2.141l4.283,0.979l-0.489,2.143
								c-0.071,0.315-1.814,7.784-6.887,15.012C-26.209-39.354-34.646-34.764-44.571-34.764z"/>
						</g>
						<g>
							<path fill="#48826D" d="M-44.571-34.764c-1.098,0-2.212-0.055-3.346-0.169c-9.471-0.941-16.77-4.518-21.691-10.63
								c-8.157-10.129-6.718-23.455-6.653-24.018l0.254-2.185l4.37,0.508l-0.254,2.184c-0.013,0.117-1.274,12.112,5.731,20.781
								c4.156,5.142,10.44,8.164,18.679,8.984c23.502,2.336,29.803-23.745,30.06-24.856l0.493-2.141l4.283,0.979l-0.489,2.143
								c-0.071,0.315-1.814,7.784-6.887,15.012C-26.209-39.354-34.646-34.764-44.571-34.764z"/>
						</g>
					</g>
				</g>
				<g>
					
						<rect x="-88.237" y="-73.353" transform="matrix(-0.9963 -0.0858 0.0858 -0.9963 -153.4773 -148.9062)" fill="#48826D" width="16.593" height="4.399"/>
				</g>
				<g>
					<polygon fill="#48826D" points="-11.005,-62.887 -16.966,-64.078 -16.103,-68.392 -11.466,-67.465 58.862,-97.044 
						60.567,-92.989 					"/>
				</g>
			</g>
			<g>
				<path fill="#48826D" d="M-90.42,33.072c0,0-38.964-13.408-49.438,22.623"/>
				<path d="M-139.558,55.785l-0.603-0.176c2.947-10.137,8.427-17.342,16.289-21.418c14.858-7.702,33.369-1.479,33.554-1.416
					l-0.205,0.594c-0.183-0.063-18.449-6.197-33.064,1.383C-131.288,38.745-136.661,45.821-139.558,55.785z"/>
			</g>
			<g>
				<path fill="#48826D" d="M-181.337,75.807c0,0-1.676,40.223,61.17,12.57"/>
				<path d="M-156.839,98.428c-6.369,0-11.622-1.4-15.731-4.207c-9.467-6.461-9.085-18.309-9.081-18.428l0.629,0.027
					c-0.004,0.113-0.366,11.625,8.813,17.887c10.187,6.947,27.653,5.057,51.917-5.619l0.253,0.574
					C-134.825,95.168-147.129,98.428-156.839,98.428z"/>
			</g>
			<rect x="-123.907" y="40.382" fill="#48826D" width="10.746" height="14.774"/>
		</g>
	</g>
	<g>
		<g>
			<g>
				<path d="M-23.845-87.429c0.313,0.027,0.615,0.07,0.911,0.118c0.646,0.022,1.246,0.112,1.827,0.228
					c0.405,0.003,0.799,0.021,1.181,0.061c2.038-0.634,3.528-2.505,3.528-4.752c0-2.767-2.244-5.011-5.012-5.011
					s-5.011,2.244-5.011,5.011C-26.421-89.897-25.374-88.285-23.845-87.429z"/>
			</g>
		</g>
	</g>
	<g>
		<g>
			<g>
				<path fill="#FFFFFF" d="M-24.074-87.423c0.409,0.027,0.815,0.057,1.198,0.122c0.641,0.025,1.257,0.085,1.838,0.198
					c0.295-0.354,0.479-0.806,0.479-1.303c0-1.13-0.915-2.045-2.045-2.045c-1.131,0-2.046,0.917-2.046,2.045
					c0,0.333,0.098,0.635,0.241,0.911C-24.296-87.472-24.185-87.448-24.074-87.423z"/>
			</g>
		</g>
	</g>
	<g>
		<g>
			<g>
				<path d="M-97.243-96.211c0.312,0.027,0.614,0.069,0.912,0.118c0.643,0.022,1.246,0.113,1.826,0.228
					c0.405,0.004,0.799,0.022,1.181,0.061c2.038-0.634,3.528-2.504,3.528-4.751c0-2.768-2.244-5.012-5.012-5.012
					c-2.769,0-5.013,2.244-5.013,5.012C-99.82-98.68-98.773-97.069-97.243-96.211z"/>
			</g>
		</g>
	</g>
	<g>
		<g>
			<g>
				<path fill="#FFFFFF" d="M-97.473-96.207c0.41,0.027,0.817,0.057,1.198,0.122c0.642,0.026,1.257,0.085,1.838,0.198
					c0.296-0.354,0.479-0.806,0.479-1.303c0-1.13-0.916-2.046-2.045-2.046c-1.131,0-2.046,0.917-2.046,2.046
					c0,0.333,0.097,0.635,0.241,0.911C-97.696-96.257-97.584-96.231-97.473-96.207z"/>
			</g>
		</g>
	</g>
</g>
<g id="Ebene_1">
	<g opacity="0.9">
		<rect x="-202.996" y="-182.408" fill="#FFFFFF" width="255.492" height="248.13"/>
	</g>
	<g>
		<path fill="#48826D" d="M52.996,66.223h-256.491v-249.13H52.996V66.223z M-202.495,65.223H51.996v-247.13h-254.491V65.223z"/>
	</g>
</g>
<g id="Ebene_3">
	<g>
		<g>
			<path fill="#48826D" d="M-125.52-95.288h-26.33c-6.71,0-12.17-5.459-12.17-12.17c0-6.705,5.459-12.16,12.17-12.16h26.33
				c6.71,0,12.17,5.455,12.17,12.16C-113.35-100.747-118.81-95.288-125.52-95.288z M-151.85-118.618
				c-6.159,0-11.17,5.006-11.17,11.16c0,6.159,5.011,11.17,11.17,11.17h26.33c6.159,0,11.17-5.011,11.17-11.17
				c0-6.154-5.011-11.16-11.17-11.16H-151.85z"/>
		</g>
	</g>
	<g>
		<g>
			<path fill="#666666" d="M-149.113-148.625c-0.143,1.975-0.872,3.529-2.187,4.664c-1.315,1.135-3.048,1.702-5.2,1.702
				c-2.353,0-4.204-0.792-5.552-2.376c-1.349-1.583-2.023-3.758-2.023-6.523v-1.122c0-1.765,0.311-3.319,0.933-4.664
				c0.622-1.345,1.511-2.376,2.666-3.095c1.155-0.718,2.498-1.078,4.027-1.078c2.117,0,3.823,0.567,5.117,1.702
				s2.042,2.727,2.244,4.777h-3.781c-0.093-1.185-0.422-2.044-0.989-2.578c-0.567-0.534-1.431-0.801-2.59-0.801
				c-1.261,0-2.204,0.452-2.83,1.355c-0.626,0.904-0.947,2.305-0.964,4.204v1.386c0,1.983,0.3,3.433,0.901,4.349
				c0.601,0.916,1.548,1.374,2.842,1.374c1.168,0,2.04-0.267,2.616-0.8c0.575-0.534,0.905-1.359,0.989-2.477H-149.113z"/>
		</g>
		<g>
			<path fill="#666666" d="M-147.437-149.457c0-1.353,0.26-2.559,0.781-3.617c0.521-1.059,1.271-1.878,2.25-2.458
				c0.979-0.58,2.115-0.87,3.41-0.87c1.84,0,3.342,0.563,4.506,1.689c1.164,1.126,1.813,2.655,1.948,4.588l0.025,0.933
				c0,2.093-0.584,3.771-1.752,5.036c-1.168,1.265-2.735,1.897-4.702,1.897s-3.535-0.63-4.708-1.891
				c-1.172-1.26-1.758-2.975-1.758-5.143V-149.457z M-143.794-149.198c0,1.296,0.244,2.287,0.731,2.973
				c0.487,0.686,1.185,1.029,2.092,1.029c0.882,0,1.571-0.339,2.067-1.017c0.496-0.677,0.744-1.761,0.744-3.25
				c0-1.271-0.248-2.255-0.744-2.954c-0.496-0.698-1.193-1.048-2.092-1.048c-0.891,0-1.58,0.347-2.067,1.042
				S-143.794-150.654-143.794-149.198z"/>
		</g>
		<g>
			<path fill="#666666" d="M-132.84-149.457c0-1.353,0.26-2.559,0.781-3.617c0.521-1.059,1.271-1.878,2.25-2.458
				c0.979-0.58,2.115-0.87,3.41-0.87c1.84,0,3.342,0.563,4.506,1.689c1.164,1.126,1.813,2.655,1.948,4.588l0.025,0.933
				c0,2.093-0.584,3.771-1.752,5.036c-1.168,1.265-2.735,1.897-4.702,1.897s-3.535-0.63-4.708-1.891
				c-1.172-1.26-1.758-2.975-1.758-5.143V-149.457z M-129.198-149.198c0,1.296,0.244,2.287,0.731,2.973
				c0.487,0.686,1.185,1.029,2.092,1.029c0.882,0,1.571-0.339,2.067-1.017c0.496-0.677,0.744-1.761,0.744-3.25
				c0-1.271-0.248-2.255-0.744-2.954c-0.496-0.698-1.193-1.048-2.092-1.048c-0.891,0-1.58,0.347-2.067,1.042
				S-129.198-150.654-129.198-149.198z"/>
		</g>
		<g>
			<path fill="#666666" d="M-112.724-147.981l-1.311,1.311v4.16h-3.643v-19.361h3.643v10.727l0.706-0.907l3.492-4.097h4.374
				l-4.928,5.685l5.357,7.954h-4.185L-112.724-147.981z"/>
		</g>
		<g>
			<path fill="#666666" d="M-103.913-159.679c0-0.546,0.183-0.996,0.548-1.349c0.365-0.353,0.863-0.529,1.494-0.529
				c0.622,0,1.117,0.176,1.487,0.529c0.37,0.353,0.555,0.802,0.555,1.349c0,0.555-0.188,1.008-0.561,1.361
				c-0.374,0.353-0.868,0.529-1.481,0.529c-0.614,0-1.107-0.176-1.481-0.529C-103.726-158.67-103.913-159.124-103.913-159.679z
				 M-100.043-142.511h-3.655v-13.638h3.655V-142.511z"/>
		</g>
		<g>
			<path fill="#666666" d="M-90.766-142.259c-2,0-3.628-0.613-4.884-1.84c-1.256-1.227-1.884-2.861-1.884-4.903v-0.353
				c0-1.37,0.265-2.594,0.794-3.674c0.529-1.08,1.279-1.912,2.25-2.496c0.97-0.584,2.078-0.876,3.321-0.876
				c1.865,0,3.334,0.588,4.405,1.765c1.071,1.176,1.607,2.844,1.607,5.004v1.487h-8.685c0.118,0.891,0.473,1.605,1.065,2.143
				c0.592,0.538,1.342,0.807,2.25,0.807c1.403,0,2.5-0.508,3.29-1.525l1.79,2.004c-0.546,0.773-1.286,1.376-2.219,1.809
				S-89.632-142.259-90.766-142.259z M-91.182-153.465c-0.723,0-1.309,0.245-1.758,0.734c-0.45,0.49-0.737,1.19-0.863,2.102h5.067
				v-0.292c-0.017-0.81-0.235-1.437-0.655-1.88C-89.813-153.243-90.409-153.465-91.182-153.465z"/>
		</g>
		<g>
			<path fill="#666666" d="M-61.485-142.511h-3.782v-7.865h-7.374v7.865h-3.781v-18.353h3.781v7.437h7.374v-7.437h3.782V-142.511z"
				/>
		</g>
		<g>
			<path fill="#666666" d="M-58.448-159.679c0-0.546,0.183-0.996,0.548-1.349c0.365-0.353,0.863-0.529,1.494-0.529
				c0.622,0,1.117,0.176,1.487,0.529c0.37,0.353,0.555,0.802,0.555,1.349c0,0.555-0.188,1.008-0.561,1.361
				c-0.374,0.353-0.868,0.529-1.481,0.529c-0.614,0-1.107-0.176-1.481-0.529C-58.261-158.67-58.448-159.124-58.448-159.679z
				 M-54.578-142.511h-3.655v-13.638h3.655V-142.511z"/>
		</g>
		<g>
			<path fill="#666666" d="M-48.226-156.149l0.113,1.576c0.975-1.218,2.282-1.828,3.92-1.828c1.445,0,2.521,0.424,3.227,1.273
				s1.067,2.118,1.084,3.807v8.811h-3.643v-8.722c0-0.773-0.168-1.334-0.504-1.683c-0.336-0.349-0.895-0.523-1.676-0.523
				c-1.025,0-1.794,0.437-2.307,1.311v9.617h-3.643v-13.638H-48.226z"/>
		</g>
		<g>
			<path fill="#666666" d="M-25.26-147.465l1.79-8.685h3.517l-3.479,13.638h-3.05l-2.584-8.584l-2.584,8.584h-3.038l-3.479-13.638
				h3.517l1.777,8.672l2.496-8.672h2.634L-25.26-147.465z"/>
		</g>
		<g>
			<path fill="#666666" d="M-11.874-142.259c-2,0-3.628-0.613-4.884-1.84c-1.256-1.227-1.884-2.861-1.884-4.903v-0.353
				c0-1.37,0.265-2.594,0.794-3.674c0.529-1.08,1.279-1.912,2.25-2.496c0.97-0.584,2.078-0.876,3.321-0.876
				c1.865,0,3.334,0.588,4.405,1.765c1.071,1.176,1.607,2.844,1.607,5.004v1.487h-8.685c0.118,0.891,0.473,1.605,1.065,2.143
				c0.592,0.538,1.342,0.807,2.25,0.807c1.403,0,2.5-0.508,3.29-1.525l1.79,2.004c-0.546,0.773-1.286,1.376-2.219,1.809
				S-10.739-142.259-11.874-142.259z M-12.29-153.465c-0.723,0-1.309,0.245-1.758,0.734c-0.45,0.49-0.737,1.19-0.863,2.102h5.067
				v-0.292c-0.017-0.81-0.235-1.437-0.655-1.88C-10.92-153.243-11.517-153.465-12.29-153.465z"/>
		</g>
		<g>
			<path fill="#666666" d="M-4.223-159.679c0-0.546,0.183-0.996,0.548-1.349c0.365-0.353,0.863-0.529,1.494-0.529
				c0.622,0,1.117,0.176,1.487,0.529c0.37,0.353,0.555,0.802,0.555,1.349c0,0.555-0.188,1.008-0.561,1.361
				c-0.374,0.353-0.868,0.529-1.481,0.529c-0.614,0-1.107-0.176-1.481-0.529C-4.036-158.67-4.223-159.124-4.223-159.679z
				 M-0.353-142.511h-3.655v-13.638h3.655V-142.511z"/>
		</g>
		<g>
			<path fill="#666666" d="M10.033-146.28c0-0.445-0.221-0.796-0.662-1.053c-0.441-0.256-1.149-0.485-2.124-0.687
				c-3.244-0.681-4.866-2.059-4.866-4.134c0-1.21,0.502-2.22,1.506-3.031c1.004-0.811,2.317-1.216,3.939-1.216
				c1.731,0,3.115,0.408,4.153,1.223c1.038,0.815,1.557,1.874,1.557,3.176H9.895c0-0.521-0.168-0.952-0.504-1.292
				s-0.861-0.511-1.576-0.511c-0.613,0-1.088,0.139-1.424,0.416s-0.504,0.63-0.504,1.059c0,0.403,0.191,0.729,0.573,0.977
				c0.382,0.248,1.027,0.462,1.935,0.643c0.907,0.181,1.672,0.384,2.294,0.611c1.924,0.706,2.886,1.928,2.886,3.668
				c0,1.244-0.534,2.25-1.601,3.019c-1.067,0.769-2.445,1.153-4.134,1.153c-1.143,0-2.158-0.204-3.044-0.611
				c-0.887-0.407-1.582-0.966-2.086-1.676c-0.504-0.71-0.756-1.477-0.756-2.3h3.454c0.033,0.647,0.273,1.143,0.718,1.487
				c0.445,0.345,1.042,0.517,1.79,0.517c0.697,0,1.225-0.132,1.582-0.397C9.854-145.505,10.033-145.852,10.033-146.28z"/>
		</g>
	</g>
	<g>
		<g>
			<path fill="#666666" d="M-88.152-107.623h-6.819v5.576h7.921v1.697h-9.997v-15.735h9.888v1.697h-7.813v5.068h6.819V-107.623z"/>
		</g>
		<g>
			<path fill="#666666" d="M-79.128-110.249c-0.303-0.05-0.631-0.076-0.983-0.076c-1.312,0-2.201,0.559-2.669,1.675v8.3h-1.999
				v-11.693h1.945l0.033,1.351c0.655-1.044,1.585-1.567,2.788-1.567c0.389,0,0.684,0.051,0.886,0.151V-110.249z"/>
		</g>
		<g>
			<path fill="#666666" d="M-76.145-100.35v-10.147h-1.848v-1.545h1.848v-1.2c0-1.253,0.335-2.222,1.005-2.907
				s1.617-1.027,2.842-1.027c0.461,0,0.918,0.061,1.372,0.183l-0.108,1.611c-0.339-0.065-0.699-0.097-1.081-0.097
				c-0.648,0-1.149,0.189-1.502,0.569c-0.354,0.379-0.53,0.923-0.53,1.631v1.236h2.497v1.545h-2.497v10.147H-76.145z"/>
		</g>
		<g>
			<path fill="#666666" d="M-69.975-106.305c0-1.146,0.225-2.176,0.675-3.091c0.45-0.915,1.077-1.621,1.88-2.118
				s1.72-0.746,2.75-0.746c1.592,0,2.88,0.551,3.863,1.653c0.983,1.103,1.475,2.569,1.475,4.398v0.141
				c0,1.139-0.218,2.16-0.654,3.064c-0.436,0.904-1.059,1.608-1.87,2.112c-0.81,0.504-1.742,0.757-2.793,0.757
				c-1.585,0-2.869-0.551-3.853-1.654c-0.983-1.102-1.475-2.561-1.475-4.376V-106.305z M-67.964-106.067
				c0,1.297,0.301,2.338,0.902,3.123c0.601,0.786,1.406,1.178,2.415,1.178c1.016,0,1.823-0.398,2.421-1.194
				c0.598-0.796,0.897-1.911,0.897-3.345c0-1.282-0.305-2.322-0.913-3.118c-0.609-0.796-1.417-1.194-2.426-1.194
				c-0.987,0-1.783,0.393-2.388,1.178C-67.662-108.653-67.964-107.529-67.964-106.067z"/>
		</g>
		<g>
			<path fill="#666666" d="M-51.171-110.249c-0.303-0.05-0.631-0.076-0.983-0.076c-1.312,0-2.201,0.559-2.669,1.675v8.3h-1.999
				v-11.693h1.945l0.033,1.351c0.655-1.044,1.585-1.567,2.788-1.567c0.389,0,0.684,0.051,0.886,0.151V-110.249z"/>
		</g>
		<g>
			<path fill="#666666" d="M-50.025-106.294c0-1.794,0.425-3.236,1.275-4.328c0.85-1.091,1.963-1.637,3.339-1.637
				c1.369,0,2.453,0.469,3.253,1.405v-6.095h1.999v16.599h-1.837l-0.097-1.253c-0.8,0.979-1.913,1.47-3.339,1.47
				c-1.354,0-2.458-0.555-3.313-1.665c-0.854-1.109-1.28-2.557-1.28-4.344V-106.294z M-48.026-106.067
				c0,1.326,0.274,2.363,0.821,3.112c0.547,0.75,1.304,1.124,2.27,1.124c1.268,0,2.194-0.569,2.777-1.708v-5.371
				c-0.598-1.102-1.517-1.653-2.756-1.653c-0.98,0-1.744,0.378-2.291,1.135S-48.026-107.551-48.026-106.067z"/>
		</g>
		<g>
			<path fill="#666666" d="M-32.205-100.134c-1.585,0-2.875-0.521-3.869-1.562c-0.995-1.041-1.492-2.434-1.492-4.177v-0.367
				c0-1.16,0.222-2.195,0.665-3.107c0.443-0.912,1.063-1.625,1.859-2.14s1.659-0.773,2.588-0.773c1.52,0,2.702,0.501,3.544,1.502
				c0.843,1.001,1.265,2.435,1.265,4.301v0.832h-7.921c0.029,1.153,0.365,2.084,1.01,2.794c0.645,0.709,1.464,1.064,2.458,1.064
				c0.706,0,1.304-0.144,1.794-0.433c0.49-0.288,0.918-0.67,1.286-1.146l1.221,0.951C-28.776-100.887-30.246-100.134-32.205-100.134
				z M-32.454-110.617c-0.807,0-1.484,0.294-2.032,0.881c-0.547,0.587-0.886,1.41-1.016,2.469h5.857v-0.151
				c-0.058-1.016-0.332-1.803-0.821-2.361C-30.955-110.337-31.618-110.617-32.454-110.617z"/>
		</g>
		<g>
			<path fill="#666666" d="M-19.68-110.249c-0.303-0.05-0.631-0.076-0.983-0.076c-1.312,0-2.201,0.559-2.669,1.675v8.3h-1.999
				v-11.693h1.945l0.033,1.351c0.655-1.044,1.585-1.567,2.788-1.567c0.389,0,0.684,0.051,0.886,0.151V-110.249z"/>
		</g>
		<g>
			<path fill="#666666" d="M-15.671-100.35h-1.999v-16.599h1.999V-100.35z"/>
		</g>
		<g>
			<path fill="#666666" d="M-12.461-115.145c0-0.324,0.099-0.598,0.297-0.821s0.492-0.335,0.881-0.335s0.685,0.112,0.886,0.335
				s0.303,0.497,0.303,0.821s-0.101,0.594-0.303,0.811c-0.202,0.216-0.497,0.324-0.886,0.324s-0.683-0.108-0.881-0.324
				C-12.362-114.55-12.461-114.82-12.461-115.145z M-10.3-100.35h-1.999v-11.693h1.999V-100.35z"/>
		</g>
		<g>
			<path fill="#666666" d="M-2.411-101.766c0.713,0,1.336-0.216,1.87-0.648c0.533-0.433,0.828-0.973,0.886-1.621h1.891
				c-0.036,0.67-0.267,1.308-0.692,1.913c-0.425,0.605-0.992,1.088-1.702,1.448c-0.71,0.36-1.461,0.541-2.253,0.541
				c-1.592,0-2.858-0.531-3.799-1.594c-0.94-1.063-1.41-2.516-1.41-4.36v-0.335c0-1.139,0.209-2.151,0.627-3.037
				c0.417-0.886,1.018-1.574,1.799-2.064c0.782-0.49,1.706-0.735,2.772-0.735c1.311,0,2.401,0.393,3.269,1.178
				s1.331,1.805,1.389,3.058H0.345c-0.058-0.756-0.344-1.378-0.859-1.864s-1.151-0.729-1.907-0.729
				c-1.016,0-1.803,0.366-2.361,1.097c-0.559,0.731-0.837,1.789-0.837,3.172v0.378c0,1.347,0.277,2.385,0.832,3.112
				C-4.233-102.129-3.441-101.766-2.411-101.766z"/>
		</g>
		<g>
			<path fill="#666666" d="M6.483-110.627c0.886-1.088,2.039-1.632,3.458-1.632c2.471,0,3.718,1.394,3.739,4.182v7.727h-1.999
				v-7.738c-0.007-0.843-0.2-1.466-0.578-1.87c-0.378-0.403-0.967-0.605-1.767-0.605c-0.648,0-1.218,0.173-1.708,0.519
				c-0.49,0.346-0.872,0.8-1.146,1.362v8.332H4.484v-16.599h1.999V-110.627z"/>
		</g>
	</g>
	<g>
		<g>
			<path fill="#666666" d="M-92.41-75.322c-1.779-0.511-3.075-1.14-3.885-1.886c-0.811-0.746-1.216-1.666-1.216-2.761
				c0-1.239,0.495-2.264,1.486-3.074c0.99-0.811,2.278-1.216,3.863-1.216c1.081,0,2.044,0.209,2.891,0.626
				c0.846,0.418,1.502,0.995,1.967,1.729c0.464,0.735,0.697,1.538,0.697,2.41h-2.085c0-0.954-0.303-1.705-0.908-2.25
				c-0.605-0.545-1.459-0.818-2.562-0.818c-1.023,0-1.821,0.226-2.394,0.677s-0.859,1.077-0.859,1.878
				c0,0.643,0.272,1.186,0.816,1.629s1.47,0.85,2.777,1.218c1.308,0.368,2.331,0.773,3.069,1.217
				c0.738,0.443,1.286,0.96,1.643,1.551s0.535,1.286,0.535,2.085c0,1.275-0.498,2.296-1.492,3.064
				c-0.994,0.767-2.323,1.151-3.988,1.151c-1.081,0-2.089-0.208-3.026-0.622s-1.659-0.981-2.167-1.702
				c-0.508-0.72-0.762-1.538-0.762-2.453h2.085c0,0.951,0.351,1.702,1.054,2.253s1.641,0.827,2.815,0.827
				c1.095,0,1.935-0.223,2.518-0.67s0.875-1.056,0.875-1.827c0-0.771-0.27-1.367-0.811-1.789
				C-90.011-74.495-90.99-74.911-92.41-75.322z"/>
		</g>
		<g>
			<path fill="#666666" d="M-81.516-82.833v2.832h2.183v1.545h-2.183v7.26c0,0.469,0.097,0.821,0.292,1.055
				c0.195,0.234,0.526,0.352,0.994,0.352c0.231,0,0.548-0.043,0.951-0.13v1.612c-0.526,0.143-1.038,0.215-1.535,0.215
				c-0.893,0-1.567-0.271-2.021-0.811c-0.454-0.541-0.681-1.308-0.681-2.302v-7.251h-2.129v-1.545h2.129v-2.832H-81.516z"/>
		</g>
		<g>
			<path fill="#666666" d="M-69.78-68.308c-0.115-0.23-0.209-0.641-0.281-1.232c-0.929,0.965-2.039,1.448-3.328,1.448
				c-1.153,0-2.099-0.326-2.837-0.978c-0.739-0.652-1.108-1.479-1.108-2.48c0-1.217,0.463-2.163,1.389-2.836
				c0.926-0.674,2.228-1.011,3.907-1.011h1.945v-0.918c0-0.699-0.209-1.255-0.627-1.669c-0.418-0.415-1.034-0.622-1.848-0.622
				c-0.713,0-1.312,0.18-1.794,0.541c-0.483,0.36-0.724,0.796-0.724,1.308h-2.01c0-0.584,0.207-1.147,0.622-1.691
				c0.414-0.544,0.976-0.975,1.686-1.292c0.709-0.317,1.489-0.476,2.339-0.476c1.347,0,2.403,0.337,3.167,1.011
				c0.764,0.673,1.16,1.601,1.189,2.783v5.382c0,1.073,0.137,1.927,0.411,2.561v0.173H-69.78z M-73.098-69.832
				c0.627,0,1.221-0.162,1.783-0.486s0.969-0.746,1.221-1.264v-2.399h-1.567c-2.45,0-3.674,0.717-3.674,2.15
				c0,0.627,0.209,1.117,0.627,1.47C-74.291-70.008-73.754-69.832-73.098-69.832z"/>
		</g>
		<g>
			<path fill="#666666" d="M-62.248-82.833v2.832h2.183v1.545h-2.183v7.26c0,0.469,0.097,0.821,0.292,1.055
				c0.195,0.234,0.526,0.352,0.994,0.352c0.231,0,0.548-0.043,0.951-0.13v1.612c-0.526,0.143-1.038,0.215-1.535,0.215
				c-0.893,0-1.567-0.271-2.021-0.811c-0.454-0.541-0.681-1.308-0.681-2.302v-7.251h-2.129v-1.545h2.129v-2.832H-62.248z"/>
		</g>
		<g>
			<path fill="#666666" d="M-57.72-83.103c0-0.324,0.099-0.598,0.297-0.821s0.492-0.335,0.881-0.335s0.685,0.112,0.886,0.335
				s0.303,0.497,0.303,0.821s-0.101,0.594-0.303,0.811c-0.202,0.216-0.497,0.324-0.886,0.324s-0.683-0.108-0.881-0.324
				C-57.621-82.508-57.72-82.778-57.72-83.103z M-55.559-68.308h-1.999v-11.693h1.999V-68.308z"/>
		</g>
		<g>
			<path fill="#666666" d="M-45.551-71.41c0-0.541-0.204-0.96-0.611-1.259c-0.407-0.299-1.117-0.557-2.129-0.773
				c-1.012-0.216-1.815-0.476-2.41-0.778c-0.594-0.303-1.034-0.663-1.318-1.081c-0.285-0.417-0.427-0.915-0.427-1.491
				c0-0.958,0.405-1.769,1.216-2.432c0.811-0.663,1.846-0.994,3.107-0.994c1.326,0,2.401,0.342,3.226,1.027
				c0.825,0.685,1.237,1.56,1.237,2.626h-2.01c0-0.547-0.232-1.02-0.697-1.416c-0.465-0.396-1.05-0.595-1.756-0.595
				c-0.728,0-1.296,0.159-1.708,0.476c-0.411,0.317-0.616,0.731-0.616,1.243c0,0.483,0.191,0.847,0.573,1.092
				c0.382,0.245,1.072,0.479,2.069,0.702c0.998,0.224,1.807,0.49,2.426,0.8c0.62,0.31,1.079,0.683,1.378,1.119
				c0.299,0.436,0.448,0.967,0.448,1.594c0,1.045-0.418,1.882-1.253,2.513c-0.836,0.63-1.92,0.946-3.253,0.946
				c-0.937,0-1.765-0.166-2.485-0.497c-0.721-0.332-1.285-0.794-1.691-1.389c-0.407-0.595-0.61-1.238-0.61-1.929h1.999
				c0.036,0.67,0.304,1.201,0.805,1.594c0.5,0.393,1.162,0.589,1.983,0.589c0.756,0,1.363-0.153,1.821-0.459
				S-45.551-70.898-45.551-71.41z"/>
		</g>
		<g>
			<path fill="#666666" d="M-38.235-82.833v2.832h2.183v1.545h-2.183v7.26c0,0.469,0.097,0.821,0.292,1.055
				c0.195,0.234,0.526,0.352,0.994,0.352c0.231,0,0.548-0.043,0.951-0.13v1.612c-0.526,0.143-1.038,0.215-1.535,0.215
				c-0.893,0-1.567-0.271-2.021-0.811c-0.454-0.541-0.681-1.308-0.681-2.302v-7.251h-2.129v-1.545h2.129v-2.832H-38.235z"/>
		</g>
		<g>
			<path fill="#666666" d="M-33.707-83.103c0-0.324,0.099-0.598,0.297-0.821s0.492-0.335,0.881-0.335s0.685,0.112,0.886,0.335
				s0.303,0.497,0.303,0.821s-0.101,0.594-0.303,0.811c-0.202,0.216-0.497,0.324-0.886,0.324s-0.683-0.108-0.881-0.324
				C-33.608-82.508-33.707-82.778-33.707-83.103z M-31.546-68.308h-1.999v-11.693h1.999V-68.308z"/>
		</g>
		<g>
			<path fill="#666666" d="M-25.083-73.722l-1.253,1.308v4.106h-1.999v-16.599h1.999v10.04l1.07-1.286l3.642-3.847h2.432
				l-4.55,4.885l5.079,6.808h-2.345L-25.083-73.722z"/>
		</g>
	</g>
	<g>
		<g>
			<path fill="#666666" d="M-94.366-49.934l5.144,12.839l5.144-12.839h2.691v15.735h-2.075v-6.127l0.194-6.614l-5.166,12.741h-1.589
				l-5.155-12.709l0.206,6.582v6.127h-2.075v-15.735H-94.366z"/>
		</g>
		<g>
			<path fill="#666666" d="M-70.817-34.199c-0.115-0.23-0.209-0.641-0.281-1.232c-0.929,0.965-2.039,1.448-3.328,1.448
				c-1.153,0-2.099-0.326-2.837-0.978c-0.739-0.652-1.108-1.479-1.108-2.48c0-1.217,0.463-2.163,1.389-2.836
				c0.926-0.674,2.228-1.011,3.907-1.011h1.945v-0.918c0-0.699-0.209-1.255-0.627-1.669c-0.418-0.415-1.034-0.622-1.848-0.622
				c-0.713,0-1.312,0.18-1.794,0.541c-0.483,0.36-0.724,0.796-0.724,1.308h-2.01c0-0.584,0.207-1.147,0.622-1.691
				c0.414-0.544,0.976-0.975,1.686-1.292c0.709-0.317,1.489-0.476,2.339-0.476c1.347,0,2.403,0.337,3.167,1.011
				c0.764,0.673,1.16,1.601,1.189,2.783v5.382c0,1.073,0.137,1.927,0.411,2.561v0.173H-70.817z M-74.135-35.723
				c0.627,0,1.221-0.162,1.783-0.486s0.969-0.746,1.221-1.264v-2.399h-1.567c-2.45,0-3.674,0.717-3.674,2.15
				c0,0.627,0.209,1.117,0.627,1.47C-75.328-35.899-74.791-35.723-74.135-35.723z"/>
		</g>
		<g>
			<path fill="#666666" d="M-60.346-44.098c-0.303-0.05-0.631-0.076-0.983-0.076c-1.312,0-2.201,0.559-2.669,1.675v8.3h-1.999
				v-11.693h1.945l0.033,1.351c0.655-1.044,1.585-1.567,2.788-1.567c0.389,0,0.684,0.051,0.886,0.151V-44.098z"/>
		</g>
		<g>
			<path fill="#666666" d="M-55.245-39.613l-1.253,1.308v4.106h-1.999v-16.599h1.999v10.04l1.07-1.286l3.642-3.847h2.432
				l-4.55,4.885l5.079,6.808h-2.345L-55.245-39.613z"/>
		</g>
		<g>
			<path fill="#666666" d="M-42.655-33.982c-1.585,0-2.875-0.521-3.869-1.562c-0.995-1.041-1.492-2.434-1.492-4.177v-0.367
				c0-1.16,0.222-2.195,0.665-3.107c0.443-0.912,1.063-1.625,1.859-2.14s1.659-0.773,2.588-0.773c1.52,0,2.702,0.501,3.544,1.502
				c0.843,1.001,1.265,2.435,1.265,4.301v0.832h-7.921c0.029,1.153,0.365,2.084,1.01,2.794c0.645,0.709,1.464,1.064,2.458,1.064
				c0.706,0,1.304-0.144,1.794-0.433c0.49-0.288,0.918-0.67,1.286-1.146l1.221,0.951C-39.226-34.735-40.696-33.982-42.655-33.982z
				 M-42.904-44.465c-0.807,0-1.484,0.294-2.032,0.881c-0.547,0.587-0.886,1.41-1.016,2.469h5.857v-0.151
				c-0.058-1.016-0.332-1.803-0.821-2.361C-41.405-44.186-42.068-44.465-42.904-44.465z"/>
		</g>
		<g>
			<path fill="#666666" d="M-33.069-48.723v2.832h2.183v1.545h-2.183v7.26c0,0.469,0.097,0.821,0.292,1.055
				c0.195,0.234,0.526,0.352,0.994,0.352c0.231,0,0.548-0.043,0.951-0.13v1.612c-0.526,0.143-1.038,0.215-1.535,0.215
				c-0.893,0-1.567-0.271-2.021-0.811c-0.454-0.541-0.681-1.308-0.681-2.302v-7.251h-2.129v-1.545h2.129v-2.832H-33.069z"/>
		</g>
		<g>
			<path fill="#666666" d="M-28.542-48.993c0-0.324,0.099-0.598,0.297-0.821s0.492-0.335,0.881-0.335s0.685,0.112,0.886,0.335
				s0.303,0.497,0.303,0.821s-0.101,0.594-0.303,0.811c-0.202,0.216-0.497,0.324-0.886,0.324s-0.683-0.108-0.881-0.324
				C-28.443-48.399-28.542-48.669-28.542-48.993z M-26.38-34.199h-1.999v-11.693h1.999V-34.199z"/>
		</g>
		<g>
			<path fill="#666666" d="M-21.29-45.892l0.064,1.47c0.894-1.124,2.061-1.686,3.501-1.686c2.471,0,3.718,1.394,3.739,4.182v7.727
				h-1.999v-7.738c-0.007-0.843-0.2-1.466-0.578-1.87c-0.378-0.403-0.967-0.605-1.767-0.605c-0.648,0-1.218,0.173-1.708,0.519
				c-0.49,0.346-0.872,0.8-1.146,1.362v8.332h-1.999v-11.693H-21.29z"/>
		</g>
		<g>
			<path fill="#666666" d="M-11.445-40.143c0-1.823,0.421-3.272,1.264-4.35s1.959-1.616,3.35-1.616c1.427,0,2.54,0.504,3.339,1.513
				l0.097-1.297h1.827v11.412c0,1.513-0.449,2.705-1.346,3.577s-2.102,1.308-3.615,1.308c-0.843,0-1.668-0.18-2.475-0.54
				c-0.807-0.36-1.423-0.854-1.848-1.48l1.038-1.2c0.857,1.059,1.905,1.588,3.145,1.588c0.973,0,1.731-0.274,2.275-0.821
				s0.816-1.318,0.816-2.313v-1.005c-0.8,0.922-1.891,1.383-3.274,1.383c-1.369,0-2.477-0.551-3.323-1.654
				C-11.022-36.738-11.445-38.24-11.445-40.143z M-9.436-39.916c0,1.318,0.271,2.354,0.811,3.107
				c0.541,0.753,1.297,1.129,2.27,1.129c1.261,0,2.187-0.573,2.777-1.718v-5.339c-0.612-1.116-1.531-1.675-2.756-1.675
				c-0.973,0-1.732,0.378-2.28,1.135C-9.162-42.52-9.436-41.399-9.436-39.916z"/>
		</g>
	</g>
	<g>
		<circle fill="#48826D" cx="-150.85" cy="-107.454" r="9.785"/>
	</g>
	<g>
		<g>
			<path fill="#666666" d="M-125.52-62.378h-26.33c-6.71,0-12.17-5.459-12.17-12.17c0-6.705,5.459-12.16,12.17-12.16h26.33
				c6.71,0,12.17,5.455,12.17,12.16C-113.35-67.838-118.81-62.378-125.52-62.378z M-151.85-85.708c-6.159,0-11.17,5.006-11.17,11.16
				c0,6.159,5.011,11.17,11.17,11.17h26.33c6.159,0,11.17-5.011,11.17-11.17c0-6.154-5.011-11.16-11.17-11.16H-151.85z"/>
		</g>
	</g>
	<g>
		<circle fill="#666666" cx="-127.243" cy="-74.545" r="9.785"/>
	</g>
	<g>
		<g>
			<path fill="#666666" d="M-125.52-27.402h-26.33c-6.71,0-12.17-5.459-12.17-12.17c0-6.705,5.459-12.16,12.17-12.16h26.33
				c6.71,0,12.17,5.455,12.17,12.16C-113.35-32.861-118.81-27.402-125.52-27.402z M-151.85-50.732c-6.159,0-11.17,5.006-11.17,11.16
				c0,6.159,5.011,11.17,11.17,11.17h26.33c6.159,0,11.17-5.011,11.17-11.17c0-6.154-5.011-11.16-11.17-11.16H-151.85z"/>
		</g>
	</g>
	<g>
		<circle fill="#666666" cx="-127.243" cy="-39.568" r="9.785"/>
	</g>
	<g>
		<g>
			<path fill="#48826D" d="M16.785,7.963c0,6.627-5.373,12-12,12h-160.069c-6.627,0-12-5.373-12-12v-2.88c0-6.627,5.373-12,12-12
				H4.785c6.627,0,12,5.373,12,12V7.963z"/>
		</g>
		<g>
			<g>
				<path fill="#FFFFFF" d="M-128.749,13.009c-0.091-0.182-0.165-0.505-0.222-0.97c-0.731,0.76-1.604,1.14-2.62,1.14
					c-0.907,0-1.651-0.256-2.232-0.77s-0.872-1.164-0.872-1.952c0-0.958,0.364-1.703,1.093-2.233
					c0.729-0.53,1.754-0.795,3.075-0.795h1.531V6.706c0-0.55-0.164-0.988-0.493-1.314s-0.813-0.489-1.455-0.489
					c-0.561,0-1.032,0.142-1.412,0.425c-0.38,0.284-0.569,0.627-0.569,1.029h-1.582c0-0.459,0.163-0.903,0.489-1.331
					c0.325-0.428,0.768-0.767,1.326-1.017s1.173-0.374,1.842-0.374c1.061,0,1.892,0.265,2.492,0.795
					c0.602,0.53,0.913,1.261,0.936,2.19v4.236c0,0.845,0.108,1.517,0.323,2.016v0.136H-128.749z M-131.36,11.81
					c0.493,0,0.961-0.128,1.403-0.383c0.442-0.255,0.763-0.587,0.961-0.995V8.543h-1.233c-1.928,0-2.892,0.564-2.892,1.693
					c0,0.493,0.164,0.879,0.493,1.157C-132.3,11.671-131.877,11.81-131.36,11.81z"/>
			</g>
			<g>
				<path fill="#FFFFFF" d="M-123.246,13.009h-1.573V-0.056h1.573V13.009z"/>
			</g>
			<g>
				<path fill="#FFFFFF" d="M-119.019,13.009h-1.573V-0.056h1.573V13.009z"/>
			</g>
			<g>
				<path fill="#FFFFFF" d="M-112.682,13.179c-1.247,0-2.263-0.409-3.045-1.229c-0.783-0.819-1.174-1.915-1.174-3.288V8.374
					c0-0.913,0.174-1.728,0.522-2.446c0.35-0.717,0.837-1.278,1.464-1.684c0.626-0.405,1.306-0.608,2.037-0.608
					c1.196,0,2.126,0.394,2.79,1.182c0.663,0.788,0.995,1.917,0.995,3.385v0.655h-6.235c0.022,0.907,0.288,1.64,0.796,2.199
					c0.507,0.559,1.152,0.838,1.935,0.838c0.556,0,1.026-0.113,1.412-0.34c0.386-0.227,0.723-0.527,1.013-0.901l0.961,0.749
					C-109.982,12.587-111.139,13.179-112.682,13.179z M-112.877,4.928c-0.636,0-1.169,0.231-1.6,0.693
					c-0.431,0.462-0.697,1.11-0.8,1.944h4.61V7.446c-0.045-0.8-0.261-1.419-0.646-1.858S-112.22,4.928-112.877,4.928z"/>
			</g>
			<g>
				<path fill="#FFFFFF" d="M-97.276,13.009c-0.091-0.182-0.165-0.505-0.222-0.97c-0.731,0.76-1.604,1.14-2.62,1.14
					c-0.907,0-1.651-0.256-2.232-0.77s-0.872-1.164-0.872-1.952c0-0.958,0.364-1.703,1.093-2.233
					c0.729-0.53,1.754-0.795,3.075-0.795h1.531V6.706c0-0.55-0.164-0.988-0.493-1.314s-0.813-0.489-1.455-0.489
					c-0.561,0-1.032,0.142-1.412,0.425c-0.38,0.284-0.569,0.627-0.569,1.029h-1.582c0-0.459,0.163-0.903,0.489-1.331
					c0.325-0.428,0.768-0.767,1.326-1.017s1.173-0.374,1.842-0.374c1.061,0,1.892,0.265,2.492,0.795
					c0.602,0.53,0.913,1.261,0.936,2.19v4.236c0,0.845,0.108,1.517,0.323,2.016v0.136H-97.276z M-99.888,11.81
					c0.493,0,0.961-0.128,1.403-0.383c0.442-0.255,0.763-0.587,0.961-0.995V8.543h-1.233c-1.928,0-2.892,0.564-2.892,1.693
					c0,0.493,0.164,0.879,0.493,1.157C-100.827,11.671-100.404,11.81-99.888,11.81z"/>
			</g>
			<g>
				<path fill="#FFFFFF" d="M-90.914,8.748l-0.987,1.029v3.232h-1.573V-0.056h1.573v7.902l0.843-1.012l2.866-3.028h1.914
					l-3.581,3.845l3.998,5.359h-1.847L-90.914,8.748z"/>
			</g>
			<g>
				<path fill="#FFFFFF" d="M-83.174,11.725h5.385v1.284h-7.307v-1.157l5.078-6.746h-5.002V3.806h6.976V4.92L-83.174,11.725z"/>
			</g>
			<g>
				<path fill="#FFFFFF" d="M-72.337,13.179c-1.247,0-2.263-0.409-3.045-1.229c-0.783-0.819-1.174-1.915-1.174-3.288V8.374
					c0-0.913,0.174-1.728,0.522-2.446c0.35-0.717,0.837-1.278,1.464-1.684c0.626-0.405,1.306-0.608,2.037-0.608
					c1.196,0,2.126,0.394,2.79,1.182c0.663,0.788,0.995,1.917,0.995,3.385v0.655h-6.235c0.022,0.907,0.288,1.64,0.796,2.199
					c0.507,0.559,1.152,0.838,1.935,0.838c0.556,0,1.026-0.113,1.412-0.34c0.386-0.227,0.723-0.527,1.013-0.901l0.961,0.749
					C-69.638,12.587-70.794,13.179-72.337,13.179z M-72.532,4.928c-0.636,0-1.169,0.231-1.6,0.693
					c-0.431,0.462-0.697,1.11-0.8,1.944h4.61V7.446c-0.045-0.8-0.261-1.419-0.646-1.858S-71.875,4.928-72.532,4.928z"/>
			</g>
			<g>
				<path fill="#FFFFFF" d="M-59.152,8.51c0,1.4-0.32,2.529-0.961,3.385c-0.642,0.856-1.509,1.284-2.604,1.284
					c-1.117,0-1.996-0.354-2.637-1.063v4.432h-1.573V3.806h1.438l0.076,1.021c0.641-0.793,1.531-1.19,2.671-1.19
					c1.105,0,1.98,0.417,2.624,1.25c0.644,0.834,0.966,1.994,0.966,3.479V8.51z M-60.727,8.331c0-1.038-0.221-1.857-0.663-2.458
					s-1.049-0.901-1.82-0.901c-0.952,0-1.667,0.422-2.144,1.267v4.398c0.471,0.839,1.191,1.259,2.16,1.259
					c0.755,0,1.354-0.299,1.8-0.897S-60.727,9.51-60.727,8.331z"/>
			</g>
			<g>
				<path fill="#FFFFFF" d="M-55.019,1.577v2.229h1.718v1.216h-1.718v5.715c0,0.369,0.076,0.646,0.229,0.831
					c0.153,0.184,0.414,0.276,0.782,0.276c0.182,0,0.432-0.034,0.749-0.102v1.269c-0.414,0.113-0.816,0.169-1.208,0.169
					c-0.703,0-1.233-0.212-1.591-0.638s-0.535-1.029-0.535-1.812V5.022h-1.676V3.806h1.676V1.577H-55.019z"/>
			</g>
			<g>
				<path fill="#FFFFFF" d="M-51.454,1.364c0-0.255,0.078-0.471,0.233-0.646c0.156-0.176,0.388-0.264,0.693-0.264
					c0.307,0,0.539,0.088,0.698,0.264c0.158,0.176,0.237,0.392,0.237,0.646c0,0.255-0.079,0.468-0.237,0.638
					c-0.159,0.17-0.392,0.255-0.698,0.255c-0.306,0-0.537-0.085-0.693-0.255C-51.376,1.832-51.454,1.62-51.454,1.364z
					 M-49.753,13.009h-1.573V3.806h1.573V13.009z"/>
			</g>
			<g>
				<path fill="#FFFFFF" d="M-43.416,13.179c-1.247,0-2.263-0.409-3.045-1.229c-0.783-0.819-1.174-1.915-1.174-3.288V8.374
					c0-0.913,0.174-1.728,0.522-2.446c0.35-0.717,0.837-1.278,1.464-1.684c0.626-0.405,1.306-0.608,2.037-0.608
					c1.196,0,2.126,0.394,2.79,1.182c0.663,0.788,0.995,1.917,0.995,3.385v0.655h-6.235c0.022,0.907,0.288,1.64,0.796,2.199
					c0.507,0.559,1.152,0.838,1.935,0.838c0.556,0,1.026-0.113,1.412-0.34c0.386-0.227,0.723-0.527,1.013-0.901l0.961,0.749
					C-40.717,12.587-41.873,13.179-43.416,13.179z M-43.611,4.928c-0.636,0-1.169,0.231-1.6,0.693
					c-0.431,0.462-0.697,1.11-0.8,1.944h4.61V7.446c-0.045-0.8-0.261-1.419-0.646-1.858S-42.954,4.928-43.611,4.928z"/>
			</g>
			<g>
				<path fill="#FFFFFF" d="M-33.558,5.218c-0.238-0.04-0.496-0.06-0.773-0.06c-1.032,0-1.733,0.439-2.102,1.318v6.533h-1.573V3.806
					h1.531l0.025,1.063c0.516-0.822,1.247-1.233,2.194-1.233c0.306,0,0.539,0.04,0.697,0.119V5.218z"/>
			</g>
			<g>
				<path fill="#FFFFFF" d="M-28.454,13.179c-1.247,0-2.263-0.409-3.045-1.229c-0.783-0.819-1.174-1.915-1.174-3.288V8.374
					c0-0.913,0.174-1.728,0.522-2.446c0.35-0.717,0.837-1.278,1.464-1.684c0.626-0.405,1.306-0.608,2.037-0.608
					c1.196,0,2.126,0.394,2.79,1.182c0.663,0.788,0.995,1.917,0.995,3.385v0.655H-31.1c0.022,0.907,0.288,1.64,0.796,2.199
					c0.507,0.559,1.152,0.838,1.935,0.838c0.556,0,1.026-0.113,1.412-0.34c0.386-0.227,0.723-0.527,1.013-0.901l0.961,0.749
					C-25.755,12.587-26.911,13.179-28.454,13.179z M-28.649,4.928c-0.636,0-1.169,0.231-1.6,0.693
					c-0.431,0.462-0.697,1.11-0.8,1.944h4.61V7.446c-0.045-0.8-0.261-1.419-0.646-1.858S-27.992,4.928-28.649,4.928z"/>
			</g>
			<g>
				<path fill="#FFFFFF" d="M-21.556,3.806l0.052,1.157c0.703-0.885,1.621-1.327,2.756-1.327c1.945,0,2.926,1.097,2.943,3.292v6.082
					h-1.574v-6.09c-0.006-0.664-0.157-1.154-0.455-1.472c-0.298-0.317-0.761-0.476-1.391-0.476c-0.511,0-0.958,0.136-1.344,0.408
					c-0.386,0.272-0.687,0.629-0.901,1.072v6.558h-1.574V3.806H-21.556z"/>
			</g>
		</g>
	</g>
	<g>
		<g>
			<path fill="#666666" d="M-119.585,34.701h-3.574l-0.803,2.232h-1.16l3.258-8.531h0.984l3.264,8.531h-1.154L-119.585,34.701z
				 M-122.819,33.781h2.9l-1.453-3.99L-122.819,33.781z"/>
		</g>
		<g>
			<path fill="#666666" d="M-112.788,36.307c-0.422,0.496-1.041,0.744-1.857,0.744c-0.676,0-1.19-0.196-1.544-0.589
				s-0.532-0.974-0.536-1.743v-4.125h1.084v4.096c0,0.961,0.391,1.441,1.172,1.441c0.828,0,1.379-0.309,1.652-0.926v-4.611h1.084
				v6.34h-1.031L-112.788,36.307z"/>
		</g>
		<g>
			<path fill="#666666" d="M-106.396,35.252c0-0.293-0.11-0.521-0.331-0.683s-0.605-0.302-1.154-0.419s-0.984-0.258-1.307-0.422
				s-0.561-0.359-0.715-0.586s-0.231-0.496-0.231-0.809c0-0.52,0.22-0.959,0.659-1.318s1.001-0.539,1.685-0.539
				c0.719,0,1.302,0.186,1.749,0.557s0.671,0.846,0.671,1.424h-1.09c0-0.297-0.126-0.553-0.378-0.768s-0.569-0.322-0.952-0.322
				c-0.395,0-0.703,0.086-0.926,0.258s-0.334,0.396-0.334,0.674c0,0.262,0.104,0.459,0.311,0.592s0.581,0.26,1.122,0.381
				s0.979,0.266,1.315,0.434s0.585,0.37,0.747,0.606s0.243,0.524,0.243,0.864c0,0.566-0.227,1.021-0.68,1.362
				s-1.041,0.513-1.764,0.513c-0.508,0-0.957-0.09-1.348-0.27s-0.696-0.431-0.917-0.753s-0.331-0.671-0.331-1.046h1.084
				c0.02,0.363,0.165,0.651,0.437,0.864s0.63,0.319,1.075,0.319c0.41,0,0.739-0.083,0.987-0.249S-106.396,35.529-106.396,35.252z"/>
		</g>
		<g>
			<path fill="#666666" d="M-98.286,35.439l1.219-4.846h1.084l-1.846,6.34h-0.879l-1.541-4.805l-1.5,4.805h-0.879l-1.84-6.34h1.078
				l1.248,4.746l1.477-4.746h0.873L-98.286,35.439z"/>
		</g>
		<g>
			<path fill="#666666" d="M-90.968,36.934c-0.063-0.125-0.113-0.348-0.152-0.668c-0.504,0.523-1.105,0.785-1.805,0.785
				c-0.625,0-1.138-0.177-1.538-0.53s-0.601-0.802-0.601-1.345c0-0.66,0.251-1.173,0.753-1.538s1.208-0.548,2.118-0.548h1.055
				v-0.498c0-0.379-0.113-0.681-0.34-0.905s-0.561-0.337-1.002-0.337c-0.387,0-0.711,0.098-0.973,0.293s-0.393,0.432-0.393,0.709
				h-1.09c0-0.316,0.112-0.622,0.337-0.917s0.529-0.528,0.914-0.7s0.808-0.258,1.269-0.258c0.73,0,1.303,0.183,1.717,0.548
				s0.629,0.868,0.645,1.509v2.918c0,0.582,0.074,1.045,0.223,1.389v0.094H-90.968z M-92.767,36.107c0.34,0,0.662-0.088,0.967-0.264
				s0.525-0.404,0.662-0.686v-1.301h-0.85c-1.328,0-1.992,0.389-1.992,1.166c0,0.34,0.113,0.605,0.34,0.797
				S-93.122,36.107-92.767,36.107z"/>
		</g>
		<g>
			<path fill="#666666" d="M-87.271,31.361c0.48-0.59,1.105-0.885,1.875-0.885c1.34,0,2.016,0.756,2.027,2.268v4.189h-1.084v-4.195
				c-0.004-0.457-0.108-0.795-0.313-1.014s-0.524-0.328-0.958-0.328c-0.352,0-0.66,0.094-0.926,0.281s-0.473,0.434-0.621,0.738
				v4.518h-1.084v-9h1.084V31.361z"/>
		</g>
		<g>
			<path fill="#666666" d="M-80.567,36.934h-1.084v-9h1.084V36.934z"/>
		</g>
		<g>
			<path fill="#666666" d="M-72.171,35.252c0-0.293-0.11-0.521-0.331-0.683s-0.605-0.302-1.154-0.419s-0.984-0.258-1.307-0.422
				s-0.561-0.359-0.715-0.586s-0.231-0.496-0.231-0.809c0-0.52,0.22-0.959,0.659-1.318s1.001-0.539,1.685-0.539
				c0.719,0,1.302,0.186,1.749,0.557s0.671,0.846,0.671,1.424h-1.09c0-0.297-0.126-0.553-0.378-0.768s-0.569-0.322-0.952-0.322
				c-0.395,0-0.703,0.086-0.926,0.258s-0.334,0.396-0.334,0.674c0,0.262,0.104,0.459,0.311,0.592s0.581,0.26,1.122,0.381
				s0.979,0.266,1.315,0.434s0.585,0.37,0.747,0.606s0.243,0.524,0.243,0.864c0,0.566-0.227,1.021-0.68,1.362
				s-1.041,0.513-1.764,0.513c-0.508,0-0.957-0.09-1.348-0.27s-0.696-0.431-0.917-0.753s-0.331-0.671-0.331-1.046h1.084
				c0.02,0.363,0.165,0.651,0.437,0.864s0.63,0.319,1.075,0.319c0.41,0,0.739-0.083,0.987-0.249S-72.171,35.529-72.171,35.252z"/>
		</g>
		<g>
			<path fill="#666666" d="M-64.319,33.834c0,0.965-0.221,1.742-0.662,2.332s-1.039,0.885-1.793,0.885
				c-0.77,0-1.375-0.244-1.816-0.732v3.053h-1.084v-8.777h0.99l0.053,0.703c0.441-0.547,1.055-0.82,1.84-0.82
				c0.762,0,1.364,0.287,1.808,0.861s0.665,1.373,0.665,2.396V33.834z M-65.403,33.711c0-0.715-0.152-1.279-0.457-1.693
				s-0.723-0.621-1.254-0.621c-0.656,0-1.148,0.291-1.477,0.873v3.029c0.324,0.578,0.82,0.867,1.488,0.867
				c0.52,0,0.933-0.206,1.239-0.618S-65.403,34.523-65.403,33.711z"/>
		</g>
		<g>
			<path fill="#666666" d="M-60.312,37.051c-0.859,0-1.559-0.282-2.098-0.847s-0.809-1.319-0.809-2.265V33.74
				c0-0.629,0.12-1.19,0.36-1.685s0.576-0.881,1.008-1.16s0.899-0.419,1.403-0.419c0.824,0,1.465,0.271,1.922,0.814
				s0.686,1.32,0.686,2.332v0.451h-4.295c0.016,0.625,0.198,1.13,0.548,1.515s0.794,0.577,1.333,0.577
				c0.383,0,0.707-0.078,0.973-0.234s0.498-0.363,0.697-0.621l0.662,0.516C-58.452,36.643-59.249,37.051-60.312,37.051z
				 M-60.446,31.367c-0.438,0-0.805,0.159-1.102,0.478s-0.48,0.765-0.551,1.339h3.176v-0.082c-0.031-0.551-0.18-0.978-0.445-1.28
				S-59.993,31.367-60.446,31.367z"/>
		</g>
		<g>
			<path fill="#666666" d="M-56.579,28.912c0-0.176,0.054-0.324,0.161-0.445s0.267-0.182,0.478-0.182s0.371,0.061,0.48,0.182
				s0.164,0.27,0.164,0.445s-0.055,0.322-0.164,0.439s-0.27,0.176-0.48,0.176s-0.37-0.059-0.478-0.176S-56.579,29.088-56.579,28.912
				z M-55.407,36.934h-1.084v-6.34h1.084V36.934z"/>
		</g>
		<g>
			<path fill="#666666" d="M-51.13,36.166c0.387,0,0.725-0.117,1.014-0.352s0.449-0.527,0.48-0.879h1.025
				c-0.02,0.363-0.145,0.709-0.375,1.037s-0.538,0.59-0.923,0.785s-0.792,0.293-1.222,0.293c-0.863,0-1.55-0.288-2.06-0.864
				s-0.765-1.364-0.765-2.364v-0.182c0-0.617,0.113-1.166,0.34-1.646s0.552-0.854,0.976-1.119s0.925-0.398,1.503-0.398
				c0.711,0,1.302,0.213,1.772,0.639s0.722,0.979,0.753,1.658h-1.025c-0.031-0.41-0.187-0.747-0.466-1.011s-0.624-0.396-1.034-0.396
				c-0.551,0-0.978,0.198-1.28,0.595s-0.454,0.97-0.454,1.72v0.205c0,0.73,0.15,1.293,0.451,1.688S-51.688,36.166-51.13,36.166z"/>
		</g>
		<g>
			<path fill="#666666" d="M-46.308,31.361c0.48-0.59,1.105-0.885,1.875-0.885c1.34,0,2.016,0.756,2.027,2.268v4.189h-1.084v-4.195
				c-0.004-0.457-0.108-0.795-0.313-1.014s-0.524-0.328-0.958-0.328c-0.352,0-0.66,0.094-0.926,0.281s-0.473,0.434-0.621,0.738
				v4.518h-1.084v-9h1.084V31.361z"/>
		</g>
		<g>
			<path fill="#666666" d="M-38.151,37.051c-0.859,0-1.559-0.282-2.098-0.847s-0.809-1.319-0.809-2.265V33.74
				c0-0.629,0.12-1.19,0.36-1.685s0.576-0.881,1.008-1.16s0.899-0.419,1.403-0.419c0.824,0,1.465,0.271,1.922,0.814
				s0.686,1.32,0.686,2.332v0.451h-4.295c0.016,0.625,0.198,1.13,0.548,1.515s0.794,0.577,1.333,0.577
				c0.383,0,0.707-0.078,0.973-0.234s0.498-0.363,0.697-0.621l0.662,0.516C-36.292,36.643-37.089,37.051-38.151,37.051z
				 M-38.286,31.367c-0.438,0-0.805,0.159-1.102,0.478s-0.48,0.765-0.551,1.339h3.176v-0.082c-0.031-0.551-0.18-0.978-0.445-1.28
				S-37.833,31.367-38.286,31.367z"/>
		</g>
		<g>
			<path fill="#666666" d="M-31.36,31.566c-0.164-0.027-0.342-0.041-0.533-0.041c-0.711,0-1.193,0.303-1.447,0.908v4.5h-1.084v-6.34
				h1.055l0.018,0.732c0.355-0.566,0.859-0.85,1.512-0.85c0.211,0,0.371,0.027,0.48,0.082V31.566z"/>
		</g>
		<g>
			<path fill="#666666" d="M-29.339,30.594l0.035,0.797c0.484-0.609,1.117-0.914,1.898-0.914c1.34,0,2.016,0.756,2.027,2.268v4.189
				h-1.084v-4.195c-0.004-0.457-0.108-0.795-0.313-1.014s-0.524-0.328-0.958-0.328c-0.352,0-0.66,0.094-0.926,0.281
				s-0.473,0.434-0.621,0.738v4.518h-1.084v-6.34H-29.339z"/>
		</g>
	</g>
</g>
</svg>
