<?xml version="1.0" encoding="utf-8"?>
<!-- Generator: Adobe Illustrator 16.0.0, SVG Export Plug-In . SVG Version: 6.00 Build 0)  -->
<!DOCTYPE svg PUBLIC "-//W3C//DTD SVG 1.1//EN" "http://www.w3.org/Graphics/SVG/1.1/DTD/svg11.dtd">
<svg version="1.1" id="Ebene_1" xmlns="http://www.w3.org/2000/svg" xmlns:xlink="http://www.w3.org/1999/xlink" x="0px" y="0px"
	 width="100px" height="100px" viewBox="0 0 100 100" enable-background="new 0 0 100 100" xml:space="preserve">
<g>
	<g>
		<rect x="21.013" y="5.89" fill="#43836F" width="57.973" height="80.659"/>
		<rect x="23.534" y="10.931" fill="#FFFFFF" width="52.933" height="73.098"/>
		<polygon fill="#518E7A" points="68.904,94.11 21.013,86.549 21.013,5.89 68.904,13.452 		"/>
	</g>
	<polygon fill="#48826D" points="68.904,13.452 43.699,9.471 43.699,90.131 68.904,94.11 	"/>
	<g>
		<path fill="#FFFFFF" d="M38.5,31.781c0,0.209-0.01,0.388-0.032,0.534s-0.051,0.264-0.086,0.353
			c-0.037,0.086-0.084,0.146-0.14,0.176c-0.057,0.033-0.124,0.05-0.195,0.05h-6.302c-0.192,0-0.344-0.065-0.45-0.193
			c-0.103-0.129-0.155-0.344-0.155-0.639v-0.496c0-0.13,0.004-0.248,0.015-0.353c0.01-0.106,0.035-0.207,0.064-0.302
			c0.029-0.096,0.074-0.197,0.128-0.298c0.057-0.101,0.128-0.211,0.212-0.336l3.613-5.578h-3.417c-0.138,0-0.246-0.084-0.33-0.259
			c-0.083-0.174-0.124-0.451-0.124-0.834c0-0.209,0.008-0.383,0.027-0.524c0.017-0.141,0.047-0.251,0.081-0.334
			c0.034-0.084,0.082-0.145,0.143-0.179c0.054-0.036,0.124-0.053,0.202-0.053h5.893c0.099,0,0.188,0.01,0.261,0.032
			c0.069,0.024,0.13,0.06,0.177,0.118c0.045,0.059,0.084,0.137,0.108,0.237c0.027,0.101,0.04,0.227,0.04,0.378v0.529
			c0,0.144-0.008,0.272-0.023,0.384c-0.017,0.11-0.036,0.216-0.063,0.317c-0.03,0.101-0.071,0.201-0.125,0.301
			c-0.054,0.102-0.118,0.209-0.189,0.324l-3.589,5.568h3.806c0.063,0,0.125,0.015,0.185,0.042c0.054,0.028,0.105,0.083,0.147,0.161
			c0.04,0.079,0.066,0.19,0.089,0.332C38.495,31.389,38.5,31.567,38.5,31.781z"/>
		<path fill="#FFFFFF" d="M43.487,19.619c0,0.548-0.111,0.928-0.334,1.135c-0.227,0.209-0.64,0.314-1.244,0.314
			c-0.613,0-1.023-0.101-1.238-0.303c-0.211-0.202-0.317-0.563-0.317-1.09c0-0.548,0.108-0.928,0.332-1.139
			c0.217-0.212,0.635-0.32,1.246-0.32c0.605,0,1.017,0.104,1.23,0.31C43.379,18.73,43.487,19.095,43.487,19.619z M43.283,32.527
			c0,0.073-0.022,0.136-0.066,0.189c-0.042,0.053-0.113,0.101-0.222,0.136c-0.104,0.036-0.241,0.064-0.413,0.081
			c-0.173,0.017-0.395,0.027-0.663,0.027c-0.263,0-0.485-0.01-0.657-0.027c-0.175-0.017-0.313-0.045-0.418-0.081
			c-0.104-0.035-0.177-0.081-0.221-0.136c-0.044-0.053-0.064-0.116-0.064-0.189v-9.621c0-0.07,0.025-0.134,0.064-0.19
			c0.044-0.053,0.118-0.1,0.221-0.14c0.106-0.041,0.244-0.071,0.418-0.091c0.172-0.022,0.389-0.033,0.657-0.033
			c0.268,0,0.485,0.011,0.663,0.033c0.172,0.02,0.31,0.052,0.413,0.091c0.108,0.041,0.18,0.087,0.222,0.14
			c0.046,0.053,0.066,0.117,0.066,0.19V32.527z"/>
		<path fill="#F5F5F5" d="M55.701,27.567c0,0.856-0.088,1.631-0.275,2.319c-0.18,0.688-0.449,1.272-0.803,1.756
			c-0.354,0.485-0.793,0.856-1.32,1.116c-0.521,0.259-1.127,0.388-1.805,0.388c-0.277,0-0.538-0.027-0.772-0.082
			c-0.234-0.052-0.46-0.135-0.682-0.249c-0.221-0.111-0.441-0.25-0.655-0.416c-0.216-0.166-0.44-0.361-0.672-0.583v4.54
			c0,0.07-0.022,0.137-0.064,0.194c-0.046,0.058-0.118,0.106-0.221,0.146c-0.105,0.039-0.244,0.07-0.416,0.092
			c-0.172,0.023-0.394,0.033-0.66,0.033s-0.487-0.01-0.66-0.033c-0.175-0.022-0.315-0.053-0.419-0.092
			c-0.103-0.041-0.175-0.088-0.221-0.146c-0.044-0.058-0.061-0.125-0.061-0.194v-13.47c0-0.074,0.017-0.137,0.051-0.189
			c0.034-0.053,0.099-0.099,0.187-0.137c0.091-0.035,0.209-0.063,0.359-0.08c0.147-0.017,0.335-0.028,0.557-0.028
			c0.217,0,0.398,0.011,0.546,0.028c0.147,0.017,0.266,0.045,0.359,0.08c0.088,0.038,0.152,0.081,0.187,0.137
			c0.034,0.055,0.054,0.115,0.054,0.189v1.134c0.28-0.287,0.556-0.542,0.827-0.76c0.268-0.22,0.546-0.404,0.827-0.553
			c0.278-0.149,0.571-0.257,0.869-0.33c0.297-0.072,0.618-0.108,0.958-0.108c0.703,0,1.309,0.139,1.805,0.416
			c0.5,0.277,0.902,0.657,1.219,1.142c0.311,0.481,0.541,1.045,0.682,1.686C55.627,26.153,55.701,26.838,55.701,27.567z
			 M52.871,27.762c0-0.411-0.033-0.805-0.094-1.186c-0.059-0.377-0.162-0.716-0.311-1.01c-0.15-0.295-0.344-0.532-0.584-0.709
			c-0.244-0.176-0.544-0.265-0.903-0.265c-0.177,0-0.359,0.028-0.531,0.081c-0.177,0.053-0.36,0.143-0.544,0.265
			c-0.179,0.121-0.372,0.279-0.568,0.474c-0.194,0.193-0.399,0.435-0.615,0.723v3.178c0.379,0.481,0.746,0.854,1.093,1.119
			c0.345,0.262,0.707,0.394,1.083,0.394c0.352,0,0.655-0.091,0.901-0.27c0.246-0.18,0.453-0.416,0.611-0.709
			c0.156-0.292,0.275-0.623,0.354-0.991C52.83,28.494,52.871,28.128,52.871,27.762z"/>
	</g>
</g>
</svg>
