<svg width="510.904" height="286.486" xmlns="http://www.w3.org/2000/svg" xml:space="preserve" enable-background="new 0 0 510.904 286.486" version="1.1">

 <g>
  <title>Layer 1</title>
  <g id="svg_1">
   <g id="svg_2">
    <g id="svg_3">
     <g id="svg_4">
      <path id="svg_5" d="m368.522,169.532c-8.41,-2.261 -16.68,-3.596 -24.554,-4.163c0.854,-2.287 1.651,-4.69 2.324,-7.214c1.355,-5.043 2.15,-9.926 2.428,-14.348c-2.384,2.127 -5.161,3.794 -7.908,4.793c-0.922,0.335 -1.857,0.609 -2.799,0.857c-1.892,3.697 -5.547,6.278 -10.109,6.278c-0.783,0 -1.563,-0.093 -2.325,-0.26c-2.002,1.469 -4.535,2.21 -7.054,2.198c-12.545,17.828 -28.127,20.289 -30.918,30.658c-5.612,20.89 21.511,46.336 60.58,56.838c39.072,10.503 70.75,19.018 80.914,-18.803c10.168,-37.814 -21.504,-46.329 -60.579,-56.834z" fill="#F9B77A"/>
     </g>
    </g>
    <g id="svg_6">
     <g id="svg_7">
      <path id="svg_8" d="m423.518,191.004c-11.212,-11.235 -31.324,-16.645 -54.606,-22.896c-7.522,-2.024 -15.212,-3.39 -22.884,-4.056c0.64,-1.841 1.21,-3.686 1.696,-5.508c0.421,-1.563 0.777,-3.113 1.095,-4.646c-1.109,0.839 -2.292,1.602 -3.546,2.276c-0.131,0.529 -0.269,1.063 -0.413,1.603c-0.63,2.333 -1.394,4.714 -2.281,7.077l-0.695,1.852l1.976,0.149c8.135,0.585 16.301,1.97 24.278,4.107c22.878,6.154 42.634,11.461 53.284,22.14c8.109,8.131 10.094,18.578 6.25,32.889c-9.78,36.386 -40.375,28.163 -79.102,17.754c-19.411,-5.223 -36.913,-14.596 -48.015,-25.728c-9.854,-9.87 -13.943,-20.271 -11.521,-29.295c1.24,-4.593 5.537,-7.654 10.979,-11.528c0.777,-0.554 1.58,-1.127 2.396,-1.718c-1.613,0.306 -3.265,0.423 -4.945,0.296c-0.163,-0.014 -0.313,-0.043 -0.476,-0.06c-5.297,3.801 -9.412,7.043 -10.808,12.24c-2.71,10.084 1.647,21.502 12.276,32.157c11.464,11.489 29.447,21.142 49.349,26.494c38.728,10.414 72.182,19.41 82.73,-19.851c4.092,-15.211 1.794,-26.908 -7.017,-35.748z"/>
     </g>
    </g>
   </g>
   <g id="svg_9">
    <g id="svg_10">
     <g id="svg_11">
      <path id="svg_12" d="m430.574,207.688c0,0 -28.402,-19.568 -46.746,-18.769" fill="#F9B77A"/>
     </g>
    </g>
    <g id="svg_13">
     <g id="svg_14">
      <path id="svg_15" d="m383.894,190.398c17.638,-0.772 45.558,18.317 45.835,18.506l1.682,-2.438c-1.181,-0.808 -29.024,-19.837 -47.645,-19.032l0.128,2.964z"/>
     </g>
    </g>
   </g>
   <g id="svg_16">
    <g id="svg_17">
     <g id="svg_18">
      <path id="svg_19" d="m429.102,226.374c0,0 -31.354,-21.793 -44.24,-20.006" fill="#F9B77A"/>
     </g>
    </g>
    <g id="svg_20">
     <g id="svg_21">
      <path id="svg_22" d="m385.063,207.837c12.176,-1.686 42.885,19.538 43.195,19.751l1.688,-2.436c-1.299,-0.9 -31.979,-22.093 -45.291,-20.25l0.408,2.935z"/>
     </g>
    </g>
   </g>
   <g id="svg_23">
    <g id="svg_24">
     <g id="svg_25">
      <path id="svg_26" d="m421.009,243.283c0,0 1.745,-11.035 -32.737,-17.657" fill="#F9B77A"/>
     </g>
    </g>
    <g id="svg_27">
     <g id="svg_28">
      <path id="svg_29" d="m387.994,227.083c32.088,6.161 31.552,15.912 31.541,16.015l2.937,0.415c0.195,-1.272 0.95,-12.65 -33.92,-19.346l-0.558,2.916z"/>
     </g>
    </g>
   </g>
  </g>
  <g id="svg_30">
   <g id="svg_31">
    <g id="svg_32">
     <path id="svg_33" d="m134.047,234.924l146.181,-0.912c18.631,-0.114 33.64,-15.285 33.523,-33.92c-0.116,-18.629 -15.313,-33.614 -33.944,-33.499l-146.18,0.912c-18.631,0.116 -33.639,15.289 -33.521,33.919c0.115,18.633 15.31,33.616 33.941,33.5z" fill="#363636"/>
    </g>
    <g id="svg_34">
     <path fill="#363636" id="svg_35" d="m99.604,201.618c-0.117,-18.861 15.144,-34.59 34.02,-34.708l146.18,-1.007l0.218,0c18.758,0 34.112,15.405 34.229,34.151c0.058,9.144 -3.449,17.913 -9.876,24.412c-6.424,6.498 -14.999,10.228 -24.145,10.283l-146.181,1.152l-0.218,0c-18.756,0.002 -34.109,-15.537 -34.227,-34.283zm34.026,-33.613c-18.323,0.114 -33.14,15.104 -33.024,33.416c0.112,18.198 15.02,33.004 33.228,33.004l146.393,-0.913c8.879,-0.056 17.203,-3.56 23.438,-9.866c6.237,-6.311 9.644,-14.673 9.588,-23.55c-0.113,-18.197 -15.021,-33.004 -33.229,-33.004l-146.394,0.913z"/>
    </g>
   </g>
  </g>
  <g id="svg_36">
   <g id="svg_37">
    <path id="svg_38" d="m134.082,169.197c8.559,2.363 15.665,7.914 20.046,15.628c4.381,7.717 5.482,16.678 3.118,25.232c-3.963,14.35 -17.125,24.372 -31.998,24.372c-2.985,0 -5.941,-0.407 -8.851,-1.212l-117.493,-32.464l0,-68.906l135.178,37.35z" fill="#363636"/>
   </g>
   <g id="svg_39">
    <path fill="#363636" id="svg_40" d="m116.263,233.701c17.959,4.962 36.514,-5.55 41.475,-23.511c4.962,-17.957 -5.556,-36.517 -23.514,-41.477l-135.32,-37.387l0,-0.52l135.443,37.425c8.814,2.436 16.138,8.151 20.648,16.1c4.513,7.948 5.648,17.181 3.214,25.991c-4.083,14.782 -17.641,25.106 -32.963,25.106c-3.076,0 -6.122,-0.42 -9.116,-1.246l-117.226,-32.391l0,-0.52l117.359,32.43z"/>
   </g>
   <g id="svg_41">
    <path fill="#363636" id="svg_42" d="m157.72,210.19c-4.962,17.961 -23.498,28.473 -41.457,23.511l-117.358,-32.43l0,-0.52l117.491,32.466c2.908,0.805 5.879,1.212 8.865,1.212c14.873,0 28.021,-10.022 31.984,-24.372c2.364,-8.556 1.25,-17.517 -3.131,-25.232c-4.381,-7.714 -11.474,-13.265 -20.031,-15.628l-135.18,-37.352l0,-0.52l135.311,37.388c17.959,4.962 28.468,23.52 23.506,41.477z"/>
   </g>
  </g>
  <g id="svg_43">
   <rect id="svg_44" height="65" width="47" fill="#363636" y="167.903" x="121.904"/>
  </g>
  <g id="svg_45">
   <path id="svg_46" d="m326.406,189.642c-0.341,-7.146 13.242,-12.905 30.438,-20.197c15.592,-6.611 33.263,-14.104 36.456,-22.155c0.686,-1.729 0.651,-3.4 -0.103,-5.114c-2.771,-6.3 -7.62,-9.555 -14.82,-9.951c-24.39,-1.354 -67.379,32.086 -73.176,42.1l-2.596,-1.504c6.184,-10.683 50.012,-45.032 75.936,-43.591c8.322,0.459 14.178,4.408 17.402,11.737c1.078,2.452 1.127,4.951 0.146,7.431c-3.656,9.217 -21.153,16.636 -38.073,23.812c-13.525,5.734 -28.854,12.234 -28.613,17.292l-2.997,0.14z"/>
  </g>
  <g id="svg_47">
   <g id="svg_48">
    <g id="svg_49">
     <rect id="svg_50" height="31.8" width="13.454" transform="matrix(0.8756 0.4831 -0.4831 0.8756 112.4437 -220.4987)" y="92.149" x="477.57"/>
    </g>
   </g>
   <g id="svg_51">
    <g id="svg_52">
     <rect id="svg_53" height="31.8" width="13.455" transform="matrix(0.8756 0.483 -0.483 0.8756 145.7193 -189.0909)" y="172.474" x="433.259"/>
    </g>
   </g>
   <g id="svg_54">
    <g id="svg_55">
     <g id="svg_56">
      <path id="svg_57" d="m472.915,29.426c0,0 38.761,21.384 30.001,46.181c-1.841,5.21 -82.036,151.795 -85.176,155.656c-17.537,21.563 -56.303,0.226 -56.303,0.226l111.478,-202.063z" fill="#4D5154"/>
     </g>
    </g>
    <g id="svg_58">
     <g id="svg_59">
      <path id="svg_60" d="m360.758,231.684l111.96,-202.938l0.438,0.242c0.113,0.061 11.201,6.232 20.113,15.623c10.215,10.763 13.621,21.248 10.117,31.163c-1.786,5.054 -82.263,152.122 -85.258,155.803c-17.6,21.637 -56.542,0.564 -56.934,0.35l-0.436,-0.243zm112.35,-201.572l-110.986,201.17c4.334,2.252 39.157,19.429 55.229,-0.336c2.99,-3.674 83.312,-150.462 85.093,-155.507c3.367,-9.532 0.036,-19.672 -9.897,-30.141c-7.813,-8.229 -17.315,-13.955 -19.439,-15.186z"/>
     </g>
    </g>
   </g>
   <g id="svg_61">
    <g id="svg_62">
     <path id="svg_63" d="m407.27,37.993l-1.601,-5.541c0.703,-0.965 1.379,-1.818 2.011,-2.531c10.107,-11.361 26.174,-14.589 42.138,-12.09l2.099,7.262l-44.647,12.9z"/>
    </g>
   </g>
   <g id="svg_64">
    <g id="svg_65">
     <g id="svg_66">
      <path id="svg_67" d="m408.965,34.36c15.391,-17.305 44.602,-15.746 66.23,-3.812c5.656,3.12 10.643,7 15,11.5l-51.532,93.403l-5.684,10.304l-51.531,93.405c-6.129,-1.286 -12.19,-3.5 -17.85,-6.621c-21.628,-11.933 -38.286,-35.682 -31.857,-57.929c3.71,-12.832 68.347,-130.272 77.224,-140.25z" fill="#FF5D50"/>
     </g>
    </g>
    <g id="svg_68">
     <g id="svg_69">
      <path id="svg_70" d="m345.462,219.163c-13.209,-13.918 -18.385,-30.207 -14.199,-44.69c3.639,-12.593 68.683,-130.725 77.329,-140.445c15.979,-17.967 45.724,-15.572 66.846,-3.918c5.545,3.058 10.632,6.958 15.119,11.59l0.257,0.265l-109.104,197.76l-0.363,-0.075c-6.31,-1.325 -12.361,-3.569 -17.986,-6.674c-6.577,-3.629 -12.765,-8.405 -17.899,-13.813zm144.116,-177.033c-4.354,-4.445 -9.272,-8.193 -14.624,-11.146c-20.773,-11.46 -49.982,-13.868 -65.614,3.706c-8.624,9.694 -73.487,127.501 -77.117,140.059c-4.084,14.133 1.006,30.072 13.965,43.726c5.063,5.334 11.169,10.046 17.654,13.625c5.432,2.996 11.266,5.182 17.349,6.493l108.387,-196.463z"/>
     </g>
    </g>
   </g>
   <g id="svg_71">
    <g id="svg_72">
     <circle id="svg_73" r="8.346" cy="116.012" cx="409.397"/>
    </g>
   </g>
   <g id="svg_74">
    <g id="svg_75">
     <circle id="svg_76" r="8.346" cy="122.108" cx="385.521"/>
    </g>
   </g>
   <g id="svg_77">
    <g id="svg_78">
     <circle id="svg_79" r="8.346" cy="138.985" cx="417.237"/>
    </g>
   </g>
   <g id="svg_80">
    <g id="svg_81">
     <circle id="svg_82" r="8.346" cy="145.081" cx="393.359"/>
    </g>
   </g>
   <g id="svg_83">
    <g id="svg_84">
     <circle id="svg_85" r="15.965" cy="76.012" cx="432.294"/>
    </g>
   </g>
  </g>
  <g id="svg_86">
   <g id="svg_87">
    <g id="svg_88">
     <g id="svg_89">
      <path id="svg_90" d="m444.544,209.154c-1.606,8.368 -3.261,18.146 -9.342,24.617c-8.087,8.605 -20.372,16.567 -32.095,20.374c-15.67,-11.965 -22.799,-25.978 -11.617,-47.685c13.373,-25.966 32.992,-24.211 57.024,-13.956c-1.733,5.399 -2.88,10.974 -3.97,16.65z" fill="#F9B77A"/>
     </g>
     <g id="svg_91">
      <path id="svg_92" d="m402.805,254.543c-18.189,-13.888 -21.815,-28.787 -11.759,-48.31c7.355,-14.286 17.224,-21.229 30.161,-21.229c7.505,0 16.243,2.237 27.504,7.042l0.419,0.18l-0.141,0.435c-1.77,5.51 -2.924,11.217 -3.955,16.59l-0.204,1.063c-1.564,8.201 -3.341,17.497 -9.265,23.803c-8.354,8.893 -20.733,16.75 -32.305,20.507l-0.249,0.081l-0.206,-0.162zm18.403,-68.539c-12.701,0 -22.005,6.573 -29.272,20.688c-9.753,18.935 -6.28,33.407 11.269,46.897c11.349,-3.738 23.447,-11.445 31.636,-20.159c5.725,-6.094 7.471,-15.237 9.012,-23.306l0.203,-1.063c1.01,-5.263 2.139,-10.846 3.848,-16.271c-10.933,-4.629 -19.424,-6.786 -26.696,-6.786z"/>
     </g>
    </g>
    <g id="svg_93">
     <g id="svg_94">
      <path id="svg_95" d="m448.076,193.919c-10.475,-4.488 -19.994,-7.309 -28.514,-6.896c-11.471,0.556 -19.969,6.949 -26.756,20.12c-10.871,21.105 -3.707,34.673 11.998,46.416c-1.132,0.402 -2.261,0.773 -3.381,1.101c-15.491,-12.166 -22.676,-26.705 -11.252,-48.879c7.212,-14.005 16.782,-21.111 29.25,-21.721c8.983,-0.435 18.823,2.44 29.563,7.021c-0.322,0.941 -0.622,1.888 -0.908,2.838z"/>
     </g>
    </g>
   </g>
   <g id="svg_96">
    <g id="svg_97">
     <g id="svg_98">
      <path id="svg_99" d="m444.91,207.267l-41.936,-15.614c0,0 27.201,3.7 42.319,13.688c-0.129,0.639 -0.258,1.282 -0.383,1.926z" fill="#F9B77A"/>
     </g>
    </g>
    <g id="svg_100">
     <g id="svg_101">
      <path id="svg_102" d="m444.982,206.9c-14.517,-9.917 -41.902,-13.736 -42.201,-13.779l0.396,-2.935c1.244,0.174 27.188,3.799 42.438,13.582c-0.217,1.041 -0.426,2.085 -0.633,3.132z"/>
     </g>
    </g>
   </g>
   <g id="svg_103">
    <g id="svg_104">
     <g id="svg_105">
      <path id="svg_106" d="m391.488,206.465c0,0 37.857,4.98 46.188,14.976" fill="#F9B77A"/>
     </g>
    </g>
    <g id="svg_107">
     <g id="svg_108">
      <path id="svg_109" d="m436.537,222.391c-7.871,-9.44 -44.868,-14.408 -45.241,-14.46l0.391,-2.938c1.567,0.208 38.521,5.179 47.129,15.501l-2.279,1.897z"/>
     </g>
    </g>
   </g>
   <g id="svg_110">
    <g id="svg_111">
     <g id="svg_112">
      <path id="svg_113" d="m386.096,224.419c0,0 6.135,-9.336 36.098,8.972" fill="#F9B77A"/>
     </g>
    </g>
    <g id="svg_114">
     <g id="svg_115">
      <path id="svg_116" d="m421.417,234.653c-27.881,-17.037 -34.046,-9.463 -34.105,-9.381l-2.451,-1.669c0.711,-1.073 7.812,-9.996 38.108,8.519l-1.552,2.531z"/>
     </g>
    </g>
   </g>
  </g>
  <g id="svg_117">
   <path id="svg_118" d="m303.904,173.57c7.333,-12.667 76,-65.334 90.667,-32c8.877,20.174 -67.334,34 -66.667,48" fill="#F9B77A"/>
   <path id="svg_119" d="m326.905,189.618c-0.323,-6.798 13.791,-12.783 30.134,-19.713c15.682,-6.649 33.455,-14.187 36.726,-22.432c0.737,-1.859 0.702,-3.658 -0.108,-5.5c-2.815,-6.398 -7.947,-9.847 -15.252,-10.25c-24.501,-1.349 -67.804,32.275 -73.635,42.348l-1.73,-1.002c6.148,-10.622 49.694,-44.769 75.476,-43.343c8.118,0.448 13.829,4.297 16.972,11.441c1.023,2.325 1.069,4.694 0.138,7.043c-3.579,9.022 -20.978,16.4 -37.804,23.535c-14.344,6.082 -29.175,12.371 -28.917,17.776l-2,0.097z"/>
  </g>
 </g>
</svg>