<svg width="510.904" height="286.486" xmlns="http://www.w3.org/2000/svg" xml:space="preserve" enable-background="new 0 0 510.904 286.486" version="1.1">

 <g>
  <title>Layer 1</title>
  <g id="svg_1">
   <g id="svg_2">
    <g id="svg_3">
     <path id="svg_4" d="m222.131,187.335c-1.983,-7.371 -10.433,-10.767 -19.659,-18.508c-1.819,1.677 -4.323,2.749 -7.52,2.749c-4.241,0 -7.265,-1.885 -9.08,-4.57c-4.188,-1.348 -6.597,-4.938 -7.214,-8.872c-5.493,0.154 -10.909,-0.527 -15.646,-3.78c-0.11,-0.076 -0.211,-0.163 -0.32,-0.241c0.229,1.007 0.48,2.021 0.755,3.043c0.672,2.521 1.469,4.927 2.324,7.214c-7.874,0.567 -16.145,1.902 -24.555,4.163c-39.073,10.505 -70.745,19.02 -60.579,56.838c10.165,37.819 41.842,29.306 80.915,18.803c39.068,-10.503 66.191,-35.95 60.579,-56.839z" fill="#F9B77A"/>
    </g>
    <g id="svg_5">
     <path id="svg_6" d="m223.56,186.953c-1.51,-5.618 -6.192,-8.952 -12.116,-13.176c-2.487,-1.771 -5.194,-3.72 -7.961,-6.037c-0.623,0.769 -1.359,1.449 -2.207,2.02c2.94,2.484 5.816,4.558 8.452,6.434c5.44,3.874 9.737,6.936 10.978,11.528c2.422,9.023 -1.667,19.425 -11.521,29.295c-11.103,11.132 -28.604,20.505 -48.016,25.728c-38.725,10.409 -69.319,18.632 -79.1,-17.754c-3.845,-14.311 -1.861,-24.758 6.25,-32.889c10.65,-10.679 30.406,-15.985 53.283,-22.139c7.977,-2.138 16.143,-3.522 24.277,-4.107l1.977,-0.149l-0.696,-1.852c-0.887,-2.363 -1.651,-4.744 -2.281,-7.077c-1.441,-5.368 -2.207,-10.275 -2.445,-14.558c-1.127,-0.996 -2.122,-2.053 -2.991,-3.169c-0.042,5.515 0.801,11.905 2.572,18.492c0.485,1.822 1.057,3.667 1.695,5.508c-7.672,0.666 -15.36,2.031 -22.884,4.056c-23.282,6.252 -43.395,11.661 -54.606,22.896c-8.812,8.84 -11.108,20.537 -7.018,35.75c10.549,39.261 44.003,30.265 82.731,19.851c19.9,-5.353 37.885,-15.005 49.348,-26.494c10.63,-10.656 14.988,-22.074 12.279,-32.157z"/>
    </g>
   </g>
   <g id="svg_7">
    <g id="svg_8">
     <path id="svg_9" d="m79.165,206.688c0,0 28.403,-19.568 46.746,-18.769" fill="#F9B77A"/>
    </g>
    <g id="svg_10">
     <path id="svg_11" d="m125.845,189.398c-17.639,-0.772 -45.559,18.317 -45.835,18.506l-1.683,-2.438c1.181,-0.808 29.026,-19.837 47.646,-19.032l-0.128,2.964z"/>
    </g>
   </g>
   <g id="svg_12">
    <g id="svg_13">
     <path id="svg_14" d="m80.636,225.374c0,0 31.354,-21.793 44.24,-20.006" fill="#F9B77A"/>
    </g>
    <g id="svg_15">
     <path id="svg_16" d="m124.676,206.837c-12.176,-1.686 -42.885,19.538 -43.194,19.751l-1.688,-2.436c1.3,-0.9 31.979,-22.093 45.292,-20.25l-0.41,2.935z"/>
    </g>
   </g>
   <g id="svg_17">
    <g id="svg_18">
     <path id="svg_19" d="m88.73,242.283c0,0 -1.745,-11.035 32.737,-17.657" fill="#F9B77A"/>
    </g>
    <g id="svg_20">
     <path id="svg_21" d="m121.744,226.083c-32.088,6.161 -31.551,15.912 -31.542,16.015l-2.935,0.415c-0.196,-1.272 -0.95,-12.65 33.92,-19.346l0.557,2.916z"/>
    </g>
   </g>
  </g>
  <g id="svg_22">
   <g id="svg_23">
    <path id="svg_24" d="m375.691,233.924l-146.18,-0.912c-18.632,-0.114 -33.641,-15.285 -33.523,-33.92c0.116,-18.629 15.313,-33.614 33.944,-33.499l146.179,0.912c18.631,0.116 33.64,15.289 33.522,33.919c-0.115,18.633 -15.311,33.616 -33.942,33.5z" fill="#363636"/>
    <path fill="#363636" id="svg_25" d="m375.906,234.903l-0.218,0l-146.181,-1.152c-9.146,-0.057 -17.721,-3.785 -24.145,-10.283c-6.426,-6.498 -9.933,-15.27 -9.876,-24.412c0.117,-18.746 15.472,-34.151 34.229,-34.151l0.219,0l146.179,1.007c18.876,0.118 34.138,15.847 34.021,34.708c-0.117,18.744 -15.471,34.283 -34.228,34.283zm-146.188,-68.811c-18.209,0 -33.115,14.807 -33.229,33.004c-0.056,8.877 3.35,17.239 9.587,23.55c6.236,6.308 14.562,9.812 23.439,9.866l146.392,0.913c18.208,0 33.114,-14.806 33.229,-33.004c0.113,-18.312 -14.701,-33.302 -33.025,-33.416l-146.393,-0.913z"/>
   </g>
  </g>
  <g id="svg_26">
   <path id="svg_27" d="m375.691,168.197c-8.558,2.363 -15.683,7.914 -20.063,15.628c-4.382,7.717 -5.491,16.678 -3.127,25.232c3.963,14.35 17.119,24.372 31.993,24.372c2.986,0 5.976,-0.407 8.884,-1.212l117.525,-32.466l0,-68.906l-135.212,37.352z" fill="#363636"/>
   <path fill="#363636" id="svg_28" d="m393.511,232.701c-17.959,4.962 -36.531,-5.55 -41.492,-23.511c-4.962,-17.957 5.582,-36.517 23.54,-41.477l135.346,-37.388l0,-0.52l-135.479,37.425c-8.815,2.436 -16.155,8.151 -20.667,16.1c-4.514,7.948 -5.657,17.181 -3.224,25.991c4.083,14.782 17.638,25.106 32.959,25.106c3.076,0 6.154,-0.42 9.148,-1.246l117.261,-32.394l0,-0.52l-117.392,32.434z"/>
   <path fill="#363636" id="svg_29" d="m352.019,209.19c4.961,17.961 23.533,28.473 41.492,23.511l117.394,-32.43l0,-0.52l-117.525,32.467c-2.908,0.805 -5.896,1.212 -8.884,1.212c-14.874,0 -28.03,-10.022 -31.993,-24.372c-2.364,-8.556 -1.254,-17.517 3.127,-25.232c4.381,-7.714 11.506,-13.265 20.063,-15.628l135.213,-37.352l0,-0.52l-135.346,37.388c-17.959,4.961 -28.503,23.519 -23.541,41.476z"/>
  </g>
  <rect id="svg_30" height="65" width="47" fill="#363636" y="166.903" x="340.904"/>
  <g id="svg_31">
   <g id="svg_32">
    <g id="svg_33">
     <rect id="svg_34" height="32.579" width="13.716" transform="matrix(-0.8779 0.4789 -0.4789 -0.8779 92.4499 174.0404)" y="82.52" x="17.174"/>
    </g>
    <g id="svg_35">
     <rect id="svg_36" height="32.58" width="13.717" transform="matrix(-0.8778 0.479 -0.479 -0.8778 216.8983 307.8452)" y="165.296" x="62.328"/>
    </g>
    <g id="svg_37">
     <g id="svg_38">
      <path id="svg_39" d="m36.779,18.879c0,0 -39.574,21.595 -30.772,46.89c1.85,5.313 82.83,154.972 86.009,158.919c17.755,22.043 57.337,0.494 57.337,0.494l-112.574,-206.303z" fill="#4D5154"/>
     </g>
     <g id="svg_40">
      <path id="svg_41" d="m150.032,225.384l-0.441,0.238c-0.398,0.217 -40.153,21.49 -57.966,-0.621c-3.031,-3.766 -84.296,-153.912 -86.091,-159.068c-3.226,-9.267 -0.509,-19.045 8.072,-29.059c9.417,-10.989 22.797,-18.36 22.933,-18.434l0.438,-0.239l0.241,0.438l112.814,206.745zm-135.665,-187.859c-8.334,9.725 -10.986,19.172 -7.888,28.08c1.792,5.145 82.9,155.013 85.927,158.769c16.29,20.223 51.878,2.855 56.266,0.602l-112.088,-205.413c-2.369,1.36 -13.877,8.228 -22.217,17.962z"/>
     </g>
    </g>
    <g id="svg_42">
     <path id="svg_43" d="m103.59,27.914l1.655,-5.636c-0.714,-0.985 -1.396,-1.859 -2.038,-2.588c-10.239,-11.617 -26.584,-14.981 -42.854,-12.51l-2.171,7.386l45.408,13.348z"/>
    </g>
    <g id="svg_44">
     <g id="svg_45">
      <path id="svg_46" d="m101.883,24.204c-15.593,-17.694 -45.35,-16.245 -67.433,-4.194c-5.777,3.152 -10.872,7.08 -15.329,11.639l52.039,95.368l5.739,10.517l52.038,95.366c6.248,-1.279 12.43,-3.506 18.208,-6.658c22.083,-12.051 39.159,-36.156 32.717,-58.844c-3.717,-13.083 -68.987,-132.99 -77.979,-143.194z" fill="#00BBE1"/>
     </g>
     <g id="svg_47">
      <path id="svg_48" d="m168.296,209.776c-0.001,0.002 -0.001,0.002 -0.003,0.004c-5.759,6.721 -12.988,12.566 -20.917,16.895c-5.744,3.135 -11.914,5.396 -18.343,6.711l-0.36,0.076l-0.177,-0.324l-109.993,-201.576l0.259,-0.264c4.589,-4.694 9.788,-8.641 15.448,-11.729c21.561,-11.766 51.859,-14.067 68.046,4.302c8.757,9.937 74.429,130.538 78.078,143.382c3.863,13.599 -0.532,29.093 -12.038,42.523zm-39.097,22.561c6.202,-1.309 12.149,-3.512 17.699,-6.541c7.825,-4.268 14.956,-10.035 20.636,-16.666c0.001,0 0.002,-0.002 0.003,-0.004c11.286,-13.17 15.604,-28.326 11.836,-41.598c-3.638,-12.809 -69.137,-133.087 -77.87,-142.997c-15.841,-17.976 -45.602,-15.66 -66.815,-4.083c-5.467,2.983 -10.495,6.78 -14.951,11.288l109.462,200.601z"/>
     </g>
    </g>
    <g id="svg_49">
     <circle id="svg_50" r="8.499" cy="50.429" cx="69.991"/>
    </g>
    <g id="svg_51">
     <circle id="svg_52" r="8.499" cy="56.75" cx="94.277"/>
    </g>
    <g id="svg_53">
     <circle id="svg_54" r="8.499" cy="73.787" cx="61.9"/>
    </g>
    <g id="svg_55">
     <circle id="svg_56" r="8.498" cy="80.109" cx="86.187"/>
    </g>
    <g id="svg_57">
     <circle id="svg_58" r="16.258" cy="135.273" cx="104.027"/>
    </g>
   </g>
   <g id="svg_59">
    <rect id="svg_60" height="17" width="12" transform="matrix(-0.997 0.0769 -0.0769 -0.997 218.7372 231.72)" y="111.57" x="98.909"/>
   </g>
   <g id="svg_61">
    <ellipse id="svg_62" ry="6.375" rx="1.626" cy="111.608" cx="104.257" transform="matrix(-0.0767 -0.9971 0.9971 -0.0767 0.9774 224.1214)"/>
   </g>
  </g>
  <g id="svg_63">
   <g id="svg_64">
    <g id="svg_65">
     <path id="svg_66" d="m65.195,208.154c1.607,8.368 3.261,18.146 9.341,24.617c8.086,8.605 20.373,16.567 32.094,20.374c15.67,-11.965 22.8,-25.978 11.618,-47.685c-13.373,-25.966 -32.992,-24.211 -57.023,-13.956c1.732,5.399 2.88,10.974 3.97,16.65z" fill="#F9B77A"/>
     <path id="svg_67" d="m106.726,253.702l-0.25,-0.081c-11.571,-3.757 -23.949,-11.614 -32.305,-20.507c-5.924,-6.306 -7.698,-15.602 -9.265,-23.803l-0.204,-1.063c-1.031,-5.373 -2.187,-11.08 -3.956,-16.59l-0.139,-0.435l0.419,-0.18c11.26,-4.805 19.999,-7.042 27.503,-7.042c12.939,0 22.805,6.943 30.162,21.229c10.057,19.521 6.431,34.422 -11.759,48.31l-0.206,0.162zm-44.888,-61.914c1.709,5.427 2.838,11.01 3.849,16.271l0.203,1.063c1.541,8.067 3.285,17.212 9.011,23.305c8.187,8.715 20.287,16.422 31.635,20.16c17.548,-13.49 21.021,-27.964 11.269,-46.897c-7.27,-14.113 -16.571,-20.688 -29.273,-20.688c-7.274,0.002 -15.765,2.159 -26.694,6.786z"/>
    </g>
    <g id="svg_68">
     <path id="svg_69" d="m61.663,192.919c10.475,-4.488 19.993,-7.309 28.515,-6.896c11.471,0.556 19.969,6.949 26.755,20.12c10.871,21.105 3.707,34.673 -11.998,46.416c1.132,0.402 2.259,0.773 3.381,1.101c15.491,-12.166 22.675,-26.705 11.252,-48.879c-7.212,-14.005 -16.783,-21.111 -29.25,-21.721c-8.984,-0.435 -18.824,2.44 -29.563,7.021c0.321,0.941 0.621,1.888 0.908,2.838z"/>
    </g>
   </g>
   <g id="svg_70">
    <g id="svg_71">
     <path id="svg_72" d="m64.829,206.267l41.937,-15.614c0,0 -27.202,3.7 -42.32,13.688c0.128,0.639 0.257,1.282 0.383,1.926z" fill="#F9B77A"/>
    </g>
    <g id="svg_73">
     <path id="svg_74" d="m64.756,205.9c14.518,-9.917 41.902,-13.736 42.202,-13.779l-0.396,-2.935c-1.245,0.174 -27.189,3.799 -42.44,13.582c0.217,1.041 0.427,2.085 0.634,3.132z"/>
    </g>
   </g>
   <g id="svg_75">
    <g id="svg_76">
     <path id="svg_77" d="m118.25,205.465c0,0 -37.856,4.98 -46.187,14.976" fill="#F9B77A"/>
    </g>
    <g id="svg_78">
     <path id="svg_79" d="m73.201,221.391c7.872,-9.44 44.87,-14.408 45.243,-14.46l-0.391,-2.938c-1.567,0.208 -38.522,5.179 -47.129,15.501l2.277,1.897z"/>
    </g>
   </g>
   <g id="svg_80">
    <g id="svg_81">
     <path id="svg_82" d="m123.643,223.419c0,0 -6.136,-9.336 -36.098,8.972" fill="#F9B77A"/>
    </g>
    <g id="svg_83">
     <path id="svg_84" d="m88.321,233.653c27.881,-17.037 34.046,-9.463 34.106,-9.381l2.45,-1.669c-0.711,-1.073 -7.811,-9.996 -38.107,8.519l1.551,2.531z"/>
    </g>
   </g>
  </g>
  <g id="svg_85">
   <path id="svg_86" d="m203.619,169.076c0,0 -111.218,-83.882 -97.795,-30.667c8.371,33.187 78.567,9.708 71.167,52.244" fill="#F9B77A"/>
   <path id="svg_87" d="m177.977,190.825l-1.971,-0.344c3.839,-22.067 -14.203,-25.606 -33.304,-29.354c-16.644,-3.266 -33.854,-6.642 -37.848,-22.474c-2.193,-8.694 -1.229,-14.48 2.865,-17.197c18.104,-12.013 93.309,44.412 96.501,46.82l-1.204,1.598c-0.771,-0.582 -77.255,-57.986 -94.191,-46.751c-3.312,2.197 -3.995,7.258 -2.032,15.041c3.683,14.603 20.261,17.854 36.293,21c19.206,3.768 39.065,7.664 34.891,31.661z"/>
  </g>
  <g id="svg_88">
   <path id="svg_89" d="m123.766,234.645l-0.246,-1.984c43.716,-5.42 52.413,-41.859 52.496,-42.227l1.952,0.438c-0.086,0.381 -9.05,38.176 -54.202,43.773z"/>
  </g>
  <path id="svg_90" d="m179.607,186.409c0,0 2.547,8.465 -4.205,13.613" fill="#F9B77A"/>
 </g>
</svg>