<?xml version="1.0" encoding="utf-8"?>
<!-- Generator: Adobe Illustrator 16.0.0, SVG Export Plug-In . SVG Version: 6.00 Build 0)  -->
<!DOCTYPE svg PUBLIC "-//W3C//DTD SVG 1.1//EN" "http://www.w3.org/Graphics/SVG/1.1/DTD/svg11.dtd">
<svg version="1.1" id="Ebene_1" xmlns="http://www.w3.org/2000/svg" xmlns:xlink="http://www.w3.org/1999/xlink" x="0px" y="0px"
	 width="510.904px" height="286.486px" viewBox="0 0 510.904 286.486" enable-background="new 0 0 510.904 286.486"
	 xml:space="preserve">
<g>
	<g>
		<g>
			<path fill="#F9B77A" d="M222.131,187.335c-1.983-7.371-10.433-10.767-19.659-18.508c-1.819,1.677-4.323,2.749-7.52,2.749
				c-4.241,0-7.265-1.885-9.08-4.57c-4.188-1.348-6.597-4.938-7.214-8.872c-5.493,0.154-10.909-0.527-15.646-3.78
				c-0.11-0.076-0.211-0.163-0.32-0.241c0.229,1.007,0.48,2.021,0.755,3.043c0.672,2.521,1.469,4.927,2.324,7.214
				c-7.874,0.567-16.145,1.902-24.555,4.163c-39.073,10.505-70.745,19.02-60.579,56.838c10.165,37.819,41.842,29.306,80.915,18.803
				C200.62,233.671,227.743,208.224,222.131,187.335z"/>
		</g>
		<g>
			<path d="M223.56,186.953c-1.51-5.618-6.192-8.952-12.116-13.176c-2.487-1.771-5.194-3.72-7.961-6.037
				c-0.623,0.769-1.359,1.449-2.207,2.02c2.94,2.484,5.816,4.558,8.452,6.434c5.44,3.874,9.737,6.936,10.978,11.528
				c2.422,9.023-1.667,19.425-11.521,29.295c-11.103,11.132-28.604,20.505-48.016,25.728c-38.725,10.409-69.319,18.632-79.1-17.754
				c-3.845-14.311-1.861-24.758,6.25-32.889c10.65-10.679,30.406-15.985,53.283-22.139c7.977-2.138,16.143-3.522,24.277-4.107
				l1.977-0.149l-0.696-1.852c-0.887-2.363-1.651-4.744-2.281-7.077c-1.441-5.368-2.207-10.275-2.445-14.558
				c-1.127-0.996-2.122-2.053-2.991-3.169c-0.042,5.515,0.801,11.905,2.572,18.492c0.485,1.822,1.057,3.667,1.695,5.508
				c-7.672,0.666-15.36,2.031-22.884,4.056c-23.282,6.252-43.395,11.661-54.606,22.896c-8.812,8.84-11.108,20.537-7.018,35.75
				c10.549,39.261,44.003,30.265,82.731,19.851c19.9-5.353,37.885-15.005,49.348-26.494
				C221.911,208.454,226.269,197.036,223.56,186.953z"/>
		</g>
	</g>
	<g>
		<g>
			<path fill="#F9B77A" d="M79.165,206.688c0,0,28.403-19.568,46.746-18.769"/>
		</g>
		<g>
			<path d="M125.845,189.398c-17.639-0.772-45.559,18.317-45.835,18.506l-1.683-2.438c1.181-0.808,29.026-19.837,47.646-19.032
				L125.845,189.398z"/>
		</g>
	</g>
	<g>
		<g>
			<path fill="#F9B77A" d="M80.636,225.374c0,0,31.354-21.793,44.24-20.006"/>
		</g>
		<g>
			<path d="M124.676,206.837c-12.176-1.686-42.885,19.538-43.194,19.751l-1.688-2.436c1.3-0.9,31.979-22.093,45.292-20.25
				L124.676,206.837z"/>
		</g>
	</g>
	<g>
		<g>
			<path fill="#F9B77A" d="M88.73,242.283c0,0-1.745-11.035,32.737-17.657"/>
		</g>
		<g>
			<path d="M121.744,226.083c-32.088,6.161-31.551,15.912-31.542,16.015l-2.935,0.415c-0.196-1.272-0.95-12.65,33.92-19.346
				L121.744,226.083z"/>
		</g>
	</g>
</g>
<g>
	<g>
		<path fill="#48826D" d="M375.691,233.924l-146.18-0.912c-18.632-0.114-33.641-15.285-33.523-33.92
			c0.116-18.629,15.313-33.614,33.944-33.499l146.179,0.912c18.631,0.116,33.64,15.289,33.522,33.919
			C409.518,219.057,394.322,234.04,375.691,233.924z"/>
		<path d="M375.906,234.903h-0.218l-146.181-1.152c-9.146-0.057-17.721-3.785-24.145-10.283c-6.426-6.498-9.933-15.27-9.876-24.412
			c0.117-18.746,15.472-34.151,34.229-34.151h0.219l146.179,1.007c18.876,0.118,34.138,15.847,34.021,34.708
			C410.017,219.364,394.663,234.903,375.906,234.903z M229.718,166.092c-18.209,0-33.115,14.807-33.229,33.004
			c-0.056,8.877,3.35,17.239,9.587,23.55c6.236,6.308,14.562,9.812,23.439,9.866l146.392,0.913
			c18.208,0,33.114-14.806,33.229-33.004c0.113-18.312-14.701-33.302-33.025-33.416L229.718,166.092z"/>
	</g>
</g>
<g>
	<path fill="#48826D" d="M375.691,168.197c-8.558,2.363-15.683,7.914-20.063,15.628c-4.382,7.717-5.491,16.678-3.127,25.232
		c3.963,14.35,17.119,24.372,31.993,24.372c2.986,0,5.976-0.407,8.884-1.212l117.525-32.466v-68.906L375.691,168.197z"/>
	<path d="M393.511,232.701c-17.959,4.962-36.531-5.55-41.492-23.511c-4.962-17.957,5.582-36.517,23.54-41.477l135.346-37.388v-0.52
		l-135.479,37.425c-8.815,2.436-16.155,8.151-20.667,16.1c-4.514,7.948-5.657,17.181-3.224,25.991
		c4.083,14.782,17.638,25.106,32.959,25.106c3.076,0,6.154-0.42,9.148-1.246l117.261-32.394v-0.52L393.511,232.701z"/>
	<path d="M352.019,209.19c4.961,17.961,23.533,28.473,41.492,23.511l117.394-32.43v-0.52L393.38,232.218
		c-2.908,0.805-5.896,1.212-8.884,1.212c-14.874,0-28.03-10.022-31.993-24.372c-2.364-8.556-1.254-17.517,3.127-25.232
		c4.381-7.714,11.506-13.265,20.063-15.628l135.213-37.352v-0.52l-135.346,37.388C357.601,172.675,347.057,191.233,352.019,209.19z"
		/>
</g>
<rect x="340.904" y="166.903" fill="#48826D" width="47" height="65"/>
<g>
	<g>
		<g>
			
				<rect x="17.174" y="82.52" transform="matrix(-0.8779 0.4789 -0.4789 -0.8779 92.4499 174.0404)" width="13.716" height="32.579"/>
		</g>
		<g>
			
				<rect x="62.328" y="165.296" transform="matrix(-0.8778 0.479 -0.479 -0.8778 216.8983 307.8452)" width="13.717" height="32.58"/>
		</g>
		<g>
			<g>
				<path fill="#4D5154" d="M36.779,18.879c0,0-39.574,21.595-30.772,46.89c1.85,5.313,82.83,154.972,86.009,158.919
					c17.755,22.043,57.337,0.494,57.337,0.494L36.779,18.879z"/>
			</g>
			<g>
				<path d="M150.032,225.384l-0.441,0.238c-0.398,0.217-40.153,21.49-57.966-0.621C88.594,221.235,7.329,71.089,5.534,65.933
					c-3.226-9.267-0.509-19.045,8.072-29.059c9.417-10.989,22.797-18.36,22.933-18.434l0.438-0.239l0.241,0.438L150.032,225.384z
					 M14.367,37.525C6.033,47.25,3.381,56.697,6.479,65.605c1.792,5.145,82.9,155.013,85.927,158.769
					c16.29,20.223,51.878,2.855,56.266,0.602L36.584,19.563C34.215,20.923,22.707,27.791,14.367,37.525z"/>
			</g>
		</g>
		<g>
			<path d="M103.59,27.914l1.655-5.636c-0.714-0.985-1.396-1.859-2.038-2.588C92.968,8.073,76.623,4.709,60.353,7.18l-2.171,7.386
				L103.59,27.914z"/>
		</g>
		<g>
			<g>
				<path fill="#00BBE1" d="M101.883,24.204C86.29,6.51,56.533,7.959,34.45,20.01c-5.777,3.152-10.872,7.08-15.329,11.639
					l52.039,95.368l5.739,10.517l52.038,95.366c6.248-1.279,12.43-3.506,18.208-6.658c22.083-12.051,39.159-36.156,32.717-58.844
					C176.145,154.315,110.875,34.408,101.883,24.204z"/>
			</g>
			<g>
				<path d="M168.296,209.776c-0.001,0.002-0.001,0.002-0.003,0.004c-5.759,6.721-12.988,12.566-20.917,16.895
					c-5.744,3.135-11.914,5.396-18.343,6.711l-0.36,0.076l-0.177-0.324L18.503,31.562l0.259-0.264
					c4.589-4.694,9.788-8.641,15.448-11.729c21.561-11.766,51.859-14.067,68.046,4.302c8.757,9.937,74.429,130.538,78.078,143.382
					C184.197,180.852,179.802,196.346,168.296,209.776z M129.199,232.337c6.202-1.309,12.149-3.512,17.699-6.541
					c7.825-4.268,14.956-10.035,20.636-16.666c0.001,0,0.002-0.002,0.003-0.004c11.286-13.17,15.604-28.326,11.836-41.598
					c-3.638-12.809-69.137-133.087-77.87-142.997C85.662,6.555,55.901,8.871,34.688,20.448c-5.467,2.983-10.495,6.78-14.951,11.288
					L129.199,232.337z"/>
			</g>
		</g>
		<g>
			<circle cx="69.991" cy="50.429" r="8.499"/>
		</g>
		<g>
			<circle cx="94.277" cy="56.75" r="8.499"/>
		</g>
		<g>
			<circle cx="61.9" cy="73.787" r="8.499"/>
		</g>
		<g>
			<circle cx="86.187" cy="80.109" r="8.498"/>
		</g>
		<g>
			<circle cx="104.027" cy="135.273" r="16.258"/>
		</g>
	</g>
	<g>
		<rect x="98.909" y="111.57" transform="matrix(-0.997 0.0769 -0.0769 -0.997 218.7372 231.72)" width="12" height="17"/>
	</g>
	<g>
		<ellipse transform="matrix(-0.0767 -0.9971 0.9971 -0.0767 0.9774 224.1214)" cx="104.257" cy="111.608" rx="1.626" ry="6.375"/>
	</g>
</g>
<g>
	<g>
		<g>
			<path fill="#F9B77A" d="M65.195,208.154c1.607,8.368,3.261,18.146,9.341,24.617c8.086,8.605,20.373,16.567,32.094,20.374
				c15.67-11.965,22.8-25.978,11.618-47.685c-13.373-25.966-32.992-24.211-57.023-13.956
				C62.957,196.903,64.105,202.478,65.195,208.154z"/>
			<path d="M106.726,253.702l-0.25-0.081c-11.571-3.757-23.949-11.614-32.305-20.507c-5.924-6.306-7.698-15.602-9.265-23.803
				l-0.204-1.063c-1.031-5.373-2.187-11.08-3.956-16.59l-0.139-0.435l0.419-0.18c11.26-4.805,19.999-7.042,27.503-7.042
				c12.939,0,22.805,6.943,30.162,21.229c10.057,19.521,6.431,34.422-11.759,48.31L106.726,253.702z M61.838,191.788
				c1.709,5.427,2.838,11.01,3.849,16.271l0.203,1.063c1.541,8.067,3.285,17.212,9.011,23.305
				c8.187,8.715,20.287,16.422,31.635,20.16c17.548-13.49,21.021-27.964,11.269-46.897c-7.27-14.113-16.571-20.688-29.273-20.688
				C81.258,185.004,72.767,187.161,61.838,191.788z"/>
		</g>
		<g>
			<path d="M61.663,192.919c10.475-4.488,19.993-7.309,28.515-6.896c11.471,0.556,19.969,6.949,26.755,20.12
				c10.871,21.105,3.707,34.673-11.998,46.416c1.132,0.402,2.259,0.773,3.381,1.101c15.491-12.166,22.675-26.705,11.252-48.879
				c-7.212-14.005-16.783-21.111-29.25-21.721c-8.984-0.435-18.824,2.44-29.563,7.021C61.076,191.022,61.376,191.969,61.663,192.919
				z"/>
		</g>
	</g>
	<g>
		<g>
			<path fill="#F9B77A" d="M64.829,206.267l41.937-15.614c0,0-27.202,3.7-42.32,13.688C64.574,204.98,64.703,205.623,64.829,206.267
				z"/>
		</g>
		<g>
			<path d="M64.756,205.9c14.518-9.917,41.902-13.736,42.202-13.779l-0.396-2.935c-1.245,0.174-27.189,3.799-42.44,13.582
				C64.339,203.809,64.549,204.853,64.756,205.9z"/>
		</g>
	</g>
	<g>
		<g>
			<path fill="#F9B77A" d="M118.25,205.465c0,0-37.856,4.98-46.187,14.976"/>
		</g>
		<g>
			<path d="M73.201,221.391c7.872-9.44,44.87-14.408,45.243-14.46l-0.391-2.938c-1.567,0.208-38.522,5.179-47.129,15.501
				L73.201,221.391z"/>
		</g>
	</g>
	<g>
		<g>
			<path fill="#F9B77A" d="M123.643,223.419c0,0-6.136-9.336-36.098,8.972"/>
		</g>
		<g>
			<path d="M88.321,233.653c27.881-17.037,34.046-9.463,34.106-9.381l2.45-1.669c-0.711-1.073-7.811-9.996-38.107,8.519
				L88.321,233.653z"/>
		</g>
	</g>
</g>
<g>
	<path fill="#F9B77A" d="M203.619,169.076c0,0-111.218-83.882-97.795-30.667c8.371,33.187,78.567,9.708,71.167,52.244"/>
	<path d="M177.977,190.825l-1.971-0.344c3.839-22.067-14.203-25.606-33.304-29.354c-16.644-3.266-33.854-6.642-37.848-22.474
		c-2.193-8.694-1.229-14.48,2.865-17.197c18.104-12.013,93.309,44.412,96.501,46.82l-1.204,1.598
		c-0.771-0.582-77.255-57.986-94.191-46.751c-3.312,2.197-3.995,7.258-2.032,15.041c3.683,14.603,20.261,17.854,36.293,21
		C162.292,162.932,182.151,166.828,177.977,190.825z"/>
</g>
<g>
	<path d="M123.766,234.645l-0.246-1.984c43.716-5.42,52.413-41.859,52.496-42.227l1.952,0.438
		C177.882,191.253,168.918,229.048,123.766,234.645z"/>
</g>
<path fill="#F9B77A" d="M179.607,186.409c0,0,2.547,8.465-4.205,13.613"/>
</svg>
