<?xml version="1.0" encoding="utf-8"?>
<!-- Generator: Adobe Illustrator 16.0.0, SVG Export Plug-In . SVG Version: 6.00 Build 0)  -->
<!DOCTYPE svg PUBLIC "-//W3C//DTD SVG 1.1//EN" "http://www.w3.org/Graphics/SVG/1.1/DTD/svg11.dtd">
<svg version="1.1" id="Ebene_1" xmlns="http://www.w3.org/2000/svg" xmlns:xlink="http://www.w3.org/1999/xlink" x="0px" y="0px"
	 width="510.904px" height="286.486px" viewBox="0 0 510.904 286.486" enable-background="new 0 0 510.904 286.486"
	 xml:space="preserve">
<g>
	<g>
		<g>
			<g>
				<path fill="#F9B77A" d="M368.522,169.532c-8.41-2.261-16.68-3.596-24.554-4.163c0.854-2.287,1.651-4.69,2.324-7.214
					c1.355-5.043,2.15-9.926,2.428-14.348c-2.384,2.127-5.161,3.794-7.908,4.793c-0.922,0.335-1.857,0.609-2.799,0.857
					c-1.892,3.697-5.547,6.278-10.109,6.278c-0.783,0-1.563-0.093-2.325-0.26c-2.002,1.469-4.535,2.21-7.054,2.198
					c-12.545,17.828-28.127,20.289-30.918,30.658c-5.612,20.89,21.511,46.336,60.58,56.838
					c39.072,10.503,70.75,19.018,80.914-18.803C439.269,188.552,407.597,180.037,368.522,169.532z"/>
			</g>
		</g>
		<g>
			<g>
				<path d="M423.518,191.004c-11.212-11.235-31.324-16.645-54.606-22.896c-7.522-2.024-15.212-3.39-22.884-4.056
					c0.64-1.841,1.21-3.686,1.696-5.508c0.421-1.563,0.777-3.113,1.095-4.646c-1.109,0.839-2.292,1.602-3.546,2.276
					c-0.131,0.529-0.269,1.063-0.413,1.603c-0.63,2.333-1.394,4.714-2.281,7.077l-0.695,1.852l1.976,0.149
					c8.135,0.585,16.301,1.97,24.278,4.107c22.878,6.154,42.634,11.461,53.284,22.14c8.109,8.131,10.094,18.578,6.25,32.889
					c-9.78,36.386-40.375,28.163-79.102,17.754c-19.411-5.223-36.913-14.596-48.015-25.728c-9.854-9.87-13.943-20.271-11.521-29.295
					c1.24-4.593,5.537-7.654,10.979-11.528c0.777-0.554,1.58-1.127,2.396-1.718c-1.613,0.306-3.265,0.423-4.945,0.296
					c-0.163-0.014-0.313-0.043-0.476-0.06c-5.297,3.801-9.412,7.043-10.808,12.24c-2.71,10.084,1.647,21.502,12.276,32.157
					c11.464,11.489,29.447,21.142,49.349,26.494c38.728,10.414,72.182,19.41,82.73-19.851
					C434.627,211.541,432.329,199.844,423.518,191.004z"/>
			</g>
		</g>
	</g>
	<g>
		<g>
			<g>
				<path fill="#F9B77A" d="M430.574,207.688c0,0-28.402-19.568-46.746-18.769"/>
			</g>
		</g>
		<g>
			<g>
				<path d="M383.894,190.398c17.638-0.772,45.558,18.317,45.835,18.506l1.682-2.438c-1.181-0.808-29.024-19.837-47.645-19.032
					L383.894,190.398z"/>
			</g>
		</g>
	</g>
	<g>
		<g>
			<g>
				<path fill="#F9B77A" d="M429.102,226.374c0,0-31.354-21.793-44.24-20.006"/>
			</g>
		</g>
		<g>
			<g>
				<path d="M385.063,207.837c12.176-1.686,42.885,19.538,43.195,19.751l1.688-2.436c-1.299-0.9-31.979-22.093-45.291-20.25
					L385.063,207.837z"/>
			</g>
		</g>
	</g>
	<g>
		<g>
			<g>
				<path fill="#F9B77A" d="M421.009,243.283c0,0,1.745-11.035-32.737-17.657"/>
			</g>
		</g>
		<g>
			<g>
				<path d="M387.994,227.083c32.088,6.161,31.552,15.912,31.541,16.015l2.937,0.415c0.195-1.272,0.95-12.65-33.92-19.346
					L387.994,227.083z"/>
			</g>
		</g>
	</g>
</g>
<g>
	<g>
		<g>
			<path fill="#48826D" d="M134.047,234.924l146.181-0.912c18.631-0.114,33.64-15.285,33.523-33.92
				c-0.116-18.629-15.313-33.614-33.944-33.499l-146.18,0.912c-18.631,0.116-33.639,15.289-33.521,33.919
				C100.221,220.057,115.416,235.04,134.047,234.924z"/>
		</g>
		<g>
			<path d="M99.604,201.618c-0.117-18.861,15.144-34.59,34.02-34.708l146.18-1.007h0.218c18.758,0,34.112,15.405,34.229,34.151
				c0.058,9.144-3.449,17.913-9.876,24.412c-6.424,6.498-14.999,10.228-24.145,10.283l-146.181,1.152h-0.218
				C115.075,235.903,99.722,220.364,99.604,201.618z M133.63,168.005c-18.323,0.114-33.14,15.104-33.024,33.416
				c0.112,18.198,15.02,33.004,33.228,33.004l146.393-0.913c8.879-0.056,17.203-3.56,23.438-9.866
				c6.237-6.311,9.644-14.673,9.588-23.55c-0.113-18.197-15.021-33.004-33.229-33.004L133.63,168.005z"/>
		</g>
	</g>
</g>
<g>
	<g>
		<path fill="#48826D" d="M134.082,169.197c8.559,2.363,15.665,7.914,20.046,15.628c4.381,7.717,5.482,16.678,3.118,25.232
			c-3.963,14.35-17.125,24.372-31.998,24.372c-2.985,0-5.941-0.407-8.851-1.212L-1.096,200.753v-68.906L134.082,169.197z"/>
	</g>
	<g>
		<path d="M116.263,233.701c17.959,4.962,36.514-5.55,41.475-23.511c4.962-17.957-5.556-36.517-23.514-41.477l-135.32-37.387v-0.52
			l135.443,37.425c8.814,2.436,16.138,8.151,20.648,16.1c4.513,7.948,5.648,17.181,3.214,25.991
			c-4.083,14.782-17.641,25.106-32.963,25.106c-3.076,0-6.122-0.42-9.116-1.246L-1.096,201.791v-0.52L116.263,233.701z"/>
	</g>
	<g>
		<path d="M157.72,210.19c-4.962,17.961-23.498,28.473-41.457,23.511l-117.358-32.43v-0.52l117.491,32.466
			c2.908,0.805,5.879,1.212,8.865,1.212c14.873,0,28.021-10.022,31.984-24.372c2.364-8.556,1.25-17.517-3.131-25.232
			c-4.381-7.714-11.474-13.265-20.031-15.628l-135.18-37.352v-0.52l135.311,37.388C152.173,173.675,162.682,192.233,157.72,210.19z"
			/>
	</g>
</g>
<g>
	<rect x="121.904" y="167.903" fill="#48826D" width="47" height="65"/>
</g>
<g>
	<path d="M326.406,189.642c-0.341-7.146,13.242-12.905,30.438-20.197c15.592-6.611,33.263-14.104,36.456-22.155
		c0.686-1.729,0.651-3.4-0.103-5.114c-2.771-6.3-7.62-9.555-14.82-9.951c-24.39-1.354-67.379,32.086-73.176,42.1l-2.596-1.504
		c6.184-10.683,50.012-45.032,75.936-43.591c8.322,0.459,14.178,4.408,17.402,11.737c1.078,2.452,1.127,4.951,0.146,7.431
		c-3.656,9.217-21.153,16.636-38.073,23.812c-13.525,5.734-28.854,12.234-28.613,17.292L326.406,189.642z"/>
</g>
<g>
	<g>
		<g>
			
				<rect x="477.57" y="92.149" transform="matrix(0.8756 0.4831 -0.4831 0.8756 112.4437 -220.4987)" width="13.454" height="31.8"/>
		</g>
	</g>
	<g>
		<g>
			
				<rect x="433.259" y="172.474" transform="matrix(0.8756 0.483 -0.483 0.8756 145.7193 -189.0909)" width="13.455" height="31.8"/>
		</g>
	</g>
	<g>
		<g>
			<g>
				<path fill="#4D5154" d="M472.915,29.426c0,0,38.761,21.384,30.001,46.181c-1.841,5.21-82.036,151.795-85.176,155.656
					c-17.537,21.563-56.303,0.226-56.303,0.226L472.915,29.426z"/>
			</g>
		</g>
		<g>
			<g>
				<path d="M360.758,231.684l111.96-202.938l0.438,0.242c0.113,0.061,11.201,6.232,20.113,15.623
					c10.215,10.763,13.621,21.248,10.117,31.163c-1.786,5.054-82.263,152.122-85.258,155.803c-17.6,21.637-56.542,0.564-56.934,0.35
					L360.758,231.684z M473.108,30.112l-110.986,201.17c4.334,2.252,39.157,19.429,55.229-0.336
					c2.99-3.674,83.312-150.462,85.093-155.507c3.367-9.532,0.036-19.672-9.897-30.141
					C484.734,37.069,475.232,31.343,473.108,30.112z"/>
			</g>
		</g>
	</g>
	<g>
		<g>
			<path d="M407.27,37.993l-1.601-5.541c0.703-0.965,1.379-1.818,2.011-2.531c10.107-11.361,26.174-14.589,42.138-12.09l2.099,7.262
				L407.27,37.993z"/>
		</g>
	</g>
	<g>
		<g>
			<g>
				<path fill="#FF5D50" d="M408.965,34.36c15.391-17.305,44.602-15.746,66.23-3.812c5.656,3.12,10.643,7,15,11.5l-51.532,93.403
					l-5.684,10.304l-51.531,93.405c-6.129-1.286-12.19-3.5-17.85-6.621c-21.628-11.933-38.286-35.682-31.857-57.929
					C335.451,161.778,400.088,44.338,408.965,34.36z"/>
			</g>
		</g>
		<g>
			<g>
				<path d="M345.462,219.163c-13.209-13.918-18.385-30.207-14.199-44.69c3.639-12.593,68.683-130.725,77.329-140.445
					c15.979-17.967,45.724-15.572,66.846-3.918c5.545,3.058,10.632,6.958,15.119,11.59l0.257,0.265l-109.104,197.76l-0.363-0.075
					c-6.31-1.325-12.361-3.569-17.986-6.674C356.784,229.347,350.596,224.571,345.462,219.163z M489.578,42.13
					c-4.354-4.445-9.272-8.193-14.624-11.146c-20.773-11.46-49.982-13.868-65.614,3.706c-8.624,9.694-73.487,127.501-77.117,140.059
					c-4.084,14.133,1.006,30.072,13.965,43.726c5.063,5.334,11.169,10.046,17.654,13.625c5.432,2.996,11.266,5.182,17.349,6.493
					L489.578,42.13z"/>
			</g>
		</g>
	</g>
	<g>
		<g>
			<circle cx="409.397" cy="116.012" r="8.346"/>
		</g>
	</g>
	<g>
		<g>
			<circle cx="385.521" cy="122.108" r="8.346"/>
		</g>
	</g>
	<g>
		<g>
			<circle cx="417.237" cy="138.985" r="8.346"/>
		</g>
	</g>
	<g>
		<g>
			<circle cx="393.359" cy="145.081" r="8.346"/>
		</g>
	</g>
	<g>
		<g>
			<circle cx="432.294" cy="76.012" r="15.965"/>
		</g>
	</g>
</g>
<g>
	<g>
		<g>
			<g>
				<path fill="#F9B77A" d="M444.544,209.154c-1.606,8.368-3.261,18.146-9.342,24.617c-8.087,8.605-20.372,16.567-32.095,20.374
					c-15.67-11.965-22.799-25.978-11.617-47.685c13.373-25.966,32.992-24.211,57.024-13.956
					C446.781,197.903,445.634,203.478,444.544,209.154z"/>
			</g>
			<g>
				<path d="M402.805,254.543c-18.189-13.888-21.815-28.787-11.759-48.31c7.355-14.286,17.224-21.229,30.161-21.229
					c7.505,0,16.243,2.237,27.504,7.042l0.419,0.18l-0.141,0.435c-1.77,5.51-2.924,11.217-3.955,16.59l-0.204,1.063
					c-1.564,8.201-3.341,17.497-9.265,23.803c-8.354,8.893-20.733,16.75-32.305,20.507l-0.249,0.081L402.805,254.543z
					 M421.208,186.004c-12.701,0-22.005,6.573-29.272,20.688c-9.753,18.935-6.28,33.407,11.269,46.897
					c11.349-3.738,23.447-11.445,31.636-20.159c5.725-6.094,7.471-15.237,9.012-23.306l0.203-1.063
					c1.01-5.263,2.139-10.846,3.848-16.271C436.971,188.161,428.48,186.004,421.208,186.004z"/>
			</g>
		</g>
		<g>
			<g>
				<path d="M448.076,193.919c-10.475-4.488-19.994-7.309-28.514-6.896c-11.471,0.556-19.969,6.949-26.756,20.12
					c-10.871,21.105-3.707,34.673,11.998,46.416c-1.132,0.402-2.261,0.773-3.381,1.101c-15.491-12.166-22.676-26.705-11.252-48.879
					c7.212-14.005,16.782-21.111,29.25-21.721c8.983-0.435,18.823,2.44,29.563,7.021
					C448.662,192.022,448.362,192.969,448.076,193.919z"/>
			</g>
		</g>
	</g>
	<g>
		<g>
			<g>
				<path fill="#F9B77A" d="M444.91,207.267l-41.936-15.614c0,0,27.201,3.7,42.319,13.688
					C445.164,205.98,445.035,206.623,444.91,207.267z"/>
			</g>
		</g>
		<g>
			<g>
				<path d="M444.982,206.9c-14.517-9.917-41.902-13.736-42.201-13.779l0.396-2.935c1.244,0.174,27.188,3.799,42.438,13.582
					C445.398,204.809,445.189,205.853,444.982,206.9z"/>
			</g>
		</g>
	</g>
	<g>
		<g>
			<g>
				<path fill="#F9B77A" d="M391.488,206.465c0,0,37.857,4.98,46.188,14.976"/>
			</g>
		</g>
		<g>
			<g>
				<path d="M436.537,222.391c-7.871-9.44-44.868-14.408-45.241-14.46l0.391-2.938c1.567,0.208,38.521,5.179,47.129,15.501
					L436.537,222.391z"/>
			</g>
		</g>
	</g>
	<g>
		<g>
			<g>
				<path fill="#F9B77A" d="M386.096,224.419c0,0,6.135-9.336,36.098,8.972"/>
			</g>
		</g>
		<g>
			<g>
				<path d="M421.417,234.653c-27.881-17.037-34.046-9.463-34.105-9.381l-2.451-1.669c0.711-1.073,7.812-9.996,38.108,8.519
					L421.417,234.653z"/>
			</g>
		</g>
	</g>
</g>
<g>
	<path fill="#F9B77A" d="M303.904,173.57c7.333-12.667,76-65.334,90.667-32c8.877,20.174-67.334,34-66.667,48"/>
	<path d="M326.905,189.618c-0.323-6.798,13.791-12.783,30.134-19.713c15.682-6.649,33.455-14.187,36.726-22.432
		c0.737-1.859,0.702-3.658-0.108-5.5c-2.815-6.398-7.947-9.847-15.252-10.25c-24.501-1.349-67.804,32.275-73.635,42.348l-1.73-1.002
		c6.148-10.622,49.694-44.769,75.476-43.343c8.118,0.448,13.829,4.297,16.972,11.441c1.023,2.325,1.069,4.694,0.138,7.043
		c-3.579,9.022-20.978,16.4-37.804,23.535c-14.344,6.082-29.175,12.371-28.917,17.776L326.905,189.618z"/>
</g>
</svg>
